<?xml version="1.0" encoding="UTF-8"?>
<svg version="1.1" xmlns="http://www.w3.org/2000/svg" width="512" height="512">
<path d="M0 0 C12.09612811 9.59090219 20.45741739 20.80418511 24 36 C25.77694806 53.82072113 23.43011471 68.78007057 12 83 C10.99670455 84.33085537 9.99565004 85.66341525 9 87 C9.82242188 87.14695312 10.64484375 87.29390625 11.4921875 87.4453125 C22.47269861 89.65155838 32.07674496 93.85927207 39 103 C45.67242008 114.03337823 47.31114442 123.79148289 47.30078125 136.515625 C47.30506638 137.68961853 47.3093515 138.86361206 47.31376648 140.07318115 C47.31948228 142.54064288 47.32003046 145.00812144 47.31567383 147.47558594 C47.31249811 151.25224246 47.33606275 155.02812671 47.36132812 158.8046875 C47.36359979 161.20833235 47.36430523 163.6119793 47.36328125 166.015625 C47.372491 167.14276917 47.38170074 168.26991333 47.39118958 169.43121338 C47.38496078 170.4829071 47.37873199 171.53460083 47.37231445 172.61816406 C47.37294388 173.53921936 47.3735733 174.46027466 47.3742218 175.40924072 C46.87919017 178.8363735 45.46324922 181.53675078 43 184 C41.07064136 184.10319213 39.13746203 184.13522334 37.20535278 184.14044189 C35.94619049 184.14615204 34.6870282 184.15186218 33.38970947 184.15774536 C31.98132334 184.15899085 30.5729371 184.16011592 29.16455078 184.16113281 C27.69145584 184.16575861 26.2183621 184.17078294 24.74526978 184.17617798 C20.7328593 184.18932716 16.72046557 184.19575184 12.7080369 184.20018864 C10.20356805 184.20311535 7.69910383 184.20721939 5.1946373 184.21169281 C-2.63446847 184.22537446 -10.46356372 184.23503781 -18.29268062 184.2388947 C-27.34282748 184.24337706 -36.39282342 184.26093036 -45.44292438 184.2898953 C-52.42977329 184.31148366 -59.41657965 184.32159746 -66.40346158 184.32293582 C-70.58036218 184.32398591 -74.75712105 184.32993678 -78.93398666 184.34775543 C-82.86231804 184.36418707 -86.79040041 184.36641572 -90.71875381 184.35761642 C-92.16235265 184.3568434 -93.6059646 184.36122359 -95.04953003 184.37107468 C-97.01677494 184.38371433 -98.98411905 184.37615491 -100.9513855 184.36749268 C-102.05347288 184.36895924 -103.15556026 184.3704258 -104.29104424 184.3719368 C-107 184 -107 184 -108.81553841 182.66453171 C-111.07546851 179.48863699 -111.13719737 176.582143 -111.17700195 172.81689453 C-111.18983719 171.75793976 -111.20267242 170.69898499 -111.21589661 169.60794067 C-111.22328354 168.46114838 -111.23067047 167.31435608 -111.23828125 166.1328125 C-111.246353 164.94710663 -111.25442474 163.76140076 -111.26274109 162.5397644 C-111.27658702 160.02294375 -111.28730689 157.50610428 -111.29516602 154.98925781 C-111.31227681 151.17475612 -111.35614787 147.36114435 -111.40039062 143.546875 C-111.41052683 141.09636051 -111.41904002 138.64583868 -111.42578125 136.1953125 C-111.44328934 135.06876251 -111.46079742 133.94221252 -111.47883606 132.78152466 C-111.44405101 119.81574303 -107.91783809 108.30941383 -98.9296875 98.8125 C-91.2006958 91.48746257 -83.38793929 88.64819079 -73 87 C-73.53109375 86.29875 -74.0621875 85.5975 -74.609375 84.875 C-83.46156086 72.98593286 -88.6040638 62.19109252 -88.4375 47.125 C-88.42992676 46.15973389 -88.42235352 45.19446777 -88.41455078 44.19995117 C-88.24516543 36.85888902 -87.21227367 30.6662231 -84 24 C-83.59910156 23.08476562 -83.19820312 22.16953125 -82.78515625 21.2265625 C-75.93459657 7.04888246 -63.65876529 -1.62292996 -49.32421875 -7.23828125 C-33.38413238 -12.46234317 -13.6481371 -9.59520193 0 0 Z M-65.23828125 23.625 C-72.3388426 33.19737539 -73.20184007 44.46233528 -72 56 C-69.28569559 66.80853057 -62.89959682 75.91934458 -53.37890625 81.71875 C-43.52854748 87.02403354 -33.71462484 89.469229 -22.6171875 86.86328125 C-10.46552821 82.85504736 -1.85826158 76.43200897 4.4921875 65.41015625 C9.40455584 55.29400789 9.89256669 43.62377855 6.375 32.9375 C1.65570302 22.05187421 -6.92719144 13.17165084 -17.95703125 8.69140625 C-36.36605205 2.46120227 -53.04920486 9.44831391 -65.23828125 23.625 Z M-88.8125 111.6875 C-89.35519531 112.28949219 -89.89789063 112.89148438 -90.45703125 113.51171875 C-100.26140562 129.32282375 -95 151.78831097 -95 168 C-53.42 168 -11.84 168 31 168 C34.15453792 140.57768147 34.15453792 140.57768147 24.8125 111.6875 C24.28269531 111.07261719 23.75289063 110.45773437 23.20703125 109.82421875 C17.23908626 104.89142174 11.57907965 103.40530068 3.95703125 103.48242188 C2.65782242 103.47190796 2.65782242 103.47190796 1.33236694 103.46118164 C-1.50792261 103.44369151 -4.34720173 103.45519224 -7.1875 103.46875 C-9.17472524 103.4660525 -11.16194918 103.46216794 -13.14916992 103.45715332 C-17.30497865 103.45127043 -21.46044244 103.45978225 -25.61621094 103.47851562 C-30.92902589 103.50130431 -36.24103242 103.48817474 -41.55381775 103.46422577 C-45.65464307 103.44973511 -49.75527841 103.45438877 -53.85610962 103.46473694 C-55.81442359 103.46739519 -57.77275511 103.46416636 -59.73104858 103.45481873 C-62.47350408 103.44459918 -65.21467111 103.46022918 -67.95703125 103.48242188 C-68.75726715 103.47432495 -69.55750305 103.46622803 -70.38198853 103.45788574 C-77.67742196 103.56662934 -83.97002014 106.06739564 -88.8125 111.6875 Z " fill="#000000" transform="translate(288,169)"/>
<path d="M0 0 C1.44989319 -0.00788544 1.44989319 -0.00788544 2.92907715 -0.01593018 C6.11434231 -0.02910052 9.29910502 -0.0204024 12.484375 -0.01025391 C14.70345149 -0.01227549 16.92252734 -0.01518763 19.14160156 -0.01895142 C23.78847591 -0.02337076 28.43517706 -0.0169561 33.08203125 -0.00292969 C39.03393338 0.01416179 44.98542965 0.00431854 50.93731689 -0.01364708 C55.51842295 -0.02449533 60.09943302 -0.02103375 64.68054199 -0.0132637 C66.8749598 -0.01126458 69.06938636 -0.01371083 71.26379395 -0.02070236 C74.33234697 -0.02833378 77.40024562 -0.01668847 80.46875 0 C81.82486389 -0.00910904 81.82486389 -0.00910904 83.20837402 -0.0184021 C89.68180508 0.0467136 93.76084284 1.43236747 98.921875 5.51318359 C104.98515827 13.05131955 104.67268666 21.84825079 104.546875 31.13818359 C104.55009766 32.34345703 104.55332031 33.54873047 104.55664062 34.79052734 C104.48124738 47.14131121 104.48124738 47.14131121 100.234375 51.38818359 C93.12849674 52.07584923 93.12849674 52.07584923 90.14086914 49.77807617 C87.62727524 46.6271515 87.70927827 44.68956022 87.66015625 40.68896484 C87.63244141 39.39796875 87.60472656 38.10697266 87.57617188 36.77685547 C87.56552747 35.41813811 87.55577251 34.05941351 87.546875 32.70068359 C87.50869874 30.02992289 87.45963649 27.35956043 87.41015625 24.68896484 C87.39335815 22.91259644 87.39335815 22.91259644 87.3762207 21.1003418 C87.54213236 18.47287078 87.54213236 18.47287078 86.234375 17.38818359 C83.37882919 17.28763246 80.54743477 17.25202816 77.69140625 17.25878906 C76.79553802 17.25703674 75.8996698 17.25528442 74.97665405 17.253479 C72.00004163 17.24905913 69.02348808 17.25199895 66.046875 17.25537109 C63.98803699 17.25469809 61.92919906 17.2537281 59.87036133 17.25247192 C55.54930873 17.25099477 51.22827677 17.25315008 46.90722656 17.2578125 C41.35500954 17.26350979 35.80284086 17.26023089 30.25062561 17.25424004 C25.99743279 17.2506349 21.74425151 17.25177279 17.49105835 17.25436783 C15.44322707 17.25503723 13.39539477 17.25420822 11.3475647 17.25188828 C8.49079592 17.24936253 5.63410657 17.25320123 2.77734375 17.25878906 C1.49469131 17.25575272 1.49469131 17.25575272 0.18612671 17.25265503 C-3.59626153 16.89817524 -3.59626153 16.89817524 -6.765625 18.38818359 C-6.8608652 21.27964985 -6.89114221 24.14707169 -6.87915039 27.03881836 C-6.87933119 28.42174906 -6.87933119 28.42174906 -6.87951565 29.83261776 C-6.87876631 32.83163258 -6.87113716 35.83058607 -6.86328125 38.82958984 C-6.86181189 40.67525197 -6.86079115 42.52091452 -6.86022949 44.36657715 C-6.85497587 51.2279523 -6.8410148 58.08931854 -6.828125 64.95068359 C-6.8075 80.27505859 -6.786875 95.59943359 -6.765625 111.38818359 C24.254375 111.38818359 55.274375 111.38818359 87.234375 111.38818359 C87.564375 99.17818359 87.894375 86.96818359 88.234375 74.38818359 C91.33073429 71.2918243 92.06345864 70.68610619 96.234375 70.38818359 C99.33091251 71.3243461 100.93860822 72.09241682 103.234375 74.38818359 C105.21397643 79.82893027 104.45930751 86.14262146 104.47460938 91.86743164 C104.48426662 94.05117598 104.51529055 96.23395864 104.546875 98.41748047 C104.61361547 107.14531139 104.61272407 115.18807394 98.921875 122.26318359 C92.81939731 127.08839852 88.03032947 127.82986028 80.50048828 127.79223633 C79.05541397 127.8025312 79.05541397 127.8025312 77.58114624 127.81303406 C74.40550884 127.83129247 71.23036599 127.82746544 68.0546875 127.82177734 C65.84040161 127.82633995 63.62611714 127.83164576 61.41183472 127.83766174 C56.7733586 127.84659126 52.13505467 127.84417185 47.49658203 127.83422852 C41.56272867 127.82274574 35.629471 127.84294103 29.69569588 127.87214565 C25.12307989 127.8905244 20.55060616 127.8902117 15.97796249 127.88450813 C13.79077189 127.88435509 11.60357154 127.89038536 9.41641617 127.90279961 C6.35291853 127.91773708 3.29051504 127.90701127 0.22705078 127.88989258 C-0.66983459 127.89956055 -1.56671997 127.90922852 -2.49078369 127.91918945 C-9.57852158 127.83657912 -14.94323685 126.062025 -20.140625 121.13818359 C-23.84477589 114.86962055 -24.06152484 108.17405242 -24.0402832 101.08569336 C-24.04539413 100.19189972 -24.05050507 99.29810608 -24.05577087 98.37722778 C-24.06958608 95.44461227 -24.06871633 92.51223388 -24.06640625 89.57958984 C-24.07029735 87.52750055 -24.07463287 85.47541205 -24.07939148 83.42332458 C-24.08683614 79.13057845 -24.08657494 74.8379146 -24.08129883 70.54516602 C-24.07550374 65.05996338 -24.09244484 59.57509836 -24.1156435 54.08995152 C-24.13041537 49.85444692 -24.13124788 45.61902303 -24.12813377 41.38349724 C-24.12864515 39.36180896 -24.13384828 37.34011596 -24.14394569 35.31845284 C-24.15636115 32.48543823 -24.14948811 29.65307352 -24.13793945 26.82006836 C-24.14558319 25.99537552 -24.15322693 25.17068268 -24.16110229 24.32099915 C-24.09875588 17.35843134 -22.88634733 11.0247573 -18.453125 5.51318359 C-12.33620136 0.6765463 -7.54685665 -0.05069236 0 0 Z " fill="#000000" transform="translate(215.765625,-0.38818359375)"/>
<path d="M0 0 C6.39466443 3.30617757 9.21190963 10.03622872 12.28588867 16.18261719 C12.95735176 17.50802017 12.95735176 17.50802017 13.64237976 18.86019897 C15.1157224 21.77337335 16.57994183 24.69100772 18.04296875 27.609375 C19.06606913 29.64339046 20.08928971 31.67734546 21.11262512 33.71124268 C23.25454074 37.97261675 25.39128766 42.23653949 27.52514648 46.50195312 C30.25537651 51.95712972 33.00391317 57.40285486 35.7571516 62.84644699 C37.87623297 67.04367887 39.98259151 71.24720048 42.08550453 75.4525528 C43.09321741 77.46260424 44.10550923 79.47036706 45.12251854 81.4757309 C46.54585277 84.28560239 47.95107133 87.10385635 49.35229492 89.92480469 C49.9826767 91.15488754 49.9826767 91.15488754 50.62579346 92.40982056 C53.84178677 98.95912019 55.79474236 105.34203346 53.5 112.5 C50.93960378 118.28972478 47.72373745 122.27374688 41.6810894 124.71229744 C37.82004623 125.8393924 33.95607062 125.73702032 29.96118164 125.71655273 C29.01715988 125.72341599 28.07313812 125.73027924 27.10050964 125.73735046 C23.99523671 125.75557801 20.89047095 125.7517867 17.78515625 125.74609375 C15.61714006 125.75065744 13.44912532 125.75596357 11.28111267 125.76197815 C6.74276849 125.77090129 2.20460036 125.76849505 -2.33374023 125.75854492 C-8.13865429 125.74705568 -13.94295999 125.76727055 -19.74779415 125.79646206 C-24.22347347 125.81484113 -28.69900745 125.81452817 -33.17471504 125.80882454 C-35.31445736 125.80867154 -37.45420965 125.81469824 -39.59391594 125.82711601 C-42.59025709 125.84205636 -45.58548004 125.83132618 -48.58178711 125.81420898 C-49.45839996 125.82387695 -50.33501282 125.83354492 -51.2381897 125.84350586 C-57.07250584 125.7739993 -61.49660988 124.59378001 -66.375 121.3125 C-71.60928964 115.80272143 -73.19571865 110.90910477 -73.05407715 103.37670898 C-71.98338727 94.38638749 -66.53166472 86.00697519 -62.453125 78.09375 C-61.42927169 76.062705 -60.40755719 74.03058054 -59.38787842 71.99743652 C-57.25462797 67.75678888 -55.10499657 63.5250517 -52.94140625 59.29980469 C-50.17098935 53.88937945 -47.4285536 48.46540794 -44.69649124 43.03553009 C-42.08243799 37.84217535 -39.45636404 32.65493683 -36.828125 27.46875 C-36.32943153 26.48306534 -35.83073807 25.49738068 -35.31693268 24.48182678 C-33.90170527 21.69089263 -32.47821041 18.90435096 -31.05175781 16.11914062 C-30.63600494 15.29727264 -30.22025208 14.47540466 -29.79190063 13.62863159 C-23.62005928 1.64516693 -13.82429362 -6.2954497 0 0 Z M-12.00042439 15.52549934 C-13.34599496 17.27479235 -14.3773537 18.93455211 -15.36820984 20.9045105 C-15.73414246 21.62502594 -16.10007507 22.34554138 -16.47709656 23.08789062 C-16.86839249 23.87341309 -17.25968842 24.65893555 -17.6628418 25.46826172 C-18.08268341 26.2994754 -18.50252502 27.13068909 -18.93508911 27.98709106 C-20.32108279 30.73567904 -21.6980689 33.48865923 -23.07421875 36.2421875 C-24.03376539 38.1541815 -24.99355161 40.06605529 -25.9535675 41.97781372 C-27.96417644 45.98558028 -29.97001268 49.9956938 -31.97290039 54.00732422 C-34.54123011 59.14988271 -37.12408504 64.28498994 -39.7109251 69.41825676 C-41.69693732 73.36444505 -43.67376558 77.31517964 -45.64798927 81.26727676 C-46.59654381 83.16269108 -47.54829183 85.05651069 -48.5032711 86.94869614 C-49.83687086 89.59378799 -51.15764039 92.24490962 -52.4753418 94.89794922 C-52.87271042 95.67942322 -53.27007904 96.46089722 -53.67948914 97.26605225 C-56.28006573 102.51668091 -56.28006573 102.51668091 -56.375 108.3125 C-54.51918034 110.16831966 -51.88101694 109.43254366 -49.41213989 109.43692017 C-48.12713089 109.43152725 -48.12713089 109.43152725 -46.81616211 109.42602539 C-45.46995033 109.42624443 -45.46995033 109.42624443 -44.09654236 109.4264679 C-41.11511866 109.42576842 -38.1337566 109.41797441 -35.15234375 109.41015625 C-33.09111058 109.40829219 -31.02987696 109.40686823 -28.96864319 109.40586853 C-23.5319599 109.40204237 -18.09530314 109.39221126 -12.65863037 109.38116455 C-7.11552286 109.37095253 -1.57241108 109.36637136 3.97070312 109.36132812 C14.85548043 109.35058908 25.74023802 109.33351149 36.625 109.3125 C37.79824444 107.53218091 37.79824444 107.53218091 38.625 105.3125 C38.23919661 103.34598995 38.23919661 103.34598995 37.18405151 101.42146301 C36.81394455 100.66013565 36.44383759 99.89880829 36.06251526 99.1144104 C35.64082565 98.28879608 35.21913605 97.46318176 34.78466797 96.61254883 C34.35247452 95.73574966 33.92028107 94.8589505 33.47499084 93.95558167 C32.03829501 91.05201392 30.57853104 88.16076297 29.1171875 85.26953125 C28.114005 83.26031827 27.11183068 81.25060161 26.11062622 79.24040222 C24.00717717 75.0262145 21.89244289 70.81794087 19.76953125 66.61352539 C17.04528411 61.21620549 14.34806393 55.80591171 11.65896416 50.39101124 C9.59320504 46.23811272 7.51400984 42.09205945 5.43057632 37.94800377 C4.43059675 35.95524363 3.43468458 33.9604372 2.44286728 31.96360207 C1.05596921 29.17677814 -0.34855344 26.3995869 -1.75830078 23.62426758 C-2.167845 22.79258057 -2.57738922 21.96089355 -2.99934387 21.10400391 C-3.57988274 19.97470207 -3.57988274 19.97470207 -4.17214966 18.82258606 C-4.5029056 18.16501218 -4.83366154 17.5074383 -5.17444038 16.82993793 C-6.30499133 15.16736933 -6.30499133 15.16736933 -8.32517815 14.40561962 C-10.43859402 14.09262195 -10.43859402 14.09262195 -12.00042439 15.52549934 Z " fill="#000000" transform="translate(72.375,194.6875)"/>
<path d="M0 0 C3.70667569 1.83964855 7.28858772 3.88868317 10.8840332 5.93505859 C12.59902374 6.89446055 14.31403647 7.85382308 16.02944946 8.81246948 C45.50276238 25.31440795 45.50276238 25.31440795 49.2590332 31.81005859 C49.74114258 32.61185547 50.22325195 33.41365234 50.7199707 34.23974609 C53.47938234 40.62898781 53.0441046 47.74439046 53.05200195 54.58349609 C53.05533035 55.59546051 53.05865875 56.60742493 53.06208801 57.65005493 C53.06713287 59.78313749 53.0694971 61.91622789 53.06933594 64.04931641 C53.07152145 67.29261416 53.08970073 70.53557093 53.10864258 73.77880859 C53.1115773 75.85953661 53.11356157 77.94026622 53.11450195 80.02099609 C53.12168747 80.98065277 53.12887299 81.94030945 53.13627625 82.92904663 C53.10769783 91.4534606 52.46482688 99.14760683 46.8840332 105.93505859 C40.76890476 111.80250725 33.67219462 115.71303256 26.3215332 119.81005859 C25.12256006 120.48512025 23.92398987 121.16089812 22.72583008 121.83740234 C20.9309146 122.8504031 19.13524425 123.86188344 17.33651733 124.86810303 C14.20997732 126.61728673 11.09702029 128.38598331 8.00170898 130.18994141 C7.0537722 130.74018478 7.0537722 130.74018478 6.08668518 131.30154419 C4.33227611 132.32187199 2.58083955 133.34730593 0.82958984 134.37304688 C-5.18980626 137.56509795 -11.76528834 137.97235586 -18.39331055 136.39208984 C-25.45363984 133.82140585 -31.84561267 129.7274704 -38.2487793 125.85302734 C-41.75336592 123.73351747 -45.29264808 121.68865176 -48.8581543 119.67333984 C-50.32236816 118.8359729 -50.32236816 118.8359729 -51.81616211 117.98168945 C-53.71810833 116.89465892 -55.62605713 115.8180416 -57.54077148 114.75366211 C-64.37575167 110.80815047 -69.73999766 106.38581768 -73.50268555 99.33740234 C-75.12186989 92.99473756 -75.98282096 86.41178477 -73.8034668 80.18505859 C-72.1159668 77.93505859 -72.1159668 77.93505859 -70.1159668 76.93505859 C-63.89058099 76.35863398 -63.89058099 76.35863398 -60.94799805 78.54833984 C-58.05567071 82.3163825 -58.2770894 86.22380632 -57.90112305 90.84130859 C-56.68218319 95.64429548 -53.24274192 97.24013039 -49.15258789 99.76269531 C-47.53731201 100.67946045 -47.53731201 100.67946045 -45.8894043 101.61474609 C-45.00691513 102.11761642 -45.00691513 102.11761642 -44.1065979 102.63064575 C-42.23700084 103.69452322 -40.3640114 104.75226525 -38.4909668 105.81005859 C-37.25767959 106.51150488 -36.02460493 107.213325 -34.79174805 107.91552734 C-32.38062599 109.28793066 -29.96313929 110.64804721 -27.54077148 112.00048828 C-25.34608627 113.24020069 -23.16760508 114.50932607 -21.01147461 115.81494141 C-15.65603325 118.98518538 -15.65603325 118.98518538 -9.6472168 120.21630859 C-4.24987767 118.25798201 0.48871726 115.41052224 5.3840332 112.43505859 C6.44323975 111.80156494 7.50244629 111.16807129 8.59375 110.51538086 C10.71308804 109.24693906 12.82992493 107.97430783 14.9440918 106.69726562 C17.50806972 105.16041189 20.08693826 103.65966842 22.68481445 102.18115234 C23.71928711 101.58560547 23.71928711 101.58560547 24.7746582 100.97802734 C26.5653494 99.94801594 28.35933085 98.92373056 30.15356445 97.89990234 C33.28951308 95.6432755 34.31167006 94.46387575 35.8840332 90.93505859 C36.32461513 87.40302989 36.30435709 83.89699415 36.2824707 80.34130859 C36.28534088 79.31702759 36.28821106 78.29274658 36.29116821 77.23742676 C36.29320628 75.07559658 36.28769448 72.91374785 36.27514648 70.75195312 C36.25908967 67.44668261 36.27500444 64.14263491 36.29418945 60.83740234 C36.29220698 58.73453507 36.28836321 56.63166855 36.2824707 54.52880859 C36.2885434 53.54223267 36.29461609 52.55565674 36.3008728 51.53918457 C36.28203134 44.6997356 36.28203134 44.6997356 32.8840332 38.93505859 C30.23507215 36.90852556 30.23507215 36.90852556 27.09887695 35.15380859 C26.52918686 34.8170813 25.95949677 34.480354 25.37254333 34.13342285 C24.16326196 33.42030782 22.95092093 32.71235921 21.73577881 32.00927734 C19.91317565 30.95196446 18.10268433 29.87648553 16.29467773 28.79443359 C13.29939815 27.00542271 10.2892296 25.24389047 7.27001953 23.49560547 C6.03876129 22.77950079 4.81062647 22.05800252 3.58544922 21.33154297 C1.77663355 20.25972271 -0.04129993 19.20517718 -1.86206055 18.15380859 C-2.92094482 17.53441406 -3.9798291 16.91501953 -5.07080078 16.27685547 C-8.45739371 14.78461505 -10.45762328 14.48830799 -14.1159668 14.93505859 C-16.69201841 15.9234717 -16.69201841 15.9234717 -19.13549805 17.42724609 C-20.06789307 17.96325439 -21.00028809 18.4992627 -21.9609375 19.05151367 C-22.94022217 19.6318335 -23.91950684 20.21215332 -24.9284668 20.81005859 C-25.9393335 21.39489014 -26.9502002 21.97972168 -27.99169922 22.58227539 C-32.79068191 25.36605657 -37.56158671 28.19710028 -42.3347168 31.02490234 C-43.11613037 31.48719238 -43.89754395 31.94948242 -44.70263672 32.42578125 C-46.15933995 33.29082362 -47.61278136 34.16138845 -49.0625 35.03808594 C-53.90028669 37.93505859 -53.90028669 37.93505859 -56.1159668 37.93505859 C-57.6135723 41.72899253 -58.22552513 45.02510071 -58.4284668 49.06005859 C-58.74858763 52.65734858 -58.92665744 53.69563793 -61.2409668 56.62255859 C-65.02596908 58.35049442 -67.14252518 58.03879238 -71.1159668 56.93505859 C-73.70051964 55.03971984 -74.07872185 54.04679343 -75.1159668 50.93505859 C-75.39455308 41.62058676 -74.35271724 34.07313841 -68.1159668 26.93505859 C-65.80615234 25.22192383 -65.80615234 25.22192383 -63.19018555 23.61865234 C-62.2156543 23.01915771 -61.24112305 22.41966309 -60.23706055 21.80200195 C-51.58930946 16.62918026 -42.87068979 11.58894644 -34.10083008 6.62597656 C-32.3139891 5.61373539 -30.53005678 4.59629343 -28.75219727 3.56835938 C-18.86359907 -2.12710898 -10.8517039 -4.94855403 0 0 Z " fill="#000000" transform="translate(267.115966796875,375.06494140625)"/>
<path d="M0 0 C2.51395067 2.27066512 2.93130182 3.59639822 3.5 6.9375 C2.80477265 11.19576755 1.42937002 12.4104757 -2 15 C-5.19343523 15.51709317 -8.2826164 15.27474436 -11.5 15.0625 C-25.80246948 14.61647704 -37.56858738 18.24598292 -48.28515625 28.1015625 C-57.22844546 37.563061 -61.69228592 49.10391513 -62.09765625 62.140625 C-61.35342009 76.00883047 -55.88451574 87.77267467 -45.75 97.3125 C-34.45099031 106.23277081 -22.10436006 109.1904321 -8 108 C4.96344414 105.51732205 16.45711256 98.98494743 24 88 C30.80397887 75.35767244 33.2265266 62.89089583 30.31640625 48.65625 C27.98916483 41.93525404 24.44013934 34.44013934 19.3671875 29.3671875 C17.36784679 27.36784679 17.19895886 25.78542402 17 23 C17.9361625 19.90346249 18.70423322 18.29576678 21 16 C24.12707159 15.22300869 26.86799749 15.25820993 30 16 C32.98662356 18.215882 34.92047946 20.94335535 37 24 C37.52464844 24.72445312 38.04929687 25.44890625 38.58984375 26.1953125 C48.59003207 41.20831786 50.57351566 59.64145501 47.3359375 77.16015625 C43.45358231 92.40262033 33.66708098 106.20111268 20.5625 114.9375 C4.42105556 124.36483935 -12.89985476 127.82273506 -31.1875 123.4375 C-47.12669021 119.18305449 -60.51027257 109.43883861 -69.5390625 95.609375 C-78.48179108 79.63680097 -81.19743914 62.77353137 -77 45 C-71.57606746 27.26628307 -61.36464941 13.86787083 -45 5 C-31.16895022 -1.75428208 -14.96914454 -5.22613525 0 0 Z " fill="#000000" transform="translate(464,195)"/>
<path d="M0 0 C6.32335009 4.72724198 11.81987354 10.66741822 17.375 16.25 C18.58349609 17.45269531 18.58349609 17.45269531 19.81640625 18.6796875 C20.58597656 19.45054688 21.35554688 20.22140625 22.1484375 21.015625 C22.84114746 21.70946289 23.53385742 22.40330078 24.24755859 23.11816406 C26.72027493 25.77345767 27.92643126 27.58311049 28.5625 31.1875 C27.97696842 35.1561029 27.64430559 35.79512373 25.08984375 38.5859375 C24.45425537 39.28259521 23.81866699 39.97925293 23.16381836 40.69702148 C22.4497583 41.45700439 21.73569824 42.2169873 21 43 C19.84286499 44.23955444 19.84286499 44.23955444 18.66235352 45.50415039 C16.13537414 48.17621233 13.57252158 50.80930445 11 53.4375 C10.13632813 54.34693359 9.27265625 55.25636719 8.3828125 56.19335938 C1.23146779 63.46968959 1.23146779 63.46968959 -2.9453125 64.1796875 C-6.48467979 63.97148942 -8.23733565 63.19388051 -11 61 C-12.58444774 57.83110453 -12.37966088 55.50091137 -12 52 C-10.19280365 49.6793956 -8.65515066 47.97671859 -6.5 46.0625 C-5.97535156 45.56943359 -5.45070313 45.07636719 -4.91015625 44.56835938 C-3.62212635 43.36229501 -2.31305737 42.17876741 -1 41 C-9.7623628 40.88398438 -18.52445992 40.79522376 -27.28742409 40.74093914 C-31.35676896 40.71488074 -35.42558714 40.67955295 -39.49462891 40.62280273 C-43.42392503 40.56834649 -47.35271562 40.5385512 -51.28236008 40.52561378 C-52.77908661 40.5163981 -54.27578648 40.49840137 -55.77229691 40.47134972 C-64.84855191 39.93840141 -64.84855191 39.93840141 -72.90380859 43.34301758 C-76.48817489 47.88630413 -76.14535695 52.09297176 -76.1418457 57.63061523 C-76.14532013 58.51220306 -76.14879456 59.39379089 -76.15237427 60.30209351 C-76.15972812 62.21730862 -76.16507548 64.13253224 -76.16866493 66.0477581 C-76.17582668 69.07781278 -76.19149011 72.10770518 -76.21000671 75.13771057 C-76.26249732 83.75299894 -76.31047864 92.36819765 -76.32592773 100.98364258 C-76.33599531 106.25219994 -76.3652863 111.5203481 -76.40724754 116.78874397 C-76.41957759 118.79778006 -76.42467516 120.80687389 -76.42244911 122.81594658 C-76.42010258 125.62440739 -76.44221202 128.43168857 -76.4699707 131.23999023 C-76.46336929 132.0718132 -76.45676788 132.90363617 -76.44996643 133.76066589 C-76.50908646 137.39697776 -76.65743261 139.54595695 -78.88078308 142.49281311 C-81.38559094 144.27423224 -82.92829513 144.85016074 -86 145 C-88.76137624 144.29360143 -90.41927851 143.79228701 -92.12637329 141.46327209 C-93.43124309 137.78406983 -93.29474642 134.13222174 -93.29052734 130.27514648 C-93.29724457 129.39490311 -93.30396179 128.51465973 -93.31088257 127.60774231 C-93.32988909 124.69546872 -93.33378892 121.78342553 -93.3359375 118.87109375 C-93.34236649 116.84049892 -93.34909492 114.80990502 -93.35610962 112.77931213 C-93.36809109 108.51813615 -93.37178984 104.25704125 -93.37060547 99.99584961 C-93.3704029 94.55772553 -93.39763716 89.12012769 -93.43214989 83.68212795 C-93.45448883 79.48427486 -93.45844077 75.28654664 -93.45738602 71.08864021 C-93.45973406 69.08533996 -93.46851231 67.08203585 -93.48405075 65.07879448 C-93.56639371 53.36006333 -93.38963431 43.59744401 -87.375 33.1875 C-80.7660658 27.10032376 -73.98688846 23.90385379 -65.05004883 23.79467773 C-63.99600609 23.77982834 -63.99600609 23.77982834 -62.92066956 23.76467896 C-60.59949099 23.73310766 -58.27829195 23.70832387 -55.95703125 23.68359375 C-54.34705577 23.66302044 -52.73708564 23.64202387 -51.12712097 23.62062073 C-46.89063862 23.56543894 -42.65410784 23.51601251 -38.4175415 23.46777344 C-34.09407239 23.41752999 -29.77067356 23.36185877 -25.44726562 23.30664062 C-16.96490319 23.19910666 -8.48248193 23.09765113 0 23 C-0.86625 22.21496094 -1.7325 21.42992188 -2.625 20.62109375 C-3.75091023 19.56086162 -4.87586043 18.49960934 -6 17.4375 C-6.57234375 16.92380859 -7.1446875 16.41011719 -7.734375 15.88085938 C-10.8384398 12.90613061 -11.9189143 11.66601162 -12.45703125 7.24609375 C-11.97497496 3.82225806 -11.46970491 2.37823436 -9 0 C-5.26121635 -1.24626122 -3.78878042 -1.14378277 0 0 Z " fill="#000000" transform="translate(148,32)"/>
<path d="M0 0 C2.8622434 3.67555906 2.2953809 8.28772824 2.29052734 12.72485352 C2.29724457 13.60509689 2.30396179 14.48534027 2.31088257 15.39225769 C2.32988909 18.30453128 2.33378892 21.21657447 2.3359375 24.12890625 C2.34236649 26.15950108 2.34909492 28.19009498 2.35610962 30.22068787 C2.36809109 34.48186385 2.37178984 38.74295875 2.37060547 43.00415039 C2.3704029 48.44227447 2.39763716 53.87987231 2.43214989 59.31787205 C2.45448883 63.51572514 2.45844077 67.71345336 2.45738602 71.91135979 C2.45973406 73.91466004 2.46851231 75.91796415 2.48405075 77.92120552 C2.56639371 89.63993667 2.38963431 99.40255599 -3.625 109.8125 C-10.2339342 115.89967624 -17.01311154 119.09614621 -25.94995117 119.20532227 C-27.00399391 119.22017166 -27.00399391 119.22017166 -28.07933044 119.23532104 C-30.40050901 119.26689234 -32.72170805 119.29167613 -35.04296875 119.31640625 C-36.65294423 119.33697956 -38.26291436 119.35797613 -39.87287903 119.37937927 C-44.10936138 119.43456106 -48.34589216 119.48398749 -52.5824585 119.53222656 C-56.90592761 119.58247001 -61.22932644 119.63814123 -65.55273438 119.69335938 C-74.03509681 119.80089334 -82.51751807 119.90234887 -91 120 C-90.13375 120.78503906 -89.2675 121.57007813 -88.375 122.37890625 C-87.24908977 123.43913838 -86.12413957 124.50039066 -85 125.5625 C-84.42765625 126.07619141 -83.8553125 126.58988281 -83.265625 127.11914062 C-80.15837919 130.09691786 -79.07925892 131.32594848 -78.55859375 135.75390625 C-79.03754032 139.27607083 -79.27865592 140.71758238 -82 143 C-85.3125 144 -85.3125 144 -89 144 C-93.34843229 141.47660489 -96.79282731 138.45419489 -100.328125 134.90234375 C-100.80320496 134.42680557 -101.27828491 133.9512674 -101.76776123 133.46131897 C-102.76162248 132.46445997 -103.75307624 131.4651953 -104.7421875 130.46362305 C-106.25465267 128.93279083 -107.77507893 127.41022312 -109.296875 125.88867188 C-118.75622778 116.38137593 -118.75622778 116.38137593 -119.5625 111.8125 C-118.97696842 107.8438971 -118.64430559 107.20487627 -116.08984375 104.4140625 C-115.45425537 103.71740479 -114.81866699 103.02074707 -114.16381836 102.30297852 C-113.4497583 101.54299561 -112.73569824 100.7830127 -112 100 C-111.22857666 99.17363037 -110.45715332 98.34726074 -109.66235352 97.49584961 C-107.13537414 94.82378767 -104.57252158 92.19069555 -102 89.5625 C-101.13632812 88.65306641 -100.27265625 87.74363281 -99.3828125 86.80664062 C-92.23146779 79.53031041 -92.23146779 79.53031041 -88.0546875 78.8203125 C-84.51532021 79.02851058 -82.76266435 79.80611949 -80 82 C-78.41555226 85.16889547 -78.62033912 87.49908863 -79 91 C-80.80719635 93.3206044 -82.34484934 95.02328141 -84.5 96.9375 C-85.02464844 97.43056641 -85.54929687 97.92363281 -86.08984375 98.43164062 C-87.37787365 99.63770499 -88.68694263 100.82123259 -90 102 C-81.2376372 102.11601562 -72.47554008 102.20477624 -63.71257591 102.25906086 C-59.64323104 102.28511926 -55.57441286 102.32044705 -51.50537109 102.37719727 C-47.57607497 102.43165351 -43.64728438 102.4614488 -39.71763992 102.47438622 C-38.22091339 102.4836019 -36.72421352 102.50159863 -35.22770309 102.52865028 C-26.15144809 103.06159859 -26.15144809 103.06159859 -18.09619141 99.65698242 C-14.51182511 95.11369587 -14.85464305 90.90702824 -14.8581543 85.36938477 C-14.85294266 84.04700302 -14.85294266 84.04700302 -14.84762573 82.69790649 C-14.84027188 80.78269138 -14.83492452 78.86746776 -14.83133507 76.9522419 C-14.82417332 73.92218722 -14.80850989 70.89229482 -14.78999329 67.86228943 C-14.73750268 59.24700106 -14.68952136 50.63180235 -14.67407227 42.01635742 C-14.66400469 36.74780006 -14.6347137 31.4796519 -14.59275246 26.21125603 C-14.58042241 24.20221994 -14.57532484 22.19312611 -14.57755089 20.18405342 C-14.57989742 17.37559261 -14.55778798 14.56831143 -14.5300293 11.76000977 C-14.53993141 10.51227531 -14.53993141 10.51227531 -14.55003357 9.23933411 C-14.49133712 5.62907579 -14.33871429 3.45605385 -12.15437317 0.51499939 C-7.67172352 -2.63729176 -4.9527255 -1.89104064 0 0 Z " fill="#000000" transform="translate(455,338)"/>
<path d="M0 0 C0.92086395 -0.00861557 1.84172791 -0.01723114 2.79049683 -0.02610779 C5.83766741 -0.04882517 8.88392196 -0.0420147 11.93115234 -0.03295898 C14.05382561 -0.03819448 16.17649655 -0.04447068 18.29916382 -0.05174255 C22.75293909 -0.06215931 27.20639518 -0.05757057 31.66015625 -0.04296875 C37.3496429 -0.02583724 43.03811433 -0.04920019 48.72748756 -0.08445835 C53.11492526 -0.10650008 57.502123 -0.10497347 61.88959885 -0.09669304 C63.98582442 -0.09587611 66.08206807 -0.10268983 68.17824173 -0.11746407 C90.07289185 -0.24804669 90.07289185 -0.24804669 99.76708984 7.97094727 C105.70865413 15.13577479 108.1079894 21.31098989 108.2109375 30.66210938 C108.22098312 31.33612793 108.23102875 32.01014648 108.24137878 32.70458984 C108.27198233 34.90664913 108.28918138 37.10858818 108.30615234 39.31079102 C108.32488245 40.84779377 108.34445721 42.38478644 108.36483765 43.92176819 C108.41597047 47.94774405 108.45569647 51.97375318 108.49298096 55.99987793 C108.53313942 60.11596784 108.58417749 64.23192161 108.63427734 68.34790039 C108.73081316 76.40965604 108.8152887 84.47147957 108.89208984 92.53344727 C109.61654297 91.75098633 110.34099609 90.96852539 111.08740234 90.16235352 C112.06327722 89.13956158 113.03987843 88.11746231 114.01708984 87.09594727 C114.49146484 86.57967773 114.96583984 86.0634082 115.45458984 85.53149414 C118.76581012 82.10840832 121.10087406 80.65339425 125.89208984 80.53344727 C130.45730724 82.66388205 130.45730724 82.66388205 131.89208984 85.53344727 C132.49553291 88.42997398 132.64947799 89.74416954 131.89208984 92.53344727 C129.78742186 95.64672345 127.21203725 98.22682703 124.54980469 100.8684082 C122.58431002 102.84258694 120.67216773 104.86353423 118.75537109 106.88500977 C117.26077871 108.43593716 115.76467386 109.98540841 114.26708984 111.53344727 C113.55109619 112.28803223 112.83510254 113.04261719 112.09741211 113.82006836 C107.93346514 118.04589175 104.92700223 120.97075147 98.89208984 121.53344727 C94.05193499 119.59796643 90.68168997 116.74148162 87.09130859 113.06079102 C86.56946487 112.53707413 86.04762115 112.01335724 85.50996399 111.47377014 C84.41659418 110.37371725 83.32680793 109.27009195 82.24047852 108.16308594 C80.57421325 106.46546951 78.89732934 104.77894034 77.21826172 103.09399414 C76.15448115 102.02105021 75.09130811 100.94750353 74.02880859 99.87329102 C73.5278215 99.36805405 73.02683441 98.86281708 72.51066589 98.3422699 C69.37709412 95.14340041 67.9787993 93.70402487 67.64208984 89.15844727 C67.89208984 85.53344727 67.89208984 85.53344727 69.01708984 83.15844727 C71.64143582 80.88401409 73.44056546 80.60247775 76.89208984 80.53344727 C80.82859351 82.51133165 83.6503453 85.07553124 86.70458984 88.22094727 C87.49478516 89.02918945 88.28498047 89.83743164 89.09912109 90.67016602 C89.69080078 91.28504883 90.28248047 91.89993164 90.89208984 92.53344727 C90.96165627 83.88412643 91.0149347 75.23490218 91.04752636 66.58536243 C91.06317019 62.5688519 91.08438477 58.55253304 91.1184082 54.53613281 C91.15104781 50.6587454 91.16895251 46.78154215 91.17672157 42.90402794 C91.18225686 41.42606394 91.19306603 39.94810981 91.20928001 38.47022438 C91.23111625 36.39708444 91.2340543 34.32470162 91.23266602 32.25146484 C91.23932785 31.0723201 91.24598969 29.89317535 91.25285339 28.67829895 C90.75263707 24.31780811 89.17362872 21.9236056 86.24337769 18.74499512 C82.69347397 16.91583658 79.17295825 17.11934888 75.27148438 17.14868164 C74.40271667 17.14330887 73.53394897 17.1379361 72.63885498 17.13240051 C70.75423531 17.12262429 68.86957064 17.1196779 66.98492813 17.12275696 C64.00030288 17.12723417 61.01627083 17.11323684 58.03170776 17.09436035 C51.6935115 17.0575666 45.35537719 17.04386893 39.01708984 17.03344727 C31.67858049 17.02136639 24.34035965 16.99980029 17.00197983 16.95344543 C14.06493533 16.93988214 11.12825612 16.94404524 8.19119263 16.94885254 C6.3846185 16.9395098 4.57804839 16.92934044 2.77148438 16.91821289 C1.55091843 16.92743523 1.55091843 16.92743523 0.30569458 16.93684387 C-4.55021629 16.88441626 -7.89853612 16.22094665 -12.10791016 13.53344727 C-13.65377891 10.44170975 -13.40150537 7.93915174 -13.10791016 4.53344727 C-9.74358716 -0.55430988 -5.55246399 -0.0417653 0 0 Z " fill="#000000" transform="translate(349.10791015625,55.466552734375)"/>
<path d="M0 0 C2.24374694 1.81780927 4.14032319 3.52859534 6.1171875 5.59375 C6.65981232 6.14107788 7.20243713 6.68840576 7.76150513 7.25231934 C9.47809288 8.99012018 11.17621387 10.74481262 12.875 12.5 C14.03795617 13.67947727 15.20200888 14.85787443 16.3671875 16.03515625 C25.90563666 25.72609487 25.90563666 25.72609487 26.25 30.375 C26 34 26 34 24.875 36.375 C22.25065402 38.64943318 20.45152438 38.93096951 17 39 C13.06349634 37.02211561 10.24174454 34.45791602 7.1875 31.3125 C6.39730469 30.50425781 5.60710937 29.69601562 4.79296875 28.86328125 C4.20128906 28.24839844 3.60960937 27.63351562 3 27 C2.93043357 35.64932083 2.87715515 44.29854508 2.84456348 52.94808483 C2.82891965 56.96459536 2.80770508 60.98091422 2.77368164 64.99731445 C2.74104203 68.87470186 2.72313733 72.75190512 2.71536827 76.62941933 C2.70983299 78.10738333 2.69902381 79.58533746 2.68280983 81.06322289 C2.66097359 83.13636282 2.65803554 85.20874564 2.65942383 87.28198242 C2.65276199 88.46112717 2.64610016 89.64027191 2.63923645 90.85514832 C3.13945278 95.21563915 4.71846112 97.60984166 7.64871216 100.78845215 C11.19861587 102.61761068 14.71913159 102.41409839 18.62060547 102.38476562 C19.48937317 102.3901384 20.35814087 102.39551117 21.25323486 102.40104675 C23.13785453 102.41082298 25.0225192 102.41376937 26.90716171 102.41069031 C29.89178696 102.4062131 32.87581902 102.42021043 35.86038208 102.43908691 C42.19857835 102.47588067 48.53671266 102.48957834 54.875 102.5 C62.21350935 102.51208088 69.5517302 102.53364697 76.89011002 102.58000183 C79.82715451 102.59356513 82.76383372 102.58940203 85.70089722 102.58459473 C87.50747135 102.59393747 89.31404145 102.60410682 91.12060547 102.61523438 C91.9343161 102.60908615 92.74802673 102.60293793 93.58639526 102.59660339 C98.44230614 102.64903101 101.79062596 103.31250062 106 106 C107.54586876 109.09173752 107.29359521 111.59429552 107 115 C105.54971313 117.19322205 105.54971313 117.19322205 103 119 C99.96656988 119.59778589 96.97591019 119.55664357 93.89208984 119.53344727 C92.97122589 119.54206284 92.05036194 119.55067841 91.10159302 119.55955505 C88.05442243 119.58227243 85.00816788 119.57546197 81.9609375 119.56640625 C79.83826423 119.57164174 77.7155933 119.57791795 75.59292603 119.58518982 C71.13915075 119.59560658 66.68569466 119.59101784 62.23193359 119.57641602 C56.54244694 119.5592845 50.85397551 119.58264746 45.16460228 119.61790562 C40.77716458 119.63994735 36.38996684 119.63842074 32.002491 119.6301403 C29.90626543 119.62932337 27.81002178 119.6361371 25.71384811 119.65091133 C3.819198 119.78149395 3.819198 119.78149395 -5.875 111.5625 C-11.81656429 104.39767247 -14.21589955 98.22245737 -14.31884766 88.87133789 C-14.32889328 88.19731934 -14.3389389 87.52330078 -14.34928894 86.82885742 C-14.37989249 84.62679813 -14.39709154 82.42485908 -14.4140625 80.22265625 C-14.4327926 78.6856535 -14.45236737 77.14866083 -14.4727478 75.61167908 C-14.52388063 71.58570321 -14.56360663 67.55969408 -14.60089111 63.53356934 C-14.64104958 59.41747943 -14.69208764 55.30152566 -14.7421875 51.18554688 C-14.83872332 43.12379123 -14.92319886 35.0619677 -15 27 C-15.72445312 27.78246094 -16.44890625 28.56492187 -17.1953125 29.37109375 C-18.17118738 30.39388569 -19.14778859 31.41598496 -20.125 32.4375 C-20.599375 32.95376953 -21.07375 33.47003906 -21.5625 34.00195312 C-24.87372027 37.42503895 -27.20878422 38.88005301 -32 39 C-36.56521739 36.86956522 -36.56521739 36.86956522 -38 34 C-38.60344306 31.10347329 -38.75738815 29.78927772 -38 27 C-35.89733073 23.88968036 -33.32552761 21.30521717 -30.66650391 18.66503906 C-28.68324645 16.68352488 -26.73970605 14.66583126 -24.79296875 12.6484375 C-23.28010799 11.0975307 -21.76577432 9.54805936 -20.25 8 C-19.51724854 7.24541504 -18.78449707 6.49083008 -18.02954102 5.71337891 C-17.32369873 5.00358887 -16.61785645 4.29379883 -15.890625 3.5625 C-15.26188477 2.92441406 -14.63314453 2.28632813 -13.98535156 1.62890625 C-9.08938259 -2.38805206 -5.8432925 -2.41372498 0 0 Z " fill="#000000" transform="translate(69,338)"/>
</svg>
