<?xml version="1.0" encoding="UTF-8"?>
<svg version="1.1" xmlns="http://www.w3.org/2000/svg" width="512" height="512">
<path d="M0 0 C1.77206192 0.00015919 3.54412846 0.00585754 5.31616211 0.01586914 C6.24698105 0.01728409 7.17779999 0.01869904 8.13682556 0.02015686 C11.12241777 0.02577367 14.10793615 0.03832899 17.09350586 0.05102539 C19.11238499 0.05603823 21.13126529 0.06060151 23.15014648 0.06469727 C28.11046158 0.07574856 33.07072118 0.09302444 38.03100586 0.11352539 C38.8490742 2.96619912 39.66058382 5.82047724 40.46850586 8.67602539 C40.81365234 9.87582031 40.81365234 9.87582031 41.16577148 11.09985352 C42.48117864 15.77050211 43.46804831 20.29279692 44.03100586 25.11352539 C45.23756836 25.23727539 45.23756836 25.23727539 46.46850586 25.36352539 C50.31314724 26.17292358 53.31482524 27.57753185 56.78491211 29.37133789 C59.78544753 30.36281916 61.01620327 30.13838746 64.03100586 29.11352539 C67.75390585 27.0950458 71.31040667 24.80593956 74.88061523 22.53149414 C75.97792969 21.85666992 75.97792969 21.85666992 77.09741211 21.16821289 C77.75684814 20.75039551 78.41628418 20.33257812 79.09570312 19.90209961 C81.56141379 18.89740105 82.540829 19.26107322 85.03100586 20.11352539 C87.24720162 22.00216386 89.30371214 23.89432191 91.36303711 25.94165039 C91.95904221 26.52767029 92.5550473 27.11369019 93.16911316 27.71746826 C94.42446537 28.95765033 95.67579085 30.20191982 96.92333984 31.44995117 C98.83855068 33.35858723 100.77645387 35.24195385 102.71655273 37.12524414 C103.93351321 38.33340499 105.14905796 39.5429939 106.36303711 40.75415039 C106.94624222 41.31579895 107.52944733 41.87744751 108.13032532 42.45611572 C112.03119642 46.4252129 112.03119642 46.4252129 112.03027344 49.7590332 C111.06254599 52.03920998 110.04871573 54.06101213 108.71069336 56.14477539 C108.03200195 57.23725586 108.03200195 57.23725586 107.33959961 58.35180664 C106.38162475 59.86316207 105.41804396 61.37097831 104.44897461 62.87524414 C101.76023701 67.04634719 101.76023701 67.04634719 101.09741211 71.82446289 C101.40549805 72.57985352 101.71358398 73.33524414 102.03100586 74.11352539 C102.5124707 75.38583008 102.5124707 75.38583008 103.00366211 76.68383789 C103.73250538 78.39230922 104.46167409 80.10064175 105.19116211 81.80883789 C106.03100586 84.11352539 106.03100586 84.11352539 106.03100586 87.11352539 C106.66264648 87.21149414 107.29428711 87.30946289 107.94506836 87.41040039 C115.96827042 88.75145434 123.06397688 90.8372314 131.03100586 93.11352539 C131.03100586 107.30352539 131.03100586 121.49352539 131.03100586 136.11352539 C127.19475586 136.81477539 123.35850586 137.51602539 119.40600586 138.23852539 C110.63582528 139.93091004 110.63582528 139.93091004 104.06616211 145.45336914 C101.98716622 149.63459611 100.94528046 153.82502989 101.12084961 158.51196289 C102.82736441 163.38981207 105.84824147 167.62322096 108.61303711 171.96313477 C109.28786133 173.06044922 109.28786133 173.06044922 109.97631836 174.17993164 C110.39413574 174.83936768 110.81195313 175.49880371 111.24243164 176.17822266 C112.24871017 178.64781086 111.89512325 179.62120937 111.03100586 182.11352539 C109.84776306 183.65753174 109.84776306 183.65753174 108.34716797 185.13793945 C107.78666245 185.69821838 107.22615692 186.25849731 106.64866638 186.83575439 C106.04136185 187.42757507 105.43405731 188.01939575 104.80834961 188.62915039 C104.1882753 189.24497986 103.56820099 189.86080933 102.92933655 190.49530029 C100.94932681 192.45853174 98.95913667 194.41106975 96.96850586 196.36352539 C95.62342051 197.69356287 94.27901098 199.02428418 92.93530273 200.35571289 C89.6416568 203.61630076 86.33884247 206.86733727 83.03100586 210.11352539 C77.50227305 207.46808197 72.3848128 204.80652591 67.46850586 201.11352539 C63.82712752 198.67050905 63.82712752 198.67050905 59.61694336 198.23071289 C57.27709195 199.01066336 55.23212991 200.00022959 53.03100586 201.11352539 C52.06662598 201.35897095 52.06662598 201.35897095 51.08276367 201.609375 C46.79968979 202.7531259 46.79968979 202.7531259 43.95117188 205.94360352 C43.1846907 208.25879489 42.63754806 210.53551235 42.15600586 212.92602539 C41.78460133 214.51610101 41.41222473 216.10594993 41.03881836 217.69555664 C40.8907373 218.39914307 40.74265625 219.10272949 40.59008789 219.82763672 C39.90332593 222.63556347 38.94512263 225.37117509 38.03100586 228.11352539 C23.84100586 228.11352539 9.65100586 228.11352539 -4.96899414 228.11352539 C-9.96899414 208.11352539 -9.96899414 208.11352539 -9.96899414 204.11352539 C-10.62125977 203.93176758 -11.27352539 203.75000977 -11.94555664 203.56274414 C-15.9801042 202.40236542 -19.58199395 201.32528021 -23.28149414 199.30102539 C-25.83513011 197.83219145 -25.83513011 197.83219145 -28.10180664 198.71118164 C-32.8841278 201.05021883 -37.34200313 203.95746456 -41.81860352 206.83227539 C-42.55014648 207.28086914 -43.28168945 207.72946289 -44.03540039 208.19165039 C-44.69483643 208.60833984 -45.35427246 209.0250293 -46.03369141 209.4543457 C-47.96899414 210.11352539 -47.96899414 210.11352539 -49.82128906 209.61499023 C-52.96734946 207.41557323 -55.58605557 204.7403118 -58.26586914 202.01196289 C-58.85950256 201.41549957 -59.45313599 200.81903625 -60.0647583 200.20449829 C-61.95426041 198.30382729 -63.83667806 196.39631065 -65.71899414 194.48852539 C-67.00108479 193.19640071 -68.28363176 191.90472863 -69.56665039 190.61352539 C-72.70607846 187.45208061 -75.83917215 184.2844793 -78.96899414 181.11352539 C-77.75021763 177.87434917 -76.40111339 175.01705846 -74.51586914 172.11743164 C-73.83524414 171.03171875 -73.83524414 171.03171875 -73.14086914 169.92407227 C-72.19021736 168.42105002 -71.22653017 166.9261966 -70.25024414 165.43969727 C-67.49491985 161.16478488 -67.49491985 161.16478488 -67.42211914 156.26586914 C-67.93258789 155.2255957 -68.44305664 154.18532227 -68.96899414 153.11352539 C-69.17073242 152.22761719 -69.3724707 151.34170898 -69.58032227 150.42895508 C-70.37947711 147.26676404 -71.20387988 144.86378183 -72.96899414 142.11352539 C-76.88161233 139.91286334 -80.82749534 139.19526475 -85.21899414 138.42602539 C-91.03524414 137.28133789 -91.03524414 137.28133789 -96.96899414 136.11352539 C-96.96899414 121.92352539 -96.96899414 107.73352539 -96.96899414 93.11352539 C-91.02899414 91.46352539 -85.08899414 89.81352539 -78.96899414 88.11352539 C-72.9012724 86.81625625 -72.9012724 86.81625625 -71.00024414 82.81274414 C-70.46638015 81.48469139 -69.95649627 80.14678783 -69.46899414 78.80102539 C-69.19313477 78.13651367 -68.91727539 77.47200195 -68.63305664 76.78735352 C-67.52658761 73.90426023 -66.83393465 71.74044332 -67.49243164 68.68383789 C-67.97969727 67.83563477 -68.46696289 66.98743164 -68.96899414 66.11352539 C-69.33605469 65.46134033 -69.70311523 64.80915527 -70.08129883 64.13720703 C-71.38965811 61.84003587 -72.73638917 59.56940457 -74.09399414 57.30102539 C-74.56192383 56.51276367 -75.02985352 55.72450195 -75.51196289 54.91235352 C-76.66114811 52.97750086 -77.81356417 51.04465311 -78.96899414 49.11352539 C-73.92727727 43.02541445 -68.50675538 37.33292573 -62.96435547 31.70385742 C-61.91772671 30.63541365 -60.87742327 29.56074011 -59.84326172 28.48022461 C-58.33557173 26.90588984 -56.80933029 25.35192383 -55.27758789 23.80102539 C-54.37838623 22.87676758 -53.47918457 21.95250977 -52.55273438 21.00024414 C-49.96899414 19.11352539 -49.96899414 19.11352539 -47.37329102 19.17553711 C-45.06630885 20.07556 -43.22268172 21.0258074 -41.19165039 22.43383789 C-40.51295898 22.88629883 -39.83426758 23.33875977 -39.13500977 23.80493164 C-37.73167942 24.76133319 -36.33321267 25.72491005 -34.93969727 26.69555664 C-30.75681391 29.51000754 -30.75681391 29.51000754 -25.84008789 29.98852539 C-24.89262695 29.69977539 -23.94516602 29.41102539 -22.96899414 29.11352539 C-21.97899414 28.98719727 -20.98899414 28.86086914 -19.96899414 28.73071289 C-16.02624205 27.75529245 -14.00783276 26.88215264 -10.96899414 24.11352539 C-8.00678223 17.54034731 -6.73595058 10.31665735 -5.44287109 3.2590332 C-4.61099189 -0.50735239 -4.20693982 0.12033137 0 0 Z M-17.17602539 87.60571289 C-24.53168478 97.8940208 -26.07909018 108.80265111 -24.96899414 121.11352539 C-22.594578 132.15795245 -16.13665018 141.59538696 -6.96899414 148.11352539 C3.31587291 154.28772106 13.73829009 156.84997447 25.70678711 154.61352539 C38.2133258 151.19027374 47.61727247 144.21282973 54.23022461 133.09790039 C59.75990986 122.6552234 60.58952934 111.86083841 57.46850586 100.48852539 C53.87311117 89.94203432 47.14152775 80.91567946 37.21850586 75.60961914 C17.48601032 66.39937189 -2.97807603 70.88557293 -17.17602539 87.60571289 Z " fill="#675D67" transform="translate(239.968994140625,155.886474609375)"/>
<path d="M0 0 C35.97 0 71.94 0 109 0 C109.33 12.54 109.66 25.08 110 38 C113.815625 39.11375 117.63125 40.2275 121.5625 41.375 C151.95475254 50.57348886 179.93843465 65.19204255 204 86 C204.75796875 86.64710937 205.5159375 87.29421875 206.296875 87.9609375 C208.91600341 90.25487211 211.47140781 92.60742205 214 95 C214.62181152 95.5878125 215.24362305 96.175625 215.88427734 96.78125 C226.38019473 106.78823484 235.59249071 117.19000422 244 129 C244.42796875 129.58330078 244.8559375 130.16660156 245.296875 130.76757812 C260.7055789 151.80826082 273.2616862 177.47645843 279 203 C288.05638678 203.15178302 296.97582223 202.69037426 306 202 C307.46238331 206.38714993 305.33546404 209.21487435 303.43359375 213.171875 C303.04805328 213.99467453 302.66251282 214.81747406 302.26528931 215.66520691 C300.99840556 218.36450095 299.71819961 221.05723707 298.4375 223.75 C296.68110173 227.47347898 294.93041554 231.19963356 293.1796875 234.92578125 C292.73953812 235.86003433 292.29938873 236.79428741 291.84590149 237.7568512 C289.07489597 243.6538055 286.37984358 249.57837175 283.7578125 255.54296875 C283.43802933 256.26729095 283.11824615 256.99161316 282.78877258 257.73788452 C281.58440276 260.46793038 280.38053898 263.19782622 279.20187378 265.93908691 C278.40740767 267.78582351 277.59670509 269.62555015 276.78515625 271.46484375 C276.34051025 272.492146 275.89586426 273.51944824 275.43774414 274.57788086 C273.87214593 277.21539145 272.84603721 277.98054102 270 279 C261.44133058 267.22827528 253.02590977 255.3653774 244.69775391 243.4296875 C242.01633181 239.59225397 239.32269661 235.76350424 236.625 231.9375 C236.13604248 231.24245361 235.64708496 230.54740723 235.14331055 229.83129883 C232.95516213 226.72940172 230.75063337 223.64507735 228.4765625 220.60546875 C227.37441406 219.13013672 227.37441406 219.13013672 226.25 217.625 C225.61578125 216.79226562 224.9815625 215.95953125 224.328125 215.1015625 C223 213 223 213 223 210 C225.91472635 209.02842455 228.27597757 208.71746042 231.32421875 208.46484375 C232.86625977 208.33432617 232.86625977 208.33432617 234.43945312 208.20117188 C235.51130859 208.11416016 236.58316406 208.02714844 237.6875 207.9375 C239.31268555 207.80118164 239.31268555 207.80118164 240.97070312 207.66210938 C243.64687907 207.43811227 246.32329301 207.2175438 249 207 C239.31204294 180.23960368 227.75872494 155.61909789 209 134 C208.29359375 133.18273437 207.5871875 132.36546875 206.859375 131.5234375 C196.80434408 120.13014707 186.26246205 109.96826994 174 101 C173.44570313 100.59072266 172.89140625 100.18144531 172.3203125 99.75976562 C154.99689799 87.13319238 135.32819643 77.64721503 115 71 C113.02 70.34 111.04 69.68 109 69 C109 82.2 109 95.4 109 109 C73.03 109 37.06 109 0 109 C0 73.03 0 37.06 0 0 Z " fill="#FD4755" transform="translate(202,0)"/>
<path d="M0 0 C13.79939846 11.94138566 20.58668603 25.70321911 22.52734375 43.85546875 C23.15063517 59.16766136 17.77556246 73.7193937 7.76953125 85.171875 C6.26689837 86.75188598 4.74747726 88.31620736 3.20703125 89.859375 C2.64242188 90.43558594 2.0778125 91.01179688 1.49609375 91.60546875 C-10.46415055 102.83642986 -26.05401959 105.63218451 -41.81640625 105.22265625 C-50.31277597 104.775222 -57.96304614 102.06055883 -65.79296875 98.859375 C-66.37820313 99.43042969 -66.9634375 100.00148438 -67.56640625 100.58984375 C-84.58694649 116.66479842 -104.63515082 129.01038156 -125.79296875 138.859375 C-126.86708008 139.36017578 -126.86708008 139.36017578 -127.96289062 139.87109375 C-147.63008549 148.90035999 -168.42960894 154.58354594 -189.79296875 157.859375 C-190.54223633 157.97651855 -191.29150391 158.09366211 -192.06347656 158.21435547 C-222.73889095 162.78375651 -253.70793199 159.48144454 -283.79296875 152.859375 C-284.07495117 153.5205835 -284.35693359 154.18179199 -284.64746094 154.86303711 C-285.93061159 157.84785991 -287.2364016 160.82223265 -288.54296875 163.796875 C-289.208125 165.35825195 -289.208125 165.35825195 -289.88671875 166.95117188 C-290.325 167.94052734 -290.76328125 168.92988281 -291.21484375 169.94921875 C-291.6128418 170.86566162 -292.01083984 171.78210449 -292.42089844 172.72631836 C-293.79296875 174.859375 -293.79296875 174.859375 -295.95410156 175.66625977 C-296.56092773 175.72998779 -297.16775391 175.79371582 -297.79296875 175.859375 C-302.57143671 169.83251091 -307.1029863 163.68233555 -311.48046875 157.359375 C-312.7106469 155.59224558 -313.94112058 153.82532186 -315.171875 152.05859375 C-315.78047363 151.18380371 -316.38907227 150.30901367 -317.01611328 149.40771484 C-319.63499404 145.65175477 -322.2750789 141.91096099 -324.91796875 138.171875 C-325.63738647 137.1514209 -325.63738647 137.1514209 -326.37133789 136.11035156 C-328.94475716 132.4623319 -331.53240596 128.82525818 -334.13671875 125.19921875 C-334.96018799 124.04715942 -334.96018799 124.04715942 -335.80029297 122.87182617 C-336.84974097 121.40408777 -337.90321932 119.93921956 -338.96142578 118.4777832 C-341.41036589 115.0446779 -343.45926958 111.90754425 -344.79296875 107.859375 C-342.878142 105.94454825 -339.4349308 106.33619947 -336.81396484 106.10327148 C-336.0837915 106.03485046 -335.35361816 105.96642944 -334.60131836 105.89593506 C-332.17340493 105.66964512 -329.74494652 105.44992156 -327.31640625 105.23046875 C-325.63063835 105.07525735 -323.94489851 104.91974082 -322.25918579 104.76393127 C-318.71682723 104.43751008 -315.17420049 104.11422401 -311.63134766 103.79321289 C-307.10159864 103.3826145 -302.57250506 102.96525299 -298.04358482 102.54562283 C-294.55728031 102.22320419 -291.07069041 101.90396427 -287.58400345 101.58571053 C-285.9150563 101.43308033 -284.24618843 101.27958053 -282.57740402 101.1251812 C-280.23465655 100.90900084 -277.89156673 100.69699607 -275.54833984 100.48608398 C-274.52246262 100.3902578 -274.52246262 100.3902578 -273.4758606 100.29249573 C-269.23559485 99.9163378 -265.04872958 99.80409167 -260.79296875 99.859375 C-261.39528274 103.42607304 -262.35454376 106.43746129 -263.859375 109.72265625 C-264.26220703 110.60888672 -264.66503906 111.49511719 -265.08007812 112.40820312 C-265.50095703 113.32021484 -265.92183594 114.23222656 -266.35546875 115.171875 C-266.78021484 116.10322266 -267.20496094 117.03457031 -267.64257812 117.99414062 C-268.68803218 120.2847422 -269.73828631 122.57301159 -270.79296875 124.859375 C-250.88948859 128.23819288 -250.88948859 128.23819288 -230.79296875 129.859375 C-229.74625 129.89933594 -228.69953125 129.93929687 -227.62109375 129.98046875 C-175.29499504 131.0245341 -127.40378941 111.07378166 -87.79296875 77.859375 C-88.40785156 76.44398438 -88.40785156 76.44398438 -89.03515625 75 C-92.41436876 67.02889896 -94.99523886 59.55842956 -95.79296875 50.859375 C-95.89931641 49.76302734 -95.89931641 49.76302734 -96.0078125 48.64453125 C-96.7310862 33.10861225 -90.83591371 17.89063968 -80.54296875 6.421875 C-59.27406752 -15.99176997 -24.45538979 -18.74343161 0 0 Z " fill="#6ED6A3" transform="translate(479.79296875,336.140625)"/>
<path d="M0 0 C-0.52141577 5.62635488 -2.05237235 9.86413231 -4.54296875 14.90625 C-4.90361923 15.65675629 -5.26426971 16.40726257 -5.635849 17.18051147 C-6.41018595 18.78991849 -7.1886978 20.39732235 -7.9710083 22.00286865 C-10.03260888 26.23478198 -12.06358303 30.48136801 -14.09765625 34.7265625 C-14.50949158 35.5841214 -14.9213269 36.4416803 -15.34564209 37.32522583 C-19.39877397 45.78508442 -23.28599605 54.31624412 -27.125 62.875 C-27.42804047 63.54974365 -27.73108093 64.2244873 -28.04330444 64.91967773 C-29.70052832 68.61089885 -31.35288638 72.30425361 -33 76 C-34.32 76 -35.64 76 -37 76 C-38.61572266 74.34765625 -38.61572266 74.34765625 -40.1640625 72.0625 C-41.01097656 70.84433594 -41.01097656 70.84433594 -41.875 69.6015625 C-42.4525 68.74304688 -43.03 67.88453125 -43.625 67 C-44.77804655 65.30852642 -45.93661331 63.62079814 -47.1015625 61.9375 C-47.61025879 61.18339844 -48.11895508 60.42929688 -48.64306641 59.65234375 C-49.09085449 59.10707031 -49.53864258 58.56179687 -50 58 C-52.22256828 57.77139962 -52.22256828 57.77139962 -54.03125 59.9140625 C-90.99255196 100.50131497 -107.69434737 153.67443296 -106 208 C-105.47560451 218.12703539 -103.93186441 228.05394485 -102 238 C-101.8340332 238.85561523 -101.66806641 239.71123047 -101.49707031 240.59277344 C-101.33303711 241.3871582 -101.16900391 242.18154297 -101 243 C-100.855625 243.70125 -100.71125 244.4025 -100.5625 245.125 C-100.00830166 247.30411759 -100.00830166 247.30411759 -98 250 C-97.18595703 248.73542969 -97.18595703 248.73542969 -96.35546875 247.4453125 C-95.64003906 246.34960938 -94.92460938 245.25390625 -94.1875 244.125 C-93.47980469 243.03445313 -92.77210937 241.94390625 -92.04296875 240.8203125 C-90 238 -90 238 -87 236 C-82.78578161 241.0235716 -79.10927315 246.28701787 -75.6875 251.875 C-70.98700429 259.54927872 -66.0136661 267.02882001 -61 274.5 C-55.84622393 282.18500865 -50.74382338 289.88276242 -45.9128418 297.77636719 C-43.2467582 302.09412208 -40.46723952 306.3302123 -37.64453125 310.546875 C-37.25030975 311.13585571 -36.85608826 311.72483643 -36.44992065 312.33166504 C-34.47485896 315.27878654 -32.49385699 318.22174694 -30.50585938 321.16015625 C-19.96043292 336.79743317 -19.96043292 336.79743317 -17 343 C-17.33 343.66 -17.66 344.32 -18 345 C-63.87 345 -109.74 345 -157 345 C-158 342 -158 342 -157.12646484 340.14086914 C-156.65934082 339.44598389 -156.1922168 338.75109863 -155.7109375 338.03515625 C-155.18814209 337.24544434 -154.66534668 336.45573242 -154.12670898 335.64208984 C-153.54864502 334.7908252 -152.97058105 333.93956055 -152.375 333.0625 C-151.16505208 331.24369744 -149.95542549 329.42468107 -148.74609375 327.60546875 C-147.80999268 326.20820557 -147.80999268 326.20820557 -146.85498047 324.78271484 C-145.10347506 322.15522621 -143.37581175 319.51428368 -141.66015625 316.86328125 C-141.12495361 316.03787842 -140.58975098 315.21247559 -140.03833008 314.36206055 C-138.96777313 312.69883595 -137.90643784 311.02964077 -136.85424805 309.35473633 C-134.20398712 305.17875273 -131.49146572 301.3133481 -128.234375 297.5859375 C-121.91894342 290.32652685 -121.91894342 290.32652685 -120.19335938 281.21826172 C-121.63632463 274.8465757 -124.21332593 268.93796828 -126.79785156 262.95898438 C-129.90873217 255.30182089 -131.42256012 247.08743644 -133 239 C-133.16371094 238.17967285 -133.32742187 237.3593457 -133.49609375 236.51416016 C-141.98606125 191.70502381 -135.31313616 143.44974196 -117 102 C-116.68450195 101.27022949 -116.36900391 100.54045898 -116.04394531 99.78857422 C-109.23748902 84.13372475 -100.45382266 69.49925446 -90 56 C-89.35546875 55.16339844 -88.7109375 54.32679687 -88.046875 53.46484375 C-83.93019786 48.22175299 -79.58835408 43.23193204 -75.078125 38.32421875 C-72.95629122 35.95111518 -70.96660179 33.50254507 -69 31 C-69.42933838 30.41508789 -69.85867676 29.83017578 -70.30102539 29.22753906 C-72.23476922 26.5777398 -74.14871868 23.91424782 -76.0625 21.25 C-77.07666992 19.86941406 -77.07666992 19.86941406 -78.11132812 18.4609375 C-78.74619141 17.57148437 -79.38105469 16.68203125 -80.03515625 15.765625 C-80.6269165 14.94868164 -81.21867676 14.13173828 -81.82836914 13.29003906 C-83.22196334 10.56615625 -82.86938119 9.81621465 -82 7 C-72.19475526 6.08406828 -62.38923817 5.1711151 -52.58336449 4.26194 C-48.02988561 3.83965941 -43.47650608 3.41636205 -38.92333984 2.99072266 C-34.52748025 2.57982665 -30.13137791 2.17162549 -25.73509598 1.76527405 C-24.05973045 1.60994473 -22.38445391 1.45365244 -20.70927048 1.29637146 C-18.35898185 1.07587323 -16.00839721 0.85883274 -13.65771484 0.64257812 C-12.96863037 0.57712296 -12.2795459 0.51166779 -11.56958008 0.44422913 C-7.69924014 0.09228978 -3.88571701 -0.0618923 0 0 Z " fill="#FCB441" transform="translate(161,68)"/>
<path d="M0 0 C13.86 0 27.72 0 42 0 C47 18 47 18 48 25 C48.804375 25.0825 49.60875 25.165 50.4375 25.25 C54.28214138 26.05939818 57.28381938 27.46400646 60.75390625 29.2578125 C63.75444167 30.24929377 64.98519742 30.02486207 68 29 C71.72289999 26.98152041 75.27940081 24.69241417 78.84960938 22.41796875 C79.94692383 21.74314453 79.94692383 21.74314453 81.06640625 21.0546875 C81.72584229 20.63687012 82.38527832 20.21905273 83.06469727 19.78857422 C85.53040793 18.78387566 86.50982314 19.14754783 89 20 C91.21619576 21.88863847 93.27270628 23.78079652 95.33203125 25.828125 C95.92803635 26.4141449 96.52404144 27.00016479 97.1381073 27.60394287 C98.39345951 28.84412494 99.64478499 30.08839443 100.89233398 31.33642578 C102.80754482 33.24506183 104.74544801 35.12842846 106.68554688 37.01171875 C107.90250735 38.2198796 109.1180521 39.42946851 110.33203125 40.640625 C110.91523636 41.20227356 111.49844147 41.76392212 112.09931946 42.34259033 C116.00019056 46.31168751 116.00019056 46.31168751 115.99926758 49.64550781 C115.03154013 51.92568459 114.01770987 53.94748674 112.6796875 56.03125 C112.00099609 57.12373047 112.00099609 57.12373047 111.30859375 58.23828125 C110.35061889 59.74963668 109.3870381 61.25745292 108.41796875 62.76171875 C105.72923115 66.9328218 105.72923115 66.9328218 105.06640625 71.7109375 C105.37449219 72.46632813 105.68257812 73.22171875 106 74 C106.48146484 75.27230469 106.48146484 75.27230469 106.97265625 76.5703125 C107.70149952 78.27878383 108.43066823 79.98711636 109.16015625 81.6953125 C110 84 110 84 110 87 C110.63164062 87.09796875 111.26328125 87.1959375 111.9140625 87.296875 C119.93726456 88.63792895 127.03297102 90.72370601 135 93 C135 107.19 135 121.38 135 136 C131.16375 136.70125 127.3275 137.4025 123.375 138.125 C114.60481942 139.81738465 114.60481942 139.81738465 108.03515625 145.33984375 C105.95616036 149.52107072 104.9142746 153.7115045 105.08984375 158.3984375 C106.79635855 163.27628668 109.81723561 167.50969557 112.58203125 171.84960938 C113.25685547 172.94692383 113.25685547 172.94692383 113.9453125 174.06640625 C114.36312988 174.72584229 114.78094727 175.38527832 115.21142578 176.06469727 C116.21770431 178.53428547 115.86411739 179.50768398 115 182 C113.8167572 183.54400635 113.8167572 183.54400635 112.31616211 185.02441406 C111.75565659 185.58469299 111.19515106 186.14497192 110.61766052 186.722229 C110.01035599 187.31404968 109.40305145 187.90587036 108.77734375 188.515625 C108.15726944 189.13145447 107.53719513 189.74728394 106.89833069 190.3817749 C104.91832095 192.34500635 102.92813081 194.29754436 100.9375 196.25 C99.59241465 197.58003748 98.24800512 198.91075879 96.90429688 200.2421875 C93.61065094 203.50277537 90.30783661 206.75381188 87 210 C81.47126719 207.35455658 76.35380694 204.69300052 71.4375 201 C67.79612166 198.55698366 67.79612166 198.55698366 63.5859375 198.1171875 C61.24608609 198.89713797 59.20112405 199.8867042 57 201 C56.03562012 201.24544556 56.03562012 201.24544556 55.05175781 201.49584961 C50.76868393 202.63960051 50.76868393 202.63960051 47.92016602 205.83007812 C47.15368484 208.14526949 46.6065422 210.42198695 46.125 212.8125 C45.75359548 214.40257562 45.38121887 215.99242454 45.0078125 217.58203125 C44.85973145 218.28561768 44.71165039 218.9892041 44.55908203 219.71411133 C43.87232007 222.52203808 42.91411677 225.2576497 42 228 C27.81 228 13.62 228 -1 228 C-6 208 -6 208 -6 204 C-6.65226562 203.81824219 -7.30453125 203.63648438 -7.9765625 203.44921875 C-12.01111006 202.28884003 -15.61299981 201.21175482 -19.3125 199.1875 C-21.86613597 197.71866606 -21.86613597 197.71866606 -24.1328125 198.59765625 C-28.91513366 200.93669344 -33.37300899 203.84393917 -37.84960938 206.71875 C-38.58115234 207.16734375 -39.31269531 207.6159375 -40.06640625 208.078125 C-40.72584229 208.49481445 -41.38527832 208.91150391 -42.06469727 209.34082031 C-44 210 -44 210 -45.85229492 209.50146484 C-48.99835532 207.30204784 -51.61706142 204.62678641 -54.296875 201.8984375 C-55.18732513 201.00374252 -55.18732513 201.00374252 -56.09576416 200.0909729 C-57.98526627 198.1903019 -59.86768392 196.28278526 -61.75 194.375 C-63.03209065 193.08287532 -64.31463761 191.79120324 -65.59765625 190.5 C-68.73708432 187.33855521 -71.87017801 184.1709539 -75 181 C-73.61702141 177.42229452 -72.04383021 174.25154807 -70 171 C-66.2512905 171.53655193 -63.15058232 172.75819335 -59.73803711 174.37475586 C-39.88378773 183.73987582 -17.23666886 186.81562513 4 180 C4.99773437 179.70996094 5.99546875 179.41992188 7.0234375 179.12109375 C30.04270403 172.04962241 48.20677915 156.85843491 60 136 C71.23304549 114.24056765 74.09273424 87.66659491 66.73632812 64.12060547 C62.8895643 53.04202769 57.47223213 43.05811696 50 34 C49.33613281 33.16210938 48.67226563 32.32421875 47.98828125 31.4609375 C35.69517986 16.78192919 18.26305972 7.88430667 0 3 C0 2.01 0 1.02 0 0 Z " fill="#554E56" transform="translate(236,156)"/>
<path d="M0 0 C34.92097694 9.27970017 67.70808701 23.84827328 95 48 C96.12728516 48.96486328 96.12728516 48.96486328 97.27734375 49.94921875 C99.90525698 52.24481683 102.46584615 54.60215955 105 57 C105.62181152 57.5878125 106.24362305 58.175625 106.88427734 58.78125 C117.38019473 68.78823484 126.59249071 79.19000422 135 91 C135.42796875 91.58330078 135.8559375 92.16660156 136.296875 92.76757812 C151.7055789 113.80826082 164.2616862 139.47645843 170 165 C179.05638678 165.15178302 187.97582223 164.69037426 197 164 C198.46238331 168.38714993 196.33546404 171.21487435 194.43359375 175.171875 C194.04805328 175.99467453 193.66251282 176.81747406 193.26528931 177.66520691 C191.99840556 180.36450095 190.71819961 183.05723707 189.4375 185.75 C187.68110173 189.47347898 185.93041554 193.19963356 184.1796875 196.92578125 C183.73953812 197.86003433 183.29938873 198.79428741 182.84590149 199.7568512 C180.07489597 205.6538055 177.37984358 211.57837175 174.7578125 217.54296875 C174.43802933 218.26729095 174.11824615 218.99161316 173.78877258 219.73788452 C172.58440276 222.46793038 171.38053898 225.19782622 170.20187378 227.93908691 C169.40740767 229.78582351 168.59670509 231.62555015 167.78515625 233.46484375 C167.34051025 234.492146 166.89586426 235.51944824 166.43774414 236.57788086 C164.87214593 239.21539145 163.84603721 239.98054102 161 241 C152.44133058 229.22827528 144.02590977 217.3653774 135.69775391 205.4296875 C133.01633181 201.59225397 130.32269661 197.76350424 127.625 193.9375 C127.13604248 193.24245361 126.64708496 192.54740723 126.14331055 191.83129883 C123.95516213 188.72940172 121.75063337 185.64507735 119.4765625 182.60546875 C118.74179687 181.62191406 118.00703125 180.63835937 117.25 179.625 C116.61578125 178.79226562 115.9815625 177.95953125 115.328125 177.1015625 C114 175 114 175 114 172 C116.91472635 171.02842455 119.27597757 170.71746042 122.32421875 170.46484375 C123.35224609 170.37783203 124.38027344 170.29082031 125.43945312 170.20117188 C126.51130859 170.11416016 127.58316406 170.02714844 128.6875 169.9375 C130.31268555 169.80118164 130.31268555 169.80118164 131.97070312 169.66210938 C134.64687907 169.43811227 137.32329301 169.2175438 140 169 C130.31204294 142.23960368 118.75872494 117.61909789 100 96 C99.29359375 95.18273437 98.5871875 94.36546875 97.859375 93.5234375 C87.80434408 82.13014707 77.26246205 71.96826994 65 63 C64.44570313 62.59072266 63.89140625 62.18144531 63.3203125 61.75976562 C45.99689799 49.13319238 26.32819643 39.64721503 6 33 C4.02 32.34 2.04 31.68 0 31 C0 20.77 0 10.54 0 0 Z " fill="#FDB440" transform="translate(311,38)"/>
<path d="M0 0 C3.47994703 1.42805602 4.96320816 3.04317515 7.0625 6.125 C11.16316406 11.64925704 16.31309292 15.22586817 22 19 C20.45124025 23.00637252 17.66460327 25.33280881 14.4375 28 C13.57801758 28.71458374 13.57801758 28.71458374 12.70117188 29.44360352 C-35.01537439 68.49656661 -96.39383257 86.9574974 -157.78125 81.46484375 C-170.66813014 80.1041112 -183.35109839 77.78417164 -196 75 C-196.42297363 75.99181274 -196.42297363 75.99181274 -196.85449219 77.00366211 C-198.13764284 79.98848491 -199.44343285 82.96285765 -200.75 85.9375 C-201.1934375 86.97841797 -201.636875 88.01933594 -202.09375 89.09179688 C-202.53203125 90.08115234 -202.9703125 91.07050781 -203.421875 92.08984375 C-203.81987305 93.00628662 -204.21787109 93.92272949 -204.62792969 94.86694336 C-206 97 -206 97 -208.16113281 97.80688477 C-208.76795898 97.87061279 -209.37478516 97.93434082 -210 98 C-214.77846796 91.97313591 -219.31001755 85.82296055 -223.6875 79.5 C-224.91767815 77.73287058 -226.14815183 75.96594686 -227.37890625 74.19921875 C-227.98750488 73.32442871 -228.59610352 72.44963867 -229.22314453 71.54833984 C-231.84202529 67.79237977 -234.48211015 64.05158599 -237.125 60.3125 C-237.60461182 59.63219727 -238.08422363 58.95189453 -238.57836914 58.25097656 C-241.15178841 54.6029569 -243.73943721 50.96588318 -246.34375 47.33984375 C-246.89272949 46.5718042 -247.44170898 45.80376465 -248.00732422 45.01245117 C-249.05677222 43.54471277 -250.11025057 42.07984456 -251.16845703 40.6184082 C-253.61739714 37.1853029 -255.66630083 34.04816925 -257 30 C-255.08517325 28.08517325 -251.64196205 28.47682447 -249.02099609 28.24389648 C-248.29082275 28.17547546 -247.56064941 28.10705444 -246.80834961 28.03656006 C-244.38043618 27.81027012 -241.95197777 27.59054656 -239.5234375 27.37109375 C-237.8376696 27.21588235 -236.15192976 27.06036582 -234.46621704 26.90455627 C-230.92385848 26.57813508 -227.38123174 26.25484901 -223.83837891 25.93383789 C-219.30862989 25.5232395 -214.77953631 25.10587799 -210.25061607 24.68624783 C-206.76431156 24.36382919 -203.27772166 24.04458927 -199.7910347 23.72633553 C-198.12208755 23.57370533 -196.45321968 23.42020553 -194.78443527 23.2658062 C-192.4416878 23.04962584 -190.09859798 22.83762107 -187.75537109 22.62670898 C-186.72949387 22.5308828 -186.72949387 22.5308828 -185.68289185 22.43312073 C-181.4426261 22.0569628 -177.25576083 21.94471667 -173 22 C-173.60231399 25.56669804 -174.56157501 28.57808629 -176.06640625 31.86328125 C-176.46923828 32.74951172 -176.87207031 33.63574219 -177.28710938 34.54882812 C-177.70798828 35.46083984 -178.12886719 36.37285156 -178.5625 37.3125 C-178.98724609 38.24384766 -179.41199219 39.17519531 -179.84960938 40.13476562 C-180.89506343 42.4253672 -181.94531756 44.71363659 -183 47 C-163.09651984 50.37881788 -163.09651984 50.37881788 -143 52 C-141.95328125 52.03996094 -140.9065625 52.07992187 -139.828125 52.12109375 C-87.50202629 53.1651591 -39.61082066 33.21440666 0 0 Z " fill="#FCB441" transform="translate(392,414)"/>
<path d="M0 0 C3.54342215 3.37004605 6.37636807 6.75793316 9.07421875 10.83203125 C9.62181854 11.65460167 9.62181854 11.65460167 10.18048096 12.49378967 C11.35551599 14.26278491 12.52176398 16.037366 13.6875 17.8125 C14.5063265 19.05046848 15.3254202 20.28826028 16.14477539 21.52587891 C20.53650274 28.17450494 24.8564382 34.86189878 29.02880859 41.65063477 C33.32347089 48.6031699 37.82675057 55.42004475 42.3125 62.25 C42.93212616 63.19375992 42.93212616 63.19375992 43.56427002 64.15658569 C45.21086916 66.66437062 46.85779378 69.1719413 48.50521851 71.67918396 C52.11685035 77.17596088 55.72069044 82.67774425 59.3125 88.1875 C59.80854736 88.94514648 60.30459473 89.70279297 60.81567383 90.48339844 C62.22459936 92.6469587 63.61689353 94.81984912 65 97 C65.5676709 97.89025879 66.1353418 98.78051758 66.72021484 99.69775391 C67.28047363 100.59800293 67.84073242 101.49825195 68.41796875 102.42578125 C68.93512451 103.25118408 69.45228027 104.07658691 69.98510742 104.92700195 C70.32002197 105.61109131 70.65493652 106.29518066 71 107 C70.67 107.66 70.34 108.32 70 109 C24.13 109 -21.74 109 -69 109 C-70 106 -70 106 -69.12646484 104.14086914 C-68.65934082 103.44598389 -68.1922168 102.75109863 -67.7109375 102.03515625 C-67.18814209 101.24544434 -66.66534668 100.45573242 -66.12670898 99.64208984 C-65.54864502 98.7908252 -64.97058105 97.93956055 -64.375 97.0625 C-63.16505208 95.24369744 -61.95542549 93.42468107 -60.74609375 91.60546875 C-60.12202637 90.67395996 -59.49795898 89.74245117 -58.85498047 88.78271484 C-56.00558654 84.50824893 -53.22504603 80.18992785 -50.4375 75.875 C-35.64498304 53.08960795 -35.64498304 53.08960795 -28.4375 42.9375 C-21.95029859 33.75390681 -15.80147929 24.27760541 -10.25 14.5 C-7.27362806 9.28234072 -3.834974 4.61595655 0 0 Z " fill="#61B7FE" transform="translate(73,304)"/>
<path d="M0 0 C22.44 0 44.88 0 68 0 C68.0825 10.02375 68.165 20.0475 68.25 30.375 C68.28641602 33.5207959 68.32283203 36.6665918 68.36035156 39.90771484 C68.37204358 42.4254488 68.38223419 44.94319037 68.390625 47.4609375 C68.41108887 48.74846924 68.43155273 50.03600098 68.45263672 51.36254883 C68.45692252 62.51205394 65.93054179 71.84187091 58 80 C40.71659843 93.96325082 24.68784869 88 0 88 C0 58.96 0 29.92 0 0 Z " fill="#FD636E" transform="translate(202,0)"/>
<path d="M0 0 C13.47324033 -1.05214024 25.35270877 4.81355167 35.69921875 13.18359375 C48.35640734 24.9879243 54.61919656 40.2666848 55.3125 57.4375 C55.11729218 74.7459265 48.11818901 88.86040076 36 101 C35.43539062 101.57621094 34.87078125 102.15242188 34.2890625 102.74609375 C22.33200391 113.9740634 6.71753625 116.80345294 -9.046875 116.34375 C-23.7294195 115.55738572 -36.99793185 108.80437308 -47 98 C-47.33 97.01 -47.66 96.02 -48 95 C-46.88625 94.93683594 -45.7725 94.87367188 -44.625 94.80859375 C-28.5234778 93.62714034 -14.44672604 88.93652256 -3 77 C8.48727346 63.1577456 12.7931672 48.80451636 12 31 C10.90534807 19.53743048 6.37964879 9.47833535 0 0 Z " fill="#3EC3A3" transform="translate(447,325)"/>
<path d="M0 0 C3.10430006 3.76193082 5.87988688 7.68234206 8.5625 11.75 C8.98724609 12.39106689 9.41199219 13.03213379 9.84960938 13.69262695 C13.25429959 18.84364571 16.63369739 24.0113272 20 29.1875 C20.46865479 29.90583008 20.93730957 30.62416016 21.42016602 31.36425781 C21.85901123 32.04198242 22.29785645 32.71970703 22.75 33.41796875 C23.33007812 34.31165161 23.33007812 34.31165161 23.921875 35.22338867 C27.5159125 41.14590019 27.68807531 46.12806837 27 53 C25.66983123 58.14388048 23.37561054 61.0604928 18.9375 63.9375 C14.75189687 66.30746722 11.4166912 67.12452332 6.6105957 67.11352539 C5.50968094 67.11344986 4.40876617 67.11337433 3.27449036 67.11329651 C2.08691635 67.10813522 0.89934235 67.10297394 -0.32421875 67.09765625 C-1.54075638 67.0962413 -2.75729401 67.09482635 -4.01069641 67.09336853 C-7.9029891 67.08776312 -11.79522464 67.07520967 -15.6875 67.0625 C-18.32356688 67.0574857 -20.95963466 67.05292267 -23.59570312 67.04882812 C-30.06382164 67.03779193 -36.53190674 67.0210485 -43 67 C-41.80327627 63.94629319 -40.61768516 61.17217597 -38.8203125 58.42578125 C-38.39202148 57.76715088 -37.96373047 57.10852051 -37.52246094 56.42993164 C-37.06129883 55.7311792 -36.60013672 55.03242676 -36.125 54.3125 C-35.40231934 53.20733032 -35.40231934 53.20733032 -34.66503906 52.07983398 C-33.11589487 49.71596763 -31.55906687 47.35733216 -30 45 C-29.47954102 44.21173828 -28.95908203 43.42347656 -28.42285156 42.61132812 C-19.04804594 28.42967687 -19.04804594 28.42967687 -14.4375 21.9375 C-9.374261 14.79606589 -4.72357504 7.3683151 0 0 Z " fill="#8AC8FD" transform="translate(59,325)"/>
</svg>
