<?xml version="1.0" encoding="UTF-8"?>
<svg version="1.1" xmlns="http://www.w3.org/2000/svg" width="512" height="512">
<path d="M0 0 C0.63893188 1.315448 0.63893188 1.315448 1.29077148 2.6574707 C1.72003685 3.5412439 1.72003685 3.5412439 2.15797424 4.44287109 C2.81313322 5.79173941 3.46827372 7.1406167 4.12339783 8.48950195 C6.0038777 12.36129078 7.88471126 16.23290723 9.76611328 20.10424805 C13.59961506 27.99328901 17.42935483 35.88408415 21.24609375 43.78125 C28.68294375 59.15853874 36.214399 74.4828113 43.875 89.75 C49.16860171 100.30263243 54.4510949 110.85750549 59.5625 121.5 C59.99739746 122.40073242 60.43229492 123.30146484 60.88037109 124.22949219 C63.49098139 129.70865699 65.54879592 135.0977558 67 141 C54.17541799 147.29844693 41.33554058 153.56466018 28.4786377 159.796875 C26.25600294 160.87573677 24.03530711 161.95844848 21.81542969 163.04296875 C18.51228186 164.65479401 15.1957643 166.23724487 11.875 167.8125 C10.48667969 168.49469604 10.48667969 168.49469604 9.0703125 169.19067383 C3.99172166 171.56212567 0.61793631 172.6694126 -5 171 C-8.27385701 167.81708346 -10.08562176 164.11591322 -12 160 C-16.44769138 162.75054598 -19.74815824 165.61487164 -23.25 169.5625 C-24.52617188 170.98755859 -24.52617188 170.98755859 -25.828125 172.44140625 C-28.07861159 174.99271923 -28.07861159 174.99271923 -30 178 C-29.6300298 181.28264467 -28.08423709 183.6850648 -26.4375 186.5 C-23.05791819 193.20004557 -22.59344035 199.60062841 -24.88671875 206.7734375 C-27.82915595 213.28394639 -31.86668249 217.94744813 -38.2890625 221.13671875 C-44.72348834 223.18572179 -53.12449895 223.2025732 -59.375 220.5 C-60.24125 220.005 -61.1075 219.51 -62 219 C-62.0825 219.70125 -62.165 220.4025 -62.25 221.125 C-64.09350013 228.19175051 -69.04959902 232.24892587 -75 236 C-78 237 -78 237 -80.9609375 236.96484375 C-84.52773553 236.93627672 -87.54843041 237.07609501 -91 238 C-92.95694881 240.36612902 -93.82418436 242.55192698 -94.8984375 245.41796875 C-96.92703266 250.17293825 -100.75251621 252.85879062 -105.26171875 255.1484375 C-108.7134571 256.22187396 -111.70460174 256.19243735 -115.3125 256.125 C-116.56675781 256.10695313 -117.82101562 256.08890625 -119.11328125 256.0703125 C-120.06589844 256.04710937 -121.01851563 256.02390625 -122 256 C-122.12246094 256.91652344 -122.24492187 257.83304687 -122.37109375 258.77734375 C-123.37336353 263.91319824 -125.83309686 267.32752913 -129.96875 270.51953125 C-136.65742397 274.84969891 -143.04177926 276.29052228 -151 275 C-156.62052656 272.97713586 -161.82337776 269.94720813 -167 267 C-167.93416748 266.47237061 -167.93416748 266.47237061 -168.88720703 265.93408203 C-172.2877207 264.00421 -175.65626399 262.02650667 -179 260 C-179.3403125 260.45890625 -179.680625 260.9178125 -180.03125 261.390625 C-184.46806313 267.00744162 -188.62090029 270.35886109 -195.828125 271.4140625 C-204.76828293 271.84960866 -210.56272404 268.89387563 -217.875 264.125 C-220.68368483 261.31631517 -222.22172561 258.55654879 -224 255 C-224 254.34 -224 253.68 -224 253 C-224.94875 253.103125 -225.8975 253.20625 -226.875 253.3125 C-233.99919684 253.32698007 -240.89710028 248.63899975 -246 244 C-246.60328125 243.19369141 -246.60328125 243.19369141 -247.21875 242.37109375 C-249.94432335 240.27311953 -252.19820508 240.93268513 -255.5625 241.1875 C-262.95534122 241.34008702 -267.36428337 239.73441636 -273 235 C-275.83805816 232.25063115 -278.39200843 229.60075075 -279.80859375 225.87109375 C-280.88319503 223.7430379 -280.88319503 223.7430379 -283.50390625 223.19921875 C-284.51324219 223.03035156 -285.52257812 222.86148438 -286.5625 222.6875 C-294.83036972 220.87114927 -301.39413608 216.18514771 -306 209 C-308.87383233 202.67756887 -308.97665918 196.11892179 -306.625 189.625 C-305 186 -305 186 -303 183 C-303.57621094 182.73316406 -304.15242188 182.46632813 -304.74609375 182.19140625 C-307.80827161 180.57275071 -310.38005744 178.47323706 -313.09765625 176.33984375 C-315.0629958 174.81914723 -315.0629958 174.81914723 -318 174 C-318.268125 174.61875 -318.53625 175.2375 -318.8125 175.875 C-320 178 -320 178 -323 180 C-330.41980958 181.34637604 -335.66143579 177.17901095 -341.8125 173.4375 C-343.53543015 172.41570653 -345.25837548 171.39393769 -346.98219299 170.37364197 C-348.77761003 169.30856825 -350.56912613 168.23714428 -352.36035156 167.16503906 C-358.26126935 163.64287798 -364.22882817 160.23563926 -370.1875 156.8125 C-372.30618734 155.59018646 -374.42468887 154.36755078 -376.54296875 153.14453125 C-380.68967864 150.75304248 -384.84127671 148.3705311 -389 146 C-388.44287224 141.28238588 -386.31278065 137.7813025 -383.875 133.8125 C-382.95957178 132.28988277 -382.0456044 130.76638664 -381.1328125 129.2421875 C-380.63168945 128.4078418 -380.13056641 127.57349609 -379.61425781 126.71386719 C-376.60440195 121.65374049 -373.68342386 116.54217898 -370.75 111.4375 C-365.88301613 102.98289922 -360.98954361 94.54472944 -356.0625 86.125 C-350.98710286 77.44745273 -345.97797024 68.73362966 -341 60 C-335.84537254 50.96003359 -330.66934264 41.93309509 -325.4375 32.9375 C-324.89029297 31.99326172 -324.34308594 31.04902344 -323.77929688 30.07617188 C-320.01058017 23.61353772 -316.05694173 17.28541337 -312 11 C-307.88598471 11.59426224 -304.95337406 12.95217183 -301.37109375 15.03515625 C-300.26628662 15.67235596 -299.16147949 16.30955566 -298.02319336 16.96606445 C-296.82785804 17.66469805 -295.63262947 18.36351433 -294.4375 19.0625 C-293.20295094 19.77827066 -291.96799979 20.49334819 -290.73266602 21.20776367 C-288.80533428 22.32259965 -286.87838634 23.43805677 -284.95298767 24.55622864 C-280.32944688 27.2399503 -275.68619867 29.88681132 -271.03125 32.515625 C-269.7454797 33.24332977 -268.45975312 33.97111181 -267.17407227 34.69897461 C-265.3159528 35.75082732 -263.45719351 36.80142993 -261.59591675 37.84768677 C-259.87259926 38.81712792 -258.15301024 39.79318794 -256.43359375 40.76953125 C-254.96490845 41.59868042 -254.96490845 41.59868042 -253.46655273 42.44458008 C-250.39263226 44.38300899 -248.43195338 45.80382141 -247.1875 49.25 C-246.94474437 52.81041591 -247.96895463 55.60829862 -249 59 C-246.7965194 60.1560727 -244.58796844 61.29984721 -242.375 62.4375 C-241.75753906 62.76298828 -241.14007813 63.08847656 -240.50390625 63.42382812 C-235.00612383 66.23295584 -235.00612383 66.23295584 -229 67 C-226.84488594 65.21442279 -225.35143455 63.70125955 -223.625 61.5625 C-222.65731343 60.44178923 -221.68855989 59.32199886 -220.71875 58.203125 C-220.25210938 57.65205078 -219.78546875 57.10097656 -219.3046875 56.53320312 C-210.3487366 46.00862011 -199.00105686 37.77876685 -186 33 C-184.44539063 32.4121875 -184.44539063 32.4121875 -182.859375 31.8125 C-166.44875511 26.51400389 -147.11887656 26.9484687 -131 33 C-130.12553223 33.32742188 -129.25106445 33.65484375 -128.35009766 33.9921875 C-124.26704904 35.53023353 -120.18833901 37.07950914 -116.11181641 38.63476562 C-99.5496563 44.89521543 -82.83083747 49 -65 49 C-65.433125 48.23816406 -65.433125 48.23816406 -65.875 47.4609375 C-69.97264438 39.86322188 -69.97264438 39.86322188 -69 35 C-65.02808088 30.17745048 -60.35493299 27.87976 -54.7734375 25.234375 C-53.41999741 24.57782928 -53.41999741 24.57782928 -52.03921509 23.90802002 C-49.15575056 22.51222375 -46.26557571 21.13099913 -43.375 19.75 C-41.48652598 18.83817758 -39.59850081 17.92542493 -37.7109375 17.01171875 C-33.06521509 14.76648581 -28.411833 12.53774461 -23.75476074 10.31616211 C-20.97890792 8.98992268 -18.2065697 7.65653749 -15.43457031 6.32226562 C-13.69868832 5.49063361 -11.96269104 4.65924218 -10.2265625 3.828125 C-9.42350677 3.44033875 -8.62045105 3.05255249 -7.7930603 2.65301514 C-2.22794831 0 -2.22794831 0 0 0 Z " fill="#020101" transform="translate(418,230)"/>
<path d="M0 0 C1.02037011 -0.00835666 2.04074023 -0.01671332 3.09203064 -0.02532321 C6.50980323 -0.04829536 9.92692072 -0.04268698 13.34475708 -0.0370636 C15.79569216 -0.04739536 18.24662073 -0.05938393 20.69754028 -0.07290649 C26.66320363 -0.10075346 32.62860959 -0.10955678 38.59431516 -0.10833099 C43.44443055 -0.10749804 48.29449253 -0.11336505 53.1445961 -0.12395668 C68.40144977 -0.15662767 83.65813895 -0.16562094 98.91502251 -0.15686695 C110.94361203 -0.15088557 122.97179392 -0.1812798 135.0002818 -0.22848966 C147.35835948 -0.27661387 159.71624096 -0.29866273 172.07441437 -0.29317886 C179.00973675 -0.29060414 185.94466866 -0.29855665 192.87990952 -0.3342495 C199.40211322 -0.36755282 205.92359921 -0.36442295 212.44587708 -0.33680534 C214.83879049 -0.33234455 217.23176059 -0.33982339 219.62459183 -0.36014938 C222.89364261 -0.38603602 226.15974218 -0.36869321 229.42871094 -0.34057617 C230.37405256 -0.35823758 231.31939419 -0.37589899 232.29338253 -0.3940956 C238.57900777 -0.27733315 241.71193863 1.33222725 246.17503852 5.75744331 C246.72491771 6.34176726 247.27479691 6.92609121 247.84133911 7.52812195 C248.80259008 8.45229651 249.76620905 9.37401803 250.73280334 10.29260254 C251.61803177 11.17703537 252.50326019 12.0614682 253.41531372 12.97270203 C253.91230774 13.46794373 254.40930176 13.96318542 254.9213562 14.47343445 C256.53128918 16.07903542 258.13761892 17.68818282 259.74368286 19.2976532 C260.87314023 20.42643568 262.0027459 21.55506979 263.13249207 22.68356323 C265.48311199 25.03271851 267.83193764 27.3836489 270.17947388 29.73588562 C273.19118744 32.75333539 276.20742209 35.76621994 279.22498226 38.77782154 C281.55070978 41.09994366 283.87406052 43.424432 286.1966877 45.74965477 C287.30875795 46.86239231 288.42157209 47.97438692 289.53513908 49.0856266 C291.08356321 50.63152031 292.62876152 52.18056686 294.17312622 53.73051453 C295.05278549 54.61096939 295.93244476 55.49142426 296.83876038 56.39855957 C299.96918293 59.72748241 299.96559985 61.60461724 299.96159363 66.08357239 C299.96365562 67.85466873 299.96365562 67.85466873 299.96575928 69.6615448 C299.962164 70.96345764 299.95856873 72.26537048 299.9548645 73.60673523 C299.95458254 74.98632302 299.95474053 76.36591096 299.95530701 77.74549866 C299.95559465 81.49733976 299.94970331 85.24914907 299.94273305 89.00098276 C299.93649395 92.91944119 299.93589527 96.83790029 299.93470764 100.75636292 C299.93159597 108.17949011 299.92338478 115.60260262 299.91335815 123.02572334 C299.90219193 131.47542555 299.89668528 139.92512846 299.89166272 148.37483621 C299.88120204 165.75927329 299.86360577 183.14369607 299.84133911 200.52812195 C297.20133911 200.52812195 294.56133911 200.52812195 291.84133911 200.52812195 C291.71178833 201.46059753 291.71178833 201.46059753 291.57962036 202.41191101 C290.84133911 204.52812195 290.84133911 204.52812195 289.19680786 205.58964539 C288.48137817 205.8529364 287.76594849 206.11622742 287.02883911 206.38749695 C286.21390991 206.69445496 285.39898071 207.00141296 284.55935669 207.31767273 C283.66241089 207.63462097 282.76546509 207.95156921 281.84133911 208.27812195 C280.9050769 208.61956238 279.9688147 208.96100281 279.00418091 209.31278992 C275.95803609 210.40939201 272.90223432 211.47343506 269.84133911 212.52812195 C268.84312134 212.8745575 267.84490356 213.22099304 266.81643677 213.57792664 C246.91802744 220.40925241 226.72727006 225.38475683 205.96633911 228.77812195 C205.0420813 228.92926453 204.11782349 229.0804071 203.16555786 229.23612976 C200.06219282 229.71282557 196.95557434 230.12832894 193.84133911 230.52812195 C193.2012088 230.61532501 192.56107849 230.70252808 191.90155029 230.79237366 C176.23612251 232.87403107 160.53468728 232.87028328 144.76296997 232.84379578 C141.78592765 232.83917895 138.80929532 232.84604688 135.83230591 232.86430359 C116.63051063 232.98085874 97.89305013 232.2620904 78.84133911 229.52812195 C78.10382416 229.42343597 77.3663092 229.31875 76.60644531 229.21089172 C72.83134076 228.66037652 69.08555689 228.00811676 65.34133911 227.27812195 C64.24571655 227.06832703 63.15009399 226.8585321 62.02127075 226.64237976 C47.15872966 223.70651687 32.26260098 220.33265818 18.03274536 215.0789032 C16.91005249 214.66608093 15.78735962 214.25325867 14.63064575 213.82792664 C12.53608476 213.04003715 10.45157824 212.22447005 8.3821106 211.37284851 C1.73968509 208.8437633 -4.04797395 208.30133568 -11.07077026 208.42045593 C-11.94723206 208.42822807 -12.82369385 208.43600021 -13.72671509 208.44400787 C-15.87078577 208.46414621 -18.0147509 208.49503702 -20.15866089 208.52812195 C-20.25207406 182.81578872 -20.32262537 157.10348089 -20.36590958 131.39101219 C-20.38654076 119.45244553 -20.41467213 107.51398425 -20.4604187 95.57548523 C-20.50026927 85.17071546 -20.52608965 74.76602201 -20.53501487 64.36117804 C-20.5402326 58.85112093 -20.55250796 53.34128218 -20.58158112 47.83129501 C-20.60872194 42.64553325 -20.6171085 37.46007989 -20.61109161 32.27425385 C-20.61219244 30.37071431 -20.62015418 28.46716451 -20.63548279 26.56368637 C-20.65538992 23.96424357 -20.65059764 21.36596458 -20.63967896 18.76649475 C-20.65133032 18.01356404 -20.66298169 17.26063332 -20.67498612 16.48488653 C-20.6165458 11.33619717 -19.50073716 8.42627399 -16.15866089 4.52812195 C-11.02712223 -0.06753381 -6.55495544 -0.04745756 0 0 Z " fill="#F1F1F1" transform="translate(116.15866088867188,7.4718780517578125)"/>
<path d="M0 0 C15.33797883 12.76840379 25.89757645 32.69712691 27.80908203 52.57519531 C29.33805081 74.95180242 23.23582979 95.97409009 8.57421875 113.1328125 C7.81109375 114.1434375 7.04796875 115.1540625 6.26171875 116.1953125 C-7.10281107 130.8030544 -27.46040329 140.54907453 -47.3359375 141.46875 C-68.9029647 141.85101886 -87.91021228 136.51066691 -104.42578125 122.1328125 C-105.30556641 121.46572266 -105.30556641 121.46572266 -106.203125 120.78515625 C-121.29144448 109.04979666 -128.89067898 90.0054125 -132.01171875 71.6953125 C-134.49587533 50.32219171 -129.73865816 29.59775054 -116.37890625 12.515625 C-115.734375 11.72929688 -115.08984375 10.94296875 -114.42578125 10.1328125 C-113.61367187 9.07707031 -113.61367187 9.07707031 -112.78515625 8 C-84.47839429 -27.03992378 -33.38221648 -25.69516824 0 0 Z " fill="#66CA6C" transform="translate(308.42578125,74.8671875)"/>
<path d="M0 0 C3.15369122 1.42069802 6.29635626 2.86429577 9.4375 4.3125 C10.33533203 4.71662109 11.23316406 5.12074219 12.15820312 5.53710938 C13.01220703 5.93349609 13.86621094 6.32988281 14.74609375 6.73828125 C15.53685303 7.09962158 16.3276123 7.46096191 17.14233398 7.83325195 C19 9 19 9 20 12 C18.86826742 14.33532119 17.68229439 16.51661051 16.375 18.75 C10.3629118 29.56780345 4.97546922 41.31803359 7 54 C8.3295945 58.31727154 10.65563648 61.04357954 14.5 63.375 C24.72239614 68.12111249 36.13281875 66.6743723 46.6171875 63.3203125 C61.03478631 57.69312035 73.43242929 46.85135607 82 34 C85.41939472 35.27658906 88.39484503 36.74913229 91.45703125 38.73046875 C92.30998779 39.27848145 93.16294434 39.82649414 94.04174805 40.39111328 C94.95609619 40.9839209 95.87044434 41.57672852 96.8125 42.1875 C98.79368908 43.46054124 100.77548127 44.73264425 102.7578125 46.00390625 C103.78422852 46.66277832 104.81064453 47.32165039 105.86816406 48.00048828 C110.95140075 51.24586624 116.0688908 54.435811 121.1875 57.625 C128.30445804 62.06336801 135.41310255 66.51377801 142.5 71 C149.65058175 75.52591746 156.82129728 80.01882809 164 84.5 C172.73575399 89.95450275 181.46271617 95.42207291 190.16015625 100.9375 C193.76347182 103.2223451 197.37807116 105.48852042 200.99609375 107.75 C203.01830939 109.02070568 205.04044614 110.29153691 207.0625 111.5625 C208.02172363 112.15877197 208.98094727 112.75504395 209.96923828 113.36938477 C210.85724121 113.92940186 211.74524414 114.48941895 212.66015625 115.06640625 C213.45043213 115.56084229 214.24070801 116.05527832 215.05493164 116.56469727 C217 118 217 118 219 121 C219.22230851 125.09047666 218.89142649 128.83428843 216.375 132.125 C212.92221671 133.39707806 210.58645445 132.75601353 207 132 C204.48694131 130.76664867 202.20820714 129.52771908 199.84375 128.0625 C199.1789563 127.66353516 198.5141626 127.26457031 197.82922363 126.85351562 C195.71267511 125.57989738 193.60633104 124.2904304 191.5 123 C190.11784071 122.16428332 188.73503229 121.3296392 187.3515625 120.49609375 C184.60563787 118.83940532 181.86368364 117.17644258 179.125 115.5078125 C174.91696555 112.94561387 170.69466832 110.40756734 166.46875 107.875 C165.81708862 107.48441406 165.16542725 107.09382813 164.49401855 106.69140625 C162.99619925 105.79395886 161.49813021 104.89692828 160 104 C157.11387481 107.52549454 154.7500769 110.76297172 153 115 C154.42856724 119.28570173 157.58793719 120.24468051 161.375 122.25 C162.83329568 123.04586458 164.2903219 123.84405949 165.74609375 124.64453125 C166.46651855 125.03979004 167.18694336 125.43504883 167.92919922 125.84228516 C180.40991654 132.81983309 180.40991654 132.81983309 182 136 C182.35519903 139.83614957 182.54724594 142.14629634 180.4375 145.4375 C177.19188543 147.51802216 174.69951477 147.74310636 171 147 C167.22358735 145.2882317 163.76164968 143.13362616 160.25 140.9375 C158.78771973 140.04865112 158.78771973 140.04865112 157.29589844 139.1418457 C151.41212816 135.55129013 145.56506955 131.89576407 139.828125 128.07421875 C138.0660054 126.83112749 138.0660054 126.83112749 136 127 C134.40029553 129.14176336 134.40029553 129.14176336 132.875 131.8125 C132.33617187 132.70582031 131.79734375 133.59914063 131.2421875 134.51953125 C129.77611163 136.98471897 129.77611163 136.98471897 130 140 C131.85199581 141.51624319 131.85199581 141.51624319 134.3046875 142.84765625 C135.19800781 143.37037109 136.09132813 143.89308594 137.01171875 144.43164062 C138.42904297 145.23891602 138.42904297 145.23891602 139.875 146.0625 C141.72797999 147.13427178 143.57960889 148.20838388 145.4296875 149.28515625 C146.25710449 149.75832275 147.08452148 150.23148926 147.93701172 150.71899414 C150 152 150 152 152 154 C152.67039106 160.9273743 152.67039106 160.9273743 150.4375 164.5 C147.04317264 166.58881684 144.95805157 166.36161601 141 166 C138.28920717 164.92369551 135.89027899 163.45800205 133.421875 161.9140625 C132.72862122 161.49708099 132.03536743 161.08009949 131.32110596 160.65048218 C129.12171428 159.32290384 126.93604817 157.97441245 124.75 156.625 C123.26647148 155.72516545 121.78210358 154.82671322 120.296875 153.9296875 C110.43481564 147.95654376 110.43481564 147.95654376 106 145 C105.7525 145.680625 105.505 146.36125 105.25 147.0625 C104.2434992 149.42777689 103.1740737 151.48552402 101.875 153.6875 C99.83580059 156.65569437 99.83580059 156.65569437 100 159 C101.53395415 160.14776487 101.53395415 160.14776487 103.54296875 161.20703125 C104.28740234 161.62919922 105.03183594 162.05136719 105.79882812 162.48632812 C107.37137354 163.35939299 108.94428098 164.23180614 110.51757812 165.10351562 C114.99053589 167.64139123 118.72834863 169.99043126 122 174 C122.1526226 178.3497442 121.71471806 180.2257221 118.75 183.4375 C115.66626025 185.18962486 114.47364063 185.34053423 111 185 C107.02651364 183.33281084 103.42834949 181.04645904 99.75 178.8125 C98.73164063 178.25369141 97.71328125 177.69488281 96.6640625 177.11914062 C89.42922466 172.70588954 89.42922466 172.70588954 88.19091797 167.78442383 C87.9765625 164.3203125 87.9765625 164.3203125 88.07275391 161.05126953 C87.94994682 155.90079 85.63771759 152.50377062 82 149 C77.34507499 145.81823767 72.55877591 143.14829174 67 142 C66.97421875 141.41992188 66.9484375 140.83984375 66.921875 140.2421875 C66.39127766 132.9344151 64.08716937 128.74295377 58.625 123.8125 C54.04735909 120.10771435 50.32306147 117.98744298 44.375 117.8125 C42.0234375 117.62109375 42.0234375 117.62109375 40 117 C38.66752262 115.15537995 37.97787782 113.31857831 37.1484375 111.203125 C34.53225089 106.18431803 29.2471675 102.95381148 24.15625 100.79296875 C19.46516887 99.61439267 15.0347537 100.11392423 10.2421875 100.41796875 C7 100 7 100 4.81640625 97.65625 C4.21699219 96.7796875 3.61757812 95.903125 3 95 C-4.12756198 89.51617001 -10.96895717 86.88658376 -20 88 C-25.37686246 89.70037531 -28.83987224 92.25980836 -32 97 C-36.10732007 96.41181582 -39.01411109 94.10667533 -42.25 91.6875 C-42.80429688 91.29626953 -43.35859375 90.90503906 -43.9296875 90.50195312 C-45.515625 89.32421875 -45.515625 89.32421875 -48 87 C-48 82.76143314 -47.46158634 81.55319765 -45.4296875 77.984375 C-44.59062866 76.49756226 -44.59062866 76.49756226 -43.73461914 74.98071289 C-43.12094482 73.91457764 -42.50727051 72.84844238 -41.875 71.75 C-40.92645142 70.08022095 -40.92645142 70.08022095 -39.95874023 68.37670898 C-34.57708989 58.93031567 -29.10211943 49.53769998 -23.6015625 40.16015625 C-21.03625551 35.78266643 -18.49118528 31.39392061 -15.9609375 26.99609375 C-15.62390305 26.41046158 -15.28686859 25.82482941 -14.93962097 25.22145081 C-13.31130683 22.39106699 -11.68497283 19.55956396 -10.06079102 16.72680664 C-6.81302553 11.07822889 -3.49608904 5.49857483 0 0 Z " fill="#FDCF97" transform="translate(159,303)"/>
<path d="M0 0 C1.02037011 -0.00835666 2.04074023 -0.01671332 3.09203064 -0.02532321 C6.50980323 -0.04829536 9.92692072 -0.04268698 13.34475708 -0.0370636 C15.79569216 -0.04739536 18.24662073 -0.05938393 20.69754028 -0.07290649 C26.66320363 -0.10075346 32.62860959 -0.10955678 38.59431516 -0.10833099 C43.44443055 -0.10749804 48.29449253 -0.11336505 53.1445961 -0.12395668 C68.40144977 -0.15662767 83.65813895 -0.16562094 98.91502251 -0.15686695 C110.94361203 -0.15088557 122.97179392 -0.1812798 135.0002818 -0.22848966 C147.35835948 -0.27661387 159.71624096 -0.29866273 172.07441437 -0.29317886 C179.00973675 -0.29060414 185.94466866 -0.29855665 192.87990952 -0.3342495 C199.40211322 -0.36755282 205.92359921 -0.36442295 212.44587708 -0.33680534 C214.83879049 -0.33234455 217.23176059 -0.33982339 219.62459183 -0.36014938 C222.89364261 -0.38603602 226.15974218 -0.36869321 229.42871094 -0.34057617 C230.37405256 -0.35823758 231.31939419 -0.37589899 232.29338253 -0.3940956 C238.57900777 -0.27733315 241.71193863 1.33222725 246.17503852 5.75744331 C246.72491771 6.34176726 247.27479691 6.92609121 247.84133911 7.52812195 C248.80259008 8.45229651 249.76620905 9.37401803 250.73280334 10.29260254 C251.61803177 11.17703537 252.50326019 12.0614682 253.41531372 12.97270203 C253.91230774 13.46794373 254.40930176 13.96318542 254.9213562 14.47343445 C256.53128918 16.07903542 258.13761892 17.68818282 259.74368286 19.2976532 C260.87314023 20.42643568 262.0027459 21.55506979 263.13249207 22.68356323 C265.48311199 25.03271851 267.83193764 27.3836489 270.17947388 29.73588562 C273.19118744 32.75333539 276.20742209 35.76621994 279.22498226 38.77782154 C281.55070978 41.09994366 283.87406052 43.424432 286.1966877 45.74965477 C287.30875795 46.86239231 288.42157209 47.97438692 289.53513908 49.0856266 C291.08356321 50.63152031 292.62876152 52.18056686 294.17312622 53.73051453 C295.05278549 54.61096939 295.93244476 55.49142426 296.83876038 56.39855957 C299.96918293 59.72748241 299.96559985 61.60461724 299.96159363 66.08357239 C299.96365562 67.85466873 299.96365562 67.85466873 299.96575928 69.6615448 C299.962164 70.96345764 299.95856873 72.26537048 299.9548645 73.60673523 C299.95458254 74.98632302 299.95474053 76.36591096 299.95530701 77.74549866 C299.95559465 81.49733976 299.94970331 85.24914907 299.94273305 89.00098276 C299.93649395 92.91944119 299.93589527 96.83790029 299.93470764 100.75636292 C299.93159597 108.17949011 299.92338478 115.60260262 299.91335815 123.02572334 C299.90219193 131.47542555 299.89668528 139.92512846 299.89166272 148.37483621 C299.88120204 165.75927352 299.86340501 183.14369563 299.84133911 200.52812195 C294.56133911 200.52812195 289.28133911 200.52812195 283.84133911 200.52812195 C283.84133911 158.28812195 283.84133911 116.04812195 283.84133911 72.52812195 C268.99133911 72.52812195 254.14133911 72.52812195 238.84133911 72.52812195 C229.84133911 66.52812195 229.84133911 66.52812195 227.84133911 60.52812195 C227.84133911 46.00812195 227.84133911 31.48812195 227.84133911 16.52812195 C151.28133911 16.52812195 74.72133911 16.52812195 -4.15866089 16.52812195 C-4.15866089 79.88812195 -4.15866089 143.24812195 -4.15866089 208.52812195 C-9.43866089 208.52812195 -14.71866089 208.52812195 -20.15866089 208.52812195 C-20.25122946 182.81578301 -20.32262536 157.10348417 -20.36590958 131.39101219 C-20.38654076 119.45244553 -20.41467213 107.51398425 -20.4604187 95.57548523 C-20.50026927 85.17071546 -20.52608965 74.76602201 -20.53501487 64.36117804 C-20.5402326 58.85112093 -20.55250796 53.34128218 -20.58158112 47.83129501 C-20.60872194 42.64553325 -20.6171085 37.46007989 -20.61109161 32.27425385 C-20.61219244 30.37071431 -20.62015418 28.46716451 -20.63548279 26.56368637 C-20.65538992 23.96424357 -20.65059764 21.36596458 -20.63967896 18.76649475 C-20.65133032 18.01356404 -20.66298169 17.26063332 -20.67498612 16.48488653 C-20.6165458 11.33619717 -19.50073716 8.42627399 -16.15866089 4.52812195 C-11.02712223 -0.06753381 -6.55495544 -0.04745756 0 0 Z " fill="#000000" transform="translate(116.15866088867188,7.4718780517578125)"/>
<path d="M0 0 C1.42602539 -0.01160156 1.42602539 -0.01160156 2.88085938 -0.0234375 C13.45077345 0.00570079 21.92665674 3.24566955 31.6875 7 C43.65344088 11.51379031 55.62642384 15.27911331 68.0625 18.25 C69.11308594 18.51554687 70.16367187 18.78109375 71.24609375 19.0546875 C76.11749217 20.08694319 80.94181461 20.32774272 85.91064453 20.31103516 C87.50525513 20.30801392 87.50525513 20.30801392 89.13208008 20.30493164 C90.22544678 20.29969482 91.31881348 20.29445801 92.4453125 20.2890625 C93.56236572 20.28624268 94.67941895 20.28342285 95.83032227 20.28051758 C98.57440325 20.27318438 101.3184406 20.26292361 104.0625 20.25 C107.85556167 27.81274569 111.64633702 35.37663142 115.43435764 42.94190311 C117.19417247 46.45635872 118.95471386 49.97044602 120.71704102 53.48364258 C122.42414629 56.88682623 124.12917949 60.29104116 125.83289909 63.69592094 C126.47671764 64.98173885 127.12122848 66.2672104 127.76651192 67.55229378 C131.25121957 74.49332518 134.68255439 81.45905473 138.01538086 88.47436523 C138.47429262 89.42533506 138.47429262 89.42533506 138.94247532 90.3955164 C140.26939352 93.21633241 141.0625 95.09009436 141.0625 98.25 C139.69921875 99.46875 139.69921875 99.46875 137.75 100.75 C128.5145954 107.36543166 121.1348831 115.69584093 115.0625 125.25 C105.63097316 120.41766715 96.79239711 114.71788547 87.86474609 109.02832031 C82.65515543 105.7222863 77.42054991 102.45622397 72.1875 99.1875 C71.15923096 98.54433838 70.13096191 97.90117676 69.0715332 97.23852539 C68.10175537 96.63258545 67.13197754 96.02664551 66.1328125 95.40234375 C65.27445801 94.86601318 64.41610352 94.32968262 63.53173828 93.77709961 C61.79457242 92.70274995 60.02920084 91.67334778 58.24560547 90.67797852 C57.52518066 90.20674561 56.80475586 89.7355127 56.0625 89.25 C56.0625 88.59 56.0625 87.93 56.0625 87.25 C57.71484375 86.05859375 57.71484375 86.05859375 60 84.6875 C67.03214025 80.15493567 72.96334779 74.58464657 77.0625 67.25 C76.19625 67.0025 75.33 66.755 74.4375 66.5 C70.87947746 65.18221387 68.1398845 63.44813178 65.0625 61.25 C62.13880962 62.33284829 60.98278017 63.35463227 59.0625 65.875 C54.86950325 71.18176151 48.11458337 75.94063494 41.68481445 78.01831055 C38.28151443 78.31900245 37.0113958 77.44520654 34.16796875 75.59375 C33.2236499 74.99022705 32.27933105 74.3867041 31.30639648 73.76489258 C30.29778564 73.09997803 29.2891748 72.43506348 28.25 71.75 C26.09920127 70.3681114 23.94815203 68.98661264 21.796875 67.60546875 C20.69021484 66.88794434 19.58355469 66.17041992 18.44335938 65.43115234 C13.00297008 61.9103804 7.49818367 58.49197979 2 55.0625 C1.00830811 54.43988281 0.01661621 53.81726563 -1.00512695 53.17578125 C-9.76387833 47.32631305 -9.76387833 47.32631305 -19.375 43.3125 C-25.3928354 44.89614089 -27.62052472 50.26792957 -30.9375 55.25 C-38.63524271 65.12701233 -47.14448035 72.79485924 -58.9375 77.25 C-59.96875 77.683125 -61 78.11625 -62.0625 78.5625 C-66.00159763 79.50445813 -69.91055118 79.77158575 -73.9375 79.25 C-74.9275 78.59 -75.9175 77.93 -76.9375 77.25 C-74.58852184 52.68022846 -56.77686462 30.18891233 -38.9375 14.25 C-27.43641618 4.77256729 -14.86101774 -0.12041338 0 0 Z " fill="#FDC67F" transform="translate(257.9375,274.75)"/>
<path d="M0 0 C13.20670426 26.22469984 13.20670426 26.22469984 19.0625 38.625 C24.80743848 50.77325559 30.86482699 62.76379891 36.89196777 74.77368164 C43.75056489 88.44478396 50.50248479 102.15283644 57 116 C56.01 116.495 56.01 116.495 55 117 C54.34 115.02 53.68 113.04 53 111 C52.07477539 111.43755615 51.14955078 111.8751123 50.19628906 112.32592773 C19.31108494 126.92550464 19.31108494 126.92550464 7.0625 132.5 C6.26682617 132.86665771 5.47115234 133.23331543 4.65136719 133.61108398 C-0.64520089 136 -0.64520089 136 -4 136 C-4.27299927 135.4237085 -4.54599854 134.84741699 -4.82727051 134.25366211 C-11.86939593 119.40833776 -19.11019559 104.6749303 -26.5 90 C-36.99738841 69.15392144 -47.09906841 48.13522645 -57 27 C-45.77791525 21.36238366 -34.5244493 15.79104113 -23.24023438 10.27880859 C-21.47086342 9.41361394 -19.70233076 8.54670315 -17.93457031 7.67822266 C-15.34622591 6.40671381 -12.75545761 5.14027737 -10.1640625 3.875 C-9.37150055 3.48449463 -8.5789386 3.09398926 -7.76235962 2.69165039 C-2.22822306 0 -2.22822306 0 0 0 Z " fill="#4D99FD" transform="translate(425,245)"/>
<path d="M0 0 C0.72058594 0.41507813 1.44117188 0.83015625 2.18359375 1.2578125 C10.25945356 5.89197935 18.37278231 10.45650406 26.5 15 C35.36053816 19.95345648 44.20377537 24.93312284 53 30 C51.58825289 33.76723044 49.86458812 37.17394666 47.8671875 40.6640625 C47.23417725 41.77217285 46.60116699 42.8802832 45.94897461 44.02197266 C45.25785491 45.22309985 44.5665243 46.4241057 43.875 47.625 C43.1556352 48.87936865 42.4363163 50.13376362 41.71704102 51.38818359 C36.21275126 60.96949674 30.59654451 70.48197727 24.94189453 79.9753418 C20.3108237 87.75828698 15.75960929 95.583621 11.25 103.4375 C4.96912732 114.37485321 -1.4580418 125.21695891 -8 136 C-11.85455038 135.41782465 -14.59321905 134.29397955 -17.9296875 132.296875 C-18.87972656 131.73436035 -19.82976562 131.1718457 -20.80859375 130.59228516 C-21.82050781 129.98433105 -22.83242187 129.37637695 -23.875 128.75 C-26.01738833 127.48035094 -28.16064193 126.21216098 -30.3046875 124.9453125 C-31.40393555 124.2946582 -32.50318359 123.64400391 -33.63574219 122.97363281 C-39.05496844 119.79445828 -44.52484325 116.70655598 -50 113.625 C-51.00272949 113.06006836 -52.00545898 112.49513672 -53.03857422 111.91308594 C-55.35824157 110.60727777 -57.67864915 109.30281231 -60 108 C-60 103.68900712 -59.36726232 102.38777946 -57.2890625 98.73828125 C-56.70906494 97.710979 -56.12906738 96.68367676 -55.53149414 95.62524414 C-54.90235107 94.53203857 -54.27320801 93.43883301 -53.625 92.3125 C-52.98232178 91.18126709 -52.33964355 90.05003418 -51.67749023 88.88452148 C-47.4098803 81.39341899 -43.06970074 73.9464655 -38.671875 66.53125 C-35.33998036 60.9013205 -32.07859236 55.23076948 -28.8125 49.5625 C-28.18102051 48.46687744 -27.54954102 47.37125488 -26.89892578 46.24243164 C-24.25083817 41.64647509 -21.60421826 37.04967426 -18.95800781 32.45263672 C-17.60421928 30.10089062 -16.24996306 27.74941488 -14.89526367 25.39819336 C-13.62899006 23.20025566 -12.3634762 21.00188 -11.09887695 18.80297852 C-7.46446436 12.49509101 -3.76945152 6.22816389 0 0 Z " fill="#FE7374" transform="translate(98,254)"/>
<path d="M0 0 C15.33797883 12.76840379 25.89757645 32.69712691 27.80908203 52.57519531 C29.33805081 74.95180242 23.23582979 95.97409009 8.57421875 113.1328125 C7.81109375 114.1434375 7.04796875 115.1540625 6.26171875 116.1953125 C-7.10281107 130.8030544 -27.46040329 140.54907453 -47.3359375 141.46875 C-68.9029647 141.85101886 -87.91021228 136.51066691 -104.42578125 122.1328125 C-105.30556641 121.46572266 -105.30556641 121.46572266 -106.203125 120.78515625 C-121.29144448 109.04979666 -128.89067898 90.0054125 -132.01171875 71.6953125 C-134.49587533 50.32219171 -129.73865816 29.59775054 -116.37890625 12.515625 C-115.734375 11.72929688 -115.08984375 10.94296875 -114.42578125 10.1328125 C-113.61367187 9.07707031 -113.61367187 9.07707031 -112.78515625 8 C-84.47839429 -27.03992378 -33.38221648 -25.69516824 0 0 Z M-101.42578125 19.1328125 C-113.25452882 33.26219721 -118.00864616 50.45341953 -116.73193359 68.65283203 C-114.66099402 85.42843347 -105.55957435 100.56037419 -92.7890625 111.36328125 C-86.73369704 115.96743216 -80.53535827 119.43994545 -73.42578125 122.1328125 C-72.59949219 122.4525 -71.77320313 122.7721875 -70.921875 123.1015625 C-58.72387512 127.12410902 -44.44631194 126.3021714 -32.42578125 122.1328125 C-31.43191406 121.7925 -30.43804687 121.4521875 -29.4140625 121.1015625 C-13.03485361 114.89382136 -1.13233245 103.17240284 6.171875 87.4296875 C9.02204901 80.72899986 11.18055665 74.46187451 11.57421875 67.1328125 C11.63867188 65.95589844 11.703125 64.77898437 11.76953125 63.56640625 C12.41743776 46.03418517 6.61471678 31.06401449 -4.73828125 17.7578125 C-12.77579905 9.37622288 -21.54741894 4.04014264 -32.42578125 0.1328125 C-33.55306641 -0.34671875 -33.55306641 -0.34671875 -34.703125 -0.8359375 C-58.53661996 -9.88345052 -85.01168925 1.70639765 -101.42578125 19.1328125 Z " fill="#020302" transform="translate(308.42578125,74.8671875)"/>
<path d="M0 0 C3.74559625 1.38540966 7.0079319 3.10431959 10.40234375 5.203125 C11.44600098 5.84644775 12.4896582 6.48977051 13.56494141 7.15258789 C15.23435791 8.19080688 15.23435791 8.19080688 16.9375 9.25 C18.10845381 9.97470154 19.2795165 10.69922718 20.45068359 11.42358398 C28.59399215 16.46845784 36.68970584 21.58669158 44.76000977 26.74755859 C55.45330875 33.58350227 66.22730083 40.29011495 77 47 C74.47887873 49.57391104 72.2620013 51.68971813 69.0625 53.375 C68.41410156 53.73335938 67.76570313 54.09171875 67.09765625 54.4609375 C63.42016624 55.4059908 60.52319826 53.29689311 57.34716797 51.49462891 C56.40502441 50.91116699 55.46288086 50.32770508 54.4921875 49.7265625 C53.43169189 49.07204102 52.37119629 48.41751953 51.27856445 47.74316406 C50.1439698 47.03722696 49.00944983 46.33116981 47.875 45.625 C46.70873998 44.90305773 45.542316 44.18138026 44.37573242 43.45996094 C36.56959725 38.62613458 28.79140659 33.74755216 21.05224609 28.80712891 C13.2044844 23.58547429 13.2044844 23.58547429 4.5625 20.0625 C-1.4553354 21.64614089 -3.68302472 27.01792957 -7 32 C-14.69774271 41.87701233 -23.20698035 49.54485924 -35 54 C-36.03125 54.433125 -37.0625 54.86625 -38.125 55.3125 C-42.06409763 56.25445813 -45.97305118 56.52158575 -50 56 C-50.99 55.34 -51.98 54.68 -53 54 C-52.55355616 46.41045469 -49.88499438 39.98360263 -47 33 C-46.67 33.66 -46.34 34.32 -46 35 C-25.03830053 29.29273678 -11.40257293 18.72112976 0 0 Z " fill="#E3B171" transform="translate(234,298)"/>
<path d="M0 0 C0.47123291 0.40557129 0.94246582 0.81114258 1.42797852 1.22900391 C2.36275024 2.03217041 2.36275024 2.03217041 3.31640625 2.8515625 C3.93201416 3.38088379 4.54762207 3.91020508 5.18188477 4.45556641 C7.4159457 6.35333322 9.69760111 8.18598875 12 10 C10.4542374 13.67963772 8.2246741 16.02301787 5.41430664 18.82861328 C4.7188398 19.52692764 4.7188398 19.52692764 4.00932312 20.23934937 C2.48110481 21.77126123 0.94582451 23.29587181 -0.58984375 24.8203125 C-1.65633504 25.88561109 -2.72245628 26.95128026 -3.78822327 28.01730347 C-6.02036739 30.24788518 -8.25582582 32.4750721 -10.49389648 34.69970703 C-13.36175324 37.5505641 -16.22297309 40.40796977 -19.08196163 43.26771736 C-21.28211745 45.4676012 -23.4848704 47.66486862 -25.68850899 49.86126328 C-26.74445857 50.91403236 -27.79980505 51.96740671 -28.85453606 53.02139664 C-30.32883226 54.49352332 -31.80637566 55.96230943 -33.28491211 57.43017578 C-34.54494301 58.68448898 -34.54494301 58.68448898 -35.83042908 59.96414185 C-38.51955368 62.48753308 -40.43812107 63.87386391 -44.0625 64.6875 C-50.33591807 63.59214129 -53.61610585 59.4085574 -58 55 C-59.10125184 53.93192839 -60.20417873 52.86558173 -61.30859375 51.80078125 C-62.41533477 50.72265866 -63.5208221 49.6432475 -64.625 48.5625 C-65.42490356 47.78277832 -65.42490356 47.78277832 -66.2409668 46.98730469 C-67.53353909 45.69664417 -68.77212144 44.35235422 -70 43 C-70 41 -70 41 -68.390625 39.37890625 C-67.68421875 38.77949219 -66.9778125 38.18007812 -66.25 37.5625 C-65.55390625 36.96566406 -64.8578125 36.36882812 -64.140625 35.75390625 C-62.13831164 34.11332468 -60.07086713 32.55315035 -58 31 C-53.71 35.29 -49.42 39.58 -45 44 C-39.36431339 39.31179066 -34.16896034 34.30014592 -29.00390625 29.1015625 C-28.17036118 28.26660248 -27.3368161 27.43164246 -26.47801208 26.57138062 C-23.83713476 23.92494152 -21.19977104 21.27503241 -18.5625 18.625 C-16.76390351 16.82138357 -14.96507773 15.01799575 -13.16601562 13.21484375 C-8.77468752 8.81253739 -4.38623271 4.40738286 0 0 Z " fill="#030603" transform="translate(285,104)"/>
<path d="M0 0 C0.56203125 0.36609375 1.1240625 0.7321875 1.703125 1.109375 C7.99745147 5.16400248 14.38162835 9.04167711 20.8125 12.875 C28.98755443 17.7505951 37.04011943 22.78127036 45 28 C45.4125 27.39414062 45.825 26.78828125 46.25 26.1640625 C52.32872823 17.34447913 58.9746006 9.07920931 66 1 C67.95220847 3.9283127 69.5335065 6.86314325 71.125 10 C71.66382813 11.051875 72.20265625 12.10375 72.7578125 13.1875 C74 16 74 16 74 19 C72.63671875 20.21875 72.63671875 20.21875 70.6875 21.5 C61.4520954 28.11543166 54.0723831 36.44584093 48 46 C38.56847316 41.16766715 29.72989711 35.46788547 20.80224609 29.77832031 C15.59265543 26.4722863 10.35804991 23.20622397 5.125 19.9375 C4.09673096 19.29433838 3.06846191 18.65117676 2.0090332 17.98852539 C1.03925537 17.38258545 0.06947754 16.77664551 -0.9296875 16.15234375 C-1.78804199 15.61601318 -2.64639648 15.07968262 -3.53076172 14.52709961 C-5.26792758 13.45274995 -7.03329916 12.42334778 -8.81689453 11.42797852 C-9.53731934 10.95674561 -10.25774414 10.4855127 -11 10 C-11 9.34 -11 8.68 -11 8 C-9.1015625 6.5625 -9.1015625 6.5625 -6.625 5 C-4.15047838 3.42887516 -2.07616959 2.07616959 0 0 Z " fill="#E2B071" transform="translate(325,354)"/>
<path d="M0 0 C3.79712133 1.32457721 5.97660675 2.96842644 8.6875 5.9375 C9.44350627 12.23755223 5.65651933 16.13622849 1.953125 20.9453125 C-1.10825436 24.98844455 -3.81492076 29.23640784 -6.55078125 33.50390625 C-8.3125 35.9375 -8.3125 35.9375 -11.3125 37.9375 C-14.87600495 37.84118906 -16.63831915 36.73235461 -19.6875 34.8125 C-22.3125 31.9375 -22.3125 31.9375 -22.6875 28.8125 C-21.55844577 24.18637514 -18.43205682 20.63569249 -15.578125 16.9296875 C-12.51674564 12.88655545 -9.81007924 8.63859216 -7.07421875 4.37109375 C-5.02910919 1.5460311 -3.63081985 -0.09813027 0 0 Z " fill="#F8C27C" transform="translate(175.3125,417.0625)"/>
<path d="M0 0 C4.07739054 1.10429327 6.15842401 2.70029772 9 5.8125 C9.94077618 10.22742823 8.62243656 12.82512065 6.3671875 16.51953125 C5.21798289 18.23142246 4.0533522 19.93303994 2.875 21.625 C2.30523437 22.49576172 1.73546875 23.36652344 1.1484375 24.26367188 C-3.10585594 30.46623833 -3.10585594 30.46623833 -7.1875 32.046875 C-10.32708289 31.78524309 -11.53771777 31.32239024 -13.875 29.25 C-14.47054687 28.75371094 -15.06609375 28.25742187 -15.6796875 27.74609375 C-17.6008574 24.93254612 -17.45187571 23.15554347 -17 19.8125 C-15.4609375 17.1015625 -15.4609375 17.1015625 -13.375 14.4375 C-12.6428125 13.49519531 -11.910625 12.55289062 -11.15625 11.58203125 C-10.4446875 10.66808594 -9.733125 9.75414062 -9 8.8125 C-8.4534375 7.99136719 -7.906875 7.17023438 -7.34375 6.32421875 C-3.80908927 1.03162834 -3.80908927 1.03162834 0 0 Z " fill="#F9C27D" transform="translate(144,405.1875)"/>
<path d="M0 0 C4.43179519 0.59658781 6.26145356 2.16433009 9.25 5.4375 C10.02171376 9.58774014 9.14912309 11.97764038 6.94921875 15.41796875 C5.95957991 16.83041724 4.95516489 18.23260856 3.9375 19.625 C3.43798828 20.33591797 2.93847656 21.04683594 2.42382812 21.77929688 C-3.57766797 30.22908542 -3.57766797 30.22908542 -7.5625 30.9375 C-11.92400048 30.25334306 -13.79667074 28.67209872 -16.75 25.4375 C-17.62041894 21.12380613 -16.53352433 18.72892508 -14.1953125 15.203125 C-13.10288197 13.68747684 -11.99557753 12.18245813 -10.875 10.6875 C-10.31941406 9.92050781 -9.76382813 9.15351563 -9.19140625 8.36328125 C-3.49747102 0.55641584 -3.49747102 0.55641584 0 0 Z " fill="#FAC37D" transform="translate(200.75,435.5625)"/>
<path d="M0 0 C4.2845806 3.67249766 8.31480095 7.18728952 12.27734375 11.14453125 C13.20224609 12.06814453 14.12714844 12.99175781 15.08007812 13.94335938 C15.54873291 14.41410889 16.0173877 14.8848584 16.50024414 15.36987305 C17.95539571 16.83046259 19.41591857 18.28553203 20.87695312 19.74023438 C21.79283203 20.65740234 22.70871094 21.57457031 23.65234375 22.51953125 C24.48757568 23.35589111 25.32280762 24.19225098 26.18334961 25.05395508 C28 27 28 27 28 28 C18.76 28 9.52 28 0 28 C0 18.76 0 9.52 0 0 Z " fill="#D8D8D8" transform="translate(360,36)"/>
<path d="M0 0 C3.93670361 0.14855485 6.51118084 0.71918899 9.9375 2.6875 C12 5 12 5 12.37109375 7.78515625 C11.91034225 11.7767192 10.57401607 13.5950398 8.125 16.75 C7.40570313 17.69359375 6.68640625 18.6371875 5.9453125 19.609375 C2.42794983 23.93191707 2.42794983 23.93191707 -0.75 24.4375 C-5.18179519 23.84091219 -7.01145356 22.27316991 -10 19 C-10.54673866 15.20437201 -10.24346686 13.42351909 -8.3203125 10.078125 C-7.59585938 9.14484375 -6.87140625 8.2115625 -6.125 7.25 C-5.40570313 6.30640625 -4.68640625 5.3628125 -3.9453125 4.390625 C-2 2 -2 2 0 0 Z " fill="#F9C27D" transform="translate(220,460)"/>
<path d="M0 0 C1.03290841 1.93108963 2.05098672 3.870118 3.0625 5.8125 C3.63097656 6.89144531 4.19945312 7.97039062 4.78515625 9.08203125 C6 12 6 12 5 15 C2.48738173 16.35652339 0.04517061 17.54887263 -2.5625 18.6875 C-3.27341797 19.00783203 -3.98433594 19.32816406 -4.71679688 19.65820312 C-6.47366662 20.44820496 -8.23631345 21.22533623 -10 22 C-11.03544174 20.09118566 -12.05290085 18.17260796 -13.0625 16.25 C-13.63097656 15.18265625 -14.19945312 14.1153125 -14.78515625 13.015625 C-16 10 -16 10 -16.05078125 7.8125 C-14.39542473 4.95716385 -12.06260088 4.14483207 -9.125 2.75 C-8.05507813 2.22921875 -6.98515625 1.7084375 -5.8828125 1.171875 C-3 0 -3 0 0 0 Z " fill="#020508" transform="translate(444,340)"/>
</svg>
