<?xml version="1.0" encoding="UTF-8"?>
<svg version="1.1" xmlns="http://www.w3.org/2000/svg" width="512" height="512">
<path d="M0 0 C1.51161131 -0.00761181 1.51161131 -0.00761181 3.05376023 -0.0153774 C4.71919309 -0.01612404 4.71919309 -0.01612404 6.41827106 -0.01688576 C8.18386914 -0.02345914 8.18386914 -0.02345914 9.98513585 -0.03016531 C13.2579719 -0.04123463 16.53078095 -0.04777922 19.80363142 -0.05234647 C23.33138186 -0.05830261 26.85911467 -0.06991241 30.38685322 -0.08063698 C38.909252 -0.10516046 47.43165662 -0.11978792 55.95407984 -0.13269705 C58.36108491 -0.13640897 60.7680894 -0.1403822 63.17509389 -0.14444971 C78.12153757 -0.16968589 93.06798216 -0.19173949 108.01444244 -0.20417786 C111.47655141 -0.20710756 114.93866034 -0.21006923 118.40076923 -0.21308327 C119.26126191 -0.21382932 120.1217546 -0.21457537 121.00832281 -0.21534403 C134.94785426 -0.22799772 148.88725816 -0.26122102 162.82672998 -0.3028851 C177.13734148 -0.34530795 191.44788769 -0.36887328 205.75856191 -0.37409842 C213.79380053 -0.37751211 221.82883981 -0.38926225 229.86401653 -0.42220116 C236.70720052 -0.45020768 243.5501443 -0.46119843 250.39338114 -0.4500057 C253.8841194 -0.4448205 257.37435468 -0.44769565 260.8650198 -0.47247124 C264.65255969 -0.49509078 268.43883083 -0.48689903 272.22637653 -0.47098732 C273.3255115 -0.48486941 274.42464647 -0.49875149 275.55708855 -0.51305425 C282.3029183 -0.4431895 286.98929432 0.61602816 292.13978291 5.13701439 C296.56179688 10.19465088 298.27109877 14.23698671 298.2533083 20.99736595 C298.25323277 21.95805992 298.25315723 22.91875389 298.25307941 23.9085598 C298.24791813 24.93785606 298.24275684 25.96715233 298.23743916 27.02763939 C298.23531673 28.61726494 298.23531673 28.61726494 298.23315144 30.23900414 C298.22755672 33.62170301 298.21500516 37.00433554 298.20228291 40.38701439 C298.19726722 42.68128427 298.19270444 44.97555518 298.18861103 47.26982689 C298.17758902 52.89224533 298.16085611 58.51462512 298.13978291 64.13701439 C298.91579853 64.11083031 299.69181416 64.08464622 300.49134541 64.05766869 C304.0406149 63.95310712 307.58955942 63.88849885 311.13978291 63.82451439 C312.36052509 63.78261986 313.58126728 63.74072533 314.83900166 63.69756126 C322.2899033 63.5968734 327.44617125 64.08908928 333.13978291 69.13701439 C338.37317407 74.50812637 339.38920426 80.0192027 339.3942585 87.35257435 C339.39746498 88.05976369 339.40067146 88.76695303 339.4039751 89.49557236 C339.41227646 91.86526653 339.40635039 94.23470805 339.40047932 96.60440636 C339.40349993 98.32051448 339.40738896 100.03662126 339.41207188 101.75272566 C339.4223721 106.46873314 339.42016491 111.18466476 339.41589129 115.90067852 C339.41342776 120.98665242 339.42243356 126.07260788 339.42992878 131.15857506 C339.44268794 141.12238409 339.44446797 151.08616618 339.44212852 161.049982 C339.44034665 169.14713207 339.44209218 177.24427395 339.44635296 185.34142303 C339.44694815 186.49313931 339.44754334 187.64485559 339.44815656 188.83147236 C339.44936829 191.17105504 339.45058243 193.51063771 339.45179894 195.85022039 C339.46267906 217.79803366 339.46050968 239.74583158 339.45441409 261.69364572 C339.44924387 281.78005237 339.46050234 301.86641054 339.47951231 321.9528076 C339.49887541 342.57011219 339.50714944 363.18739384 339.50338906 383.80470759 C339.50147478 395.38275184 339.50398673 406.96075481 339.5181036 418.53879166 C339.52999886 428.39462206 339.53144311 438.25038579 339.51931343 448.10621708 C339.51341186 453.13590615 339.51236061 458.16547314 339.52431583 463.19515419 C339.5351309 467.79859491 339.53212362 472.40181097 339.51805415 477.00524098 C339.51539513 478.67139307 339.51781137 480.33756252 339.52579001 482.00369763 C339.53588102 484.26794107 339.5274876 486.53140127 339.51451302 488.79561329 C339.51456803 490.05341207 339.51462305 491.31121085 339.51467973 492.60712475 C338.79996881 499.33657808 335.88057662 504.28596966 331.13978291 509.13701439 C325.51936544 512.93213422 320.02706762 512.56031781 313.49380207 512.52469444 C312.31346785 512.53007998 311.13313363 512.53546552 309.91703171 512.54101425 C306.64893914 512.55283415 303.38117394 512.55122778 300.11307847 512.54384744 C296.58538569 512.53911531 293.05774748 512.551626 289.53007221 512.56186485 C282.6223053 512.57905722 275.71462932 512.57989198 268.80684657 512.57465195 C263.19205137 512.5706099 257.57728304 512.57205422 251.96248913 512.57740021 C250.76362103 512.57852284 250.76362103 512.57852284 249.54053337 512.57966815 C247.91684969 512.58119964 246.29316601 512.58273798 244.66948234 512.58428312 C229.44441705 512.5980097 214.21940316 512.59256933 198.99433904 512.58109791 C185.06726709 512.57116491 171.14032798 512.58410704 157.21327651 512.6080321 C142.91047197 512.63241742 128.60772932 512.6420324 114.3049044 512.63537937 C106.27593812 512.63188594 98.24707401 512.63412737 90.21812344 512.6516304 C83.38340433 512.66634529 76.54885936 512.66699723 69.7141437 512.64955949 C66.22764196 512.6410412 62.74145138 512.63891977 59.25496578 512.65421104 C55.47393108 512.66736105 51.69374522 512.65592492 47.91274738 512.63821983 C46.81274593 512.64782484 45.71274449 512.65742985 44.57940966 512.66732591 C37.5561623 512.59954582 32.94389387 511.74004279 27.68650347 506.76055425 C21.74303551 500.20788436 21.85984552 493.40466763 21.94447041 485.05107689 C21.9473003 483.99415642 21.9501302 482.93723595 21.95304585 481.84828758 C21.96420441 478.48607938 21.98930132 475.12414153 22.01478291 471.76201439 C22.02481828 469.476862 22.03394316 467.19170541 22.04212666 464.90654564 C22.06412959 459.31661028 22.09756418 453.72683166 22.13978291 448.13701439 C21.36376728 448.16319847 20.58775166 448.18938255 19.78822041 448.21636009 C16.23895091 448.32092166 12.69000639 448.38552993 9.13978291 448.44951439 C7.91904072 448.49140892 6.69829853 448.53330345 5.44056416 448.57646751 C-2.01033748 448.67715537 -7.16660544 448.1849395 -12.86021709 443.13701439 C-18.09271768 437.76681641 -19.10963706 432.25647194 -19.11469269 424.92424774 C-19.11950241 423.86391312 -19.11950241 423.86391312 -19.12440929 422.7821576 C-19.13271063 420.41347271 -19.12678458 418.04504058 -19.12091351 415.67635155 C-19.12393413 413.96095611 -19.12782316 412.24556202 -19.13250607 410.53017032 C-19.14280631 405.81609345 -19.14059909 401.10209246 -19.13632548 396.38800931 C-19.13386193 391.30406129 -19.1428678 386.22013171 -19.15036297 381.13619041 C-19.16312236 371.17605639 -19.16490211 361.21594931 -19.16256271 351.25580849 C-19.16078076 343.16105069 -19.16252653 335.06630108 -19.16678715 326.97154427 C-19.16738234 325.82011671 -19.16797753 324.66868916 -19.16859075 323.48236986 C-19.16980248 321.14335291 -19.17101662 318.80433597 -19.17223313 316.46531902 C-19.18311346 294.52224438 -19.18094385 272.57918509 -19.17484828 250.63610958 C-19.16967877 230.55684501 -19.1809346 210.47762895 -19.1999465 190.39837398 C-19.21931307 169.78671461 -19.22758297 149.17507821 -19.22382325 128.56340969 C-19.2219094 116.98924595 -19.22441665 105.4151235 -19.23853779 93.84096718 C-19.25043751 83.98772721 -19.25187231 74.13455394 -19.23974762 64.28131308 C-19.23384903 59.25352536 -19.23278659 54.22585973 -19.24475002 49.19808006 C-19.25557519 44.59520387 -19.25254563 39.99255222 -19.23848834 35.38968669 C-19.23583211 33.72486269 -19.2382369 32.06002129 -19.2462242 30.39521433 C-19.32740318 12.2123561 -19.32740318 12.2123561 -13.92271709 5.85967064 C-12.90177959 5.0378933 -12.90177959 5.0378933 -11.86021709 4.19951439 C-11.17959209 3.63361595 -10.49896709 3.06771751 -9.79771709 2.48467064 C-6.55418291 0.22858336 -3.83452061 0.0102436 0 0 Z " fill="#F4F4F4" transform="translate(137.8602170944214,-0.13701438903808594)"/>
<path d="M0 0 C1.51161131 -0.00761181 1.51161131 -0.00761181 3.05376023 -0.0153774 C4.71919309 -0.01612404 4.71919309 -0.01612404 6.41827106 -0.01688576 C8.18386914 -0.02345914 8.18386914 -0.02345914 9.98513585 -0.03016531 C13.2579719 -0.04123463 16.53078095 -0.04777922 19.80363142 -0.05234647 C23.33138186 -0.05830261 26.85911467 -0.06991241 30.38685322 -0.08063698 C38.909252 -0.10516046 47.43165662 -0.11978792 55.95407984 -0.13269705 C58.36108491 -0.13640897 60.7680894 -0.1403822 63.17509389 -0.14444971 C78.12153757 -0.16968589 93.06798216 -0.19173949 108.01444244 -0.20417786 C111.47655141 -0.20710756 114.93866034 -0.21006923 118.40076923 -0.21308327 C119.26126191 -0.21382932 120.1217546 -0.21457537 121.00832281 -0.21534403 C134.94785426 -0.22799772 148.88725816 -0.26122102 162.82672998 -0.3028851 C177.13734148 -0.34530795 191.44788769 -0.36887328 205.75856191 -0.37409842 C213.79380053 -0.37751211 221.82883981 -0.38926225 229.86401653 -0.42220116 C236.70720052 -0.45020768 243.5501443 -0.46119843 250.39338114 -0.4500057 C253.8841194 -0.4448205 257.37435468 -0.44769565 260.8650198 -0.47247124 C264.65255969 -0.49509078 268.43883083 -0.48689903 272.22637653 -0.47098732 C273.3255115 -0.48486941 274.42464647 -0.49875149 275.55708855 -0.51305425 C282.3029183 -0.4431895 286.98929432 0.61602816 292.13978291 5.13701439 C296.56179688 10.19465088 298.27109877 14.23698671 298.2533083 20.99736595 C298.25323277 21.95805992 298.25315723 22.91875389 298.25307941 23.9085598 C298.24791813 24.93785606 298.24275684 25.96715233 298.23743916 27.02763939 C298.23531673 28.61726494 298.23531673 28.61726494 298.23315144 30.23900414 C298.22755672 33.62170301 298.21500516 37.00433554 298.20228291 40.38701439 C298.19726722 42.68128427 298.19270444 44.97555518 298.18861103 47.26982689 C298.17758902 52.89224533 298.16085611 58.51462512 298.13978291 64.13701439 C298.91579853 64.11083031 299.69181416 64.08464622 300.49134541 64.05766869 C304.0406149 63.95310712 307.58955942 63.88849885 311.13978291 63.82451439 C312.36052509 63.78261986 313.58126728 63.74072533 314.83900166 63.69756126 C322.2899033 63.5968734 327.44617125 64.08908928 333.13978291 69.13701439 C338.37317407 74.50812637 339.38920426 80.0192027 339.3942585 87.35257435 C339.39746498 88.05976369 339.40067146 88.76695303 339.4039751 89.49557236 C339.41227646 91.86526653 339.40635039 94.23470805 339.40047932 96.60440636 C339.40349993 98.32051448 339.40738896 100.03662126 339.41207188 101.75272566 C339.4223721 106.46873314 339.42016491 111.18466476 339.41589129 115.90067852 C339.41342776 120.98665242 339.42243356 126.07260788 339.42992878 131.15857506 C339.44268794 141.12238409 339.44446797 151.08616618 339.44212852 161.049982 C339.44034665 169.14713207 339.44209218 177.24427395 339.44635296 185.34142303 C339.44694815 186.49313931 339.44754334 187.64485559 339.44815656 188.83147236 C339.44936829 191.17105504 339.45058243 193.51063771 339.45179894 195.85022039 C339.46267906 217.79803366 339.46050968 239.74583158 339.45441409 261.69364572 C339.44924387 281.78005237 339.46050234 301.86641054 339.47951231 321.9528076 C339.49887541 342.57011219 339.50714944 363.18739384 339.50338906 383.80470759 C339.50147478 395.38275184 339.50398673 406.96075481 339.5181036 418.53879166 C339.52999886 428.39462206 339.53144311 438.25038579 339.51931343 448.10621708 C339.51341186 453.13590615 339.51236061 458.16547314 339.52431583 463.19515419 C339.5351309 467.79859491 339.53212362 472.40181097 339.51805415 477.00524098 C339.51539513 478.67139307 339.51781137 480.33756252 339.52579001 482.00369763 C339.53588102 484.26794107 339.5274876 486.53140127 339.51451302 488.79561329 C339.51456803 490.05341207 339.51462305 491.31121085 339.51467973 492.60712475 C338.79996881 499.33657808 335.88057662 504.28596966 331.13978291 509.13701439 C325.51936544 512.93213422 320.02706762 512.56031781 313.49380207 512.52469444 C312.31346785 512.53007998 311.13313363 512.53546552 309.91703171 512.54101425 C306.64893914 512.55283415 303.38117394 512.55122778 300.11307847 512.54384744 C296.58538569 512.53911531 293.05774748 512.551626 289.53007221 512.56186485 C282.6223053 512.57905722 275.71462932 512.57989198 268.80684657 512.57465195 C263.19205137 512.5706099 257.57728304 512.57205422 251.96248913 512.57740021 C250.76362103 512.57852284 250.76362103 512.57852284 249.54053337 512.57966815 C247.91684969 512.58119964 246.29316601 512.58273798 244.66948234 512.58428312 C229.44441705 512.5980097 214.21940316 512.59256933 198.99433904 512.58109791 C185.06726709 512.57116491 171.14032798 512.58410704 157.21327651 512.6080321 C142.91047197 512.63241742 128.60772932 512.6420324 114.3049044 512.63537937 C106.27593812 512.63188594 98.24707401 512.63412737 90.21812344 512.6516304 C83.38340433 512.66634529 76.54885936 512.66699723 69.7141437 512.64955949 C66.22764196 512.6410412 62.74145138 512.63891977 59.25496578 512.65421104 C55.47393108 512.66736105 51.69374522 512.65592492 47.91274738 512.63821983 C46.81274593 512.64782484 45.71274449 512.65742985 44.57940966 512.66732591 C37.5561623 512.59954582 32.94389387 511.74004279 27.68650347 506.76055425 C21.74303551 500.20788436 21.85984552 493.40466763 21.94447041 485.05107689 C21.9473003 483.99415642 21.9501302 482.93723595 21.95304585 481.84828758 C21.96420441 478.48607938 21.98930132 475.12414153 22.01478291 471.76201439 C22.02481828 469.476862 22.03394316 467.19170541 22.04212666 464.90654564 C22.06412959 459.31661028 22.09756418 453.72683166 22.13978291 448.13701439 C21.36376728 448.16319847 20.58775166 448.18938255 19.78822041 448.21636009 C16.23895091 448.32092166 12.69000639 448.38552993 9.13978291 448.44951439 C7.91904072 448.49140892 6.69829853 448.53330345 5.44056416 448.57646751 C-2.01033748 448.67715537 -7.16660544 448.1849395 -12.86021709 443.13701439 C-18.09271768 437.76681641 -19.10963706 432.25647194 -19.11469269 424.92424774 C-19.11950241 423.86391312 -19.11950241 423.86391312 -19.12440929 422.7821576 C-19.13271063 420.41347271 -19.12678458 418.04504058 -19.12091351 415.67635155 C-19.12393413 413.96095611 -19.12782316 412.24556202 -19.13250607 410.53017032 C-19.14280631 405.81609345 -19.14059909 401.10209246 -19.13632548 396.38800931 C-19.13386193 391.30406129 -19.1428678 386.22013171 -19.15036297 381.13619041 C-19.16312236 371.17605639 -19.16490211 361.21594931 -19.16256271 351.25580849 C-19.16078076 343.16105069 -19.16252653 335.06630108 -19.16678715 326.97154427 C-19.16738234 325.82011671 -19.16797753 324.66868916 -19.16859075 323.48236986 C-19.16980248 321.14335291 -19.17101662 318.80433597 -19.17223313 316.46531902 C-19.18311346 294.52224438 -19.18094385 272.57918509 -19.17484828 250.63610958 C-19.16967877 230.55684501 -19.1809346 210.47762895 -19.1999465 190.39837398 C-19.21931307 169.78671461 -19.22758297 149.17507821 -19.22382325 128.56340969 C-19.2219094 116.98924595 -19.22441665 105.4151235 -19.23853779 93.84096718 C-19.25043751 83.98772721 -19.25187231 74.13455394 -19.23974762 64.28131308 C-19.23384903 59.25352536 -19.23278659 54.22585973 -19.24475002 49.19808006 C-19.25557519 44.59520387 -19.25254563 39.99255222 -19.23848834 35.38968669 C-19.23583211 33.72486269 -19.2382369 32.06002129 -19.2462242 30.39521433 C-19.32740318 12.2123561 -19.32740318 12.2123561 -13.92271709 5.85967064 C-12.90177959 5.0378933 -12.90177959 5.0378933 -11.86021709 4.19951439 C-11.17959209 3.63361595 -10.49896709 3.06771751 -9.79771709 2.48467064 C-6.55418291 0.22858336 -3.83452061 0.0102436 0 0 Z M-6.86021709 17.13701439 C-7.6034286 20.46671008 -7.6034286 20.46671008 -7.48383617 24.18826103 C-7.49050418 24.8898306 -7.4971722 25.59140017 -7.50404227 26.31422943 C-7.52031901 28.67129014 -7.50088443 31.0266993 -7.48167706 33.38371849 C-7.48600494 35.08801958 -7.49251992 36.79231628 -7.50103712 38.49660158 C-7.51806584 43.18468844 -7.50382157 47.87224302 -7.48452234 52.56030202 C-7.46912364 57.61422966 -7.48248989 62.66809088 -7.49226665 67.7220211 C-7.50681039 77.62453693 -7.49454187 87.52684808 -7.47315341 97.42934453 C-7.4491702 108.95523561 -7.45085614 120.48107953 -7.45345932 132.00699002 C-7.45715151 152.56876598 -7.43630657 173.13044536 -7.40220928 193.69219017 C-7.36911666 213.65543115 -7.35495076 233.61857075 -7.36119366 253.58183861 C-7.3679543 275.3076797 -7.36550669 297.03347829 -7.34583426 318.75931311 C-7.34479477 319.9076668 -7.34375528 321.0560205 -7.3426843 322.23917279 C-7.34059336 324.54574065 -7.33848239 326.8523085 -7.33635113 329.15887633 C-7.32944906 337.19767922 -7.32878729 345.23646904 -7.33023357 353.27527428 C-7.33167176 363.0686187 -7.32201014 372.86188033 -7.29828721 382.65519726 C-7.28640911 387.65424324 -7.2793141 392.65317368 -7.28512478 397.65223312 C-7.29028345 402.22540249 -7.28165507 406.79832741 -7.26185018 411.37145489 C-7.25709689 413.02884641 -7.25742754 414.68626162 -7.26326054 416.34364969 C-7.27040862 418.59131552 -7.25921584 420.83816396 -7.24332714 423.08576775 C-7.24175594 424.33575475 -7.24018474 425.58574176 -7.23856592 426.87360716 C-6.82777436 430.41684575 -5.99481622 432.3081394 -3.86021709 435.13701439 C-1.43924367 436.3475011 0.08881402 436.26558724 2.7944212 436.27123547 C3.78173745 436.27569331 4.7690537 436.28015115 5.78628862 436.28474408 C7.42516493 436.28446754 7.42516493 436.28446754 9.09714985 436.28418541 C10.25168175 436.2878621 11.40621366 436.29153879 12.59573138 436.29532689 C15.81014201 436.30446493 19.02452265 436.30906586 22.23894405 436.3117162 C25.70187521 436.31561513 29.16479151 436.32519365 32.6277132 436.33392906 C40.99478221 436.35370373 49.36185246 436.36376034 57.728939 436.37265685 C61.66639055 436.37703757 65.60384075 436.38240488 69.54129124 436.38764572 C82.62507504 436.40465798 95.70885801 436.4191535 108.79265118 436.42639446 C112.18896072 436.42830444 115.58527026 436.43022476 118.98157978 436.4321804 C119.82574352 436.43266414 120.66990725 436.43314789 121.53965171 436.43364628 C135.22326734 436.44195166 148.9067957 436.46729711 162.5903732 436.49976108 C176.62973167 436.53279844 190.66904573 436.55084015 204.70844328 436.5540387 C212.59486624 436.55620675 220.48116188 436.56499835 228.36754704 436.59049988 C235.08202535 436.61216146 241.79634542 436.62027978 248.51085471 436.6105331 C251.93823885 436.60597526 255.36529619 436.60795977 258.79263592 436.62729454 C262.50485338 436.64485761 266.21623226 436.63798356 269.92844868 436.62476158 C271.01657144 436.63573083 272.1046942 436.64670007 273.22579038 436.65800172 C278.88074838 436.71441104 278.88074838 436.71441104 283.77799129 434.23153019 C286.2644341 430.40723453 286.26825135 428.04251133 286.27679729 423.45491123 C286.27944912 422.75680319 286.28210095 422.05869516 286.28483313 421.33943233 C286.29255385 418.97663285 286.29308636 416.61388511 286.29368305 414.25107384 C286.29769584 412.54936761 286.30213375 410.84766235 286.30696261 409.14595824 C286.31895425 404.45128072 286.32458253 399.75661348 286.32914376 395.06192362 C286.33508997 390.00591264 286.34670217 384.94991402 286.35743427 379.89391136 C286.38197943 367.67511707 286.39658781 355.45631868 286.40949434 343.23750731 C286.4132045 339.78851774 286.41717787 336.33952858 286.42124701 332.89053941 C286.44647992 311.48912121 286.46854078 290.08770241 286.48097515 268.68627262 C286.48390502 263.72690071 286.48686666 258.76752883 286.48988056 253.80815697 C286.49099964 251.95913495 286.49099964 251.95913495 286.49214132 250.07275895 C286.50480261 230.09142045 286.53803494 210.11017079 286.57968239 190.12887385 C286.62205665 169.63149084 286.6456649 149.13415338 286.65089571 128.63672668 C286.65431478 117.12124059 286.66612833 105.60589336 286.69899845 94.09045029 C286.72693811 84.28604703 286.73802507 74.48181109 286.72680299 64.67737111 C286.72160087 59.67217048 286.72460356 54.66732055 286.74926853 49.66217041 C286.77164555 45.08322712 286.77111175 40.50488879 286.75206466 35.92593572 C286.74924836 34.26642073 286.75495297 32.60686571 286.7698776 30.94741543 C286.78889018 28.69641396 286.77726194 26.44759064 286.75781536 24.19664097 C286.75917189 22.94502774 286.76052842 21.69341452 286.76192605 20.40387362 C285.95777178 16.18127817 284.53738222 14.70567173 281.13978291 12.13701439 C278.70999706 11.40280397 278.70999706 11.40280397 276.11879444 11.50780869 C275.12612175 11.49476995 274.13344905 11.48173121 273.11069536 11.46829736 C271.48595002 11.48502778 271.48595002 11.48502778 269.82838154 11.50209618 C268.67199193 11.49429622 267.51560231 11.48649627 266.32417059 11.47845995 C263.11815166 11.46196681 259.91307925 11.46790157 256.70708394 11.48339105 C253.24823323 11.4947001 249.78951086 11.47724414 246.33068562 11.46349144 C239.55640665 11.44124954 232.78240455 11.44606432 226.0081147 11.46055464 C220.50291379 11.4718432 214.99779052 11.47337946 209.49258137 11.46793556 C208.7092752 11.4671694 207.92596903 11.46640323 207.11892632 11.46561385 C205.52769162 11.46401523 203.93645695 11.46239417 202.34522229 11.46075089 C187.42157636 11.44649061 172.49808395 11.46289044 157.57446319 11.48975272 C144.76722073 11.5120918 131.96020487 11.50821175 119.1529665 11.48515892 C104.28300638 11.45840579 89.41318084 11.44786393 74.54320002 11.46322024 C72.95779485 11.464813 71.37238966 11.46638485 69.78698444 11.46793556 C69.00691974 11.46870694 68.22685503 11.46947832 67.423152 11.47027307 C61.92408617 11.47459155 56.42510566 11.46730037 50.92605305 11.4555378 C44.22515084 11.44151962 37.52454151 11.44529807 30.82367289 11.47194152 C27.40420482 11.48508928 23.98522516 11.49021659 20.56576061 11.47369576 C16.86041051 11.46008604 13.15644547 11.47710385 9.45118427 11.50209618 C8.36802071 11.49094257 7.28485715 11.47978896 6.16887045 11.46829736 C5.17619775 11.4813361 4.18352506 11.49437484 3.16077137 11.50780869 C2.30569351 11.50862045 1.45061564 11.50943221 0.56962633 11.51026857 C-3.0939014 12.45522686 -4.58142318 14.16570967 -6.86021709 17.13701439 Z " fill="#4E5255" transform="translate(137.8602170944214,-0.13701438903808594)"/>
<path d="M0 0 C4.06212212 -0.14547545 8.12357287 -0.23413226 12.1875 -0.3125 C13.33798828 -0.35439453 14.48847656 -0.39628906 15.67382812 -0.43945312 C17.34155273 -0.46362305 17.34155273 -0.46362305 19.04296875 -0.48828125 C20.57473755 -0.52755737 20.57473755 -0.52755737 22.13745117 -0.56762695 C26.15504604 0.22903898 27.57477406 1.74252014 30 5 C30.62444448 8.26340723 30.62444448 8.26340723 30.62361908 12.05124664 C30.6336211 13.103601 30.6336211 13.103601 30.64382517 14.17721504 C30.66010192 16.53427575 30.64066734 18.88968491 30.62145996 21.2467041 C30.62578784 22.95100519 30.63230282 24.65530189 30.64082003 26.35958719 C30.65784874 31.04767405 30.64360447 35.73522863 30.62430525 40.42328763 C30.60890654 45.47721527 30.6222728 50.53107649 30.63204956 55.58500671 C30.64659329 65.48752254 30.63432478 75.38983369 30.61293632 85.29233015 C30.5889531 96.81822123 30.59063904 108.34406514 30.59324223 119.86997563 C30.59693442 140.43175159 30.57608947 160.99343097 30.54199219 181.55517578 C30.50889956 201.51841676 30.49473367 221.48155636 30.50097656 241.44482422 C30.50773721 263.17066531 30.5052896 284.8964639 30.48561716 306.62229872 C30.48405793 308.34482926 30.48405793 308.34482926 30.4824672 310.1021584 C30.48037627 312.40872626 30.4782653 314.71529411 30.47613403 317.02186194 C30.46923197 325.06066484 30.4685702 333.09945465 30.47001648 341.13825989 C30.47145467 350.93160431 30.46179305 360.72486594 30.43807012 370.51818287 C30.42619201 375.51722885 30.41909701 380.51615929 30.42490768 385.51521873 C30.43006635 390.0883881 30.42143798 394.66131302 30.40163308 399.23444051 C30.3968798 400.89183202 30.39721045 402.54924723 30.40304345 404.2066353 C30.41019153 406.45430114 30.39899874 408.70114957 30.38311005 410.94875336 C30.38153884 412.19874036 30.37996764 413.44872737 30.37834883 414.73659277 C29.96755726 418.27983137 29.13459912 420.17112502 27 423 C24.57838135 424.21080932 23.0516671 424.12749036 20.34536171 424.13142776 C19.35804546 424.13526891 18.37072921 424.13911005 17.35349429 424.1430676 C15.71461798 424.14176787 15.71461798 424.14176787 14.04263306 424.14044189 C12.3108352 424.14489858 12.3108352 424.14489858 10.54405153 424.1494453 C7.32963875 424.15664049 4.11525847 424.15930577 0.90083885 424.16004276 C-2.56209032 424.16189049 -6.02500784 424.16943636 -9.4879303 424.17617798 C-17.06428349 424.18977309 -24.6406314 424.19578777 -32.21699476 424.20018864 C-36.9451671 424.20294892 -41.67333738 424.20718586 -46.40150833 424.21169281 C-59.48529367 424.22388672 -72.56907737 424.23418599 -85.65286827 424.2375679 C-86.49062577 424.23778747 -87.32838326 424.23800703 -88.19152734 424.23823325 C-89.03131959 424.23845153 -89.87111183 424.23866981 -90.73635232 424.2388947 C-92.43816718 424.23933817 -94.13998203 424.23978473 -95.84179688 424.24023438 C-97.10804248 424.24056652 -97.10804248 424.24056652 -98.3998688 424.24090537 C-112.08346722 424.24485479 -125.76701244 424.26231264 -139.4505903 424.2855939 C-153.48994912 424.30928824 -167.52928123 424.32176887 -181.56866038 424.32293582 C-189.45505776 424.32385363 -197.34138581 424.32963259 -205.22776413 424.34775543 C-211.94222552 424.36313055 -218.65659616 424.36829224 -225.3710718 424.36001733 C-228.79840061 424.35610166 -232.22554653 424.35708474 -235.65285301 424.37107468 C-239.36495022 424.38368913 -243.07657265 424.37797444 -246.78866577 424.36749268 C-247.87678853 424.37554908 -248.9649113 424.38360548 -250.08600748 424.39190602 C-251.07853922 424.38531618 -252.07107096 424.37872633 -253.09367943 424.3719368 C-254.37930513 424.37283243 -254.37930513 424.37283243 -255.69090307 424.37374616 C-258.55099275 423.91081733 -259.90948645 422.98145377 -262 421 C-262.95162372 418.14512885 -263.12163139 416.39545683 -263.11352539 413.43676758 C-263.11344986 412.51603958 -263.11337433 411.59531158 -263.11329651 410.64668274 C-263.10813522 409.65597275 -263.10297394 408.66526276 -263.09765625 407.64453125 C-263.0962413 406.62775803 -263.09482635 405.6109848 -263.09336853 404.56340027 C-263.08776707 401.31307036 -263.07521432 398.06280912 -263.0625 394.8125 C-263.05748519 392.61002704 -263.05292225 390.40755299 -263.04882812 388.20507812 C-263.03779717 382.80336196 -263.02105762 377.40168588 -263 372 C-261.72924873 371.99853344 -260.45849747 371.99706688 -259.14923859 371.99555588 C-228.97519642 371.95984368 -198.80127017 371.90358782 -168.6273196 371.82207905 C-164.91235409 371.81206175 -161.19738813 371.80221759 -157.48242188 371.79248047 C-156.37306091 371.78956841 -156.37306091 371.78956841 -155.2412886 371.78659752 C-143.27069061 371.75558761 -131.30011177 371.73859969 -119.32948118 371.72680578 C-107.04389309 371.71438898 -94.75840549 371.68687567 -82.47288084 371.64538693 C-74.89376654 371.62026659 -67.31481892 371.60688164 -59.7356624 371.60857043 C-53.92114816 371.60860374 -48.1068554 371.58761955 -42.29241943 371.55883217 C-39.90920967 371.55031399 -37.52596438 371.54859619 -35.14274597 371.55419731 C-31.887151 371.56082949 -28.63256827 371.54293379 -25.3770752 371.51898193 C-23.96459653 371.53062256 -23.96459653 371.53062256 -22.52358294 371.54249835 C-15.29252333 371.44841195 -9.75415329 369.82663101 -4.625 364.5625 C-1.69020757 359.93455809 -0.74981363 356.28644096 -0.73828697 350.80935955 C-0.73082148 349.55583209 -0.72335599 348.30230462 -0.71566427 347.01079148 C-0.717441 345.62240303 -0.71940188 344.2340148 -0.7215271 342.84562683 C-0.71652415 341.36875471 -0.71064836 339.89188533 -0.70397437 338.41501981 C-0.68816018 334.35594069 -0.68474291 330.29693076 -0.68332577 326.23782456 C-0.6796342 321.86089168 -0.66447994 317.48399686 -0.65071106 313.10708618 C-0.62842676 305.52352992 -0.61342051 297.93998718 -0.60334396 290.35640526 C-0.58876444 279.39179526 -0.56322965 268.42723236 -0.53501268 257.46264998 C-0.48953149 239.67376154 -0.45292216 221.88486632 -0.421875 204.09594727 C-0.3916949 186.81468516 -0.3573471 169.53343964 -0.31738281 152.25219727 C-0.31492126 151.18715346 -0.31245972 150.12210966 -0.30992357 149.0247918 C-0.29754908 143.68183137 -0.28509252 138.33887114 -0.27259517 132.995911 C-0.1690075 88.66396378 -0.07981079 44.33199597 0 0 Z " fill="#A4F9CC" transform="translate(435,76)"/>
<path d="M0 0 C3.94227135 0.56318162 4.57498209 1.33123863 7.0625 4.4375 C8.72396745 7.6994237 10.07439221 11.07172963 11.43359375 14.46875 C11.83780045 15.45564819 12.24200714 16.44254639 12.65846252 17.45935059 C13.94846762 20.61496063 15.22446952 23.77601521 16.5 26.9375 C17.35388346 29.03423488 18.20869177 31.13059337 19.06445312 33.2265625 C22.96097537 42.77544349 22.96097537 42.77544349 24.8453036 47.50280118 C25.63377591 49.40383273 26.46766743 51.28690418 27.3537249 53.14445949 C30.88928311 60.76933642 31.77655584 67.09896646 31.69068909 75.44366455 C31.69778347 76.69784014 31.70487786 77.95201574 31.71218723 79.24419665 C31.7309572 82.69076695 31.71896384 86.13661887 31.7014643 89.58316994 C31.68801123 93.31324473 31.70355536 97.04321984 31.71528625 100.77328491 C31.73360626 108.06564795 31.72518941 115.35774196 31.70719803 122.65009645 C31.69314156 128.5774878 31.68928576 134.5048064 31.6926403 140.43221283 C31.69311775 141.27753771 31.69359519 142.12286258 31.6940871 142.99380337 C31.69511348 144.71130113 31.69616884 146.42879887 31.69725286 148.14629659 C31.70580796 163.3111264 31.68918133 178.4758267 31.65942383 193.640625 C31.63056885 208.34575841 31.62351409 223.05070541 31.63891602 237.75585938 C31.6556837 253.7868522 31.65970819 269.81775665 31.64220566 285.84875178 C31.64036134 287.55851792 31.63852661 289.26828407 31.63670158 290.97805023 C31.63578949 291.81920242 31.6348774 292.66035462 31.63393768 293.52699627 C31.62833738 299.44750947 31.63163453 305.36797944 31.63824654 311.2884903 C31.64598416 318.50293477 31.63921112 325.7171959 31.6140715 332.93160346 C31.60158869 336.61065355 31.59541509 340.28941834 31.60661316 343.96847916 C31.61852989 347.95900672 31.59937319 351.94878657 31.5771637 355.93927002 C31.58952485 357.67798303 31.58952485 357.67798303 31.60213572 359.45182157 C31.52390744 367.05994174 30.59780952 372.86147674 25.02734375 378.49609375 C24.35832031 378.95113281 23.68929687 379.40617187 23 379.875 C22.32839844 380.34808594 21.65679687 380.82117188 20.96484375 381.30859375 C15.44144064 384.58634221 8.8247698 383.73675782 2.60375977 383.78759766 C1.12671083 383.804101 -0.35026009 383.83131704 -1.8269043 383.86962891 C-11.37198416 384.11560856 -18.1936987 383.82190532 -25.43969727 377.02929688 C-31.74308156 370.29432749 -31.24508525 362.06732391 -31.27894592 353.41757202 C-31.29123826 352.20854772 -31.3035306 350.99952342 -31.31619543 349.75386202 C-31.34790796 346.40921048 -31.37075054 343.06472019 -31.38951695 339.71998549 C-31.40722134 336.84730666 -31.4322094 333.97470909 -31.45720071 331.10208581 C-31.54655516 320.80515199 -31.60661391 310.50811168 -31.66015625 300.2109375 C-31.66443873 299.39583129 -31.66872121 298.58072509 -31.67313346 297.7409187 C-31.75789173 281.50836033 -31.82995658 265.27575798 -31.87894535 249.04305077 C-31.8899013 245.47564003 -31.90103151 241.9082299 -31.91235352 238.34082031 C-31.91515717 237.45430926 -31.91796082 236.56779821 -31.92084944 235.65442319 C-31.96769567 221.36567487 -32.07334957 207.077988 -32.20306296 192.78977709 C-32.33562189 178.06420029 -32.40971049 163.33916555 -32.43016809 148.61300147 C-32.44311759 140.36770034 -32.48085152 132.12422976 -32.58458138 123.87952805 C-33.37075045 59.27260475 -33.37075045 59.27260475 -17.78452873 30.9346199 C-14.77968174 25.24531468 -12.51694577 19.30489494 -10.1875 13.3125 C-9.42537461 11.43347261 -8.66045614 9.55557104 -7.890625 7.6796875 C-7.58286133 6.9254248 -7.27509766 6.17116211 -6.95800781 5.39404297 C-5.16562793 1.95764767 -3.88083446 0.57799662 0 0 Z " fill="#4C5054" transform="translate(65.9375,105.5625)"/>
<path d="M0 0 C12.54 0 25.08 0 38 0 C38 85.47 38 170.94 38 259 C25.46 259 12.92 259 0 259 C0 173.53 0 88.06 0 0 Z " fill="#4CA9F3" transform="translate(47,177)"/>
<path d="M0 0 C8.50355191 6.09345431 14.18020225 14.80280655 16.1875 25.1875 C17.29725223 36.24863694 14.31274445 46.24077824 7.80859375 55.2265625 C1.84838252 62.43626379 -6.4601524 67.79825388 -15.8125 69.1875 C-27.76255771 70.06642928 -37.47569196 67.89246952 -46.8125 60.1875 C-54.47179734 53.08598452 -59.14045363 44.63761403 -60.0859375 34.15625 C-60.4185808 22.79520199 -57.99257092 14.56475623 -50.625 5.8125 C-36.32309363 -8.9891402 -17.31852721 -10.78432496 0 0 Z " fill="#505255" transform="translate(213.8125,43.8125)"/>
<path d="M0 0 C8.82364771 6.37612096 16.13703995 15.0085357 18 26 C19.06575296 36.70132767 17.33760215 46.05707967 10.91015625 54.86328125 C3.77192588 63.09970091 -3.77943189 69.48170947 -14.97265625 70.28515625 C-27.95778423 70.69013083 -37.90370429 68.49045046 -47.72265625 59.40625 C-55.81598515 50.62985242 -58.49372339 40.77796441 -58.2734375 29.15234375 C-57.83567846 19.61483116 -53.66006324 11.72349242 -47 5 C-43.8306934 2.342539 -40.56110301 0.09911663 -37 -2 C-36.39929688 -2.36222656 -35.79859375 -2.72445312 -35.1796875 -3.09765625 C-24.61566997 -8.19017591 -9.60489195 -5.91495504 0 0 Z " fill="#505255" transform="translate(212,241)"/>
<path d="M0 0 C10.08637314 6.0833438 16.31007886 14.40179555 19.3359375 25.7421875 C21.59214758 36.81088871 19.25309693 45.93964802 13.42578125 55.61328125 C7.14804283 64.32016787 -1.64643264 69.44036807 -12 72 C-22.0816686 73.43605163 -32.65137715 70.82637386 -40.875 64.8125 C-49.85309795 57.03697296 -54.98845833 48.44541863 -56.4140625 36.54296875 C-56.87635045 25.50888541 -53.91650149 17.06415071 -46.8125 8.625 C-34.03939196 -4.61645533 -16.77127539 -8.05211802 0 0 Z " fill="#505255" transform="translate(210,339)"/>
<path d="M0 0 C7.9992522 6.72794247 13.09424224 16.13738432 14.5703125 26.5 C14.99779032 36.30349141 12.2431172 46.46422725 5.8828125 54.0390625 C-2.12119869 62.41192213 -9.93905185 67.80898344 -21.75268555 68.10449219 C-29.28613058 68.17323845 -35.27361224 67.9762119 -41.8125 63.8125 C-42.885 63.173125 -43.9575 62.53375 -45.0625 61.875 C-52.66163325 56.17565006 -59.41422473 48.48190509 -61.40625 38.98046875 C-62.9839922 26.67711372 -61.91147627 17.16944448 -54.5625 7.0625 C-40.87606902 -9.52533711 -17.49747573 -12.49819695 0 0 Z " fill="#505255" transform="translate(215.8125,144.1875)"/>
<path d="M0 0 C5.8852274 5.50111 8.52634603 11.87480485 8.875 19.875 C8.49518411 28.37088164 5.58441839 34.52590193 -0.625 40.3125 C-6.99892581 45.33581699 -12.60820588 47.01743596 -20.6875 46.78515625 C-28.17356029 45.78255889 -34.32517057 41.77375041 -39.34375 36.234375 C-44.68100925 29.17733222 -44.63174884 20.94199157 -43.75 12.375 C-41.75102777 4.96214467 -36.06625849 -0.63524491 -29.625 -4.5 C-18.8271438 -8.72524808 -9.15055994 -6.97185519 0 0 Z " fill="#F16B7A" transform="translate(209.75,253.625)"/>
<path d="M0 0 C6.62739222 3.78251485 11.9434247 9.3562679 14.24609375 16.7421875 C15.81726336 24.77878958 15.33952615 31.656715 11.22265625 38.8125 C5.9468212 46.33022933 -1.52118373 49.80081262 -10.48046875 51.3828125 C-17.84075738 51.82354835 -24.05273761 48.25790413 -29.625 43.8125 C-35.59577739 38.17541875 -37.5146132 32.58188325 -37.75 24.4375 C-37.49323414 16.84962603 -35.91945528 10.46318719 -30.3125 5 C-20.76784986 -1.43635947 -11.1895845 -5.11425795 0 0 Z " fill="#F36B7A" transform="translate(203.3125,150)"/>
<path d="M0 0 C7.69352057 3.98414458 12.7610086 9.59552581 15.5 17.8125 C16.35832805 26.5551843 15.7542556 33.59107141 10.5 40.8125 C5.48697253 46.36039024 0.06359379 50.3444391 -7.546875 51.125 C-14.5345597 51.3826105 -19.72195431 50.8412291 -25.5 46.8125 C-26.551875 46.090625 -27.60375 45.36875 -28.6875 44.625 C-34.68786524 38.62463476 -36.99899588 33.38772497 -37.125 24.8125 C-37.00118808 16.99427417 -35.20516771 11.70723443 -29.8203125 6.046875 C-21.41633675 -1.64743168 -10.93953412 -3.69578855 0 0 Z " fill="#F26B7A" transform="translate(202.5,348.1875)"/>
<path d="M0 0 C6.35938828 3.86975542 12.06436814 10.19310441 14.4375 17.3125 C15.07006704 25.47365187 15.26770821 32.46692906 10.4375 39.3125 C9.81875 40.22 9.2 41.1275 8.5625 42.0625 C2.82213564 48.14053285 -3.24037581 50.38814842 -11.4375 50.625 C-19.35455692 50.45863416 -25.1445067 48.56700284 -30.953125 43.078125 C-36.71506453 36.75677386 -38.33368754 30.75895179 -38.22241211 22.27050781 C-37.79340281 14.67193807 -35.05676815 9.56836779 -29.55859375 4.4453125 C-21.25333473 -2.1421605 -10.00214847 -4.71475319 0 0 Z " fill="#F26B7A" transform="translate(203.5625,50.6875)"/>
<path d="M0 0 C1.24363815 -0.00845947 2.48727631 -0.01691895 3.76860046 -0.02563477 C5.14924752 -0.01980165 6.52989329 -0.01365713 7.91053772 -0.00723267 C9.36260371 -0.01129718 10.81466661 -0.01663839 12.26672363 -0.02316284 C16.2130466 -0.0368579 20.15913468 -0.03152854 24.10546184 -0.02202559 C28.23292224 -0.01443883 32.36036231 -0.02147199 36.48782349 -0.02618408 C43.4207572 -0.03164513 50.35359511 -0.02444155 57.28651428 -0.01016235 C65.30328491 0.00615844 73.3198266 0.00088128 81.33659166 -0.01564157 C88.21650781 -0.02925421 95.09635501 -0.031177 101.97628027 -0.02332556 C106.08665155 -0.01864698 110.19691521 -0.01802911 114.30727959 -0.02793503 C118.17247421 -0.03659899 122.03737367 -0.03059343 125.90253639 -0.01325226 C127.32151677 -0.00928406 128.74052197 -0.01042719 130.15949249 -0.01704025 C132.09565852 -0.02523193 134.03187881 -0.0131402 135.96801758 0 C137.05183684 0.00113108 138.13565611 0.00226215 139.25231838 0.00342751 C142.37255341 0.42485327 143.7472942 1.28497853 146.04750061 3.38095093 C145.73500061 6.75595093 145.73500061 6.75595093 145.04750061 10.38095093 C141.56164031 12.7048578 140.20523473 12.633856 136.08827209 12.64164734 C134.84318878 12.64873215 133.59810547 12.65581696 132.31529236 12.66311646 C130.93305933 12.66082258 129.55082665 12.65831287 128.16859436 12.65560913 C126.7149072 12.65995564 125.26122234 12.66513859 123.80754089 12.6710968 C119.85720412 12.68450355 115.90696292 12.6850637 111.95660782 12.6825335 C108.66118694 12.68146509 105.36578549 12.68634375 102.07036877 12.69113892 C94.29808287 12.70223955 86.52584529 12.70266817 78.7535553 12.69662476 C70.72882207 12.69058115 62.704264 12.70290446 54.67956066 12.72419482 C47.7945732 12.74179139 40.90964159 12.74781533 34.02463245 12.74455708 C29.9103704 12.74274122 25.79623333 12.74541052 21.68199158 12.75927162 C17.81435402 12.77181411 13.94699032 12.76994013 10.07935715 12.75686073 C8.65833826 12.75448768 7.2373003 12.75725563 5.81630325 12.76548386 C3.87980346 12.77589033 1.94322616 12.7660822 0.00672913 12.75517273 C-1.62038246 12.75542434 -1.62038246 12.75542434 -3.28036499 12.75568104 C-5.95249939 12.38095093 -5.95249939 12.38095093 -7.80151367 11.04506207 C-9.59755938 8.44831423 -9.3354493 6.44455024 -8.95249939 3.38095093 C-6.51278642 -0.14424039 -4.09908859 0.00427931 0 0 Z " fill="#525659" transform="translate(254.95249938964844,366.6190490722656)"/>
<path d="M0 0 C1.24363815 -0.00845947 2.48727631 -0.01691895 3.76860046 -0.02563477 C5.14924752 -0.01980165 6.52989329 -0.01365713 7.91053772 -0.00723267 C9.36260371 -0.01129718 10.81466661 -0.01663839 12.26672363 -0.02316284 C16.2130466 -0.0368579 20.15913468 -0.03152854 24.10546184 -0.02202559 C28.23292224 -0.01443883 32.36036231 -0.02147199 36.48782349 -0.02618408 C43.4207572 -0.03164513 50.35359511 -0.02444155 57.28651428 -0.01016235 C65.30328491 0.00615844 73.3198266 0.00088128 81.33659166 -0.01564157 C88.21650781 -0.02925421 95.09635501 -0.031177 101.97628027 -0.02332556 C106.08665155 -0.01864698 110.19691521 -0.01802911 114.30727959 -0.02793503 C118.17247421 -0.03659899 122.03737367 -0.03059343 125.90253639 -0.01325226 C127.32151677 -0.00928406 128.74052197 -0.01042719 130.15949249 -0.01704025 C132.09565852 -0.02523193 134.03187881 -0.0131402 135.96801758 0 C137.05183684 0.00113108 138.13565611 0.00226215 139.25231838 0.00342751 C142.37255341 0.42485327 143.7472942 1.28497853 146.04750061 3.38095093 C145.73500061 6.75595093 145.73500061 6.75595093 145.04750061 10.38095093 C141.56164031 12.7048578 140.20523473 12.633856 136.08827209 12.64164734 C134.84318878 12.64873215 133.59810547 12.65581696 132.31529236 12.66311646 C130.93305933 12.66082258 129.55082665 12.65831287 128.16859436 12.65560913 C126.7149072 12.65995564 125.26122234 12.66513859 123.80754089 12.6710968 C119.85720412 12.68450355 115.90696292 12.6850637 111.95660782 12.6825335 C108.66118694 12.68146509 105.36578549 12.68634375 102.07036877 12.69113892 C94.29808287 12.70223955 86.52584529 12.70266817 78.7535553 12.69662476 C70.72882207 12.69058115 62.704264 12.70290446 54.67956066 12.72419482 C47.7945732 12.74179139 40.90964159 12.74781533 34.02463245 12.74455708 C29.9103704 12.74274122 25.79623333 12.74541052 21.68199158 12.75927162 C17.81435402 12.77181411 13.94699032 12.76994013 10.07935715 12.75686073 C8.65833826 12.75448768 7.2373003 12.75725563 5.81630325 12.76548386 C3.87980346 12.77589033 1.94322616 12.7660822 0.00672913 12.75517273 C-1.62038246 12.75542434 -1.62038246 12.75542434 -3.28036499 12.75568104 C-5.95249939 12.38095093 -5.95249939 12.38095093 -7.80151367 11.04506207 C-9.59755938 8.44831423 -9.3354493 6.44455024 -8.95249939 3.38095093 C-6.51278642 -0.14424039 -4.09908859 0.00427931 0 0 Z " fill="#525659" transform="translate(254.95249938964844,46.619049072265625)"/>
<path d="M0 0 C1.86545723 -0.01485695 1.86545723 -0.01485695 3.76860046 -0.03001404 C5.1492472 -0.02577577 6.52989298 -0.02121789 7.91053772 -0.01637268 C9.36260505 -0.02207408 10.81466789 -0.02903745 12.26672363 -0.03717041 C16.21303409 -0.05514301 20.15912271 -0.05392575 24.10546184 -0.04822803 C27.39831162 -0.04514193 30.69111844 -0.05122218 33.98396212 -0.05726677 C41.75151572 -0.07132398 49.51895937 -0.06974093 57.28651428 -0.05836487 C65.30333294 -0.04688328 73.31981709 -0.06095711 81.33659166 -0.08776134 C88.21651186 -0.10990431 95.09632696 -0.11655888 101.97628027 -0.11068493 C106.08669483 -0.10731065 110.19689495 -0.10976138 114.30727959 -0.12693596 C118.17253718 -0.14238075 122.03729858 -0.13847752 125.90253639 -0.11963081 C127.32152078 -0.11593796 128.74054173 -0.11907372 130.15949249 -0.1295166 C132.09563012 -0.14267836 134.03189547 -0.12880075 135.96801758 -0.11352539 C137.05183684 -0.11331611 138.13565611 -0.11310682 139.25231838 -0.1128912 C142.73581844 0.51094648 143.94966747 1.57868879 146.04750061 4.38768005 C145.98500061 7.51268005 145.98500061 7.51268005 145.04750061 10.38768005 C141.56164031 12.71158692 140.20523473 12.64058512 136.08827209 12.64837646 C134.84318878 12.65546127 133.59810547 12.66254608 132.31529236 12.66984558 C130.93305933 12.6675517 129.55082665 12.66504199 128.16859436 12.66233826 C126.7149072 12.66668477 125.26122234 12.67186771 123.80754089 12.67782593 C119.85720412 12.69123267 115.90696292 12.69179283 111.95660782 12.68926263 C108.66118694 12.68819421 105.36578549 12.69307287 102.07036877 12.69786805 C94.29808287 12.70896868 86.52584529 12.70939729 78.7535553 12.70335388 C70.72882207 12.69731028 62.704264 12.70963358 54.67956066 12.73092395 C47.7945732 12.74852052 40.90964159 12.75454446 34.02463245 12.75128621 C29.9103704 12.74947035 25.79623333 12.75213965 21.68199158 12.76600075 C17.81435402 12.77854324 13.94699032 12.77666926 10.07935715 12.76358986 C8.65833826 12.76121681 7.2373003 12.76398475 5.81630325 12.77221298 C3.87980346 12.78261945 1.94322616 12.77281132 0.00672913 12.76190186 C-1.62038246 12.76215347 -1.62038246 12.76215347 -3.28036499 12.76241016 C-5.95249939 12.38768005 -5.95249939 12.38768005 -7.80151367 11.05179119 C-9.59755938 8.45504335 -9.3354493 6.45127937 -8.95249939 3.38768005 C-6.51320741 -0.13601198 -4.09812499 0.00919109 0 0 Z " fill="#525659" transform="translate(254.95249938964844,68.61231994628906)"/>
<path d="M0 0 C1.24363815 -0.00845947 2.48727631 -0.01691895 3.76860046 -0.02563477 C5.14924752 -0.01980165 6.52989329 -0.01365713 7.91053772 -0.00723267 C9.36260371 -0.01129718 10.81466661 -0.01663839 12.26672363 -0.02316284 C16.2130466 -0.0368579 20.15913468 -0.03152854 24.10546184 -0.02202559 C28.23292224 -0.01443883 32.36036231 -0.02147199 36.48782349 -0.02618408 C43.4207572 -0.03164513 50.35359511 -0.02444155 57.28651428 -0.01016235 C65.30328491 0.00615844 73.3198266 0.00088128 81.33659166 -0.01564157 C88.21650781 -0.02925421 95.09635501 -0.031177 101.97628027 -0.02332556 C106.08665155 -0.01864698 110.19691521 -0.01802911 114.30727959 -0.02793503 C118.17247421 -0.03659899 122.03737367 -0.03059343 125.90253639 -0.01325226 C127.32151677 -0.00928406 128.74052197 -0.01042719 130.15949249 -0.01704025 C132.09565852 -0.02523193 134.03187881 -0.0131402 135.96801758 0 C137.05183684 0.00113108 138.13565611 0.00226215 139.25231838 0.00342751 C142.37255341 0.42485327 143.7472942 1.28497853 146.04750061 3.38095093 C145.73500061 6.75595093 145.73500061 6.75595093 145.04750061 10.38095093 C141.57136011 12.69837793 140.23563145 12.63382047 136.13296509 12.64164734 C134.89774109 12.64873215 133.66251709 12.65581696 132.38986206 12.66311646 C131.01866113 12.66082257 129.64746056 12.65831286 128.27626038 12.65560913 C126.83404781 12.65995571 125.39183755 12.66513868 123.94963074 12.6710968 C120.03021736 12.68450398 116.11090032 12.68506357 112.19146848 12.6825335 C108.92099508 12.68146494 105.65054127 12.68634421 102.38007206 12.69113892 C94.66527753 12.70224007 86.95053169 12.70266812 79.23573303 12.69662476 C71.27350322 12.69058353 63.31145005 12.7028983 55.34925038 12.72419482 C48.51605144 12.74180044 41.68290878 12.74781383 34.84968799 12.74455708 C30.76725173 12.7427424 26.68494147 12.74539876 22.60252571 12.75927162 C18.76361159 12.7718285 14.92497318 12.76992638 11.08606339 12.75686073 C9.67675242 12.7544907 8.26742219 12.75724494 6.85813332 12.76548386 C4.93512069 12.77591583 3.01202983 12.76606782 1.08901978 12.75517273 C0.01257485 12.75534047 -1.06387007 12.75550821 -2.17293453 12.75568104 C-5.33232294 12.3297446 -6.71967954 11.6332092 -8.95249939 9.38095093 C-9.40401877 6.28481801 -9.62038285 4.34272653 -7.79718685 1.71726036 C-5.16444761 -0.1899214 -3.23391544 0.0033761 0 0 Z " fill="#525659" transform="translate(254.95249938964844,344.6190490722656)"/>
<path d="M0 0 C1.23659866 -0.00990463 2.47319733 -0.01980927 3.74726868 -0.03001404 C5.11483864 -0.02577606 6.48240764 -0.02121821 7.84997559 -0.01637268 C9.29233835 -0.02207582 10.7346966 -0.02903986 12.17704773 -0.03717041 C16.09230885 -0.05512209 20.00734611 -0.05392988 23.92263603 -0.04822803 C27.19068281 -0.04513947 30.45868638 -0.05122481 33.72672701 -0.05726677 C41.43532684 -0.0713166 49.14381586 -0.06974656 56.85241699 -0.05836487 C64.80734138 -0.04687911 72.76192881 -0.0609658 80.7168088 -0.08776134 C87.54579434 -0.10990384 94.37467401 -0.11655914 101.20369291 -0.11068493 C105.28279406 -0.10731113 109.36167913 -0.10975842 113.44075012 -0.12693596 C117.27565363 -0.14238042 121.110057 -0.13847793 124.94494057 -0.11963081 C126.35263789 -0.11593812 127.76037208 -0.11907326 129.16803551 -0.1295166 C131.08879261 -0.14267918 133.00967846 -0.12880022 134.93041992 -0.11352539 C136.54313908 -0.11321146 136.54313908 -0.11321146 138.18843842 -0.1128912 C141.6589204 0.5127359 142.8726142 1.5905362 144.96520996 4.38768005 C144.90270996 7.51268005 144.90270996 7.51268005 143.96520996 10.38768005 C140.47934966 12.71158692 139.12294409 12.64058512 135.00598145 12.64837646 C133.76089813 12.65546127 132.51581482 12.66254608 131.23300171 12.66984558 C129.85076868 12.6675517 128.468536 12.66504199 127.08630371 12.66233826 C125.63261655 12.66668477 124.17893169 12.67186771 122.72525024 12.67782593 C118.77491347 12.69123267 114.82467227 12.69179283 110.87431717 12.68926263 C107.57889629 12.68819421 104.28349484 12.69307287 100.98807812 12.69786805 C93.21579222 12.70896868 85.44355464 12.70939729 77.67126465 12.70335388 C69.64653142 12.69731028 61.62197335 12.70963358 53.59727001 12.73092395 C46.71228255 12.74852052 39.82735094 12.75454446 32.9423418 12.75128621 C28.82807975 12.74947035 24.71394268 12.75213965 20.59970093 12.76600075 C16.73206337 12.77854324 12.86469967 12.77666926 8.9970665 12.76358986 C7.57604761 12.76121681 6.15500965 12.76398475 4.7340126 12.77221298 C2.79751281 12.78261945 0.86093551 12.77281132 -1.07556152 12.76190186 C-2.70267311 12.76215347 -2.70267311 12.76215347 -4.36265564 12.76241016 C-7.03479004 12.38768005 -7.03479004 12.38768005 -8.87989807 11.05179119 C-10.70227825 8.42588051 -10.48631078 6.48382226 -10.03479004 3.38768005 C-6.8834907 0.21136268 -4.36850762 0.00987309 0 0 Z " fill="#525659" transform="translate(256.0347900390625,145.61231994628906)"/>
<path d="M0 0 C1.26053696 -0.00708481 2.52107391 -0.01416962 3.81980896 -0.02146912 C5.22456395 -0.01917508 6.62931861 -0.01666535 8.03407288 -0.01396179 C9.50731668 -0.01830698 10.98055823 -0.02348948 12.45379639 -0.02944946 C16.46204136 -0.04287178 20.47019223 -0.04341454 24.47845531 -0.04088616 C27.82104715 -0.0398186 31.16361978 -0.04469431 34.50620753 -0.04949158 C42.39018499 -0.06059802 50.27411481 -0.06101785 58.15809631 -0.05497742 C66.29925537 -0.04893597 74.44024167 -0.06125031 82.58137125 -0.08254749 C89.56400213 -0.10014432 96.54657793 -0.10616787 103.52923018 -0.10290974 C107.70275126 -0.10109361 111.87614912 -0.1037657 116.04965019 -0.11762428 C119.97390669 -0.13016688 123.89789328 -0.12829266 127.82214546 -0.11521339 C129.26412674 -0.1128402 130.70612679 -0.11560877 132.14808655 -0.12383652 C134.11310412 -0.13424205 136.07819806 -0.1244354 138.04321289 -0.11352539 C139.69439574 -0.113777 139.69439574 -0.113777 141.37893581 -0.1140337 C144.08509827 0.26069641 144.08509827 0.26069641 145.9392786 1.62783527 C147.58164372 3.9683032 147.50399833 5.46802933 147.08509827 8.26069641 C145.9392786 9.89355755 145.9392786 9.89355755 144.08509827 11.26069641 C141.37893581 11.63542652 141.37893581 11.63542652 138.04321289 11.63491821 C136.14817772 11.64543968 136.14817772 11.64543968 134.21485901 11.65617371 C132.81214747 11.6487458 131.4094375 11.64101465 130.00672913 11.63301086 C128.53171532 11.63543842 127.05670316 11.63915738 125.58169556 11.64407349 C121.57351466 11.65349037 117.5655776 11.64405091 113.55741572 11.63074136 C109.36763257 11.61943977 105.17786164 11.62353331 100.98806763 11.62548828 C93.95258084 11.62637157 86.91719034 11.6152828 79.88172913 11.59687805 C71.73998899 11.57570166 63.59838988 11.57220208 55.45662779 11.57844001 C47.63284559 11.58412809 39.80911322 11.57849512 31.98533821 11.56726646 C28.65163314 11.56261393 25.31795847 11.56174943 21.98425102 11.56385231 C18.06165832 11.56573142 14.13920983 11.55766062 10.21665001 11.54179192 C8.77425483 11.53753771 7.33184504 11.53670611 5.88944626 11.53948212 C3.92629086 11.54268805 1.96312701 11.53242652 0 11.52139282 C-1.10041154 11.51933995 -2.20082308 11.51728708 -3.33458042 11.515172 C-5.91490173 11.26069641 -5.91490173 11.26069641 -7.91490173 9.26069641 C-8.16490173 5.76069641 -8.16490173 5.76069641 -7.91490173 2.26069641 C-5.20496072 -0.4492446 -3.7929575 0.00707594 0 0 Z " fill="#4C5053" transform="translate(253.91490173339844,245.7393035888672)"/>
<path d="M0 0 C1.8802462 -0.01062721 1.8802462 -0.01062721 3.79847717 -0.02146912 C5.19015539 -0.01917523 6.58183326 -0.01666553 7.97351074 -0.01396179 C9.43704997 -0.01830828 10.90058693 -0.02349121 12.36412048 -0.02944946 C16.34131573 -0.0428565 20.31841605 -0.04341633 24.2956295 -0.04088616 C27.61341829 -0.03981777 30.93118776 -0.04469636 34.24897242 -0.04949158 C42.07399593 -0.06059231 49.89897144 -0.06102077 57.72399902 -0.05497742 C65.80326337 -0.04893381 73.88235373 -0.06125711 81.96158838 -0.08254749 C88.89328451 -0.10014389 95.82492516 -0.10616802 102.75664282 -0.10290974 C106.89885023 -0.10109386 111.04093349 -0.10376346 115.18312073 -0.11762428 C119.07702249 -0.1301665 122.97065223 -0.12829305 126.86454964 -0.11521339 C128.29524386 -0.11284028 129.72595703 -0.1156085 131.15662956 -0.12383652 C133.10626671 -0.13424249 135.05598084 -0.12443514 137.00561523 -0.11352539 C138.09773064 -0.11369313 139.18984604 -0.11386087 140.31505585 -0.1140337 C143.00280762 0.26069641 143.00280762 0.26069641 144.85419464 1.62783527 C146.50023397 3.96783466 146.42193671 5.46650246 146.00280762 8.26069641 C144.85698795 9.89355755 144.85698795 9.89355755 143.00280762 11.26069641 C140.29664516 11.63542652 140.29664516 11.63542652 136.96092224 11.63491821 C135.06588707 11.64543968 135.06588707 11.64543968 133.13256836 11.65617371 C131.72985682 11.6487458 130.32714685 11.64101465 128.92443848 11.63301086 C127.44942467 11.63543842 125.97441251 11.63915738 124.49940491 11.64407349 C120.49122401 11.65349037 116.48328695 11.64405091 112.47512507 11.63074136 C108.28534192 11.61943977 104.09557099 11.62353331 99.90577698 11.62548828 C92.87029019 11.62637157 85.83489969 11.6152828 78.79943848 11.59687805 C70.65769834 11.57570166 62.51609923 11.57220208 54.37433714 11.57844001 C46.55055495 11.58412809 38.72682257 11.57849512 30.90304756 11.56726646 C27.56934249 11.56261393 24.23566782 11.56174943 20.90196037 11.56385231 C16.97936767 11.56573142 13.05691918 11.55766062 9.13435936 11.54179192 C7.69196418 11.53753771 6.24955439 11.53670611 4.80715561 11.53948212 C2.84400021 11.54268805 0.88083636 11.53242652 -1.08229065 11.52139282 C-2.18270219 11.51933995 -3.28311373 11.51728708 -4.41687107 11.515172 C-6.99719238 11.26069641 -6.99719238 11.26069641 -8.99719238 9.26069641 C-9.30969238 5.76069641 -9.30969238 5.76069641 -8.99719238 2.26069641 C-5.50308013 -0.06871175 -4.1290565 0.00776146 0 0 Z " fill="#4C5053" transform="translate(254.9971923828125,267.7393035888672)"/>
<path d="M0 0 C1.26053696 -0.00708481 2.52107391 -0.01416962 3.81980896 -0.02146912 C5.22456395 -0.01917508 6.62931861 -0.01666535 8.03407288 -0.01396179 C9.50731668 -0.01830698 10.98055823 -0.02348948 12.45379639 -0.02944946 C16.46204136 -0.04287178 20.47019223 -0.04341454 24.47845531 -0.04088616 C27.82104715 -0.0398186 31.16361978 -0.04469431 34.50620753 -0.04949158 C42.39018499 -0.06059802 50.27411481 -0.06101785 58.15809631 -0.05497742 C66.29925537 -0.04893597 74.44024167 -0.06125031 82.58137125 -0.08254749 C89.56400213 -0.10014432 96.54657793 -0.10616787 103.52923018 -0.10290974 C107.70275126 -0.10109361 111.87614912 -0.1037657 116.04965019 -0.11762428 C119.97390669 -0.13016688 123.89789328 -0.12829266 127.82214546 -0.11521339 C129.26412674 -0.1128402 130.70612679 -0.11560877 132.14808655 -0.12383652 C134.11310412 -0.13424205 136.07819806 -0.1244354 138.04321289 -0.11352539 C139.69439574 -0.113777 139.69439574 -0.113777 141.37893581 -0.1140337 C144.08509827 0.26069641 144.08509827 0.26069641 145.97443485 1.59267902 C147.08509827 3.26069641 147.08509827 3.26069641 146.89759827 6.32319641 C146.08509827 9.26069641 146.08509827 9.26069641 144.08509827 11.26069641 C141.52039433 11.515172 141.52039433 11.515172 138.2081604 11.52139282 C136.9560376 11.52847763 135.70391479 11.53556244 134.41384888 11.54286194 C133.01853907 11.5405679 131.62322961 11.53805818 130.22792053 11.53535461 C128.7645288 11.53969982 127.30113934 11.54488233 125.8377533 11.55084229 C121.8563668 11.56426442 117.87507504 11.56480739 113.89367032 11.56227899 C110.57344638 11.56121141 107.25324178 11.56608717 103.93302196 11.57088441 C96.10178212 11.58199078 88.27059023 11.58241071 80.43934631 11.57637024 C72.35271838 11.57032881 64.26626436 11.5826431 56.1796661 11.60394031 C49.24374389 11.62153731 42.30787713 11.62756067 35.3719334 11.62430257 C31.22635768 11.62248646 27.080906 11.62515827 22.93535042 11.63901711 C19.03735813 11.65155997 15.13963757 11.64968523 11.24164963 11.63660622 C9.80934369 11.63423309 8.37701884 11.63700139 6.94473457 11.64522934 C4.99285435 11.65563536 3.04089725 11.64582794 1.08901978 11.63491821 C-0.00439445 11.63508595 -1.09780867 11.6352537 -2.22435665 11.63542652 C-4.91490173 11.26069641 -4.91490173 11.26069641 -6.77061558 9.9287138 C-8.52967874 7.36454055 -8.23595045 5.27855439 -7.91490173 2.26069641 C-5.20496072 -0.4492446 -3.7929575 0.00707594 0 0 Z " fill="#4C5053" transform="translate(253.91490173339844,168.7393035888672)"/>
<path d="M0 0 C0.90109497 -0.00686325 1.80218994 -0.0137265 2.73059082 -0.02079773 C5.71451496 -0.03912551 8.69791632 -0.03521964 11.68188477 -0.02954102 C13.75309928 -0.03410004 15.82431229 -0.03940477 17.89552307 -0.04542542 C22.23916769 -0.05436834 26.58262856 -0.05192004 30.92626953 -0.04199219 C36.49629183 -0.03050278 42.06568017 -0.05070779 47.63561916 -0.07990932 C51.91384418 -0.09824434 56.19191654 -0.09798421 60.47017097 -0.0922718 C62.52390494 -0.09211825 64.57764904 -0.09819067 66.63134575 -0.11056328 C69.50203227 -0.12541989 72.37153825 -0.11483532 75.2421875 -0.09765625 C76.09271194 -0.10732422 76.94323639 -0.11699219 77.8195343 -0.12695312 C81.66645306 -0.0786794 83.57254712 -0.04368639 86.74867249 2.2752533 C88.18579102 4.40405273 88.18579102 4.40405273 88.12329102 6.96655273 C87.11999108 9.57513258 86.33053027 10.65668966 84.18579102 12.40405273 C81.17385874 12.70044499 78.36874215 12.81365862 75.35571289 12.79223633 C74.45301163 12.79749329 73.55031036 12.80275024 72.62025452 12.8081665 C69.63150818 12.82138789 66.64329292 12.81262081 63.65454102 12.80249023 C61.58093157 12.80451035 59.50732282 12.80742127 57.43371582 12.81118774 C53.08586876 12.815614 48.73820647 12.80917028 44.39038086 12.79516602 C38.81138146 12.77807405 33.23281499 12.78791361 27.65383148 12.80588341 C23.37136562 12.81671305 19.08900275 12.81327865 14.80653381 12.80550003 C12.74919077 12.80349576 10.69183843 12.80596523 8.63450623 12.81293869 C5.76137445 12.82053963 2.88894824 12.80896795 0.01586914 12.79223633 C-0.83825058 12.79830902 -1.6923703 12.80438171 -2.57237244 12.81063843 C-8.37198528 12.74792417 -8.37198528 12.74792417 -10.53272247 11.0677433 C-12.50836404 8.50286556 -12.20570801 6.53604493 -11.81420898 3.40405273 C-8.6784682 -0.66456007 -4.75932588 -0.02513031 0 0 Z " fill="#525558" transform="translate(257.814208984375,388.595947265625)"/>
<path d="M0 0 C0.90109497 -0.00686325 1.80218994 -0.0137265 2.73059082 -0.02079773 C5.71451496 -0.03912551 8.69791632 -0.03521964 11.68188477 -0.02954102 C13.75309928 -0.03410004 15.82431229 -0.03940477 17.89552307 -0.04542542 C22.23916769 -0.05436834 26.58262856 -0.05192004 30.92626953 -0.04199219 C36.49629183 -0.03050278 42.06568017 -0.05070779 47.63561916 -0.07990932 C51.91384418 -0.09824434 56.19191654 -0.09798421 60.47017097 -0.0922718 C62.52390494 -0.09211825 64.57764904 -0.09819067 66.63134575 -0.11056328 C69.50203227 -0.12541989 72.37153825 -0.11483532 75.2421875 -0.09765625 C76.09271194 -0.10732422 76.94323639 -0.11699219 77.8195343 -0.12695312 C81.64207307 -0.07898534 83.57517289 -0.03339315 86.74867249 2.24009705 C88.18579102 4.40405273 88.18579102 4.40405273 88.12329102 7.52905273 C87.18579102 10.40405273 87.18579102 10.40405273 84.18579102 12.40405273 C81.21154818 12.60434496 78.33068524 12.68733999 75.35571289 12.67871094 C74.45301163 12.68382187 73.55031036 12.6889328 72.62025452 12.69419861 C69.63161622 12.70811702 66.6432079 12.70713632 63.65454102 12.70483398 C61.58093174 12.70871932 59.50732326 12.71305365 57.43371582 12.71781921 C53.08591126 12.72528601 48.7381879 12.72498655 44.39038086 12.71972656 C38.81140228 12.71392753 33.23275522 12.73087129 27.65383148 12.75407124 C23.37137907 12.76878239 19.08900701 12.76968392 14.80653381 12.76656151 C12.7491846 12.76707591 10.69183102 12.7723359 8.63450623 12.78237343 C5.76140605 12.7946715 2.88895839 12.78798641 0.01586914 12.77636719 C-0.83825058 12.78401093 -1.6923703 12.79165466 -2.57237244 12.79953003 C-8.37235813 12.74752612 -8.37235813 12.74752612 -10.53272247 11.06816387 C-12.50813793 8.50293136 -12.20573436 6.5362557 -11.81420898 3.40405273 C-8.6784682 -0.66456007 -4.75932588 -0.02513031 0 0 Z " fill="#525558" transform="translate(257.814208984375,90.595947265625)"/>
<path d="M0 0 C12.54 0 25.08 0 38 0 C38.0825 3.856875 38.165 7.71375 38.25 11.6875 C38.28641602 12.89494873 38.32283203 14.10239746 38.36035156 15.34643555 C38.44242038 23.24953071 38.44242038 23.24953071 36.109375 27.20703125 C31.21610234 31.36631301 25.34104124 30.30233338 19.1875 30.375 C17.99833984 30.41238281 16.80917969 30.44976562 15.58398438 30.48828125 C5.7887138 30.58727893 5.7887138 30.58727893 2.73828125 27.6015625 C0.28322566 23.92725458 -0.1217576 22.15988396 -0.09765625 17.7734375 C-0.09515869 16.84450684 -0.09266113 15.91557617 -0.09008789 14.95849609 C-0.08098389 13.77594238 -0.07187988 12.59338867 -0.0625 11.375 C-0.041875 7.62125 -0.02125 3.8675 0 0 Z " fill="#B6BAB9" transform="translate(47,447)"/>
<path d="M0 0 C0.90109497 -0.00671722 1.80218994 -0.01343445 2.73059082 -0.02035522 C5.71441129 -0.03937994 8.6980074 -0.04326155 11.68188477 -0.04541016 C13.75309849 -0.05183453 15.82431128 -0.05856261 17.89552307 -0.06558228 C22.23912664 -0.07756592 26.5826506 -0.08126193 30.92626953 -0.08007812 C36.49626277 -0.07987477 42.06574671 -0.10718898 47.63561916 -0.14162254 C51.91382703 -0.16384197 56.19191131 -0.1679172 60.47017097 -0.16685867 C62.52391377 -0.16922165 64.57765962 -0.17808416 66.63134575 -0.19352341 C69.50199105 -0.21308486 72.3715249 -0.20738433 75.2421875 -0.1953125 C76.09271194 -0.20655151 76.94323639 -0.21779053 77.8195343 -0.22937012 C81.66628074 -0.18819223 83.57217068 -0.15563388 86.75257874 2.15682983 C88.18579102 4.29052734 88.18579102 4.29052734 88.06079102 6.91552734 C87.18579102 9.29052734 87.18579102 9.29052734 85.18579102 11.29052734 C82.18343732 11.48942551 79.27329004 11.56316582 76.26977539 11.54931641 C75.34610672 11.55282104 74.42243805 11.55632568 73.47077942 11.55993652 C70.40695761 11.56876411 67.34336531 11.56290105 64.27954102 11.55615234 C62.1572668 11.5574987 60.03499288 11.55943898 57.91271973 11.56195068 C53.46058217 11.56490334 49.00852475 11.56059974 44.55639648 11.55126953 C38.83947114 11.53987495 33.12273357 11.54643366 27.40581512 11.55841446 C23.02218197 11.56562923 18.63859359 11.56334689 14.25495911 11.55815887 C12.14655027 11.55682132 10.03813742 11.55847378 7.92973328 11.56311798 C4.98698095 11.56817691 2.04453598 11.56048189 -0.89819336 11.54931641 C-1.77618088 11.55336487 -2.6541684 11.55741333 -3.5587616 11.56158447 C-9.58568133 11.519055 -9.58568133 11.519055 -11.81420898 9.29052734 C-12.12670898 5.79052734 -12.12670898 5.79052734 -11.81420898 2.29052734 C-7.89168958 -0.3244856 -4.55238574 -0.00483979 0 0 Z " fill="#4C5053" transform="translate(257.814208984375,289.70947265625)"/>
<path d="M0 0 C0.87641647 0.00247742 1.75283295 0.00495483 2.6558075 0.00750732 C3.57786987 0.00239639 4.49993225 -0.00271454 5.44993591 -0.00798035 C8.50894089 -0.02192165 11.56772172 -0.02091616 14.62675476 -0.01861572 C16.74663375 -0.02250019 18.86651197 -0.02683434 20.98638916 -0.03160095 C25.43432638 -0.03907296 29.88218424 -0.03876481 34.3301239 -0.0335083 C40.03804379 -0.02771274 45.74563929 -0.04464216 51.45350552 -0.06785297 C55.83289498 -0.08256489 60.21220588 -0.08346548 64.59161568 -0.08034325 C66.69641322 -0.08085775 68.80121501 -0.08611957 70.90598869 -0.09615517 C73.84624858 -0.10845284 76.78587079 -0.10176799 79.72612 -0.09014893 C81.03770836 -0.10161453 81.03770836 -0.10161453 82.37579346 -0.11331177 C88.3020096 -0.06138889 88.3020096 -0.06138889 90.5144968 1.61414814 C91.75566101 3.28216553 91.75566101 3.28216553 91.56816101 6.34466553 C90.75566101 9.28216553 90.75566101 9.28216553 88.75566101 11.28216553 C85.78906804 11.4862815 82.91544691 11.56530441 79.9473114 11.55682373 C78.57884819 11.56449013 78.57884819 11.56449013 77.18273926 11.5723114 C74.15619919 11.5862523 71.12988569 11.58524725 68.10331726 11.58294678 C66.00585851 11.58683127 63.90840054 11.59116542 61.8109436 11.59593201 C57.41008456 11.60340393 53.00930572 11.60309593 48.60844421 11.59783936 C42.96105714 11.59204383 37.31399792 11.60897315 31.66666508 11.63218403 C27.33359854 11.64689626 23.00061142 11.64779649 18.66752434 11.6446743 C16.58505542 11.64518879 14.5025822 11.65045033 12.42013741 11.66048622 C9.51100825 11.67278452 6.60252353 11.6660987 3.69340515 11.65447998 C2.82836365 11.66212372 1.96332214 11.66976746 1.07206726 11.67764282 C-4.79944676 11.6256528 -4.79944676 11.6256528 -6.96955204 9.95018291 C-8.90810011 7.41365562 -8.57296457 5.37124603 -8.24433899 2.28216553 C-5.58863283 -0.37354063 -3.61318925 0.03208835 0 0 Z " fill="#4C5053" transform="translate(254.2443389892578,190.71783447265625)"/>
<path d="M0 0 C0.66 0 1.32 0 2 0 C3.66133223 3.80139907 5.31501373 7.60601349 6.9621582 11.41357422 C7.52166985 12.7041618 8.08314091 13.99390198 8.64672852 15.28271484 C9.46387153 17.15233805 10.27354286 19.02505808 11.08203125 20.8984375 C11.56905518 22.01911621 12.0560791 23.13979492 12.55786133 24.29443359 C14.29964399 28.76993338 15.6200148 33.40004935 17 38 C6.44 38 -4.12 38 -15 38 C-10.29326553 25.20733708 -5.21377319 12.59385695 0 0 Z " fill="#F6C742" transform="translate(65,128)"/>
<path d="M0 0 C1.875 1.25 1.875 1.25 3 3 C2.60600073 6.8086596 1.63825825 8.89355988 -0.9375 11.6875 C-1.55882812 12.36296875 -2.18015625 13.0384375 -2.8203125 13.734375 C-15.40917705 26.81957471 -15.40917705 26.81957471 -19.82421875 27.3203125 C-23.83811414 26.91546696 -25.03598313 25.74138709 -27.8125 22.875 C-28.58207031 22.10929687 -29.35164062 21.34359375 -30.14453125 20.5546875 C-32.29093979 17.59942185 -32.82581675 15.62798828 -33 12 C-31.375 9.5625 -31.375 9.5625 -29 8 C-25.92901621 8.07490204 -24.51439964 8.55655204 -22.1875 10.5625 C-21.795625 11.036875 -21.40375 11.51125 -21 12 C-17.12678907 10.42369323 -14.75264837 7.92252331 -11.875 4.9375 C-5.53413337 -1.61974635 -5.53413337 -1.61974635 0 0 Z " fill="#525154" transform="translate(207,161)"/>
<path d="M0 0 C3.12890625 0.96484375 3.12890625 0.96484375 4.12890625 1.96484375 C4.75124505 4.87166844 4.90916747 6.15717726 4.12890625 8.96484375 C1.49789874 12.69511308 -1.67099623 15.78639576 -4.93359375 18.96484375 C-5.78115234 19.84785156 -6.62871094 20.73085937 -7.50195312 21.640625 C-13.78853295 27.88351431 -13.78853295 27.88351431 -18.71875 28.25390625 C-23.6826681 26.22405126 -26.71948552 23.26110388 -29.87109375 18.96484375 C-31.01007101 15.30812728 -31.59631164 13.41527954 -29.87109375 9.96484375 C-26.65286019 8.35572697 -24.28246155 9.12696394 -20.87109375 9.96484375 C-19.50536902 10.920131 -18.16418232 11.91332118 -16.87109375 12.96484375 C-16.01386719 12.01480469 -15.15664062 11.06476563 -14.2734375 10.0859375 C-13.11958789 8.85704076 -11.96457849 7.62923226 -10.80859375 6.40234375 C-10.24720703 5.77392578 -9.68582031 5.14550781 -9.10742188 4.49804688 C-4.76463144 -0.04327112 -4.76463144 -0.04327112 0 0 Z " fill="#505054" transform="translate(204.87109375,61.03515625)"/>
<path d="M0 0 C3.19140625 1.08984375 3.19140625 1.08984375 5.19140625 4.08984375 C4.85841846 10.73538663 -0.61074126 14.5101713 -5.05859375 18.90234375 C-5.91839844 19.78599609 -6.77820313 20.66964844 -7.6640625 21.58007812 C-8.50066406 22.41474609 -9.33726562 23.24941406 -10.19921875 24.109375 C-10.96266602 24.87354736 -11.72611328 25.63771973 -12.51269531 26.42504883 C-14.80859375 28.08984375 -14.80859375 28.08984375 -17.41577148 28.47802734 C-21.10707504 27.87919328 -23.13012331 25.49308603 -25.62109375 22.90234375 C-26.12318359 22.41958984 -26.62527344 21.93683594 -27.14257812 21.43945312 C-29.43297861 19.11789073 -30.73382444 17.61100803 -31.203125 14.33984375 C-30.80859375 12.08984375 -30.80859375 12.08984375 -29.68359375 10.27734375 C-26.88165899 8.50278507 -25.06457827 8.63400592 -21.80859375 9.08984375 C-20.10287548 10.37284053 -18.43010147 11.70194308 -16.80859375 13.08984375 C-15.95136719 12.13980469 -15.09414062 11.18976563 -14.2109375 10.2109375 C-13.05708789 8.98204076 -11.90207849 7.75423226 -10.74609375 6.52734375 C-10.18470703 5.89892578 -9.62332031 5.27050781 -9.04492188 4.62304688 C-4.73069273 0.11159583 -4.73069273 0.11159583 0 0 Z " fill="#4F5053" transform="translate(204.80859375,358.91015625)"/>
<path d="M0 0 C2.7734375 0.46484375 2.7734375 0.46484375 4.7734375 2.46484375 C5.41515444 5.4152228 5.59038974 6.64029597 4.7734375 9.46484375 C2.29552502 12.99936685 -0.69347629 15.90809396 -3.7890625 18.90234375 C-4.58892578 19.72927734 -5.38878906 20.55621094 -6.21289062 21.40820312 C-12.10103206 27.22905151 -12.10103206 27.22905151 -17.01171875 28.2578125 C-20.81132799 27.32060633 -22.4123669 26.1593118 -25.1015625 23.33984375 C-25.86210937 22.57414062 -26.62265625 21.8084375 -27.40625 21.01953125 C-29.50165874 18.07876448 -30.00282688 16.04461375 -30.2265625 12.46484375 C-29.1640625 10.58984375 -29.1640625 10.58984375 -27.2265625 9.46484375 C-24.2265625 9.08984375 -24.2265625 9.08984375 -21.2265625 9.46484375 C-20.2071506 10.4450475 -19.20409894 11.44287383 -18.2265625 12.46484375 C-15.00223414 12.34968917 -13.98525773 11.23119366 -11.640625 8.9609375 C-10.22773621 7.43429919 -8.84057034 5.88981455 -7.46875 4.32617188 C-4.99441327 1.67460035 -3.64017039 0.52443133 0 0 Z " fill="#4E5053" transform="translate(204.2265625,259.53515625)"/>
</svg>
