<?xml version="1.0" encoding="UTF-8"?>
<svg version="1.1" xmlns="http://www.w3.org/2000/svg" width="512" height="512">
<path d="M0 0 C1.09323074 -0.0071553 2.18646149 -0.01431061 3.31282043 -0.02168274 C5.09735374 -0.02571609 5.09735374 -0.02571609 6.91793823 -0.02983093 C8.17871689 -0.03640213 9.43949554 -0.04297333 10.73847961 -0.04974365 C14.91140486 -0.07071538 19.08433016 -0.08114121 23.2572937 -0.09111023 C24.69865818 -0.09516069 26.14002247 -0.0992777 27.58138657 -0.10346031 C34.35650215 -0.12249874 41.13160695 -0.13673125 47.90674412 -0.14507228 C55.70430218 -0.15483278 63.50157548 -0.18112666 71.29903328 -0.22157317 C77.34087195 -0.25182774 83.38262942 -0.26655005 89.42454231 -0.26985329 C93.02602738 -0.27219358 96.62720779 -0.28101927 100.22861099 -0.30631447 C104.25413902 -0.33413287 108.27903865 -0.3297357 112.30465698 -0.32279968 C113.48220047 -0.33560974 114.65974396 -0.3484198 115.87297058 -0.36161804 C126.81176494 -0.29319755 136.45165131 2.46996487 144.4994812 10.14717102 C152.00968499 18.52787571 154.66806094 26.87881426 154.61300659 38.05854797 C154.61315262 38.83956375 154.61329865 39.62057953 154.6134491 40.42526245 C154.6127549 42.99535441 154.60498566 45.56537304 154.59713745 48.13545227 C154.59527152 49.92192546 154.59384844 51.70839916 154.59284973 53.49487305 C154.58903836 58.18841473 154.57921987 62.88192529 154.56814575 67.57545471 C154.55790195 72.36823607 154.55334575 77.16102248 154.54830933 81.95381165 C154.53759635 91.35161175 154.52053651 100.74938879 154.4994812 110.14717102 C155.56746948 109.60230042 156.63545776 109.05742981 157.73580933 108.49604797 C159.16734676 107.77147882 160.59899323 107.04712508 162.0307312 106.32295227 C162.7310144 105.96495544 163.43129761 105.60695862 164.15280151 105.2381134 C190.81805798 91.79001784 221.65888744 90.33014417 249.90963745 99.53779602 C255.99273829 101.66269569 261.59693342 104.15449049 267.24142456 107.2570343 C268.22743149 107.79804779 269.21343842 108.33906128 270.22932434 108.89646912 C270.9784761 109.30920074 271.72762787 109.72193237 272.4994812 110.14717102 C272.48948845 108.67711105 272.48948845 108.67711105 272.47929382 107.17735291 C272.41829111 97.90933297 272.37341695 88.64135416 272.34404469 79.37317848 C272.3284361 74.60911774 272.30728633 69.84522001 272.27316284 65.08125305 C272.24039706 60.47765389 272.22259209 55.87421083 272.21484947 51.270504 C272.20933672 49.5203595 272.19857216 47.77022286 272.18229103 46.02014542 C272.05557519 31.82565012 273.06936628 20.22420123 283.12838745 9.39326477 C289.73934061 3.27314804 297.92543902 0.03480694 306.88647461 0.00672913 C307.97977585 0.00101898 309.07307709 -0.00469116 310.19950867 -0.01057434 C311.39436386 -0.0116922 312.58921906 -0.01281006 313.82028198 -0.01396179 C315.0825209 -0.0189267 316.34475983 -0.0238916 317.64524841 -0.02900696 C321.1063159 -0.04210932 324.56736399 -0.04857219 328.0284524 -0.05301762 C330.19412017 -0.05595307 332.35978271 -0.06005886 334.52544785 -0.06452179 C341.31071291 -0.07819374 348.09596594 -0.08786072 354.88124382 -0.09172368 C362.69575002 -0.09619772 370.51008072 -0.11371635 378.32453358 -0.14272428 C384.37567946 -0.16440113 390.4267762 -0.17443122 396.47796047 -0.1757648 C400.08663429 -0.17680895 403.69514308 -0.18263241 407.30377579 -0.20058441 C411.33672829 -0.2202567 415.36931788 -0.21575233 419.40231323 -0.20927429 C420.58502304 -0.21848907 421.76773285 -0.22770386 422.98628235 -0.23719788 C435.13694095 -0.17624702 443.7498635 2.47887401 452.4447937 11.06904602 C458.70540486 17.82736266 461.59835552 24.71497582 461.64665222 34.00230408 C461.65738518 35.42758926 461.65738518 35.42758926 461.66833496 36.88166809 C461.67102386 37.91239441 461.67371277 38.94312073 461.67648315 40.00508118 C461.68305435 41.10004913 461.68962555 42.19501709 461.69639587 43.32316589 C461.71609359 46.94418918 461.72778433 50.56517103 461.73776245 54.18623352 C461.74183798 55.42563061 461.74591351 56.66502769 461.75011253 57.94198227 C461.76881207 63.82756099 461.78338025 69.71312663 461.7917245 75.59872782 C461.80148114 82.36677629 461.82776612 89.13449634 461.8682254 95.90242922 C461.90216963 101.78478115 461.91388141 107.66702418 461.9179287 113.54946518 C461.92278648 116.04120992 461.93437722 118.53295136 461.95296669 121.0246315 C461.97742821 124.52098149 461.97637968 128.01648354 461.9694519 131.51289368 C461.98866699 133.04076508 461.98866699 133.04076508 462.00827026 134.59950256 C461.93312052 145.06607946 458.79288182 154.48405885 451.4994812 162.14717102 C445.25367237 167.84873925 437.262822 172.27928417 428.56222534 172.10932922 C427.8428479 172.07541077 427.12347046 172.04149231 426.3822937 172.00654602 C416.89101727 171.68643552 410.61402611 172.5254648 403.4994812 179.14717102 C401.67944799 180.9052477 399.8948647 182.6880193 398.13375854 184.50508118 C395.84185284 186.80794311 393.35389306 188.8149208 390.8119812 190.83467102 C387.95794051 193.1238495 385.15492114 195.43743305 382.4369812 197.88545227 C373.70696311 205.66513464 373.70696311 205.66513464 369.0619812 206.45967102 C365.25914937 206.12608928 363.42998328 205.56052567 360.4994812 203.14717102 C358.10835911 199.56048789 358.26567094 197.98320533 358.3041687 193.72920227 C358.30916382 192.59974182 358.31415894 191.47028137 358.31930542 190.30659485 C358.33751343 188.87210999 358.35572144 187.43762512 358.3744812 185.95967102 C358.4157312 181.40154602 358.4569812 176.84342102 358.4994812 172.14717102 C345.9594812 172.14717102 333.4194812 172.14717102 320.4994812 172.14717102 C321.9844812 178.08717102 321.9844812 178.08717102 323.4994812 184.14717102 C324.35505471 188.94740334 324.63777981 193.55146955 324.67648315 198.42427063 C324.68305435 199.11469955 324.68962555 199.80512848 324.69639587 200.51647949 C324.71593883 202.7774927 324.7277451 205.0384403 324.73776245 207.29951477 C324.74183798 208.07745455 324.74591351 208.85539433 324.75011253 209.65690804 C324.77088674 213.77044017 324.78522864 217.88393976 324.79464722 221.99751282 C324.80572721 226.2285456 324.84016986 230.45905481 324.87981892 234.68990231 C324.90603516 237.96115047 324.91434318 241.23227427 324.9179287 244.50361824 C324.92277731 246.06284202 324.93434179 247.62206088 324.95296669 249.18118095 C325.05699437 258.46191981 325.09756265 265.81874554 318.75338745 273.17060852 C313.36888567 277.47323581 309.58640857 279.47679555 302.4994812 279.14717102 C302.47369995 279.70920227 302.4479187 280.27123352 302.4213562 280.85029602 C300.92794025 302.98000505 295.85733414 322.70209788 278.63619995 337.76045227 C276.09941395 339.69068421 273.57825579 341.41968215 270.89401245 343.12763977 C270.07916382 343.64850159 269.26431519 344.1693634 268.42477417 344.70600891 C266.79086439 345.73461846 265.14284786 346.74121638 263.48043823 347.72309875 C259.30501399 350.16390932 259.30501399 350.16390932 256.75387573 354.07197571 C256.39432931 356.20400049 256.39432931 356.20400049 256.4994812 359.14717102 C257.12264725 359.18768082 257.74581329 359.22819061 258.38786316 359.26992798 C266.45851952 359.88952264 274.29840553 361.3037707 282.22994995 362.87763977 C283.63319494 363.15339859 285.03645972 363.42905667 286.43974304 363.70462036 C289.36780991 364.28130132 292.29486575 364.8628392 295.22140503 365.44721985 C298.1878328 366.03881837 301.15580895 366.62131981 304.1257019 367.19526672 C334.27023612 373.0243681 362.6956451 380.58917105 381.9994812 406.64717102 C384.85947813 410.91426027 387.3307573 415.33858112 389.6869812 419.89717102 C390.16844604 420.80692688 390.16844604 420.80692688 390.65963745 421.73506165 C396.12170679 432.69305613 398.18780313 444.73956952 399.7494812 456.77217102 C399.92221558 457.99162415 400.09494995 459.21107727 400.2729187 460.46748352 C403.17190676 482.00282336 403.17190676 482.00282336 398.77682495 489.52607727 C396.0148105 493.03138613 392.65042344 494.76352361 388.4994812 496.14717102 C386.56369921 496.24278804 384.62474376 496.27811483 382.6866045 496.2813921 C381.46637649 496.28584994 380.24614849 496.29030779 378.98894387 496.29490072 C377.62769495 496.29481142 376.26644604 496.29462156 374.90519714 496.29434204 C373.46462838 496.29764071 372.02406054 496.30136628 370.58349389 496.30548352 C366.61516461 496.31551134 362.64685046 496.31922157 358.67851031 496.32187283 C354.40228991 496.32577356 350.12608152 496.33535205 345.84986877 496.34408569 C335.51803126 496.36385658 325.18619276 496.37391707 314.85434106 496.38281348 C309.99044514 496.38719533 305.12655031 496.39256241 300.26265526 496.39780235 C284.09663398 496.4148152 267.93061339 496.4293098 251.76458454 496.43655109 C247.56855074 496.43846103 243.37251694 496.44038136 239.17648315 496.44233704 C237.61210288 496.44306265 237.61210288 496.44306265 236.01611897 496.44380292 C219.11818017 496.45210477 202.22031213 496.47744406 185.32240424 496.50991771 C167.97883888 496.54297643 150.6353095 496.56099878 133.29171246 496.56419533 C123.55182998 496.56636152 113.81205067 496.57512611 104.07219887 496.60065651 C95.77794011 496.62234728 87.4838096 496.63042193 79.1895257 496.62068973 C74.95763166 496.61614032 70.7260023 496.61806835 66.49414444 496.63745117 C62.61829188 496.65505009 58.74289774 496.65411201 54.86704054 496.63855388 C53.46658781 496.63617281 52.06610361 496.64052732 50.66569904 496.65238253 C42.86486902 496.7143185 37.09991549 496.51828431 30.4994812 492.14717102 C24.42287722 484.51246345 24.98324496 477.07079184 25.79782104 467.72383118 C28.78662111 441.66921238 33.38980481 418.9815785 51.4994812 399.14717102 C52.15819214 398.41885071 52.81690308 397.6905304 53.49557495 396.94013977 C64.18569432 385.69077874 78.55845806 377.61966831 93.57369995 373.79951477 C94.36809479 373.59429703 95.16248962 373.38907928 95.98095703 373.17764282 C108.4739643 370.0490459 121.15091312 367.69541221 133.78994751 365.24110413 C136.59871474 364.69346319 139.4058464 364.13767778 142.21301842 363.5819273 C144.93525849 363.04393376 147.65838972 362.51057205 150.38182449 361.97866249 C152.2949901 361.6043007 154.20747063 361.22644323 156.11993408 360.84851074 C157.27949615 360.62440018 158.43905823 360.40028961 159.63375854 360.16938782 C160.64900604 359.97129013 161.66425354 359.77319244 162.71026611 359.5690918 C165.35810822 359.16855632 167.82689084 359.06713515 170.4994812 359.14717102 C170.5526399 356.33330416 170.51956356 354.71564993 169.4994812 352.14717102 C166.82477702 349.55300712 163.72847724 347.71422121 160.5619812 345.77217102 C158.81515643 344.63796828 157.0716321 343.49866558 155.33151245 342.35420227 C154.49313843 341.80586731 153.6547644 341.25753235 152.79098511 340.69258118 C138.17976883 330.83864989 130.78798438 317.55669126 127.3041687 300.53388977 C124.37713491 285.3048118 124.37713491 285.3048118 124.4994812 279.14717102 C123.6641687 279.14330383 123.6641687 279.14330383 122.8119812 279.13935852 C116.19963385 278.80427335 112.21930335 276.76020987 107.4994812 272.14717102 C103.34175603 267.14828758 102.37406195 262.85390059 102.33834839 256.43525696 C102.33338348 255.75665619 102.32841858 255.07805542 102.32330322 254.37889099 C102.30868389 252.12976563 102.30187467 249.88071115 102.2963562 247.63154602 C102.29211514 246.47223949 102.29211514 246.47223949 102.28778839 245.28951263 C102.27278479 241.18737445 102.26356694 237.08527144 102.25924683 232.98310852 C102.25380695 228.78413017 102.22987884 224.58548351 102.20127487 220.38660812 C102.18244629 217.12793619 102.17743196 213.86934027 102.17591095 210.61061859 C102.17292153 209.06557176 102.16502199 207.52052504 102.15172577 205.97553253 C102.05743341 194.16083317 103.62917387 183.62840036 106.4994812 172.14717102 C93.9594812 172.14717102 81.4194812 172.14717102 68.4994812 172.14717102 C68.65735162 181.1372855 68.65735162 181.1372855 68.85983276 190.12641907 C68.869823 191.2508844 68.87981323 192.37534973 68.8901062 193.53388977 C68.9215271 195.25418396 68.9215271 195.25418396 68.95358276 197.00923157 C68.40357694 200.80989009 67.16201768 202.43507016 64.4994812 205.14717102 C62.53463745 205.95967102 62.53463745 205.95967102 60.5619812 206.14717102 C59.91358276 206.22967102 59.26518433 206.31217102 58.59713745 206.39717102 C53.2772341 205.76314157 49.27318942 201.4047271 45.3744812 198.02217102 C44.21756068 197.03054829 43.05999877 196.03967342 41.90182495 195.04951477 C41.32803101 194.55822083 40.75423706 194.06692688 40.16305542 193.56074524 C36.89733712 190.78579529 33.57131587 188.08795233 30.21432495 185.42451477 C27.4994812 183.14717102 27.4994812 183.14717102 24.81588745 180.40107727 C17.83581292 173.57590037 13.05557907 172.08164505 3.4369812 172.1686554 C2.66998901 172.18219055 1.90299683 172.19572571 1.11276245 172.20967102 C-8.85636635 172.31747967 -17.15235444 168.99522077 -24.5473938 162.29170227 C-30.76225894 155.63860946 -34.60787729 147.56987041 -34.64096069 138.40556335 C-34.64952591 136.98017242 -34.64952591 136.98017242 -34.65826416 135.52598572 C-34.65938202 134.49009308 -34.66049988 133.45420044 -34.66165161 132.38691711 C-34.66661652 131.29048889 -34.67158142 130.19406067 -34.67669678 129.06440735 C-34.69131382 125.4331347 -34.69812056 121.80190577 -34.7036438 118.17060852 C-34.70939673 115.64437357 -34.71515444 113.11813862 -34.72091675 110.59190369 C-34.73008308 105.9683052 -34.73638316 101.34471979 -34.7394135 96.72111452 C-34.7438858 89.93612593 -34.7613969 83.15133964 -34.79041409 76.36641252 C-34.8147313 70.47391404 -34.82236256 64.58148238 -34.82408905 58.68893814 C-34.82710853 56.19079616 -34.83511316 53.69265488 -34.84827423 51.19454575 C-34.86541188 47.69080744 -34.86343509 44.18755583 -34.85696411 40.68379211 C-34.86617889 39.66004486 -34.87539368 38.63629761 -34.8848877 37.58152771 C-34.81778647 25.92824084 -31.77985056 17.50307999 -23.5786438 9.20185852 C-16.5791851 2.71786383 -9.57477777 0.04320111 0 0 Z " fill="#D82751" transform="translate(42.500518798828125,7.8528289794921875)"/>
<path d="M0 0 C3.10649834 1.44342347 6.13744163 2.99096659 9.17138672 4.58105469 C24.20807226 12.12701406 39.47012773 17.88604344 56.19482422 20.40136719 C65.69619521 21.83308062 71.63329295 25.4083586 77.75732422 32.84667969 C81.58080279 38.30879193 82.64471995 43.382723 82.23388672 49.95605469 C82.81396484 50.05402344 83.39404297 50.15199219 83.99169922 50.25292969 C92.41551093 51.8654085 96.99932974 55.16811719 102.03466797 62.05371094 C105.25614265 67.16399813 104.75100717 73.14214332 104.23388672 78.95605469 C102.50478825 85.23705695 98.50884242 89.32803086 93.23388672 92.95605469 C89.46826496 94.97663222 86.48030441 95.15356249 82.23388672 94.95605469 C82.20810547 95.51808594 82.18232422 96.08011719 82.15576172 96.65917969 C80.66234577 118.78888871 75.59173966 138.51098155 58.37060547 153.56933594 C55.83381947 155.49956788 53.31266131 157.22856581 50.62841797 158.93652344 C49.81356934 159.45738525 48.9987207 159.97824707 48.15917969 160.51489258 C46.5252699 161.54350212 44.87725338 162.55010005 43.21484375 163.53198242 C39.03941951 165.97279299 39.03941951 165.97279299 36.48828125 169.88085938 C36.12873483 172.01288415 36.12873483 172.01288415 36.23388672 174.95605469 C36.85705276 174.99656448 37.48021881 175.03707428 38.12226868 175.07881165 C46.19292504 175.69840631 54.03281105 177.11265437 61.96435547 178.68652344 C63.36760045 178.96228226 64.77086524 179.23794034 66.17414856 179.51350403 C69.10221542 180.09018499 72.02927127 180.67172287 74.95581055 181.25610352 C77.92223832 181.84770203 80.89021447 182.43020348 83.86010742 183.00415039 C114.00464164 188.83325177 142.43005062 196.39805472 161.73388672 222.45605469 C164.59388365 226.72314393 167.06516282 231.14746479 169.42138672 235.70605469 C169.90285156 236.61581055 169.90285156 236.61581055 170.39404297 237.54394531 C175.85611231 248.5019398 177.92220865 260.54845318 179.48388672 272.58105469 C179.65662109 273.80050781 179.82935547 275.01996094 180.00732422 276.27636719 C182.90631227 297.81170703 182.90631227 297.81170703 178.51123047 305.33496094 C175.74921602 308.8402698 172.38482896 310.57240728 168.23388672 311.95605469 C166.29810473 312.05167171 164.35914928 312.0869985 162.42101002 312.09027576 C161.20078201 312.09473361 159.980554 312.09919145 158.72334939 312.10378438 C157.36210047 312.10369508 156.00085156 312.10350522 154.63960266 312.10322571 C153.1990339 312.10652437 151.75846606 312.11024995 150.31789941 312.11436719 C146.34957013 312.12439501 142.38125598 312.12810524 138.41291583 312.1307565 C134.13669543 312.13465723 129.86048704 312.14423572 125.58427429 312.15296936 C115.25243678 312.17274024 104.92059828 312.18280074 94.58874658 312.19169715 C89.72485066 312.196079 84.86095583 312.20144608 79.99706078 312.20668602 C63.8310395 312.22369887 47.66501891 312.23819346 31.49899006 312.24543476 C27.30295625 312.2473447 23.10692246 312.24926502 18.91088867 312.2512207 C17.3465084 312.25194631 17.3465084 312.25194631 15.75052448 312.25268658 C-1.14741431 312.26098844 -18.04528235 312.28632773 -34.94319024 312.31880138 C-52.2867556 312.3518601 -69.63028498 312.36988245 -86.97388202 312.373079 C-96.71376451 312.37524519 -106.45354381 312.38400978 -116.19339561 312.40954018 C-124.48765437 312.43123095 -132.78178488 312.43930559 -141.07606878 312.42957339 C-145.30796282 312.42502398 -149.53959218 312.42695202 -153.77145004 312.44633484 C-157.6473026 312.46393376 -161.52269674 312.46299567 -165.39855395 312.44743755 C-166.79900667 312.44505648 -168.19949087 312.44941099 -169.59989544 312.4612662 C-177.40072547 312.52320217 -183.16567899 312.32716798 -189.76611328 307.95605469 C-195.84271726 300.32134712 -195.28234953 292.87967551 -194.46777344 283.53271484 C-191.47897338 257.47809605 -186.87578968 234.79046217 -168.76611328 214.95605469 C-168.10740234 214.22773438 -167.44869141 213.49941406 -166.77001953 212.74902344 C-156.07990016 201.49966241 -141.70713642 193.42855198 -126.69189453 189.60839844 C-125.89749969 189.40318069 -125.10310486 189.19796295 -124.28463745 188.98652649 C-111.79163018 185.85792956 -99.11468136 183.50429588 -86.47564697 181.04998779 C-83.66687975 180.50234685 -80.85974808 179.94656145 -78.05257607 179.39081097 C-75.33033599 178.85281743 -72.60720476 178.31945572 -69.88376999 177.78754616 C-67.97060438 177.41318437 -66.05812385 177.03532689 -64.1456604 176.65739441 C-62.98609833 176.43328384 -61.82653625 176.20917328 -60.63183594 175.97827148 C-59.61658844 175.7801738 -58.60134094 175.58207611 -57.55532837 175.37797546 C-54.90748626 174.97743999 -52.43870365 174.87601881 -49.76611328 174.95605469 C-49.71295459 172.14218782 -49.74603092 170.5245336 -50.76611328 167.95605469 C-53.44081746 165.36189078 -56.53711724 163.52310488 -59.70361328 161.58105469 C-61.45043805 160.44685195 -63.19396239 159.30754924 -64.93408203 158.16308594 C-65.77245605 157.61475098 -66.61083008 157.06641602 -67.47460938 156.50146484 C-82.08582566 146.64753356 -89.4776101 133.36557493 -92.96142578 116.34277344 C-95.88845957 101.11369547 -95.88845957 101.11369547 -95.76611328 94.95605469 C-96.32298828 94.95347656 -96.87986328 94.95089844 -97.45361328 94.94824219 C-104.06596063 94.61315702 -108.04629113 92.56909353 -112.76611328 87.95605469 C-118.1199448 81.51907806 -118.48640433 75.05418403 -117.76611328 66.95605469 C-115.84219167 59.96735149 -110.91207558 55.37181224 -104.78173828 51.79980469 C-101.785155 50.54542099 -98.97055669 50.83280686 -95.76611328 50.95605469 C-95.86923828 49.67730469 -95.97236328 48.39855469 -96.07861328 47.08105469 C-96.07861328 40.02523226 -92.84890118 34.4891751 -88.45361328 29.14355469 C-80.76452842 22.88499724 -74.10122792 20.91856442 -64.46923828 19.16699219 C-47.81831705 16.10618848 -32.04013094 10.57192802 -17.53320312 1.75024414 C-11.59018357 -1.6973765 -6.53126123 -2.46493142 0 0 Z " fill="#F1B68E" transform="translate(262.76611328125,192.0439453125)"/>
<path d="M0 0 C1.09330124 -0.00571014 2.18660248 -0.01142029 3.31303406 -0.01730347 C4.50788925 -0.01842133 5.70274445 -0.01953918 6.93380737 -0.02069092 C8.1960463 -0.02565582 9.45828522 -0.03062073 10.7587738 -0.03573608 C14.21984129 -0.04883845 17.68088939 -0.05530132 21.14197779 -0.05974674 C23.30764556 -0.06268219 25.4733081 -0.06678798 27.63897324 -0.07125092 C34.4242383 -0.08492286 41.20949133 -0.09458985 47.99476922 -0.09845281 C55.80927541 -0.10292685 63.62360611 -0.12044548 71.43805897 -0.1494534 C77.48920485 -0.17113025 83.54030159 -0.18116035 89.59148586 -0.18249393 C93.20015968 -0.18353807 96.80866848 -0.18936154 100.41730118 -0.20731354 C104.45025368 -0.22698583 108.48284327 -0.22248146 112.51583862 -0.21600342 C113.69854843 -0.2252182 114.88125824 -0.23443298 116.09980774 -0.243927 C128.25046635 -0.18297614 136.86338889 2.47214489 145.55831909 11.06231689 C151.81893025 17.82063354 154.71188091 24.70824669 154.76017761 33.99557495 C154.77091057 35.42086014 154.77091057 35.42086014 154.78186035 36.87493896 C154.78454926 37.90566528 154.78723816 38.9363916 154.79000854 39.99835205 C154.79657974 41.09332001 154.80315094 42.18828796 154.80992126 43.31643677 C154.82961898 46.93746005 154.84130972 50.5584419 154.85128784 54.17950439 C154.85536337 55.41890148 154.8594389 56.65829857 154.86363792 57.93525314 C154.88233746 63.82083186 154.89690564 69.7063975 154.90524989 75.5919987 C154.91500653 82.36004716 154.94129151 89.12776722 154.98175079 95.8957001 C155.01569502 101.77805203 155.0274068 107.66029505 155.03145409 113.54273605 C155.03631187 116.0344808 155.04790261 118.52622224 155.06649208 121.01790237 C155.0909536 124.51425236 155.08990507 128.00975441 155.08297729 131.50616455 C155.10219238 133.03403595 155.10219238 133.03403595 155.12179565 134.59277344 C155.04664591 145.05935034 151.90640721 154.47732972 144.61300659 162.14044189 C138.36719776 167.84201012 130.37634739 172.27255504 121.67575073 172.1026001 C120.95637329 172.06868164 120.23699585 172.03476318 119.49581909 171.99981689 C110.00454266 171.67970639 103.7275515 172.51873568 96.61300659 179.14044189 C94.79297338 180.89851857 93.00839009 182.68129018 91.24728394 184.49835205 C88.95537823 186.80121399 86.46741845 188.80819167 83.92550659 190.82794189 C81.0714659 193.11712037 78.26844654 195.43070393 75.55050659 197.87872314 C66.8204885 205.65840551 66.8204885 205.65840551 62.17550659 206.45294189 C58.37267476 206.11936015 56.54350867 205.55379655 53.61300659 203.14044189 C51.22188451 199.55375877 51.37919633 197.9764762 51.41769409 193.72247314 C51.42268921 192.5930127 51.42768433 191.46355225 51.43283081 190.29986572 C51.45103882 188.86538086 51.46924683 187.430896 51.48800659 185.95294189 C51.52925659 181.39481689 51.57050659 176.83669189 51.61300659 172.14044189 C38.74300659 172.14044189 25.87300659 172.14044189 12.61300659 172.14044189 C10.96300659 168.18044189 9.31300659 164.22044189 7.61300659 160.14044189 C6.26281301 157.43754974 4.91713711 154.81958365 3.42550659 152.20294189 C3.04386353 151.53182373 2.66222046 150.86070557 2.26901245 150.16925049 C-6.80315748 134.60275472 -18.86396394 122.6439179 -33.38699341 112.14044189 C-35.34167194 110.18576336 -34.54408321 106.41959338 -34.54812622 103.75006104 C-34.55309113 102.97593872 -34.55805603 102.20181641 -34.56317139 101.40423584 C-34.57784309 98.82801436 -34.58460675 96.25185465 -34.59011841 93.67559814 C-34.59587009 91.88494363 -34.60162782 90.09428912 -34.60739136 88.30363464 C-34.61791852 84.53821526 -34.62374851 80.7728173 -34.62722778 77.00738525 C-34.63268623 72.20253435 -34.65664974 67.39797062 -34.68519974 62.59320927 C-34.70391672 58.88780421 -34.70903673 55.18246668 -34.71056366 51.47701836 C-34.7135753 49.70734542 -34.72155307 47.93767325 -34.73474884 46.16804695 C-34.83321392 31.93567229 -33.90558232 20.31273547 -23.75808716 9.38653564 C-17.147134 3.26641891 -8.96103559 0.02807782 0 0 Z " fill="#36C46F" transform="translate(349.3869934082031,7.85955810546875)"/>
<path d="M0 0 C21.57282473 18.12458446 36.52116416 43.78914487 40.38671875 71.87890625 C40.73379377 76.75154258 40.740907 81.58582297 40.6796875 86.46875 C40.67544266 87.77928848 40.67119781 89.08982697 40.66682434 90.44007874 C40.65555328 93.86777 40.62624757 97.29505919 40.5927124 100.72259521 C40.56162059 104.24274257 40.54823687 107.76295706 40.53320312 111.28320312 C40.50135382 118.14859917 40.45038275 125.01373323 40.38671875 131.87890625 C39.3015636 130.25117352 38.22025288 128.62072511 37.16015625 126.9765625 C32.2197482 119.78675079 26.61090796 117.34616301 18.38671875 114.87890625 C18.30035156 114.17765625 18.21398437 113.47640625 18.125 112.75390625 C16.73054423 103.3381315 13.63621906 97.40125997 6.42578125 91.203125 C1.07222818 87.72639226 -4.24182444 86.40484457 -10.48828125 85.50390625 C-29.53155433 82.39220583 -47.01123245 75.48525382 -63.7421875 65.91015625 C-68.45553874 64.21719744 -73.00339959 63.87715161 -77.74536133 65.69726562 C-79.96214028 66.84867803 -82.09671838 68.09317802 -84.23828125 69.37890625 C-99.24519565 77.76842192 -115.11509302 83.14230219 -132.16918945 85.42529297 C-137.75617336 86.23583434 -141.8879998 87.78734201 -146.70751953 90.7512207 C-148.61328125 91.87890625 -148.61328125 91.87890625 -151.61328125 92.87890625 C-152.70793421 94.68657286 -152.70793421 94.68657286 -153.61328125 96.87890625 C-154.02707031 97.62527344 -154.44085938 98.37164062 -154.8671875 99.140625 C-157.95814961 104.87043834 -159.29847947 109.37300277 -159.61328125 115.87890625 C-160.19335938 115.976875 -160.7734375 116.07484375 -161.37109375 116.17578125 C-168.30772818 117.50358586 -173.11027375 119.58115754 -177.36328125 125.44140625 C-178.12409376 126.58008898 -178.87476245 127.72563958 -179.61328125 128.87890625 C-180.27328125 129.86890625 -180.93328125 130.85890625 -181.61328125 131.87890625 C-181.68342482 124.31501143 -181.73641392 116.75115118 -181.76871777 109.18700314 C-181.78423805 105.67297141 -181.80521943 102.1591655 -181.83959961 98.64526367 C-181.87905381 94.58640635 -181.89310278 90.5277785 -181.90625 86.46875 C-181.92173386 85.23374252 -181.93721771 83.99873505 -181.95317078 82.7263031 C-181.95864349 53.74097865 -168.6202399 27.31262294 -148.80078125 6.69140625 C-107.66775635 -32.9015366 -44.39512515 -36.3747257 0 0 Z " fill="#472F22" transform="translate(326.61328125,127.12109375)"/>
<path d="M0 0 C1.453125 1.921875 1.453125 1.921875 3.25 4.75 C6.93308065 10.41423234 10.73928963 15.97281028 14.625 21.5 C15.22038574 22.34780029 15.81577148 23.19560059 16.42919922 24.0690918 C17.66146937 25.82346312 18.8940581 27.57761072 20.12695312 29.33154297 C22.00041295 32.00058831 23.8683331 34.67342045 25.734375 37.34765625 C35.10796082 51.79579463 35.10796082 51.79579463 46 65 C49.693507 65.20146402 52.47940432 65.17353189 56 64 C57.55550233 67.29726805 59.06262725 70.61460213 60.5625 73.9375 C61.00013672 74.86369141 61.43777344 75.78988281 61.88867188 76.74414062 C64.70280761 83.05932713 65.44015643 87.27100618 64 94 C63.76587608 95.51336782 63.53808955 97.02772861 63.31640625 98.54296875 C63.06700151 100.09145262 62.81565417 101.63962469 62.5625 103.1875 C61.42797 110.21909253 60.37870237 117.25316132 59.4296875 124.3125 C59 127 59 127 58 130 C38.45025454 130.09351272 18.90055458 130.16401319 -0.64936829 130.20724869 C-9.7270964 130.22785882 -18.8046854 130.25594973 -27.88232422 130.30175781 C-35.79598905 130.34167309 -43.70955311 130.36744408 -51.62331581 130.37635398 C-55.81219586 130.38156081 -60.00078768 130.39376624 -64.1895752 130.42292023 C-68.13599719 130.45016362 -72.08201348 130.45842712 -76.02852058 130.45243073 C-77.47325918 130.45352699 -78.91801199 130.4614279 -80.36266899 130.4768219 C-88.29950536 130.55721406 -94.2961632 130.49038467 -101 126 C-107.07660398 118.36529243 -106.51623625 110.92362082 -105.70166016 101.57666016 C-102.7128601 75.52204136 -98.1096764 52.83440748 -80 33 C-79.34128906 32.27167969 -78.68257812 31.54335938 -78.00390625 30.79296875 C-59.73320335 11.56645443 -26.26578222 0 0 0 Z " fill="#F1F7FD" transform="translate(174,374)"/>
<path d="M0 0 C33.11567507 5.88755417 65.16379948 11.69853744 86.5 40.5 C89.35999693 44.76708925 91.8312761 49.1914101 94.1875 53.75 C94.66896484 54.65975586 94.66896484 54.65975586 95.16015625 55.58789062 C100.62222559 66.54588511 102.68832193 78.5923985 104.25 90.625 C104.42273438 91.84445312 104.59546875 93.06390625 104.7734375 94.3203125 C107.67242556 115.85565234 107.67242556 115.85565234 103.27734375 123.37890625 C100.5153293 126.88421511 97.15094224 128.61635259 93 130 C90.97056635 130.0915599 88.93818981 130.12194041 86.9066925 130.12025452 C84.99470062 130.12231651 84.99470062 130.12231651 83.04408264 130.12442017 C81.62875343 130.12088101 80.21342445 130.1172462 78.7980957 130.11352539 C77.30998741 130.11324336 75.82187897 130.11340156 74.33377075 130.1139679 C70.29067677 130.11425527 66.24761234 130.10836824 62.20452523 130.10139394 C57.98044245 130.0951504 53.75635902 130.09455581 49.53227234 130.09336853 C41.53189869 130.09025817 33.53153867 130.08204875 25.53117102 130.07201904 C16.42365871 130.06084875 7.31614575 130.05534514 -1.7913717 130.05032361 C-20.52758887 130.0398659 -39.26379334 130.02227216 -58 130 C-58.48130123 127.28131053 -58.96220054 124.56255098 -59.44287109 121.84375 C-59.64601173 120.69664551 -59.64601173 120.69664551 -59.85325623 119.52636719 C-60.82543765 114.02491839 -61.75922874 108.51929175 -62.625 103 C-62.74617188 102.24589844 -62.86734375 101.49179687 -62.9921875 100.71484375 C-63.22884033 99.21518507 -63.45511175 97.71384547 -63.67016602 96.2109375 C-63.89089676 94.73133895 -64.14701974 93.25661043 -64.43725586 91.7890625 C-65.53386075 85.349245 -63.95537044 80.87202757 -61.3125 75 C-60.78366211 73.71416016 -60.78366211 73.71416016 -60.24414062 72.40234375 C-57.56743166 66.22682874 -57.56743166 66.22682874 -55.07495117 65.23046875 C-53 65 -53 65 -49.625 65.375 C-46.12590141 65.36774262 -46.12590141 65.36774262 -44.50927734 63.68481445 C-44.0395752 63.1043335 -43.56987305 62.52385254 -43.0859375 61.92578125 C-42.56821777 61.28640625 -42.05049805 60.64703125 -41.51708984 59.98828125 C-39.23565127 56.99825297 -37.09340005 53.93634884 -35 50.8125 C-34.04120877 49.40046808 -33.08153007 47.98903847 -32.12109375 46.578125 C-31.61690918 45.83626953 -31.11272461 45.09441406 -30.59326172 44.33007812 C-27.78181123 40.21845025 -24.9217494 36.14096761 -22.0625 32.0625 C-21.47686279 31.2262207 -20.89122559 30.38994141 -20.2878418 29.52832031 C-17.38460762 25.38644221 -14.4725604 21.25105233 -11.546875 17.125 C-11.001521 16.35534912 -10.45616699 15.58569824 -9.89428711 14.79272461 C-8.87076439 13.34961919 -7.84564148 11.9076468 -6.81860352 10.46704102 C-6.35897217 9.81920654 -5.89934082 9.17137207 -5.42578125 8.50390625 C-5.02786377 7.94517822 -4.62994629 7.3864502 -4.2199707 6.81079102 C-2.72451071 4.59109385 -1.36174555 2.30360106 0 0 Z " fill="#F1F7FD" transform="translate(338,374)"/>
<path d="M0 0 C2.0868652 1.91626016 3.62201517 3.59156979 5.3125 5.8125 C5.786875 6.40417969 6.26125 6.99585938 6.75 7.60546875 C7.72043335 8.81786001 8.68353609 10.03615584 9.63916016 11.26025391 C11.55271304 13.70660803 13.52677219 16.10166028 15.5 18.5 C16.221875 19.386875 16.94375 20.27375 17.6875 21.1875 C20.71689998 24.87190538 23.79855337 28.5104746 26.89868164 32.13549805 C29.17561908 34.80615843 31.40768915 37.49597441 33.55859375 40.26953125 C34.34363281 41.27371094 35.12867188 42.27789062 35.9375 43.3125 C36.97197266 44.66794922 36.97197266 44.66794922 38.02734375 46.05078125 C40.01200756 48.468579 40.01200756 48.468579 44 48 C45.58591441 46.81458914 45.58591441 46.81458914 46.91796875 45.10546875 C47.44535645 44.48526855 47.97274414 43.86506836 48.51611328 43.22607422 C49.0676709 42.55334473 49.61922852 41.88061523 50.1875 41.1875 C50.76483887 40.50187988 51.34217773 39.81625977 51.93701172 39.10986328 C53.63763705 37.08359636 55.32150643 35.04461659 57 33 C57.81339844 32.01386719 58.62679687 31.02773438 59.46484375 30.01171875 C60.89833254 28.26198108 62.32677752 26.50809835 63.75 24.75 C66.79488323 21.02847605 69.90987015 17.36793257 73.04638672 13.72338867 C76.37172139 9.83405001 79.36976004 5.79957049 82.171875 1.51171875 C84.98687555 -0.81607016 87.41984011 -0.16285896 91 0 C93.3902524 0.36520523 95.77142232 0.79406327 98.140625 1.27734375 C98.78948669 1.40814835 99.43834839 1.53895294 100.10687256 1.67372131 C101.46544609 1.94883931 102.82337632 2.22715205 104.18066406 2.50854492 C106.25712674 2.93897731 108.33533014 3.35997651 110.4140625 3.77929688 C120.48083276 5.82694425 120.48083276 5.82694425 124 7 C122.40519985 11.81221672 119.69298994 15.50348063 116.75 19.5625 C115.65835022 21.08818121 114.56722562 22.6142383 113.4765625 24.140625 C112.62046387 25.33461914 112.62046387 25.33461914 111.74707031 26.55273438 C108.84414445 30.61910229 105.98593922 34.71653908 103.125 38.8125 C102.5479834 39.6362915 101.9709668 40.46008301 101.37646484 41.30883789 C98.28559106 45.72223669 95.20626112 50.14324772 92.140625 54.57421875 C91.5101123 55.48260498 90.87959961 56.39099121 90.22998047 57.3269043 C89.02250649 59.06691912 87.81823305 60.80916075 86.61767578 62.55395508 C85.10797583 64.72595635 83.56208214 66.86556033 82 69 C81.41476562 69.845625 80.82953125 70.69125 80.2265625 71.5625 C76.49133852 73.97401303 72.31763882 73.29663167 68 73 C66.61122898 75.9641878 65.27085518 78.9480242 63.9375 81.9375 C63.35258789 83.18370117 63.35258789 83.18370117 62.75585938 84.45507812 C60.06146128 90.58304548 59.74974719 94.51120549 61 101 C61.29372262 102.94317574 61.58686255 104.88645064 61.87232971 106.83085632 C62.52925727 111.28069153 63.22852128 115.72416785 63.91870117 120.16894531 C64.26145214 122.38057854 64.60153159 124.59261073 64.94140625 126.8046875 C65.10075401 127.82186356 65.10075401 127.82186356 65.26332092 128.85958862 C65.6856152 131.61197534 66 134.20970316 66 137 C50.16 137 34.32 137 18 137 C21.33333333 112.55555556 21.33333333 112.55555556 23.44921875 101.53125 C24.65472564 93.80232642 23.12820188 89.14231772 20 82.125 C19.6184375 81.24585938 19.236875 80.36671875 18.84375 79.4609375 C17.9054545 77.30285785 16.95738571 75.14966194 16 73 C12.94614641 72.92397141 12.94614641 72.92397141 9.75 73.5 C4.95005517 72.86000736 3.90139805 71.46030972 0.98828125 67.765625 C-2.38799753 63.06934725 -5.68110835 58.32199581 -8.921875 53.53125 C-12.16826593 48.73515887 -15.48588731 43.99066609 -18.8125 39.25 C-19.39088623 38.4235498 -19.96927246 37.59709961 -20.56518555 36.74560547 C-23.69792581 32.27124731 -26.84373127 27.80658989 -30.00390625 23.3515625 C-30.65190186 22.4347168 -31.29989746 21.51787109 -31.9675293 20.57324219 C-33.21902572 18.80291857 -34.47427634 17.0352417 -35.73364258 15.27050781 C-36.2933374 14.47741211 -36.85303223 13.68431641 -37.4296875 12.8671875 C-37.92710449 12.16706543 -38.42452148 11.46694336 -38.93701172 10.74560547 C-40 9 -40 9 -40 7 C-36.20847648 6.20764675 -32.41675484 5.41624544 -28.625 4.625 C-27.56410156 4.40328125 -26.50320312 4.1815625 -25.41015625 3.953125 C-23.29115241 3.5111242 -21.1716854 3.07133794 -19.05175781 2.63378906 C-17.09618039 2.22765474 -15.14221035 1.81365362 -13.19042969 1.38964844 C-3.59977393 -0.64930987 -3.59977393 -0.64930987 0 0 Z " fill="#E1EDFE" transform="translate(214,367)"/>
<path d="M0 0 C26.41527621 4.71419187 49.97796509 14.19711766 66.5 36.5 C69.35999693 40.76708925 71.8312761 45.1914101 74.1875 49.75 C74.50847656 50.35650391 74.82945312 50.96300781 75.16015625 51.58789062 C80.62222559 62.54588511 82.68832193 74.5923985 84.25 86.625 C84.42273438 87.84445312 84.59546875 89.06390625 84.7734375 90.3203125 C87.67242556 111.85565234 87.67242556 111.85565234 83.27734375 119.37890625 C80.5153293 122.88421511 77.15094224 124.61635259 73 126 C70.77663393 126.08971327 68.55061107 126.11757853 66.32543945 126.11352539 C65.652005 126.11367142 64.97857056 126.11381744 64.284729 126.1139679 C62.06088021 126.11327175 59.83711539 126.10549332 57.61328125 126.09765625 C56.07057236 126.09579101 54.52786289 126.09436761 52.9851532 126.09336853 C48.92616132 126.08955169 44.86720527 126.07972851 40.80822754 126.06866455 C36.66577641 126.05843252 32.5233195 126.05386707 28.38085938 126.04882812 C20.25388982 126.03810551 12.12694937 126.02103907 4 126 C4.31995131 123.59380484 4.64013397 121.18764085 4.96044922 118.78149414 C5.05053757 118.10380226 5.14062592 117.42611038 5.23344421 116.72788239 C5.68789114 113.31550882 6.15054346 109.90464202 6.6328125 106.49609375 C9.75562732 82.1846672 9.0715912 57.1604198 5.6875 32.9375 C5.58090057 32.17357941 5.47430115 31.40965881 5.36447144 30.62258911 C4.15663206 22.16404748 2.63164393 13.83847885 0.56176758 5.54125977 C0 3 0 3 0 0 Z " fill="#0D3E54" transform="translate(358,378)"/>
<path d="M0 0 C-0.98783819 6.78702944 -2.08958943 13.52463569 -3.4375 20.25 C-10.13230655 55.66699141 -9.08089351 90.4707418 -4 126 C-12.85824612 126.09293193 -21.71632283 126.16388192 -30.57495117 126.20724869 C-34.68897802 126.2280691 -38.80266983 126.25628411 -42.91650391 126.30175781 C-46.89117701 126.34541523 -50.8655291 126.36917877 -54.84042358 126.37950897 C-56.35221404 126.38686487 -57.86398814 126.401229 -59.37564087 126.42292023 C-74.25125932 126.62776748 -74.25125932 126.62776748 -81 122 C-87.07660398 114.36529243 -86.51623625 106.92362082 -85.70166016 97.57666016 C-82.7128601 71.52204136 -78.1096764 48.83440748 -60 29 C-59.01193359 27.90751953 -59.01193359 27.90751953 -58.00390625 26.79296875 C-44.21658045 12.28437439 -20.46745797 0 0 0 Z " fill="#0D3E54" transform="translate(154,378)"/>
<path d="M0 0 C9.06939784 2.13397596 16.71515813 13.16180912 23.1875 19.6875 C24.25887887 20.76390654 25.33049182 21.84008014 26.40234375 22.91601562 C29.00009638 25.52466745 31.59467962 28.13644471 34.1875 30.75 C38.62702014 27.13977224 42.6872984 23.28624177 46.65625 19.16796875 C47.38763184 18.41412399 47.38763184 18.41412399 48.13378906 17.64505005 C50.17031774 15.54562419 52.20582267 13.44600551 54.21728516 11.32250977 C55.70390356 9.7569073 57.20918179 8.21141273 58.71875 6.66796875 C59.60111328 5.74781982 60.48347656 4.8276709 61.39257812 3.87963867 C64.74343395 1.32639659 67.0190567 0.93395629 71.1875 0.75 C74.58558026 1.85208008 75.13481917 2.67097876 77.1875 5.75 C77.78202098 9.1189522 78.01169179 11.55415719 76.00341797 14.46801758 C70.44448429 20.58848484 64.61982043 26.43047876 58.75 32.25 C57.7217702 33.27320139 56.69377374 34.29663733 55.66601562 35.3203125 C53.17585662 37.79957999 50.68257167 40.27567538 48.1875 42.75 C49.80296932 46.91392034 52.86493931 49.57821541 56.03515625 52.58203125 C57.20956512 53.72140691 58.38337498 54.86140026 59.55664062 56.00195312 C61.40254382 57.78597424 63.25256413 59.56493648 65.11352539 61.33325195 C66.91363146 63.04840008 68.69404261 64.78214173 70.47265625 66.51953125 C71.30858055 67.29959282 71.30858055 67.29959282 72.16139221 68.09541321 C75.90091405 71.78467374 77.09059622 74.50513163 77.1875 79.75 C75.84187601 82.69755732 75.10195456 84.29277272 72.1875 85.75 C68.85871103 86.28260623 66.34515304 86.54094816 63.46337891 84.57202148 C57.35036744 79.00561443 51.50679067 73.18208786 45.6875 67.3125 C44.66429861 66.2842702 43.64086267 65.25627374 42.6171875 64.22851562 C40.13792001 61.73835662 37.66182462 59.24507167 35.1875 56.75 C28.66604246 62.10397982 22.79328929 68.06301909 16.875 74.0625 C14.90261498 76.06146617 12.92693603 78.0570922 10.94921875 80.05078125 C10.08256592 80.92903564 9.21591309 81.80729004 8.32299805 82.7121582 C5.04054311 85.84450659 2.71380522 86.1105261 -1.8359375 86.01953125 C-3.8125 85.75 -3.8125 85.75 -6.3125 84.25 C-8.39831888 80.77363519 -8.61992771 77.65026374 -7.8125 73.75 C-6.08803438 70.95960256 -3.85540271 68.85630128 -1.46875 66.625 C-0.8250647 65.99263428 -0.18137939 65.36026855 0.48181152 64.70874023 C2.53230086 62.70286187 4.60886293 60.72665349 6.6875 58.75 C8.08645357 57.39119229 9.48361144 56.03053321 10.87890625 54.66796875 C14.29467622 51.3401754 17.73410136 48.03870978 21.1875 44.75 C19.55559981 40.57198388 16.48444558 37.8105633 13.33984375 34.7421875 C12.76794815 34.17549347 12.19605255 33.60879944 11.60682678 33.02493286 C9.78424775 31.22012728 7.95510926 29.42216682 6.125 27.625 C4.29221379 25.81982685 2.46090471 24.01321611 0.63246155 22.2036438 C-0.50442031 21.07902464 -1.64396458 19.95708937 -2.78639221 18.83810425 C-7.66900627 14.01752793 -7.66900627 14.01752793 -8.1875 9.4375 C-7.8125 5.75 -7.8125 5.75 -5.6875 2.8125 C-2.8125 0.75 -2.8125 0.75 0 0 Z " fill="#FEFCFD" transform="translate(67.8125,50.25)"/>
<path d="M0 0 C2.78113748 1.03366656 4.7358313 2.54369666 7.07714844 4.36645508 C8.00269531 5.0805957 8.92824219 5.79473633 9.88183594 6.53051758 C10.84089844 7.28075195 11.79996094 8.03098633 12.78808594 8.80395508 C14.69592142 10.28443541 16.60472702 11.76366672 18.51464844 13.24145508 C19.35850098 13.90016602 20.20235352 14.55887695 21.07177734 15.23754883 C23.07186353 16.83261899 23.07186353 16.83261899 25.16308594 17.80395508 C24.71972459 21.02149173 23.81748647 23.75175925 22.49902344 26.69458008 C22.02335937 27.75999023 22.02335937 27.75999023 21.53808594 28.84692383 C20.87593868 30.30830351 20.2015789 31.76421613 19.51464844 33.21411133 C17.08787731 38.73402106 17.08641822 42.8969454 18.16308594 48.80395508 C18.45543643 50.74823758 18.74740178 52.69258305 19.03417969 54.63769531 C19.69432947 59.0861589 20.39174245 63.52899387 21.08178711 67.97290039 C21.42453808 70.18453362 21.76461753 72.39656581 22.10449219 74.60864258 C22.21072403 75.28675995 22.31695587 75.96487732 22.42640686 76.6635437 C22.84870113 79.41593042 23.16308594 82.01365824 23.16308594 84.80395508 C7.32308594 84.80395508 -8.51691406 84.80395508 -24.83691406 84.80395508 C-21.50358073 60.35951063 -21.50358073 60.35951063 -19.38769531 49.33520508 C-18.1870969 41.63775141 -19.68242928 37.0808328 -22.83691406 30.11645508 C-23.59167484 28.42716787 -24.34188831 26.73583951 -25.08691406 25.04223633 C-25.42207031 24.30013916 -25.75722656 23.55804199 -26.10253906 22.79345703 C-26.83691406 20.80395508 -26.83691406 20.80395508 -26.83691406 17.80395508 C-24.76684353 16.10256864 -22.73958073 14.60647622 -20.52441406 13.11645508 C-19.23860337 12.23198907 -17.95345532 11.34655901 -16.66894531 10.46020508 C-16.02393066 10.01805664 -15.37891602 9.5759082 -14.71435547 9.12036133 C-12.97284593 7.89926648 -11.28063006 6.63658135 -9.59863281 5.33520508 C-8.64601562 4.60301758 -7.69339844 3.87083008 -6.71191406 3.11645508 C-5.86371094 2.45258789 -5.01550781 1.7887207 -4.14160156 1.10473633 C-1.83691406 -0.19604492 -1.83691406 -0.19604492 0 0 Z " fill="#C1224F" transform="translate(256.8369140625,419.196044921875)"/>
<path d="M0 0 C3.7733577 1.09770406 5.28274379 1.72477055 7.4375 5 C8.056383 10.81332795 6.94013348 13.52779356 3.4375 18.125 C2.99889648 18.71063721 2.56029297 19.29627441 2.10839844 19.8996582 C0.56819155 21.94637432 -0.99681349 23.97271849 -2.5625 26 C-3.80850281 27.63579692 -5.0532312 29.27256514 -6.296875 30.91015625 C-8.32339786 33.5757268 -10.3522299 36.23938582 -12.38793945 38.89794922 C-16.90767425 44.8018164 -21.35625191 50.75189062 -25.75 56.75 C-30.3798091 63.0656635 -35.059737 69.33872267 -39.8125 75.5625 C-40.36188232 76.2834082 -40.91126465 77.00431641 -41.47729492 77.74707031 C-41.98494385 78.40932617 -42.49259277 79.07158203 -43.015625 79.75390625 C-43.46067383 80.33470947 -43.90572266 80.9155127 -44.36425781 81.51391602 C-47.05029793 84.84519682 -47.05029793 84.84519682 -49.35742188 85.54248047 C-53.43406957 85.91699729 -55.76829943 85.56664536 -59.15625 83.14941406 C-61.91410678 80.57110525 -64.49899838 77.89645529 -67.0625 75.125 C-68.41988281 73.71927734 -68.41988281 73.71927734 -69.8046875 72.28515625 C-77.37825945 64.38180414 -77.37825945 64.38180414 -77.9375 60.1875 C-77.5625 57 -77.5625 57 -75.5 54.125 C-72.5625 52 -72.5625 52 -69.25 51.25 C-64.74892612 52.16547265 -62.79044059 53.93635644 -59.5546875 57.078125 C-57.33884634 59.21576 -54.98660072 61.10433646 -52.5625 63 C-52.2221875 62.53440674 -51.881875 62.06881348 -51.53125 61.58911133 C-43.97870977 51.26839437 -36.3354956 41.02585004 -28.55151367 30.87841797 C-25.18841305 26.48394468 -21.86461497 22.0678207 -18.61328125 17.58984375 C-17.98357422 16.72359375 -17.35386719 15.85734375 -16.70507812 14.96484375 C-15.51931399 13.32729969 -14.33924702 11.68560896 -13.16601562 10.0390625 C-5.89604655 0 -5.89604655 0 0 0 Z " fill="#FBFDFC" transform="translate(444.5625,51)"/>
<path d="M0 0 C0.71542969 0.36351562 1.43085938 0.72703125 2.16796875 1.1015625 C21.69633198 11.08784153 21.69633198 11.08784153 43 14.25 C43.74789795 14.25950684 44.4957959 14.26901367 45.26635742 14.27880859 C54.70781028 14.22308245 62.28248293 11.73467768 70.6875 7.5625 C71.50283203 7.16740234 72.31816406 6.77230469 73.15820312 6.36523438 C77.45558634 4.27733841 81.73083827 2.14492617 86 0 C86.43245659 4.35741074 86.37263969 6.43999569 83.91015625 10.140625 C82.97759416 11.19209543 82.0273219 12.22805049 81.0625 13.25 C80.0420527 14.38980554 79.02253404 15.5304431 78.00390625 16.671875 C77.49359863 17.23326172 76.98329102 17.79464844 76.45751953 18.37304688 C74.38847755 20.68261066 72.44494396 23.0855868 70.5 25.5 C66.75816114 30.09711631 62.94764169 34.63024799 59.10131836 39.13989258 C56.84129359 41.79628725 54.61050139 44.46785913 52.44140625 47.19921875 C51.65636719 48.18535156 50.87132812 49.17148437 50.0625 50.1875 C49.37285156 51.06792969 48.68320312 51.94835937 47.97265625 52.85546875 C46.0560992 54.93901295 44.60301183 55.95763061 42 57 C36.2371031 50.7799213 30.67719879 44.48129374 25.34765625 37.8828125 C22.77184528 34.71983663 20.14285804 31.60690273 17.5 28.5 C12.59485725 22.72515717 7.73839977 16.91312805 3 11 C2.42636719 10.31550781 1.85273438 9.63101562 1.26171875 8.92578125 C-0.64190056 6.02025704 -0.19486889 3.37772737 0 0 Z " fill="#DDA27B" transform="translate(213,360)"/>
<path d="M0 0 C2.78113748 1.03366656 4.7358313 2.54369666 7.07714844 4.36645508 C8.00269531 5.0805957 8.92824219 5.79473633 9.88183594 6.53051758 C10.84089844 7.28075195 11.79996094 8.03098633 12.78808594 8.80395508 C14.69592142 10.28443541 16.60472702 11.76366672 18.51464844 13.24145508 C19.35850098 13.90016602 20.20235352 14.55887695 21.07177734 15.23754883 C23.07186353 16.83261899 23.07186353 16.83261899 25.16308594 17.80395508 C24.5653593 21.23889084 23.6878081 24.24627004 22.31542969 27.44848633 C21.9930835 28.20750244 21.6707373 28.96651855 21.33862305 29.74853516 C20.72579468 31.16815552 20.72579468 31.16815552 20.10058594 32.61645508 C18.80121094 35.64833008 17.50183594 38.68020508 16.16308594 41.80395508 C4.94308594 41.80395508 -6.27691406 41.80395508 -17.83691406 41.80395508 C-20.06441406 36.69926758 -20.06441406 36.69926758 -22.33691406 31.49145508 C-22.80677734 30.42241943 -23.27664062 29.35338379 -23.76074219 28.25195312 C-24.12619141 27.40673096 -24.49164063 26.56150879 -24.86816406 25.69067383 C-25.43374023 24.39456177 -25.43374023 24.39456177 -26.01074219 23.07226562 C-26.83691406 20.80395508 -26.83691406 20.80395508 -26.83691406 17.80395508 C-24.76684353 16.10256864 -22.73958073 14.60647622 -20.52441406 13.11645508 C-19.23860337 12.23198907 -17.95345532 11.34655901 -16.66894531 10.46020508 C-16.02393066 10.01805664 -15.37891602 9.5759082 -14.71435547 9.12036133 C-12.97284593 7.89926648 -11.28063006 6.63658135 -9.59863281 5.33520508 C-8.64601562 4.60301758 -7.69339844 3.87083008 -6.71191406 3.11645508 C-5.86371094 2.45258789 -5.01550781 1.7887207 -4.14160156 1.10473633 C-1.83691406 -0.19604492 -1.83691406 -0.19604492 0 0 Z " fill="#D82852" transform="translate(256.8369140625,419.196044921875)"/>
</svg>
