<?xml version="1.0" encoding="UTF-8"?>
<svg version="1.1" xmlns="http://www.w3.org/2000/svg" width="512" height="512">
<path d="M0 0 C0.89489136 -0.0038269 1.78978271 -0.00765381 2.71179199 -0.01159668 C4.60132982 -0.0143152 6.49090532 -0.00695816 8.38037109 0.00976562 C11.2713619 0.03117677 14.15986767 0.00996266 17.05078125 -0.015625 C18.88802631 -0.01298171 20.72526983 -0.00785671 22.5625 0 C23.85794739 -0.01214539 23.85794739 -0.01214539 25.17956543 -0.02453613 C31.14939385 0.06866334 31.14939385 0.06866334 34.25097656 2.33935547 C36.38972106 5.40279645 37.7265984 8.68161666 39.03125 12.15625 C39.4334375 13.1771875 39.4334375 13.1771875 39.84375 14.21875 C41.78125 19.22066327 41.78125 19.22066327 41.78125 21.53125 C42.74611328 21.75167969 42.74611328 21.75167969 43.73046875 21.9765625 C49.39177382 23.38179371 54.2283653 25.19838097 59.40625 27.90625 C63.6448148 29.94257117 66.16695181 31.08551579 70.71875 29.59375 C72.86002217 28.65121828 72.86002217 28.65121828 74.78125 27.53125 C79.93572695 24.63185672 83.93144212 23.28740739 89.78125 24.53125 C91.65332031 25.80712891 91.65332031 25.80712891 93.484375 27.5078125 C94.1738623 28.14283691 94.86334961 28.77786133 95.57373047 29.43212891 C96.30221191 30.12483887 97.03069336 30.81754883 97.78125 31.53125 C98.53937988 32.24071777 99.29750977 32.95018555 100.07861328 33.68115234 C102.4641245 35.93884178 104.81265923 38.23012957 107.15625 40.53125 C108.36474609 41.68367188 108.36474609 41.68367188 109.59765625 42.859375 C113.9950458 47.19047224 117.05246247 50.28341528 117.78125 56.53125 C117.21396054 59.52634604 116.06188029 61.72371437 114.78125 64.53125 C116.10125 64.86125 117.42125 65.19125 118.78125 65.53125 C118.843125 64.45875 118.905 63.38625 118.96875 62.28125 C119.78125 58.53125 119.78125 58.53125 121.96968746 56.32820034 C125.17902279 54.27702199 126.80769594 54.03082998 130.57875061 54.03004456 C132.31739883 54.01529335 132.31739883 54.01529335 134.09117126 54.00024414 C135.98555687 54.01474609 135.98555687 54.01474609 137.91821289 54.02954102 C139.26892662 54.02575558 140.61963646 54.02025368 141.97033691 54.01316833 C145.63411818 53.99921605 149.29742959 54.01038572 152.96118474 54.02687955 C156.80594936 54.04075911 160.65068748 54.03426591 164.49546814 54.03074646 C170.95921358 54.02804435 177.42277337 54.04151212 183.88647461 54.06469727 C191.33396996 54.09122833 198.78115339 54.09307925 206.22867972 54.0813089 C213.41386553 54.07047923 220.59893973 54.07676374 227.78411674 54.09086418 C230.83046581 54.09658716 233.8767322 54.09657041 236.92308235 54.09179878 C240.52406259 54.08698029 244.12470746 54.09732909 247.72562408 54.11875343 C249.65794276 54.12685923 251.59030566 54.12052176 253.52262878 54.11355591 C268.37306712 54.23832978 280.96749564 57.9578013 291.78125 68.53125 C300.13147401 78.45975811 303.4049664 89.12183459 303.28918457 101.99194336 C303.29854451 103.62396021 303.29854451 103.62396021 303.30809355 105.28894711 C303.32392633 108.89988943 303.31145699 112.51014757 303.29882812 116.12109375 C303.30425353 118.72405386 303.31137853 121.3270109 303.32006836 123.92996216 C303.33778213 130.24505518 303.3340457 136.5599572 303.3224178 142.87505746 C303.31335544 148.0110303 303.31217153 153.14694991 303.31651306 158.28292847 C303.31712599 159.016084 303.31773893 159.74923954 303.31837043 160.50461191 C303.31964943 161.99436674 303.32094629 163.48412156 303.3222608 164.97387636 C303.33364566 178.91773156 303.32058586 192.86148129 303.29905933 206.80531919 C303.28119023 218.74949735 303.28429493 230.69351996 303.30273438 242.63769531 C303.3241782 256.53431155 303.33254722 270.43083553 303.32028532 284.32746601 C303.31901123 285.81150117 303.31775374 287.29553635 303.31651306 288.77957153 C303.31558741 289.87460893 303.31558741 289.87460893 303.31464306 290.9917683 C303.31120067 296.11692054 303.31699442 301.24201387 303.32643127 306.36715698 C303.33887216 313.27511149 303.32991602 320.18276859 303.30685425 327.09069443 C303.30158111 329.62059926 303.30305689 332.15052888 303.31190491 334.68042374 C303.32289872 338.14413002 303.30904929 341.60690882 303.28918457 345.07055664 C303.3025689 346.55833571 303.3025689 346.55833571 303.31622362 348.07617092 C303.16958662 361.33375826 298.09250449 372.32891551 288.68359375 381.59765625 C280.49523806 388.47825277 270.22835882 392.66245236 259.51042175 392.65150452 C258.46860748 392.65287918 257.42679321 392.65425385 256.35340881 392.65567017 C255.22124435 392.65207489 254.0890799 392.64847961 252.92260742 392.64477539 C251.72218811 392.64492142 250.5217688 392.64506744 249.28497314 392.6452179 C246.00229894 392.64464148 242.71966762 392.6396334 239.43700194 392.63264394 C236.00303189 392.62638377 232.56906094 392.62580449 229.13508606 392.62461853 C222.63641448 392.62151306 216.13775977 392.61331026 209.6390956 392.60326904 C202.23888096 392.59208354 194.83866549 392.58659131 187.4384445 392.58157361 C172.21936824 392.57112698 157.00031521 392.55279126 141.78125 392.53125 C141.78125 405.73125 141.78125 418.93125 141.78125 432.53125 C145.39578125 432.49644531 149.0103125 432.46164062 152.734375 432.42578125 C156.26919771 432.40232623 159.80401146 432.38414351 163.33886719 432.36645508 C165.7790114 432.35145022 168.21912902 432.33103985 170.65917969 432.30493164 C174.18431192 432.26818149 177.70908488 432.25143998 181.234375 432.23828125 C182.84762665 432.21505547 182.84762665 432.21505547 184.49346924 432.19136047 C198.0391446 432.18840966 209.61115849 435.56495471 219.65625 444.90625 C225.69606602 451.3164321 227.92971957 458.42275335 228.01953125 467.0859375 C228.027603 467.82449982 228.03567474 468.56306213 228.04399109 469.32400513 C228.05780873 470.88573881 228.06854125 472.44750239 228.07641602 474.00927734 C228.08794676 475.60376858 228.10841613 477.19822088 228.13793945 478.79248047 C228.18065091 481.09889905 228.19678795 483.40417237 228.20703125 485.7109375 C228.22453934 486.41942841 228.24204742 487.12791931 228.26008606 487.85787964 C228.2386531 492.77108032 227.23880915 495.08723415 223.78125 498.53125 C221.18591309 499.15799582 221.18591309 499.15799582 218.17773438 499.1604557 C216.45565765 499.18001381 216.45565765 499.18001381 214.6987915 499.19996703 C213.43694031 499.18881342 212.17508911 499.17765981 210.875 499.16616821 C209.52145335 499.1719281 208.16791452 499.17986834 206.81439209 499.18980443 C203.09122363 499.21072 199.36869414 499.2003418 195.64552307 499.18487334 C191.63180157 499.17358277 187.61819167 499.19101109 183.60449219 499.20477295 C175.74021532 499.22703454 167.87617671 499.22219124 160.01189041 499.20770974 C153.6218393 499.19642895 147.23185508 499.19488156 140.84179688 499.20032883 C139.47886442 499.20147807 139.47886442 499.20147807 138.08839798 499.20265054 C136.24269102 499.20424913 134.39698408 499.20587019 132.55127716 499.2075135 C115.23414822 499.22177955 97.91715151 499.20536486 80.60004425 499.17851166 C65.7332966 499.1561721 50.86674413 499.16005199 36 499.18310547 C18.74587793 499.20984837 1.49187183 499.22040618 -15.76226807 499.20504415 C-17.60127765 499.20345136 -19.44028725 499.20187951 -21.27929688 499.20032883 C-22.18418224 499.19955745 -23.08906761 499.19878607 -24.02137375 499.19799132 C-30.40555347 499.19366978 -36.78965978 499.20097062 -43.17382812 499.21272659 C-50.95147548 499.22673339 -58.72887045 499.22299017 -66.5064888 499.19632287 C-70.47667587 499.18315995 -74.44644179 499.17807393 -78.41662598 499.19456863 C-82.04873467 499.2094308 -85.68003054 499.20134334 -89.31206512 499.17468087 C-91.25347464 499.16641939 -93.19494025 499.18280726 -95.1362915 499.19996703 C-96.28434265 499.18692829 -97.4323938 499.17388955 -98.61523438 499.1604557 C-99.60793335 499.15964394 -100.60063232 499.15883218 -101.62341309 499.15799582 C-105.23356046 498.28618424 -106.27973443 496.61837703 -108.21875 493.53125 C-108.72045898 490.07714844 -108.72045898 490.07714844 -108.71484375 486.140625 C-108.71629898 485.43657532 -108.71775421 484.73252563 -108.71925354 484.00714111 C-108.71759898 482.52115737 -108.70608708 481.03515571 -108.68530273 479.54931641 C-108.65651128 477.30164722 -108.6646688 475.05636574 -108.67773438 472.80859375 C-108.66257365 460.75598451 -107.30486017 452.73037088 -98.734375 443.828125 C-88.09111916 434.11036967 -75.68782734 432.03649532 -61.671875 432.23828125 C-59.96605255 432.24464851 -59.96605255 432.24464851 -58.22576904 432.25114441 C-54.63984173 432.26776278 -51.0545037 432.30538292 -47.46875 432.34375 C-45.01823736 432.35881861 -42.56771579 432.37250317 -40.1171875 432.38476562 C-34.15063918 432.41504243 -28.18534401 432.47379706 -22.21875 432.53125 C-22.21875 419.33125 -22.21875 406.13125 -22.21875 392.53125 C-25.87670654 392.55219727 -29.53466309 392.57314453 -33.3034668 392.59472656 C-45.42121094 392.66115626 -57.53894252 392.70545344 -69.65681744 392.73849869 C-77.00022907 392.75905947 -84.3434673 392.78705467 -91.68676758 392.83300781 C-98.09269503 392.87307567 -104.49849679 392.89872984 -110.90454608 392.90760398 C-114.29157609 392.91278532 -117.67824676 392.92482467 -121.06516075 392.95417023 C-124.86095417 392.98342154 -128.6560154 392.98719679 -132.4519043 392.98535156 C-133.55530655 392.99973267 -134.6587088 393.01411377 -135.79554749 393.02893066 C-149.16930839 392.95908177 -161.32222306 388.7248664 -171.28125 379.65234375 C-180.44236723 369.87916912 -183.52631219 358.71398173 -183.48617554 345.67182922 C-183.49070665 344.58809011 -183.49523776 343.504351 -183.49990618 342.38777131 C-183.51255197 338.76148175 -183.51092966 335.13534235 -183.50927734 331.5090332 C-183.51526252 328.90681261 -183.52206804 326.3045938 -183.52963257 323.70237732 C-183.54621925 317.36994368 -183.55174108 311.03754727 -183.55285732 304.70509372 C-183.55380904 299.55470969 -183.55792551 294.4043379 -183.56425858 289.25395775 C-183.58186573 274.63631397 -183.59109844 260.01869952 -183.58959763 245.40104506 C-183.58951772 244.61361474 -183.5894378 243.82618442 -183.58935547 243.01489258 C-183.58927371 242.22649528 -183.58919195 241.43809799 -183.58910771 240.62580987 C-183.58829527 227.85645466 -183.60742355 215.08721753 -183.6356322 202.31789646 C-183.66439993 189.19138446 -183.67817032 176.06492997 -183.67644465 162.93838567 C-183.67578202 155.57492947 -183.68121819 148.21159703 -183.70280075 140.84816933 C-183.72297869 133.91978645 -183.72229915 126.9916684 -183.70776749 120.06327248 C-183.7056797 117.52530027 -183.71037839 114.98731169 -183.7224884 112.44936752 C-183.73799064 108.97447053 -183.72859874 105.50046759 -183.71322632 102.02558899 C-183.72351344 101.03032568 -183.73380057 100.03506237 -183.74439943 99.00963956 C-183.62626153 86.85675945 -179.42040345 76.47476155 -171.21875 67.53125 C-160.28423915 57.80623662 -149.19318044 54.39987511 -134.83984375 54.328125 C-133.50530907 54.31957489 -133.50530907 54.31957489 -132.14381409 54.31085205 C-130.27044857 54.30144172 -128.3970668 54.29488392 -126.52368164 54.29101562 C-123.66198093 54.28126952 -120.80098686 54.25019273 -117.93945312 54.21875 C-116.11458757 54.21222286 -114.28971692 54.20697126 -112.46484375 54.203125 C-111.61264755 54.1907782 -110.76045135 54.1784314 -109.88243103 54.16571045 C-105.17582007 54.18334231 -102.03116111 54.44905468 -98.21875 57.53125 C-96.86435332 60.24004335 -97.15373549 62.54058268 -97.21875 65.53125 C-95.56875 65.20125 -93.91875 64.87125 -92.21875 64.53125 C-92.54875 63.87125 -92.87875 63.21125 -93.21875 62.53125 C-94.4698972 58.77780839 -94.92067436 55.4182377 -94.21875 51.53125 C-92.73562892 48.90791703 -90.77562104 46.94062255 -88.62890625 44.84375 C-87.76198402 43.96178955 -87.76198402 43.96178955 -86.87754822 43.06201172 C-85.65411336 41.8287856 -84.42048776 40.60559579 -83.17749023 39.39208984 C-81.28764762 37.53752819 -79.44749919 35.64208099 -77.60742188 33.73828125 C-76.40897947 32.54153126 -75.20788864 31.34742637 -74.00390625 30.15625 C-73.45976578 29.59075439 -72.91562531 29.02525879 -72.35499573 28.44262695 C-69.15429114 25.39097632 -67.00288302 24.17708972 -62.51635742 24.09545898 C-58.31215953 24.29692151 -55.19029347 25.60136271 -51.46875 27.59375 C-47.31344865 29.92021852 -47.31344865 29.92021852 -42.72265625 30.39453125 C-39.66981676 29.34199221 -36.81630058 28.05725639 -33.90625 26.65625 C-27.64780398 23.65159196 -27.64780398 23.65159196 -25.13232422 22.94604492 C-21.01024963 21.80019595 -21.01024963 21.80019595 -18.08666992 18.86035156 C-17.22999696 16.79292434 -16.57071536 14.74886316 -15.96875 12.59375 C-15.53657442 11.16474086 -15.09410323 9.73879872 -14.640625 8.31640625 C-14.46112305 7.68613525 -14.28162109 7.05586426 -14.09667969 6.40649414 C-10.99483997 -0.21898719 -6.57353711 -0.06162978 0 0 Z M-25.3359375 97.20703125 C-35.15872374 109.33266986 -38.62612303 122.08213244 -37.21875 137.53125 C-34.7016588 150.80590955 -27.67917307 162.70484673 -16.49609375 170.40625 C-4.31707983 177.9493812 8.03170233 180.6571382 22.27734375 177.83984375 C35.32205957 174.16765638 45.67449799 167.25778313 53.03125 155.78125 C59.88398783 143.44257724 62.3758729 129.7541658 58.53125 115.96875 C57.9826161 114.47636511 57.40140695 112.99535968 56.78125 111.53125 C56.39839844 110.52771484 56.39839844 110.52771484 56.0078125 109.50390625 C51.13325337 98.21192295 40.7564044 89.84896251 30.03125 84.390625 C10.63384335 76.98189329 -11.11028298 82.08867371 -25.3359375 97.20703125 Z M-107.21875 100.53125 C-116.78875 100.86125 -126.35875 101.19125 -136.21875 101.53125 C-136.21875 171.82125 -136.21875 242.11125 -136.21875 314.53125 C-118.43484375 314.59183594 -100.6509375 314.65242187 -82.328125 314.71484375 C-71.08984142 314.75531858 -59.85155966 314.79604126 -48.61328125 314.83789062 C-42.71175158 314.85985723 -36.81022169 314.88176229 -30.90869141 314.90356445 C-29.79916849 314.90766723 -29.79916849 314.90766723 -28.66723096 314.9118529 C-16.71863775 314.95594647 -4.77003511 314.99656389 7.17857459 315.03590261 C19.43698287 315.07633846 31.69537364 315.12049773 43.95375609 315.16812855 C51.52054957 315.19741205 59.08734174 315.22377569 66.65415803 315.24642897 C72.45201158 315.26409715 78.24983573 315.28694053 84.04766273 315.31174088 C86.4293361 315.32111183 88.81101681 315.32878695 91.19270134 315.33466911 C94.43622335 315.34292947 97.67966413 315.3572061 100.92315674 315.37303162 C102.34727603 315.37449878 102.34727603 315.37449878 103.80016541 315.37599558 C104.66852832 315.38147002 105.53689122 315.38694446 106.43156815 315.3925848 C107.18037664 315.39524284 107.92918513 315.39790089 108.70068479 315.40063947 C110.89827642 315.5385965 112.71674535 315.75090192 114.78125 316.53125 C116.03125 319.59375 116.03125 319.59375 116.78125 322.53125 C117.77125 322.53125 118.76125 322.53125 119.78125 322.53125 C120.19689539 318.49188435 120.19689539 318.49188435 119.78125 314.53125 C116.99954104 312.45418518 116.99954104 312.45418518 113.78125 310.53125 C109.17092515 303.51480671 109.09057965 296.8867613 108.78125 288.65625 C107.63456852 267.70087469 103.4213543 250.70809484 92.78125 232.53125 C91.79125 233.19125 90.80125 233.85125 89.78125 234.53125 C82.59128761 235.61652734 77.29940264 232.80145231 70.953125 229.74609375 C66.5453638 228.0578995 64.0501073 229.33544238 59.84765625 231.08984375 C59.11611328 231.39341797 58.38457031 231.69699219 57.63085938 232.00976562 C56.87611328 232.32623047 56.12136719 232.64269531 55.34375 232.96875 C53.84513138 233.59263844 52.3464354 234.21634108 50.84765625 234.83984375 C50.14116943 235.14462646 49.43468262 235.44940918 48.70678711 235.76342773 C46.78125 236.53125 46.78125 236.53125 44.0078125 237.15625 C40.10974016 239.56348064 39.14694783 243.93675074 37.59375 248.09375 C36.91853094 249.84728501 36.23781682 251.59871716 35.55078125 253.34765625 C35.25792236 254.12568604 34.96506348 254.90371582 34.66333008 255.70532227 C33.78125 257.53125 33.78125 257.53125 31.78125 258.53125 C28.75407266 258.65495361 25.75083425 258.7197022 22.72265625 258.734375 C21.82256332 258.74007507 20.9224704 258.74577515 19.99510193 258.75164795 C18.08943866 258.76110201 16.183759 258.76763354 14.27807617 258.77148438 C11.3589235 258.7811995 8.44047199 258.81222267 5.52148438 258.84375 C3.67187919 258.85027902 1.82226896 258.85552989 -0.02734375 258.859375 C-1.33994423 258.8778952 -1.33994423 258.8778952 -2.67906189 258.89678955 C-3.49323074 258.89378845 -4.3073996 258.89078735 -5.14624023 258.88769531 C-6.21973976 258.89316376 -6.21973976 258.89316376 -7.31492615 258.89874268 C-9.82714643 258.41381202 -10.65703324 257.529799 -12.21875 255.53125 C-13.52665099 252.15786601 -14.6955376 248.78150345 -15.79296875 245.3359375 C-16.96281022 241.945274 -17.66686222 239.97501666 -20.51171875 237.6875 C-23.53915861 236.39439437 -26.56574494 235.16698331 -29.65625 234.03125 C-33.03928121 232.7850803 -36.16049553 231.56357278 -39.31640625 229.8125 C-42.67770964 228.32864063 -43.79496791 228.36490665 -47.21875 229.53125 C-50.17736659 230.77590939 -53.07940826 232.11620689 -55.98828125 233.47265625 C-59.82892739 234.7311993 -63.2419458 235.23930262 -67.21875 234.53125 C-69.7726726 232.77968601 -71.57539474 231.30195413 -73.6875 229.125 C-74.25327759 228.56687622 -74.81905518 228.00875244 -75.40197754 227.43371582 C-76.58805697 226.2530594 -77.76417722 225.06232238 -78.93066406 223.86230469 C-80.71431087 222.0357958 -82.5366582 220.25594321 -84.3671875 218.4765625 C-85.51819864 217.32026451 -86.66672543 216.16148711 -87.8125 215 C-88.35612183 214.47257202 -88.89974365 213.94514404 -89.45983887 213.4017334 C-92.23633379 210.48371206 -93.55941639 208.33239423 -93.64086914 204.35620117 C-93.17365771 200.12265487 -92.0168186 197.16236574 -90.15625 193.34375 C-87.28138498 187.60460748 -87.28138498 187.60460748 -88.21875 181.53125 C-89.35429787 178.78313972 -90.63427681 176.12930374 -91.921875 173.44921875 C-93.21875 170.53125 -93.21875 170.53125 -94.015625 167.76953125 C-95.24777418 163.56387919 -96.07149269 161.22159098 -99.92578125 158.90234375 C-102.99094616 157.63621521 -106.06689439 156.55939541 -109.21875 155.53125 C-114.83165323 152.91834677 -114.83165323 152.91834677 -117.21875 150.53125 C-117.45578289 147.49307384 -117.57118101 144.54926023 -117.58984375 141.5078125 C-117.60338646 140.16123062 -117.60338646 140.16123062 -117.61720276 138.78744507 C-117.63172572 136.88600001 -117.64059706 134.98450475 -117.64428711 133.08300781 C-117.65617634 130.17427202 -117.70533405 127.26766223 -117.75585938 124.359375 C-117.76532416 122.5130312 -117.77255893 120.66667436 -117.77734375 118.8203125 C-117.79687607 117.9504068 -117.81640839 117.0805011 -117.83653259 116.18423462 C-117.79147246 110.14856546 -117.79147246 110.14856546 -114.91723633 107.05053711 C-112.7708744 105.84210408 -110.79835811 104.75425055 -108.484375 103.93359375 C-107.82824219 103.68931641 -107.17210938 103.44503906 -106.49609375 103.19335938 C-105.12943738 102.70489164 -103.76223671 102.21794443 -102.39453125 101.73242188 C-100.63810296 101.07680458 -98.92372025 100.310962 -97.21875 99.53125 C-96.88875 98.54125 -96.55875 97.55125 -96.21875 96.53125 C-102.12582046 96.07685996 -102.74175901 96.05425901 -107.21875 100.53125 Z M118.78125 96.53125 C119.42397769 99.61167031 119.42397769 99.61167031 121.60717773 100.49511719 C122.38520752 100.77000977 123.1632373 101.04490234 123.96484375 101.328125 C124.80982422 101.6478125 125.65480469 101.9675 126.52539062 102.296875 C128.31252375 102.9500404 130.10423686 103.59081569 131.90039062 104.21875 C138.2899419 106.67140334 138.2899419 106.67140334 139.82470703 109.35742188 C140.37890625 111.296875 140.37890625 111.296875 140.78125 114.53125 C141.71066406 114.37269531 142.64007813 114.21414062 143.59765625 114.05078125 C165.95627993 110.89195938 187.09326627 114.73676578 205.76171875 127.58203125 C208.19739172 129.47971897 210.50086438 131.45082357 212.78125 133.53125 C213.3896875 134.04816406 213.998125 134.56507813 214.625 135.09765625 C223.61024453 143.24563936 229.94455829 155.17163337 233.78125 166.53125 C234.09964844 167.45292969 234.41804688 168.37460938 234.74609375 169.32421875 C241.54593903 193.04533799 235.51352356 214.55173771 224.01220703 235.30664062 C213.75780826 253.83858858 209.63908529 271.58665962 209.2980957 292.66601562 C209.11420364 299.31707618 208.65789263 305.62160573 203.73828125 310.59765625 C203.03058594 311.09136719 202.32289063 311.58507812 201.59375 312.09375 C198.0519656 314.86563368 198.0519656 314.86563368 197.28125 319.46875 C197.44625 320.479375 197.61125 321.49 197.78125 322.53125 C199.10125 322.53125 200.42125 322.53125 201.78125 322.53125 C202.049375 321.7475 202.3175 320.96375 202.59375 320.15625 C203.78125 317.53125 203.78125 317.53125 206.78125 315.53125 C222.95125 315.20125 239.12125 314.87125 255.78125 314.53125 C255.78125 244.24125 255.78125 173.95125 255.78125 101.53125 C214.82380015 101.36071615 214.82380015 101.36071615 173.86621094 101.23339844 C165.94970703 101.18798828 165.94970703 101.18798828 162.24517822 101.16168213 C159.65427493 101.14705384 157.06408389 101.13881923 154.47320557 101.13970947 C150.55189008 101.14062381 146.63114498 101.11003096 142.70996094 101.07714844 C141.55330807 101.08217251 140.3966552 101.08719658 139.20495224 101.09237289 C138.14987598 101.07846638 137.09479973 101.06455986 136.00775146 101.05023193 C135.08964565 101.04654476 134.17153984 101.04285759 133.22561264 101.03905869 C130.05693521 100.38077587 128.91787271 98.88642 126.78125 96.53125 C123.99982957 96.02369153 121.6355271 96.34096486 118.78125 96.53125 Z M112.09375 150.28125 C100.95926492 163.75292653 95.86265296 179.45703105 97 196.8828125 C98.32261093 207.54000445 102.42149087 216.21601252 107.70922852 225.43383789 C117.15507929 241.98120901 122.36270036 258.6665628 124.78125 277.53125 C129.40125 277.53125 134.02125 277.53125 138.78125 277.53125 C138.78125 257.40125 138.78125 237.27125 138.78125 216.53125 C131.85125 216.03625 131.85125 216.03625 124.78125 215.53125 C116.38643001 212.22991629 112.47257186 209.17146009 107.96875 201.40625 C105.32582355 194.48575472 105.79195393 186.85186924 108.78125 180.15625 C112.25386334 174.05465255 116.81729128 170.69566235 123.28125 168.15625 C131.75620788 166.64286466 137.07414479 167.93984383 144.78125 171.53125 C145.51730469 171.86898437 146.25335938 172.20671875 147.01171875 172.5546875 C149.36925968 173.85575866 149.75203128 175.06112506 150.78125 177.53125 C151.51601563 178.82675781 151.51601563 178.82675781 152.265625 180.1484375 C154.04667202 184.123661 154.54546075 187.6112233 154.96875 191.90625 C155.0915332 193.01033203 155.0915332 193.01033203 155.21679688 194.13671875 C155.41517556 195.93379625 155.59965577 197.73239893 155.78125 199.53125 C158.09125 199.53125 160.40125 199.53125 162.78125 199.53125 C162.81863281 198.685625 162.85601562 197.84 162.89453125 196.96875 C163.46132069 187.18885385 164.46301396 179.68685857 171.78125 172.53125 C178.04382528 168.62649689 184.3408021 166.61550257 191.78125 167.53125 C199.60772497 169.72313949 204.74748818 173.02836277 209.03125 180.03125 C212.32720598 186.62316196 212.70278925 193.0040418 210.59375 200.09375 C207.9448275 207.33824501 203.62822088 211.17000975 196.78125 214.53125 C191.24586177 215.91509706 185.47019123 216.09363914 179.78125 216.53125 C179.78125 236.66125 179.78125 256.79125 179.78125 277.53125 C184.07125 277.53125 188.36125 277.53125 192.78125 277.53125 C194.56331708 275.74918292 194.33129595 273.25115409 194.68041992 270.85693359 C197.35171344 252.6728047 203.29407639 236.82287885 213.03125 221.21875 C221.01217737 208.34488351 223.08658699 192.35856035 220.09765625 177.55859375 C216.75949929 165.05089359 210.86049023 155.65753293 201.78125 146.53125 C201.18957031 145.90476563 200.59789062 145.27828125 199.98828125 144.6328125 C195.78571067 140.53229109 191.03160225 137.86875939 185.84375 135.21875 C185.18753662 134.88085449 184.53132324 134.54295898 183.85522461 134.19482422 C175.95755035 130.34111041 168.20056452 129.15592473 159.46875 129.21875 C158.22436157 129.22720947 158.22436157 129.22720947 156.95483398 129.23583984 C139.21530537 129.58445204 124.14379338 137.37431464 112.09375 150.28125 Z M126.15625 185.09375 C123.52058088 187.42512895 123.52058088 187.42512895 122.71875 191.03125 C122.43619107 194.56530924 122.43619107 194.56530924 124.59375 196.90625 C127.95549599 199.40354702 129.7624297 199.6468759 133.90625 199.59375 C134.81632812 199.58472656 135.72640625 199.57570312 136.6640625 199.56640625 C137.36273438 199.55480469 138.06140625 199.54320312 138.78125 199.53125 C139.2819625 192.00429384 139.2819625 192.00429384 135.78125 185.53125 C132.21539197 183.19115567 129.92877451 182.84819969 126.15625 185.09375 Z M180.78125 187.53125 C179.51887269 190.05600462 179.68268596 191.84325466 179.71875 194.65625 C179.72777344 195.56632813 179.73679687 196.47640625 179.74609375 197.4140625 C179.75769531 198.11273438 179.76929688 198.81140625 179.78125 199.53125 C186.5681438 200.05445626 186.5681438 200.05445626 192.84375 197.84375 C195.04147404 195.22066002 195.78125 193.95273735 195.78125 190.53125 C194.49117612 187.61160912 193.45830859 185.9755697 190.78125 184.21875 C186.08610504 182.60479392 184.23871368 184.43772986 180.78125 187.53125 Z M155.78125 216.53125 C155.78125 236.66125 155.78125 256.79125 155.78125 277.53125 C158.09125 277.53125 160.40125 277.53125 162.78125 277.53125 C162.78125 257.40125 162.78125 237.27125 162.78125 216.53125 C160.47125 216.53125 158.16125 216.53125 155.78125 216.53125 Z M125.78125 294.53125 C126.11125 296.18125 126.44125 297.83125 126.78125 299.53125 C148.23125 299.53125 169.68125 299.53125 191.78125 299.53125 C192.11125 297.88125 192.44125 296.23125 192.78125 294.53125 C170.67125 294.53125 148.56125 294.53125 125.78125 294.53125 Z M148.78125 339.53125 C148.78125 341.18125 148.78125 342.83125 148.78125 344.53125 C150.93857833 346.68857833 155.72923753 345.71645919 158.71875 345.71875 C159.55599609 345.73099609 160.39324219 345.74324219 161.25585938 345.75585938 C162.05701172 345.75779297 162.85816406 345.75972656 163.68359375 345.76171875 C164.78948853 345.76788208 164.78948853 345.76788208 165.91772461 345.77416992 C168.02722306 345.69179222 168.02722306 345.69179222 169.78125 343.53125 C169.78125 342.21125 169.78125 340.89125 169.78125 339.53125 C162.85125 339.53125 155.92125 339.53125 148.78125 339.53125 Z M-5.21875 392.53125 C-5.21875 405.73125 -5.21875 418.93125 -5.21875 432.53125 C37.68125 432.53125 80.58125 432.53125 124.78125 432.53125 C124.78125 419.33125 124.78125 406.13125 124.78125 392.53125 C81.88125 392.53125 38.98125 392.53125 -5.21875 392.53125 Z " fill="#7FB0FF" transform="translate(196.21875,6.46875)"/>
<path d="M0 0 C1.33453468 -0.00855011 1.33453468 -0.00855011 2.69602966 -0.01727295 C4.56939518 -0.02668328 6.44277695 -0.03324108 8.31616211 -0.03710938 C11.17786282 -0.04685548 14.03885689 -0.07793227 16.90039062 -0.109375 C18.72525618 -0.11590214 20.55012683 -0.12115374 22.375 -0.125 C23.2271962 -0.1373468 24.0793924 -0.1496936 24.95741272 -0.16241455 C29.66402368 -0.14478269 32.80868264 0.12092968 36.62109375 3.203125 C38.04771594 6.05636937 37.93143243 8.03767049 37.62109375 11.203125 C35.82115601 13.90303162 34.53732075 15.7450115 31.62109375 17.203125 C30.28506927 17.29529732 28.94466867 17.32825088 27.60546875 17.32910156 C26.77700439 17.33290833 25.94854004 17.33671509 25.0949707 17.34063721 C24.19609131 17.34166443 23.29721191 17.34269165 22.37109375 17.34375 C20.46352988 17.36209355 18.55597749 17.38166527 16.6484375 17.40234375 C13.64449914 17.43118547 10.64129234 17.45312169 7.63720703 17.45361328 C-8.93664861 17.13447573 -8.93664861 17.13447573 -23.14208984 24.75976562 C-30.10152037 32.07127882 -31.97622586 40.25881723 -31.90029907 50.07527161 C-31.90795017 51.13621825 -31.91560126 52.1971649 -31.92348421 53.29026145 C-31.94403944 56.8275826 -31.93618034 60.36424811 -31.92822266 63.90161133 C-31.93692149 66.44501849 -31.94728933 68.98842041 -31.959198 71.53181458 C-31.98317611 77.71297061 -31.98828662 83.89388696 -31.98359747 90.07508043 C-31.98002402 95.10243315 -31.98354556 100.12973326 -31.99204636 105.1570797 C-31.99323673 105.87398953 -31.99442711 106.59089937 -31.99565356 107.32953375 C-31.9980772 108.78619118 -32.00050547 110.2428486 -32.00293832 111.69950601 C-32.02466752 125.34575694 -32.02037492 138.99190891 -32.00816862 152.63816538 C-31.99783441 165.10354083 -32.02033379 177.56860351 -32.05836506 190.03391711 C-32.0971743 202.85315021 -32.11362458 215.67223554 -32.10611856 228.49152774 C-32.10230208 235.68062714 -32.107195 242.86946045 -32.13554764 250.05851173 C-32.16195048 256.82127108 -32.15678495 263.58330514 -32.13072586 270.34609795 C-32.12600239 272.82279295 -32.13143488 275.29953216 -32.14797211 277.77617645 C-32.6147783 296.92301112 -32.6147783 296.92301112 -23.55954933 313.19692707 C-18.00863307 318.57822552 -11.73373042 320.57713107 -4.12397194 320.58344173 C-3.07501875 320.59043161 -3.07501875 320.59043161 -2.00487459 320.5975627 C0.33209764 320.60948802 2.66848583 320.60012713 5.00546265 320.59080505 C6.70038634 320.59497906 8.39530724 320.60045695 10.09022295 320.60712487 C14.74313454 320.62158949 19.39586914 320.61733155 24.04879045 320.60995805 C29.06867166 320.6052312 34.0885143 320.61773199 39.10838318 320.62797546 C48.94105649 320.64517842 58.77366595 320.64600034 68.60635041 320.64076256 C76.59810439 320.63672231 84.58983948 320.6381627 92.58159256 320.64351082 C93.71871909 320.64425924 94.85584563 320.64500766 96.02743054 320.64577876 C98.33745523 320.64731023 100.64747991 320.64884858 102.95750459 320.65039373 C124.62450038 320.66412426 146.29146007 320.65867726 167.95845504 320.64720852 C187.78156922 320.6372762 207.60459006 320.65021584 227.42768984 320.67414271 C247.78061797 320.69852406 268.13350262 320.70814391 288.48644507 320.70148998 C299.91364291 320.69799554 311.34076897 320.70024467 322.76795578 320.71774101 C332.49599809 320.73245094 342.22391805 320.73311425 351.95195793 320.7156701 C356.91510124 320.70714769 361.8780259 320.70504091 366.84115791 320.72032166 C371.38613163 320.73414169 375.9306988 320.72944013 380.47564884 320.71008242 C382.11825253 320.70631385 383.76088859 320.70926905 385.40346353 320.71969407 C397.55532093 320.79673111 397.55532093 320.79673111 408.62109375 316.203125 C409.24901113 315.8073038 409.87692851 315.4114826 410.52387369 315.00366682 C416.50185541 310.59258487 419.84405021 303.75928179 421.08255136 296.49739087 C421.26194507 293.68376178 421.2931302 290.90960903 421.26274109 288.09046936 C421.27124661 287.02781386 421.27975213 285.96515837 421.28851539 284.87030119 C421.31065249 281.33905104 421.29738728 277.8088679 421.28393555 274.27758789 C421.292355 271.73388418 421.30288289 269.19018671 421.31535339 266.64649963 C421.33955943 260.47224843 421.34037998 254.29838631 421.32931521 248.1241091 C421.32073216 243.10251701 421.3216069 238.08100898 421.3291111 233.05941582 C421.33016599 232.34277696 421.33122088 231.6261381 421.33230773 230.88778291 C421.33447881 229.43160854 421.33666559 227.97543419 421.33886788 226.51925986 C421.3582663 212.88632531 421.34633009 199.25355415 421.32408193 185.620633 C421.30583507 173.94301723 421.31673513 162.26571774 421.34838867 150.58813477 C421.38521072 137.00316791 421.40215213 123.41839843 421.3889764 109.83338159 C421.3876354 108.38247107 421.38632642 106.93156053 421.38504982 105.48064995 C421.38441915 104.76691469 421.38378849 104.05317943 421.38313871 103.31781583 C421.38012061 98.30735264 421.39133109 93.29703929 421.4083004 88.28660774 C421.43083376 81.53201045 421.42153063 74.77816437 421.39120674 68.02356529 C421.38489093 65.55010048 421.38871187 63.076585 421.40361786 60.60315704 C421.85476732 41.47073558 421.85476732 41.47073558 412.80179882 25.20919895 C405.19498885 17.83569346 397.05125102 17.77718165 386.96240234 17.85009766 C385.58033605 17.8492659 384.19827001 17.84704676 382.81620789 17.84355164 C379.85112848 17.83861872 376.88624748 17.84266558 373.92118454 17.85356522 C369.23127893 17.86997287 364.54162018 17.86143955 359.85171509 17.84872437 C347.36258136 17.8186522 334.87349343 17.82008714 322.38434184 17.83897722 C314.16962036 17.85130875 305.95517963 17.84946032 297.74049056 17.82058942 C293.07929593 17.80535751 288.41886394 17.81283261 283.75771689 17.83729959 C280.85874164 17.84737091 277.96011635 17.83667975 275.06118202 17.82018471 C273.07858643 17.81508941 271.09597569 17.8348544 269.11347961 17.85536194 C259.4253241 17.76568237 259.4253241 17.76568237 256.34609985 14.82113647 C254.52296088 12.05419046 253.62109375 10.51942252 253.62109375 7.203125 C255.24265004 3.71677899 256.38562667 2.36010306 259.62109375 0.203125 C262.12753201 -0.05135059 262.12753201 -0.05135059 265.17808533 -0.05757141 C266.33443481 -0.06465622 267.4907843 -0.07174103 268.68217468 -0.07904053 C269.95228897 -0.07656311 271.22240326 -0.07408569 272.53100586 -0.0715332 C273.88142173 -0.07588039 275.23183514 -0.08106356 276.58224487 -0.08702087 C280.25427115 -0.10043177 283.92619461 -0.10098649 287.59824061 -0.09845757 C290.66913415 -0.09738776 293.7400069 -0.10227228 296.81089598 -0.107063 C304.06575959 -0.11816863 311.32057145 -0.1185918 318.57543945 -0.11254883 C326.03764232 -0.10652798 333.49965573 -0.11876929 340.96182626 -0.1401189 C347.38071701 -0.15780253 353.79954787 -0.16372505 360.21846205 -0.16048115 C364.04629219 -0.15867648 367.87398766 -0.16122081 371.70179558 -0.17519569 C375.31092251 -0.18787728 378.91975802 -0.18573371 382.52888107 -0.17278481 C384.46601387 -0.1693331 386.40315598 -0.18052489 388.34025574 -0.19235229 C403.20267073 -0.10413433 415.80048139 3.6229707 426.62109375 14.203125 C434.97131776 24.13163311 438.24481015 34.79370959 438.12902832 47.66381836 C438.13838826 49.29583521 438.13838826 49.29583521 438.1479373 50.96082211 C438.16377008 54.57176443 438.15130074 58.18202257 438.13867188 61.79296875 C438.14409728 64.39592886 438.15122228 66.9988859 438.15991211 69.60183716 C438.17762588 75.91693018 438.17388945 82.2318322 438.16226155 88.54693246 C438.15319919 93.6829053 438.15201528 98.81882491 438.15635681 103.95480347 C438.15696974 104.687959 438.15758268 105.42111454 438.15821418 106.17648691 C438.15949318 107.66624174 438.16079004 109.15599656 438.16210455 110.64575136 C438.17348941 124.58960656 438.16042961 138.53335629 438.13890308 152.47719419 C438.12103398 164.42137235 438.12413868 176.36539496 438.14257812 188.30957031 C438.16402195 202.20618655 438.17239097 216.10271053 438.16012907 229.99934101 C438.15885498 231.48337617 438.15759749 232.96741135 438.15635681 234.45144653 C438.15543116 235.54648393 438.15543116 235.54648393 438.15448681 236.6636433 C438.15104442 241.78879554 438.15683817 246.91388887 438.16627502 252.03903198 C438.17871591 258.94698649 438.16975977 265.85464359 438.146698 272.76256943 C438.14142486 275.29247426 438.14290064 277.82240388 438.15174866 280.35229874 C438.16274247 283.81600502 438.14889304 287.27878382 438.12902832 290.74243164 C438.14241265 292.23021071 438.14241265 292.23021071 438.15606737 293.74804592 C438.00943037 307.00563326 432.93234824 318.00079051 423.5234375 327.26953125 C415.33508181 334.15012777 405.06820257 338.33432736 394.3502655 338.32337952 C393.30845123 338.32475418 392.26663696 338.32612885 391.19325256 338.32754517 C390.0610881 338.32394989 388.92892365 338.32035461 387.76245117 338.31665039 C386.56203186 338.31679642 385.36161255 338.31694244 384.12481689 338.3170929 C380.84214269 338.31651648 377.55951137 338.3115084 374.27684569 338.30451894 C370.84287564 338.29825877 367.40890469 338.29767949 363.97492981 338.29649353 C357.47625823 338.29338806 350.97760352 338.28518526 344.47893935 338.27514404 C337.07872471 338.26395854 329.67850924 338.25846631 322.27828825 338.25344861 C307.05921199 338.24300198 291.84015896 338.22466626 276.62109375 338.203125 C276.62109375 351.403125 276.62109375 364.603125 276.62109375 378.203125 C280.235625 378.16832031 283.85015625 378.13351562 287.57421875 378.09765625 C291.10904146 378.07420123 294.64385521 378.05601851 298.17871094 378.03833008 C300.61885515 378.02332522 303.05897277 378.00291485 305.49902344 377.97680664 C309.02415567 377.94005649 312.54892863 377.92331498 316.07421875 377.91015625 C317.6874704 377.88693047 317.6874704 377.88693047 319.33331299 377.86323547 C332.87898835 377.86028466 344.45100224 381.23682971 354.49609375 390.578125 C360.53590977 396.9883071 362.76956332 404.09462835 362.859375 412.7578125 C362.86744675 413.49637482 362.87551849 414.23493713 362.88383484 414.99588013 C362.89765248 416.55761381 362.908385 418.11937739 362.91625977 419.68115234 C362.92779051 421.27564358 362.94825988 422.87009588 362.9777832 424.46435547 C363.02049466 426.77077405 363.0366317 429.07604737 363.046875 431.3828125 C363.06438309 432.09130341 363.08189117 432.79979431 363.09992981 433.52975464 C363.07849685 438.44295532 362.0786529 440.75910915 358.62109375 444.203125 C356.02575684 444.82987082 356.02575684 444.82987082 353.01757812 444.8323307 C351.2955014 444.85188881 351.2955014 444.85188881 349.53863525 444.87184203 C348.27678406 444.86068842 347.01493286 444.84953481 345.71484375 444.83804321 C344.3612971 444.8438031 343.00775827 444.85174334 341.65423584 444.86167943 C337.93106738 444.882595 334.20853789 444.8722168 330.48536682 444.85674834 C326.47164532 444.84545777 322.45803542 444.86288609 318.44433594 444.87664795 C310.58005907 444.89890954 302.71602046 444.89406624 294.85173416 444.87958474 C288.46168305 444.86830395 282.07169883 444.86675656 275.68164062 444.87220383 C274.31870817 444.87335307 274.31870817 444.87335307 272.92824173 444.87452554 C271.08253477 444.87612413 269.23682783 444.87774519 267.39112091 444.8793885 C250.07399197 444.89365455 232.75699526 444.87723986 215.439888 444.85038666 C200.57314035 444.8280471 185.70658788 444.83192699 170.83984375 444.85498047 C153.58572168 444.88172337 136.33171558 444.89228118 119.07757568 444.87691915 C117.2385661 444.87532636 115.3995565 444.87375451 113.56054688 444.87220383 C112.65566151 444.87143245 111.75077614 444.87066107 110.81847 444.86986632 C104.43429028 444.86554478 98.05018397 444.87284562 91.66601562 444.88460159 C83.88836827 444.89860839 76.1109733 444.89486517 68.33335495 444.86819787 C64.36316788 444.85503495 60.39340196 444.84994893 56.42321777 444.86644363 C52.79110908 444.8813058 49.15981321 444.87321834 45.52777863 444.84655587 C43.58636911 444.83829439 41.6449035 444.85468226 39.70355225 444.87184203 C38.5555011 444.85880329 37.40744995 444.84576455 36.22460938 444.8323307 C35.2319104 444.83151894 34.23921143 444.83070718 33.21643066 444.82987082 C29.60628329 443.95805924 28.56010932 442.29025203 26.62109375 439.203125 C26.11938477 435.74902344 26.11938477 435.74902344 26.125 431.8125 C26.12354477 431.10845032 26.12208954 430.40440063 26.12059021 429.67901611 C26.12224477 428.19303237 26.13375667 426.70703071 26.15454102 425.22119141 C26.18333247 422.97352222 26.17517495 420.72824074 26.16210938 418.48046875 C26.1772701 406.42785951 27.53498358 398.40224588 36.10546875 389.5 C46.74872459 379.78224467 59.15201641 377.70837032 73.16796875 377.91015625 C74.8737912 377.91652351 74.8737912 377.91652351 76.61407471 377.92301941 C80.20000202 377.93963778 83.78534005 377.97725792 87.37109375 378.015625 C89.82160639 378.03069361 92.27212796 378.04437817 94.72265625 378.05664062 C100.68920457 378.08691743 106.65449974 378.14567206 112.62109375 378.203125 C112.62109375 365.003125 112.62109375 351.803125 112.62109375 338.203125 C108.96313721 338.22407227 105.30518066 338.24501953 101.53637695 338.26660156 C89.41863281 338.33303126 77.30090123 338.37732844 65.18302631 338.41037369 C57.83961468 338.43093447 50.49637645 338.45892967 43.15307617 338.50488281 C36.74714872 338.54495067 30.34134696 338.57060484 23.93529767 338.57947898 C20.54826766 338.58466032 17.16159699 338.59669967 13.774683 338.62604523 C9.97888958 338.65529654 6.18382835 338.65907179 2.38793945 338.65722656 C1.2845372 338.67160767 0.18113495 338.68598877 -0.95570374 338.70080566 C-14.32946464 338.63095677 -26.48237931 334.3967414 -36.44140625 325.32421875 C-45.60252348 315.55104412 -48.68646844 304.38585673 -48.64633179 291.34370422 C-48.6508629 290.25996511 -48.65539401 289.176226 -48.66006243 288.05964631 C-48.67270822 284.43335675 -48.67108591 280.80721735 -48.66943359 277.1809082 C-48.67541877 274.57868761 -48.68222429 271.9764688 -48.68978882 269.37425232 C-48.7063755 263.04181868 -48.71189733 256.70942227 -48.71301357 250.37696872 C-48.71396529 245.22658469 -48.71808176 240.0762129 -48.72441483 234.92583275 C-48.74202198 220.30818897 -48.75125469 205.69057452 -48.74975388 191.07292006 C-48.74967397 190.28548974 -48.74959405 189.49805942 -48.74951172 188.68676758 C-48.74942996 187.89837028 -48.7493482 187.10997299 -48.74926396 186.29768487 C-48.74845152 173.52832966 -48.7675798 160.75909253 -48.79578845 147.98977146 C-48.82455618 134.86325946 -48.83832657 121.73680497 -48.8366009 108.61026067 C-48.83593827 101.24680447 -48.84137444 93.88347203 -48.862957 86.52004433 C-48.88313494 79.59166145 -48.8824554 72.6635434 -48.86792374 65.73514748 C-48.86583595 63.19717527 -48.87053464 60.65918669 -48.88264465 58.12124252 C-48.89814689 54.64634553 -48.88875499 51.17234259 -48.87338257 47.69746399 C-48.88366969 46.70220068 -48.89395682 45.70693737 -48.90455568 44.68151456 C-48.78641778 32.52863445 -44.5805597 22.14663655 -36.37890625 13.203125 C-25.4443954 3.47811162 -14.35333669 0.07175011 0 0 Z M129.62109375 338.203125 C129.62109375 351.403125 129.62109375 364.603125 129.62109375 378.203125 C172.52109375 378.203125 215.42109375 378.203125 259.62109375 378.203125 C259.62109375 365.003125 259.62109375 351.803125 259.62109375 338.203125 C216.72109375 338.203125 173.82109375 338.203125 129.62109375 338.203125 Z " fill="#6699FF" transform="translate(61.37890625,60.796875)"/>
<path d="M0 0 C7.59 0 15.18 0 23 0 C26.1875 8.3125 26.1875 8.3125 27.15698242 10.91918945 C28.50331529 14.3019855 29.4533071 16.54814158 32.296875 18.8984375 C35.51414012 20.20951953 38.73969526 21.29574271 42.0625 22.3125 C58.53236971 27.53236971 58.53236971 27.53236971 63 32 C69.32923821 31.76558377 73.88123491 29.85856138 79.484375 26.9609375 C82.36549837 25.86038416 83.16394168 25.98463362 86 27 C88.49465742 28.84105937 90.61885578 31.06353236 92.8125 33.25 C93.42287109 33.82363281 94.03324219 34.39726563 94.66210938 34.98828125 C98.98542182 39.26772694 98.98542182 39.26772694 99.05078125 42.55078125 C98.70402344 43.35902344 98.35726562 44.16726562 98 45 C97.59523438 45.95777344 97.19046875 46.91554687 96.7734375 47.90234375 C95.84122035 49.92561951 94.90371476 51.94646701 93.9609375 53.96484375 C92.38997224 58.92679499 93.4956609 61.92651188 95.671875 66.55859375 C96.35921655 67.85442345 97.05218441 69.14728047 97.75 70.4375 C101.27124655 77.129671 103.69470907 83.70548739 105.69921875 90.98828125 C107.7369247 95.70621305 110.75719993 96.48277371 115.33203125 98.38671875 C116.48058594 98.81597656 117.62914062 99.24523437 118.8125 99.6875 C119.97394531 100.12449219 121.13539063 100.56148438 122.33203125 101.01171875 C123.21246094 101.33785156 124.09289062 101.66398437 125 102 C123.63708112 106.08875663 120.89148518 107.19131023 117.375 109.3125 C100.26792677 120.04335907 87.76664135 137.10209622 83 157 C81.03753882 169.6391663 80.53824154 183.50534422 84.34375 195.78515625 C85 198 85 198 85 201 C79.91132196 200.18618568 75.60877672 198.16185993 70.9375 196.05859375 C66.25654761 194.37170798 64.11376974 194.49339819 59.5390625 196.57421875 C58.23065514 197.27171224 56.92613726 197.97653669 55.625 198.6875 C48.91075163 202.22702989 42.284771 204.75357963 35.01171875 206.89453125 C31.50115888 208.18310251 29.76822375 209.44061731 28.10864258 212.80932617 C27.87298584 213.46392822 27.6373291 214.11853027 27.39453125 214.79296875 C27.15839111 215.43516357 26.92225098 216.0773584 26.67895508 216.73901367 C26.3930249 217.54701416 26.10709473 218.35501465 25.8125 219.1875 C24.884375 221.765625 23.95625 224.34375 23 227 C15.74 227 8.48 227 1 227 C-3.95443329 216.15380819 -3.95443329 216.15380819 -5.08203125 212.34765625 C-7.8589662 207.50074535 -11.18674937 206.96404905 -16.375 205.5 C-23.97625182 203.13357255 -30.46622829 200.45938832 -37.2734375 196.28515625 C-40.54421449 194.74348629 -42.41677089 194.55209636 -46 195 C-49.3406635 196.31383972 -49.3406635 196.31383972 -52.625 198.0625 C-58.47053262 201.06702201 -58.47053262 201.06702201 -60.98461914 200.7487793 C-64.66688104 199.38069968 -67.07337405 196.4801648 -69.8125 193.75 C-70.42287109 193.17636719 -71.03324219 192.60273438 -71.66210938 192.01171875 C-75.98544456 187.73225055 -75.98544456 187.73225055 -76.05078125 184.4453125 C-75.53064453 183.23488281 -75.53064453 183.23488281 -75 182 C-74.59523438 181.05382812 -74.19046875 180.10765625 -73.7734375 179.1328125 C-72.84220665 177.1298858 -71.90471165 175.12985947 -70.9609375 173.1328125 C-69.42425595 168.12298077 -70.32751022 164.48960103 -72.453125 159.78125 C-73.04609375 158.6984375 -73.6390625 157.615625 -74.25 156.5 C-77.59522984 150.21093352 -79.83155554 143.90093119 -81.859375 137.08203125 C-83.1860543 133.4230188 -83.1860543 133.4230188 -86 131 C-88.5357768 129.874854 -91.03228643 128.84483083 -93.625 127.875 C-100.89527027 125.10472973 -100.89527027 125.10472973 -102 124 C-102.08700342 122.36527118 -102.10701063 120.72685945 -102.09765625 119.08984375 C-102.09443359 118.10048828 -102.09121094 117.11113281 -102.08789062 116.09179688 C-102.07951172 115.05087891 -102.07113281 114.00996094 -102.0625 112.9375 C-102.05798828 111.89271484 -102.05347656 110.84792969 -102.04882812 109.77148438 C-102.03699913 107.1809334 -102.02051689 104.59049441 -102 102 C-100.87980469 101.60167969 -99.75960937 101.20335938 -98.60546875 100.79296875 C-97.13265281 100.25825214 -95.66000526 99.72307156 -94.1875 99.1875 C-93.44951172 98.92646484 -92.71152344 98.66542969 -91.95117188 98.39648438 C-91.23896484 98.13544922 -90.52675781 97.87441406 -89.79296875 97.60546875 C-88.81106567 97.25198364 -88.81106567 97.25198364 -87.80932617 96.89135742 C-85.07094551 95.54230496 -83.44716572 94.02389197 -82.21972656 91.21337891 C-81.93307129 90.22990479 -81.93307129 90.22990479 -81.640625 89.2265625 C-81.4152002 88.49018555 -81.18977539 87.75380859 -80.95751953 86.99511719 C-80.72403809 86.21297852 -80.49055664 85.43083984 -80.25 84.625 C-78.00260626 77.41539561 -75.26912196 71.2585632 -71.3203125 64.796875 C-69.75762571 61.48656806 -69.54106309 59.62513801 -70 56 C-71.31383972 52.6593365 -71.31383972 52.6593365 -73.0625 49.375 C-76.06749156 43.52855384 -76.06749156 43.52855384 -75.74658203 41.01538086 C-74.38558959 37.34141337 -71.52574325 34.93065773 -68.8125 32.1875 C-68.24724609 31.57712891 -67.68199219 30.96675781 -67.09960938 30.33789062 C-62.84281824 26.0128348 -62.84281824 26.0128348 -58.921875 25.953125 C-55.01527772 27.35281494 -51.38991975 29.08561465 -47.68359375 30.94140625 C-44.72332364 32.10914017 -43.14427404 32.46476449 -40 32 C-37.61794037 30.8434096 -35.39838663 29.65078541 -33.125 28.3125 C-26.64667799 24.6529467 -20.26960756 22.20732832 -13.14453125 20.10546875 C-9.41154567 18.79312724 -6.95795306 17.92373826 -5.1340332 14.26098633 C-4.26531792 12.12960643 -3.49608014 9.99015941 -2.75 7.8125 C-1.8425 5.234375 -0.935 2.65625 0 0 Z M-25.1171875 80.67578125 C-34.93997374 92.80141986 -38.40737303 105.55088244 -37 121 C-34.4829088 134.27465955 -27.46042307 146.17359673 -16.27734375 153.875 C-4.09832983 161.4181312 8.25045233 164.1258882 22.49609375 161.30859375 C35.54080957 157.63640638 45.89324799 150.72653313 53.25 139.25 C60.10273783 126.91132724 62.5946229 113.2229158 58.75 99.4375 C58.2013661 97.94511511 57.62015695 96.46410968 57 95 C56.61714844 93.99646484 56.61714844 93.99646484 56.2265625 92.97265625 C51.35200337 81.68067295 40.9751544 73.31771251 30.25 67.859375 C10.85259335 60.45064329 -10.89153298 65.55742371 -25.1171875 80.67578125 Z " fill="#9AC8FF" transform="translate(196,23)"/>
<path d="M0 0 C1.11136041 -0.00694553 2.22272081 -0.01389106 3.36775881 -0.02104706 C7.07558456 -0.03927976 10.7827678 -0.02906257 14.49061584 -0.01878357 C17.15550712 -0.02584391 19.82035343 -0.03445315 22.48522949 -0.04489136 C28.96248036 -0.06648655 35.43955523 -0.06641604 41.91683023 -0.05826581 C47.1835189 -0.05195516 52.45015641 -0.05311259 57.71684456 -0.05953789 C58.46763618 -0.06043954 59.2184278 -0.0613412 59.99197068 -0.06227018 C61.51740357 -0.06412146 63.04283645 -0.06598402 64.56826932 -0.06785773 C78.85922278 -0.08442061 93.1500774 -0.07572992 107.44102491 -0.05887216 C120.50263361 -0.04417684 133.56401225 -0.05880383 146.62559133 -0.08764232 C160.05275697 -0.11706614 173.47981654 -0.12799989 186.907013 -0.11846012 C188.4270077 -0.11743762 189.94700241 -0.116443 191.46699715 -0.11547661 C192.58866112 -0.11476202 192.58866112 -0.11476202 193.73298497 -0.114033 C198.9898059 -0.11187279 204.24652594 -0.12165195 209.50332451 -0.13624763 C215.91485684 -0.15380189 222.32609598 -0.1536096 228.73761695 -0.13089598 C232.00588167 -0.11978134 235.27352604 -0.11924973 238.54178619 -0.13519669 C242.0919054 -0.1511464 245.64062043 -0.13615545 249.19067383 -0.11352539 C250.21374427 -0.12536112 251.23681472 -0.13719685 252.2908873 -0.14939123 C259.88036582 -0.0513745 266.67750819 1.78215624 272.3486504 7.09887975 C279.79562623 15.79692388 276.65882874 18.41347196 276.65882874 33.5146637 C176.66882874 33.5146637 76.67882874 33.5146637 -26.34117126 33.5146637 C-26.34117126 11.5146637 -26.34117126 11.5146637 -20.34117126 4.5146637 C-14.16365236 0.10066495 -7.34351111 -0.05902282 0 0 Z " fill="#9AC8FF" transform="translate(131.34117126464844,455.48533630371094)"/>
<path d="M0 0 C1.17018677 -0.01142029 1.17018677 -0.01142029 2.36401367 -0.02307129 C4.00794281 -0.03384226 5.65194021 -0.03673762 7.29589844 -0.03222656 C9.80519864 -0.03125283 12.3114523 -0.07293085 14.8203125 -0.1171875 C16.42186865 -0.12239412 18.02343538 -0.1250827 19.625 -0.125 C20.37096436 -0.14139526 21.11692871 -0.15779053 21.88549805 -0.17468262 C25.83256129 -0.12252774 27.63832555 0.33331908 30.7890625 2.78320312 C32.8125 5.46875 32.8125 5.46875 33.375 9.03125 C32.8125 12.46875 32.8125 12.46875 28.8125 16.46875 C19.2425 16.46875 9.6725 16.46875 -0.1875 16.46875 C-0.1875 86.75875 -0.1875 157.04875 -0.1875 229.46875 C17.59640625 229.44554687 35.3803125 229.42234375 53.703125 229.3984375 C64.94140683 229.38822351 76.17968531 229.37851338 87.41796875 229.37109375 C93.31949881 229.36717788 99.22102876 229.36313688 105.12255859 229.35888672 C105.86224054 229.35835922 106.60192249 229.35783172 107.36401904 229.35728824 C119.31263109 229.34858468 131.26122394 229.33281432 143.20982459 229.31444441 C155.46821723 229.29575511 167.72659979 229.28463533 179.98500609 229.28057301 C187.55183039 229.27782594 195.11860043 229.26914301 202.68540803 229.25291707 C208.48325137 229.24111616 214.28105978 229.2398362 220.07891273 229.24253464 C222.46059568 229.24198281 224.8422806 229.23798338 227.22395134 229.23033905 C230.46751313 229.22043592 233.71083988 229.22276422 236.95440674 229.22824097 C237.9038196 229.22241528 238.85323246 229.2165896 239.83141541 229.21058738 C241.13395977 229.21656053 241.13395977 229.21656053 242.46281815 229.22265434 C243.21162664 229.2218949 243.96043513 229.22113546 244.73193479 229.22035301 C247.17067632 229.51151238 248.74143658 230.15571518 250.8125 231.46875 C252.89000841 235.35278745 252.96486432 236.96086893 251.6875 241.21875 C249.74561492 244.58468415 249.26435788 245.17171711 245.8125 246.46875 C243.67356783 246.72174966 243.67356783 246.72174966 241.320611 246.72601891 C240.42049764 246.7324678 239.52038427 246.73891669 238.59299475 246.745561 C237.608083 246.7424638 236.62317125 246.7393666 235.6084137 246.73617554 C234.03436946 246.74297221 234.03436946 246.74297221 232.42852634 246.74990618 C228.90095563 246.7625991 225.37353834 246.76092665 221.84594727 246.75927734 C219.32148031 246.76525947 216.79701519 246.77206429 214.27255249 246.77963257 C208.12052047 246.795491 201.96854496 246.80174227 195.81649441 246.80285732 C190.81662668 246.8038075 185.81677161 246.80791626 180.81690788 246.81425858 C166.64411757 246.83187113 152.47135755 246.84109729 138.29855622 246.83959763 C137.53447358 246.83951772 136.77039095 246.8394378 135.9831543 246.83935547 C134.83563264 246.83923283 134.83563264 246.83923283 133.66492873 246.83910771 C121.26247769 246.83829453 108.86014801 246.85743999 96.45773209 246.8856322 C83.72572292 246.91434552 70.99377299 246.92817339 58.26173061 246.92644465 C51.11251541 246.92578027 43.96342748 246.93129373 36.81424141 246.95280075 C30.09274445 246.9728915 23.37156131 246.97235485 16.65003586 246.95776749 C14.18007834 246.95566981 11.71010426 246.96043691 9.24017525 246.9724884 C5.87431995 246.98785058 2.50940402 246.97869182 -0.85643005 246.96322632 C-1.83911108 246.97351344 -2.82179211 246.98380057 -3.83425134 246.99439943 C-8.15074636 246.95041978 -10.53181464 246.87406822 -14.27069187 244.56284523 C-17.93512219 240.55948885 -17.33574946 236.71651457 -17.33467102 231.5436554 C-17.33834771 230.60766846 -17.3420244 229.67168153 -17.3458125 228.70733136 C-17.35688046 225.55138277 -17.36069845 222.39546707 -17.36450195 219.23950195 C-17.37076428 216.98458246 -17.37741087 214.72966401 -17.38441467 212.4747467 C-17.40184647 206.33409869 -17.41238247 200.19345848 -17.4206202 194.05279183 C-17.42576596 190.2184277 -17.43184189 186.38406601 -17.43813133 182.5497036 C-17.45500464 171.93391998 -17.46963921 161.31813851 -17.47688007 150.70234394 C-17.47878998 147.94682629 -17.48071031 145.19130864 -17.48266602 142.43579102 C-17.48314976 141.75091679 -17.4836335 141.06604257 -17.4841319 140.36041459 C-17.49243019 129.26865962 -17.5177628 118.17701257 -17.55024669 107.08530471 C-17.58332417 95.69806634 -17.60099678 84.31090208 -17.60452431 72.92360848 C-17.60687756 66.52993106 -17.6158737 60.13642411 -17.64098549 53.74279213 C-17.66423001 47.72719444 -17.66851385 41.71187992 -17.65822411 35.69624901 C-17.65772775 33.48836196 -17.66407745 31.28046116 -17.67778015 29.07261658 C-17.69544487 26.05765807 -17.6884191 23.04372168 -17.67524719 20.02876282 C-17.68621644 19.15559884 -17.69718568 18.28243486 -17.70848733 17.38281137 C-17.64745682 11.59415782 -16.51482412 8.23519605 -13.1875 3.46875 C-9.1630611 0.03779292 -5.08564996 0.00137316 0 0 Z " fill="#6799FF" transform="translate(60.1875,91.53125)"/>
<path d="M0 0 C1.26881012 -0.00540298 2.53762024 -0.01080597 3.84487915 -0.01637268 C7.31819021 -0.03031553 10.79100523 -0.01916563 14.26428866 -0.00266147 C17.90365897 0.01121003 21.54300109 0.00472645 25.18238831 0.00120544 C31.29468762 -0.00149538 37.40679042 0.01196655 43.51904297 0.03515625 C50.57812521 0.06175341 57.63687868 0.06351646 64.69599384 0.05176789 C71.49463304 0.04097426 78.29315372 0.04719034 85.09178352 0.06132317 C87.98121008 0.06707047 90.87054955 0.06701018 93.75997734 0.06225777 C97.79849905 0.05658269 101.83653328 0.07584149 105.875 0.09765625 C107.6682798 0.09090378 107.6682798 0.09090378 109.49778748 0.08401489 C120.22805648 0.18034558 120.22805648 0.18034558 124.50219727 3.50170898 C128.44866143 9.12421017 129.07951608 13.2677359 129.01013184 20.04153442 C129.0163718 20.98320461 129.02261176 21.9248748 129.02904081 22.89508045 C129.04495516 26.04041815 129.03237246 29.18497924 129.01977539 32.33032227 C129.02519711 34.58922781 129.03232004 36.84812983 129.04101562 39.10702515 C129.05924369 45.23493836 129.05218394 51.36258207 129.03949928 57.49049997 C129.02937154 63.90235527 129.03876411 70.3141875 129.04504395 76.7260437 C129.05278593 88.18079615 129.04035888 99.63539929 129.0200066 111.0901265 C129.00212777 121.47428889 129.00524787 131.85827246 129.02368164 142.24243164 C129.04508986 154.30778386 129.05305532 166.37300104 129.04123259 178.43837917 C129.03499258 184.82294756 129.0341763 191.20739277 129.04737854 197.59195328 C129.0589194 203.59205792 129.05094322 209.59182421 129.02780151 215.59189224 C129.02250551 217.79577065 129.02404334 219.99967745 129.03285217 222.20354462 C129.04375544 225.20803316 129.03010675 228.21143204 129.01013184 231.21585083 C129.01905472 232.09142989 129.02797761 232.96700896 129.03717089 233.86912072 C128.98444675 237.94724301 128.8234627 239.99323218 126.59545135 243.51957512 C123.30708623 246.63337765 121.37670823 246.63623514 116.93847656 246.67871094 C115.1910743 246.69796379 115.1910743 246.69796379 113.40837097 246.71760559 C112.14382584 246.72499252 110.8792807 246.73237946 109.57641602 246.73999023 C108.28153763 246.74806198 106.98665924 246.75613373 105.65254211 246.76445007 C102.90784841 246.7794772 100.1631806 246.78931488 97.41845703 246.796875 C93.90773958 246.80793222 90.39765725 246.84232346 86.88716412 246.8820467 C83.5336069 246.91452588 80.18011838 246.91899293 76.82641602 246.92749023 C74.93870735 246.95375237 74.93870735 246.95375237 73.01286316 246.98054504 C71.83847183 246.97761948 70.66408051 246.97469391 69.45410156 246.97167969 C68.42310837 246.97754593 67.39211517 246.98341217 66.32987976 246.98945618 C62.76201559 246.37403499 61.09167262 244.97902431 58.50219727 242.50170898 C56.93789479 239.37310403 57.14592443 236.94567974 57.50219727 233.50170898 C71.59634451 222.22639119 93.4528821 229.50170898 111.50219727 229.50170898 C111.50219727 159.21170898 111.50219727 88.92170898 111.50219727 16.50170898 C70.54461875 16.62050416 70.54461875 16.62050416 29.5871582 16.77197266 C21.6706543 16.78552246 21.6706543 16.78552246 17.96612549 16.78804016 C15.37529407 16.79265112 12.78489901 16.8020928 10.19415283 16.81843567 C6.2730371 16.84284334 2.35210335 16.8434291 -1.5690918 16.84228516 C-2.72574467 16.85307948 -3.88239754 16.86387381 -5.07410049 16.87499523 C-6.65671488 16.8687965 -6.65671488 16.8687965 -8.27130127 16.86247253 C-9.64845999 16.8666206 -9.64845999 16.8666206 -11.05344009 16.87085247 C-13.98341998 16.42837189 -15.35669553 15.51911281 -17.49780273 13.50170898 C-18.06420898 11.38061523 -18.06420898 11.38061523 -18.06030273 9.06420898 C-18.0822168 8.30237305 -18.10413086 7.54053711 -18.12670898 6.75561523 C-15.83980511 -1.44030734 -6.77311315 -0.05468045 0 0 Z " fill="#6699FF" transform="translate(340.497802734375,91.498291015625)"/>
<path d="M0 0 C3.88986477 2.42747257 7.47296664 5.07331274 11 8 C11.63292969 8.51949219 12.26585937 9.03898437 12.91796875 9.57421875 C24.57756045 20.16657094 32.40594382 36.81494059 33.16796875 52.4453125 C33.27713417 73.01207699 27.777307 89.66807397 13.625 104.875 C9.25030773 108.96548953 4.14704382 111.98562587 -1 115 C-1.62261719 115.391875 -2.24523437 115.78375 -2.88671875 116.1875 C-16.23145867 123.86447397 -34.02042164 124.89411639 -48.625 121.4375 C-66.7070775 116.0393015 -81.47335795 104.77375495 -90.5625 88.140625 C-98.94443707 70.47868617 -100.53362166 52.54574596 -94 34 C-87.23151792 17.29907085 -75.11575169 4.91060397 -59 -3 C-55.70709526 -4.23835734 -52.41146618 -5.15665509 -49 -6 C-47.3603125 -6.52400391 -47.3603125 -6.52400391 -45.6875 -7.05859375 C-30.42734404 -10.95445984 -13.63789503 -7.10111086 0 0 Z M-69.1171875 24.67578125 C-78.93997374 36.80141986 -82.40737303 49.55088244 -81 65 C-78.4829088 78.27465955 -71.46042307 90.17359673 -60.27734375 97.875 C-48.09832983 105.4181312 -35.74954767 108.1258882 -21.50390625 105.30859375 C-8.45919043 101.63640638 1.89324799 94.72653313 9.25 83.25 C16.10273783 70.91132724 18.5946229 57.2229158 14.75 43.4375 C14.2013661 41.94511511 13.62015695 40.46410968 13 39 C12.61714844 37.99646484 12.61714844 37.99646484 12.2265625 36.97265625 C7.35200337 25.68067295 -3.0248456 17.31771251 -13.75 11.859375 C-33.14740665 4.45064329 -54.89153298 9.55742371 -69.1171875 24.67578125 Z " fill="#6699FF" transform="translate(240,79)"/>
<path d="M0 0 C14.85 0 29.7 0 45 0 C45 1.65 45 3.3 45 5 C42.31039817 7.68960183 40.22892482 7.24959163 36.5736084 7.27789307 C35.69338013 7.2738446 34.81315186 7.26979614 33.90625 7.265625 C32.5525531 7.26849518 32.5525531 7.26849518 31.17150879 7.27142334 C29.26163454 7.27278559 27.35175104 7.26908638 25.44189453 7.26074219 C22.5118335 7.25004321 19.58238562 7.26063611 16.65234375 7.2734375 C14.79947781 7.27211591 12.94661225 7.26955353 11.09375 7.265625 C9.77340759 7.27169769 9.77340759 7.27169769 8.4263916 7.27789307 C2.2299166 7.2299166 2.2299166 7.2299166 0 5 C0 3.35 0 1.7 0 0 Z " fill="#99C7FF" transform="translate(333,323)"/>
</svg>
