<?xml version="1.0" encoding="UTF-8"?>
<svg version="1.1" xmlns="http://www.w3.org/2000/svg" width="512" height="512">
<path d="M0 0 C8.45236423 5.04011349 13.33392704 11.84843622 16.109375 21.2578125 C16.3878479 24.14328003 16.3878479 24.14328003 16.42822266 27.17138672 C16.44809235 28.31211639 16.46796204 29.45284607 16.48843384 30.62814331 C16.49998505 31.84398102 16.51153625 33.05981873 16.5234375 34.3125 C16.54280365 35.56918488 16.5621698 36.82586975 16.5821228 38.12063599 C16.63165224 41.44468938 16.67297398 44.76863587 16.71026611 48.09283447 C16.75043434 51.49167681 16.80146787 54.89035454 16.8515625 58.2890625 C16.94747415 64.94520632 17.0325613 71.60142236 17.109375 78.2578125 C18.2034668 78.24258545 19.29755859 78.2273584 20.42480469 78.21166992 C21.87695017 78.19935366 23.32909885 78.18741048 24.78125 78.17578125 C25.85995361 78.15928528 25.85995361 78.15928528 26.96044922 78.14245605 C42.45530541 78.04948692 51.42955906 89.56982789 61.74487305 99.73217773 C64.12531173 102.0885547 66.49898905 104.4516429 68.87109375 106.81640625 C69.81411819 107.75518962 69.81411819 107.75518962 70.77619362 108.71293831 C74.0960553 112.01795785 77.41314872 115.32572467 80.7277832 118.63598633 C84.11632124 122.01902581 87.5140607 125.39266427 90.91400433 128.7642355 C93.56249433 131.39396263 96.20411736 134.03050959 98.84400368 136.66887093 C100.09281514 137.91469198 101.34408285 139.15805669 102.59802818 140.39871025 C112.27114129 149.97646402 121.55220278 159.79983245 127.421875 172.2578125 C127.74816895 172.93368408 128.07446289 173.60955566 128.41064453 174.3059082 C135.58911873 189.49418065 137.43223681 204.30112748 137.3046875 220.96484375 C137.30094571 222.42599796 137.29810427 223.88715473 137.29611206 225.34831238 C137.28856715 229.14746334 137.26900029 232.94645524 137.2467041 236.74554443 C137.22604566 240.64088796 137.21706811 244.53625782 137.20703125 248.43164062 C137.18574326 256.04043619 137.15172163 263.64910185 137.109375 271.2578125 C137.85703125 271.21140625 138.6046875 271.165 139.375 271.1171875 C140.35984375 271.08109375 141.3446875 271.045 142.359375 271.0078125 C143.33390625 270.96140625 144.3084375 270.915 145.3125 270.8671875 C148.109375 271.2578125 148.109375 271.2578125 150.43640137 272.92773438 C152.48353892 275.77893916 152.6155563 277.3013468 152.62695312 280.7890625 C152.63956177 281.89701172 152.65217041 283.00496094 152.66516113 284.14648438 C152.65706421 285.33822266 152.64896729 286.52996094 152.640625 287.7578125 C152.6444519 288.98564453 152.64827881 290.21347656 152.65222168 291.47851562 C152.65494342 294.07422709 152.64756411 296.66996586 152.63085938 299.265625 C152.60945575 303.24280849 152.63065463 307.21818532 152.65625 311.1953125 C152.65360677 313.71614983 152.64848191 316.23698603 152.640625 318.7578125 C152.64872192 319.94955078 152.65681885 321.14128906 152.66516113 322.36914062 C152.65255249 323.47708984 152.63994385 324.58503906 152.62695312 325.7265625 C152.62377075 326.70044922 152.62058838 327.67433594 152.61730957 328.67773438 C151.95202865 332.05706089 150.76060871 333.10200287 148.109375 335.2578125 C145.6293335 335.76117706 145.6293335 335.76117706 142.79589844 335.76574707 C141.18080383 335.78266602 141.18080383 335.78266602 139.53308105 335.79992676 C137.76873718 335.78778137 137.76873718 335.78778137 135.96875 335.77539062 C134.10482605 335.78590454 134.10482605 335.78590454 132.20324707 335.79663086 C128.79802314 335.81122123 125.39377118 335.80779998 121.98860168 335.79511452 C118.42435402 335.78498366 114.86014774 335.79438042 111.29589844 335.80065918 C105.31047106 335.80793538 99.32524114 335.79834877 93.33984375 335.77929688 C86.42098542 335.75752796 79.50259858 335.76457937 72.58375168 335.7866025 C66.64221538 335.80475745 60.70082098 335.80731443 54.7592659 335.79684782 C51.21113609 335.79061332 47.66322786 335.78977579 44.1151123 335.80299377 C40.15988859 335.81669928 36.20519252 335.79770085 32.25 335.77539062 C31.07377075 335.78348755 29.8975415 335.79158447 28.68566895 335.79992676 C27.60893921 335.78864746 26.53220947 335.77736816 25.42285156 335.76574707 C24.48781799 335.76423897 23.55278442 335.76273087 22.5894165 335.76117706 C19.34782045 335.10324268 18.14680072 333.81051871 16.109375 331.2578125 C15.60144043 328.67773438 15.60144043 328.67773438 15.59179688 325.7265625 C15.57918823 324.61861328 15.56657959 323.51066406 15.55358887 322.36914062 C15.56168579 321.17740234 15.56978271 319.98566406 15.578125 318.7578125 C15.5742981 317.52998047 15.57047119 316.30214844 15.56652832 315.03710938 C15.56380658 312.44139791 15.57118589 309.84565914 15.58789062 307.25 C15.60929425 303.27281651 15.58809537 299.29743968 15.5625 295.3203125 C15.56514323 292.79947517 15.57026809 290.27863897 15.578125 287.7578125 C15.57002808 286.56607422 15.56193115 285.37433594 15.55358887 284.14648438 C15.56619751 283.03853516 15.57880615 281.93058594 15.59179688 280.7890625 C15.59657043 279.32823242 15.59657043 279.32823242 15.60144043 277.83789062 C16.255721 274.51444093 17.46622308 273.31570896 20.109375 271.2578125 C23.125 270.8671875 23.125 270.8671875 26.359375 271.0078125 C27.43703125 271.04390625 28.5146875 271.08 29.625 271.1171875 C30.44484375 271.16359375 31.2646875 271.21 32.109375 271.2578125 C32.03991236 266.86478018 31.95167321 262.47262171 31.84692383 258.08032227 C31.81391705 256.58986493 31.78581173 255.09928988 31.76293945 253.60864258 C31.72894106 251.45082989 31.67661338 249.29407291 31.62109375 247.13671875 C31.59490967 245.8432251 31.56872559 244.54973145 31.54174805 243.21704102 C30.58971751 234.49932267 27.83051754 229.08046567 21.5300293 223.06079102 C20.8662326 222.40254333 20.20243591 221.74429565 19.51852417 221.06610107 C17.33691371 218.90891486 15.13526577 216.77340778 12.93359375 214.63671875 C11.4036575 213.12816278 9.87534672 211.6179567 8.34858704 210.10618591 C4.3339274 206.13698608 0.30334227 202.18441677 -3.73266602 198.23693848 C-10.18373224 191.92644544 -16.61987674 185.60107533 -23.03761864 179.2566967 C-25.27216997 177.05529871 -27.51927443 174.86732851 -29.76765442 172.68006897 C-47.4444496 155.34238097 -47.4444496 155.34238097 -48.02484608 144.82576561 C-48.02911956 143.91327364 -48.03339304 143.00078167 -48.03779602 142.06063843 C-48.04495132 141.00940796 -48.05210663 139.95817749 -48.05947876 138.87509155 C-48.06216766 137.72699005 -48.06485657 136.57888855 -48.06762695 135.39599609 C-48.07419815 134.18252502 -48.08076935 132.96905396 -48.08753967 131.71881104 C-48.10726981 127.69795483 -48.11894005 123.67713851 -48.12890625 119.65625 C-48.13295597 118.26841843 -48.13707296 116.88058706 -48.14125633 115.49275589 C-48.16030064 108.96912292 -48.17453139 102.4455012 -48.1828683 95.92184579 C-48.1926282 88.41008535 -48.21891795 80.89862055 -48.25936919 73.3869642 C-48.28961416 67.56936319 -48.30434521 61.75184651 -48.30764931 55.93416846 C-48.30999091 52.46515808 -48.31883352 48.9964638 -48.34411049 45.5275383 C-48.37190674 41.6502634 -48.36753451 37.7733715 -48.3605957 33.89599609 C-48.37340576 32.76003998 -48.38621582 31.62408386 -48.39941406 30.45370483 C-48.33774671 20.9675754 -46.18927508 12.85093784 -39.59375 5.7890625 C-28.99673947 -3.73852495 -12.95346121 -6.21592266 0 0 Z M-26.890625 18.2578125 C-30.91732904 23.37281492 -32.0071309 27.57845052 -32.03106689 33.97454834 C-32.03677704 34.89397217 -32.04248718 35.813396 -32.04837036 36.76068115 C-32.04948822 37.75714661 -32.05060608 38.75361206 -32.05175781 39.78027344 C-32.05672272 40.8394397 -32.06168762 41.89860596 -32.06680298 42.98986816 C-32.08139668 46.49064791 -32.0882221 49.99138234 -32.09375 53.4921875 C-32.09950388 55.92970785 -32.10526159 58.3672282 -32.11102295 60.80474854 C-32.12152509 65.91573294 -32.12737287 71.02670164 -32.13085938 76.13769531 C-32.13634144 82.6755661 -32.16036691 89.21322835 -32.18883133 95.75103378 C-32.20748725 100.78689168 -32.2126649 105.82269964 -32.21419525 110.85858917 C-32.21721577 113.2682433 -32.22522395 115.67789668 -32.23838043 118.08751678 C-32.25550176 121.4644288 -32.25354553 124.84083521 -32.24707031 128.21777344 C-32.26089249 129.70032623 -32.26089249 129.70032623 -32.2749939 131.21282959 C-32.22058972 140.30472259 -30.72089427 147.09651855 -24.19407654 153.66755676 C-23.56751663 154.26783188 -22.94095673 154.86810699 -22.29541016 155.48657227 C-21.63000717 156.14803253 -20.96460419 156.8094928 -20.27903748 157.49099731 C-18.09276276 159.65791876 -15.88635365 161.80308443 -13.6796875 163.94921875 C-12.14742876 165.46264263 -10.61672086 166.97763811 -9.0874939 168.49412537 C-5.06769777 172.47412119 -1.03153361 176.43705435 3.00970459 180.39526367 C9.47356493 186.72951201 15.91730931 193.08405622 22.35124588 199.44868279 C24.59361567 201.66055502 26.84602945 203.86180104 29.09970093 206.06214905 C30.48527631 207.4272246 31.87051726 208.79263972 33.25537109 210.15844727 C33.87788254 210.76074661 34.50039398 211.36304596 35.14176941 211.9835968 C43.65391595 220.42936796 47.36040228 228.63899018 47.5234375 240.59375 C47.54108154 241.37403564 47.55872559 242.15432129 47.5769043 242.95825195 C47.63956965 245.84956951 47.68603287 248.74121999 47.734375 251.6328125 C47.858125 258.1090625 47.981875 264.5853125 48.109375 271.2578125 C71.869375 271.2578125 95.629375 271.2578125 120.109375 271.2578125 C120.17125 261.0071875 120.233125 250.7565625 120.296875 240.1953125 C120.32418701 236.99062256 120.35149902 233.78593262 120.37963867 230.48413086 C120.38841405 227.89697647 120.39605548 225.30981788 120.40234375 222.72265625 C120.41769165 221.41752075 120.43303955 220.11238525 120.44885254 218.7677002 C120.45752529 187.72791722 105.56045708 168.56605651 84.6127224 147.59429932 C83.94517244 146.92638367 83.27762249 146.25846802 82.58984375 145.5703125 C81.19974266 144.17699159 79.80971404 142.78359837 78.41975403 141.39013672 C75.52614705 138.49058276 72.63052254 135.59306116 69.73364258 132.69677734 C66.02193942 128.98517653 62.31720758 125.26669848 58.61413097 121.54649353 C55.75483407 118.67609509 52.89102102 115.81023587 50.0259037 112.94564819 C48.65715204 111.57571726 47.29001983 110.20416625 45.92455101 108.83096313 C44.02235932 106.91899231 42.11395896 105.01343921 40.20385742 103.109375 C39.6432814 102.54317947 39.08270538 101.97698395 38.50514221 101.39363098 C34.22269176 97.14555336 31.29574365 94.97722634 25.234375 94.8828125 C20.42536483 94.99596568 17.75522538 95.95918597 14.109375 99.2578125 C10.4243974 103.42765557 9.66605655 106.54602606 9.67578125 111.9140625 C10.69561644 117.42668516 13.73373247 121.25265946 17.64086914 125.09814453 C18.55514175 126.00573517 19.46941437 126.91332581 20.41139221 127.84841919 C21.40576259 128.82083064 22.40014249 129.79323234 23.39453125 130.765625 C24.41758469 131.77798957 25.43982466 132.79117679 26.46128845 133.80514526 C29.14215922 136.46331214 31.8310542 139.11318994 34.52264404 141.76049805 C38.83521663 146.00268669 43.14015855 150.25249727 47.43606377 154.51156235 C48.93509547 155.99393303 50.44041514 157.46969943 51.94630432 158.94509888 C52.85742477 159.84638519 53.76854523 160.74767151 54.70727539 161.67626953 C55.51097061 162.46647491 56.31466583 163.2566803 57.14271545 164.0708313 C58.98555106 166.12011677 60.16747821 167.68114797 61.109375 170.2578125 C60.66493056 176.70225694 60.66493056 176.70225694 58.109375 179.2578125 C54.50762322 180.32196643 52.69839317 180.50484165 49.2010498 179.03808594 C46.11796436 177.26275849 43.91513577 175.45584162 41.39257812 172.9609375 C40.51146362 172.09573486 39.63034912 171.23053223 38.72253418 170.33911133 C37.77803237 169.39587755 36.83407628 168.45209705 35.890625 167.5078125 C34.9049501 166.52925183 33.91898293 165.55098547 32.93273926 164.57299805 C30.87003336 162.52370675 28.81332352 160.46861124 26.76025391 158.40966797 C24.15147188 155.79501646 21.52499161 153.1990012 18.89310455 150.6076355 C16.85091732 148.59153872 14.82056254 146.5638283 12.79319763 144.53283691 C11.36831026 143.11042787 9.93240699 141.69908077 8.49621582 140.28808594 C-1.58648541 130.09890165 -6.25806597 121.17049127 -6.18359375 106.88671875 C-5.67131517 100.54129479 -3.38632988 95.50136982 0.109375 90.2578125 C0.42072826 87.55235081 0.42072826 87.55235081 0.3840332 84.46044922 C0.39356522 83.26845917 0.40309723 82.07646912 0.41291809 80.84835815 C0.41155098 78.91248337 0.41155098 78.91248337 0.41015625 76.9375 C0.41404581 75.59571195 0.41838101 74.25392513 0.42314148 72.91213989 C0.43060626 70.09600849 0.43031263 67.28000241 0.42504883 64.46386719 C0.41928316 60.8763076 0.43611256 57.28926918 0.4593935 53.70179558 C0.47422438 50.92716531 0.47498944 48.15265743 0.47188377 45.37799454 C0.4726393 43.41895519 0.4864522 41.45993471 0.50056458 39.50094604 C0.58336617 28.32553004 0.58336617 28.32553004 -4.34257507 18.64498901 C-9.07404276 14.56974693 -12.29050376 13.90186712 -18.3515625 13.98046875 C-22.11522902 14.39157694 -24.10852687 15.7406761 -26.890625 18.2578125 Z M32.109375 287.2578125 C32.109375 297.8178125 32.109375 308.3778125 32.109375 319.2578125 C66.429375 319.2578125 100.749375 319.2578125 136.109375 319.2578125 C136.109375 308.6978125 136.109375 298.1378125 136.109375 287.2578125 C101.789375 287.2578125 67.469375 287.2578125 32.109375 287.2578125 Z " fill="#000000" transform="translate(71.890625,152.7421875)"/>
<path d="M0 0 C0.96679688 0.62261719 0.96679688 0.62261719 1.953125 1.2578125 C2.65953125 1.69351563 3.3659375 2.12921875 4.09375 2.578125 C10.95493466 7.22848349 14.84854338 13.2756123 16.953125 21.2578125 C17.25887282 25.28667474 17.24686102 29.30769883 17.24365234 33.34667969 C17.25036957 34.56044281 17.25708679 35.77420593 17.26400757 37.02474976 C17.27972064 40.3432187 17.28636091 43.6614373 17.28763914 46.97992611 C17.28906443 49.05750274 17.29334122 51.13505343 17.29863358 53.2126236 C17.31711949 60.47314611 17.32530625 67.73359536 17.32373047 74.99414062 C17.32253036 81.74134695 17.34361038 88.48823273 17.3752178 95.235358 C17.40145264 101.04451957 17.41209472 106.85357693 17.41081965 112.66279721 C17.410312 116.12505201 17.4158844 119.58702191 17.43717575 123.04921722 C17.4603115 126.91672537 17.45099326 130.78380134 17.43896484 134.65136719 C17.45020386 135.78418121 17.46144287 136.91699524 17.47302246 138.08413696 C17.39447726 148.05805697 15.1733256 155.71693153 8.09765625 162.99536133 C7.62383011 163.48923497 7.15000397 163.98310862 6.66181946 164.49194813 C5.10911357 166.09815404 3.53426881 167.67962175 1.953125 169.2578125 C1.41218201 169.80307461 0.87123901 170.34833672 0.31390381 170.91012192 C-3.23534917 174.48407455 -6.81864127 178.02211752 -10.41516113 181.54843712 C-13.80344056 184.87464024 -17.17544763 188.21731058 -20.55078125 191.55664062 C-24.81341907 195.77134463 -29.08061397 199.9811686 -33.36279297 204.17602539 C-36.857465 207.60027773 -40.33715128 211.03914782 -43.8074646 214.48807716 C-45.12251277 215.78960322 -46.44293851 217.08572057 -47.76895142 218.37607384 C-49.62063022 220.17922323 -51.45253934 222.00050473 -53.28125 223.8269043 C-53.82357773 224.34608932 -54.36590546 224.86527435 -54.92466736 225.40019226 C-60.95527987 231.5126113 -62.388119 238.71526601 -62.55859375 247.13671875 C-62.58552055 248.18302711 -62.58552055 248.18302711 -62.61299133 249.25047302 C-62.66641899 251.44036109 -62.70076778 253.63004019 -62.734375 255.8203125 C-62.76760816 257.32099225 -62.80210319 258.82164461 -62.83789062 260.32226562 C-62.92210304 263.96724704 -62.98923219 267.61230274 -63.046875 271.2578125 C-62.22703125 271.21140625 -61.4071875 271.165 -60.5625 271.1171875 C-59.48484375 271.08109375 -58.4071875 271.045 -57.296875 271.0078125 C-56.22953125 270.96140625 -55.1621875 270.915 -54.0625 270.8671875 C-50.28241509 271.3568358 -49.38849271 272.30990105 -47.046875 275.2578125 C-46.53894043 277.83789062 -46.53894043 277.83789062 -46.52929688 280.7890625 C-46.51668823 281.89701172 -46.50407959 283.00496094 -46.49108887 284.14648438 C-46.49918579 285.33822266 -46.50728271 286.52996094 -46.515625 287.7578125 C-46.5117981 288.98564453 -46.50797119 290.21347656 -46.50402832 291.47851562 C-46.50130658 294.07422709 -46.50868589 296.66996586 -46.52539062 299.265625 C-46.54679425 303.24280849 -46.52559537 307.21818532 -46.5 311.1953125 C-46.50264323 313.71614983 -46.50776809 316.23698603 -46.515625 318.7578125 C-46.50752808 319.94955078 -46.49943115 321.14128906 -46.49108887 322.36914062 C-46.50369751 323.47708984 -46.51630615 324.58503906 -46.52929688 325.7265625 C-46.53247925 326.70044922 -46.53566162 327.67433594 -46.53894043 328.67773438 C-47.20422135 332.05706089 -48.39564129 333.10200287 -51.046875 335.2578125 C-53.5269165 335.76117706 -53.5269165 335.76117706 -56.36035156 335.76574707 C-57.97544617 335.78266602 -57.97544617 335.78266602 -59.62316895 335.79992676 C-60.79939819 335.79182983 -61.97562744 335.78373291 -63.1875 335.77539062 C-65.05142395 335.78590454 -65.05142395 335.78590454 -66.95300293 335.79663086 C-70.35822686 335.81122123 -73.76247882 335.80779998 -77.16764832 335.79511452 C-80.73189598 335.78498366 -84.29610226 335.79438042 -87.86035156 335.80065918 C-93.84577894 335.80793538 -99.83100886 335.79834877 -105.81640625 335.77929688 C-112.73526458 335.75752796 -119.65365142 335.76457937 -126.57249832 335.7866025 C-132.51403462 335.80475745 -138.45542902 335.80731443 -144.3969841 335.79684782 C-147.94511391 335.79061332 -151.49302214 335.78977579 -155.0411377 335.80299377 C-158.99636141 335.81669928 -162.95105748 335.79770085 -166.90625 335.77539062 C-168.08247925 335.78348755 -169.2587085 335.79158447 -170.47058105 335.79992676 C-171.54731079 335.78864746 -172.62404053 335.77736816 -173.73339844 335.76574707 C-174.66843201 335.76423897 -175.60346558 335.76273087 -176.5668335 335.76117706 C-179.80842955 335.10324268 -181.00944928 333.81051871 -183.046875 331.2578125 C-183.55480957 328.67773438 -183.55480957 328.67773438 -183.56445312 325.7265625 C-183.57706177 324.61861328 -183.58967041 323.51066406 -183.60266113 322.36914062 C-183.59456421 321.17740234 -183.58646729 319.98566406 -183.578125 318.7578125 C-183.5819519 317.52998047 -183.58577881 316.30214844 -183.58972168 315.03710938 C-183.59244342 312.44139791 -183.58506411 309.84565914 -183.56835938 307.25 C-183.54695575 303.27281651 -183.56815463 299.29743968 -183.59375 295.3203125 C-183.59110677 292.79947517 -183.58598191 290.27863897 -183.578125 287.7578125 C-183.59027039 285.97020508 -183.59027039 285.97020508 -183.60266113 284.14648438 C-183.58374817 282.48456055 -183.58374817 282.48456055 -183.56445312 280.7890625 C-183.56127075 279.81517578 -183.55808838 278.84128906 -183.55480957 277.83789062 C-182.88579102 274.43957866 -181.84685488 273.26713552 -179.046875 271.2578125 C-176.25 270.8671875 -176.25 270.8671875 -173.296875 271.0078125 C-172.31203125 271.04390625 -171.3271875 271.08 -170.3125 271.1171875 C-169.56484375 271.16359375 -168.8171875 271.21 -168.046875 271.2578125 C-168.05686775 270.07415855 -168.05686775 270.07415855 -168.06706238 268.86659241 C-168.12770864 261.35195683 -168.17311701 253.83744345 -168.20231152 246.32262516 C-168.21782628 242.46115053 -168.2387972 238.59988166 -168.27319336 234.73852539 C-168.53009663 205.08946425 -167.04604361 178.36716271 -146.69213867 154.79296875 C-146.17063075 154.18759277 -145.64912283 153.5822168 -145.11181164 152.95849609 C-138.98744337 145.93254274 -132.43958417 139.34153882 -125.84765625 132.7578125 C-124.51851905 131.42477355 -123.18960008 130.09151696 -121.86088562 128.75805664 C-119.10194615 125.99173224 -116.33926616 123.22921237 -113.57397461 120.46923828 C-110.04880985 116.94990312 -106.53523369 113.4192393 -103.02454853 109.88546753 C-100.29387157 107.14000698 -97.55624392 104.40155942 -94.81661034 101.66503906 C-93.51822817 100.36614751 -92.22217188 99.06492624 -90.92861366 97.76123047 C-72.04042251 78.74301754 -72.04042251 78.74301754 -60.25 78.02734375 C-58.29320312 78.04861328 -58.29320312 78.04861328 -56.296875 78.0703125 C-54.32460938 78.07998047 -54.32460938 78.07998047 -52.3125 78.08984375 C-49.046875 78.2578125 -49.046875 78.2578125 -47.046875 79.2578125 C-47.05575745 78.5533902 -47.06463989 77.8489679 -47.0737915 77.12319946 C-47.15434335 70.44526356 -47.21504369 63.76746562 -47.25412369 57.08915138 C-47.27489157 53.65671482 -47.30300712 50.22468375 -47.34863281 46.79248047 C-47.40089597 42.83566342 -47.41990956 38.87900361 -47.4375 34.921875 C-47.45814514 33.70480865 -47.47879028 32.48774231 -47.50006104 31.23379517 C-47.50262365 21.39086307 -45.61255289 13.1368464 -38.75 5.7890625 C-28.65032742 -3.29137707 -12.32539266 -6.72721813 0 0 Z M-26.046875 18.2578125 C-30.44016532 23.83847858 -31.15426874 28.33386168 -31.23974609 35.28222656 C-31.26384048 37.06998505 -31.26384048 37.06998505 -31.28842163 38.89385986 C-31.33310869 44.33011497 -31.37435214 49.76624146 -31.39697266 55.20263672 C-31.41029591 58.06591855 -31.43812816 60.92848501 -31.47900391 63.79150391 C-31.52859361 67.2662745 -31.55312466 70.74039827 -31.56019974 74.21550751 C-31.57008383 76.16581655 -31.60425903 78.1159545 -31.63900757 80.065979 C-31.62284998 86.89430219 -31.09106816 91.66720767 -27.21987915 97.39227295 C-23.63208797 103.09827693 -24.55902692 110.82518711 -25.046875 117.2578125 C-27.7927532 129.21726996 -37.36826088 137.88878364 -45.7421875 146.25390625 C-46.65265839 147.16866226 -47.56312927 148.08341827 -48.50119019 149.02589417 C-50.41230555 150.94440365 -52.32716004 152.85908166 -54.24462891 154.77124023 C-56.69531473 157.21609061 -59.13434501 159.67222317 -61.57054329 162.13149929 C-63.91250334 164.49173878 -66.26542489 166.840934 -68.6171875 169.19140625 C-69.48812042 170.07154892 -70.35905334 170.95169159 -71.25637817 171.85850525 C-72.07427826 172.67017654 -72.89217834 173.48184784 -73.73486328 174.31811523 C-74.44877228 175.03265366 -75.16268127 175.74719208 -75.89822388 176.48338318 C-79.21489249 179.22240114 -81.87494867 180.28125103 -86.171875 180.1953125 C-89.046875 179.2578125 -89.046875 179.2578125 -90.984375 177.1328125 C-92.37956917 173.35758121 -91.95546191 171.1633464 -91.046875 167.2578125 C-89.11781311 164.62741089 -89.11781311 164.62741089 -86.55883789 162.13623047 C-86.09373306 161.67506836 -85.62862823 161.21390625 -85.14942932 160.73876953 C-83.61948901 159.22819276 -82.06977304 157.73970885 -80.51953125 156.25 C-79.44805816 155.19735765 -78.37812869 154.14314198 -77.30967712 153.08743286 C-74.50024622 150.31781013 -71.6745954 147.56540268 -68.84381104 144.81762695 C-64.31338237 140.4168122 -59.80309392 135.99559224 -55.30242729 131.56436539 C-53.73070059 130.02320897 -52.14909314 128.49275517 -50.56617737 126.96310425 C-49.59854008 126.01595908 -48.6312322 125.06847722 -47.66430664 124.12060547 C-46.81904922 123.30010712 -45.97379181 122.47960876 -45.10292053 121.63424683 C-41.51161713 117.48331897 -40.6316361 113.72995981 -40.796875 108.24609375 C-41.36645362 103.71616379 -43.28502814 100.94533284 -46.609375 97.9453125 C-49.93271325 95.64453987 -51.78873251 95.06069842 -55.796875 94.9453125 C-56.63734375 94.90792969 -57.4778125 94.87054688 -58.34375 94.83203125 C-64.7411297 95.839711 -69.42637914 101.33579441 -73.82739258 105.73193359 C-74.4770549 106.3732724 -75.12671722 107.01461121 -75.79606628 107.67538452 C-77.93328679 109.78859699 -80.06285422 111.90930851 -82.19140625 114.03125 C-83.6857763 115.51664214 -85.1802182 117.001962 -86.67472839 118.48721313 C-89.80616633 121.60218013 -92.93319954 124.72149841 -96.05786133 127.84326172 C-100.03333008 131.81336902 -104.02465978 135.76710161 -108.02026844 139.71692467 C-111.11492397 142.78160372 -114.1980349 145.85770717 -117.27823448 148.93690872 C-118.74312301 150.39763066 -120.21207308 151.85429262 -121.68537331 153.30653 C-138.98627162 170.37977655 -150.9216991 188.29067719 -151.27392578 213.47338867 C-151.27343205 216.16643655 -151.26318289 218.85797037 -151.2421875 221.55078125 C-151.24017334 222.81748657 -151.23815918 224.08419189 -151.23608398 225.38928223 C-151.22570102 230.07466303 -151.19777911 234.7599918 -151.171875 239.4453125 C-151.130625 249.9434375 -151.089375 260.4415625 -151.046875 271.2578125 C-127.286875 271.2578125 -103.526875 271.2578125 -79.046875 271.2578125 C-78.87677541 258.54440976 -78.87677541 258.54440976 -78.74902344 245.83056641 C-78.4209896 222.68307266 -66.44723665 212.42804833 -50.67858887 196.96718788 C-47.29030944 193.64098476 -43.91830237 190.29831442 -40.54296875 186.95898438 C-36.28033093 182.74428037 -32.01313603 178.5344564 -27.73095703 174.33959961 C-24.236285 170.91534727 -20.75659872 167.47647718 -17.2862854 164.02754784 C-15.97123723 162.72602178 -14.65081149 161.42990443 -13.32479858 160.13955116 C-11.47311978 158.33640177 -9.64121066 156.51512027 -7.8125 154.6887207 C-7.27017227 154.16953568 -6.72784454 153.65035065 -6.16908264 153.11543274 C0.8133546 146.03827727 1.40033232 137.82664915 1.34130859 128.28125 C1.34656555 127.22149963 1.35182251 126.16174927 1.35723877 125.06988525 C1.37036857 121.59070802 1.36172532 118.11199383 1.3515625 114.6328125 C1.35358524 112.20100823 1.35649835 109.76920455 1.36026001 107.33740234 C1.36467387 102.25026655 1.35828235 97.1632892 1.34423828 92.07617188 C1.32714722 85.56976712 1.3369934 79.06373368 1.35495567 72.55734253 C1.36581873 67.53862736 1.36233555 62.5199996 1.3545723 57.50128174 C1.35257727 55.1028031 1.35500493 52.70431641 1.36201096 50.30584717 C1.36966678 46.94847727 1.35796282 43.59170093 1.34130859 40.234375 C1.35041763 38.76124847 1.35041763 38.76124847 1.35971069 37.25836182 C1.30126417 30.86806979 0.96539891 23.62951857 -3.4987278 18.63272095 C-8.24697057 14.57944405 -11.44254953 13.9018126 -17.5078125 13.98046875 C-21.27147902 14.39157694 -23.26477687 15.7406761 -26.046875 18.2578125 Z M-167.046875 287.2578125 C-167.046875 297.8178125 -167.046875 308.3778125 -167.046875 319.2578125 C-132.726875 319.2578125 -98.406875 319.2578125 -63.046875 319.2578125 C-63.046875 308.6978125 -63.046875 298.1378125 -63.046875 287.2578125 C-97.366875 287.2578125 -131.686875 287.2578125 -167.046875 287.2578125 Z " fill="#000000" transform="translate(471.046875,152.7421875)"/>
<path d="M0 0 C3.26701612 2.66358727 6.39330111 5.45632415 9.50390625 8.30078125 C10.70273437 9.37585937 10.70273437 9.37585937 11.92578125 10.47265625 C23.25289034 21.15709249 31.22417267 34.17323423 37.50390625 48.30078125 C38.22707031 49.89986328 38.22707031 49.89986328 38.96484375 51.53125 C50.75297985 79.71561176 49.78417969 113.38067819 38.81640625 141.61328125 C32.8890274 155.96100438 24.95141975 167.8771497 14.50390625 179.30078125 C13.77558594 180.11160156 13.04726563 180.92242187 12.296875 181.7578125 C-6.3339004 201.49468217 -34.67518902 215.03797371 -61.83496094 216.4777832 C-98.33647574 217.12462592 -128.98710757 209.45605738 -156.49609375 184.30078125 C-157.2953125 183.5840625 -158.09453125 182.86734375 -158.91796875 182.12890625 C-170.24507784 171.44447001 -178.21636017 158.42832827 -184.49609375 144.30078125 C-184.97820312 143.23472656 -185.4603125 142.16867188 -185.95703125 141.0703125 C-197.77270331 112.82011476 -196.74954729 79.32356916 -185.80859375 51.05078125 C-179.89382335 36.66578291 -171.96274345 24.74676659 -161.49609375 13.30078125 C-160.779375 12.5015625 -160.06265625 11.70234375 -159.32421875 10.87890625 C-148.63978251 -0.44820284 -135.62364077 -8.41948517 -121.49609375 -14.69921875 C-120.43003906 -15.18132813 -119.36398438 -15.6634375 -118.265625 -16.16015625 C-80.20172443 -32.08041885 -32.37806739 -25.51961434 0 0 Z M-146.25 21.9609375 C-159.03893398 35.28367047 -167.89355414 50.76160616 -173.49609375 68.30078125 C-174.00849609 69.85539062 -174.00849609 69.85539062 -174.53125 71.44140625 C-179.29645139 89.08373324 -178.21758811 110.02447744 -172.49609375 127.30078125 C-172.11066406 128.46480469 -171.72523438 129.62882813 -171.328125 130.828125 C-166.93028957 143.0253579 -160.5488504 153.18867766 -152.49609375 163.30078125 C-151.91988281 164.03296875 -151.34367187 164.76515625 -150.75 165.51953125 C-134.33728179 185.35648563 -108.54497566 196.97057316 -83.30859375 199.67578125 C-54.62951223 202.22022562 -28.69945629 193.22519532 -6.49609375 175.30078125 C-5.84253906 174.800625 -5.18898438 174.30046875 -4.515625 173.78515625 C14.1633319 158.9103805 26.15483119 133.57585671 29.50390625 110.30078125 C31.31221686 79.83885367 25.49584313 53.16915034 5.50390625 29.30078125 C4.63185547 28.21023437 4.63185547 28.21023437 3.7421875 27.09765625 C-13.2741965 6.69226496 -39.61764931 -4.57752452 -65.55859375 -7.51171875 C-95.54240415 -9.22820972 -124.25936547 1.5842945 -146.25 21.9609375 Z " fill="#000000" transform="translate(329.49609375,47.69921875)"/>
<path d="M0 0 C1.17308716 0.00809692 1.17308716 0.00809692 2.36987305 0.01635742 C10.17205421 0.21916764 17.24623482 1.91377173 23.90234375 6.109375 C26.2167509 7.75794003 26.2167509 7.75794003 29 6.875 C30.83174957 6.06480308 32.66294049 5.25333142 34.4921875 4.4375 C35.27851563 4.086875 36.06484375 3.73625 36.875 3.375 C37.60976563 3.03339844 38.34453125 2.69179687 39.1015625 2.33984375 C47.53872501 -1.20376451 60.28389168 -1.14112398 68.875 2 C78.98124163 6.96629743 85.51354516 15.50511147 89.625 25.8125 C93.12084969 37.36207935 92.83275965 50.43455798 87.859375 61.45703125 C76.38149548 82.71339551 57.46689755 102.44599959 38.9765625 117.96875 C37.24221172 119.40549356 37.24221172 119.40549356 35.7109375 120.96875 C32.95927178 123.61741219 31.15668764 124.45556046 27.375 125.1875 C21.87964048 124.77353695 18.97804141 121.15292537 15.25 117.4375 C13.75724401 116.07734414 12.26414333 114.71754811 10.76538086 113.36401367 C-0.50846491 103.13046919 -11.5245603 92.58767149 -20.75 80.4375 C-21.16765625 79.89625488 -21.5853125 79.35500977 -22.015625 78.79736328 C-33.26267899 64.13897858 -38.10040783 50.9524039 -36.75 32.4375 C-34.7906737 21.14329424 -28.20879783 11.39840556 -19 4.65625 C-12.73344681 1.26186702 -7.1131691 -0.09473956 0 0 Z M-11.76953125 21.140625 C-18.42463509 28.25808342 -20.53644253 35.22954993 -20.2890625 44.93359375 C-17.24848476 64.69734904 2.28611025 80.65404061 15.8125 94.0625 C16.83161754 95.07658446 17.85049899 96.09090625 18.86914062 97.10546875 C21.32672412 99.55220835 23.78744246 101.99576544 26.25 104.4375 C30.35228226 102.80704269 33.13396739 99.85949443 36.1953125 96.79296875 C36.76522919 96.22733719 37.33514587 95.66170563 37.92233276 95.07893372 C39.13013218 93.87687355 40.33532428 92.67218875 41.53808594 91.46508789 C43.33930298 89.6607587 45.15327013 87.87004019 46.96875 86.08007812 C66.54722805 66.82169978 66.54722805 66.82169978 74.9375 41.6875 C74.41589463 33.59769603 72.4444186 27.12448315 66.5 21.4375 C61.79479348 17.76535543 57.78321387 16.20044731 51.8046875 16.6015625 C44.53561993 17.73527029 39.1121407 20.79001985 33.75 25.75 C30.9490748 27.64062451 28.81444002 28.18440972 25.42578125 28.03125 C21.75647069 27.02993006 19.26561544 24.61501223 16.40625 22.19140625 C8.24006656 15.5489853 -3.4442128 14.11966012 -11.76953125 21.140625 Z " fill="#000000" transform="translate(228.75,81.5625)"/>
</svg>
