<?xml version="1.0" encoding="UTF-8"?>
<svg version="1.1" xmlns="http://www.w3.org/2000/svg" width="512" height="512">
<path d="M0 0 C0.86753906 0.73863281 1.73507813 1.47726563 2.62890625 2.23828125 C3.48613281 2.94597656 4.34335938 3.65367188 5.2265625 4.3828125 C24.63350329 21.0301883 38.38335517 45.53410475 40.62890625 71.23828125 C41.84308879 91.11270553 40.27776309 109.16075261 31.62890625 127.23828125 C36.89674092 128.83554852 42.14065178 129.9847592 47.5546875 130.96484375 C48.38348923 131.11738617 49.21229095 131.26992859 50.06620789 131.42709351 C51.8046626 131.74632558 53.54342285 132.0638979 55.2824707 132.37988281 C57.95143918 132.86510525 60.61932473 133.35597093 63.28710938 133.84765625 C64.98040831 134.15788216 66.67376567 134.46778941 68.3671875 134.77734375 C69.16610916 134.9241861 69.96503082 135.07102844 70.78816223 135.22232056 C74.68339641 135.96799842 74.68339641 135.96799842 78.62890625 136.23828125 C77.83226562 134.71460938 77.83226562 134.71460938 77.01953125 133.16015625 C64.36739624 108.64253198 59.76748443 81.15787568 67.98730469 54.21875 C77.26619088 25.57707389 95.24567161 3.86235885 121.8125 -10.48046875 C147.00214717 -22.80798647 177.00357812 -24.94015984 203.6328125 -16.09619141 C216.81196274 -11.54087358 228.02235703 -4.73649117 238.62890625 4.23828125 C239.2425 4.7178125 239.85609375 5.19734375 240.48828125 5.69140625 C258.94088054 20.4196277 271.24046733 46.29154614 274.30859375 69.4140625 C276.68119483 97.74060468 271.08789657 124.08307279 252.75390625 146.42578125 C252.01398438 147.28558594 251.2740625 148.14539063 250.51171875 149.03125 C248.50709678 151.29314995 248.50709678 151.29314995 246.62890625 154.23828125 C247.75425781 154.73134766 247.75425781 154.73134766 248.90234375 155.234375 C256.70302065 158.85962661 262.60114116 163.12409659 268.62890625 169.23828125 C269.20382812 169.80289063 269.77875 170.3675 270.37109375 170.94921875 C280.45637752 181.66156679 282.93045747 194.69937415 282.91943359 208.82958984 C282.92615082 210.07290573 282.93286804 211.31622162 282.93978882 212.59721375 C282.95547065 215.98787445 282.96214018 219.37829011 282.96342039 222.76897001 C282.96484761 224.89245481 282.96912789 227.01591436 282.97441483 229.13939285 C282.992883 236.56202053 283.0010893 243.98457667 282.99951172 251.40722656 C282.99831055 258.30329726 283.01941616 265.19905489 283.05099905 272.0950464 C283.07722844 278.03588168 283.08787627 283.97661509 283.0866009 289.91750777 C283.0860933 293.45686039 283.09166359 296.9959343 283.112957 300.53522873 C283.13608241 304.48633597 283.12677778 308.4370199 283.11474609 312.38818359 C283.12598511 313.54590775 283.13722412 314.7036319 283.14880371 315.8964386 C283.08522407 324.13938997 281.64518682 331.04337004 276.76953125 337.82421875 C269.63716277 344.57344346 262.90509161 348.35902263 252.94140625 348.48828125 C251.76191406 348.5140625 250.58242188 348.53984375 249.3671875 348.56640625 C246.19677414 348.28812545 244.27732308 347.84989764 241.39526367 346.71777344 C240.68649582 346.44229675 239.97772797 346.16682007 239.2474823 345.88299561 C238.44628716 345.563862 238.44628716 345.563862 237.62890625 345.23828125 C237.63259342 345.82597447 237.63628059 346.4136677 237.6400795 347.01916981 C237.72865564 361.36002136 237.79472487 375.70084839 237.83615494 390.04191303 C237.85672598 396.97734248 237.88474108 403.91258864 237.93066406 410.84790039 C237.97499361 417.5457987 237.99807067 424.24346763 238.00841522 430.94151878 C238.01578354 433.49188412 238.03017199 436.04223953 238.05182648 438.59252357 C238.08102958 442.17559592 238.08485505 445.7578915 238.08300781 449.34106445 C238.09738892 450.38620209 238.11177002 451.43133972 238.12658691 452.50814819 C238.06378153 463.82916422 234.4700632 473.02831733 226.62890625 481.23828125 C218.01904604 489.25744419 208.94034298 491.89358311 197.38549805 491.77685547 C185.72185264 491.29224007 177.70396201 486.4560779 169.62890625 478.23828125 C169.16742188 478.68558594 168.7059375 479.13289063 168.23046875 479.59375 C158.02810064 489.05009515 148.52071713 491.73814961 134.9140625 491.5234375 C124.70914209 491.07955134 116.28036248 485.46596802 109.3046875 478.3046875 C103.5846493 471.25130707 101.52451629 463.95518264 101.43603516 455.0546875 C101.42785767 454.33876434 101.41968018 453.62284119 101.41125488 452.88522339 C101.38650574 450.52375105 101.36991682 448.16233814 101.35546875 445.80078125 C101.35014507 444.99303253 101.3448214 444.18528381 101.3393364 443.35305786 C101.31265743 439.08206126 101.29326109 434.81109344 101.27880859 430.54003906 C101.26544094 427.00527228 101.23752995 423.4710789 101.19677734 419.93652344 C101.14753816 415.66543374 101.12269957 411.39486607 101.11558151 407.12350464 C101.10886061 405.49675796 101.09361662 403.87002333 101.0696907 402.24343872 C101.03812839 399.96896226 101.03798684 397.69651223 101.04541016 395.421875 C101.0373233 394.12822021 101.02923645 392.83456543 101.02090454 391.50170898 C101.62890625 388.23828125 101.62890625 388.23828125 104.04037476 385.78930664 C106.62890625 384.23828125 106.62890625 384.23828125 108.62890625 384.23828125 C108.62890625 377.96828125 108.62890625 371.69828125 108.62890625 365.23828125 C106.97890625 364.57828125 105.32890625 363.91828125 103.62890625 363.23828125 C101.62890625 361.23828125 101.62890625 361.23828125 101.38281059 358.64958 C101.38465418 357.54527201 101.38649776 356.44096401 101.38839722 355.30319214 C101.38427322 353.40588348 101.38427322 353.40588348 101.38006592 351.47024536 C101.38714469 350.06072904 101.39441431 348.65121367 101.40185547 347.24169922 C101.40241936 345.76359057 101.40210345 344.28548137 101.40097046 342.80737305 C101.40039508 338.78690979 101.41217917 334.76656513 101.42611837 330.74612951 C101.43859504 326.54740336 101.43979381 322.34867469 101.44216919 318.14993286 C101.44839299 310.1955469 101.46481595 302.24121572 101.48486817 294.28685391 C101.50719921 285.23257395 101.51821355 276.17829141 101.52825904 267.12399077 C101.54918142 248.49538984 101.58437484 229.86683995 101.62890625 211.23828125 C100.46254639 210.99883789 99.29618652 210.75939453 98.09448242 210.51269531 C86.98771072 208.21437512 75.95433044 205.69815678 64.94140625 202.98828125 C63.43821859 202.62081731 61.93496347 202.25362924 60.43164062 201.88671875 C56.82995297 201.00705568 53.22916773 200.12376577 49.62890625 199.23828125 C49.63167163 199.85781866 49.63443701 200.47735607 49.63728619 201.11566734 C49.70367847 216.22396835 49.75325104 231.33222427 49.78434277 246.44063377 C49.79978 253.74709707 49.82080897 261.05346269 49.85522461 268.35986328 C49.88522371 274.73170148 49.90450408 281.10346891 49.91117173 287.47537577 C49.9150663 290.8460324 49.92415249 294.21648664 49.94609642 297.58707809 C49.96795532 301.35944237 49.97086955 305.13139091 49.96948242 308.90380859 C49.98026825 310.00864594 49.99105408 311.11348328 50.00216675 312.25180054 C49.96038296 322.79172176 47.73990097 332.18838896 40.62890625 340.23828125 C33.97898171 345.80371989 27.48810717 348.52160241 18.75390625 348.55078125 C17.60148438 348.56753906 16.4490625 348.58429688 15.26171875 348.6015625 C12.17710051 348.29310068 10.22086734 347.81935777 7.40185547 346.71557617 C6.69213593 346.44041672 5.98241638 346.16525726 5.25119019 345.88175964 C4.44815964 345.56323784 4.44815964 345.56323784 3.62890625 345.23828125 C3.63259342 345.83205 3.63628059 346.42581875 3.6400795 347.03758049 C3.7286168 361.51995038 3.79470613 376.00229601 3.83615494 390.48487663 C3.85673477 397.48871487 3.88476694 404.49237188 3.93066406 411.49609375 C3.97496054 418.2588179 3.99806418 425.02135389 4.00841522 431.78421402 C4.0157891 434.36052534 4.0301885 436.93682671 4.05182648 439.51305771 C4.08098804 443.12985989 4.08485676 446.74589158 4.08300781 450.36279297 C4.09738892 451.42087662 4.11177002 452.47896027 4.12658691 453.56910706 C4.06499857 464.74959148 0.04345786 473.57260549 -7.49609375 481.80078125 C-15.82235642 489.91124445 -25.28834493 491.5429685 -36.44506836 491.55297852 C-48.11682692 491.35479433 -56.19848991 486.41088509 -64.37109375 478.23828125 C-64.8815625 478.75777344 -65.39203125 479.27726562 -65.91796875 479.8125 C-75.09503728 488.61532637 -84.12713349 492.01684468 -96.71630859 491.828125 C-106.95145616 491.32557384 -115.01282918 487.5845929 -122.3984375 480.48046875 C-130.7074125 471.03620805 -132.68101286 462.00570942 -132.59814453 449.79516602 C-132.59843658 448.66272964 -132.59872864 447.53029327 -132.59902954 446.36354065 C-132.5976407 442.63551057 -132.58210021 438.9076825 -132.56640625 435.1796875 C-132.56267454 432.58894459 -132.55982832 429.99820027 -132.55783081 427.40745544 C-132.55098527 421.2948546 -132.53523626 415.18233663 -132.51513183 409.06976694 C-132.49273179 402.10723214 -132.4817691 395.14469379 -132.47174096 388.18213189 C-132.45086876 373.86747642 -132.41571849 359.5528814 -132.37109375 345.23828125 C-132.90767105 345.44981339 -133.44424835 345.66134552 -133.99708557 345.87928772 C-135.06309242 346.29107521 -135.06309242 346.29107521 -136.15063477 346.71118164 C-136.85221207 346.98458878 -137.55378937 347.25799591 -138.27662659 347.53968811 C-144.77436313 349.70695731 -152.92148382 349.21877866 -159.24609375 346.67578125 C-166.77200648 342.68900592 -172.67110421 336.93997621 -176.37109375 329.23828125 C-177.33525875 326.09110703 -177.50318433 323.23176258 -177.51826477 319.94740295 C-177.52899773 318.33919678 -177.52899773 318.33919678 -177.53994751 316.69850159 C-177.54263641 315.527061 -177.54532532 314.35562042 -177.5480957 313.14868164 C-177.5546669 311.91076874 -177.5612381 310.67285583 -177.56800842 309.39743042 C-177.58774472 305.29359697 -177.59941264 301.18980264 -177.609375 297.0859375 C-177.61342506 295.6684562 -177.61754205 294.2509751 -177.62172508 292.83349419 C-177.64077467 286.16729405 -177.65500178 279.50110491 -177.66333705 272.8348828 C-177.67308531 265.16694334 -177.69934221 257.49929442 -177.73983794 249.8314572 C-177.77013206 243.88896967 -177.78481875 237.94656473 -177.78811806 232.00400156 C-177.79045498 228.46279804 -177.79923477 224.92190491 -177.82457924 221.38078499 C-177.85248287 217.41790932 -177.84798844 213.45540615 -177.84106445 209.49243164 C-177.85387451 208.33920914 -177.86668457 207.18598663 -177.87988281 205.99781799 C-177.78208095 190.53959168 -172.19751563 178.17725429 -161.68359375 166.98828125 C-156.48343967 161.97954389 -150.69858509 158.62835271 -144.37109375 155.23828125 C-143.38109375 154.57828125 -142.39109375 153.91828125 -141.37109375 153.23828125 C-141.92796875 152.66722656 -142.48484375 152.09617188 -143.05859375 151.5078125 C-163.11894772 130.19368641 -170.27350061 104.62301666 -169.49853516 76.00634766 C-168.25502403 48.99690487 -155.09494973 23.62038039 -135.39453125 5.421875 C-97.9690906 -26.91805063 -39.42164878 -31.7456671 0 0 Z " fill="#010101" transform="translate(203.37109375,20.76171875)"/>
<path d="M0 0 C2.95358263 1.49355377 3.57578559 2.11563151 5.52734375 5.04296875 C6.12259182 7.05439942 6.68052756 9.07700139 7.21484375 11.10546875 C10.06183408 20.50472358 14.53564527 27.69410796 23.08203125 32.79296875 C32.9026436 37.81309008 41.76046687 39.74375928 52.58984375 36.91796875 C63.67554878 33.14636163 71.5213196 26.82506675 76.70703125 16.3515625 C77.6418769 13.97845604 77.6418769 13.97845604 77.91015625 11.078125 C78.38211673 7.60707023 78.8473398 5.13382874 80.52734375 2.04296875 C84.28779665 -0.19181469 87.90169967 -1.58281073 92.05859375 -2.87109375 C95.59677218 -3.8005326 95.59677218 -3.8005326 98.52734375 -5.95703125 C108.58992651 -7.5967317 117.60539194 -3.84924666 125.83984375 1.73046875 C133.45923031 7.92419046 139.44839963 17.72055027 140.88990021 27.50351334 C141.01375697 30.03842897 141.02333972 32.54495936 140.98144531 35.08251953 C140.98202942 36.03007614 140.98261353 36.97763275 140.98321533 37.9539032 C140.9804549 41.04908412 140.94946019 44.14327106 140.91796875 47.23828125 C140.91049909 49.3987475 140.90480959 51.55922057 140.90081787 53.71969604 C140.88561869 59.37836747 140.84638633 65.03662167 140.80200195 70.69512939 C140.76092558 76.48028929 140.74278052 82.26551725 140.72265625 88.05078125 C140.67988627 99.38172228 140.60958338 110.71224538 140.52734375 122.04296875 C130.62734375 122.04296875 120.72734375 122.04296875 110.52734375 122.04296875 C110.50546997 118.84033325 110.50546997 118.84033325 110.4831543 115.57299805 C110.43285057 108.52407012 110.36626321 101.47536409 110.29162884 94.42665386 C110.24687287 90.15237495 110.20762851 85.8781925 110.1809082 81.60375977 C110.15492702 77.47981453 110.11456206 73.35623949 110.06415749 69.23252296 C110.04745352 67.65808524 110.03596125 66.08358344 110.02972984 64.50906944 C110.02012669 62.30602447 109.99211531 60.10393413 109.9597168 57.90112305 C109.94861374 56.64647751 109.93751068 55.39183197 109.92607117 54.09916687 C109.76829456 51.08447326 109.76829456 51.08447326 108.21907043 49.13777161 C105.35340303 47.28325167 102.8237492 47.68978245 99.52734375 48.04296875 C97.70235056 49.07019104 97.70235056 49.07019104 96.52734375 51.04296875 C96.05118305 54.21386296 96.05118305 54.21386296 96.0949707 57.90112305 C96.08477905 58.59406464 96.0745874 59.28700623 96.06408691 60.00094604 C96.03390932 62.28977493 96.02468412 64.57818565 96.015625 66.8671875 C95.99878177 68.45475155 95.98063201 70.04230223 95.96122742 71.62983704 C95.91368231 75.80713729 95.88390233 79.98438336 95.85778809 84.16186523 C95.82800517 88.42507632 95.78146711 92.68810062 95.73632812 96.95117188 C95.65024376 105.3150125 95.58292153 113.67887005 95.52734375 122.04296875 C94.81990524 122.05327621 94.11246674 122.06358368 93.3835907 122.07420349 C86.71803137 122.17216396 80.05255943 122.27467638 73.38714886 122.38230801 C69.96036147 122.43748228 66.53356547 122.49089341 63.10668945 122.5402832 C59.16739124 122.5971354 55.22823635 122.66164187 51.2890625 122.7265625 C49.44208015 122.75163124 49.44208015 122.75163124 47.55778503 122.77720642 C46.41682877 122.79715164 45.2758725 122.81709686 44.1003418 122.83764648 C43.09440475 122.85319077 42.08846771 122.86873505 41.05204773 122.88475037 C38.40130322 122.94260845 38.40130322 122.94260845 35.52734375 124.04296875 C35.52734375 127.67296875 35.52734375 131.30296875 35.52734375 135.04296875 C38.62533821 136.07563357 40.84993648 136.198064 44.1003418 136.24829102 C45.25723511 136.2684729 46.41412842 136.28865479 47.6060791 136.30944824 C48.82146362 136.32592407 50.03684814 136.3423999 51.2890625 136.359375 C52.96530701 136.38735168 52.96530701 136.38735168 54.67541504 136.41589355 C58.85514316 136.48426054 63.03500313 136.54436498 67.21484375 136.60546875 C76.55796875 136.74984375 85.90109375 136.89421875 95.52734375 137.04296875 C95.52734375 174.33296875 95.52734375 211.62296875 95.52734375 250.04296875 C80.67734375 250.04296875 65.82734375 250.04296875 50.52734375 250.04296875 C50.5015625 243.9534375 50.47578125 237.86390625 50.44921875 231.58984375 C50.42405522 227.73433272 50.39772621 223.87890053 50.3671875 220.0234375 C50.3188156 213.90250333 50.27478509 207.78175159 50.25634766 201.66064453 C50.24121475 196.72618283 50.20682925 191.79219799 50.15903473 186.8579483 C50.14418613 184.97452181 50.13630075 183.09102725 50.1354599 181.20754242 C50.13309891 178.57111136 50.10609052 175.9360075 50.07324219 173.29980469 C50.07827255 172.51937302 50.08330292 171.73894135 50.08848572 170.93486023 C50.02074569 167.42583845 49.79987459 165.4110402 47.68463135 162.55426025 C44.77140275 160.51339299 43.0093702 160.52436907 39.52734375 161.04296875 C37.71087989 161.99605357 37.71087989 161.99605357 36.52734375 164.04296875 C36.2176227 166.85928377 36.08987178 169.45917838 36.0949707 172.27807617 C36.08477905 173.11732132 36.0745874 173.95656647 36.06408691 174.82124329 C36.03387696 177.59704189 36.02467884 180.37249587 36.015625 183.1484375 C35.99878423 185.0723028 35.98063481 186.99615705 35.96122742 188.91999817 C35.91365586 193.98506215 35.88389281 199.05008136 35.85778809 204.11529541 C35.82278517 210.1918735 35.76575217 216.26827961 35.71239471 222.34471893 C35.63379695 231.57744738 35.5832547 240.80994942 35.52734375 250.04296875 C20.34734375 250.04296875 5.16734375 250.04296875 -10.47265625 250.04296875 C-10.47265625 212.75296875 -10.47265625 175.46296875 -10.47265625 137.04296875 C-4.20265625 136.71296875 2.06734375 136.38296875 8.52734375 136.04296875 C9.84734375 135.05296875 11.16734375 134.06296875 12.52734375 133.04296875 C13.19401042 129.54296875 13.19401042 129.54296875 12.52734375 126.04296875 C10.71236386 123.90388531 9.18214395 123.14467499 6.41796875 122.71533203 C3.8690134 122.5228328 1.3326488 122.42152169 -1.22265625 122.35546875 C-2.11082031 122.32130859 -2.99898437 122.28714844 -3.9140625 122.25195312 C-6.10013428 122.16968161 -8.28581576 122.10046703 -10.47265625 122.04296875 C-10.47852249 121.16013718 -10.48438873 120.2773056 -10.49043274 119.36772156 C-10.54830095 111.05385473 -10.62034362 102.74025825 -10.70837116 94.42665386 C-10.75312713 90.15237495 -10.79237149 85.8781925 -10.8190918 81.60375977 C-10.84507298 77.47981453 -10.88543794 73.35623949 -10.93584251 69.23252296 C-10.95254648 67.65808524 -10.96403875 66.08358344 -10.97027016 64.50906944 C-10.97987331 62.30602447 -11.00788469 60.10393413 -11.0402832 57.90112305 C-11.05693779 56.01915474 -11.05693779 56.01915474 -11.07392883 54.09916687 C-11.23123045 51.08472647 -11.23123045 51.08472647 -12.78092957 49.14167786 C-15.68112816 47.25811437 -18.13932721 47.62630262 -21.47265625 48.04296875 C-23.93237164 50.36546508 -24.44272538 51.80737498 -24.87138367 55.18145752 C-24.88248672 56.41611755 -24.89358978 57.65077759 -24.9050293 58.92285156 C-24.91522095 59.60618561 -24.9254126 60.28951965 -24.93591309 60.99356079 C-24.96602462 63.24448871 -24.97530578 65.49499095 -24.984375 67.74609375 C-25.00122313 69.30980847 -25.01937356 70.87350967 -25.03877258 72.43719482 C-25.08626447 76.54707613 -25.1160789 80.65690256 -25.14221191 84.76696777 C-25.17202164 88.96324499 -25.21855053 93.15933318 -25.26367188 97.35546875 C-25.34969587 105.58455826 -25.41549928 113.81362805 -25.47265625 122.04296875 C-35.37265625 122.04296875 -45.27265625 122.04296875 -55.47265625 122.04296875 C-55.56333141 110.01142189 -55.63658743 97.98010514 -55.67990494 85.94829273 C-55.70070405 80.36033661 -55.72888046 74.77262811 -55.77441406 69.18481445 C-55.81814678 63.78367902 -55.84185096 58.3827805 -55.85216522 52.98148155 C-55.85950763 50.92957523 -55.8738445 48.87768061 -55.89557648 46.82587624 C-56.06686219 29.97073862 -55.09779285 16.99387605 -42.81640625 4.3359375 C-29.18762508 -8.36068646 -15.68939924 -7.83394118 0 0 Z " fill="#04DAB6" transform="translate(96.47265625,193.95703125)"/>
<path d="M0 0 C2.80817659 0.78534836 5.16317951 1.83042226 7.7590332 3.15600586 C8.74210449 3.6482666 9.72517578 4.14052734 10.73803711 4.64770508 C12.3185083 5.44072021 12.3185083 5.44072021 13.9309082 6.24975586 C40.58709471 19.29576277 68.08429076 27.05007571 97.38427734 31.10229492 C98.0604863 31.19861206 98.73669525 31.2949292 99.43339539 31.39416504 C101.28616458 31.65665836 103.14048527 31.90813205 104.99487305 32.15893555 C105.88126465 32.35390625 106.76765625 32.54887695 107.6809082 32.74975586 C112.36191995 42.11177935 109.84511397 62.97828387 106.6184082 72.68725586 C105.70742687 75.06863804 104.72940264 77.42563721 103.6809082 79.74975586 C103.4132666 80.36334961 103.145625 80.97694336 102.86987305 81.60913086 C99.43913087 89.39110726 95.38828288 96.41568906 89.6809082 102.74975586 C88.87911133 103.64436523 88.07731445 104.53897461 87.2512207 105.46069336 C70.36866845 123.32194429 46.22599995 132.39351201 21.90942383 133.08618164 C-4.45569817 133.44258901 -28.65367834 124.63907954 -47.8581543 106.33569336 C-63.33774498 90.06983775 -70.95513497 69.09871955 -70.5222168 46.85522461 C-70.29540808 40.7531979 -69.37101921 34.76076963 -68.3190918 28.74975586 C-64.33018496 27.2633236 -60.52316946 26.42070496 -56.30639648 25.86425781 C-37.25050086 23.29200302 -17.95097825 15.34726671 -4.50268555 1.33959961 C-2.3190918 -0.25024414 -2.3190918 -0.25024414 0 0 Z " fill="#FDDBCD" transform="translate(353.319091796875,55.250244140625)"/>
<path d="M0 0 C3.14395074 1.42134382 5.89223668 3.25861593 8.72021484 5.22412109 C15.21764712 9.72393305 21.87304028 13.70845894 28.875 17.375 C29.64658447 17.77912109 30.41816895 18.18324219 31.21313477 18.59960938 C35.80897824 20.96670262 40.42287079 23.05194175 45.25439453 24.89697266 C47 26 47 26 47.73461914 27.87573242 C50.54775332 50.39374576 44.5581011 71.89797009 31 90 C16.39434689 108.55680927 -5.56369886 119.5644946 -28.77294922 122.76123047 C-53.92962501 125.45836146 -79.28560764 119.87193348 -99.75 104.6875 C-101.19019224 103.48598369 -102.60552 102.25428094 -104 101 C-104.89332031 100.19949219 -105.78664063 99.39898437 -106.70703125 98.57421875 C-116.69674533 89.13113746 -123.55488387 78.03691303 -128 65 C-128.26111572 64.24203125 -128.52223145 63.4840625 -128.79125977 62.703125 C-131.23940103 54.85286298 -131.41712174 47.42723496 -131.3125 39.25 C-131.31572266 37.97511719 -131.31894531 36.70023438 -131.32226562 35.38671875 C-131.28703023 29.242948 -131.17177224 23.77985601 -129 18 C-128.25878906 18.2165625 -127.51757812 18.433125 -126.75390625 18.65625 C-114.39396345 21.92399498 -101.43836823 23.35206815 -89.59375 17.625 C-83.78579502 13.98628122 -79.08133422 9.16266843 -76 3 C-73.23158582 4.29921192 -70.93887007 5.79584745 -68.5 7.625 C-63.2379563 10.94943135 -58.03310415 10.75830453 -52 10 C-46.56315997 8.30655802 -42.4968371 5.39557087 -38 2 C-37.07767578 2.74056641 -37.07767578 2.74056641 -36.13671875 3.49609375 C-34.92435547 4.45708984 -34.92435547 4.45708984 -33.6875 5.4375 C-32.88699219 6.07558594 -32.08648437 6.71367188 -31.26171875 7.37109375 C-26.11975112 11.07437614 -20.07565007 10.53586479 -14 10 C-7.56352246 8.31631753 -3.79056651 5.38015892 0 0 Z " fill="#DEACA0" transform="translate(181,65)"/>
<path d="M0 0 C18.41889845 3.25039384 18.41889845 3.25039384 25.88671875 9.58203125 C30.6432306 13.27623556 35.92074434 15.69286061 41.3359375 18.2734375 C41.95307617 18.56968018 42.57021484 18.86592285 43.20605469 19.17114258 C44.89663111 19.95224042 46.62371283 20.65289152 48.3515625 21.34765625 C51 23 51 23 52.25 25.78515625 C52.4975 26.86667969 52.745 27.94820312 53 29.0625 C55.83877169 39.55310485 60.55976819 47.47897383 69.94140625 53.1796875 C78.79687328 57.92802012 88.44394376 59.75036543 98.27734375 57.125 C110.01297546 52.9620688 117.50491647 47.25183771 123 36 C124.4114744 32.57213359 124.99319068 30.27237273 125.0859375 26.5625 C126 23 126 23 129.23828125 20.85546875 C130.58462738 20.27165494 131.94363113 19.71635205 133.3125 19.1875 C134.32860352 18.75920898 134.32860352 18.75920898 135.36523438 18.32226562 C137.23737875 17.53351272 139.11841974 16.76597091 141 16 C142.10408203 15.41798828 142.10408203 15.41798828 143.23046875 14.82421875 C149.5301159 11.88994601 157.02171271 14.521364 163.140625 16.7421875 C172.50645506 20.86212914 179.6845807 28.64566585 184.17578125 37.75 C186.54477886 44.21702666 187.28700687 50.05258088 187.1953125 56.875 C187.1924826 57.68493408 187.18965271 58.49486816 187.18673706 59.3293457 C187.17564715 61.88638834 187.15056452 64.44306535 187.125 67 C187.1149557 68.74608865 187.1058324 70.49218285 187.09765625 72.23828125 C187.07745608 76.49243766 187.03828766 80.74581527 187 85 C177.1 85 167.2 85 157 85 C156.67 80.71 156.34 76.42 156 72 C155.01 70.68 154.02 69.36 153 68 C148.43757144 67.39923975 148.43757144 67.39923975 144.30827332 69.09870911 C142.33031056 71.97324804 142.59826549 74.39599974 142.56762695 77.8581543 C142.55735316 78.56228108 142.54707937 79.26640787 142.53649426 79.99187183 C142.50662258 82.26940828 142.49706739 84.54651352 142.48828125 86.82421875 C142.4728164 88.23101309 142.45601976 89.63779345 142.43786621 91.04455566 C142.37992952 96.25871602 142.34778078 101.47313713 142.3125 106.6875 C142.1578125 124.1671875 142.1578125 124.1671875 142 142 C107.02 142 72.04 142 36 142 C35.75 95.1875 35.75 95.1875 35.70214844 80.39916992 C35.6689338 76.02961763 35.6689338 76.02961763 35.63043213 71.66011047 C35.61580543 69.71195012 35.6090462 67.76372116 35.60845947 65.81550598 C35.60605078 62.86637006 35.57878324 59.91841464 35.54589844 56.96948242 C35.55092251 56.09965068 35.55594658 55.22981894 35.56112289 54.33362865 C35.5434586 49.74115328 35.5434586 49.74115328 33.15866089 45.99986267 C30.2676113 44.66076741 27.44260764 43.92414523 24.3359375 43.2109375 C23.70265533 43.0621817 23.06937317 42.9134259 22.41690063 42.76016235 C20.40493741 42.28925358 18.39025149 41.83161052 16.375 41.375 C13.71524887 40.76160043 11.05684384 40.14266468 8.3984375 39.5234375 C7.21942871 39.25450684 6.04041992 38.98557617 4.82568359 38.70849609 C2 38 2 38 0 37 C0 24.79 0 12.58 0 0 Z " fill="#F98697" transform="translate(284,174)"/>
<path d="M0 0 C6.27 0 12.54 0 19 0 C19.66 1.98 20.32 3.96 21 6 C24.09799446 7.03266482 26.32259273 7.15509525 29.57299805 7.20532227 C30.72989136 7.22550415 31.88678467 7.24568604 33.07873535 7.26647949 C34.90181213 7.29119324 34.90181213 7.29119324 36.76171875 7.31640625 C37.87921509 7.33505737 38.99671143 7.3537085 40.14807129 7.3729248 C44.32779941 7.44129179 48.50765938 7.50139623 52.6875 7.5625 C62.030625 7.706875 71.37375 7.85125 81 8 C81 45.29 81 82.58 81 121 C66.15 121 51.3 121 36 121 C35.97421875 114.91046875 35.9484375 108.8209375 35.921875 102.546875 C35.89671147 98.69136397 35.87038246 94.83593178 35.83984375 90.98046875 C35.79147185 84.85953458 35.74744134 78.73878284 35.72900391 72.61767578 C35.713871 67.68321408 35.6794855 62.74922924 35.63169098 57.81497955 C35.61684238 55.93155306 35.608957 54.0480585 35.60811615 52.16457367 C35.60575516 49.52814261 35.57874677 46.89303875 35.54589844 44.25683594 C35.5509288 43.47640427 35.55595917 42.6959726 35.56114197 41.89189148 C35.49340194 38.3828697 35.27253084 36.36807145 33.1572876 33.5112915 C30.244059 31.47042424 28.48202645 31.48140032 25 32 C23.18353614 32.95308482 23.18353614 32.95308482 22 35 C21.69027895 37.81631502 21.56252803 40.41620963 21.56762695 43.23510742 C21.5574353 44.07435257 21.54724365 44.91359772 21.53674316 45.77827454 C21.50653321 48.55407314 21.49733509 51.32952712 21.48828125 54.10546875 C21.47144048 56.02933405 21.45329106 57.9531883 21.43388367 59.87702942 C21.38631211 64.9420934 21.35654906 70.00711261 21.33044434 75.07232666 C21.29544142 81.14890475 21.23840842 87.22531086 21.18505096 93.30175018 C21.1064532 102.53447863 21.05591095 111.76698067 21 121 C5.82 121 -9.36 121 -25 121 C-25 83.71 -25 46.42 -25 8 C-18.73 7.67 -12.46 7.34 -6 7 C-1.7763932 4.2981424 -1.7763932 4.2981424 0 0 Z " fill="#66EAFA" transform="translate(111,323)"/>
<path d="M0 0 C34.98 0 69.96 0 106 0 C106 37.29 106 74.58 106 113 C90.82 113 75.64 113 60 113 C59.94392578 103.74001953 59.94392578 103.74001953 59.88671875 94.29296875 C59.85645084 90.38734159 59.82531075 86.48176067 59.79101562 82.57617188 C59.7366373 76.37396533 59.68552976 70.17185025 59.65356445 63.96948242 C59.62759807 58.97025134 59.58724326 53.9713264 59.53681374 48.97228432 C59.5200998 47.06290806 59.5086138 45.15347879 59.50238609 43.24403954 C59.49279406 40.57406727 59.46479439 37.90488624 59.43237305 35.23510742 C59.43380814 34.44172974 59.43524323 33.64835205 59.4367218 32.83093262 C59.38199261 28.69556881 59.38199261 28.69556881 57.69172668 25.01264954 C54.76148986 23.25864105 52.30183314 23.58727086 49 24 C46.25526408 26.4519895 45.99807154 28.01793364 45.60127258 31.70794678 C45.57489664 33.22405522 45.56483865 34.74050064 45.56762695 36.25683594 C45.5574353 37.08647354 45.54724365 37.91611115 45.53674316 38.77088928 C45.50658722 41.50878632 45.49734331 44.24633363 45.48828125 46.984375 C45.47143648 48.88439092 45.45328652 50.78439569 45.43388367 52.68438721 C45.38635558 57.68203241 45.35656436 62.67963237 45.33044434 67.6774292 C45.29541396 73.67560618 45.23839322 79.67360941 45.18505096 85.67164612 C45.10650411 94.78107554 45.05592336 103.89027701 45 113 C30.15 113 15.3 113 0 113 C-0.3125 96.1875 -0.3125 96.1875 -0.38793945 90.89135742 C-0.42022809 89.50436707 -0.45360164 88.11740137 -0.48828125 86.73046875 C-0.49452515 86.01169556 -0.50076904 85.29292236 -0.50720215 84.55236816 C-0.61999037 80.59245774 -0.61999037 80.59245774 -2.28198242 77.0793457 C-4.25382028 75.71644866 -4.25382028 75.71644866 -8 75 C-8 68.4 -8 61.8 -8 55 C-6.02 54.01 -4.04 53.02 -2 52 C5.75743371 36.48513258 -0.34685362 17.34268092 0 0 Z " fill="#7079E8" transform="translate(320,331)"/>
<path d="M0 0 C1.30098859 3.90296576 0.41109447 5.695789 -0.75 9.625 C-10.13212302 43.50215973 -8.25130521 80.10237359 8.89453125 111.3125 C9.59604466 112.54184334 10.29786242 113.77101305 11 115 C11.32274902 115.60585937 11.64549805 116.21171875 11.97802734 116.8359375 C15.61877408 123.65851625 15.61877408 123.65851625 21.96142578 127.59619141 C26.66012381 128.37842566 31.25990061 128.30243579 36 128 C36 128.33 36 128.66 36 129 C7.64149468 130.03818803 -17.05388304 124.06068 -38.875 105.125 C-53.53039359 91.15724951 -63.15928604 71.53976032 -64.19140625 51.234375 C-64.3881045 42.31557631 -63.53920121 33.79543549 -62 25 C-58.01109317 23.51356774 -54.20407766 22.6709491 -49.98730469 22.11450195 C-31.72294432 19.64909233 -13.98401922 12.09994477 0 0 Z " fill="#FCC8BC" transform="translate(347,59)"/>
<path d="M0 0 C2.46800047 1.15173355 4.04783565 2.04783565 6 4 C5.79296875 6.35546875 5.79296875 6.35546875 5.1875 9.1875 C3.15098069 18.96005912 2.757829 28.43163424 2.75 38.375 C2.74932526 39.14044128 2.74865051 39.90588257 2.74795532 40.69451904 C2.76347341 51.75065201 3.10022823 62.26616742 6 73 C6.24943359 73.96631348 6.24943359 73.96631348 6.50390625 74.95214844 C9.1798478 85.14550358 13.13517058 94.6844169 17.99560547 104.02539062 C18.94671828 105.89524975 19.80378986 107.78858986 20.66015625 109.703125 C22.50688879 113.25356297 23.85723683 115.50400838 27 118 C32.86772059 119.64545982 38.97357923 119.33480115 45 119 C45 119.33 45 119.66 45 120 C18.28560015 120.51760947 -7.41176206 116.51832533 -28 98 C-28.89332031 97.19949219 -29.78664063 96.39898437 -30.70703125 95.57421875 C-40.69674533 86.13113746 -47.55488387 75.03691303 -52 62 C-52.26111572 61.24203125 -52.52223145 60.4840625 -52.79125977 59.703125 C-55.23940103 51.85286298 -55.41712174 44.42723496 -55.3125 36.25 C-55.31572266 34.97511719 -55.31894531 33.70023438 -55.32226562 32.38671875 C-55.28703023 26.242948 -55.17177224 20.77985601 -53 15 C-51.88818359 15.32484375 -51.88818359 15.32484375 -50.75390625 15.65625 C-38.39396345 18.92399498 -25.43836823 20.35206815 -13.59375 14.625 C-7.78579502 10.98628122 -3.08133422 6.16266843 0 0 Z " fill="#D5998A" transform="translate(105,68)"/>
<path d="M0 0 C12.36716091 10.17503862 21.69589681 21.9578428 28.2109375 36.6875 C28.2109375 37.3475 28.2109375 38.0075 28.2109375 38.6875 C-5.51591535 38.04452707 -39.54298955 24.22733946 -68.52539062 7.78540039 C-74.31473842 4.53580217 -74.31473842 4.53580217 -80.7890625 4.6875 C-82.89937536 6.65113864 -84.56807332 8.46339125 -86.3515625 10.6875 C-97.72872183 23.8657597 -113.81015953 30.61631608 -130.7890625 33.6875 C-132.45516183 33.73098336 -134.12338225 33.7448332 -135.7890625 33.6875 C-130.70112536 15.82616276 -113.75117981 1.22645201 -98.17114258 -7.51269531 C-66.98496548 -24.37281423 -28.12995111 -22.05823106 0 0 Z " fill="#534473" transform="translate(427.7890625,33.3125)"/>
<path d="M0 0 C11.73449168 9.42970011 21.80614359 21.24271933 27.5 35.34375 C27.17 36.33375 26.84 37.32375 26.5 38.34375 C14.77127481 32.46296062 4.09953731 25.77724442 -6.0546875 17.44921875 C-6.63331543 16.98177246 -7.21194336 16.51432617 -7.80810547 16.03271484 C-8.90647666 15.13911935 -9.99243608 14.22996435 -11.06298828 13.30322266 C-13.76282454 11.1044957 -15.16065423 10.33917549 -18.6875 10.38671875 C-21.54243653 11.35819021 -22.83053463 11.85935916 -24.5 14.34375 C-24.92737035 16.48655359 -24.92737035 16.48655359 -24.9375 18.78125 C-25.20697541 21.90309722 -25.40761282 23.19806252 -27.125 25.90625 C-30.48495901 27.9399094 -32.61759883 27.77740071 -36.5 27.34375 C-38.75004349 25.64206148 -40.34927923 24.21664421 -42.1875 22.15625 C-42.64705078 21.67349609 -43.10660156 21.19074219 -43.58007812 20.69335938 C-45.73835424 18.39961372 -47.72978595 16.04364704 -49.64453125 13.54296875 C-51.38490972 11.09257335 -51.38490972 11.09257335 -54.5 10.34375 C-57.44444105 10.16680395 -57.44444105 10.16680395 -59.8125 11.21875 C-61.76691948 13.67987083 -61.74350886 14.65573205 -61.9375 17.71875 C-62.20145626 21.31442081 -62.46647264 22.29543115 -64.625 25.40625 C-67.5 27.34375 -67.5 27.34375 -70.75 28.21875 C-78.57079154 26.39389864 -83.41346997 18.88219804 -87.5 12.34375 C-90.54983996 10.81883002 -93.1423369 11.10812452 -96.5 11.34375 C-98.57974964 12.88199801 -99.39101387 13.76210824 -99.87109375 16.32421875 C-99.89300781 17.05253906 -99.91492188 17.78085937 -99.9375 18.53125 C-100.47583284 24.89807107 -102.61440669 29.988692 -107.5 34.21875 C-114.13253644 38.91679665 -119.44483091 38.97895762 -127.5 38.34375 C-130.93981796 37.58760196 -134.20848536 36.59199934 -137.5 35.34375 C-129.62205214 14.57461472 -111.8046538 -2.18406482 -91.859375 -11.38671875 C-61.6923621 -24.54386919 -26.08662854 -20.1630273 0 0 Z " fill="#A45E3F" transform="translate(194.5,33.65625)"/>
<path d="M0 0 C9.9 0 19.8 0 30 0 C30.16043524 16.97939595 30.16043524 16.97939595 30.1953125 24.234375 C30.21919541 29.17888627 30.24740486 34.12310037 30.30175781 39.06738281 C30.34531833 43.05501429 30.36915855 47.04232696 30.37950897 51.03017807 C30.38688213 52.5492034 30.40128042 54.0682119 30.42292023 55.58710098 C30.45209175 57.72006761 30.45595054 59.85172827 30.45410156 61.98486328 C30.46298401 63.1973172 30.47186646 64.40977112 30.48101807 65.65896606 C29.79927258 70.39420363 27.65912385 73.52902421 24.10546875 76.6796875 C19.60016473 79.48747371 16.44933126 80.89170875 11 80 C6.26306745 78.30110014 3.34852162 75.96239837 0.85820007 71.47666931 C-1.13900809 65.71295019 -0.47697131 59.26168089 -0.390625 53.22265625 C-0.3831556 51.68567138 -0.37746597 50.14867692 -0.37347412 48.61167908 C-0.35827253 44.58537045 -0.31903923 40.55964794 -0.2746582 36.53356934 C-0.22635292 31.69275777 -0.2081453 26.85174917 -0.18484497 22.01076508 C-0.1461836 14.67343697 -0.06949385 7.33739239 0 0 Z " fill="#FDC9BC" transform="translate(441,274)"/>
<path d="M0 0 C0 0.33 0 0.66 0 1 C-1.010625 1 -2.02125 1 -3.0625 1 C-7.4603037 1.69485299 -9.34776828 3.84845559 -12.05078125 7.25 C-19.621159 17.93045278 -25.79190383 28.99723532 -31 41 C-34.93082924 38.00477309 -37.32203845 35.15545758 -40 31 C-43.04983996 29.47508002 -45.6423369 29.76437452 -49 30 C-51.07974964 31.53824801 -51.89101387 32.41835824 -52.37109375 34.98046875 C-52.39300781 35.70878906 -52.41492188 36.43710937 -52.4375 37.1875 C-52.97583284 43.55432107 -55.11440669 48.644942 -60 52.875 C-66.63253644 57.57304665 -71.94483091 57.63520762 -80 57 C-83.43981796 56.24385196 -86.70848536 55.24824934 -90 54 C-82.12205214 33.23086472 -64.3046538 16.47218518 -44.359375 7.26953125 C-29.78736324 0.91404118 -15.71420836 -0.48600644 0 0 Z " fill="#965035" transform="translate(147,15)"/>
<path d="M0 0 C0 0.33 0 0.66 0 1 C-0.99 1.144375 -1.98 1.28875 -3 1.4375 C-12.69141864 4.2844761 -18.26171391 16.84661941 -23 25 C-23.70125 24.67 -24.4025 24.34 -25.125 24 C-28.47289131 22.83551607 -30.48551082 22.42103653 -34 23 C-36.11031286 24.96363864 -37.77901082 26.77589125 -39.5625 29 C-50.93965933 42.1782597 -67.02109703 48.92881608 -84 52 C-85.66609933 52.04348336 -87.33431975 52.0573332 -89 52 C-83.91206286 34.13866276 -66.96211731 19.53895201 -51.38208008 10.79980469 C-34.80572037 1.83816136 -18.52939338 -0.57307402 0 0 Z " fill="#423764" transform="translate(381,15)"/>
<path d="M0 0 C15.18 0 30.36 0 46 0 C46 24.82372754 46 24.82372754 39.6328125 31.6484375 C34.03830219 36.2793001 27.8162889 38.91276569 20.515625 38.4765625 C12.86613001 37.02743457 7.55384493 33.40321827 3.15625 27.0625 C-2.22607522 17.46159555 0 13.6476491 0 0 Z " fill="#524372" transform="translate(86,459)"/>
<path d="M0 0 C15.18 0 30.36 0 46 0 C46 24.82372754 46 24.82372754 39.6328125 31.6484375 C34.03830219 36.2793001 27.8162889 38.91276569 20.515625 38.4765625 C12.96106984 37.04542006 7.60749496 33.44297264 3.15625 27.2578125 C-1.55720293 18.05384022 0 10.88130703 0 0 Z " fill="#524372" transform="translate(380,459)"/>
<path d="M0 0 C14.85 0 29.7 0 45 0 C45 24.51271186 45 24.51271186 38.15625 32.0234375 C37.6096875 32.46945312 37.063125 32.91546875 36.5 33.375 C35.9534375 33.83648437 35.406875 34.29796875 34.84375 34.7734375 C29.24143245 38.50040299 23.53969668 38.86897339 17 38 C10.8648459 35.80078322 6.63119935 32.33999904 3 27 C0 20 0 20 0 0 Z " fill="#524473" transform="translate(320,459)"/>
<path d="M0 0 C14.85 0 29.7 0 45 0 C45 24.3956044 45 24.3956044 38.578125 31.59375 C33.05829433 36.69810955 26.84184243 38.6185357 19.484375 38.33984375 C12.2580455 37.35133641 8.01084662 33.43617086 3.4453125 28 C-3.25094278 18.73383053 0 14.87227378 0 0 Z " fill="#524473" transform="translate(147,459)"/>
<path d="M0 0 C2.38748312 0.4957905 4.76442566 1.04470939 7.12890625 1.640625 C9.4815981 2.15703758 11.83446519 2.67265236 14.1875 3.1875 C16.66378906 3.74953125 19.14007813 4.3115625 21.69140625 4.890625 C30.10640625 6.375625 30.10640625 6.375625 38.69140625 7.890625 C38.69140625 19.770625 38.69140625 31.650625 38.69140625 43.890625 C36.38140625 43.560625 34.07140625 43.230625 31.69140625 42.890625 C30.41523438 42.70886719 29.1390625 42.52710938 27.82421875 42.33984375 C20.18874108 40.99478734 15.41944869 39.66773119 10.69140625 33.078125 C10.00691406 32.01722656 9.32242188 30.95632812 8.6171875 29.86328125 C2.91854826 21.06680162 -6.5493804 16.14369612 -16.30859375 12.890625 C-12.80592178 5.41395378 -9.05069948 -1.13919278 0 0 Z " fill="#FCC9BC" transform="translate(230.30859375,163.109375)"/>
<path d="M0 0 C3.69734899 1.12240951 5.67418742 2.47889993 8.5 5.0625 C12.49634213 7.06067106 17.16841205 6.71986836 21.5 6.0625 C23.78208591 4.67271758 25.64092365 3.09496586 27.65234375 1.34375 C29.5 0.0625 29.5 0.0625 33.3125 0 C38.10273973 1.59674658 38.10273973 1.59674658 39.5 4.0625 C40 7.4375 40 7.4375 39.5 11.0625 C34.71244167 17.3461703 27.19044075 21.57837985 19.5 23.0625 C11.46423992 24.04063559 4.83090759 21.94027412 -1.875 17.484375 C-5.43265625 14.66366183 -7.24643645 12.76281837 -8.8125 8.4375 C-8.5 5.0625 -8.5 5.0625 -6.5 2.0625 C-3.5 0.0625 -3.5 0.0625 0 0 Z " fill="#060505" transform="translate(356.5,108.9375)"/>
<path d="M0 0 C0.87269531 -0.0038269 1.74539062 -0.00765381 2.64453125 -0.01159668 C4.48699092 -0.0143149 6.32948924 -0.00695994 8.171875 0.00976562 C10.99045934 0.03117752 13.80649485 0.00996199 16.625 -0.015625 C18.41667229 -0.01298171 20.20834299 -0.00785669 22 0 C22.84175781 -0.00809692 23.68351562 -0.01619385 24.55078125 -0.02453613 C28.3616671 0.03647079 30.36898261 0.07822438 33.52734375 2.34570312 C35.71274117 5.5890184 35.61281998 7.71814793 35 11.53125 C32.23703734 14.55340938 30.03274549 15.76704184 26.0234375 16.06469727 C24.47427003 16.09765984 22.92448755 16.10738797 21.375 16.09765625 C20.5504834 16.10385483 19.7259668 16.11005341 18.87646484 16.11643982 C17.13835833 16.1235236 15.40018376 16.12038913 13.66210938 16.10766602 C11.00784164 16.09379099 8.3570957 16.127898 5.703125 16.16601562 C4.01041581 16.16696683 2.31770222 16.16510791 0.625 16.16015625 C-0.16471191 16.17341446 -0.95442383 16.18667267 -1.76806641 16.20033264 C-5.98075809 16.12939339 -7.56595065 15.8705098 -11.00390625 13.18334961 C-13 10.53125 -13 10.53125 -13.5625 7.46875 C-12.09340234 -0.20320443 -6.56647455 -0.06316335 0 0 Z " fill="#040303" transform="translate(128,114.46875)"/>
<path d="M0 0 C9.9 0 19.8 0 30 0 C30 14.2 30 14.2 26 19 C22.10328821 22.02588906 18.38078986 23.34432685 13.4375 23.125 C8.50568543 22.29734254 5.19013064 19.77336782 2 16 C0 12 0 12 0 0 Z " fill="#D29889" transform="translate(41,331)"/>
<path d="M0 0 C9.9 0 19.8 0 30 0 C30 13.99180328 30 13.99180328 25.5703125 18.43359375 C22.01231303 21.55790672 19.40216385 22.86772039 14.6875 23.3125 C9.14336081 22.8426577 6.29877026 20.47427976 2.6875 16.375 C-1.64480334 10.27768419 0 10.36922382 0 0 Z " fill="#D39889" transform="translate(207,331)"/>
<path d="M0 0 C1.06476563 0.16242188 2.12953125 0.32484375 3.2265625 0.4921875 C8.93552806 1.2029826 14.63001463 1.14556677 20.375 1.125 C21.98375 1.13080078 21.98375 1.13080078 23.625 1.13671875 C30.14437832 1.12878763 36.5286639 0.7955521 43 0 C39.86988162 7.98180188 36.58790802 12.35322891 28.65625 16.05078125 C23.23512207 17.98803726 18.88149248 17.56114688 13.4375 15.9375 C7.95819052 12.84916193 2.3672697 9.04434851 0 3 C0 2.01 0 1.02 0 0 Z " fill="#C3877B" transform="translate(118,201)"/>
<path d="M0 0 C1.8253125 0.24363281 1.8253125 0.24363281 3.6875 0.4921875 C9.79021083 1.16787888 15.86636935 1.14610194 22 1.125 C23.1240625 1.12886719 24.248125 1.13273438 25.40625 1.13671875 C31.68890874 1.1293792 37.77186655 0.83129747 44 0 C40.69080578 7.67733059 36.93168378 11.81573124 29.625 15.875 C23.07964463 17.90631718 18.12434127 17.80526278 11.8125 15 C6.90876021 12.31898338 3.64900714 8.91679184 1 4 C0.64582903 2.67204977 0.30947227 1.33907274 0 0 Z " fill="#F2B6AA" transform="translate(351,201)"/>
<path d="M0 0 C3.75994584 1.35998041 4.8119365 2.68766239 6.9375 6.0625 C7.33233767 8.8960409 7.49983548 11.24701429 7.4375 14.0625 C7.45296875 14.76117188 7.4684375 15.45984375 7.484375 16.1796875 C7.45731007 19.76579072 7.01083325 21.9400093 5.16015625 25.03125 C2.9375 27.0625 2.9375 27.0625 0.90234375 27.65625 C-4.59556378 27.4020115 -4.59556378 27.4020115 -6.77929688 25.81420898 C-9.26678274 22.41852575 -8.57399158 18.18440123 -8.5625 14.125 C-8.59085937 13.21814453 -8.61921875 12.31128906 -8.6484375 11.37695312 C-8.66796715 4.7417553 -8.66796715 4.7417553 -5.72265625 1.4375 C-3.0625 0.0625 -3.0625 0.0625 0 0 Z " fill="#080707" transform="translate(436.0625,96.9375)"/>
<path d="M0 0 C3.09663299 0.80833414 4.18431103 1.91636934 6.03515625 4.53125 C6.38128128 7.51144513 6.50573305 10.06836928 6.41015625 13.03125 C6.40886719 13.79050781 6.40757812 14.54976562 6.40625 15.33203125 C6.29500514 22.38989977 6.29500514 22.38989977 4.03515625 25.53125 C0.94341873 27.07711876 -1.55913927 26.82484521 -4.96484375 26.53125 C-7.1640625 25.07421875 -7.1640625 25.07421875 -8.96484375 22.53125 C-9.52711051 19.51829909 -9.4780101 16.58719418 -9.40234375 13.53125 C-9.41297852 12.32082031 -9.41297852 12.32082031 -9.42382812 11.0859375 C-9.38639715 7.59621915 -9.27477531 5.14355382 -7.68359375 2 C-5.30637354 -0.03144272 -3.04345642 0.04691262 0 0 Z " fill="#030202" transform="translate(310.96484375,97.46875)"/>
<path d="M0 0 C2.08538404 1.78205545 2.88393185 3.23652953 3.29663086 5.95117188 C3.4410169 8.30870502 3.45824981 10.63829403 3.4375 13 C3.45748047 13.80695313 3.47746094 14.61390625 3.49804688 15.4453125 C3.49488372 19.27905527 3.46680527 21.34768248 1.19140625 24.52734375 C-2.0561743 26.70976419 -4.18429917 26.61323763 -8 26 C-11.05774483 23.20434759 -12.24449963 20.98859774 -12.53125 16.93359375 C-12.54179492 15.43489673 -12.53086866 13.93591619 -12.5 12.4375 C-12.51546875 11.68275391 -12.5309375 10.92800781 -12.546875 10.15039062 C-12.52192702 6.61089595 -12.29753946 4.41786311 -10.22265625 1.50390625 C-6.53947477 -0.98822884 -4.38249869 -0.55650777 0 0 Z " fill="#040303" transform="translate(207,98)"/>
<path d="M0 0 C3.0919181 0.80710338 4.18025512 1.92623501 6.03515625 4.53125 C6.43606821 7.49976721 6.59574011 10.01276228 6.53515625 12.96875 C6.550625 13.71962891 6.56609375 14.47050781 6.58203125 15.24414062 C6.55475802 19.12034805 6.27227852 21.13928279 4.22265625 24.52734375 C2.03515625 26.53125 2.03515625 26.53125 -1.46484375 27.15625 C-4.96484375 26.53125 -4.96484375 26.53125 -7.15625 24.52734375 C-9.56310176 20.54018327 -9.52376615 17.53188197 -9.40234375 12.96875 C-9.40943359 12.21400391 -9.41652344 11.45925781 -9.42382812 10.68164062 C-9.38664698 7.43544065 -9.17650382 4.94359995 -7.68359375 2.03515625 C-5.31141438 -0.0405007 -3.06578565 0.04725681 0 0 Z " fill="#020101" transform="translate(76.96484375,97.46875)"/>
</svg>
