<?xml version="1.0" encoding="UTF-8"?>
<svg version="1.1" xmlns="http://www.w3.org/2000/svg" width="512" height="512">
<path d="M0 0 C0.87011719 -0.02626465 1.74023438 -0.0525293 2.63671875 -0.07958984 C3.45914063 -0.08168457 4.2815625 -0.0837793 5.12890625 -0.0859375 C5.86310791 -0.09415527 6.59730957 -0.10237305 7.35375977 -0.11083984 C10.36913833 0.59221854 11.49380774 1.99856574 13.4375 4.375 C13.9521637 7.03100586 13.9521637 7.03100586 13.97094727 10.08984375 C13.99470177 11.81182983 13.99470177 11.81182983 14.01893616 13.56860352 C14.01397629 14.80408936 14.00901642 16.0395752 14.00390625 17.3125 C14.01010483 18.58472412 14.01630341 19.85694824 14.02268982 21.16772461 C14.02979538 23.8581426 14.02854475 26.54706674 14.01391602 29.23730469 C13.99672027 32.68113432 14.02023269 36.1232967 14.05540562 39.56694031 C14.08267009 42.85714701 14.07264417 46.14721218 14.06640625 49.4375 C14.07966446 50.67298584 14.09292267 51.90847168 14.10658264 53.18139648 C14.09404953 54.32938721 14.08151642 55.47737793 14.06860352 56.66015625 C14.06764175 57.66957275 14.06667999 58.67898926 14.06568909 59.71899414 C13.4375 62.375 13.4375 62.375 11.13633728 64.71435547 C7.54656226 66.92321048 4.49626631 66.7108302 0.4375 66.4375 C-4.72321308 66.11852604 -8.29782073 66.10645019 -12.5625 69.375 C-15.96734482 72.6852658 -17.28506625 75.53774072 -17.6640625 80.3203125 C-17.43751943 84.90345314 -15.45435454 88.31592274 -12.5625 91.75 C-8.12682953 95.35398225 -2.91468035 94.36090951 2.45703125 94.07226562 C5.9266543 93.98504046 8.13226962 94.19632387 11.1496582 95.96264648 C14.20617509 99.18550886 14.01875344 100.93983774 13.92578125 105.328125 C13.91516914 106.31845734 13.91516914 106.31845734 13.90434265 107.32879639 C13.87644727 109.42870492 13.81373287 111.52590379 13.75 113.625 C13.72491017 115.0520447 13.70209817 116.47913138 13.68164062 117.90625 C13.63089272 121.39770569 13.53307471 124.88333717 13.4375 128.375 C18.7175 128.375 23.9975 128.375 29.4375 128.375 C29.4375 125.735 29.4375 123.095 29.4375 120.375 C31.7538339 110.87803103 37.1026084 104.42942341 45.3125 99.41796875 C53.62933805 95.33599125 63.47341245 95.01707062 72.45703125 97.0625 C81.35163755 100.34161753 87.1299745 106.02916935 91.4375 114.375 C93.56963359 119.24844821 93.49634981 123.15341699 93.4375 128.375 C94.74944336 128.35405273 96.06138672 128.33310547 97.41308594 128.31152344 C102.28081344 128.2391203 107.14849335 128.19319887 112.01660156 128.15527344 C114.12345382 128.13515874 116.23025025 128.10786333 118.33691406 128.07324219 C121.36537447 128.02471832 124.39309678 128.00202984 127.421875 127.984375 C128.83457672 127.95340729 128.83457672 127.95340729 130.27581787 127.92181396 C136.76539316 127.91958749 136.76539316 127.91958749 140.03027344 130.13183594 C141.55648103 132.56465956 141.95120077 133.81076696 141.96875 136.65625 C141.97688721 137.48817871 141.98502441 138.32010742 141.9934082 139.17724609 C141.9749585 140.06750488 141.95650879 140.95776367 141.9375 141.875 C141.92046021 143.2664624 141.92046021 143.2664624 141.90307617 144.68603516 C141.08627835 174.56111082 128.56806709 202.76288505 109.4375 225.375 C108.76074219 226.18710937 108.08398438 226.99921875 107.38671875 227.8359375 C95.60705261 241.489152 80.20032395 253.48284718 63.4375 260.375 C62.7775 260.375 62.1175 260.375 61.4375 260.375 C61.4375 264.335 61.4375 268.295 61.4375 272.375 C62.4275 272.32859375 63.4175 272.2821875 64.4375 272.234375 C78.79983644 271.7541753 78.79983644 271.7541753 84.4375 276.375 C89.41990167 281.1291243 93.08580806 285.50786641 93.72802734 292.56958008 C93.76850834 295.75647941 93.8088675 298.94293165 93.80810547 302.13012695 C93.81246602 304.17159286 93.84878866 306.2108708 93.88671875 308.25195312 C93.91275045 317.03765239 93.41239947 322.83903122 87.47265625 329.6171875 C86.82167969 330.15601563 86.17070312 330.69484375 85.5 331.25 C84.85160156 331.80429687 84.20320312 332.35859375 83.53515625 332.9296875 C78.71007712 336.25422992 74.36622489 336.64284387 68.625 336.5 C67.93212891 336.49097656 67.23925781 336.48195313 66.52539062 336.47265625 C64.82927605 336.44926157 63.13334129 336.41339641 61.4375 336.375 C61.45844727 337.31706299 61.47939453 338.25912598 61.50097656 339.22973633 C61.56977489 342.77655114 61.61959814 346.32264135 61.65722656 349.86987305 C61.67715311 351.39537859 61.70430485 352.92080968 61.73925781 354.44604492 C62.04611129 368.19578842 60.26434355 379.08113815 50.4375 389.375 C41.28838214 398.10903501 31.26001176 401.00679452 18.8125 400.90625 C17.74435059 400.9100769 16.67620117 400.91390381 15.57568359 400.91784668 C13.33364918 400.9205497 11.09158234 400.91330241 8.84960938 400.89648438 C5.44588958 400.87505283 2.04428027 400.89634268 -1.359375 400.921875 C-3.55208793 400.91923144 -5.74479955 400.91410588 -7.9375 400.90625 C-9.44111084 400.91839539 -9.44111084 400.91839539 -10.97509766 400.93078613 C-22.21977718 400.78381834 -31.41113982 397.15654422 -39.5625 389.375 C-50.05663637 378.3821324 -51.14504824 366.69883849 -50.8125 352.1875 C-50.79238817 350.6478099 -50.77414574 349.1080942 -50.7578125 347.56835938 C-50.71422461 343.83669792 -50.64546116 340.10601842 -50.5625 336.375 C-51.59310547 336.39240234 -52.62371094 336.40980469 -53.68554688 336.42773438 C-55.05077716 336.44180891 -56.41601187 336.45545839 -57.78125 336.46875 C-58.45897461 336.48131836 -59.13669922 336.49388672 -59.83496094 336.50683594 C-66.67599144 336.55677047 -70.6311964 335.17200085 -75.5234375 330.50390625 C-82.51930897 322.95122052 -82.93552047 316.72059777 -82.93310547 306.61987305 C-82.93746602 304.57840714 -82.97378866 302.5391292 -83.01171875 300.49804688 C-83.03775045 291.71234761 -82.53739947 285.91096878 -76.59765625 279.1328125 C-75.94667969 278.59398437 -75.29570312 278.05515625 -74.625 277.5 C-73.97660156 276.94570313 -73.32820313 276.39140625 -72.66015625 275.8203125 C-67.80430429 272.4745672 -63.53159239 272.10615177 -57.75 272.25 C-57.05712891 272.25902344 -56.36425781 272.26804687 -55.65039062 272.27734375 C-53.95427605 272.30073843 -52.25834129 272.33660359 -50.5625 272.375 C-50.5625 268.415 -50.5625 264.455 -50.5625 260.375 C-51.7071875 260.065625 -51.7071875 260.065625 -52.875 259.75 C-83.21388001 248.43719728 -105.36936622 221.13519578 -119.375 193.0625 C-127.35209918 175.22908117 -130.99455686 156.341764 -130.9375 136.875 C-130.93695618 136.17356873 -130.93641235 135.47213745 -130.93585205 134.74945068 C-130.89379655 122.90695797 -129.82222583 111.79158606 -126.5625 100.375 C-126.25699219 99.25279053 -126.25699219 99.25279053 -125.9453125 98.10791016 C-121.33468719 81.52602391 -113.4728107 65.72064791 -102.5625 52.375 C-102.11648437 51.82505371 -101.67046875 51.27510742 -101.2109375 50.70849609 C-79.5595955 24.17257661 -48.52832884 4.93835667 -14.06640625 0.625 C-9.37669416 0.29039401 -4.70063197 0.08981565 0 0 Z " fill="#010000" transform="translate(250.5625,87.625)"/>
<path d="M0 0 C1.20257446 -0.00471313 1.20257446 -0.00471313 2.42944336 -0.00952148 C3.71153687 0.02419556 3.71153687 0.02419556 5.01953125 0.05859375 C5.9122876 0.07398193 6.80504395 0.08937012 7.72485352 0.10522461 C35.06873045 0.88508996 62.62302926 11.20547043 83.83203125 28.49609375 C84.63302246 29.13321289 84.63302246 29.13321289 85.45019531 29.78320312 C112.10552401 51.07743191 131.30120568 82.79017489 135.58203125 116.9921875 C135.91663724 121.68189959 136.1172156 126.35796178 136.20703125 131.05859375 C136.2332959 131.92871094 136.25956055 132.79882812 136.28662109 133.6953125 C136.28871582 134.51773438 136.29081055 135.34015625 136.29296875 136.1875 C136.30118652 136.92170166 136.3094043 137.65590332 136.31787109 138.41235352 C135.61481271 141.42773208 134.20846551 142.55240149 131.83203125 144.49609375 C129.17602539 145.01075745 129.17602539 145.01075745 126.1171875 145.02954102 C124.96919678 145.04537735 123.82120605 145.06121368 122.63842773 145.07752991 C120.78519897 145.0700901 120.78519897 145.0700901 118.89453125 145.0625 C117.62230713 145.06869858 116.35008301 145.07489716 115.03930664 145.08128357 C112.34888865 145.08838913 109.65996451 145.0871385 106.96972656 145.07250977 C103.52589693 145.05531402 100.08373455 145.07882644 96.64009094 145.11399937 C93.34988424 145.14126384 90.05981907 145.13123792 86.76953125 145.125 C84.91630249 145.14488731 84.91630249 145.14488731 83.02563477 145.16517639 C81.87764404 145.15264328 80.72965332 145.14011017 79.546875 145.12719727 C78.5374585 145.1262355 77.52804199 145.12527374 76.48803711 145.12428284 C73.83203125 144.49609375 73.83203125 144.49609375 71.49267578 142.19493103 C69.28382077 138.60515601 69.49620105 135.55486006 69.76953125 131.49609375 C70.08850521 126.33538067 70.10058106 122.76077302 66.83203125 118.49609375 C63.52176545 115.09124893 60.66929053 113.7735275 55.88671875 113.39453125 C51.30357811 113.62107432 47.89110851 115.60423921 44.45703125 118.49609375 C40.853049 122.93176422 41.84612174 128.1439134 42.13476562 133.515625 C42.21949787 136.88608555 41.9865954 139.20437927 40.3996582 142.19946289 C36.60461437 145.59396488 33.32891035 145.19887988 28.39453125 145.125 C27.47744385 145.12741196 26.56035645 145.12982391 25.61547852 145.13230896 C23.67882966 145.13133058 21.74215281 145.11793918 19.80566406 145.09301758 C16.84213209 145.05871068 13.88158226 145.0723577 10.91796875 145.09179688 C9.03514356 145.08489828 7.15232607 145.07522578 5.26953125 145.0625 C4.38402588 145.06745987 3.49852051 145.07241974 2.58618164 145.07752991 C-1.1941373 145.00519768 -3.49633654 144.92235138 -6.73339844 142.86791992 C-8.62947571 139.73306785 -8.62501538 137.63365854 -8.55859375 133.98046875 C-8.53925781 132.10488281 -8.53925781 132.10488281 -8.51953125 130.19140625 C-8.48601562 128.88945312 -8.4525 127.5875 -8.41796875 126.24609375 C-8.39992188 124.92867188 -8.381875 123.61125 -8.36328125 122.25390625 C-8.31613146 119.00057067 -8.25032919 115.7486975 -8.16796875 112.49609375 C-9.38355469 112.52960938 -10.59914063 112.563125 -11.8515625 112.59765625 C-19.46733419 112.587598 -26.10632027 109.36440223 -31.63671875 104.19921875 C-39.03038166 95.9756549 -40.74986942 87.2616374 -40.48046875 76.484375 C-40.0061424 68.09868044 -36.39327352 61.09315675 -30.16796875 55.49609375 C-23.05239775 50.14518435 -16.96773608 48.39691604 -8.16796875 48.49609375 C-8.18891602 47.18415039 -8.20986328 45.87220703 -8.23144531 44.52050781 C-8.30384845 39.65278031 -8.34976988 34.7851004 -8.38769531 29.91699219 C-8.40781001 27.81013993 -8.43510542 25.7033435 -8.46972656 23.59667969 C-8.51825043 20.56821928 -8.54093891 17.54049697 -8.55859375 14.51171875 C-8.57923889 13.5699176 -8.59988403 12.62811646 -8.62115479 11.65777588 C-8.62338199 5.16607123 -8.62338199 5.16607123 -6.40405273 1.90112305 C-4.00157632 0.39154211 -2.80753869 -0.00734039 0 0 Z " fill="#000101" transform="translate(320.16796875,23.50390625)"/>
<path d="M0 0 C10.56 0 21.12 0 32 0 C32.99 3.96 33.98 7.92 35 12 C39.28794359 20.88963915 44.64202496 26.48224188 53.9296875 30.16015625 C64.02669965 32.92206161 72.96295744 30.87973037 82 26 C89.08128619 21.67254733 92.52521337 14.00022895 94.8203125 6.21875 C95.28283781 4.16018666 95.65313712 2.08117727 96 0 C101.28 0 106.56 0 112 0 C112.05607422 2.96226562 112.05607422 2.96226562 112.11328125 5.984375 C112.17893316 8.57293591 112.24538076 11.16147672 112.3125 13.75 C112.33505859 15.05195313 112.35761719 16.35390625 112.38085938 17.6953125 C112.41630859 18.94570312 112.45175781 20.19609375 112.48828125 21.484375 C112.51446533 22.63647461 112.54064941 23.78857422 112.56762695 24.97558594 C113.03839095 28.26854154 113.5888606 29.72622582 116 32 C119.60823952 32.23733538 122.98119265 32.09189352 126.57617188 31.84375 C131.94089906 31.61766843 134.71684813 32.43713794 139 36 C143.18934695 40.75547491 144.31063352 43.46646863 144.2109375 49.6875 C143.76168438 54.61264529 141.58107495 57.68561783 137.9375 60.8125 C132.74688558 64.67785117 128.42477411 64.0016072 122.20898438 63.69726562 C119.65852106 63.59524039 119.65852106 63.59524039 116 64 C113.70667573 66.20033103 113.05710029 67.60491523 112.60127258 70.7588501 C112.59016953 71.81586121 112.57906647 72.87287231 112.56762695 73.96191406 C112.54783279 75.16285706 112.52803864 76.36380005 112.50764465 77.60113525 C112.50125473 78.89291687 112.49486481 80.18469849 112.48828125 81.515625 C112.47142992 82.85513961 112.45327906 84.19463846 112.43388367 85.53411865 C112.38642604 89.05215527 112.35658972 92.57012795 112.33044434 96.08837891 C112.30061712 99.68144266 112.25425518 103.2742906 112.20898438 106.8671875 C112.12143975 113.91147568 112.06146148 120.95524244 112 128 C101.44 128 90.88 128 80 128 C79.6875 118.25 79.6875 118.25 79.61206055 115.19628906 C79.57894775 114.39416992 79.54583496 113.59205078 79.51171875 112.765625 C79.48553467 111.94868164 79.45935059 111.13173828 79.43237305 110.29003906 C78.89859397 107.46290876 77.95095815 106.09656046 76 104 C73.40494787 102.6808725 70.86065748 101.50666515 68.1875 100.375 C55.44930735 94.67301307 45.06454172 86.62388753 35 77 C34.31550781 76.37867188 33.63101563 75.75734375 32.92578125 75.1171875 C12.58199307 56.01241196 2.14891306 27.21956539 0 0 Z " fill="#F9DA74" transform="translate(136,232)"/>
<path d="M0 0 C5.67476113 1.96434039 9.31400331 5.62800662 12 11 C11.95935997 14.60218476 11.87343096 18.19306258 11.69726562 21.79101562 C11.50211531 26.06400742 11.50211531 26.06400742 13.40991211 29.71435547 C17.43251554 31.71105918 21.36276125 31.48091888 25.796875 31.51171875 C26.74564514 31.52966995 27.69441528 31.54762115 28.67193604 31.56611633 C31.69791235 31.62023506 34.72373078 31.65412026 37.75 31.6875 C39.80340739 31.72067167 41.85679395 31.75516119 43.91015625 31.79101562 C48.93999028 31.87596257 53.96977736 31.94276651 59 32 C59.00613473 33.44546995 59.01051951 34.8909474 59.01416016 36.33642578 C59.01810287 37.54384933 59.01810287 37.54384933 59.02212524 38.77566528 C58.75211662 65.92065634 41.74392783 92.8909726 23.08959961 111.32861328 C13.43494136 120.53379433 2.56249787 127.07886024 -9.28515625 133.08984375 C-14.47657692 135.55994954 -14.47657692 135.55994954 -19 139 C-19.15686249 140.55948542 -19.25076639 142.12542668 -19.31640625 143.69140625 C-19.35451416 144.54162354 -19.39262207 145.39184082 -19.43188477 146.26782227 C-19.47498779 147.35506592 -19.51809082 148.44230957 -19.5625 149.5625 C-19.706875 153.006875 -19.85125 156.45125 -20 160 C-30.56 160 -41.12 160 -52 160 C-52 144.16 -52 128.32 -52 112 C-48.04 111.01 -44.08 110.02 -40 109 C-32.25461457 105.2173699 -27.97421009 101.63363126 -24 94 C-23.66097656 93.37351562 -23.32195312 92.74703125 -22.97265625 92.1015625 C-19.93574348 85.46793737 -19.80261591 77.42423274 -21.69140625 70.4453125 C-22.63654975 68.15956798 -23.72091906 66.1157125 -25 64 C-25.38929688 63.30132812 -25.77859375 62.60265625 -26.1796875 61.8828125 C-31.11524797 54.14362005 -39.53129596 50.60840187 -48.25 48.625 C-49.4875 48.41875 -50.725 48.2125 -52 48 C-52 42.72 -52 37.44 -52 32 C-50.02515625 31.96261719 -48.0503125 31.92523438 -46.015625 31.88671875 C-43.42706409 31.82106684 -40.83852328 31.75461924 -38.25 31.6875 C-36.94804687 31.66494141 -35.64609375 31.64238281 -34.3046875 31.61914062 C-32.42910156 31.5659668 -32.42910156 31.5659668 -30.515625 31.51171875 C-29.36352539 31.48553467 -28.21142578 31.45935059 -27.02441406 31.43237305 C-23.73145846 30.96160905 -22.27377418 30.4111394 -20 28 C-19.76266462 24.39176048 -19.90810648 21.01880735 -20.15625 17.42382812 C-20.38233157 12.05910094 -19.56286206 9.28315187 -16 5 C-10.58420856 0.22894564 -7.09115125 -0.64682799 0 0 Z " fill="#B2DD89" transform="translate(316,200)"/>
<path d="M0 0 C0 10.23 0 20.46 0 31 C-3.3 31.66 -6.6 32.32 -10 33 C-18.61648886 36.67467907 -24.76843409 41.52153641 -29 50 C-32.30392461 58.52064767 -32.17506978 66.9464826 -28.8125 75.4375 C-24.61311396 84.35239773 -19.08339662 89.51698097 -9.9375 93.25 C-6.67857383 94.08206626 -3.32966595 94.52433344 0 95 C0 100.28 0 105.56 0 111 C-1.97484375 111.03738281 -3.9496875 111.07476562 -5.984375 111.11328125 C-8.57293591 111.17893316 -11.16147672 111.24538076 -13.75 111.3125 C-15.05195313 111.33505859 -16.35390625 111.35761719 -17.6953125 111.38085938 C-18.94570312 111.41630859 -20.19609375 111.45175781 -21.484375 111.48828125 C-22.63647461 111.51446533 -23.78857422 111.54064941 -24.97558594 111.56762695 C-28.26854154 112.03839095 -29.72622582 112.5888606 -32 115 C-32.23733538 118.60823952 -32.09189352 121.98119265 -31.84375 125.57617188 C-31.6176192 130.94206726 -32.44069253 133.71338377 -36 138 C-40.76738681 142.3022759 -44.43747295 143.36282503 -50.71875 143.28125 C-55.49979486 142.69180611 -58.24961178 139.85179203 -61.3125 136.375 C-64.76688227 131.51327681 -63.9780234 126.94310512 -63.69726562 121.20898438 C-63.50211531 116.93599258 -63.50211531 116.93599258 -65.40991211 113.28564453 C-69.43251554 111.28894082 -73.36276125 111.51908112 -77.796875 111.48828125 C-78.74564514 111.47033005 -79.69441528 111.45237885 -80.67193604 111.43388367 C-83.69791235 111.37976494 -86.72373078 111.34587974 -89.75 111.3125 C-91.80340739 111.27932833 -93.85679395 111.24483881 -95.91015625 111.20898438 C-100.93999028 111.12403743 -105.96977736 111.05723349 -111 111 C-111.18856728 104.28762576 -110.98637124 98.13676737 -109.3125 91.625 C-109.04131348 90.53566162 -109.04131348 90.53566162 -108.76464844 89.42431641 C-103.21889399 67.93569888 -92.12316564 50.06490123 -77 34 C-76.19175781 33.09507812 -76.19175781 33.09507812 -75.3671875 32.171875 C-60.98345983 16.70394675 -40.20537416 6.92237307 -20 2 C-19.11828125 1.75636719 -18.2365625 1.51273437 -17.328125 1.26171875 C-11.24696033 -0.32326566 -6.68421882 0 0 0 Z " fill="#F06573" transform="translate(248,105)"/>
<path d="M0 0 C1.58052368 -0.01806812 3.16110802 -0.03087217 4.74169922 -0.04150391 C5.62187714 -0.04920807 6.50205505 -0.05691223 7.40890503 -0.06484985 C11.1192009 0.02801133 14.53807728 0.71957586 18.125 1.625 C18.84655273 1.80248779 19.56810547 1.97997559 20.31152344 2.1628418 C42.24391142 7.78916292 60.51914757 18.48526651 77 34 C77.60328125 34.53882813 78.2065625 35.07765625 78.828125 35.6328125 C95.80395603 51.41874883 108.43596234 77.03889874 111 100 C111 103.63 111 107.26 111 111 C100.77 111 90.54 111 80 111 C79.34 107.7 78.68 104.4 78 101 C73.32301545 90.03327761 67.86999085 85.75368546 57 81 C50.47258101 78.82419367 42.55304566 78.94769371 36.1875 81.625 C27.24813489 86.31611637 21.59065382 91.65289815 17.75 101.0625 C16.91793374 104.32142617 16.47566656 107.67033405 16 111 C10.72 111 5.44 111 0 111 C-0.03738281 109.02515625 -0.07476562 107.0503125 -0.11328125 105.015625 C-0.17893316 102.42706409 -0.24538076 99.83852328 -0.3125 97.25 C-0.33505859 95.94804687 -0.35761719 94.64609375 -0.38085938 93.3046875 C-0.41630859 92.05429688 -0.45175781 90.80390625 -0.48828125 89.515625 C-0.51446533 88.36352539 -0.54064941 87.21142578 -0.56762695 86.02441406 C-1.03839095 82.73145846 -1.5888606 81.27377418 -4 79 C-7.60823952 78.76266462 -10.98119265 78.90810648 -14.57617188 79.15625 C-19.94206726 79.3823808 -22.71338377 78.55930747 -27 75 C-31.3022759 70.23261319 -32.36282503 66.56252705 -32.28125 60.28125 C-31.69180611 55.50020514 -28.85179203 52.75038822 -25.375 49.6875 C-20.51327681 46.23311773 -15.94310512 47.0219766 -10.20898438 47.30273438 C-5.93599258 47.49788469 -5.93599258 47.49788469 -2.28564453 45.59008789 C-0.28894082 41.56748446 -0.51908112 37.63723875 -0.48828125 33.203125 C-0.47033005 32.25435486 -0.45237885 31.30558472 -0.43388367 30.32806396 C-0.37976494 27.30208765 -0.34587974 24.27626922 -0.3125 21.25 C-0.27932833 19.19659261 -0.24483881 17.14320605 -0.20898438 15.08984375 C-0.12403743 10.06000972 -0.05723349 5.03022264 0 0 Z " fill="#81BBF1" transform="translate(328,41)"/>
<path d="M0 0 C1.28992355 -0.00554901 2.57984711 -0.01109802 3.90885925 -0.01681519 C7.44006301 -0.03104557 10.97048642 -0.01401989 14.50161552 0.00946999 C18.20017049 0.02960069 21.89869375 0.02369828 25.59729004 0.0213623 C31.80799199 0.02141585 38.01838947 0.0411583 44.22900391 0.07324219 C51.40512854 0.11013413 58.5808544 0.11891753 65.75706148 0.11194468 C72.66570695 0.10563518 79.57421594 0.11640218 86.48283386 0.13591003 C89.42052661 0.14407593 92.35814952 0.14679508 95.29585266 0.1452179 C99.3992621 0.14417419 103.50214772 0.1683704 107.60546875 0.1953125 C109.43219368 0.1909166 109.43219368 0.1909166 111.29582214 0.18643188 C112.41455215 0.19778168 113.53328217 0.20913147 114.68591309 0.2208252 C115.65559776 0.22455391 116.62528244 0.22828262 117.6243515 0.23212433 C120.81111338 0.6879518 122.7085672 1.73792472 125.30273438 3.61523438 C127.16904353 7.34785268 126.53072343 11.81994222 126.55273438 15.92773438 C126.58367187 17.35375977 126.58367187 17.35375977 126.61523438 18.80859375 C126.66552648 27.80459379 126.66552648 27.80459379 123.30273438 31.61523438 C120.23295611 32.6384938 118.13517792 32.74584412 114.91969299 32.75567627 C113.80226715 32.76138641 112.68484131 32.76709656 111.53355408 32.77297974 C110.30697586 32.7740976 109.08039764 32.77521545 107.81665039 32.77636719 C105.8797937 32.78381454 105.8797937 32.78381454 103.90380859 32.79141235 C100.36044275 32.8045276 96.81709585 32.81097931 93.27370954 32.81542301 C91.06035371 32.81835446 88.84700305 32.82245935 86.63364983 32.82692719 C79.70957035 32.84059828 72.78550271 32.85026748 65.86141068 32.85412908 C57.86628476 32.85861249 49.87132957 32.876175 41.87625557 32.90512967 C35.69698693 32.92673245 29.51776639 32.93683256 23.33846039 32.93817019 C19.64724567 32.93921901 15.95619154 32.94514317 12.26501656 32.96298981 C8.14930952 32.98250256 4.033961 32.97818718 -0.08178711 32.97167969 C-1.30634109 32.98089447 -2.53089508 32.99010925 -3.79255676 32.99960327 C-5.47292526 32.99124954 -5.47292526 32.99124954 -7.1872406 32.98272705 C-8.64704676 32.98492689 -8.64704676 32.98492689 -10.13634396 32.98717117 C-13.16308884 32.5475803 -14.51369087 31.73069904 -16.69726562 29.61523438 C-18.17098804 25.19406714 -18.00340358 20.87277218 -18.07226562 16.24023438 C-18.10964844 15.2940625 -18.14703125 14.34789062 -18.18554688 13.37304688 C-18.19714844 12.45523437 -18.20875 11.53742188 -18.22070312 10.59179688 C-18.24052246 9.75729004 -18.2603418 8.9227832 -18.28076172 8.06298828 C-17.6238914 5.30743105 -16.62427846 3.63719986 -14.56794167 1.68340111 C-10.24991065 -0.78221933 -4.82355584 -0.05253336 0 0 Z " fill="#415A71" transform="translate(201.697265625,375.384765625)"/>
<path d="M0 0 C5.28 0 10.56 0 16 0 C16.04898438 1.83046875 16.09796875 3.6609375 16.1484375 5.546875 C16.22347053 7.94793196 16.29901813 10.34897288 16.375 12.75 C16.4059375 13.9565625 16.436875 15.163125 16.46875 16.40625 C16.50742188 17.56640625 16.54609375 18.7265625 16.5859375 19.921875 C16.63306885 21.52434082 16.63306885 21.52434082 16.68115234 23.15917969 C16.9953377 25.95846057 17.46877553 27.65588649 19 30 C21.77100394 31.38550197 23.9334706 31.1877467 27 31 C30.24849977 29.27773504 30.24849977 29.27773504 31 26 C31.14986411 24.0093556 31.24828038 22.01464609 31.31640625 20.01953125 C31.35830078 18.85615234 31.40019531 17.69277344 31.44335938 16.49414062 C31.48267578 15.27919922 31.52199219 14.06425781 31.5625 12.8125 C31.60568359 11.58595703 31.64886719 10.35941406 31.69335938 9.09570312 C31.79953014 6.06393808 31.90027764 3.031984 32 0 C37.28 0 42.56 0 48 0 C48.04898438 1.83046875 48.09796875 3.6609375 48.1484375 5.546875 C48.22347053 7.94793196 48.29901813 10.34897288 48.375 12.75 C48.4059375 13.9565625 48.436875 15.163125 48.46875 16.40625 C48.52675781 18.14648438 48.52675781 18.14648438 48.5859375 19.921875 C48.6173584 20.99018555 48.6487793 22.05849609 48.68115234 23.15917969 C48.9953377 25.95846057 49.46877553 27.65588649 51 30 C53.77100394 31.38550197 55.9334706 31.1877467 59 31 C62.24849977 29.27773504 62.24849977 29.27773504 63 26 C63.14986411 24.0093556 63.24828038 22.01464609 63.31640625 20.01953125 C63.37924805 18.27446289 63.37924805 18.27446289 63.44335938 16.49414062 C63.48267578 15.27919922 63.52199219 14.06425781 63.5625 12.8125 C63.62727539 10.97268555 63.62727539 10.97268555 63.69335938 9.09570312 C63.79953014 6.06393808 63.90027764 3.031984 64 0 C69.28 0 74.56 0 80 0 C80.09253174 3.96601332 80.17194289 7.92922934 80.21972656 11.89575195 C80.24940781 13.89756051 80.30027058 15.89901919 80.3515625 17.90039062 C80.44243708 26.91969232 79.74896369 33.53532505 73.8515625 40.55859375 C73.11679687 41.17863281 72.38203125 41.79867187 71.625 42.4375 C70.89539063 43.07558594 70.16578125 43.71367187 69.4140625 44.37109375 C63.68385937 48.23759004 57.96084289 48.31914961 51.2890625 48.3359375 C50.36209564 48.3425943 49.43512878 48.3492511 48.48007202 48.35610962 C46.52514623 48.36620383 44.5701862 48.37092764 42.61523438 48.37060547 C39.64134345 48.37497598 36.66894103 48.41132246 33.6953125 48.44921875 C31.78906753 48.45508831 29.88281557 48.45905677 27.9765625 48.4609375 C27.0961026 48.47530853 26.2156427 48.48967957 25.3085022 48.50448608 C18.15218234 48.4521213 12.9501979 46.5755696 7.5390625 41.8515625 C6.59160156 40.74941406 6.59160156 40.74941406 5.625 39.625 C4.97789062 38.89539063 4.33078125 38.16578125 3.6640625 37.4140625 C0.30747721 32.54465004 -0.24676962 27.88496666 -0.1953125 22.0703125 C-0.18886719 20.78125 -0.18242187 19.4921875 -0.17578125 18.1640625 C-0.15907463 16.81770558 -0.14214479 15.47135141 -0.125 14.125 C-0.11495664 12.75521483 -0.10583317 11.38542258 -0.09765625 10.015625 C-0.07414486 6.67700742 -0.03827558 3.33848095 0 0 Z " fill="#EBE9EF" transform="translate(216,424)"/>
<path d="M0 0 C5.07992162 3.17286908 7.24355678 7.47630531 9.9375 12.625 C10.80671618 14.25230637 11.67779874 15.87861726 12.55078125 17.50390625 C12.9679541 18.28266113 13.38512695 19.06141602 13.81494141 19.86376953 C15.28837253 22.51983098 16.94351531 25.03428193 18.625 27.5625 C20.96277256 31.41882568 21.86379354 34.55858484 21.51953125 39.08203125 C21 41 21 41 18.875 43.5625 C15.49160462 45.25419769 13.73175586 45.62195931 10 45 C6.02453435 42.29773553 3.86152468 39.57150957 1.5546875 35.38671875 C0.95269531 34.30326172 0.35070312 33.21980469 -0.26953125 32.10351562 C-0.88183594 30.97623047 -1.49414062 29.84894531 -2.125 28.6875 C-2.74503906 27.57181641 -3.36507812 26.45613281 -4.00390625 25.30664062 C-12.23734936 10.37135188 -12.23734936 10.37135188 -11.4375 5.75 C-8.72600235 0.5627871 -5.82892651 -0.83270379 0 0 Z " fill="#000000" transform="translate(163,49)"/>
<path d="M0 0 C5.91779675 1.13416978 10.91457351 4.67375164 15.99389648 7.77587891 C17.1621577 8.46639199 18.33142367 9.1552081 19.50170898 9.84228516 C33.31687821 18.05800357 33.31687821 18.05800357 34.74389648 22.96337891 C34.74389648 26.88881741 34.09514684 28.4511669 31.74389648 31.52587891 C30.74389648 32.52587891 30.74389648 32.52587891 27.07592773 33.06884766 C20.34228328 32.98752667 14.93534339 29.31459556 9.32177734 25.96459961 C7.43004663 24.83757471 5.52201306 23.74349112 3.60913086 22.65283203 C-6.85622556 16.56888814 -6.85622556 16.56888814 -10.25610352 11.52587891 C-10.87806283 7.79412305 -10.51030121 6.03427429 -8.81860352 2.65087891 C-5.81961022 0.16390886 -3.84742314 -0.09532341 0 0 Z " fill="#000000" transform="translate(396.256103515625,295.47412109375)"/>
<path d="M0 0 C3.06862356 2.54471222 3.84823663 4.08941981 4.5 8 C3.87062611 11.77624332 2.58152638 13.1948875 0 16 C-2.70141602 17.82104492 -2.70141602 17.82104492 -5.75390625 19.48046875 C-6.85541016 20.08697266 -7.95691406 20.69347656 -9.09179688 21.31835938 C-10.23712891 21.93517578 -11.38246094 22.55199219 -12.5625 23.1875 C-14.83506286 24.43020824 -17.10721742 25.6736635 -19.37890625 26.91796875 C-20.88819702 27.73430786 -20.88819702 27.73430786 -22.42797852 28.56713867 C-25.11667083 30.02026006 -25.11667083 30.02026006 -28 32 C-30.15625 32.30078125 -30.15625 32.30078125 -32.5 32.3125 C-33.66015625 32.33763672 -33.66015625 32.33763672 -34.84375 32.36328125 C-37.53653943 31.90960477 -38.37253291 31.16163573 -40 29 C-40.96233987 25.28811766 -41.47108548 23.02270688 -39.84326172 19.48876953 C-37.70236397 16.59813223 -35.75680285 15.31978146 -32.6328125 13.5546875 C-31.58222656 12.95269531 -30.53164062 12.35070312 -29.44921875 11.73046875 C-27.80373047 10.81201172 -27.80373047 10.81201172 -26.125 9.875 C-25.03574219 9.25496094 -23.94648437 8.63492187 -22.82421875 7.99609375 C-20.79377968 6.84045829 -18.76039645 5.68996914 -16.72314453 4.54638672 C-14.89379982 3.50756034 -13.08337037 2.43476297 -11.29272461 1.33056641 C-7.61276112 -0.80507421 -4.12456243 -0.81567839 0 0 Z " fill="#000000" transform="translate(122,296)"/>
<path d="M0 0 C3.41503906 1.3894043 3.41503906 1.3894043 6.765625 3.32421875 C7.36630798 3.6674971 7.96699097 4.01077545 8.58587646 4.36445618 C9.8442409 5.08851443 11.09783176 5.82092784 12.34667969 6.5612793 C14.24826063 7.68647079 16.1650027 8.78129433 18.0859375 9.87304688 C28.61552082 15.9731122 28.61552082 15.9731122 32 21 C32.62195931 24.73175586 32.25419769 26.49160462 30.5625 29.875 C27.56350671 32.36197005 25.59131962 32.62120231 21.74389648 32.52587891 C15.82609974 31.39170912 10.82932298 27.85212727 5.75 24.75 C4.58173878 24.05948692 3.41247281 23.37067081 2.2421875 22.68359375 C-11.57298172 14.46787533 -11.57298172 14.46787533 -13 9.5625 C-13 5.62891627 -12.41868244 4.04574825 -10 1 C-6.79129786 -0.60435107 -3.48701675 -0.39085868 0 0 Z " fill="#000000" transform="translate(94,120)"/>
<path d="M0 0 C0.87269531 -0.0038269 1.74539063 -0.00765381 2.64453125 -0.01159668 C4.48699092 -0.0143149 6.32948924 -0.00695994 8.171875 0.00976562 C10.99045934 0.03117752 13.80649485 0.00996199 16.625 -0.015625 C18.41667229 -0.01298171 20.20834299 -0.00785669 22 0 C22.84175781 -0.00809692 23.68351562 -0.01619385 24.55078125 -0.02453613 C30.38715618 0.06889601 30.38715618 0.06889601 33.52929688 2.43945312 C35.12144695 4.7039853 35.542797 5.7922417 35.5 8.53125 C35.5103125 9.19125 35.520625 9.85125 35.53125 10.53125 C34.72011424 13.58493756 33.53019712 14.62236769 31 16.53125 C28.00263779 17.13239553 25.04890723 17.09182764 22 17.0625 C21.12730469 17.0663269 20.25460937 17.07015381 19.35546875 17.07409668 C17.51300908 17.0768149 15.67051076 17.06945994 13.828125 17.05273438 C11.00954066 17.03132248 8.19350515 17.05253801 5.375 17.078125 C3.58332771 17.07548171 1.79165701 17.07035669 0 17.0625 C-0.84175781 17.07059692 -1.68351562 17.07869385 -2.55078125 17.08703613 C-8.38715618 16.99360399 -8.38715618 16.99360399 -11.52929688 14.62304688 C-13.12144695 12.3585147 -13.542797 11.2702583 -13.5 8.53125 C-13.51546875 7.54125 -13.51546875 7.54125 -13.53125 6.53125 C-11.69061453 -0.39820116 -5.94975317 -0.05723107 0 0 Z " fill="#000000" transform="translate(421,215.46875)"/>
<path d="M0 0 C0.87269531 -0.0038269 1.74539062 -0.00765381 2.64453125 -0.01159668 C4.48699092 -0.0143149 6.32948924 -0.00695994 8.171875 0.00976562 C10.99045934 0.03117752 13.80649485 0.00996199 16.625 -0.015625 C18.41667229 -0.01298171 20.20834299 -0.00785669 22 0 C22.84175781 -0.00809692 23.68351562 -0.01619385 24.55078125 -0.02453613 C30.38715618 0.06889601 30.38715618 0.06889601 33.52929688 2.43945312 C35.12144695 4.7039853 35.542797 5.7922417 35.5 8.53125 C35.5103125 9.19125 35.520625 9.85125 35.53125 10.53125 C34.72011424 13.58493756 33.53019712 14.62236769 31 16.53125 C28.00263779 17.13239553 25.04890723 17.09182764 22 17.0625 C21.12730469 17.0663269 20.25460938 17.07015381 19.35546875 17.07409668 C17.51300908 17.0768149 15.67051076 17.06945994 13.828125 17.05273438 C11.00954066 17.03132248 8.19350515 17.05253801 5.375 17.078125 C3.58332771 17.07548171 1.79165701 17.07035669 0 17.0625 C-0.84175781 17.07059692 -1.68351562 17.07869385 -2.55078125 17.08703613 C-8.38715618 16.99360399 -8.38715618 16.99360399 -11.52929688 14.62304688 C-13.12144695 12.3585147 -13.542797 11.2702583 -13.5 8.53125 C-13.51546875 7.54125 -13.51546875 7.54125 -13.53125 6.53125 C-11.69061453 -0.39820116 -5.94975317 -0.05723107 0 0 Z " fill="#000000" transform="translate(69,215.46875)"/>
<path d="M0 0 C0.66 -0.0103125 1.32 -0.020625 2 -0.03125 C5.05368756 0.77988576 6.09111769 1.96980288 8 4.5 C8.60114553 7.49736221 8.56057764 10.45109277 8.53125 13.5 C8.5350769 14.37269531 8.53890381 15.24539062 8.54284668 16.14453125 C8.5455649 17.98699092 8.53820994 19.82948924 8.52148438 21.671875 C8.50007248 24.49045934 8.52128801 27.30649485 8.546875 30.125 C8.54423171 31.91667229 8.53910669 33.70834299 8.53125 35.5 C8.53934692 36.34175781 8.54744385 37.18351562 8.55578613 38.05078125 C8.46235399 43.88715618 8.46235399 43.88715618 6.09179688 47.02929688 C3.8272647 48.62144695 2.7390083 49.042797 0 49 C-0.99 49.01546875 -0.99 49.01546875 -2 49.03125 C-5.05368756 48.22011424 -6.09111769 47.03019712 -8 44.5 C-8.60114553 41.50263779 -8.56057764 38.54890723 -8.53125 35.5 C-8.5350769 34.62730469 -8.53890381 33.75460938 -8.54284668 32.85546875 C-8.5455649 31.01300908 -8.53820994 29.17051076 -8.52148438 27.328125 C-8.50007248 24.50954066 -8.52128801 21.69350515 -8.546875 18.875 C-8.54423171 17.08332771 -8.53910669 15.29165701 -8.53125 13.5 C-8.53934692 12.65824219 -8.54744385 11.81648438 -8.55578613 10.94921875 C-8.46235399 5.11284382 -8.46235399 5.11284382 -6.09179688 1.97070312 C-3.8272647 0.37855305 -2.7390083 -0.042797 0 0 Z " fill="#000000" transform="translate(256,23.5)"/>
</svg>
