<?xml version="1.0" encoding="UTF-8"?>
<svg version="1.1" xmlns="http://www.w3.org/2000/svg" width="512" height="512">
<path d="M0 0 C11.55 0 23.1 0 35 0 C43 16 43 16 43.99023438 18.16186523 C45.78955481 21.43727228 48.99187313 22.08489947 52.36328125 23.296875 C59.86933346 25.29848892 66.13980009 21.91304475 72.94921875 18.9609375 C76.38996513 17.87716847 77.6088236 17.90448555 81 19 C84.53869175 21.77034891 87.66420316 24.96319913 90.83154297 28.14526367 C92.37240359 29.68490564 93.94024745 31.19286418 95.51171875 32.70117188 C96.49657668 33.6778909 97.47971159 34.65635101 98.4609375 35.63671875 C99.35603027 36.52061279 100.25112305 37.40450684 101.17333984 38.31518555 C103 41 103 41 102.8828125 44.0925293 C102.16654739 46.4514898 101.44189686 48.64779412 100.4140625 50.8828125 C96.25856278 60.39366181 96.25856278 60.39366181 96.875 70.5 C101.32988618 79.05527213 112.48559068 81.86352922 121 85 C121 88.63 121 92.26 121 96 C129.91 96 138.82 96 148 96 C147.84257711 87.47408069 147.84257711 87.47408069 147.63964844 78.94921875 C147.55793637 70.14540296 148.49354166 64.66584281 154.75 58.125 C161.96982291 53.40434656 169.72427218 53.71073094 178.07226562 53.74121094 C179.8542762 53.73595398 179.8542762 53.73595398 181.67228699 53.73059082 C184.9099064 53.72332845 188.1473606 53.724986 191.38497734 53.73134899 C194.78582968 53.73644034 198.1866716 53.73170887 201.58752441 53.72857666 C207.29681354 53.72494611 213.00605079 53.72971213 218.71533203 53.73925781 C225.30006967 53.75014063 231.88468341 53.7466144 238.46941805 53.735605 C244.1401565 53.7265061 249.81085784 53.72525954 255.48160124 53.73048234 C258.86094917 53.73358776 262.24023902 53.7340509 265.61958313 53.72740936 C269.38905151 53.72231828 273.15828355 53.730091 276.92773438 53.74121094 C278.03654465 53.73716248 279.14535492 53.73311401 280.2877655 53.72894287 C295.32132505 53.81090911 295.32132505 53.81090911 300.8125 58.6875 C301.35519531 59.14511719 301.89789063 59.60273437 302.45703125 60.07421875 C308.05415612 67.05999739 307.3629436 74.35875768 307.1875 82.9375 C307.17396484 84.19369141 307.16042969 85.44988281 307.14648438 86.74414062 C307.11128591 89.82987279 307.06204305 92.91471024 307 96 C307.95777344 95.95359375 308.91554688 95.9071875 309.90234375 95.859375 C334.57997796 95.03166627 355.67190911 104.46459986 373.64282227 121.19555664 C390.82405175 137.79022921 399.62907054 160.70719586 400.25 184.4375 C400.04191799 206.05490885 392.94331841 226.41072138 379 243 C378.40574219 243.73992187 377.81148438 244.47984375 377.19921875 245.2421875 C362.79706771 262.47705976 340.16010337 272.93615454 318 275 C310.73767155 275.43134153 303.46018128 275.506935 296.1875 275.625 C294.22329167 275.66326906 292.25909852 275.70232564 290.29492188 275.7421875 C285.53007414 275.83719753 280.76514837 275.92157446 276 276 C276.66 276.75023437 277.32 277.50046875 278 278.2734375 C280 281 280 281 280 284.625 C279 288 279 288 277.375 290 C273.93948675 291.44653189 271.40540484 291.3384033 268 290 C264.3568093 287.27896355 261.23784845 284.12037515 258.0625 280.875 C257.18787109 280.03195312 256.31324219 279.18890625 255.41210938 278.3203125 C249.2066116 272.0809049 249.2066116 272.0809049 248.2578125 267.1171875 C249.01391215 263.94156896 249.55953907 262.55044722 251.8125 260.25 C252.4415625 259.59386719 253.070625 258.93773437 253.71875 258.26171875 C254.4715625 257.51535156 255.224375 256.76898438 256 256 C256.94904202 255.02844175 257.89689139 254.05571752 258.84375 253.08203125 C267.59565433 244.15603841 267.59565433 244.15603841 272.375 243.625 C276 244 276 244 278.5 246.0625 C280.45640324 249.89378967 280.13891039 251.8999226 279 256 C277.44140625 257.7109375 277.44140625 257.7109375 276 259 C281.56434299 259.07513655 287.12837945 259.1290594 292.69311523 259.16479492 C294.57923539 259.17971955 296.46532185 259.20006664 298.35131836 259.22631836 C321.82229232 259.54442085 341.76273804 255.57181598 360 240 C360.65226562 239.45988281 361.30453125 238.91976562 361.9765625 238.36328125 C376.11107547 225.55186196 382.61741523 206.3220696 384.28515625 187.83984375 C384.85040463 169.57986346 378.48889425 151.99926287 367 138 C366.46890625 137.29488281 365.9378125 136.58976563 365.390625 135.86328125 C355.20375155 123.02882931 337.89477616 114.59111923 322 112 C317.01150855 111.46209767 312.01281619 111.19859518 307 111 C307.02094727 111.74572266 307.04189453 112.49144531 307.06347656 113.25976562 C307.14716634 116.67303725 307.19882794 120.08609224 307.25 123.5 C307.28351563 124.67304688 307.31703125 125.84609375 307.3515625 127.0546875 C307.43823794 134.76880204 306.97686585 140.5159879 301.65795898 146.51318359 C294.83944009 152.82792681 286.58398378 152.29376287 277.87353516 152.2746582 C276.66777328 152.27976913 275.46201141 152.28488007 274.2197113 152.29014587 C270.92825677 152.3016288 267.63695918 152.30412108 264.34548998 152.30158257 C261.58974875 152.30050875 258.83403045 152.30540677 256.07829416 152.310188 C249.57236077 152.32126314 243.06648512 152.321732 236.56054688 152.31567383 C229.86731511 152.3096367 223.1742937 152.32194287 216.48109782 152.3432439 C210.71779283 152.36090554 204.95455453 152.36685404 199.1912235 152.36360615 C195.75645876 152.36180022 192.32184406 152.36435987 188.88710403 152.37832069 C185.05299033 152.39069065 181.21936018 152.38388927 177.38525391 152.37231445 C176.25976639 152.37995819 175.13427887 152.38760193 173.97468567 152.39547729 C166.82117368 152.3478722 159.71844973 151.88984491 153.87890625 147.3515625 C153.22728516 146.49691406 153.22728516 146.49691406 152.5625 145.625 C152.11003906 145.06039062 151.65757812 144.49578125 151.19140625 143.9140625 C148.48164409 139.56067411 147.75439571 135.92883557 147.8046875 130.82421875 C147.80968262 129.78096436 147.81467773 128.73770996 147.81982422 127.6628418 C147.83803223 126.350979 147.85624023 125.03911621 147.875 123.6875 C147.91625 119.500625 147.9575 115.31375 148 111 C139.09 111 130.18 111 121 111 C121 114.3 121 117.6 121 121 C118.92138672 121.74830078 118.92138672 121.74830078 116.80078125 122.51171875 C104.87839564 126.76138115 104.87839564 126.76138115 96.8125 135.875 C94.5593306 144.41279438 98.75824196 152.39306662 102.39160156 160.00805664 C103.17040841 162.55793028 103.05949059 163.545499 102 166 C99.16964919 169.4576599 96.00682288 172.59295171 92.85473633 175.75610352 C91.31720832 177.30774845 89.80832817 178.88402786 88.29882812 180.46289062 C87.3219619 181.45215228 86.343497 182.43983838 85.36328125 183.42578125 C84.47938721 184.32723877 83.59549316 185.22869629 82.68481445 186.1574707 C80 188 80 188 76.87524414 187.86254883 C73.54652641 186.86396177 70.35325546 185.66198826 67.125 184.375 C61.3355086 182.26862353 57.92429904 181.33703886 52 183 C50.87207031 183.30679688 49.74414062 183.61359375 48.58203125 183.9296875 C43.40887078 186.18801455 42.08622029 191.17360934 40.125 196.125 C39.35792073 197.96141824 38.58975085 199.79738144 37.8203125 201.6328125 C37.49305176 202.44637207 37.16579102 203.25993164 36.82861328 204.09814453 C36 206 36 206 35 207 C32.40640678 207.08851529 29.83960309 207.11525945 27.24609375 207.09765625 C26.47064713 207.0962413 25.6952005 207.09482635 24.89625549 207.09336853 C22.40996506 207.08775345 19.9237634 207.07519846 17.4375 207.0625 C15.75586067 207.05748694 14.07421994 207.0529237 12.39257812 207.04882812 C8.26168434 207.03777913 4.13085724 207.02050445 0 207 C-0.22026855 206.42032471 -0.44053711 205.84064941 -0.66748047 205.2434082 C-4.98192282 192.39858167 -4.98192282 192.39858167 -14.0625 183.1875 C-22.69888451 180.39687652 -29.82169665 183.87494999 -37.828125 187.0390625 C-41.15247824 188.04619415 -41.89787163 188.24070907 -45 187 C-48.4593795 184.19029312 -51.59512437 181.04702396 -54.75610352 177.90966797 C-56.30622202 176.38119034 -57.88316302 174.88449444 -59.46289062 173.38671875 C-60.45231915 172.41328283 -61.44001068 171.43807755 -62.42578125 170.4609375 C-63.77796753 169.14295166 -63.77796753 169.14295166 -65.1574707 167.79833984 C-67 165 -67 165 -66.86254883 161.36376953 C-65.97368376 157.89737188 -64.80026157 154.78049032 -63.375 151.5 C-60.7274356 144.78516275 -60.73925251 140.73510309 -63.4609375 134.109375 C-66.14337686 128.8179462 -70.40096336 127.24069438 -75.6875 125.0625 C-77.42098923 124.30433658 -79.15408432 123.54527112 -80.88671875 122.78515625 C-81.65201904 122.46426025 -82.41731934 122.14336426 -83.20581055 121.81274414 C-85 121 -85 121 -86 120 C-86.08847743 117.47905924 -86.11527301 114.98569107 -86.09765625 112.46484375 C-86.0962413 111.71159317 -86.09482635 110.95834259 -86.09336853 110.18226624 C-86.08775376 107.7673044 -86.07519883 105.35243399 -86.0625 102.9375 C-86.0574869 101.30403779 -86.05292366 99.67057414 -86.04882812 98.03710938 C-86.03777954 94.02470415 -86.02050506 90.01236759 -86 86 C-84.90300781 85.45730469 -83.80601563 84.91460937 -82.67578125 84.35546875 C-81.22130061 83.6329203 -79.7668765 82.91025804 -78.3125 82.1875 C-77.59126953 81.83107422 -76.87003906 81.47464844 -76.12695312 81.10742188 C-74.07647101 80.08686229 -72.03686073 79.04743133 -70 78 C-69.05253906 77.51789063 -68.10507813 77.03578125 -67.12890625 76.5390625 C-64.53204566 74.66169906 -63.76672105 73.16054162 -62.625 70.1875 C-62.28726563 69.35605469 -61.94953125 68.52460937 -61.6015625 67.66796875 C-60.07545741 60.89959357 -63.60475678 54.53320169 -66.0390625 48.33984375 C-67.07332727 44.74514303 -67.12671302 43.49378447 -66 40 C-63.29274539 36.43759565 -60.16146706 33.29148792 -57.01953125 30.11352539 C-55.50496924 28.56757223 -54.03499434 26.98632412 -52.5625 25.40039062 C-45.64485796 18.2072262 -45.64485796 18.2072262 -41.51953125 17.6875 C-39.12034577 18.18037172 -37.19562215 18.92297682 -35 20 C-33.80375 20.47179687 -32.6075 20.94359375 -31.375 21.4296875 C-30.26125 21.90664063 -29.1475 22.38359375 -28 22.875 C-23.19951421 24.72246884 -23.19951421 24.72246884 -18.20703125 24.43359375 C-15.82498552 23.37435997 -15.82498552 23.37435997 -13.76953125 22.05078125 C-12 21 -12 21 -9 21 C-8.443125 19.14375 -8.443125 19.14375 -7.875 17.25 C-5.74906861 11.29739211 -2.82676936 5.65353871 0 0 Z M-8 83 C-13.99871283 91.73975147 -14.78605945 99.48503082 -14 110 C-12.31577645 117.75601034 -7.96015943 123.85212805 -2 129 C6.54426315 134.30377224 13.98837291 135.82193518 24 135 C33.51598385 132.58490893 40.56745221 127.70706261 45.7109375 119.38671875 C49.93250262 111.57042697 51.39214605 103.93319388 49.34375 95.203125 C47.20152135 88.51789422 44.03674186 83.84125188 39 79 C38.236875 78.2575 37.47375 77.515 36.6875 76.75 C21.54487018 66.88968291 3.91242005 69.38922288 -8 83 Z " fill="#FEC237" transform="translate(99,8)"/>
<path d="M0 0 C1.10612137 -0.00571014 2.21224274 -0.01142029 3.35188293 -0.01730347 C4.56596832 -0.01842133 5.78005371 -0.01953918 7.03092957 -0.02069092 C8.3092012 -0.02565582 9.58747284 -0.03062073 10.90447998 -0.03573608 C14.41285725 -0.04885255 17.92121539 -0.05530362 21.42961335 -0.05974674 C23.62221359 -0.06267883 25.81480862 -0.06678391 28.00740623 -0.07125092 C34.86955326 -0.08492418 41.73168835 -0.09459154 48.59384805 -0.09845281 C56.51141409 -0.10293258 64.4288074 -0.12047731 72.34632093 -0.1494534 C78.4687211 -0.17108091 84.59107273 -0.18115766 90.71351069 -0.18249393 C94.36901947 -0.18354124 98.02436585 -0.18943315 101.67983437 -0.20731354 C105.75921202 -0.22687929 109.83822891 -0.22250102 113.91764832 -0.21600342 C115.12566101 -0.2252182 116.33367371 -0.23443298 117.57829285 -0.243927 C124.34841426 -0.21009918 129.3368827 0.06736194 134.53166199 4.85919189 C135.00990417 5.44700439 135.48814636 6.03481689 135.98088074 6.64044189 C136.47201355 7.22825439 136.96314636 7.81606689 137.46916199 8.42169189 C140.0233059 12.08235418 139.81090468 15.5672319 139.84538269 19.88751221 C139.85195389 20.56920975 139.85852509 21.25090729 139.86529541 21.95326233 C139.88499824 24.20836503 139.89668513 26.46340118 139.90666199 28.71856689 C139.91073751 29.49039055 139.91481304 30.2622142 139.91901207 31.05742645 C139.93986145 35.14385204 139.9541672 39.23024418 139.96354675 43.31671143 C139.97459997 47.52778243 140.00899002 51.73832339 140.04871845 55.94920731 C140.07492345 59.19554597 140.08324207 62.44175916 140.08682823 65.68819427 C140.09168536 67.23987146 140.10327443 68.79154336 140.12186623 70.34311676 C140.29109953 85.40438426 140.29109953 85.40438426 135.66838074 91.14044189 C130.98382411 95.58476485 126.61553374 97.38502988 120.18563843 97.40786743 C118.55191032 97.42066238 118.55191032 97.42066238 116.88517761 97.43371582 C115.10760071 97.43235626 115.10760071 97.43235626 113.29411316 97.43096924 C112.0382692 97.43768646 110.78242523 97.44440369 109.48852539 97.45132446 C106.05035786 97.46896002 102.61228995 97.47367884 99.17408156 97.47495604 C97.02332451 97.47637974 94.87259261 97.48065352 92.72184181 97.48595047 C85.21075972 97.50444365 77.69974851 97.5126221 70.18864441 97.51104736 C63.20000808 97.5098466 56.21168091 97.53093767 49.22312278 97.56253469 C43.21274088 97.58873548 37.20245972 97.59941305 31.19202119 97.59813654 C27.60685843 97.59762796 24.02197045 97.60325296 20.43686485 97.62449265 C16.43464095 97.64755689 12.43310418 97.63833105 8.43083191 97.62628174 C7.25185333 97.63752075 6.07287476 97.64875977 4.85816956 97.66033936 C-2.43570978 97.60459269 -8.43731956 96.86218947 -13.8830843 91.65772057 C-17.91484633 87.06238797 -18.45616734 83.66556626 -18.42927551 77.72247314 C-18.42605286 76.46885986 -18.4228302 75.21524658 -18.41950989 73.92364502 C-18.41113098 72.61331299 -18.40275208 71.30298096 -18.39411926 69.95294189 C-18.38910244 68.61765708 -18.38453985 67.28237048 -18.38044739 65.94708252 C-18.36864621 62.67815716 -18.35218224 59.40932198 -18.33161926 56.14044189 C-29.00773301 56.1787189 -39.68350207 56.23839611 -50.35934448 56.32434464 C-55.31821388 56.36361727 -60.27691106 56.39590381 -65.23591614 56.41143799 C-70.03427138 56.42673911 -74.83215249 56.46141809 -79.6302948 56.50875092 C-81.44798121 56.52342748 -83.26573537 56.53147489 -85.08348083 56.53232574 C-106.0596687 56.55199328 -125.21682446 60.6885246 -141.33161926 75.14044189 C-142.09087708 75.81848877 -142.85013489 76.49653564 -143.63240051 77.19512939 C-157.25705088 90.06412689 -165.41902042 108.24786699 -166.49177551 126.92950439 C-167.07360754 147.72367502 -159.79823339 166.71790355 -145.60896301 181.82794189 C-129.63004668 198.05353104 -111.42218739 203.42740015 -89.33161926 205.14044189 C-89.34732971 204.38948242 -89.36304016 203.63852295 -89.37922668 202.86480713 C-89.44189684 199.43592979 -89.48071187 196.00717335 -89.51911926 192.57794189 C-89.54425598 191.39651611 -89.5693927 190.21509033 -89.59529114 188.99786377 C-89.66261136 180.98675707 -89.27366517 175.73627579 -84.08161926 169.39044189 C-77.01411029 163.60793455 -70.46009135 163.70293962 -61.63850403 163.73638916 C-60.37261444 163.72952591 -59.10672485 163.72266266 -57.80247498 163.71559143 C-54.34577691 163.69771447 -50.88933345 163.69881798 -47.43260312 163.70453382 C-44.54006545 163.70763363 -41.64757613 163.70152444 -38.75504535 163.69549507 C-31.92790829 163.6814694 -25.10089641 163.68299475 -18.27375793 163.69439697 C-11.2453024 163.70587648 -4.21722853 163.69180117 2.81117672 163.6650005 C8.8598277 163.64280477 14.90835921 163.6362148 20.957048 163.64207691 C24.5634021 163.64543846 28.16951161 163.64308527 31.77583122 163.62582588 C35.79942161 163.60740821 39.82227497 163.62158341 43.84587097 163.63873291 C45.62365181 163.62423096 45.62365181 163.62423096 47.43734741 163.60943604 C54.31850725 163.67077961 58.82155071 164.42852807 64.66838074 168.14044189 C69.50149799 173.22793374 70.91697755 177.03501833 70.94303894 184.01690674 C70.94814987 184.7003566 70.9532608 185.38380646 70.95852661 186.08796692 C70.97240219 188.34252737 70.97146721 190.59678137 70.96916199 192.85137939 C70.97305048 194.42312737 70.97738547 195.9948743 70.98214722 197.56661987 C70.98960536 200.86014207 70.98932143 204.15355708 70.98405457 207.44708252 C70.9782651 211.65927638 70.99517996 215.87102979 71.01839924 220.08315086 C71.03316196 223.32946318 71.03400476 226.5756701 71.03088951 229.82201004 C71.0314016 231.37448625 71.03661827 232.92696853 71.04670143 234.47941208 C71.05909612 236.65495797 71.05225657 238.82965477 71.04069519 241.00518799 C71.04132462 242.24110687 71.04195404 243.47702576 71.04260254 244.75039673 C70.44734439 250.14279234 68.36115948 254.04171182 64.16838074 257.45294189 C63.58056824 257.94407471 62.99275574 258.43520752 62.38713074 258.94122314 C59.09901386 261.23543196 56.15313473 261.2721739 52.27429199 261.29434204 C51.15423264 261.3029425 50.03417328 261.31154297 48.88017273 261.32040405 C47.65052795 261.324664 46.42088318 261.32892395 45.15397644 261.33331299 C43.85941025 261.34149048 42.56484406 261.34966797 41.23104858 261.35809326 C36.93544083 261.3842889 32.63982347 261.39962019 28.34416199 261.41387939 C26.86373069 261.41924042 25.38329945 261.42461793 23.90286827 261.43001175 C17.74265162 261.45163844 11.58243757 261.47037341 5.42219257 261.48163414 C-3.39658862 261.49786218 -12.21492846 261.53101396 -21.03354329 261.58803499 C-27.23919762 261.62678762 -33.44473419 261.64627319 -39.65050632 261.6515547 C-43.35427865 261.65520144 -47.05757998 261.6671491 -50.76122093 261.69965744 C-54.89782643 261.73544553 -59.03348854 261.73135379 -63.17024231 261.72393799 C-64.38976593 261.74034332 -65.60928955 261.75674866 -66.86576843 261.77365112 C-73.91207794 261.72196999 -78.98198776 260.97479625 -84.33161926 256.14044189 C-88.33924735 251.00245716 -89.45945939 247.37038995 -89.42927551 240.94122314 C-89.42444153 239.128479 -89.42444153 239.128479 -89.41950989 237.27911377 C-89.40694153 235.38515869 -89.40694153 235.38515869 -89.39411926 233.45294189 C-89.38960754 232.17870361 -89.38509583 230.90446533 -89.38044739 229.59161377 C-89.368648 226.44117626 -89.35218523 223.29083241 -89.33161926 220.14044189 C-90.22107239 220.18193359 -91.11052551 220.22342529 -92.02693176 220.26617432 C-115.53742762 221.18500435 -136.58185699 211.91942018 -154.10896301 196.73419189 C-169.64651596 181.98668401 -181.39764824 159.89418371 -182.33161926 138.14044189 C-182.38318176 137.07954346 -182.43474426 136.01864502 -182.48786926 134.92559814 C-183.09235668 110.92241022 -175.44199985 88.22290297 -159.33161926 70.14044189 C-158.67806458 69.39278564 -158.02450989 68.64512939 -157.35115051 67.87481689 C-143.34221491 52.84083722 -121.9824647 41.98359308 -101.33812141 41.05032158 C-99.13618752 41.01834725 -96.93634988 41.01662955 -94.73420715 41.0269165 C-93.48909363 41.02669746 -93.48909363 41.02669746 -92.21882629 41.026474 C-89.49728203 41.02716616 -86.7758077 41.03492569 -84.05427551 41.04278564 C-82.15855954 41.0446523 -80.26284309 41.04607504 -78.36712646 41.04707336 C-73.39413607 41.05087902 -68.4211752 41.06069255 -63.44819641 41.07177734 C-58.36702371 41.08203352 -53.28584622 41.08657998 -48.20466614 41.09161377 C-38.24697092 41.10231666 -28.28929756 41.11936952 -18.33161926 41.14044189 C-18.35518494 39.91526855 -18.35518494 39.91526855 -18.37922668 38.66534424 C-18.44175866 34.94878112 -18.48066871 31.23232893 -18.51911926 27.51544189 C-18.54425598 26.23024658 -18.5693927 24.94505127 -18.59529114 23.62091064 C-18.60979309 21.75499268 -18.60979309 21.75499268 -18.62458801 19.85137939 C-18.64815369 18.13894043 -18.64815369 18.13894043 -18.67219543 16.39190674 C-18.1144558 11.06719239 -15.96141354 7.18792803 -11.83161926 3.82794189 C-11.24380676 3.33680908 -10.65599426 2.84567627 -10.05036926 2.33966064 C-6.77715955 0.05585296 -3.86052399 0.01192678 0 0 Z " fill="#FEE177" transform="translate(195.3316192626953,226.85955810546875)"/>
<path d="M0 0 C1.78201057 -0.00525696 1.78201057 -0.00525696 3.60002136 -0.01062012 C6.83764078 -0.01788249 10.07509497 -0.01622494 13.31271172 -0.00986195 C16.71356406 -0.0047706 20.11440598 -0.00950207 23.51525879 -0.01263428 C29.22454792 -0.01626483 34.93378517 -0.01149881 40.64306641 -0.00195312 C47.22780404 0.00892969 53.81241779 0.00540347 60.39715242 -0.00560594 C66.06789088 -0.01470484 71.73859221 -0.01595139 77.40933561 -0.0107286 C80.78868354 -0.00762317 84.16797339 -0.00716004 87.5473175 -0.01380157 C91.31678589 -0.01889266 95.08601792 -0.01111994 98.85546875 0 C99.96427902 -0.00404846 101.07308929 -0.00809692 102.21549988 -0.01226807 C117.24905943 0.06969817 117.24905943 0.06969817 122.74023438 4.94628906 C123.55427734 5.63271484 123.55427734 5.63271484 124.38476562 6.33300781 C129.98189049 13.31878645 129.29067798 20.61754674 129.11523438 29.19628906 C129.10169922 30.45248047 129.08816406 31.70867187 129.07421875 33.00292969 C129.03902028 36.08866185 128.98977743 39.1734993 128.92773438 42.25878906 C129.88550781 42.21238281 130.84328125 42.16597656 131.83007812 42.11816406 C156.50771233 41.29045533 177.59964349 50.72338892 195.57055664 67.4543457 C212.75178612 84.04901828 221.55680492 106.96598492 222.17773438 130.69628906 C221.96965236 152.31369791 214.87105278 172.66951045 200.92773438 189.25878906 C200.33347656 189.99871094 199.73921875 190.73863281 199.12695312 191.50097656 C184.72480209 208.73584882 162.08783775 219.1949436 139.92773438 221.25878906 C132.66540593 221.6901306 125.38791566 221.76572406 118.11523438 221.88378906 C116.15102605 221.92205813 114.1868329 221.96111471 112.22265625 222.00097656 C107.45780852 222.09598659 102.69288274 222.18036353 97.92773438 222.25878906 C98.58773437 223.00902344 99.24773437 223.75925781 99.92773438 224.53222656 C101.92773438 227.25878906 101.92773438 227.25878906 101.92773438 230.88378906 C100.92773438 234.25878906 100.92773438 234.25878906 99.30273438 236.25878906 C95.86722112 237.70532096 93.33313921 237.59719236 89.92773438 236.25878906 C86.28454367 233.53775261 83.16558282 230.37916421 79.99023438 227.13378906 C78.67829102 225.86921875 78.67829102 225.86921875 77.33984375 224.57910156 C71.13434598 218.33969396 71.13434598 218.33969396 70.18554688 213.37597656 C70.94164653 210.20035802 71.48727345 208.80923628 73.74023438 206.50878906 C74.36929688 205.85265625 74.99835938 205.19652344 75.64648438 204.52050781 C76.77570313 203.40095703 76.77570313 203.40095703 77.92773438 202.25878906 C78.8767764 201.28723082 79.82462576 200.31450658 80.77148438 199.34082031 C89.5233887 190.41482747 89.5233887 190.41482747 94.30273438 189.88378906 C97.92773438 190.25878906 97.92773438 190.25878906 100.42773438 192.32128906 C102.38413761 196.15257873 102.06664476 198.15871166 100.92773438 202.25878906 C99.36914062 203.96972656 99.36914062 203.96972656 97.92773438 205.25878906 C103.49207737 205.33392561 109.05611383 205.38784846 114.62084961 205.42358398 C116.50696976 205.43850861 118.39305623 205.4588557 120.27905273 205.48510742 C143.75002669 205.80320991 163.69047242 201.83060504 181.92773438 186.25878906 C182.58 185.71867188 183.23226562 185.17855469 183.90429688 184.62207031 C198.03880985 171.81065102 204.5451496 152.58085867 206.21289062 134.09863281 C206.77813901 115.83865252 200.41662862 98.25805194 188.92773438 84.25878906 C188.39664063 83.55367188 187.86554688 82.84855469 187.31835938 82.12207031 C177.13148593 69.28761837 159.82251053 60.84990829 143.92773438 58.25878906 C138.93924292 57.72088673 133.94055057 57.45738424 128.92773438 57.25878906 C128.94868164 58.00451172 128.96962891 58.75023437 128.99121094 59.51855469 C129.07490071 62.93182631 129.12656231 66.3448813 129.17773438 69.75878906 C129.21125 70.93183594 129.24476563 72.10488281 129.27929688 73.31347656 C129.36597232 81.02759111 128.90460022 86.77477696 123.58569336 92.77197266 C116.76717446 99.08671588 108.51171815 98.55255194 99.80126953 98.53344727 C98.59550766 98.5385582 97.38974579 98.54366913 96.14744568 98.54893494 C92.85599115 98.56041786 89.56469355 98.56291015 86.27322435 98.56037164 C83.51748313 98.55929781 80.76176482 98.56419584 78.00602853 98.56897706 C71.50009514 98.5800522 64.9942195 98.58052106 58.48828125 98.57446289 C51.79504949 98.56842576 45.10202808 98.58073193 38.40883219 98.60203296 C32.64552721 98.61969461 26.8822889 98.62564311 21.11895788 98.62239522 C17.68419314 98.62058929 14.24957844 98.62314893 10.81483841 98.63710976 C6.9807247 98.64947971 3.14709456 98.64267833 -0.68701172 98.63110352 C-1.81249924 98.63874725 -2.93798676 98.64639099 -4.09757996 98.65426636 C-11.25109195 98.60666126 -18.35381589 98.14863397 -24.19335938 93.61035156 C-24.62777344 93.04058594 -25.0621875 92.47082031 -25.50976562 91.88378906 C-26.18845703 91.036875 -26.18845703 91.036875 -26.88085938 90.17285156 C-29.63939855 85.7411001 -30.31682852 82.0601745 -30.26757812 76.86425781 C-30.26258301 75.78039795 -30.25758789 74.69653809 -30.25244141 73.57983398 C-30.2342334 72.21576416 -30.21602539 70.85169434 -30.19726562 69.44628906 C-30.15601563 65.09441406 -30.11476562 60.74253906 -30.07226562 56.25878906 C-38.98226562 56.25878906 -47.89226562 56.25878906 -57.07226562 56.25878906 C-57.07226562 51.63878906 -57.07226562 47.01878906 -57.07226562 42.25878906 C-48.16226563 42.25878906 -39.25226563 42.25878906 -30.07226562 42.25878906 C-30.22968852 33.73286975 -30.22968852 33.73286975 -30.43261719 25.20800781 C-30.51432925 16.40419202 -29.57872396 10.92463187 -23.32226562 4.38378906 C-16.10244272 -0.33686438 -8.34799345 -0.03048 0 0 Z " fill="#6DF4C1" transform="translate(277.072265625,61.7412109375)"/>
<path d="M0 0 C1.89883438 -0.01029488 1.89883438 -0.01029488 3.83602905 -0.02079773 C7.29272712 -0.03867469 10.74917058 -0.03757118 14.20590091 -0.03185534 C17.09843858 -0.02875553 19.9909279 -0.03486472 22.88345867 -0.04089409 C29.71059574 -0.05491976 36.53760762 -0.05339441 43.36474609 -0.04199219 C50.39320163 -0.03051268 57.4212755 -0.04458799 64.44968075 -0.07138866 C70.49833173 -0.09358439 76.54686324 -0.10017436 82.59555203 -0.09431225 C86.20190613 -0.0909507 89.80801564 -0.09330389 93.41433525 -0.11056328 C97.43792563 -0.12898095 101.46077899 -0.11480575 105.484375 -0.09765625 C107.26215584 -0.1121582 107.26215584 -0.1121582 109.07585144 -0.12695312 C115.95701127 -0.06560955 120.46005473 0.69213891 126.30688477 4.40405273 C131.14000202 9.49154458 132.55548158 13.29862917 132.58154297 20.28051758 C132.5866539 20.96396744 132.59176483 21.6474173 132.59703064 22.35157776 C132.61090622 24.60613821 132.60997124 26.86039221 132.60766602 29.11499023 C132.61155451 30.68673821 132.6158895 32.25848514 132.62065125 33.83023071 C132.62810939 37.12375291 132.62782546 40.41716792 132.62255859 43.71069336 C132.61676913 47.92288722 132.63368398 52.13464063 132.65690327 56.3467617 C132.67166599 59.59307402 132.67250879 62.83928094 132.66939354 66.08562088 C132.66990563 67.63809709 132.6751223 69.19057937 132.68520546 70.74302292 C132.69760015 72.91856881 132.6907606 75.09326561 132.67919922 77.26879883 C132.67982864 78.50471771 132.68045807 79.7406366 132.68110657 81.01400757 C132.08584842 86.40640318 129.99966351 90.30532266 125.80688477 93.71655273 C125.21907227 94.20768555 124.63125977 94.69881836 124.02563477 95.20483398 C120.73751789 97.4990428 117.79163876 97.53578474 113.91279602 97.55795288 C112.79273666 97.56655334 111.67267731 97.57515381 110.51867676 97.58401489 C109.28903198 97.58827484 108.05938721 97.59253479 106.79248047 97.59692383 C105.49791428 97.60510132 104.20334808 97.61327881 102.86955261 97.6217041 C98.57394486 97.64789974 94.2783275 97.66323103 89.98266602 97.67749023 C88.50223472 97.68285126 87.02180348 97.68822877 85.5413723 97.69362259 C79.38115565 97.71524928 73.2209416 97.73398425 67.0606966 97.74524498 C58.24191541 97.76147302 49.42357557 97.7946248 40.60496074 97.85164583 C34.3993064 97.89039846 28.19376984 97.90988403 21.98799771 97.91516554 C18.28422538 97.91881228 14.58092405 97.93075994 10.8772831 97.96326828 C6.74067759 97.99905637 2.60501549 97.99496463 -1.53173828 97.98754883 C-2.7512619 98.00395416 -3.97078552 98.0203595 -5.2272644 98.03726196 C-12.27357391 97.98558083 -17.34348373 97.23840709 -22.69311523 92.40405273 C-26.77056873 87.17654825 -27.81643591 83.46829485 -27.85424805 76.93237305 C-27.85921295 76.27993622 -27.86417786 75.62749939 -27.86929321 74.95529175 C-27.8838927 72.79757631 -27.89071411 70.63993445 -27.89624023 68.48217773 C-27.90199476 66.97865803 -27.90775246 65.47513833 -27.91351318 63.97161865 C-27.92401774 60.81758279 -27.92986356 57.66357237 -27.93334961 54.50952148 C-27.93882458 50.48014339 -27.96283326 46.45110488 -27.99132156 42.42183304 C-28.01000596 39.3144637 -28.01515668 36.20717509 -28.01668549 33.09975433 C-28.01970091 31.61508076 -28.02769175 30.13040824 -28.04087067 28.6457901 C-28.0580489 26.56137289 -28.05602266 24.47777106 -28.04956055 22.39331055 C-28.05320618 21.20989075 -28.05685181 20.02647095 -28.06060791 18.80718994 C-27.35988446 12.31819521 -24.80058287 7.58288989 -19.69311523 3.40405273 C-13.26121118 -0.20536753 -7.25862227 -0.02752312 0 0 Z " fill="#FE656F" transform="translate(133.693115234375,390.595947265625)"/>
<path d="M0 0 C13.66463086 11.41327947 21.82322679 26.88189571 23.8359375 44.59375 C25.12771213 63.89584393 19.44816207 80.99757999 6.8359375 95.59375 C-4.10164665 107.46937738 -18.90442708 115.03862292 -35.05078125 115.90234375 C-55.39642051 116.58176929 -71.85810467 111.40324197 -87.1640625 97.59375 C-99.68429671 85.50350363 -106.11769567 68.98213314 -106.4765625 51.71875 C-106.31020919 32.88385814 -98.88501497 17.23855208 -86.21484375 3.4765625 C-79.60785357 -2.99199551 -71.56171355 -6.78160389 -63.1640625 -10.40625 C-62.27203125 -10.79167969 -61.38 -11.17710937 -60.4609375 -11.57421875 C-40.28690665 -18.50497451 -16.46297689 -12.5199923 0 0 Z " fill="#8AC9FE" transform="translate(475.1640625,388.40625)"/>
<path d="M0 0 C25.57659045 -1.15238705 46.92908165 6.51451991 66.0859375 23.74609375 C83.20243534 39.68158813 92.91498762 61.649402 94.16015625 85.00390625 C94.75672815 107.80332813 87.72841819 129.47663678 73 147 C72.40574219 147.73992187 71.81148437 148.47984375 71.19921875 149.2421875 C56.79706771 166.47705976 34.16010337 176.93615454 12 179 C4.73767155 179.43134153 -2.53981872 179.506935 -9.8125 179.625 C-11.77670833 179.66326906 -13.74090148 179.70232564 -15.70507812 179.7421875 C-20.46992586 179.83719753 -25.23485163 179.92157446 -30 180 C-29.34 180.75023437 -28.68 181.50046875 -28 182.2734375 C-26 185 -26 185 -26 188.625 C-27 192 -27 192 -28.625 194 C-32.06051325 195.44653189 -34.59459516 195.3384033 -38 194 C-41.6431907 191.27896355 -44.76215155 188.12037515 -47.9375 184.875 C-48.81212891 184.03195312 -49.68675781 183.18890625 -50.58789062 182.3203125 C-56.7933884 176.0809049 -56.7933884 176.0809049 -57.7421875 171.1171875 C-56.98608785 167.94156896 -56.44046093 166.55044722 -54.1875 164.25 C-53.5584375 163.59386719 -52.929375 162.93773437 -52.28125 162.26171875 C-51.15203125 161.14216797 -51.15203125 161.14216797 -50 160 C-49.05095798 159.02844175 -48.10310861 158.05571752 -47.15625 157.08203125 C-38.40434567 148.15603841 -38.40434567 148.15603841 -33.625 147.625 C-30 148 -30 148 -27.5 150.0625 C-25.54359676 153.89378967 -25.86108961 155.8999226 -27 160 C-28.55859375 161.7109375 -28.55859375 161.7109375 -30 163 C-24.43565701 163.07513655 -18.87162055 163.1290594 -13.30688477 163.16479492 C-11.42076461 163.17971955 -9.53467815 163.20006664 -7.64868164 163.22631836 C15.82229232 163.54442085 35.76273804 159.57181598 54 144 C54.65226562 143.45988281 55.30453125 142.91976562 55.9765625 142.36328125 C70.11107547 129.55186196 76.61741523 110.3220696 78.28515625 91.83984375 C78.85040463 73.57986346 72.48889425 55.99926287 61 42 C60.20335937 40.94232422 60.20335937 40.94232422 59.390625 39.86328125 C49.21059602 27.03745267 31.8899865 18.5741391 16 16 C11.99057277 15.59696748 7.98263754 15.3822399 3.95703125 15.2109375 C1 15 1 15 0 14 C-0.07271741 11.64686445 -0.08370868 9.29166332 -0.0625 6.9375 C-0.05347656 5.64714844 -0.04445313 4.35679688 -0.03515625 3.02734375 C-0.02355469 2.02832031 -0.01195312 1.02929688 0 0 Z " fill="#A3ADB3" transform="translate(405,104)"/>
<path d="M0 0 C1.24511353 -0.00021904 1.24511353 -0.00021904 2.51538086 -0.0004425 C5.23692512 0.00024965 7.95839945 0.00800919 10.67993164 0.01586914 C12.57564761 0.0177358 14.47136406 0.01915853 16.36708069 0.02015686 C21.34007108 0.02396252 26.31303196 0.03377604 31.28601074 0.04486084 C36.36718344 0.05511701 41.44836094 0.05966347 46.52954102 0.06469727 C56.48723623 0.07540015 66.4449096 0.09245301 76.40258789 0.11352539 C76.40258789 5.06352539 76.40258789 10.01352539 76.40258789 15.11352539 C73.94176758 15.12287109 71.48094727 15.1322168 68.94555664 15.1418457 C60.75517714 15.17582694 52.56504401 15.23149104 44.37486267 15.29742813 C39.41599328 15.33670076 34.4572961 15.3689873 29.49829102 15.38452148 C24.69993577 15.3998226 19.90205466 15.43450159 15.10391235 15.48183441 C13.28622594 15.49651098 11.46847178 15.50455838 9.65072632 15.50540924 C-11.32546154 15.52507678 -30.4826173 19.6616081 -46.59741211 34.11352539 C-47.35666992 34.79157227 -48.11592773 35.46961914 -48.89819336 36.16821289 C-62.52284373 49.03721038 -70.68481327 67.22095049 -71.75756836 85.90258789 C-72.33940038 106.69675852 -65.06402624 125.69098705 -50.87475586 140.80102539 C-35.92559349 155.98096385 -18.87769302 162.01287832 1.92993164 163.75415039 C5.40258789 164.11352539 5.40258789 164.11352539 6.40258789 165.11352539 C6.47530531 167.46666094 6.48629657 169.82186208 6.46508789 172.17602539 C6.45606445 173.46637695 6.44704102 174.75672852 6.43774414 176.08618164 C6.42614258 177.08520508 6.41454102 178.08422852 6.40258789 179.11352539 C-18.63612762 180.44301471 -40.54841959 172.01813776 -59.37475586 155.70727539 C-74.91230881 140.95976751 -86.66344108 118.8672672 -87.59741211 97.11352539 C-87.64897461 96.05262695 -87.70053711 94.99172852 -87.75366211 93.89868164 C-88.35814953 69.89549371 -80.7077927 47.19598647 -64.59741211 29.11352539 C-63.94385742 28.36586914 -63.29030273 27.61821289 -62.61694336 26.84790039 C-46.63494844 9.69649121 -23.31831497 -0.10892773 0 0 Z " fill="#A3AEB6" transform="translate(100.597412109375,267.886474609375)"/>
<path d="M0 0 C10.01122048 6.75404874 17.71553754 15.74639036 20.8359375 27.6640625 C23.0664138 42.10731069 21.8835139 55.45159747 13.0625 67.5625 C3.53417211 78.80634029 -6.99398102 85.37954937 -21.75390625 87.109375 C-35.33053789 87.70907897 -47.68395207 82.88646673 -57.6875 73.75 C-66.2563117 65.0342104 -71.78282729 53.97614291 -71.875 41.625 C-71.6782565 28.26432808 -67.92618427 16.39189608 -58.6015625 6.4921875 C-42.37187384 -8.28014136 -18.98615429 -11.38657501 0 0 Z M-50.6875 19.75 C-56.68621283 28.48975147 -57.47355945 36.23503082 -56.6875 46.75 C-55.00327645 54.50601034 -50.64765943 60.60212805 -44.6875 65.75 C-36.14323685 71.05377224 -28.69912709 72.57193518 -18.6875 71.75 C-9.17151615 69.33490893 -2.12004779 64.45706261 3.0234375 56.13671875 C7.24500262 48.32042697 8.70464605 40.68319388 6.65625 31.953125 C4.51402135 25.26789422 1.34924186 20.59125188 -3.6875 15.75 C-4.450625 15.0075 -5.21375 14.265 -6 13.5 C-21.14262982 3.63968291 -38.77507995 6.13922288 -50.6875 19.75 Z " fill="#EAA824" transform="translate(141.6875,71.25)"/>
<path d="M0 0 C3.53869175 2.77034891 6.66420316 5.96319913 9.83154297 9.14526367 C11.37240359 10.68490564 12.94024745 12.19286418 14.51171875 13.70117188 C15.49657668 14.6778909 16.47971159 15.65635101 17.4609375 16.63671875 C18.35603027 17.52061279 19.25112305 18.40450684 20.17333984 19.31518555 C22 22 22 22 21.8828125 25.0925293 C21.16654739 27.4514898 20.44189686 29.64779412 19.4140625 31.8828125 C15.25856278 41.39366181 15.25856278 41.39366181 15.875 51.5 C20.36082287 60.1146837 31.62121128 62.75659792 40 66 C40 74.25 40 82.5 40 91 C48.91 91 57.82 91 67 91 C67 91.33 67 91.66 67 92 C58.09 92 49.18 92 40 92 C40 95.3 40 98.6 40 102 C37.92138672 102.74830078 37.92138672 102.74830078 35.80078125 103.51171875 C23.87839564 107.76138115 23.87839564 107.76138115 15.8125 116.875 C13.5593306 125.41279438 17.75824196 133.39306662 21.39160156 141.00805664 C22.17040841 143.55793028 22.05949059 144.545499 21 147 C18.16964919 150.4576599 15.00682288 153.59295171 11.85473633 156.75610352 C10.31720832 158.30774845 8.80832817 159.88402786 7.29882812 161.46289062 C6.3219619 162.45215228 5.343497 163.43983838 4.36328125 164.42578125 C3.03744019 165.77796753 3.03744019 165.77796753 1.68481445 167.1574707 C-1 169 -1 169 -4.14770508 168.84838867 C-6.10855552 168.26515189 -8.05922962 167.64692346 -10 167 C-8.55461354 163.62524516 -6.75043156 161.60231131 -4.05078125 159.13671875 C-3.28572266 158.41419922 -2.52066406 157.69167969 -1.73242188 156.94726562 C-0.11868092 155.44032593 1.50641749 153.94545782 3.14257812 152.46289062 C7.81335486 148.23824339 7.81335486 148.23824339 9.18359375 142.36328125 C8.00714347 139.02029876 6.78738641 135.75085588 5.375 132.5 C3.39650804 127.47635085 2.26774161 124.29867273 4 119 C4.21132568 118.30430908 4.42265137 117.60861816 4.64038086 116.8918457 C6.35716392 112.14717993 7.95460142 109.55100116 12.4765625 107.15234375 C14.17933896 106.38372938 15.8962523 105.64577051 17.625 104.9375 C18.49640625 104.54884766 19.3678125 104.16019531 20.265625 103.75976562 C26.55419147 101 26.55419147 101 29 101 C29 89.78 29 78.56 29 67 C26.03 66.01 26.03 66.01 23 65 C7.91307038 59.52400332 7.91307038 59.52400332 4.5 52.5625 C1.50226073 43.58146813 4.42641586 37.38381977 8.0390625 29.05078125 C9.11220401 25.64377508 9.05734401 24.36049161 8 21 C6.24460867 18.72844787 6.24460867 18.72844787 3.96484375 16.64453125 C3.15595703 15.85755859 2.34707031 15.07058594 1.51367188 14.25976562 C0.66353516 13.45216797 -0.18660156 12.64457031 -1.0625 11.8125 C-2.74514071 10.19843483 -4.42375982 8.58016306 -6.09765625 6.95703125 C-6.84539307 6.24522705 -7.59312988 5.53342285 -8.36352539 4.80004883 C-10 3 -10 3 -10 1 C-6.17259673 -0.85902444 -4.06662688 -1.30411487 0 0 Z " fill="#F5B82A" transform="translate(180,27)"/>
<path d="M0 0 C3.50509251 0.56263958 4.95268008 1.65185182 7.1875 4.375 C7.95126953 5.28378906 7.95126953 5.28378906 8.73046875 6.2109375 C11.34695527 9.89817081 11.14206834 13.36970075 11.17700195 17.74707031 C11.18357315 18.42876785 11.19014435 19.11046539 11.19691467 19.81282043 C11.2166175 22.06792314 11.22830439 24.32295929 11.23828125 26.578125 C11.24235678 27.34994865 11.2464323 28.12177231 11.25063133 28.91698456 C11.27148071 33.00341015 11.28578646 37.08980228 11.29516602 41.17626953 C11.30621923 45.38734053 11.34060928 49.59788149 11.38033772 53.80876541 C11.40654271 57.05510407 11.41486133 60.30131726 11.41844749 63.54775238 C11.42330462 65.09942956 11.43489369 66.65110147 11.45348549 68.20267487 C11.62271879 83.26394236 11.62271879 83.26394236 7 89 C2.31544338 93.44432295 -2.052847 95.24458798 -8.48274231 95.26742554 C-10.11647041 95.28022049 -10.11647041 95.28022049 -11.78320312 95.29327393 C-13.56078003 95.29191437 -13.56078003 95.29191437 -15.37426758 95.29052734 C-16.63011154 95.29724457 -17.88595551 95.30396179 -19.17985535 95.31088257 C-22.61802287 95.32851813 -26.05609079 95.33323695 -29.49429917 95.33451414 C-31.64505623 95.33593785 -33.79578813 95.34021163 -35.94653893 95.34550858 C-43.45762102 95.36400176 -50.96863222 95.37218021 -58.47973633 95.37060547 C-65.46837266 95.36940471 -72.45669983 95.39049578 -79.44525796 95.4220928 C-85.45563985 95.44829359 -91.46592102 95.45897116 -97.47635955 95.45769465 C-101.0615223 95.45718607 -104.64641028 95.46281106 -108.23151588 95.48405075 C-112.23373979 95.507115 -116.23527656 95.49788915 -120.23754883 95.48583984 C-122.00601669 95.50269836 -122.00601669 95.50269836 -123.81021118 95.51989746 C-130.64054753 95.46769362 -135.25923247 94.82960039 -141 91 C-142.20795918 88.86127281 -142.20795918 88.86127281 -143 87 C-142.32008436 86.99853344 -141.64016872 86.99706688 -140.93964958 86.99555588 C-124.38887426 86.95848961 -107.83833708 86.89947746 -91.28773308 86.81609726 C-83.28394107 86.77630315 -75.28024743 86.74391259 -67.27636719 86.72900391 C-60.29943669 86.71598926 -53.32272262 86.68902958 -46.34591401 86.64538693 C-42.65235818 86.62276764 -38.95906932 86.60708958 -35.26543808 86.60811615 C-31.14003157 86.60900126 -27.01541255 86.57875086 -22.89013672 86.54589844 C-21.66806015 86.5509288 -20.44598358 86.55595917 -19.18687439 86.56114197 C-12.83904872 86.48280105 -8.78384944 86.34847738 -4 82 C0.3879469 77.13768046 1.12512726 73.8627815 1.12939453 67.40478516 C1.13114685 66.73938217 1.13289917 66.07397919 1.13470459 65.38841248 C1.13910582 63.18860262 1.13619052 60.98887318 1.1328125 58.7890625 C1.1334862 57.25833114 1.13445677 55.72759989 1.13571167 54.1968689 C1.13718643 50.98735537 1.13504177 47.77786967 1.13037109 44.56835938 C1.12468356 40.46043994 1.12794801 36.35258598 1.13394356 32.24466896 C1.13756335 29.08248403 1.13640389 25.92031452 1.13381577 22.75812912 C1.13314992 21.24391039 1.13396293 19.72969025 1.13629532 18.21547318 C1.13884404 16.09494592 1.1349496 13.9745234 1.12939453 11.85400391 C1.12859894 10.64837799 1.12780334 9.44275208 1.12698364 8.20059204 C1.01350529 5.34039761 0.65976408 2.77850768 0 0 Z " fill="#FFD165" transform="translate(324,229)"/>
<path d="M0 0 C4.05403182 0.92137087 5.69653132 1.61451276 8.3125 4.9375 C10.75416744 9.36867424 11.13519667 12.45651925 11.17700195 17.45581055 C11.18357315 18.10664108 11.19014435 18.75747162 11.19691467 19.42802429 C11.21661548 21.58092371 11.22830509 23.73375335 11.23828125 25.88671875 C11.24235678 26.62419657 11.2464323 27.36167439 11.25063133 28.12150002 C11.27148175 32.02753035 11.28578598 35.93352569 11.29516602 39.83959961 C11.30620805 43.86001357 11.34058466 47.87987064 11.38033772 51.90008831 C11.40657821 55.00320919 11.41486455 58.1061991 11.41844749 61.20942116 C11.42329697 62.69049641 11.43486397 64.17156646 11.45348549 65.65253258 C11.64371902 81.7891479 11.64371902 81.7891479 5.65864563 88.50517273 C-1.14106342 94.83658323 -9.42482023 94.29374356 -18.12646484 94.2746582 C-19.33222672 94.27976913 -20.53798859 94.28488007 -21.7802887 94.29014587 C-25.07174323 94.3016288 -28.36304082 94.30412108 -31.65451002 94.30158257 C-34.41025125 94.30050875 -37.16596955 94.30540677 -39.92170584 94.310188 C-46.42763923 94.32126314 -52.93351488 94.321732 -59.43945312 94.31567383 C-66.13268489 94.3096367 -72.8257063 94.32194287 -79.51890218 94.3432439 C-85.28220717 94.36090554 -91.04544547 94.36685404 -96.8087765 94.36360615 C-100.24354124 94.36180022 -103.67815594 94.36435987 -107.11289597 94.37832069 C-110.94700967 94.39069065 -114.78063982 94.38388927 -118.61474609 94.37231445 C-119.74023361 94.37995819 -120.86572113 94.38760193 -122.02531433 94.39547729 C-128.88430342 94.34983218 -136.2671575 94.1646011 -141.74458885 89.5209856 C-143 88 -143 88 -143 86 C-142.33646735 85.99761165 -141.6729347 85.99522329 -140.98929501 85.99276257 C-124.83041893 85.93357937 -108.67171058 85.85800814 -92.51299953 85.76428509 C-84.69870288 85.71935452 -76.88445152 85.67993358 -69.07006836 85.65356445 C-62.25759423 85.63056214 -55.44526377 85.59713927 -48.63290364 85.55129844 C-45.02710766 85.52739618 -41.42145371 85.50864785 -37.81558037 85.50238609 C-33.78627187 85.49519351 -29.7574565 85.46473277 -25.72827148 85.43237305 C-24.53784241 85.43380814 -23.34741333 85.43524323 -22.12091064 85.4367218 C-14.86433685 85.35426864 -9.55943451 84.86732224 -3.75 80.1875 C0.10826293 75.36467134 1.37536829 71.27865738 1.35644531 65.14013672 C1.35951187 64.15359604 1.35951187 64.15359604 1.36264038 63.14712524 C1.36562842 60.99102206 1.34723376 58.83569874 1.328125 56.6796875 C1.32506405 55.17327056 1.32319048 53.66685078 1.32244873 52.16043091 C1.31785829 49.01162796 1.30347944 45.86308256 1.28125 42.71435547 C1.25292005 38.68151622 1.24203196 34.64887895 1.2375679 30.61594963 C1.23340893 27.5086974 1.22358823 24.40148578 1.21169281 21.2942543 C1.20600356 19.80712328 1.20124045 18.31998842 1.19742584 16.83285141 C1.19054014 14.75552286 1.17689811 12.67835204 1.16113281 10.60107422 C1.15430481 9.4200412 1.14747681 8.23900818 1.14044189 7.02218628 C1.02289259 4.49262837 0.74252875 2.40588751 0 0 Z " fill="#0CE397" transform="translate(395,66)"/>
<path d="M0 0 C3.48170548 0.29014212 4.74228955 0.72756324 7.1875 3.3125 C10.42489327 8.11277278 11.25267478 10.98707085 11.2746582 16.87646484 C11.27976913 17.5599147 11.28488007 18.24336456 11.29014587 18.94752502 C11.30402145 21.20208548 11.30308647 23.45633947 11.30078125 25.7109375 C11.30466974 27.28268548 11.30900473 28.85443241 11.31376648 30.42617798 C11.32122463 33.71970018 11.3209407 37.01311518 11.31567383 40.30664062 C11.30988436 44.51883449 11.32679922 48.73058789 11.3500185 52.94270897 C11.36478122 56.18902129 11.36562402 59.4352282 11.36250877 62.68156815 C11.36302087 64.23404435 11.36823753 65.78652664 11.37832069 67.33897018 C11.39071538 69.51451608 11.38387584 71.68921287 11.37231445 73.86474609 C11.37294388 75.10066498 11.3735733 76.33658386 11.3742218 77.60995483 C10.77896366 83.00235045 8.69277874 86.90126993 4.5 90.3125 C3.9121875 90.80363281 3.324375 91.29476562 2.71875 91.80078125 C-0.56936688 94.09499007 -3.51524601 94.131732 -7.39408875 94.15390015 C-8.5141481 94.16250061 -9.63420746 94.17110107 -10.78820801 94.17996216 C-12.01785278 94.18422211 -13.24749756 94.18848206 -14.5144043 94.19287109 C-15.80897049 94.20104858 -17.10353668 94.20922607 -18.43733215 94.21765137 C-22.7329399 94.24384701 -27.02855727 94.2591783 -31.32421875 94.2734375 C-32.80465005 94.27879852 -34.28508129 94.28417604 -35.76551247 94.28956985 C-41.92572911 94.31119655 -48.08594317 94.32993152 -54.24618816 94.34119225 C-63.06496936 94.35742028 -71.8833092 94.39057206 -80.70192403 94.44759309 C-86.90757836 94.48634573 -93.11311492 94.5058313 -99.31888705 94.51111281 C-103.02265938 94.51475955 -106.72596072 94.52670721 -110.42960167 94.55921555 C-114.56620717 94.59500363 -118.70186928 94.59091189 -122.83862305 94.58349609 C-124.05814667 94.59990143 -125.27767029 94.61630676 -126.53414917 94.63320923 C-132.92850773 94.58630983 -137.36946396 93.99832442 -142.71270466 90.36620522 C-144 89 -144 89 -144 86 C-143.33131362 86.00276538 -142.66262724 86.00553076 -141.97367764 86.00837994 C-125.6897547 86.07468409 -109.40587462 86.12430211 -93.12184811 86.15543652 C-85.24695418 86.17089376 -77.37215047 86.19196136 -69.49731445 86.22631836 C-62.63218787 86.25625579 -55.76712664 86.27558331 -48.90193659 86.28226548 C-45.26813418 86.28617041 -41.63451869 86.2953235 -38.00077629 86.31719017 C-33.9404566 86.34142479 -29.88046018 86.34196721 -25.82006836 86.34057617 C-24.62028854 86.351362 -23.42050873 86.36214783 -22.18437195 86.3732605 C-14.43035171 86.34450055 -9.32266942 85.73197264 -3.1875 80.6875 C0.69371389 75.91915151 1.25030538 71.26930369 1.24291992 65.24780273 C1.24576744 64.27830185 1.24576744 64.27830185 1.24867249 63.28921509 C1.25235196 61.1705479 1.24171697 59.05223003 1.23046875 56.93359375 C1.22927523 55.45199117 1.22882415 53.97038783 1.2290802 52.48878479 C1.22752023 49.39131905 1.2192675 46.29396968 1.20581055 43.1965332 C1.18880664 39.23330025 1.18499697 35.27019476 1.18575573 31.30692959 C1.18548338 28.25025728 1.17999196 25.19361263 1.17275429 22.13694954 C1.16958069 20.67576367 1.16760328 19.21457467 1.16686058 17.75338554 C1.16468391 15.70980401 1.15591167 13.6663555 1.14526367 11.62280273 C1.14145187 10.46175522 1.13764008 9.3007077 1.13371277 8.10447693 C1.01226774 5.28482629 0.64519079 2.74161467 0 0 Z " fill="#FD4956" transform="translate(255,394)"/>
<path d="M0 0 C5.04423929 1.06705062 7.64826143 4.13338772 11.25 7.6875 C12.29687613 8.66415677 13.34514472 9.63932232 14.39453125 10.61328125 C15.49362704 11.65734083 16.59128415 12.70291701 17.6875 13.75 C18.48631592 14.4910498 18.48631592 14.4910498 19.30126953 15.24707031 C21.73481108 17.62937111 23.18804989 19.50445495 24.28515625 22.74609375 C24.20130044 29.76202986 17.60315941 34.80635113 13 39.5 C11.89205078 40.68239258 11.89205078 40.68239258 10.76171875 41.88867188 C5.20683709 47.54642171 5.20683709 47.54642171 0.35546875 48.26171875 C-4.68590627 47.32953997 -4.68590627 47.32953997 -6.75 44.6875 C-7.36751891 39.12982981 -7.20066544 37.07504427 -3.75 32.6875 C-5.06194336 32.6781543 -6.37388672 32.66880859 -7.72558594 32.65917969 C-12.59376971 32.61930339 -17.46131995 32.55355087 -22.32910156 32.47998047 C-24.4357896 32.45175721 -26.5425838 32.43054944 -28.64941406 32.41650391 C-31.6782878 32.39509339 -34.70588331 32.3484524 -37.734375 32.296875 C-38.67617615 32.29564636 -39.61797729 32.29441772 -40.58831787 32.29315186 C-47.09500343 32.14745425 -47.09500343 32.14745425 -50.34082031 29.86816406 C-52.44283141 26.6153638 -52.35745102 24.46719525 -51.75 20.6875 C-48.85640864 17.39549159 -46.48201819 16.43028893 -42.23510742 16.14160156 C-40.44224035 16.10051815 -38.64880485 16.08053366 -36.85546875 16.078125 C-35.43443596 16.05332062 -35.43443596 16.05332062 -33.98469543 16.02801514 C-30.9688975 15.97956109 -27.95360374 15.95816977 -24.9375 15.9375 C-22.88864655 15.90933818 -20.83981655 15.87941045 -18.79101562 15.84765625 C-13.77738526 15.77380263 -8.76403435 15.72421199 -3.75 15.6875 C-4.23597656 15.0996875 -4.72195313 14.511875 -5.22265625 13.90625 C-7.42905788 10.70104252 -7.22534827 8.49028615 -6.75 4.6875 C-4.74773871 1.68410807 -3.49146627 0.87286657 0 0 Z " fill="#9FACBA" transform="translate(330.75,415.3125)"/>
<path d="M0 0 C17.84518824 -0.97633249 33.71047578 4.05689347 47.25 16.0625 C59.92940494 27.96844262 67.04183037 43.68273451 68.203125 61.03515625 C68.5087836 80.77560747 62.03870501 97.01457929 48.72265625 111.47265625 C37.30156827 122.5516817 22.68230221 129.10147245 6.75 129.1875 C4.83289683 129.14024746 2.91586959 129.08343303 1 129 C1 128.67 1 128.34 1 128 C1.99257813 127.79246094 2.98515625 127.58492188 4.0078125 127.37109375 C21.68958456 123.4591003 36.62579609 115.96338536 46.9375 100.5625 C56.0778053 84.89022042 59.9880701 67.34677526 55.68359375 49.38671875 C50.86587594 32.56600114 41.97692987 19.25846574 27 10 C26.25234375 9.5359375 25.5046875 9.071875 24.734375 8.59375 C17.04222676 4.3028918 8.54198815 2.77380032 0 1 C0 0.67 0 0.34 0 0 Z " fill="#63B8FE" transform="translate(431,375)"/>
<path d="M0 0 C0.84096725 -0.00846954 1.68193451 -0.01693909 2.54838562 -0.02566528 C5.33270326 -0.04909368 8.11647008 -0.05005597 10.90087891 -0.04882812 C12.83517682 -0.05592689 14.76947262 -0.06362546 16.70376587 -0.07189941 C20.76074066 -0.08535815 24.81752083 -0.08690706 28.87451172 -0.08105469 C34.07239533 -0.07516151 39.26934395 -0.10572783 44.46704674 -0.14617157 C48.46309435 -0.17202973 52.45891641 -0.17492761 56.45503616 -0.17127991 C58.37119519 -0.17297336 60.2873644 -0.18263746 62.20344162 -0.20042419 C64.88496027 -0.22257386 67.56458129 -0.21293268 70.24609375 -0.1953125 C71.03691849 -0.20857574 71.82774323 -0.22183899 72.64253235 -0.23550415 C76.67593866 -0.17395835 78.55212742 0.26490078 81.78018188 2.76306152 C83.75244141 5.41992188 83.75244141 5.41992188 83.81494141 8.54492188 C82.55728755 11.94798524 81.90446595 12.68782069 78.75244141 14.41992188 C75.92281402 14.72055532 73.31283334 14.85044917 70.4831543 14.83984375 C69.65179459 14.84831329 68.82043488 14.85678284 67.96388245 14.86550903 C65.21746497 14.88889586 62.47160715 14.88990082 59.72509766 14.88867188 C57.81464921 14.89577235 55.90420289 14.90347118 53.99375916 14.91174316 C49.98983838 14.92519177 45.98611479 14.92675499 41.98217773 14.92089844 C36.85269957 14.91500143 31.7241676 14.94559209 26.59487247 14.98601532 C22.64943855 15.01187198 18.70423309 15.01477159 14.75872612 15.01112366 C12.86768655 15.01281676 10.97663665 15.02247754 9.08568001 15.04026794 C6.44018451 15.0624184 3.79661228 15.05277675 1.15112305 15.03515625 C0.37122009 15.04841949 -0.40868286 15.06168274 -1.21221924 15.0753479 C-5.22202593 15.01332981 -7.06435451 14.56183409 -10.2724762 12.07678223 C-12.24755859 9.41992188 -12.24755859 9.41992188 -12.24755859 6.29492188 C-9.98967356 -0.19649761 -6.34812425 -0.02340478 0 0 Z " fill="#FFFEFD" transform="translate(220.24755859375,280.580078125)"/>
<path d="M0 0 C1.24703957 -0.01292336 1.24703957 -0.01292336 2.51927185 -0.02610779 C5.2658507 -0.04879972 8.01141182 -0.04202288 10.75805664 -0.03295898 C12.6685059 -0.03819341 14.57895256 -0.04446922 16.48939514 -0.05174255 C20.49337931 -0.06215291 24.49700824 -0.05757657 28.50097656 -0.04296875 C33.63049356 -0.02578597 38.75888991 -0.04926651 43.88828182 -0.08445835 C47.83373936 -0.10642695 51.77892858 -0.10499208 55.72442818 -0.09669304 C57.61545604 -0.09587311 59.50650353 -0.10274451 61.39747429 -0.11746407 C64.04302545 -0.13489895 66.68656094 -0.12037726 69.33203125 -0.09765625 C70.50188568 -0.11519455 70.50188568 -0.11519455 71.69537354 -0.13308716 C75.72009143 -0.06281266 77.53121582 0.37468512 80.72047424 2.91273499 C82.73071289 5.53344727 82.73071289 5.53344727 83.29321289 8.09594727 C82.52107328 11.4418856 81.47961334 12.46332876 78.73071289 14.53344727 C75.77703975 14.92285625 73.19810118 15.07066378 70.24609375 15.03515625 C69.39201431 15.04055923 68.53793488 15.04596222 67.65797424 15.05152893 C64.83681515 15.06402944 62.01667385 15.04751798 59.19555664 15.02954102 C57.23547817 15.02969596 55.2753994 15.03118416 53.31532288 15.03395081 C49.20877529 15.03533534 45.10257674 15.02276638 40.99609375 15 C35.72761177 14.97159656 30.45970901 14.97435707 25.19118404 14.98709011 C21.14460791 14.99403832 17.09816612 14.98626814 13.05160713 14.97383308 C11.1087044 14.96931155 9.16578728 14.96898789 7.22288322 14.97289848 C4.51026612 14.97580277 1.7984531 14.95934217 -0.9140625 14.9375 C-2.12275497 14.94425247 -2.12275497 14.94425247 -3.35586548 14.95114136 C-8.74337864 14.87891323 -8.74337864 14.87891323 -11.2641449 13.22303772 C-13.01289401 10.28348372 -12.676195 7.84684007 -12.26928711 4.53344727 C-9.03081938 -0.16034028 -5.28198969 -0.04408291 0 0 Z " fill="#FEFBFB" transform="translate(151.269287109375,444.466552734375)"/>
<path d="M0 0 C0.80939026 0.00090637 1.61878052 0.00181274 2.45269775 0.00274658 C3.30487885 -0.00397064 4.15705994 -0.01068787 5.0350647 -0.01760864 C7.86199723 -0.03666062 10.68869324 -0.04051654 13.51568604 -0.04266357 C15.47622782 -0.04908685 17.43676862 -0.05581484 19.39730835 -0.06283569 C23.51149722 -0.07482672 27.62560201 -0.07851468 31.73980713 -0.07733154 C37.0150174 -0.07712833 42.28968906 -0.10442482 47.56477165 -0.13887596 C51.61565635 -0.16110111 55.66641057 -0.16517042 59.71735001 -0.16411209 C61.66224142 -0.16647489 63.60713606 -0.17533642 65.55196762 -0.19077682 C68.27186646 -0.21034691 70.99059302 -0.20463424 73.71051025 -0.19256592 C74.51585205 -0.20380493 75.32119385 -0.21504395 76.15093994 -0.22662354 C79.71754903 -0.18635701 81.79805072 -0.01160155 84.7071228 2.13613892 C86.21099854 4.29327393 86.21099854 4.29327393 86.77349854 7.29327393 C86.21099854 10.29327393 86.21099854 10.29327393 84.19403076 12.44743347 C80.40246391 14.79357892 77.24437008 14.86341965 72.91998291 14.82672119 C72.09823074 14.83533676 71.27647858 14.84395233 70.42982483 14.85282898 C67.7211431 14.87547965 65.01349664 14.86875244 62.30474854 14.85968018 C60.41814873 14.86491589 58.53155155 14.87119218 56.6449585 14.87846375 C52.69402738 14.88886606 48.74345648 14.88430849 44.7925415 14.86968994 C39.73142928 14.85249569 34.67145164 14.87600601 29.610466 14.91117954 C25.71562183 14.93314685 21.82104948 14.93171381 17.92616272 14.92341423 C16.06025447 14.92259447 14.1943263 14.92946258 12.32847595 14.94418526 C9.71894695 14.96162079 7.11146121 14.94709887 4.50201416 14.92437744 C3.73303299 14.93606964 2.96405182 14.94776184 2.17176819 14.95980835 C-1.78757789 14.8897218 -3.62909771 14.41544542 -6.81109619 11.98429871 C-8.78900146 9.29327393 -8.78900146 9.29327393 -8.72650146 5.60577393 C-7.17811013 0.13479121 -5.36969214 0.0621134 0 0 Z " fill="#FBFEFD" transform="translate(287.78900146484375,116.70672607421875)"/>
<path d="M0 0 C3.25260192 0.63637864 4.73436276 1.01020176 6.875 3.5625 C7.5625 6.75 7.5625 6.75 6.875 10.5625 C3.59117539 15.61224842 -1.03648086 19.44061724 -5.6015625 23.29296875 C-9.91983149 27.17673699 -13.95347524 31.35315902 -18.02148438 35.49633789 C-18.65119141 36.13434326 -19.28089844 36.77234863 -19.9296875 37.4296875 C-20.49671387 38.00831543 -21.06374023 38.58694336 -21.64794922 39.18310547 C-23.82367963 41.21498594 -25.21763417 41.57949277 -28.19140625 42.125 C-34.15019705 41.27289883 -36.97814055 37.76935523 -41.0625 33.5625 C-41.84173828 32.81871094 -42.62097656 32.07492187 -43.42382812 31.30859375 C-49.62109495 25.06244402 -49.62109495 25.06244402 -49.7265625 20.12890625 C-49.125 16.5625 -49.125 16.5625 -47.5625 14.5 C-44.95278441 13.49626323 -42.91529811 13.13607121 -40.140625 13.63671875 C-35.61887716 15.71356805 -32.38515713 19.90313995 -29.125 23.5625 C-25.87292908 22.14511511 -23.81138933 20.43723588 -21.375 17.875 C-18.0589262 14.46647062 -14.62266457 11.31613103 -11 8.23828125 C-9.19579324 6.62577146 -7.61643411 4.92244105 -6 3.125 C-3.125 0.5625 -3.125 0.5625 0 0 Z " fill="#FCFDFE" transform="translate(455.125,418.4375)"/>
<path d="M0 0 C1.10472153 -0.01260864 2.20944305 -0.02521729 3.34764099 -0.03820801 C4.53624222 -0.03011108 5.72484344 -0.02201416 6.94946289 -0.01367188 C8.17492325 -0.01749878 9.40038361 -0.02132568 10.66297913 -0.02526855 C13.25449444 -0.02799049 15.84603709 -0.02060982 18.4375 -0.00390625 C22.40370025 0.01747881 26.36808507 -0.00369138 30.33422852 -0.02929688 C32.85181064 -0.02665329 35.36939163 -0.02152769 37.88696289 -0.01367188 C39.07353989 -0.0217688 40.26011688 -0.02986572 41.48265076 -0.03820801 C49.64516458 0.05468906 49.64516458 0.05468906 53.76806641 2.328125 C55.48461914 4.51757812 55.48461914 4.51757812 55.54711914 8.08007812 C54.36872141 11.89254138 53.83967806 12.58869327 50.48461914 14.51757812 C47.90454102 14.90525818 47.90454102 14.90525818 44.95336914 14.92163086 C43.29144531 14.94065712 43.29144531 14.94065712 41.59594727 14.96006775 C40.40420898 14.95713211 39.2124707 14.95419647 37.98461914 14.95117188 C36.75678711 14.95641373 35.52895508 14.96165558 34.26391602 14.96705627 C31.66822058 14.97347912 29.07249606 14.97213614 26.47680664 14.96362305 C22.49971873 14.95511044 18.52406522 14.98387834 14.54711914 15.015625 C12.02628624 15.01723696 9.50545079 15.01665957 6.98461914 15.01367188 C5.19701172 15.03052284 5.19701172 15.03052284 3.37329102 15.04771423 C2.2653418 15.03833328 1.15739258 15.02895233 0.01586914 15.01928711 C-0.95801758 15.01912094 -1.9319043 15.01895477 -2.93530273 15.01878357 C-6.26215303 14.37251032 -7.45180212 13.1572978 -9.51538086 10.51757812 C-10.01538086 7.51757812 -10.01538086 7.51757812 -9.51538086 4.51757812 C-6.59466339 0.78532564 -4.68286704 0.01534976 0 0 Z " fill="#FEFDFD" transform="translate(178.515380859375,419.482421875)"/>
<path d="M0 0 C1.13119766 -0.00938095 2.26239532 -0.0187619 3.4278717 -0.02842712 C5.25299538 -0.01157616 5.25299538 -0.01157616 7.11499023 0.00561523 C8.36738998 0.00416 9.61978973 0.00270477 10.91014099 0.00120544 C13.55767706 0.00286561 16.20377663 0.01235491 18.85107422 0.03515625 C22.24309603 0.06357077 25.63421841 0.06079445 29.02630711 0.04806614 C32.26425954 0.0394386 35.50206601 0.05455272 38.73999023 0.06811523 C39.95876358 0.0651796 41.17753693 0.06224396 42.4332428 0.05921936 C43.5612883 0.07190353 44.6893338 0.08458771 45.8515625 0.09765625 C46.84543472 0.10305923 47.83930695 0.10846222 48.86329651 0.11402893 C51.7474384 0.56167481 52.64400914 1.1849328 54.36108398 3.50170898 C54.79467773 5.43920898 54.79467773 5.43920898 54.79858398 7.50170898 C54.81791992 8.18233398 54.83725586 8.86295898 54.85717773 9.56420898 C54.1382486 12.3719952 52.80475698 13.01498709 50.36108398 14.50170898 C47.82569885 14.88938904 47.82569885 14.88938904 44.9375 14.90576172 C43.31044884 14.92478798 43.31044884 14.92478798 41.65052795 14.94419861 C40.48380051 14.94126297 39.31707306 14.93832733 38.11499023 14.93530273 C36.91172592 14.94054459 35.70846161 14.94578644 34.46873474 14.95118713 C31.92431408 14.95761007 29.37986374 14.95626688 26.83544922 14.94775391 C22.94176344 14.93924869 19.04954651 14.96799698 15.15600586 14.99975586 C12.68400109 15.00136805 10.21199372 15.00079001 7.73999023 14.99780273 C5.99293541 15.0146537 5.99293541 15.0146537 4.21058655 15.03184509 C-3.82941147 14.96251327 -3.82941147 14.96251327 -7.87744141 12.65820312 C-9.63891602 10.50170898 -9.63891602 10.50170898 -10.20141602 7.50170898 C-9.09386131 1.59475057 -5.68062201 0.000949 0 0 Z " fill="#FFFEFC" transform="translate(248.638916015625,255.498291015625)"/>
<path d="M0 0 C1.62705116 -0.01891296 1.62705116 -0.01891296 3.28697205 -0.03820801 C5.03706322 -0.02606262 5.03706322 -0.02606262 6.82250977 -0.01367188 C8.02577408 -0.01749878 9.22903839 -0.02132568 10.46876526 -0.02526855 C13.01320227 -0.02799033 15.55766714 -0.02061074 18.10205078 -0.00390625 C21.99583427 0.01747882 25.8877685 -0.0036916 29.78149414 -0.02929688 C32.25350342 -0.02665328 34.72551155 -0.02152766 37.19750977 -0.01367188 C38.36221298 -0.0217688 39.5269162 -0.02986572 40.72691345 -0.03820801 C48.76368057 0.05494128 48.76368057 0.05494128 52.81884766 2.36328125 C54.57641602 4.51757813 54.57641602 4.51757813 55.07641602 7.51757812 C54.51932292 10.86013669 53.9372854 12.12553111 51.57641602 14.51757812 C49.03393555 15.01878357 49.03393555 15.01878357 45.95922852 15.01928711 C44.80793457 15.02866806 43.65664063 15.03804901 42.47045898 15.04771423 C41.2266748 15.03648026 39.98289062 15.02524628 38.70141602 15.01367188 C37.42540527 15.01512711 36.14939453 15.01658234 34.8347168 15.01808167 C32.13413912 15.01642002 29.43496424 15.00690697 26.73461914 14.98413086 C23.2741926 14.95574502 19.81464834 14.95848268 16.35415649 14.97122097 C13.05318608 14.97984999 9.75235877 14.96473215 6.45141602 14.95117188 C4.58573975 14.95557533 4.58573975 14.95557533 2.68237305 14.96006775 C1.5310791 14.94738358 0.37978516 14.9346994 -0.80639648 14.92163086 C-1.8210498 14.91622787 -2.83570313 14.91082489 -3.88110352 14.90525818 C-6.42358398 14.51757812 -6.42358398 14.51757812 -8.24731445 13.20716858 C-10.25181483 10.32790952 -9.8385454 7.89654966 -9.42358398 4.51757812 C-6.55767622 0.79966053 -4.6336098 0.0154714 0 0 Z " fill="#FAFEFD" transform="translate(319.423583984375,90.482421875)"/>
<path d="M0 0 C0.33 0 0.66 0 1 0 C1 22.44 1 44.88 1 68 C0.67 68 0.34 68 0 68 C0 59.09 0 50.18 0 41 C-8.91 41 -17.82 41 -27 41 C-27 36.38 -27 31.76 -27 27 C-18.09 27 -9.18 27 0 27 C0 18.09 0 9.18 0 0 Z " fill="#A0B3B3" transform="translate(247,77)"/>
<path d="M0 0 C0 0.66 0 1.32 0 2 C-1.14275391 2.19335938 -1.14275391 2.19335938 -2.30859375 2.390625 C-7.16746373 3.72514609 -10.63166294 4.91863833 -13.43554688 9.18359375 C-16.10390043 14.33222308 -18.24497919 19.69296242 -20.25073242 25.12988281 C-21 27 -21 27 -22 28 C-23.85287502 28.07226502 -25.70833878 28.0838122 -27.5625 28.0625 C-28.57441406 28.05347656 -29.58632812 28.04445312 -30.62890625 28.03515625 C-31.41136719 28.02355469 -32.19382812 28.01195312 -33 28 C-31.73598408 20.00509928 -28.70488784 9.62298978 -22.06982422 4.51367188 C-14.90399692 0.43201665 -8.13544411 -1.77461724 0 0 Z " fill="#F5B929" transform="translate(156,187)"/>
<path d="M0 0 C3.63 0 7.26 0 11 0 C19 16 19 16 19.9453125 18.15039062 C21.60767183 21.06567634 24.06312544 21.57736719 27.125 22.75 C28.22070312 23.17796875 29.31640625 23.6059375 30.4453125 24.046875 C31.28835937 24.36140625 32.13140625 24.6759375 33 25 C33 25.66 33 26.32 33 27 C24.59168992 28.5373053 18.16040095 27.13913401 10.86767578 22.59423828 C5.11062585 17.68005057 2.17924913 9.08348937 0 2 C0 1.34 0 0.68 0 0 Z " fill="#F5B829" transform="translate(123,8)"/>
<path d="M0 0 C3.125 1.625 3.125 1.625 5 4 C5.5625 7 5.5625 7 5 10 C2.75973948 12.97265338 1.58215552 13.90115712 -2.12890625 14.53125 C-3.26199219 14.5209375 -4.39507812 14.510625 -5.5625 14.5 C-6.69816406 14.5103125 -7.83382813 14.520625 -9.00390625 14.53125 C-12 14 -12 14 -13.87109375 12.15625 C-15.43751234 9.1643363 -15.55465709 7.32794255 -15 4 C-11.0659787 -0.98309364 -5.8756538 -0.9439575 0 0 Z " fill="#F9FEFC" transform="translate(294,91)"/>
<path d="M0 0 C3.25 2.125 3.25 2.125 5 5 C5.0625 8.125 5.0625 8.125 4 11 C0.93243178 13.94931729 -1.30085269 14.40960836 -5.5 14.375 C-6.90765625 14.38660156 -6.90765625 14.38660156 -8.34375 14.3984375 C-11.44064781 13.93390283 -12.81772014 13.2327956 -15 11 C-15.53125 9.0625 -15.53125 9.0625 -15.5 7 C-15.5103125 6.319375 -15.520625 5.63875 -15.53125 4.9375 C-15 3 -15 3 -13.30859375 1.28125 C-9.09667575 -1.05632885 -4.66429154 -0.73030266 0 0 Z " fill="#FEFAFB" transform="translate(154,420)"/>
<path d="M0 0 C1.71703125 -0.01160156 1.71703125 -0.01160156 3.46875 -0.0234375 C6.5 0.375 6.5 0.375 8.37890625 1.68359375 C10.30119747 4.58377527 9.91230692 7.01764369 9.5 10.375 C8.1875 12.8125 8.1875 12.8125 5.5 14.375 C0.84383763 14.99676372 -3.61295015 15.41558229 -7.81640625 13.09765625 C-9.5 11.375 -9.5 11.375 -9.99609375 9.4375 C-9.97675781 8.756875 -9.95742187 8.07625 -9.9375 7.375 C-9.93621094 6.694375 -9.93492187 6.01375 -9.93359375 5.3125 C-8.71953069 -0.11250249 -4.92037069 -0.03324575 0 0 Z " fill="#FFFEFA" transform="translate(218.5,255.625)"/>
<path d="M0 0 C0.66 0.33 1.32 0.66 2 1 C-4.6 7.6 -11.2 14.2 -18 21 C-18 15.4848483 -12.6982596 11.77044785 -9 8 C-6.06452633 5.25405391 -3.06806982 2.59661701 0 0 Z " fill="#B5B9AA" transform="translate(49,285)"/>
<path d="M0 0 C7.65606218 -0.19355213 14.66258031 -0.3479743 22 2 C14.44199933 4.08094732 7.48396503 2.71763132 0 1 C0 0.67 0 0.34 0 0 Z " fill="#70BEFE" transform="translate(431,375)"/>
</svg>
