<?xml version="1.0" encoding="UTF-8"?>
<svg version="1.1" xmlns="http://www.w3.org/2000/svg" width="512" height="512">
<path d="M0 0 C5.94 0 11.88 0 18 0 C18.66 1.65 19.32 3.3 20 5 C22.26224235 6.74727292 22.26224235 6.74727292 25.07421875 8.09375 C26.64743896 8.91709839 26.64743896 8.91709839 28.25244141 9.75708008 C29.38601074 10.33224365 30.51958008 10.90740723 31.6875 11.5 C33.46195321 12.42651158 35.23638873 13.35306209 37.00909424 14.28291321 C38.21943438 14.91748239 39.43066696 15.55035216 40.64276123 16.18156433 C46.54485639 19.2607181 52.34278582 22.51411539 58.125 25.8125 C59.99472112 26.87902993 61.86451094 27.94543945 63.734375 29.01171875 C64.61673828 29.51493652 65.49910156 30.0181543 66.40820312 30.53662109 C68.911227 31.94987704 71.42784989 33.33400193 73.953125 34.70703125 C74.70577637 35.11912842 75.45842773 35.53122559 76.23388672 35.95581055 C77.61680465 36.7109752 79.00362084 37.45906403 80.39501953 38.19848633 C84.88834823 40.66504469 84.88834823 40.66504469 86 44 C85.39341553 44.32572998 84.78683105 44.65145996 84.16186523 44.98706055 C71.94303849 51.55655635 59.76871085 58.19085516 47.72045898 65.0690918 C38.20444748 70.49124617 28.60219148 75.71879468 19 81 C18.67 136.11 18.34 191.22 18 248 C12.06 248 6.12 248 0 248 C0 228.2 0 208.4 0 188 C-25.08 188 -50.16 188 -76 188 C-76.33 190.97 -76.66 193.94 -77 197 C-77.42633308 199.4510942 -77.88384675 201.89700512 -78.375 204.3359375 C-78.50438965 204.9819693 -78.6337793 205.6280011 -78.76708984 206.29360962 C-79.03755424 207.63995709 -79.30986114 208.98593569 -79.58398438 210.33154297 C-80.00320037 212.39072014 -80.41609737 214.45109242 -80.828125 216.51171875 C-82.85191086 226.55573259 -82.85191086 226.55573259 -84 230 C-83.13387085 230.11275269 -83.13387085 230.11275269 -82.25024414 230.2277832 C-72.34111778 231.5261663 -62.42820928 232.83816948 -52.5625 234.4375 C-50.61537109 234.74494141 -50.61537109 234.74494141 -48.62890625 235.05859375 C-43.13100264 236.48485292 -39.1780658 238.48091515 -35.625 243.0625 C-33.12094338 247.58906389 -32.8602441 251.18182227 -32.88647461 256.2253418 C-32.88629381 257.34100509 -32.88629381 257.34100509 -32.88610935 258.47920704 C-32.88685552 260.88590807 -32.89447028 263.29253158 -32.90234375 265.69921875 C-32.90381409 267.18542443 -32.90483423 268.67163062 -32.90539551 270.15783691 C-32.91063776 275.66773251 -32.92459897 281.17761702 -32.9375 286.6875 C-32.958125 299.000625 -32.97875 311.31375 -33 324 C6.27 324 45.54 324 86 324 C86 386.04 86 448.08 86 512 C-82.96 512 -251.92 512 -426 512 C-426 509.03 -426 506.06 -426 503 C-413.1305771 499.66160375 -400.17443554 496.80231636 -387.17578125 494.015625 C-385.01342419 493.55060419 -382.85108628 493.08549432 -380.68876648 492.62030029 C-376.19208792 491.65365091 -371.69494924 490.68917683 -367.19750977 489.72607422 C-361.43533125 488.49178258 -355.67473813 487.25025236 -349.91450214 486.0069313 C-345.46549506 485.04776425 -341.01549891 484.09325205 -336.56520653 483.14006805 C-334.43938248 482.68399243 -332.31391153 482.22626772 -330.18880653 481.76685333 C-327.23016107 481.12778666 -324.27019953 480.49520943 -321.30981445 479.86425781 C-320.43655518 479.67417648 -319.5632959 479.48409515 -318.66357422 479.28825378 C-317.85523636 479.11733719 -317.0468985 478.94642059 -316.21406555 478.77032471 C-315.51676991 478.62065876 -314.81947428 478.47099281 -314.10104847 478.31679153 C-312 478 -312 478 -307 478 C-307 455.23 -307 432.46 -307 409 C-301.39 409 -295.78 409 -290 409 C-290 392.5 -290 376 -290 359 C-309.08265794 355.89969562 -309.08265794 355.89969562 -315.47265625 361.2421875 C-316.90470763 363.44109793 -316.90470763 363.44109793 -318.0625 365.875 C-319.07331397 367.5500255 -320.08505444 369.2244922 -321.09765625 370.8984375 C-321.57734863 371.75405273 -322.05704102 372.60966797 -322.55126953 373.49121094 C-324.32956996 376.57072143 -326.32880258 379.43104701 -328.41436768 382.30804443 C-331.91380651 387.1456189 -335.35695865 392.01763941 -338.6628418 396.98974609 C-347.47013739 409.99273579 -358.15537982 420.76284703 -369.36224365 431.70556641 C-371.81937838 434.11047887 -374.26146607 436.53058085 -376.70507812 438.94921875 C-381.4567317 443.64648625 -386.22243349 448.32909827 -391 453 C-394.8431223 451.21627154 -397.48441391 448.7737487 -400.421875 445.7734375 C-400.92672424 445.26575836 -401.43157349 444.75807922 -401.95172119 444.23501587 C-403.55592096 442.61966158 -405.15300856 440.99747791 -406.75 439.375 C-407.83938107 438.27558302 -408.9292199 437.17661941 -410.01953125 436.078125 C-412.68501885 433.3906398 -415.34415143 430.69700979 -418 428 C-416.38712626 423.70200684 -413.09679857 421.09190177 -409.7890625 418.0859375 C-393.68948561 403.03532411 -380.05886937 387.62939398 -368 369.125 C-367.38682922 368.18533386 -366.77365845 367.24566772 -366.14190674 366.27752686 C-363.41183227 362.06666841 -360.7092867 357.83847384 -358.0625 353.57470703 C-357.66160156 352.92954132 -357.26070313 352.28437561 -356.84765625 351.61965942 C-355.84543643 350.00934494 -355.84543643 350.00934494 -356 348 C-356.86625 347.34 -357.7325 346.68 -358.625 346 C-365.39816145 340.54295049 -369.01302799 332.5031435 -370 324 C-370.09410156 323.34 -370.18820312 322.68 -370.28515625 322 C-371.49606537 305.60615342 -360.41840191 286.72308057 -354.57489014 271.71148682 C-353.5497975 269.07411574 -352.53010928 266.43466988 -351.51053333 263.7951622 C-350.2867532 260.62813962 -349.0594057 257.46250647 -347.83203125 254.296875 C-347.37681595 253.12090759 -346.92160065 251.94494019 -346.45259094 250.7333374 C-346.02842392 249.64409973 -345.6042569 248.55486206 -345.16723633 247.43261719 C-344.61027824 245.99943146 -344.61027824 245.99943146 -344.04206848 244.53729248 C-342.14603828 239.92072143 -342.14603828 239.92072143 -341 238 C-338.6171875 237.390625 -338.6171875 237.390625 -335.875 237.25 C-334.96492188 237.19328125 -334.05484375 237.1365625 -333.1171875 237.078125 C-332.06917969 237.03945313 -332.06917969 237.03945313 -331 237 C-331.556875 236.72027344 -332.11375 236.44054687 -332.6875 236.15234375 C-344.23933584 230.08372729 -352.48087279 221.76604184 -356.9375 209.25 C-360.05603153 197.08579005 -358.38480981 185.13128603 -352.5625 174.1875 C-346.38576197 163.81421348 -337.54451409 157.55516339 -326 154 C-312.64688163 151.23728585 -300.49913635 153.78394278 -289 161 C-280.45536521 167.60802537 -274.38377362 177.22426357 -272.24609375 187.890625 C-270.76976069 200.54490835 -272.7190971 211.86307219 -279.98046875 222.45703125 C-286.09979155 230.16240676 -293.40007733 235.67489252 -303 238 C-291.6868702 240.21548792 -280.35887958 242.34385983 -269 244.3125 C-267.98035156 244.49586914 -266.96070313 244.67923828 -265.91015625 244.86816406 C-264.94980469 245.03155273 -263.98945313 245.19494141 -263 245.36328125 C-262.154375 245.51063721 -261.30875 245.65799316 -260.4375 245.80981445 C-255.87854639 246.16552608 -252.23437912 244.80736741 -248.18481445 242.82617188 C-247.25647293 242.37479858 -246.32813141 241.92342529 -245.37165833 241.45837402 C-244.37889389 240.9667981 -243.38612946 240.47522217 -242.36328125 239.96875 C-241.32866257 239.45880493 -240.29404388 238.94885986 -239.22807312 238.42346191 C-237.03850277 237.34064743 -234.85061797 236.25441885 -232.66430664 235.16503906 C-229.34961053 233.51843498 -226.02393931 231.89567535 -222.69726562 230.2734375 C-220.56438039 229.21499893 -218.43219609 228.15514645 -216.30078125 227.09375 C-215.31813797 226.61836792 -214.33549469 226.14298584 -213.32307434 225.65319824 C-206.18699776 222.05084842 -200.74234854 217.51980305 -195 212 C-193.67371756 210.82532397 -192.34166775 209.6570724 -191 208.5 C-187.97245233 205.86310364 -184.98062721 203.18983431 -182 200.5 C-178.38323655 197.23609152 -174.73610392 194.01209051 -171.0625 190.8125 C-168.69035571 188.72788836 -166.34443935 186.61571356 -164 184.5 C-160.38323655 181.23609152 -156.73610392 178.01209051 -153.0625 174.8125 C-150.69035571 172.72788836 -148.34443935 170.61571356 -146 168.5 C-138.4394238 161.68270626 -138.4394238 161.68270626 -134.71484375 158.50390625 C-132.85149891 156.91644964 -132.85149891 156.91644964 -130.75 154.625 C-126.21690963 151.94635569 -121.1769222 152.16513308 -116 152 C-117.14275391 151.50693359 -117.14275391 151.50693359 -118.30859375 151.00390625 C-130.6882869 145.30090154 -138.06857463 137.78827257 -143 125 C-146.97751356 111.68397635 -144.87067764 99.99250668 -138.6328125 87.76171875 C-132.85946499 77.99675059 -123.94390994 72.43645963 -113.4375 68.75 C-101.48867624 66.16773946 -89.58561451 67.53728124 -79.05859375 73.73046875 C-68.15855941 81.16028808 -63.08939931 89.73180207 -59 102 C-58.19219325 115.03084989 -58.69197337 126.24843613 -67 137 C-67.39574219 137.55042969 -67.79148437 138.10085937 -68.19921875 138.66796875 C-72.90900354 144.78124241 -79.67247715 149.55749238 -87 152 C-58.29 152.33 -29.58 152.66 0 153 C0 102.51 0 52.02 0 0 Z M-162.4375 229.1875 C-177.27298941 241.1095095 -192.29354523 251.10809096 -209.046875 260.19921875 C-215.90062252 263.91952218 -222.64874451 267.80472286 -229.375 271.75 C-230.87184326 272.62676392 -230.87184326 272.62676392 -232.39892578 273.52124023 C-237.40913698 276.39248218 -237.40913698 276.39248218 -242.16723633 279.64477539 C-246.41413582 281.67653779 -250.46063177 281.47997755 -255.11328125 281.51171875 C-256.08283249 281.52966995 -257.05238373 281.54762115 -258.05131531 281.56611633 C-261.13833306 281.62016049 -264.2251967 281.65409647 -267.3125 281.6875 C-269.40952662 281.72067824 -271.50653293 281.75516837 -273.60351562 281.79101562 C-278.7355658 281.87588378 -283.86757072 281.94272337 -289 282 C-289.79447526 284.85671412 -290.5887111 287.71349445 -291.3828125 290.5703125 C-291.60557861 291.37122314 -291.82834473 292.17213379 -292.05786133 292.99731445 C-296.09969053 304.41013664 -296.09969053 304.41013664 -296 316 C-294.95134766 316.16081055 -293.90269531 316.32162109 -292.82226562 316.48730469 C-288.89885165 317.09261257 -284.97841186 317.71561274 -281.05859375 318.34375 C-279.36793769 318.61219005 -277.67653112 318.87594982 -275.984375 319.13476562 C-273.53949787 319.5095699 -271.09789574 319.9016293 -268.65625 320.296875 C-267.53700134 320.4627713 -267.53700134 320.4627713 -266.3951416 320.63201904 C-259.73826821 321.73963609 -253.90292478 323.65793874 -249.5625 329 C-247.04346395 333.83654921 -246.86051592 337.70010964 -246.79467773 343.15527344 C-246.78477814 343.86786819 -246.77487854 344.58046295 -246.76467896 345.31465149 C-246.73316861 347.66285922 -246.70834809 350.01108715 -246.68359375 352.359375 C-246.66301517 353.99034136 -246.64201846 355.62130249 -246.62062073 357.2522583 C-246.56549335 361.53969077 -246.51604301 365.82717063 -246.46777344 370.11468506 C-246.41749017 374.49186406 -246.36183976 378.86897447 -246.30664062 383.24609375 C-246.19917325 391.83067112 -246.09770304 400.41530598 -246 409 C-236.35093934 409.37311697 -226.70441068 409.65616319 -217.04967403 409.82899475 C-212.56459768 409.91201532 -208.08450286 410.0242646 -203.60229492 410.20703125 C-183.09538471 411.99503498 -183.09538471 411.99503498 -164.46533203 405.6484375 C-161.16587322 402.49035356 -158.66435614 399.05236932 -156.34536743 395.13183594 C-153.99182729 391.40247447 -150.97543717 388.23897179 -148 385 C-147.51680801 384.46802002 -147.03361603 383.93604004 -146.53578186 383.38793945 C-145.1968356 381.91951043 -143.84855359 380.45961094 -142.5 379 C-139.46031004 375.70047223 -136.43841941 372.39048393 -133.5 369 C-130.0932265 365.0691075 -126.56997215 361.24803427 -123.046875 357.421875 C-120.49444857 354.64505943 -117.97016712 351.85019283 -115.5 349 C-112.09577684 345.0720502 -108.60091375 341.22649285 -105.03369141 337.44604492 C-102.9434373 335.21575163 -101.02633327 333.03974717 -99.3359375 330.48828125 C-97.875 328.3125 -97.875 328.3125 -94 325 C-85.585 324.505 -85.585 324.505 -77 324 C-77 307.17 -77 290.34 -77 273 C-80.63 272.67 -84.26 272.34 -88 272 C-90.63548828 271.75830078 -90.63548828 271.75830078 -93.32421875 271.51171875 C-96.02492756 271.55169372 -97.48075725 271.63367775 -99.69775391 273.19775391 C-101.27447114 274.97881114 -102.53670703 276.80500224 -103.8125 278.8125 C-104.30621094 279.52664063 -104.79992187 280.24078125 -105.30859375 280.9765625 C-106.90418227 283.29778299 -108.45142473 285.64721871 -110 288 C-111.07319137 289.5792968 -112.15003283 291.15611926 -113.23046875 292.73046875 C-114.86885121 295.11860284 -116.50526159 297.50775964 -118.13061523 299.90478516 C-121.76386734 305.25463304 -125.50111544 310.50919433 -129.375 315.6875 C-129.83841797 316.31011719 -130.30183594 316.93273437 -130.77929688 317.57421875 C-138.70881424 328.07149708 -148.01285085 337.29334266 -157.26196289 346.61206055 C-158.88971056 348.25651987 -160.51205308 349.90634569 -162.12915039 351.5612793 C-164.47394574 353.96048923 -166.834451 356.34315003 -169.19921875 358.72265625 C-170.28368538 359.84112694 -170.28368538 359.84112694 -171.39006042 360.98219299 C-172.40680595 361.99466347 -172.40680595 361.99466347 -173.4440918 363.02758789 C-174.03586716 363.6274501 -174.62764252 364.22731232 -175.23735046 364.84535217 C-177 366 -177 366 -179.06190491 365.8248291 C-182.10673145 364.5289889 -184.15619955 362.20948402 -186.421875 359.87109375 C-187.17914886 359.10745262 -187.17914886 359.10745262 -187.95172119 358.3283844 C-189.55833979 356.7050088 -191.15419822 355.071503 -192.75 353.4375 C-193.83914984 352.3332995 -194.92898605 351.22977555 -196.01953125 350.12695312 C-198.6877076 347.4257471 -201.34628291 344.71540937 -204 342 C-200.40311226 337.50706779 -196.51187625 333.55271017 -192.2734375 329.66796875 C-171.68428545 310.56366295 -156.78711789 288.77352467 -142 265 C-143.4675039 261.92420727 -144.99301428 259.81939582 -147.375 257.375 C-152.93202283 251.14650358 -155.93944721 243.37142357 -156 235 C-155.78479479 231.3170563 -155.43765136 227.66280524 -155 224 C-157.46132981 224 -160.50613415 227.60735805 -162.4375 229.1875 Z " fill="#EE9F35" transform="translate(426,0)"/>
<path d="M0 0 C5.94 0 11.88 0 18 0 C18.99 2.475 18.99 2.475 20 5 C22.26224235 6.74727292 22.26224235 6.74727292 25.07421875 8.09375 C26.12303223 8.64264893 27.1718457 9.19154785 28.25244141 9.75708008 C29.38601074 10.33224365 30.51958008 10.90740723 31.6875 11.5 C33.46195321 12.42651158 35.23638873 13.35306209 37.00909424 14.28291321 C38.21943438 14.91748239 39.43066696 15.55035216 40.64276123 16.18156433 C46.54485639 19.2607181 52.34278582 22.51411539 58.125 25.8125 C59.99472112 26.87902993 61.86451094 27.94543945 63.734375 29.01171875 C64.61673828 29.51493652 65.49910156 30.0181543 66.40820312 30.53662109 C68.911227 31.94987704 71.42784989 33.33400193 73.953125 34.70703125 C74.70577637 35.11912842 75.45842773 35.53122559 76.23388672 35.95581055 C77.61680465 36.7109752 79.00362084 37.45906403 80.39501953 38.19848633 C84.88834823 40.66504469 84.88834823 40.66504469 86 44 C85.39341553 44.32572998 84.78683105 44.65145996 84.16186523 44.98706055 C71.94303849 51.55655635 59.76871085 58.19085516 47.72045898 65.0690918 C38.20444748 70.49124617 28.60219148 75.71879468 19 81 C18.67 136.11 18.34 191.22 18 248 C12.06 248 6.12 248 0 248 C0 228.2 0 208.4 0 188 C-25.08 188 -50.16 188 -76 188 C-76.33 190.97 -76.66 193.94 -77 197 C-77.42633308 199.4510942 -77.88384675 201.89700512 -78.375 204.3359375 C-78.50438965 204.9819693 -78.6337793 205.6280011 -78.76708984 206.29360962 C-79.03755424 207.63995709 -79.30986114 208.98593569 -79.58398438 210.33154297 C-80.00320037 212.39072014 -80.41609737 214.45109242 -80.828125 216.51171875 C-82.85191086 226.55573259 -82.85191086 226.55573259 -84 230 C-83.13387085 230.11275269 -83.13387085 230.11275269 -82.25024414 230.2277832 C-72.34111778 231.5261663 -62.42820928 232.83816948 -52.5625 234.4375 C-51.26441406 234.64246094 -49.96632813 234.84742188 -48.62890625 235.05859375 C-43.13100264 236.48485292 -39.1780658 238.48091515 -35.625 243.0625 C-33.12092978 247.58908848 -32.860214 251.18164991 -32.88647461 256.2253418 C-32.88632858 256.95729767 -32.88618256 257.68925354 -32.8860321 258.44338989 C-32.8867286 260.86202969 -32.89450872 263.28059241 -32.90234375 265.69921875 C-32.90420886 267.37644916 -32.90563233 269.05368011 -32.90663147 270.73091125 C-32.9104493 275.14500432 -32.92027334 279.55906447 -32.93133545 283.97314453 C-32.943364 289.2695167 -32.94795531 294.56589988 -32.95378876 299.8622818 C-32.96348547 307.90821076 -32.98264716 315.9540675 -33 324 C-47.52 324 -62.04 324 -77 324 C-77 307.17 -77 290.34 -77 273 C-96.12593809 270.90588285 -96.12593809 270.90588285 -102.47265625 276.33984375 C-103.90243902 278.52734962 -103.90243902 278.52734962 -105.0625 280.9375 C-106.07336434 282.60338334 -107.08510367 284.26873601 -108.09765625 285.93359375 C-108.57734863 286.7829248 -109.05704102 287.63225586 -109.55126953 288.50732422 C-111.33477952 291.57601936 -113.33411371 294.43361677 -115.41455078 297.30621338 C-118.91724302 302.15288982 -122.3630629 307.0354788 -125.68920898 312.00512695 C-133.99820769 324.21006782 -143.79602484 334.56856641 -154.27807617 344.92993164 C-156.63616135 347.26527334 -158.9759634 349.616194 -161.30782413 351.97754192 C-163.55903797 354.25104997 -165.82907485 356.50556034 -168.09765625 358.76171875 C-169.3507534 360.02999763 -169.3507534 360.02999763 -170.62916565 361.32389832 C-171.40775436 362.08672623 -172.18634308 362.84955414 -172.98852539 363.63549805 C-173.66879288 364.31178757 -174.34906036 364.98807709 -175.04994202 365.68486023 C-177 367 -177 367 -179.0846405 366.85507202 C-182.18202313 365.4723106 -184.31321673 363.05120835 -186.640625 360.65234375 C-187.16767029 360.12105362 -187.69471558 359.58976349 -188.23773193 359.04237366 C-189.91567187 357.34767175 -191.58286728 355.64282783 -193.25 353.9375 C-194.38732745 352.78512255 -195.52534066 351.63342148 -196.6640625 350.48242188 C-199.45071992 347.66272816 -202.22778792 344.83389412 -205 342 C-201.40311226 337.50706779 -197.51187625 333.55271017 -193.2734375 329.66796875 C-172.68428545 310.56366295 -157.78711789 288.77352467 -143 265 C-144.4675039 261.92420727 -145.99301428 259.81939582 -148.375 257.375 C-153.9311932 251.14743346 -156.93752152 243.37211672 -157 235 C-156.78807933 231.64780036 -156.44342282 228.3290821 -156 225 C-156.90878906 225.73863281 -157.81757813 226.47726563 -158.75390625 227.23828125 C-167.64858042 234.43037996 -176.72016158 241.31325118 -186 248 C-190.56329643 243.66461862 -193.78188244 238.65729888 -197.25 233.4375 C-197.8996875 232.47908203 -198.549375 231.52066406 -199.21875 230.53320312 C-200.13914063 229.15358398 -200.13914063 229.15358398 -201.078125 227.74609375 C-201.63918945 226.90747803 -202.20025391 226.0688623 -202.77832031 225.20483398 C-204 223 -204 223 -204 220 C-202.6015625 218.4921875 -202.6015625 218.4921875 -200.625 216.875 C-197.35909156 214.13994593 -194.1554781 211.36239964 -191 208.5 C-187.38323655 205.23609152 -183.73610392 202.01209051 -180.0625 198.8125 C-177.69035571 196.72788836 -175.34443935 194.61571356 -173 192.5 C-169.38323655 189.23609152 -165.73610392 186.01209051 -162.0625 182.8125 C-159.69035571 180.72788836 -157.34443935 178.61571356 -155 176.5 C-151.38868258 173.24100623 -147.7481153 170.02071819 -144.078125 166.828125 C-140.78285981 163.92928269 -137.54150298 160.97092309 -134.296875 158.015625 C-133.15992188 157.01789063 -133.15992188 157.01789063 -132 156 C-131.05640625 155.14728516 -131.05640625 155.14728516 -130.09375 154.27734375 C-127.29076979 152.56731664 -125.00921311 152.48963115 -121.75 152.3125 C-120.67234375 152.24675781 -119.5946875 152.18101562 -118.484375 152.11328125 C-117.25460937 152.05720703 -117.25460937 152.05720703 -116 152 C-116.76183594 151.67128906 -117.52367187 151.34257812 -118.30859375 151.00390625 C-130.6882869 145.30090154 -138.06857463 137.78827257 -143 125 C-146.97751356 111.68397635 -144.87067764 99.99250668 -138.6328125 87.76171875 C-132.85946499 77.99675059 -123.94390994 72.43645963 -113.4375 68.75 C-101.48867624 66.16773946 -89.58561451 67.53728124 -79.05859375 73.73046875 C-68.15855941 81.16028808 -63.08939931 89.73180207 -59 102 C-58.19219325 115.03084989 -58.69197337 126.24843613 -67 137 C-67.39574219 137.55042969 -67.79148437 138.10085937 -68.19921875 138.66796875 C-72.90900354 144.78124241 -79.67247715 149.55749238 -87 152 C-58.29 152.33 -29.58 152.66 0 153 C0 102.51 0 52.02 0 0 Z " fill="#1894A9" transform="translate(426,0)"/>
<path d="M0 0 C8.41019423 7.7882639 13.76534447 18.32348923 14.6640625 29.76171875 C15.09849681 43.17705022 11.53313283 54.46014649 2.2734375 64.3515625 C-3.3530598 69.60879055 -9.06126071 73.21337703 -16.55078125 75.02734375 C-5.23765145 77.24283167 6.09033917 79.37120358 17.44921875 81.33984375 C18.46886719 81.52321289 19.48851562 81.70658203 20.5390625 81.89550781 C21.49941406 82.05889648 22.45976562 82.22228516 23.44921875 82.390625 C24.29484375 82.53798096 25.14046875 82.68533691 26.01171875 82.8371582 C30.66893523 83.20053677 34.31324143 81.78188641 38.4230957 79.71069336 C39.38371414 79.23027084 40.34433258 78.74984833 41.33406067 78.25486755 C42.35819565 77.73505814 43.38233063 77.21524872 44.4375 76.6796875 C46.02500313 75.8827523 46.02500313 75.8827523 47.64457703 75.06971741 C51.01981792 73.37370952 54.39078734 71.66939835 57.76171875 69.96484375 C60.05115564 68.81260118 62.34086604 67.6609019 64.63085938 66.50976562 C70.24016669 63.68858511 75.84599104 60.8605782 81.44921875 58.02734375 C84.11503489 61.28811695 86.57636226 64.5988659 88.90234375 68.109375 C89.52109375 69.04072266 90.13984375 69.97207031 90.77734375 70.93164062 C91.4115625 71.89134766 92.04578125 72.85105469 92.69921875 73.83984375 C93.34890625 74.81888672 93.99859375 75.79792969 94.66796875 76.80664062 C96.26382399 79.21215772 97.85749935 81.61908884 99.44921875 84.02734375 C96.67184529 87.01619643 94.00992884 89.03785283 90.43359375 90.98828125 C89.44069336 91.53572998 88.44779297 92.08317871 87.42480469 92.6472168 C86.36036133 93.22640869 85.29591797 93.80560059 84.19921875 94.40234375 C81.94819309 95.64397567 79.6982212 96.88751963 77.44921875 98.1328125 C76.29550781 98.77138184 75.14179688 99.40995117 73.953125 100.06787109 C68.32230974 103.2033894 62.76060131 106.45824794 57.19921875 109.71484375 C56.1947168 110.30249512 55.19021484 110.89014648 54.15527344 111.49560547 C49.08404669 114.39225538 49.08404669 114.39225538 44.27758789 117.68798828 C40.01312969 119.70739421 35.99345473 119.39730722 31.3359375 119.3203125 C30.36638626 119.31606766 29.39683502 119.31182281 28.39790344 119.30744934 C25.31055575 119.29069775 22.22386813 119.25305164 19.13671875 119.21484375 C17.03972299 119.19979238 14.94271697 119.18610477 12.84570312 119.17382812 C7.71328852 119.14080567 2.58136544 119.08904722 -2.55078125 119.02734375 C-2.81922852 120.24623291 -3.08767578 121.46512207 -3.36425781 122.72094727 C-3.72325349 124.34522674 -4.08230599 125.96949365 -4.44140625 127.59375 C-4.7055835 128.79433044 -4.7055835 128.79433044 -4.97509766 130.01916504 C-6.2163801 135.62638678 -7.56699468 141.1897254 -9.03515625 146.7421875 C-9.66083491 149.12464706 -9.66083491 149.12464706 -9.55078125 152.02734375 C-8.50212891 152.1881543 -7.45347656 152.34896484 -6.37304688 152.51464844 C-2.4496329 153.11995632 1.47080689 153.74295649 5.390625 154.37109375 C7.08128106 154.6395338 8.77268763 154.90329357 10.46484375 155.16210938 C12.90972088 155.53691365 15.35132301 155.92897305 17.79296875 156.32421875 C18.53913452 156.43481628 19.28530029 156.54541382 20.05407715 156.65936279 C26.45798822 157.7248902 32.17191222 159.75003722 36.82421875 164.40234375 C40.06481183 169.63714796 40.6973534 174.31642957 40.67626953 180.40966797 C40.67656158 181.12255478 40.67685364 181.83544159 40.67715454 182.56993103 C40.67577013 184.90742507 40.66025135 187.24459344 40.64453125 189.58203125 C40.64079795 191.2101321 40.63795247 192.83823521 40.63595581 194.46633911 C40.62834431 198.73740923 40.60871731 203.00834186 40.58654785 207.27935791 C40.56242507 212.41141926 40.55329661 217.54352676 40.54164124 222.67562866 C40.52229133 230.45962911 40.48395159 238.2433283 40.44921875 246.02734375 C25.92921875 246.02734375 11.40921875 246.02734375 -3.55078125 246.02734375 C-3.55078125 229.52734375 -3.55078125 213.02734375 -3.55078125 196.02734375 C-22.63343919 192.92703937 -22.63343919 192.92703937 -29.0234375 198.26953125 C-30.45548888 200.46844168 -30.45548888 200.46844168 -31.61328125 202.90234375 C-32.62409522 204.57736925 -33.63583569 206.25183595 -34.6484375 207.92578125 C-35.36797607 209.2092041 -35.36797607 209.2092041 -36.10205078 210.51855469 C-37.88035121 213.59806518 -39.87958383 216.45839076 -41.96514893 219.33538818 C-45.46458776 224.17296265 -48.9077399 229.04498316 -52.21362305 234.01708984 C-61.02091864 247.02007954 -71.70616107 257.79019078 -82.9130249 268.73291016 C-85.37015963 271.13782262 -87.81224732 273.5579246 -90.25585938 275.9765625 C-95.00751295 280.67383 -99.77321474 285.35644202 -104.55078125 290.02734375 C-108.39390355 288.24361529 -111.03519516 285.80109245 -113.97265625 282.80078125 C-114.47750549 282.29310211 -114.98235474 281.78542297 -115.50250244 281.26235962 C-117.10670221 279.64700533 -118.70378981 278.02482166 -120.30078125 276.40234375 C-121.39016232 275.30292677 -122.48000115 274.20396316 -123.5703125 273.10546875 C-126.2358001 270.41798355 -128.89493268 267.72435354 -131.55078125 265.02734375 C-129.93790751 260.72935059 -126.64757982 258.11924552 -123.33984375 255.11328125 C-107.24026686 240.06266786 -93.60965062 224.65673773 -81.55078125 206.15234375 C-80.93761047 205.21267761 -80.3244397 204.27301147 -79.69268799 203.30487061 C-76.96261352 199.09401216 -74.26006795 194.86581759 -71.61328125 190.60205078 C-71.21238281 189.95688507 -70.81148437 189.31171936 -70.3984375 188.64700317 C-69.39621768 187.03668869 -69.39621768 187.03668869 -69.55078125 185.02734375 C-70.41703125 184.36734375 -71.28328125 183.70734375 -72.17578125 183.02734375 C-78.9489427 177.57029424 -82.56380924 169.53048725 -83.55078125 161.02734375 C-83.64488281 160.36734375 -83.73898438 159.70734375 -83.8359375 159.02734375 C-85.04684662 142.63349717 -73.96918316 123.75042432 -68.12567139 108.73883057 C-67.10057875 106.10145949 -66.08089053 103.46201363 -65.06131458 100.82250595 C-63.83753445 97.65548337 -62.61018695 94.48985022 -61.3828125 91.32421875 C-60.69998955 89.56026764 -60.69998955 89.56026764 -60.00337219 87.76068115 C-59.57920517 86.67144348 -59.15503815 85.58220581 -58.71801758 84.45996094 C-58.16105949 83.02677521 -58.16105949 83.02677521 -57.59284973 81.56463623 C-55.69681953 76.94806518 -55.69681953 76.94806518 -54.55078125 75.02734375 C-52.16796875 74.41796875 -52.16796875 74.41796875 -49.42578125 74.27734375 C-48.51570313 74.220625 -47.605625 74.16390625 -46.66796875 74.10546875 C-45.96929687 74.0796875 -45.270625 74.05390625 -44.55078125 74.02734375 C-45.10765625 73.74761719 -45.66453125 73.46789062 -46.23828125 73.1796875 C-57.79011709 67.11107104 -66.03165404 58.79338559 -70.48828125 46.27734375 C-73.60681278 34.1131338 -71.93559106 22.15862978 -66.11328125 11.21484375 C-59.93654322 0.84155723 -51.09529534 -5.41749286 -39.55078125 -8.97265625 C-25.32263914 -11.91640979 -11.54641191 -8.92946097 0 0 Z " fill="#F6CF4F" transform="translate(139.55078125,162.97265625)"/>
<path d="M0 0 C0.55913086 0.50273437 1.11826172 1.00546875 1.69433594 1.5234375 C7.47064394 6.53094571 11.81003764 6.61916724 19.25 6.125 C34.65089409 5.62651049 46.245165 9.84725027 58 20 C70.26934916 34.33747809 73 47.26190854 73 66 C13.6 66 -45.8 66 -107 66 C-107 42.31692741 -104.47751376 26.0603273 -88.19140625 9.16796875 C-87.46824219 8.45253906 -86.74507812 7.73710937 -86 7 C-85.41089844 6.37738281 -84.82179688 5.75476563 -84.21484375 5.11328125 C-62.08514455 -16.53005093 -24.85132696 -16.30868332 0 0 Z " fill="#F9F6ED" transform="translate(107,11)"/>
<path d="M0 0 C5.94 0 11.88 0 18 0 C18.66 1.65 19.32 3.3 20 5 C22.26224235 6.74727292 22.26224235 6.74727292 25.07421875 8.09375 C26.64743896 8.91709839 26.64743896 8.91709839 28.25244141 9.75708008 C29.38601074 10.33224365 30.51958008 10.90740723 31.6875 11.5 C33.46195321 12.42651158 35.23638873 13.35306209 37.00909424 14.28291321 C38.21943438 14.91748239 39.43066696 15.55035216 40.64276123 16.18156433 C46.54485639 19.2607181 52.34278582 22.51411539 58.125 25.8125 C59.99472112 26.87902993 61.86451094 27.94543945 63.734375 29.01171875 C64.61673828 29.51493652 65.49910156 30.0181543 66.40820312 30.53662109 C68.911227 31.94987704 71.42784989 33.33400193 73.953125 34.70703125 C74.70577637 35.11912842 75.45842773 35.53122559 76.23388672 35.95581055 C77.61680465 36.7109752 79.00362084 37.45906403 80.39501953 38.19848633 C84.88834823 40.66504469 84.88834823 40.66504469 86 44 C85.09012329 44.48859497 85.09012329 44.48859497 84.16186523 44.98706055 C71.94303849 51.55655635 59.76871085 58.19085516 47.72045898 65.0690918 C38.20444748 70.49124617 28.60219148 75.71879468 19 81 C18.67 136.11 18.34 191.22 18 248 C12.06 248 6.12 248 0 248 C0 166.16 0 84.32 0 0 Z " fill="#5A5A60" transform="translate(426,0)"/>
<path d="M0 0 C12.87431824 6.86630306 25.67971266 13.83567888 38.43572998 20.9155426 C41.47021893 22.5996657 44.50653222 24.28020953 47.54882812 25.95019531 C50.78729098 27.7292132 54.01931017 29.5194157 57.25 31.3125 C58.22582031 31.84512451 59.20164062 32.37774902 60.20703125 32.92651367 C61.09261719 33.42127197 61.97820312 33.91603027 62.890625 34.42578125 C63.66438477 34.85286377 64.43814453 35.27994629 65.23535156 35.7199707 C67 37 67 37 68 40 C67.09012329 40.48859497 67.09012329 40.48859497 66.16186523 40.98706055 C54.7987878 47.09645968 43.46845662 53.25321685 32.25 59.625 C24.73081444 63.89557079 17.19683067 68.13583339 9.625 72.3125 C8.7680957 72.78703613 7.91119141 73.26157227 7.02832031 73.75048828 C6.24811523 74.17958496 5.46791016 74.60868164 4.6640625 75.05078125 C3.97779785 75.42887939 3.2915332 75.80697754 2.58447266 76.1965332 C1 77 1 77 0 77 C0 51.59 0 26.18 0 0 Z " fill="#E05B69" transform="translate(444,4)"/>
<path d="M0 0 C5.94 0 11.88 0 18 0 C18 5.94 18 11.88 18 18 C12.06 18 6.12 18 0 18 C0 12.06 0 6.12 0 0 Z " fill="#F8F6ED" transform="translate(196,93)"/>
<path d="M0 0 C5.94 0 11.88 0 18 0 C18 5.94 18 11.88 18 18 C12.06 18 6.12 18 0 18 C0 12.06 0 6.12 0 0 Z " fill="#F8F6ED" transform="translate(162,93)"/>
<path d="M0 0 C5.94 0 11.88 0 18 0 C18 5.94 18 11.88 18 18 C12.06 18 6.12 18 0 18 C0 12.06 0 6.12 0 0 Z " fill="#F9F5ED" transform="translate(128,93)"/>
</svg>
