<?xml version="1.0" encoding="UTF-8"?>
<!DOCTYPE svg PUBLIC "-//W3C//DTD SVG 1.1//EN" "http://www.w3.org/Graphics/SVG/1.1/DTD/svg11.dtd">
<svg xmlns="http://www.w3.org/2000/svg" version="1.1" width="512px" height="512px" style="shape-rendering:geometricPrecision; text-rendering:geometricPrecision; image-rendering:optimizeQuality; fill-rule:evenodd; clip-rule:evenodd" xmlns:xlink="http://www.w3.org/1999/xlink">
<g><path style="opacity:0.98" fill="#a2a2cb" d="M 270.5,28.5 C 270.5,39.5 270.5,50.5 270.5,61.5C 267.167,61.5 263.833,61.5 260.5,61.5C 260.667,47.496 260.5,33.496 260,19.5C 257.525,13.0132 253.025,11.0132 246.5,13.5C 247.058,12.2101 248.058,11.3768 249.5,11C 263.355,8.69213 270.355,14.5255 270.5,28.5 Z"/></g>
<g><path style="opacity:1" fill="#bbbde1" d="M 260.5,61.5 C 253.833,61.5 247.167,61.5 240.5,61.5C 240.333,47.8293 240.5,34.1626 241,20.5C 241.907,17.4279 243.74,15.0945 246.5,13.5C 253.025,11.0132 257.525,13.0132 260,19.5C 260.5,33.496 260.667,47.496 260.5,61.5 Z"/></g>
<g><path style="opacity:0.99" fill="#5c689d" d="M 270.5,28.5 C 277.833,28.5 285.167,28.5 292.5,28.5C 292.5,38.1667 292.5,47.8333 292.5,57.5C 291.5,57.5 290.5,57.5 289.5,57.5C 289.5,66.8333 289.5,76.1667 289.5,85.5C 290.5,85.5 291.5,85.5 292.5,85.5C 292.5,95.1667 292.5,104.833 292.5,114.5C 285.167,114.5 277.833,114.5 270.5,114.5C 270.5,103.833 270.5,93.1667 270.5,82.5C 270.5,75.5 270.5,68.5 270.5,61.5C 270.5,50.5 270.5,39.5 270.5,28.5 Z"/></g>
<g><path style="opacity:1" fill="#495586" d="M 292.5,28.5 C 296.167,28.5 299.833,28.5 303.5,28.5C 303.5,38.1667 303.5,47.8333 303.5,57.5C 299.833,57.5 296.167,57.5 292.5,57.5C 292.5,47.8333 292.5,38.1667 292.5,28.5 Z"/></g>
<g><path style="opacity:1" fill="#8a96cc" d="M 240.5,61.5 C 247.167,61.5 253.833,61.5 260.5,61.5C 263.833,61.5 267.167,61.5 270.5,61.5C 270.5,68.5 270.5,75.5 270.5,82.5C 267.167,82.5 263.833,82.5 260.5,82.5C 253.833,82.5 247.167,82.5 240.5,82.5C 240.5,75.5 240.5,68.5 240.5,61.5 Z"/></g>
<g><path style="opacity:1" fill="#bbbde1" d="M 240.5,82.5 C 247.167,82.5 253.833,82.5 260.5,82.5C 260.5,120.167 260.5,157.833 260.5,195.5C 253.833,195.5 247.167,195.5 240.5,195.5C 240.5,157.833 240.5,120.167 240.5,82.5 Z"/></g>
<g><path style="opacity:0.985" fill="#a2a2cb" d="M 260.5,82.5 C 263.833,82.5 267.167,82.5 270.5,82.5C 270.5,93.1667 270.5,103.833 270.5,114.5C 270.5,141.5 270.5,168.5 270.5,195.5C 267.167,195.5 263.833,195.5 260.5,195.5C 260.5,157.833 260.5,120.167 260.5,82.5 Z"/></g>
<g><path style="opacity:1" fill="#495586" d="M 292.5,85.5 C 296.167,85.5 299.833,85.5 303.5,85.5C 303.5,95.1667 303.5,104.833 303.5,114.5C 299.833,114.5 296.167,114.5 292.5,114.5C 292.5,104.833 292.5,95.1667 292.5,85.5 Z"/></g>
<g><path style="opacity:0.85" fill="#2c95fc" d="M 387.5,91.5 C 388.833,91.5 390.167,91.5 391.5,91.5C 391.734,96.3365 392.734,101.003 394.5,105.5C 398.744,107.457 403.077,109.124 407.5,110.5C 407.134,111.695 406.301,112.361 405,112.5C 400.11,110.638 395.276,108.638 390.5,106.5C 388.749,101.662 387.749,96.6615 387.5,91.5 Z"/></g>
<g><path style="opacity:1" fill="#fe8647" d="M 139.5,91.5 C 139.859,96.627 140.859,101.627 142.5,106.5C 147.392,108.78 152.392,110.78 157.5,112.5C 158.713,112.253 159.38,111.586 159.5,110.5C 162.366,108.568 165.366,106.901 168.5,105.5C 172.812,110.146 177.145,114.813 181.5,119.5C 179.167,123.5 176.833,127.5 174.5,131.5C 176.943,136.72 179.11,142.053 181,147.5C 184.907,149.449 189.073,150.449 193.5,150.5C 193.5,156.167 193.5,161.833 193.5,167.5C 189.208,168.058 185.041,169.058 181,170.5C 178.637,175.921 176.471,181.421 174.5,187C 176.952,190.734 179.286,194.567 181.5,198.5C 177.146,203.521 172.479,208.188 167.5,212.5C 164.833,210.833 162.167,209.167 159.5,207.5C 159.189,206.522 158.522,205.855 157.5,205.5C 152.5,207.667 147.5,209.833 142.5,212C 140.544,216.61 139.544,221.444 139.5,226.5C 132.833,226.5 126.167,226.5 119.5,226.5C 119.071,221.851 118.071,217.351 116.5,213C 112.167,211.167 107.833,209.333 103.5,207.5C 99.9002,210.217 96.0669,212.55 92,214.5C 86.377,209.879 81.0437,204.879 76,199.5C 77.7951,195.104 80.2951,190.937 83.5,187C 81.5,182.667 79.5,178.333 77.5,174C 73.3504,172.705 69.1837,171.538 65,170.5C 64.5003,162.841 64.3336,155.174 64.5,147.5C 68.9171,146.883 73.2504,145.883 77.5,144.5C 79.3712,139.926 81.3712,135.426 83.5,131C 80.8333,127.333 78.1667,123.667 75.5,120C 81.0146,114.318 86.6813,108.818 92.5,103.5C 96.0998,106.217 99.9331,108.55 104,110.5C 108.223,108.972 112.39,107.305 116.5,105.5C 118.266,101.003 119.266,96.3365 119.5,91.5C 126.167,91.5 132.833,91.5 139.5,91.5 Z"/></g>
<g><path style="opacity:0.896" fill="#f26720" d="M 139.5,91.5 C 140.833,91.5 142.167,91.5 143.5,91.5C 143.857,96.3134 144.857,100.98 146.5,105.5C 150.744,107.457 155.077,109.124 159.5,110.5C 159.38,111.586 158.713,112.253 157.5,112.5C 152.392,110.78 147.392,108.78 142.5,106.5C 140.859,101.627 139.859,96.627 139.5,91.5 Z"/></g>
<g><path style="opacity:1" fill="#4db0fc" d="M 387.5,91.5 C 387.749,96.6615 388.749,101.662 390.5,106.5C 395.276,108.638 400.11,110.638 405,112.5C 406.301,112.361 407.134,111.695 407.5,110.5C 410.366,108.568 413.366,106.901 416.5,105.5C 420.812,110.146 425.145,114.813 429.5,119.5C 427.286,123.433 424.952,127.266 422.5,131C 424.471,136.579 426.637,142.079 429,147.5C 432.962,149.189 437.128,150.189 441.5,150.5C 441.5,156.167 441.5,161.833 441.5,167.5C 437.326,168.555 433.16,169.555 429,170.5C 426.637,175.921 424.471,181.421 422.5,187C 424.45,191.067 426.783,194.9 429.5,198.5C 425.146,203.521 420.479,208.188 415.5,212.5C 412.833,210.833 410.167,209.167 407.5,207.5C 407.189,206.522 406.522,205.855 405.5,205.5C 400.5,207.667 395.5,209.833 390.5,212C 388.544,216.61 387.544,221.444 387.5,226.5C 380.833,226.5 374.167,226.5 367.5,226.5C 366.99,222.116 366.157,217.782 365,213.5C 360.548,211.357 356.048,209.357 351.5,207.5C 350.739,206.609 349.739,205.942 348.5,205.5C 344.974,208.094 341.308,210.427 337.5,212.5C 332.521,208.188 327.854,203.521 323.5,198.5C 326.043,194.579 328.71,190.746 331.5,187C 329.538,182.907 327.704,178.741 326,174.5C 321.455,172.698 316.789,171.364 312,170.5C 311.5,162.841 311.334,155.174 311.5,147.5C 316.274,147.012 320.941,146.012 325.5,144.5C 327.312,140.378 328.979,136.211 330.5,132C 328.627,127.779 326.294,123.779 323.5,120C 328.035,115.297 332.702,110.797 337.5,106.5C 341.374,108.354 345.207,110.354 349,112.5C 350.301,112.361 351.134,111.695 351.5,110.5C 355.923,109.124 360.256,107.457 364.5,105.5C 366.266,101.003 367.266,96.3365 367.5,91.5C 374.167,91.5 380.833,91.5 387.5,91.5 Z"/></g>
<g><path style="opacity:0.826" fill="#2b93fc" d="M 351.5,110.5 C 351.134,111.695 350.301,112.361 349,112.5C 345.207,110.354 341.374,108.354 337.5,106.5C 338.145,105.188 339.145,104.188 340.5,103.5C 344.026,106.094 347.692,108.427 351.5,110.5 Z"/></g>
<g><path style="opacity:0.911" fill="#2b94fc" d="M 415.5,212.5 C 420.479,208.188 425.146,203.521 429.5,198.5C 426.783,194.9 424.45,191.067 422.5,187C 424.471,181.421 426.637,175.921 429,170.5C 433.16,169.555 437.326,168.555 441.5,167.5C 441.5,161.833 441.5,156.167 441.5,150.5C 437.128,150.189 432.962,149.189 429,147.5C 426.637,142.079 424.471,136.579 422.5,131C 424.952,127.266 427.286,123.433 429.5,119.5C 425.145,114.813 420.812,110.146 416.5,105.5C 417.002,103.915 418.002,103.415 419.5,104C 424.833,109.333 430.167,114.667 435.5,120C 432.833,123.667 430.167,127.333 427.5,131C 429.629,135.426 431.629,139.926 433.5,144.5C 437.504,145.501 441.504,146.501 445.5,147.5C 446.498,155.472 446.831,163.472 446.5,171.5C 441.757,171.594 437.257,172.594 433,174.5C 431.296,178.741 429.462,182.907 427.5,187C 430.29,190.746 432.957,194.579 435.5,198.5C 430.682,203.819 425.682,208.985 420.5,214C 418.465,214.599 416.799,214.099 415.5,212.5 Z"/></g>
<g><path style="opacity:0.919" fill="#f3661f" d="M 167.5,212.5 C 172.479,208.188 177.146,203.521 181.5,198.5C 179.286,194.567 176.952,190.734 174.5,187C 176.471,181.421 178.637,175.921 181,170.5C 185.041,169.058 189.208,168.058 193.5,167.5C 193.5,161.833 193.5,156.167 193.5,150.5C 189.073,150.449 184.907,149.449 181,147.5C 179.11,142.053 176.943,136.72 174.5,131.5C 176.833,127.5 179.167,123.5 181.5,119.5C 177.145,114.813 172.812,110.146 168.5,105.5C 169.37,103.401 170.703,103.068 172.5,104.5C 177.376,109.721 182.376,114.887 187.5,120C 184.706,123.779 182.373,127.779 180.5,132C 182.021,136.211 183.688,140.378 185.5,144.5C 190.119,145.757 194.785,146.757 199.5,147.5C 199.666,155.174 199.5,162.841 199,170.5C 194.531,171.662 190.031,172.829 185.5,174C 183.694,178.418 181.694,182.751 179.5,187C 182.29,190.746 184.957,194.579 187.5,198.5C 182.682,203.819 177.682,208.985 172.5,214C 170.465,214.599 168.799,214.099 167.5,212.5 Z"/></g>
<g><path style="opacity:1" fill="#f3f1fc" d="M 119.5,191.5 C 101.851,183.543 94.6848,169.877 98,150.5C 102.517,137.481 111.35,129.147 124.5,125.5C 141.778,122.889 154.611,129.222 163,144.5C 169.415,161.088 165.915,175.254 152.5,187C 142.225,193.763 131.225,195.263 119.5,191.5 Z"/></g>
<g><path style="opacity:1" fill="#f1f2fe" d="M 371.5,192.5 C 354.664,187.525 345.998,176.192 345.5,158.5C 346.241,142.421 354.241,131.754 369.5,126.5C 391.432,121.937 405.932,130.27 413,151.5C 415.905,172.912 407.072,186.746 386.5,193C 381.416,193.778 376.416,193.611 371.5,192.5 Z"/></g>
<g><path style="opacity:1" fill="#f36d29" d="M 124.5,125.5 C 111.35,129.147 102.517,137.481 98,150.5C 94.6848,169.877 101.851,183.543 119.5,191.5C 118.399,192.598 117.066,192.765 115.5,192C 96.7517,183.336 89.585,168.836 94,148.5C 99.5059,134.056 109.673,126.389 124.5,125.5 Z"/></g>
<g><path style="opacity:1" fill="#3797fc" d="M 369.5,126.5 C 354.241,131.754 346.241,142.421 345.5,158.5C 345.998,176.192 354.664,187.525 371.5,192.5C 370.054,193.613 368.387,193.78 366.5,193C 345.675,185.186 337.508,170.353 342,148.5C 346.167,137.667 353.667,130.167 364.5,126C 366.387,125.22 368.054,125.387 369.5,126.5 Z"/></g>
<g><path style="opacity:0.973" fill="#fdb0a0" d="M 27.5,193.5 C 24.3798,193.874 23.0465,195.707 23.5,199C 24.5858,203.844 25.7525,208.677 27,213.5C 44.833,263.496 63.4997,313.163 83,362.5C 88.1665,371.99 94.6665,380.49 102.5,388C 117.349,398.189 131.182,409.689 144,422.5C 150.376,430.919 154.876,440.253 157.5,450.5C 152.833,450.5 148.167,450.5 143.5,450.5C 143.167,450.5 142.833,450.5 142.5,450.5C 137.12,436.939 128.787,425.439 117.5,416C 104.8,407.639 92.9667,398.139 82,387.5C 75.9989,380.173 70.9989,372.173 67,363.5C 50.8036,321.244 34.8036,278.911 19,236.5C 14.267,225.24 11.6003,213.573 11,201.5C 14.6881,194.569 20.1881,191.902 27.5,193.5 Z"/></g>
<g><path style="opacity:0.973" fill="#fdb0a0" d="M 483.5,193.5 C 490.812,191.902 496.312,194.569 500,201.5C 499.4,213.573 496.733,225.24 492,236.5C 476.196,278.911 460.196,321.244 444,363.5C 438.248,375.836 430.415,386.669 420.5,396C 405.802,405.615 392.302,416.782 380,429.5C 375.126,435.913 371.293,442.913 368.5,450.5C 368.167,450.5 367.833,450.5 367.5,450.5C 362.833,450.5 358.167,450.5 353.5,450.5C 356.124,440.253 360.624,430.919 367,422.5C 379.818,409.689 393.651,398.189 408.5,388C 416.673,379.815 423.506,370.649 429,360.5C 448.12,311.81 466.453,262.81 484,213.5C 485.248,208.677 486.414,203.844 487.5,199C 487.954,195.707 486.62,193.874 483.5,193.5 Z"/></g>
<g><path style="opacity:1" fill="#fecdbf" d="M 27.5,193.5 C 34.4304,194.915 39.9304,198.582 44,204.5C 45.7519,207.672 47.7519,210.672 50,213.5C 62.4721,241.111 75.9721,268.111 90.5,294.5C 90.9974,307.165 95.1641,318.499 103,328.5C 114.5,341.333 126.667,353.5 139.5,365C 148.33,367.174 152.164,363.674 151,354.5C 136.262,341.764 122.929,327.764 111,312.5C 109.333,309.167 107.667,305.833 106,302.5C 102.649,294.558 104.815,288.891 112.5,285.5C 115.016,285.755 117.35,286.589 119.5,288C 143.576,310.081 168.243,331.414 193.5,352C 204.366,362.227 211.199,374.727 214,389.5C 215.455,410.151 218.621,430.484 223.5,450.5C 200.339,451.498 177.006,451.831 153.5,451.5C 149.958,451.813 146.625,451.479 143.5,450.5C 148.167,450.5 152.833,450.5 157.5,450.5C 154.876,440.253 150.376,430.919 144,422.5C 131.182,409.689 117.349,398.189 102.5,388C 94.6665,380.49 88.1665,371.99 83,362.5C 63.4997,313.163 44.833,263.496 27,213.5C 25.7525,208.677 24.5858,203.844 23.5,199C 23.0465,195.707 24.3798,193.874 27.5,193.5 Z"/></g>
<g><path style="opacity:1" fill="#fecdbf" d="M 483.5,193.5 C 486.62,193.874 487.954,195.707 487.5,199C 486.414,203.844 485.248,208.677 484,213.5C 466.453,262.81 448.12,311.81 429,360.5C 423.506,370.649 416.673,379.815 408.5,388C 393.651,398.189 379.818,409.689 367,422.5C 360.624,430.919 356.124,440.253 353.5,450.5C 358.167,450.5 362.833,450.5 367.5,450.5C 364.038,451.482 360.371,451.815 356.5,451.5C 333.327,451.831 310.327,451.498 287.5,450.5C 292.379,430.484 295.545,410.151 297,389.5C 299.801,374.727 306.634,362.227 317.5,352C 342.757,331.414 367.424,310.081 391.5,288C 393.65,286.589 395.984,285.755 398.5,285.5C 406.861,289.706 408.694,296.039 404,304.5C 399.499,313.333 393.832,321.333 387,328.5C 378.304,337.531 369.304,346.197 360,354.5C 358.593,362.209 361.76,366.042 369.5,366C 383.3,354.534 396.133,342.034 408,328.5C 413.253,321.993 416.92,314.66 419,306.5C 419.499,302.514 419.666,298.514 419.5,294.5C 434.866,268.437 448.7,241.437 461,213.5C 464.423,207.173 468.923,201.673 474.5,197C 477.309,195.259 480.309,194.092 483.5,193.5 Z"/></g>
<g><path style="opacity:1" fill="#8c97cc" d="M 240.5,195.5 C 247.167,195.5 253.833,195.5 260.5,195.5C 263.833,195.5 267.167,195.5 270.5,195.5C 276.843,194.755 281.01,197.422 283,203.5C 283.499,208.489 283.666,213.489 283.5,218.5C 276.619,214.946 269.285,212.946 261.5,212.5C 256.35,211.349 251.016,211.183 245.5,212C 239.321,213.338 233.321,215.172 227.5,217.5C 226.872,211.238 227.705,205.238 230,199.5C 232.697,196.13 236.197,194.796 240.5,195.5 Z"/></g>
<g><path style="opacity:0.83" fill="#2c94fc" d="M 351.5,207.5 C 348.319,209.837 344.986,212.004 341.5,214C 339.648,214.773 338.314,214.273 337.5,212.5C 341.308,210.427 344.974,208.094 348.5,205.5C 349.739,205.942 350.739,206.609 351.5,207.5 Z"/></g>
<g><path style="opacity:0.842" fill="#2c95fc" d="M 407.5,207.5 C 402.952,209.357 398.452,211.357 394,213.5C 392.843,217.782 392.01,222.116 391.5,226.5C 390.167,226.5 388.833,226.5 387.5,226.5C 387.544,221.444 388.544,216.61 390.5,212C 395.5,209.833 400.5,207.667 405.5,205.5C 406.522,205.855 407.189,206.522 407.5,207.5 Z"/></g>
<g><path style="opacity:0.892" fill="#f36821" d="M 159.5,207.5 C 154.952,209.357 150.452,211.357 146,213.5C 144.843,217.782 144.01,222.116 143.5,226.5C 142.167,226.5 140.833,226.5 139.5,226.5C 139.544,221.444 140.544,216.61 142.5,212C 147.5,209.833 152.5,207.667 157.5,205.5C 158.522,205.855 159.189,206.522 159.5,207.5 Z"/></g>
<g><path style="opacity:1" fill="#fcc62d" d="M 261.5,212.5 C 258.813,212.336 256.146,212.503 253.5,213C 278.225,219.391 294.058,234.891 301,259.5C 305.243,295.847 290.076,320.014 255.5,332C 251.644,332.177 247.977,332.677 244.5,333.5C 217.445,327.278 200.945,310.611 195,283.5C 191.223,254.056 202.056,232.056 227.5,217.5C 233.321,215.172 239.321,213.338 245.5,212C 251.016,211.183 256.35,211.349 261.5,212.5 Z"/></g>
<g><path style="opacity:0.974" fill="#f9ac01" d="M 261.5,212.5 C 269.285,212.946 276.619,214.946 283.5,218.5C 305.169,229.814 316.169,247.814 316.5,272.5C 313.724,310.277 293.39,330.944 255.5,334.5C 251.882,333.654 248.215,333.32 244.5,333.5C 247.977,332.677 251.644,332.177 255.5,332C 290.076,320.014 305.243,295.847 301,259.5C 294.058,234.891 278.225,219.391 253.5,213C 256.146,212.503 258.813,212.336 261.5,212.5 Z"/></g>
<g><path style="opacity:1" fill="#f9ad0a" d="M 250.5,239.5 C 233.307,246.912 229.14,258.912 238,275.5C 241.527,279.846 246.027,282.512 251.5,283.5C 231.298,284.784 222.464,275.118 225,254.5C 230.04,243.078 238.54,238.078 250.5,239.5 Z"/></g>
<g><path style="opacity:1" fill="#f3f2fc" d="M 250.5,239.5 C 271.676,239.504 280.176,249.837 276,270.5C 270.872,280.481 262.706,284.815 251.5,283.5C 246.027,282.512 241.527,279.846 238,275.5C 229.14,258.912 233.307,246.912 250.5,239.5 Z"/></g>
<g><path style="opacity:1" fill="#fdb0a0" d="M 112.5,285.5 C 104.815,288.891 102.649,294.558 106,302.5C 107.667,305.833 109.333,309.167 111,312.5C 122.929,327.764 136.262,341.764 151,354.5C 152.164,363.674 148.33,367.174 139.5,365C 126.667,353.5 114.5,341.333 103,328.5C 95.1641,318.499 90.9974,307.165 90.5,294.5C 93.3583,290.48 97.025,287.314 101.5,285C 105.358,284.19 109.024,284.357 112.5,285.5 Z"/></g>
<g><path style="opacity:1" fill="#fdb0a0" d="M 398.5,285.5 C 407.873,282.681 414.873,285.681 419.5,294.5C 419.666,298.514 419.499,302.514 419,306.5C 416.92,314.66 413.253,321.993 408,328.5C 396.133,342.034 383.3,354.534 369.5,366C 361.76,366.042 358.593,362.209 360,354.5C 369.304,346.197 378.304,337.531 387,328.5C 393.832,321.333 399.499,313.333 404,304.5C 408.694,296.039 406.861,289.706 398.5,285.5 Z"/></g>
<g><path style="opacity:0.985" fill="#2a93fb" d="M 142.5,450.5 C 142.833,450.5 143.167,450.5 143.5,450.5C 146.625,451.479 149.958,451.813 153.5,451.5C 150.528,453.641 148.028,456.308 146,459.5C 145.5,473.163 145.333,486.829 145.5,500.5C 139.5,500.5 133.5,500.5 127.5,500.5C 127.333,486.829 127.5,473.163 128,459.5C 130.646,453.089 135.479,450.089 142.5,450.5 Z"/></g>
<g><path style="opacity:0.985" fill="#2a93fb" d="M 367.5,450.5 C 367.833,450.5 368.167,450.5 368.5,450.5C 375.521,450.089 380.354,453.089 383,459.5C 383.5,473.163 383.667,486.829 383.5,500.5C 377.5,500.5 371.5,500.5 365.5,500.5C 365.667,486.829 365.5,473.163 365,459.5C 362.902,455.897 360.068,453.23 356.5,451.5C 360.371,451.815 364.038,451.482 367.5,450.5 Z"/></g>
<g><path style="opacity:1" fill="#4db0fb" d="M 223.5,450.5 C 227.582,450.344 231.582,450.844 235.5,452C 238.333,453.5 240.5,455.667 242,458.5C 243.409,472.449 243.909,486.449 243.5,500.5C 210.833,500.5 178.167,500.5 145.5,500.5C 145.333,486.829 145.5,473.163 146,459.5C 148.028,456.308 150.528,453.641 153.5,451.5C 177.006,451.831 200.339,451.498 223.5,450.5 Z"/></g>
<g><path style="opacity:1" fill="#4db0fb" d="M 287.5,450.5 C 310.327,451.498 333.327,451.831 356.5,451.5C 360.068,453.23 362.902,455.897 365,459.5C 365.5,473.163 365.667,486.829 365.5,500.5C 332.833,500.5 300.167,500.5 267.5,500.5C 267.091,486.449 267.591,472.449 269,458.5C 270.5,455.667 272.667,453.5 275.5,452C 279.418,450.844 283.418,450.344 287.5,450.5 Z"/></g>
<g><path style="opacity:1" fill="#0263d9" d="M 212.5,465.5 C 226.625,464.434 231.459,470.434 227,483.5C 219.54,490.589 212.873,489.923 207,481.5C 206.333,478.167 206.333,474.833 207,471.5C 208.769,469.383 210.602,467.383 212.5,465.5 Z"/></g>
<g><path style="opacity:1" fill="#0363d9" d="M 288.5,465.5 C 301.045,463.877 306.212,469.21 304,481.5C 299.63,488.7 293.797,490.2 286.5,486C 279.465,478.385 280.131,471.552 288.5,465.5 Z"/></g>
</svg>
