<?xml version="1.0" encoding="UTF-8"?>
<svg version="1.1" xmlns="http://www.w3.org/2000/svg" width="512" height="512">
<path d="M0 0 C1.30365551 1.08998583 2.59459989 2.19528814 3.875 3.3125 C4.8340625 4.0653125 5.793125 4.818125 6.78125 5.59375 C10.14110013 8.38870225 12.66484969 11.62216038 15.25 15.125 C15.92482422 16.0212207 15.92482422 16.0212207 16.61328125 16.93554688 C17.7068657 18.38978151 18.79185736 19.8504715 19.875 21.3125 C20.89146606 20.98040527 20.89146606 20.98040527 21.9284668 20.64160156 C41.99805279 14.13730272 62.27732242 8.28785238 83.52734375 8.07421875 C84.74068138 8.05945999 84.74068138 8.05945999 85.97853088 8.04440308 C115.62095113 7.75842402 141.72019744 11.75406283 169.875 21.3125 C170.39449219 20.66023438 170.91398437 20.00796875 171.44921875 19.3359375 C172.14660156 18.46195313 172.84398437 17.58796875 173.5625 16.6875 C174.24699219 15.82898438 174.93148438 14.97046875 175.63671875 14.0859375 C176.37535156 13.17070313 177.11398437 12.25546875 177.875 11.3125 C178.66777344 10.31347656 179.46054687 9.31445312 180.27734375 8.28515625 C188.55507371 -1.18755428 199.28009376 -7.22557785 210.875 -11.6875 C211.98746094 -12.12191406 213.09992188 -12.55632813 214.24609375 -13.00390625 C234.25389499 -19.52177113 256.60298332 -16.93304734 275.25 -7.875 C281.33504784 -4.76497734 286.71623805 -1.18877268 291.875 3.3125 C292.84308594 4.08464844 293.81117188 4.85679688 294.80859375 5.65234375 C304.40913081 13.66632589 310.45343272 24.82246134 314.875 36.3125 C315.30941406 37.42496094 315.74382812 38.53742188 316.19140625 39.68359375 C322.70949162 59.69207183 320.11980722 82.03972185 311.0625 100.6875 C307.95415425 106.77552518 304.35705254 112.13679648 299.875 117.3125 C299.2975 118.09625 298.72 118.88 298.125 119.6875 C295.28649286 122.99909167 292.08429974 125.49185416 288.625 128.125 C287.9753125 128.62708984 287.325625 129.12917969 286.65625 129.64648438 C285.06658517 130.87379913 283.4713513 132.09389493 281.875 133.3125 C282.09639648 133.99014404 282.31779297 134.66778809 282.54589844 135.3659668 C289.05019728 155.43555279 294.89964762 175.71482242 295.11328125 196.96484375 C295.12312042 197.7737355 295.13295959 198.58262726 295.14309692 199.41603088 C295.42907598 229.05845113 291.43343717 255.15769744 281.875 283.3125 C282.52726562 283.83199219 283.17953125 284.35148437 283.8515625 284.88671875 C284.72554688 285.58410156 285.59953125 286.28148437 286.5 287 C287.35851562 287.68449219 288.21703125 288.36898438 289.1015625 289.07421875 C290.01679688 289.81285156 290.93203125 290.55148437 291.875 291.3125 C292.87402344 292.10527344 293.87304688 292.89804687 294.90234375 293.71484375 C304.37505428 301.99257371 310.41307785 312.71759376 314.875 324.3125 C315.30941406 325.42496094 315.74382812 326.53742188 316.19140625 327.68359375 C322.70949162 347.69207183 320.11980722 370.03972185 311.0625 388.6875 C307.95415425 394.77552518 304.35705254 400.13679648 299.875 405.3125 C299.27816406 406.10527344 298.68132812 406.89804687 298.06640625 407.71484375 C289.86635931 417.43504199 278.61487258 423.85794315 266.875 428.3125 C265.76382812 428.745625 264.65265625 429.17875 263.5078125 429.625 C243.5066336 436.15599719 221.1422456 433.55572972 202.5 424.5 C196.41495216 421.38997734 191.03376195 417.81377268 185.875 413.3125 C184.9159375 412.5596875 183.956875 411.806875 182.96875 411.03125 C179.60889987 408.23629775 177.08515031 405.00283962 174.5 401.5 C173.82517578 400.6037793 173.82517578 400.6037793 173.13671875 399.68945312 C172.0431343 398.23521849 170.95814264 396.7745285 169.875 395.3125 C169.19735596 395.53389648 168.51971191 395.75529297 167.8215332 395.98339844 C147.75194721 402.48769728 127.47267758 408.33714762 106.22265625 408.55078125 C105.4137645 408.56062042 104.60487274 408.57045959 103.77146912 408.58059692 C74.12904887 408.86657598 48.02980256 404.87093717 19.875 395.3125 C19.07835937 396.30830078 19.07835937 396.30830078 18.265625 397.32421875 C16.13541667 399.98697917 14.00520833 402.64973958 11.875 405.3125 C11.25753906 406.13621094 10.64007813 406.95992188 10.00390625 407.80859375 C1.78964561 417.46977002 -9.41624055 423.86974867 -21.125 428.3125 C-22.23617187 428.745625 -23.34734375 429.17875 -24.4921875 429.625 C-44.4933664 436.15599719 -66.8577544 433.55572972 -85.5 424.5 C-91.58504784 421.38997734 -96.96623805 417.81377268 -102.125 413.3125 C-103.09308594 412.54035156 -104.06117187 411.76820313 -105.05859375 410.97265625 C-114.65913081 402.95867411 -120.70343272 391.80253866 -125.125 380.3125 C-125.55941406 379.20003906 -125.99382812 378.08757812 -126.44140625 376.94140625 C-132.95927113 356.93360501 -130.37054734 334.58451668 -121.3125 315.9375 C-118.20247734 309.85245216 -114.62627268 304.47126195 -110.125 299.3125 C-109.3721875 298.3534375 -108.619375 297.394375 -107.84375 296.40625 C-105.04879775 293.04639987 -101.81533962 290.52265031 -98.3125 287.9375 C-97.4162793 287.26267578 -97.4162793 287.26267578 -96.50195312 286.57421875 C-95.04771849 285.4806343 -93.5870285 284.39564264 -92.125 283.3125 C-92.34639648 282.63485596 -92.56779297 281.95721191 -92.79589844 281.2590332 C-99.30019728 261.18944721 -105.14964762 240.91017758 -105.36328125 219.66015625 C-105.37312042 218.8512645 -105.38295959 218.04237274 -105.39309692 217.20896912 C-105.67907598 187.56654887 -101.68343717 161.46730256 -92.125 133.3125 C-92.77726562 132.79300781 -93.42953125 132.27351562 -94.1015625 131.73828125 C-94.97554687 131.04089844 -95.84953125 130.34351563 -96.75 129.625 C-97.60851562 128.94050781 -98.46703125 128.25601563 -99.3515625 127.55078125 C-100.26679687 126.81214844 -101.18203125 126.07351562 -102.125 125.3125 C-103.12402344 124.51972656 -104.12304688 123.72695312 -105.15234375 122.91015625 C-114.62505428 114.63242629 -120.66307785 103.90740624 -125.125 92.3125 C-125.77662109 90.64380859 -125.77662109 90.64380859 -126.44140625 88.94140625 C-132.95927113 68.93360501 -130.37054734 46.58451668 -121.3125 27.9375 C-118.20247734 21.85245216 -114.62627268 16.47126195 -110.125 11.3125 C-108.96677734 9.86037109 -108.96677734 9.86037109 -107.78515625 8.37890625 C-99.77117411 -1.22163081 -88.61503866 -7.26593272 -77.125 -11.6875 C-76.01253906 -12.12191406 -74.90007812 -12.55632813 -73.75390625 -13.00390625 C-49.0695884 -21.04522205 -20.46495623 -15.7264261 0 0 Z M27.875 37.3125 C26.44950626 40.16348747 27.39641437 41.60808866 28.28515625 44.63671875 C30.00357774 51.21142093 30.37712686 57.35230753 30.3125 64.125 C30.30347656 65.26501465 30.29445313 66.4050293 30.28515625 67.57958984 C29.87487078 87.60664932 22.06934763 105.23438808 8.5 119.875 C7.63375 120.679375 6.7675 121.48375 5.875 122.3125 C4.99328125 123.20195312 4.99328125 123.20195312 4.09375 124.109375 C-12.50535605 140.08911142 -33.44761367 143.70826782 -55.6484375 143.546875 C-62.46271227 143.39374523 -68.64246441 142.517087 -75.125 140.3125 C-79.70133408 149.98351845 -82.51991148 159.95894305 -85.125 170.3125 C-85.4027124 171.40522217 -85.4027124 171.40522217 -85.68603516 172.52001953 C-91.06438244 194.9932533 -90.8113527 223.93826106 -85.125 246.3125 C-84.90505371 247.18664551 -84.68510742 248.06079102 -84.45849609 248.96142578 C-82.01893598 258.42351576 -79.31190798 267.46444311 -75.125 276.3125 C-74.48820312 276.0959375 -73.85140625 275.879375 -73.1953125 275.65625 C-51.30678213 269.38579568 -28.54389169 272.61312234 -8.73828125 283.22265625 C-4.14686249 285.79914442 -0.09882266 288.87125151 3.875 292.3125 C4.67808594 292.91964844 5.48117188 293.52679688 6.30859375 294.15234375 C15.67267466 302.03413484 21.54716806 313.06604527 25.875 324.3125 C26.30941406 325.42496094 26.74382812 326.53742188 27.19140625 327.68359375 C32.22912712 343.14781703 32.11871582 362.89347848 26.875 378.3125 C67.10035729 397.34717298 115.6147678 395.81019118 156.91430664 381.36816406 C160.59040172 380.19537793 160.59040172 380.19537793 162.875 377.3125 C162.46481244 375.52297612 161.98179441 373.74993149 161.46484375 371.98828125 C159.74642226 365.41357907 159.37287314 359.27269247 159.4375 352.5 C159.44652344 351.35998535 159.45554687 350.2199707 159.46484375 349.04541016 C159.84750614 330.36670212 166.63519231 313.44656364 178.875 299.3125 C179.48214844 298.50941406 180.08929688 297.70632813 180.71484375 296.87890625 C188.59663484 287.51482534 199.62854527 281.64033194 210.875 277.3125 C211.98746094 276.87808594 213.09992188 276.44367188 214.24609375 275.99609375 C229.71031703 270.95837288 249.45597848 271.06878418 264.875 276.3125 C269.45133408 266.64148155 272.26991148 256.66605695 274.875 246.3125 C275.0601416 245.58401855 275.2452832 244.85553711 275.43603516 244.10498047 C280.81438244 221.6317467 280.5613527 192.68673894 274.875 170.3125 C274.65505371 169.43835449 274.43510742 168.56420898 274.20849609 167.66357422 C271.76893598 158.20148424 269.06190798 149.16055689 264.875 140.3125 C264.23820312 140.5290625 263.60140625 140.745625 262.9453125 140.96875 C241.05678213 147.23920432 218.29389169 144.01187766 198.48828125 133.40234375 C193.89686249 130.82585558 189.84882266 127.75374849 185.875 124.3125 C184.67037109 123.40177734 184.67037109 123.40177734 183.44140625 122.47265625 C174.07732534 114.59086516 168.20283194 103.55895473 163.875 92.3125 C163.22337891 90.64380859 163.22337891 90.64380859 162.55859375 88.94140625 C157.52087288 73.47718297 157.63128418 53.73152152 162.875 38.3125 C122.34235164 19.13241662 68.73787747 19.21608284 27.875 37.3125 Z " fill="#F9B400" transform="translate(161.125,47.6875)"/>
<path d="M0 0 C19.41513413 15.83036047 34.05409201 37.67987498 37 63 C39.00706443 91.38316441 34.11130766 116.2402984 15.84375 138.64453125 C-0.57892148 157.46699451 -22.83614019 171.43272251 -48.21777344 173.22753906 C-76.8329536 174.49950262 -101.20094475 168.80835389 -123.1875 149.625 C-141.72962913 132.23989973 -154.23970686 110.00534464 -155.3828125 84.2890625 C-156.09445376 55.78869783 -149.21659255 31.57486407 -129.3359375 10.37109375 C-94.83017582 -24.65398542 -39.47352935 -30.18232772 0 0 Z " fill="#C80A50" transform="translate(315,179)"/>
<path d="M0 0 C1.30365551 1.08998583 2.59459989 2.19528814 3.875 3.3125 C4.84308594 4.08464844 5.81117188 4.85679688 6.80859375 5.65234375 C16.40913081 13.66632589 22.45343272 24.82246134 26.875 36.3125 C27.30941406 37.42496094 27.74382812 38.53742188 28.19140625 39.68359375 C34.70949162 59.69207183 32.11980722 82.03972185 23.0625 100.6875 C19.95415425 106.77552518 16.35705254 112.13679648 11.875 117.3125 C11.2975 118.09625 10.72 118.88 10.125 119.6875 C7.28649286 122.99909167 4.08429974 125.49185416 0.625 128.125 C-0.0246875 128.62708984 -0.674375 129.12917969 -1.34375 129.64648438 C-2.93341483 130.87379913 -4.5286487 132.09389493 -6.125 133.3125 C-5.90360352 133.99014404 -5.68220703 134.66778809 -5.45410156 135.3659668 C1.05019728 155.43555279 6.89964762 175.71482242 7.11328125 196.96484375 C7.12312042 197.7737355 7.13295959 198.58262726 7.14309692 199.41603088 C7.41153235 227.24001143 6.72322798 258.26783237 -7.125 283.3125 C-11.09833709 282.16232347 -14.67338893 280.59363523 -18.3515625 278.73046875 C-19.69468506 278.05213989 -19.69468506 278.05213989 -21.06494141 277.36010742 C-22.08467041 276.84154175 -22.08467041 276.84154175 -23.125 276.3125 C-22.83834473 275.4620813 -22.83834473 275.4620813 -22.54589844 274.59448242 C-16.47712076 256.448399 -11.03816521 238.16641088 -10.921875 218.88671875 C-10.91128555 217.71529327 -10.91128555 217.71529327 -10.90048218 216.52020264 C-10.71422004 189.87379924 -13.41525758 166.3671032 -23.125 141.3125 C-23.76179687 141.5290625 -24.39859375 141.745625 -25.0546875 141.96875 C-46.94275877 148.2390728 -69.71258459 145.01457635 -89.515625 134.3984375 C-94.10707151 131.82141067 -98.16294587 128.76958645 -102.125 125.3125 C-103.09308594 124.54035156 -104.06117188 123.76820313 -105.05859375 122.97265625 C-114.65913081 114.95867411 -120.70343272 103.80253866 -125.125 92.3125 C-125.77662109 90.64380859 -125.77662109 90.64380859 -126.44140625 88.94140625 C-131.47912712 73.47718297 -131.36871582 53.73152152 -126.125 38.3125 C-172.06720779 21.95235635 -215.18536085 22.70879239 -261.125 38.3125 C-262.32484797 36.04745035 -263.50994769 33.77660112 -264.6875 31.5 C-265.02974609 30.85740234 -265.37199219 30.21480469 -265.72460938 29.55273438 C-266.6015023 27.84323605 -267.37015617 26.07928706 -268.125 24.3125 C-267.125 21.3125 -267.125 21.3125 -265.48046875 20.40869141 C-264.40732422 20.0401001 -264.40732422 20.0401001 -263.3125 19.6640625 C-262.49612061 19.38320801 -261.67974121 19.10235352 -260.83862305 18.81298828 C-259.94312744 18.52407715 -259.04763184 18.23516602 -258.125 17.9375 C-257.20178955 17.63440918 -256.2785791 17.33131836 -255.32739258 17.01904297 C-239.02536765 11.87589184 -221.60780121 8.24648414 -204.47265625 8.07421875 C-203.25931862 8.05945999 -203.25931862 8.05945999 -202.02146912 8.04440308 C-172.37904887 7.75842402 -146.27980256 11.75406283 -118.125 21.3125 C-117.60550781 20.66023438 -117.08601562 20.00796875 -116.55078125 19.3359375 C-115.85339844 18.46195313 -115.15601563 17.58796875 -114.4375 16.6875 C-113.75300781 15.82898438 -113.06851563 14.97046875 -112.36328125 14.0859375 C-111.62464844 13.17070313 -110.88601563 12.25546875 -110.125 11.3125 C-109.33222656 10.31347656 -108.53945313 9.31445312 -107.72265625 8.28515625 C-99.44492629 -1.18755428 -88.71990624 -7.22557785 -77.125 -11.6875 C-75.45630859 -12.33912109 -75.45630859 -12.33912109 -73.75390625 -13.00390625 C-49.0695884 -21.04522205 -20.46495623 -15.7264261 0 0 Z " fill="#095078" transform="translate(449.125,47.6875)"/>
<path d="M0 0 C1.62095581 -0.0153479 1.62095581 -0.0153479 3.2746582 -0.03100586 C14.19341648 0.08790225 24.02213986 2.6355082 33.9375 7.125 C34.70739258 7.47022705 35.47728516 7.8154541 36.27050781 8.17114258 C42.559785 11.101585 47.69125676 14.75548748 52.8125 19.4375 C53.78832031 20.21996094 54.76414062 21.00242187 55.76953125 21.80859375 C65.36818773 29.78931208 71.400192 40.97152283 75.8125 52.4375 C76.24691406 53.54996094 76.68132812 54.66242188 77.12890625 55.80859375 C83.64699162 75.81707183 81.05730722 98.16472185 72 116.8125 C68.89165425 122.90052518 65.29455254 128.26179648 60.8125 133.4375 C60.21566406 134.23027344 59.61882812 135.02304687 59.00390625 135.83984375 C50.80385931 145.56004199 39.55237258 151.98294315 27.8125 156.4375 C26.70132813 156.870625 25.59015625 157.30375 24.4453125 157.75 C4.4441336 164.28099719 -17.9202544 161.68072972 -36.5625 152.625 C-42.64754784 149.51497734 -48.02873805 145.93877268 -53.1875 141.4375 C-54.64349609 140.26767578 -54.64349609 140.26767578 -56.12890625 139.07421875 C-68.97004127 128.33775943 -77.93997989 109.93257387 -80.1875 93.4375 C-81.92053793 69.95048373 -78.40635847 47.94491881 -62.92578125 29.4296875 C-62.35214844 28.77226562 -61.77851563 28.11484375 -61.1875 27.4375 C-60.02927734 25.98537109 -60.02927734 25.98537109 -58.84765625 24.50390625 C-50.83367411 14.90336919 -39.67753866 8.85906728 -28.1875 4.4375 C-27.07503906 4.00308594 -25.96257812 3.56867188 -24.81640625 3.12109375 C-16.55378309 0.42941061 -8.64142183 0.06294226 0 0 Z " fill="#F9B400" transform="translate(400.1875,319.5625)"/>
<path d="M0 0 C14.02914116 10.61996175 25.72571595 25.77558454 28.234375 43.69140625 C29.9938479 62.49045638 25.89305985 79.45707211 14.06640625 94.4375 C3.51294643 106.66207566 -11.68452755 116.29854032 -28.06591797 117.91894531 C-46.79990398 119.09328151 -62.86006601 114.71198943 -77.578125 102.6484375 C-90.43047619 91.15017331 -99.00091472 75.49766335 -100.14453125 58.078125 C-100.82551642 40.07729633 -95.65135228 23.82681881 -83.453125 10.31640625 C-75.76675884 2.17534993 -67.17235098 -3.27303098 -56.765625 -7.30859375 C-55.5590625 -7.79005859 -55.5590625 -7.79005859 -54.328125 -8.28125 C-36.41750669 -14.29809834 -15.55907626 -10.27435553 0 0 Z " fill="#F0EFEE" transform="translate(147.765625,58.30859375)"/>
<path d="M0 0 C0.81457169 -0.00145523 1.62914337 -0.00291046 2.46839905 -0.00440979 C4.18201289 -0.00275837 5.89564274 0.00871766 7.60913086 0.02954102 C10.2120765 0.05847614 12.8129783 0.05013808 15.41601562 0.03710938 C17.08985352 0.04334887 18.76368505 0.05174147 20.4375 0.0625 C21.58943092 0.05809654 21.58943092 0.05809654 22.76463318 0.05360413 C29.14294626 0.16329051 35.04059945 1.19246967 39.66015625 5.93359375 C43.91159629 12.63778767 43.65743884 18.6266196 43.65576172 26.40258789 C43.66010915 28.65914868 43.69637253 30.9137102 43.734375 33.16992188 C43.80681454 42.28568295 43.06476813 49.35514515 37.5390625 56.87109375 C36.98089844 57.40734375 36.42273438 57.94359375 35.84765625 58.49609375 C35.29207031 59.05296875 34.73648438 59.60984375 34.1640625 60.18359375 C32.28515625 61.49609375 32.28515625 61.49609375 27.28515625 62.49609375 C27.28515625 68.43609375 27.28515625 74.37609375 27.28515625 80.49609375 C29.27417969 80.4496875 31.26320313 80.40328125 33.3125 80.35546875 C35.26861559 80.32762369 37.22473638 80.29993268 39.1809082 80.27636719 C41.18271676 80.24668594 43.18417544 80.19582317 45.18554688 80.14453125 C54.20135393 80.05369188 60.86014935 80.71963748 67.84375 86.6796875 C68.77380859 87.79537109 68.77380859 87.79537109 69.72265625 88.93359375 C70.36074219 89.67480469 70.99882812 90.41601562 71.65625 91.1796875 C77.20958965 99.07688274 76.6780735 109.67398855 75.81542969 118.92822266 C75.00977322 122.82964751 73.41127899 124.5402884 70.28515625 126.93359375 C68.59709108 127.8747099 66.90386827 128.81370426 65.15039062 129.62646484 C63.20413224 130.53386961 61.35718306 131.55252151 59.48828125 132.609375 C37.5065352 144.70399132 10.52576484 148.93421613 -13.95507812 142.40258789 C-26.29069849 138.70655088 -37.37762889 133.17381076 -47.71484375 125.49609375 C-48.6378125 124.98949219 -49.56078125 124.48289062 -50.51171875 123.9609375 C-54.12385672 119.91969803 -53.3985329 115.46705324 -53.27734375 110.24609375 C-53.28830078 109.23417969 -53.29925781 108.22226562 -53.31054688 107.1796875 C-53.23436294 99.34797849 -51.76059266 93.92869092 -46.53125 88.03515625 C-45.78746094 87.40351563 -45.04367188 86.771875 -44.27734375 86.12109375 C-43.16552734 85.15042969 -43.16552734 85.15042969 -42.03125 84.16015625 C-37.32026774 80.77587557 -33.41455886 80.25184086 -27.6640625 80.30078125 C-27.00525589 80.30361115 -26.34644928 80.30644104 -25.66767883 80.30935669 C-23.57904313 80.32048451 -21.49084819 80.34557427 -19.40234375 80.37109375 C-17.97982393 80.38113316 -16.55729735 80.39025733 -15.13476562 80.3984375 C-11.66115502 80.41869179 -8.18848836 80.45785179 -4.71484375 80.49609375 C-4.71484375 74.55609375 -4.71484375 68.61609375 -4.71484375 62.49609375 C-6.03484375 62.16609375 -7.35484375 61.83609375 -8.71484375 61.49609375 C-10.71484375 60.18359375 -10.71484375 60.18359375 -12.71484375 58.49609375 C-13.37484375 57.95984375 -14.03484375 57.42359375 -14.71484375 56.87109375 C-21.18838494 49.18376359 -21.37536171 40.78448219 -21.29125977 31.1574707 C-21.27734347 28.93354852 -21.31160589 26.71380615 -21.34960938 24.49023438 C-21.38888914 17.80170657 -21.40678362 11.76363463 -17.47241211 6.05883789 C-11.8707198 1.07808606 -7.27272116 -0.10610897 0 0 Z " fill="#F9B200" transform="translate(244.71484375,207.50390625)"/>
<path d="M0 0 C0.93714844 -0.00257812 1.87429688 -0.00515625 2.83984375 -0.0078125 C7.80437377 0.06260637 11.52949427 0.18039685 15.5 3.5 C16.76462428 6.02924855 16.64305315 7.98986704 16.75 10.8125 C17.08599928 14.71212804 17.28099277 16.19725471 19.625 19.4375 C20.57375 20.118125 21.5225 20.79875 22.5 21.5 C23.04140625 21.90089844 23.5828125 22.30179688 24.140625 22.71484375 C27.26112815 24.80220735 29.30355873 25.50344634 33.0625 25.4375 C36.52644272 24.63321773 36.52644272 24.63321773 39.5 22.875 C43.38478872 21.09447183 45.42892621 21.29375591 49.5 22.5 C54.58388244 28.15657276 60.64332902 36.09811813 61.4375 43.875 C60.25626449 48.44244398 58.47253842 49.73302083 54.640625 52.2734375 C52.62536536 53.42816656 50.59194264 54.49172134 48.5 55.5 C47.55343277 64.53153593 47.55343277 64.53153593 48.5 73.5 C51.39697397 76.80632899 54.43975148 78.00902349 58.5 79.5 C60.5 81.5 60.5 81.5 60.890625 85.13671875 C60.76265314 90.0206103 58.85632121 93.28863418 56.25 97.3125 C55.85425781 97.96669922 55.45851563 98.62089844 55.05078125 99.29492188 C52.95009859 102.66634535 51.073543 105.55278371 47.5 107.5 C43.56580528 107.35428908 40.96801376 106.75350745 37.5 104.875 C33.51138728 103.04688584 31.71315402 103.28604037 27.5 104.5 C21.62092627 107.58848427 21.62092627 107.58848427 17.5 112.5 C17.09473913 115.80816207 16.73142891 119.11816443 16.390625 122.43359375 C15.5 125.5 15.5 125.5 13.58203125 127.38671875 C9.02861906 129.03148741 4.74106778 128.93418153 -0.0625 128.875 C-1.00802734 128.88660156 -1.95355469 128.89820313 -2.92773438 128.91015625 C-3.83974609 128.90628906 -4.75175781 128.90242187 -5.69140625 128.8984375 C-6.51842041 128.89505371 -7.34543457 128.89166992 -8.19750977 128.88818359 C-11.04388128 128.40830546 -12.42277351 127.48164143 -14.5 125.5 C-15.15234375 122.5390625 -15.15234375 122.5390625 -15.4375 119.125 C-16.0904707 113.92585881 -16.0904707 113.92585881 -18.6875 109.4375 C-19.615625 108.798125 -20.54375 108.15875 -21.5 107.5 C-22.32757813 106.91992188 -22.32757813 106.91992188 -23.171875 106.328125 C-27.05361684 103.82045107 -29.93550497 102.73925083 -34.5 103.5 C-35.66630979 104.1521593 -36.8115969 104.84282474 -37.9375 105.5625 C-40.7948726 107.33255382 -41.59059203 107.50153546 -45.1875 107.5625 C-51.67996647 105.48001076 -54.83290339 98.19277926 -58.05078125 92.50390625 C-60.14742798 88.15802663 -60.7187671 86.21256611 -59.5 81.5 C-55.93264341 77.67661303 -51.48712998 75.05847812 -46.5 73.5 C-46.83 72.84 -47.16 72.18 -47.5 71.5 C-47.36487173 69.64562433 -47.22811922 67.79133871 -47.07958984 65.93798828 C-46.84160701 62.27337975 -46.91530872 59.15523984 -47.5 55.5 C-50.42084608 52.35121131 -53.56250647 51.0620876 -57.5 49.5 C-59.5 47.5 -59.5 47.5 -59.890625 43.86328125 C-59.76265314 38.9793897 -57.85632121 35.71136582 -55.25 31.6875 C-54.85425781 31.03330078 -54.45851563 30.37910156 -54.05078125 29.70507812 C-51.95059797 26.33445611 -50.07448126 23.44376069 -46.5 21.5 C-42.6970326 21.63828972 -40.19890106 22.07384082 -36.9375 24.0625 C-33.66868907 25.99026029 -32.26981534 26.14015732 -28.5 25.5 C-23.70892021 23.15244472 -19.49224371 20.98836556 -16.5 16.5 C-16.2409922 13.75706495 -16.18603557 11.04321709 -16.13671875 8.2890625 C-14.15184726 -0.40540526 -7.43167794 -0.22489259 0 0 Z " fill="#009FC7" transform="translate(399.5,47.5)"/>
<path d="M0 0 C1.30365551 1.08998583 2.59459989 2.19528814 3.875 3.3125 C4.84566406 4.09238281 5.81632813 4.87226562 6.81640625 5.67578125 C19.65754127 16.41224057 28.62747989 34.81742613 30.875 51.3125 C32.61266248 74.86219061 29.06798986 96.88347568 13.515625 115.41796875 C12.97421875 116.04316406 12.4328125 116.66835937 11.875 117.3125 C11.27816406 118.10527344 10.68132812 118.89804688 10.06640625 119.71484375 C1.86635931 129.43504199 -9.38512742 135.85794315 -21.125 140.3125 C-22.23617187 140.745625 -23.34734375 141.17875 -24.4921875 141.625 C-32.75474596 144.32297827 -40.66968313 144.68704758 -49.3125 144.75 C-50.39313721 144.76023193 -51.47377441 144.77046387 -52.5871582 144.78100586 C-63.50591648 144.66209775 -73.33463986 142.1144918 -83.25 137.625 C-84.01989258 137.27977295 -84.78978516 136.9345459 -85.58300781 136.57885742 C-91.872285 133.648415 -97.00375676 129.99451252 -102.125 125.3125 C-103.10082031 124.53003906 -104.07664062 123.74757812 -105.08203125 122.94140625 C-114.68068773 114.96068792 -120.712692 103.77847717 -125.125 92.3125 C-125.77662109 90.64380859 -125.77662109 90.64380859 -126.44140625 88.94140625 C-132.95927113 68.93360501 -130.37054734 46.58451668 -121.3125 27.9375 C-118.20247734 21.85245216 -114.62627268 16.47126195 -110.125 11.3125 C-108.96677734 9.86037109 -108.96677734 9.86037109 -107.78515625 8.37890625 C-99.77117411 -1.22163081 -88.61503866 -7.26593272 -77.125 -11.6875 C-76.01253906 -12.12191406 -74.90007812 -12.55632813 -73.75390625 -13.00390625 C-49.0695884 -21.04522205 -20.46495623 -15.7264261 0 0 Z M-98.125 22.3125 C-103.44138007 28.6628916 -107.14203307 35.60923375 -110.125 43.3125 C-110.44597656 44.12847656 -110.76695313 44.94445312 -111.09765625 45.78515625 C-116.64931305 62.49176996 -113.09199186 80.6982491 -105.5 96.125 C-95.74143044 112.44707446 -80.13346985 123.14703081 -61.828125 127.91015625 C-44.80438827 130.44403614 -27.85200169 127.57403733 -13.359375 118.00390625 C1.631546 106.65588389 11.53238594 92.07245197 14.875 73.3125 C16.77061819 54.57191414 12.06457646 38.46428426 0.7421875 23.4921875 C-7.55714218 13.76501616 -17.16151843 7.60958726 -29.125 3.3125 C-30.25228516 2.83296875 -30.25228516 2.83296875 -31.40234375 2.34375 C-55.23583871 -6.70376302 -81.710908 4.88608515 -98.125 22.3125 Z " fill="#F9B401" transform="translate(161.125,47.6875)"/>
<path d="M0 0 C0.81457169 -0.00145523 1.62914337 -0.00291046 2.46839905 -0.00440979 C4.18201289 -0.00275837 5.89564274 0.00871766 7.60913086 0.02954102 C10.2120765 0.05847614 12.8129783 0.05013808 15.41601562 0.03710938 C17.08985352 0.04334887 18.76368505 0.05174147 20.4375 0.0625 C21.58943092 0.05809654 21.58943092 0.05809654 22.76463318 0.05360413 C29.14294626 0.16329051 35.04059945 1.19246967 39.66015625 5.93359375 C43.91159629 12.63778767 43.65743884 18.6266196 43.65576172 26.40258789 C43.66010915 28.65914868 43.69637253 30.9137102 43.734375 33.16992188 C43.80681454 42.28568295 43.06476813 49.35514515 37.5390625 56.87109375 C36.98089844 57.40734375 36.42273438 57.94359375 35.84765625 58.49609375 C35.29207031 59.05296875 34.73648438 59.60984375 34.1640625 60.18359375 C31.90261851 61.76331346 29.97696207 62.02387615 27.28515625 62.49609375 C27.3008667 63.13111816 27.31657715 63.76614258 27.33276367 64.42041016 C27.39544215 67.32054605 27.43425042 70.22053899 27.47265625 73.12109375 C27.49779297 74.12011719 27.52292969 75.11914062 27.54882812 76.1484375 C27.61219125 82.52699207 27.27818311 87.21467628 22.78515625 92.140625 C17.3779476 96.35092549 13.00621948 97.32471798 6.28515625 96.49609375 C0.98163345 93.79429912 -2.81316673 90.2011248 -4.71484375 84.49609375 C-4.79662489 82.79592531 -4.82233876 81.09273078 -4.8125 79.390625 C-4.80927734 78.40771484 -4.80605469 77.42480469 -4.80273438 76.41210938 C-4.79435547 75.38794922 -4.78597656 74.36378906 -4.77734375 73.30859375 C-4.77057617 71.75495117 -4.77057617 71.75495117 -4.76367188 70.16992188 C-4.75188385 67.61192109 -4.7354289 65.05403642 -4.71484375 62.49609375 C-5.33359375 62.35816406 -5.95234375 62.22023438 -6.58984375 62.078125 C-9.20447598 61.36198492 -10.64675492 60.2410437 -12.71484375 58.49609375 C-13.37484375 57.95984375 -14.03484375 57.42359375 -14.71484375 56.87109375 C-21.18838494 49.18376359 -21.37536171 40.78448219 -21.29125977 31.1574707 C-21.27734347 28.93354852 -21.31160589 26.71380615 -21.34960938 24.49023438 C-21.38888914 17.80170657 -21.40678362 11.76363463 -17.47241211 6.05883789 C-11.8707198 1.07808606 -7.27272116 -0.10610897 0 0 Z " fill="#EFC79F" transform="translate(244.71484375,207.50390625)"/>
<path d="M0 0 C4.16022855 0.86671428 5.43439786 2.24287456 8 5.625 C8.60280506 8.92023643 8.47418545 12.10180481 8.3125 15.4375 C8.28994141 16.32115234 8.26738281 17.20480469 8.24414062 18.11523438 C8.18547428 20.2858891 8.09579979 22.4556669 8 24.625 C8.76143311 24.60928955 9.52286621 24.5935791 10.30737305 24.57739258 C13.7673394 24.51491547 17.2271869 24.47596828 20.6875 24.4375 C21.88568359 24.41236328 23.08386719 24.38722656 24.31835938 24.36132812 C25.47529297 24.35166016 26.63222656 24.34199219 27.82421875 24.33203125 C28.88729248 24.3163208 29.95036621 24.30061035 31.0456543 24.28442383 C34.42477331 24.67396775 36.27990964 25.61704546 39 27.625 C40.40457737 30.43415474 40.24895157 32.51310534 40 35.625 C38.22015595 38.7609157 37.47691793 39.46602736 34 40.625 C32.28791626 40.72082537 30.57241714 40.76038024 28.85766602 40.7668457 C27.80970352 40.77388016 26.76174103 40.78091461 25.68202209 40.78816223 C24.55074387 40.79232651 23.41946564 40.79649078 22.25390625 40.80078125 C19.86652758 40.82397293 17.47915775 40.84809 15.09179688 40.87304688 C11.32147243 40.90821919 7.55147471 40.93753915 3.78100586 40.95092773 C0.14656974 40.96636512 -3.48690925 41.00654267 -7.12109375 41.05078125 C-8.81497475 41.04791862 -8.81497475 41.04791862 -10.54307556 41.04499817 C-11.59419022 41.06148911 -12.64530487 41.07798004 -13.72827148 41.0949707 C-14.65187973 41.10083694 -15.57548798 41.10670319 -16.52708435 41.11274719 C-19.76820641 41.78413033 -20.97212376 43.05778472 -23 45.625 C-23.58575576 49.13953455 -23.54972054 50.83020922 -21.50878906 53.78100586 C-17.94701678 56.39895701 -14.61074733 56.17199484 -10.359375 56.12890625 C-9.09785614 56.1430381 -9.09785614 56.1430381 -7.81085205 56.15745544 C-5.12365389 56.18610258 -2.43733842 56.1891853 0.25 56.1875 C2.92292797 56.19112055 5.59521035 56.20082606 8.26800537 56.22825623 C9.92860888 56.24489393 11.58942348 56.24804029 13.25006104 56.23524475 C21.66349691 56.31072163 28.07255479 58.87353099 34.234375 64.68359375 C39.19235695 70.13518009 40.75103257 75.46893393 40.4453125 82.81640625 C39.29922804 90.04478105 35.6901591 96.03044279 29.8671875 100.44140625 C22.7867486 104.92963426 16.25739071 104.99658258 8 104.625 C8.05220703 106.48705078 8.05220703 106.48705078 8.10546875 108.38671875 C8.13361584 110.02863226 8.16091501 111.67056046 8.1875 113.3125 C8.21263672 114.12912109 8.23777344 114.94574219 8.26367188 115.78710938 C8.32170486 120.56515822 8.14903871 123.75923093 5 127.625 C2.19084526 129.02957737 0.11189466 128.87395157 -3 128.625 C-6.1359157 126.84515595 -6.84102736 126.10191793 -8 122.625 C-8.08021999 121.21675107 -8.10765977 119.80502769 -8.09765625 118.39453125 C-8.09443359 117.59208984 -8.09121094 116.78964844 -8.08789062 115.96289062 C-8.07951172 115.12951172 -8.07113281 114.29613281 -8.0625 113.4375 C-8.05798828 112.59251953 -8.05347656 111.74753906 -8.04882812 110.87695312 C-8.03705403 108.79293845 -8.0191189 106.70896023 -8 104.625 C-8.79172607 104.65118408 -9.58345215 104.67736816 -10.39916992 104.7043457 C-13.99507717 104.80844122 -17.59066731 104.873369 -21.1875 104.9375 C-22.43337891 104.97939453 -23.67925781 105.02128906 -24.96289062 105.06445312 C-35.26947612 105.20261111 -35.26947612 105.20261111 -38.32421875 102.29296875 C-40.40147555 98.98582098 -40.79827906 97.45673951 -40 93.625 C-38.20727539 90.97729492 -38.20727539 90.97729492 -35 88.625 C-31.023606 87.88529587 -27.09347734 87.951542 -23.05859375 87.98828125 C-21.8987648 87.97790329 -20.73893585 87.96752533 -19.54396057 87.95683289 C-15.84150552 87.92713675 -12.14005273 87.93052992 -8.4375 87.9375 C-4.73165809 87.92861194 -1.02608494 87.91267608 2.67967224 87.8860321 C4.98452752 87.87110004 7.28948759 87.86732365 9.59437561 87.87580872 C10.63903488 87.87207748 11.68369415 87.86834625 12.76000977 87.86450195 C14.13637352 87.86713799 14.13637352 87.86713799 15.5405426 87.86982727 C18.17205249 87.60787299 19.78075626 87.04484367 22 85.625 C23.38550197 82.85399606 23.1877467 80.6915294 23 77.625 C21.27773504 74.37650023 21.27773504 74.37650023 18 73.625 C15.07311378 73.5181498 12.16571998 73.46382935 9.23828125 73.44921875 C7.46157683 73.42601002 5.6848841 73.40189226 3.90820312 73.37695312 C1.11491185 73.34193597 -1.67795214 73.31254605 -4.47143555 73.29907227 C-7.17288802 73.28350124 -9.87309861 73.24322602 -12.57421875 73.19921875 C-13.39846848 73.20112717 -14.2227182 73.20303558 -15.07194519 73.20500183 C-22.01681851 73.06012989 -27.21283699 71.05823755 -32.4609375 66.4765625 C-38.40599793 59.56087995 -40.53700605 54.55118267 -40.30078125 45.36328125 C-39.44571185 37.57881831 -35.03190339 33.27894 -29.31640625 28.2890625 C-24.46088912 24.8009507 -20.62179433 24.38907861 -14.6875 24.5 C-13.43324219 24.51804687 -12.17898438 24.53609375 -10.88671875 24.5546875 C-9.45779297 24.58949219 -9.45779297 24.58949219 -8 24.625 C-8.05800781 23.31144531 -8.11601562 21.99789063 -8.17578125 20.64453125 C-8.22269048 18.90888977 -8.26818939 17.17320977 -8.3125 15.4375 C-8.35439453 14.57318359 -8.39628906 13.70886719 -8.43945312 12.81835938 C-8.52658088 8.27029077 -8.49819341 6.28174742 -5.66796875 2.55078125 C-3 0.625 -3 0.625 0 0 Z " fill="#EFEFED" transform="translate(400,335.375)"/>
<path d="M0 0 C7.01534685 4.5696296 12.22558105 11.77314851 14 20 C14.92304179 30.40070304 12.91319303 39.42335652 6.7890625 47.9609375 C0.65788728 54.94887083 -7.67623775 58.27549541 -16.76171875 59.31640625 C-25.93199028 59.7128894 -33.02219311 56.45775754 -40.14453125 50.828125 C-47.24558539 43.83171798 -49.94455347 35.24754696 -50.375 25.5625 C-50.18132644 16.79877125 -45.98855604 9.27939099 -40 3 C-27.64099958 -7.00701829 -13.86602541 -7.71692163 0 0 Z " fill="#095078" transform="translate(418,85)"/>
<path d="M0 0 C0.90878906 0.00257813 1.81757813 0.00515625 2.75390625 0.0078125 C4.15962891 0.05035156 4.15962891 0.05035156 5.59375 0.09375 C6.53089844 0.09117187 7.46804687 0.08859375 8.43359375 0.0859375 C13.39812377 0.15635637 17.12324427 0.27414685 21.09375 3.59375 C22.74148901 6.88922803 22.22270725 10.55282164 22.20727539 14.17431641 C22.20742142 15.06218338 22.20756744 15.95005035 22.2077179 16.86482239 C22.20701955 19.80834369 22.19923081 22.75180221 22.19140625 25.6953125 C22.18954179 27.73269618 22.18811802 29.77008031 22.18711853 31.8074646 C22.18329555 37.17672966 22.17346711 42.54596777 22.16241455 47.91522217 C22.15219574 53.3913944 22.1476199 58.86757098 22.14257812 64.34375 C22.13184466 75.09376376 22.11424962 85.84375043 22.09375 96.59375 C11.53375 96.59375 0.97375 96.59375 -9.90625 96.59375 C-10.01920122 84.81519677 -10.11093773 73.03700309 -10.16531086 61.25803089 C-10.19140697 55.78859655 -10.22680588 50.31955187 -10.28344727 44.8503418 C-10.33776563 39.57242184 -10.36767043 34.29487673 -10.38063622 29.01669884 C-10.38987635 27.00281561 -10.4079203 24.98895295 -10.43490028 22.97522926 C-10.47118813 20.15466576 -10.47619545 17.33565187 -10.47387695 14.51489258 C-10.49185333 13.68195175 -10.50982971 12.84901093 -10.52835083 11.99082947 C-10.48998218 7.67819295 -10.29024186 6.07994376 -7.52177429 2.57463074 C-4.6847317 0.42598198 -3.49910934 -0.03018839 0 0 Z " fill="#0A5077" transform="translate(137.90625,351.40625)"/>
<path d="M0 0 C0.90380859 1.64453125 0.90380859 1.64453125 1.6484375 3.8125 C1.92929199 4.62887939 2.21014648 5.44525879 2.49951172 6.28637695 C2.78842285 7.18187256 3.07733398 8.07736816 3.375 9 C3.67809082 9.92321045 3.98118164 10.8464209 4.29345703 11.79760742 C9.43660816 28.09963235 13.06601586 45.51719879 13.23828125 62.65234375 C13.24812042 63.4612355 13.25795959 64.27012726 13.26809692 65.10353088 C13.53653235 92.92751143 12.84822798 123.95533237 -1 149 C-4.97333709 147.84982347 -8.54838893 146.28113523 -12.2265625 144.41796875 C-13.12197754 143.96574951 -14.01739258 143.51353027 -14.93994141 143.04760742 C-15.95967041 142.52904175 -15.95967041 142.52904175 -17 142 C-16.80889648 141.4330542 -16.61779297 140.8661084 -16.42089844 140.28198242 C-10.35212076 122.135899 -4.91316521 103.85391088 -4.796875 84.57421875 C-4.78628555 83.40279327 -4.78628555 83.40279327 -4.77548218 82.20770264 C-4.58496919 54.95317908 -8.21320677 31.86962795 -17 6 C-14.73495035 4.80015203 -12.46410112 3.61505231 -10.1875 2.4375 C-9.54490234 2.09525391 -8.90230469 1.75300781 -8.24023438 1.40039062 C-3.33984375 -1.11328125 -3.33984375 -1.11328125 0 0 Z " fill="#00A0C7" transform="translate(443,182)"/>
<path d="M0 0 C0.5669458 0.19110352 1.1338916 0.38220703 1.71801758 0.57910156 C47.74480154 15.97230308 90.17627974 15.56433497 136 0 C137.19984797 2.26504965 138.38494769 4.53589888 139.5625 6.8125 C139.90474609 7.45509766 140.24699219 8.09769531 140.59960938 8.75976562 C141.4765023 10.46926395 142.24515617 12.23321294 143 14 C142 17 142 17 140.35546875 17.90380859 C139.28232422 18.2723999 139.28232422 18.2723999 138.1875 18.6484375 C137.37112061 18.92929199 136.55474121 19.21014648 135.71362305 19.49951172 C134.81812744 19.78842285 133.92263184 20.07733398 133 20.375 C132.07678955 20.67809082 131.1535791 20.98118164 130.20239258 21.29345703 C113.90036765 26.43660816 96.48280121 30.06601586 79.34765625 30.23828125 C78.5387645 30.24812042 77.72987274 30.25795959 76.89646912 30.26809692 C49.07248857 30.53653235 18.04466763 29.84822798 -7 16 C-5.84982347 12.02666291 -4.28113523 8.45161107 -2.41796875 4.7734375 C-1.96574951 3.87802246 -1.51353027 2.98260742 -1.04760742 2.06005859 C-0.70189697 1.38023926 -0.35618652 0.70041992 0 0 Z " fill="#00A0C7" transform="translate(188,426)"/>
<path d="M0 0 C3.97333709 1.15017653 7.54838893 2.71886477 11.2265625 4.58203125 C12.12197754 5.03425049 13.01739258 5.48646973 13.93994141 5.95239258 C14.61976074 6.29810303 15.29958008 6.64381348 16 7 C15.80889648 7.5669458 15.61779297 8.1338916 15.42089844 8.71801758 C9.35212076 26.864101 3.91316521 45.14608912 3.796875 64.42578125 C3.78981537 65.20673157 3.78275574 65.98768188 3.77548218 66.79229736 C3.58496919 94.04682092 7.21320677 117.13037205 16 143 C13.73495035 144.19984797 11.46410112 145.38494769 9.1875 146.5625 C8.54490234 146.90474609 7.90230469 147.24699219 7.24023438 147.59960938 C5.53073605 148.4765023 3.76678706 149.24515617 2 150 C-1 149 -1 149 -1.90380859 147.35546875 C-2.2723999 146.28232422 -2.2723999 146.28232422 -2.6484375 145.1875 C-2.92929199 144.37112061 -3.21014648 143.55474121 -3.49951172 142.71362305 C-3.78842285 141.81812744 -4.07733398 140.92263184 -4.375 140 C-4.67809082 139.07678955 -4.98118164 138.1535791 -5.29345703 137.20239258 C-10.43660816 120.90036765 -14.06601586 103.48280121 -14.23828125 86.34765625 C-14.24812042 85.5387645 -14.25795959 84.72987274 -14.26809692 83.89646912 C-14.53653235 56.07248857 -13.84822798 25.04466763 0 0 Z " fill="#00A0C7" transform="translate(70,181)"/>
<path d="M0 0 C1.21333763 -0.01475876 1.21333763 -0.01475876 2.45118713 -0.02981567 C30.27516768 -0.2982511 61.30298862 0.39005327 86.34765625 14.23828125 C85.19747972 18.21161834 83.62879148 21.78667018 81.765625 25.46484375 C81.31340576 26.36025879 80.86118652 27.25567383 80.39526367 28.17822266 C80.04955322 28.85804199 79.70384277 29.53786133 79.34765625 30.23828125 C78.78071045 30.04717773 78.21376465 29.85607422 77.62963867 29.65917969 C31.60285471 14.26597817 -10.82862349 14.67394628 -56.65234375 30.23828125 C-57.85219172 27.9732316 -59.03729144 25.70238237 -60.21484375 23.42578125 C-60.55708984 22.78318359 -60.89933594 22.14058594 -61.25195312 21.47851562 C-62.12884605 19.7690173 -62.89749992 18.00506831 -63.65234375 16.23828125 C-62.65234375 13.23828125 -62.65234375 13.23828125 -61.0078125 12.33447266 C-59.93466797 11.96588135 -59.93466797 11.96588135 -58.83984375 11.58984375 C-58.02346436 11.30898926 -57.20708496 11.02813477 -56.3659668 10.73876953 C-55.47047119 10.4498584 -54.57497559 10.16094727 -53.65234375 9.86328125 C-52.7291333 9.56019043 -51.80592285 9.25709961 -50.85473633 8.94482422 C-34.5527114 3.80167309 -17.13514496 0.17226539 0 0 Z " fill="#009FC7" transform="translate(244.65234375,55.76171875)"/>
<path d="M0 0 C0.90878906 0.00257813 1.81757812 0.00515625 2.75390625 0.0078125 C4.15962891 0.05035156 4.15962891 0.05035156 5.59375 0.09375 C6.53089844 0.09117187 7.46804687 0.08859375 8.43359375 0.0859375 C13.39812377 0.15635637 17.12324427 0.27414685 21.09375 3.59375 C22.42328792 6.25282584 22.21361031 8.25940368 22.20727539 11.23681641 C22.20719986 12.41788971 22.20712433 13.59896301 22.20704651 14.81582642 C22.20188522 16.09605682 22.19672394 17.37628723 22.19140625 18.6953125 C22.1899913 20.00204926 22.18857635 21.30878601 22.18711853 22.65512085 C22.18329894 26.13051258 22.17347342 29.60586257 22.16241455 33.08123779 C22.15218843 36.62706935 22.14756358 40.17290784 22.14257812 43.71875 C22.13238122 50.67712021 22.11280824 57.63537577 22.09375 64.59375 C11.53375 64.59375 0.97375 64.59375 -9.90625 64.59375 C-10.01119276 56.99356218 -10.1113446 49.39600677 -10.16500092 41.79572296 C-10.19137405 38.25632138 -10.22659704 34.71752122 -10.28344727 31.1784668 C-10.34831064 27.11501339 -10.37245732 23.05219402 -10.39453125 18.98828125 C-10.42033768 17.7235347 -10.4461441 16.45878815 -10.47273254 15.15571594 C-10.47552046 6.43850011 -10.47552046 6.43850011 -7.68237305 2.29370117 C-4.79030739 0.52275287 -3.35059745 -0.02890712 0 0 Z " fill="#C80A4F" transform="translate(105.90625,383.40625)"/>
<path d="M0 0 C4.23848364 0.88301743 5.42854262 2.11730128 8 5.625 C8.73290616 9.59258571 8.652778 13.50675896 8.59375 17.53125 C8.59379028 18.68870728 8.59383057 19.84616455 8.59387207 21.03869629 C8.58851653 23.48304684 8.57093268 25.92739694 8.54199219 28.37158203 C8.50015061 32.11153833 8.50092365 35.84969293 8.5078125 39.58984375 C8.49731945 41.96615834 8.48438074 44.34246365 8.46875 46.71875 C8.46854858 47.8365686 8.46834717 48.95438721 8.46813965 50.1060791 C8.45222778 51.15066284 8.43631592 52.19524658 8.41992188 53.27148438 C8.41150269 54.1868396 8.4030835 55.10219482 8.39440918 56.04528809 C7.91351025 59.19070346 6.89525951 61.08327163 5 63.625 C-0.87465863 65.58321954 -7.59532171 64.93206286 -13.75976562 64.97509766 C-15.49981045 64.99166642 -17.23978695 65.01896889 -18.97949219 65.05712891 C-21.49449786 65.11196881 -24.00791407 65.1337786 -26.5234375 65.1484375 C-27.29754974 65.17110687 -28.07166199 65.19377625 -28.86923218 65.21713257 C-32.91540937 65.20135093 -34.76836313 64.80664113 -37.99072266 62.27978516 C-40 59.625 -40 59.625 -40.625 56.625 C-39.9894095 53.57416561 -39.22387827 51.81395695 -36.95703125 49.65478516 C-32.27770544 47.19253512 -26.32127921 48.13986904 -21.1875 48.3125 C-19.92228516 48.33505859 -18.65707031 48.35761719 -17.35351562 48.38085938 C-14.23447381 48.43970922 -11.11784098 48.5218863 -8 48.625 C-8.02618408 47.34858643 -8.05236816 46.07217285 -8.0793457 44.75708008 C-8.16995416 40.0142576 -8.22728827 35.27151138 -8.2746582 30.52807617 C-8.29977806 28.47651294 -8.33388036 26.42503899 -8.37719727 24.3737793 C-8.43796002 21.42213909 -8.46623492 18.4716835 -8.48828125 15.51953125 C-8.51408768 14.60476517 -8.5398941 13.68999908 -8.56648254 12.74751282 C-8.56847297 8.21218804 -8.48157193 6.25791307 -5.65698242 2.5456543 C-3 0.625 -3 0.625 0 0 Z " fill="#0B5178" transform="translate(112,55.375)"/>
<path d="M0 0 C0.89297791 -0.00570007 1.78595581 -0.01140015 2.70599365 -0.01727295 C4.59906833 -0.02672986 6.49215952 -0.03325967 8.38525391 -0.03710938 C11.27145476 -0.04678974 14.15693589 -0.07779591 17.04296875 -0.109375 C18.88280827 -0.11590764 20.72265289 -0.12115709 22.5625 -0.125 C23.42208313 -0.1373468 24.28166626 -0.1496936 25.16729736 -0.16241455 C30.91165895 -0.14123443 35.31638346 0.65423385 39.69140625 4.73828125 C43.79628156 10.10619512 44.17952137 13.1804076 44.109375 19.828125 C44.10486328 20.62992188 44.10035156 21.43171875 44.09570312 22.2578125 C44.08390668 24.23961506 44.06597105 26.22137933 44.046875 28.203125 C43.37591797 27.29433594 43.37591797 27.29433594 42.69140625 26.3671875 C38.98608775 21.4913052 36.01511809 18.75203236 30.046875 17.203125 C27.17326478 16.90213634 24.31758325 16.85201078 21.4296875 16.83203125 C20.61370087 16.82300278 19.79771423 16.8139743 18.95700073 16.80467224 C17.23748412 16.79022157 15.51791318 16.78129595 13.79833984 16.77758789 C11.18622056 16.76569034 8.57646556 16.71645678 5.96484375 16.66601562 C4.28646975 16.65654964 2.60808138 16.64931544 0.9296875 16.64453125 C0.1585965 16.62499893 -0.61249451 16.60546661 -1.4069519 16.58534241 C-7.27575193 16.63349049 -11.47349897 18.36931151 -15.953125 22.203125 C-17.97524548 25.32033251 -17.97524548 25.32033251 -18.953125 28.203125 C-19.283125 28.203125 -19.613125 28.203125 -19.953125 28.203125 C-20.06174333 25.49370107 -20.14071077 22.788686 -20.203125 20.078125 C-20.23664063 19.31757813 -20.27015625 18.55703125 -20.3046875 17.7734375 C-20.39725351 12.40460905 -19.49557382 9.47338603 -15.953125 5.203125 C-10.5280473 0.42388989 -7.08195108 0.03468724 0 0 Z " fill="#0D4F77" transform="translate(243.953125,191.796875)"/>
<path d="M0 0 C0.93714844 -0.00257813 1.87429687 -0.00515625 2.83984375 -0.0078125 C7.80437377 0.06260637 11.52949427 0.18039685 15.5 3.5 C16.88308781 6.26617563 16.61210196 8.51018 16.59765625 11.6015625 C16.59515869 12.69291504 16.59266113 13.78426758 16.59008789 14.90869141 C16.58098389 16.30007324 16.57187988 17.69145508 16.5625 19.125 C16.541875 23.53875 16.52125 27.9525 16.5 32.5 C5.94 32.5 -4.62 32.5 -15.5 32.5 C-15.603125 28.148125 -15.70625 23.79625 -15.8125 19.3125 C-15.85802002 17.94843018 -15.90354004 16.58436035 -15.95043945 15.17895508 C-16.05061185 6.48463713 -16.05061185 6.48463713 -13.63671875 2.16796875 C-9.06372018 -0.26375029 -5.10044587 -0.15434637 0 0 Z " fill="#01A0C7" transform="translate(79.5,415.5)"/>
<path d="M0 0 C10.56 0 21.12 0 32 0 C32.061875 3.34125 32.12375 6.6825 32.1875 10.125 C32.22846802 11.68758545 32.22846802 11.68758545 32.27026367 13.28173828 C32.32520339 19.42435342 31.81517317 23.91357316 27.5 28.64453125 C22.09279135 32.85483174 17.72106323 33.82862423 11 33 C5.6964772 30.29820537 1.90167702 26.70503105 0 21 C-0.08143855 19.37280518 -0.1075302 17.74248281 -0.09765625 16.11328125 C-0.09515869 15.26805908 -0.09266113 14.42283691 -0.09008789 13.55200195 C-0.08098389 12.48296631 -0.07187988 11.41393066 -0.0625 10.3125 C-0.041875 6.909375 -0.02125 3.50625 0 0 Z " fill="#D2AA80" transform="translate(240,271)"/>
<path d="M0 0 C31.68 0 63.36 0 96 0 C96 2.64 96 5.28 96 8 C64.32 8 32.64 8 0 8 C0 5.36 0 2.72 0 0 Z " fill="#DC9600" transform="translate(64,448)"/>
<path d="M0 0 C2 3 2 3 3.6875 6.3125 C6.93777025 12.03685656 11.73543888 16.00222788 18 18 C21.02026648 18.29626239 24.02943711 18.30080586 27.0625 18.30859375 C28.84635756 18.33374515 30.63021165 18.35914329 32.4140625 18.38476562 C35.21190558 18.4135308 38.00968874 18.43756487 40.80761719 18.45629883 C43.5178844 18.47797144 46.22746943 18.5173999 48.9375 18.55859375 C49.77095947 18.55870956 50.60441895 18.55882538 51.46313477 18.5589447 C56.11433911 18.63804743 59.22413062 18.97828849 63 22 C64.35439668 24.70879335 64.06501451 27.00933268 64 30 C63.04637573 29.51345947 63.04637573 29.51345947 62.07348633 29.01708984 C57.93753952 27.64840652 54.15218689 27.72146153 49.82421875 27.7265625 C48.00845742 27.70626958 46.19270226 27.68541872 44.37695312 27.6640625 C41.53323142 27.6415069 38.6897542 27.62500465 35.84594727 27.61914062 C33.08826196 27.60956616 30.33165899 27.57572921 27.57421875 27.5390625 C26.31444466 27.54663071 26.31444466 27.54663071 25.02922058 27.55435181 C18.02161286 27.43876584 12.8029132 25.48702933 7.5390625 20.81640625 C6.90742188 20.07261719 6.27578125 19.32882812 5.625 18.5625 C4.97789062 17.82128906 4.33078125 17.08007812 3.6640625 16.31640625 C0.82181838 12.35994906 -0.26996546 9.04384278 -0.125 4.1875 C-0.10695313 3.39730469 -0.08890625 2.60710937 -0.0703125 1.79296875 C-0.03550781 0.90544922 -0.03550781 0.90544922 0 0 Z " fill="#DC9703" transform="translate(360,389)"/>
<path d="M0 0 C-0.29296875 5.95703125 -0.29296875 5.95703125 -1 8 C-4.52472584 10.55652643 -7.0280576 11.37667371 -11.35351562 11.40063477 C-12.39809937 11.41397354 -13.44268311 11.42731232 -14.5189209 11.4410553 C-15.6367395 11.44117111 -16.75455811 11.44128693 -17.90625 11.44140625 C-19.64243591 11.46121803 -19.64243591 11.46121803 -21.41369629 11.48143005 C-25.1091554 11.52230283 -28.80436607 11.54399058 -32.5 11.5625 C-36.19555804 11.58629734 -39.89088241 11.61443691 -43.58630371 11.65428162 C-45.88447941 11.6786067 -48.18277888 11.69349118 -50.4810791 11.69789124 C-51.52566284 11.70807785 -52.57024658 11.71826447 -53.64648438 11.72875977 C-54.5618396 11.73303482 -55.47719482 11.73730988 -56.42028809 11.74171448 C-59.24961046 12.02499146 -61.42130461 12.82932768 -64 14 C-64.43290298 10.2770344 -64.32777339 8.49303653 -62.22680664 5.33276367 C-57.36766675 1.8199331 -52.91292736 2.30997516 -47.05859375 2.36328125 C-45.8987648 2.35290329 -44.73893585 2.34252533 -43.54396057 2.33183289 C-39.84150552 2.30213675 -36.14005273 2.30552992 -32.4375 2.3125 C-28.73165809 2.30361194 -25.02608494 2.28767608 -21.32032776 2.2610321 C-19.01547248 2.24610004 -16.71051241 2.24232365 -14.40562439 2.25080872 C-13.36096512 2.24707748 -12.31630585 2.24334625 -11.23999023 2.23950195 C-9.86362648 2.24213799 -9.86362648 2.24213799 -8.4594574 2.24482727 C-5.30427441 1.93074383 -3.09090079 0 0 0 Z " fill="#DC9601" transform="translate(440,373)"/>
<path d="M0 0 C6.28002842 4.09066071 10.63058813 9.89176438 13 17 C13.12781786 19.67394964 13.04391871 22.32095857 13 25 C11.82689145 23.24033718 10.66254349 21.47467192 9.51953125 19.6953125 C4.12242375 11.56877535 -0.72285154 7.02921555 -10.2578125 4.5078125 C-18.98476197 2.89171075 -26.33829154 3.41729587 -34 8 C-35.04994141 8.61875 -35.04994141 8.61875 -36.12109375 9.25 C-41.24075955 12.65665853 -43.96187645 16.64891617 -46.87109375 22.0234375 C-47.24363281 22.67570312 -47.61617188 23.32796875 -48 24 C-48.33 24 -48.66 24 -49 24 C-49.63636013 16.3636784 -46.95018883 11.2326832 -42.25 5.3125 C-30.86731444 -7.27744009 -14.32922641 -7.97470897 0 0 Z " fill="#00355D" transform="translate(418,85)"/>
<path d="M0 0 C0.33 0 0.66 0 1 0 C1.44680851 8.78723404 1.44680851 8.78723404 -2 13 C-5.7696881 14.2565627 -9.31717743 14.18175362 -13.24609375 14.203125 C-14.45737694 14.21167511 -14.45737694 14.21167511 -15.69313049 14.22039795 C-17.40030612 14.22983834 -19.10749989 14.23637812 -20.81469727 14.24023438 C-23.42431375 14.2499509 -26.03314607 14.2809869 -28.64257812 14.3125 C-30.30207866 14.31902933 -31.96158482 14.32428007 -33.62109375 14.328125 C-34.40036728 14.3404718 -35.17964081 14.3528186 -35.98252869 14.36553955 C-39.22277164 14.35223287 -41.58383795 14.22539875 -44.46118164 12.66699219 C-47.64362084 9.21947595 -47.0837596 5.43925874 -47 1 C-46.349104 1.65049316 -45.69820801 2.30098633 -45.02758789 2.97119141 C-41.17513169 5.55275024 -38.03471735 5.54437276 -33.55859375 5.4609375 C-32.75390152 5.46002106 -31.94920929 5.45910461 -31.12013245 5.4581604 C-29.42483596 5.45213694 -27.7295495 5.4364286 -26.03442383 5.41162109 C-23.44247156 5.37507011 -20.85194899 5.37060229 -18.25976562 5.37109375 C-16.60936267 5.36126319 -14.95896938 5.34960645 -13.30859375 5.3359375 C-12.14909462 5.33259903 -12.14909462 5.33259903 -10.96617126 5.32919312 C-5.64519532 5.28623651 -5.64519532 5.28623651 -1 3 C-0.67 2.01 -0.34 1.02 0 0 Z " fill="#D1D1D2" transform="translate(119,114)"/>
<path d="M0 0 C0.66 0.33 1.32 0.66 2 1 C1.49408915 6.43854165 -0.46353938 10.12906684 -3.25 14.6875 C-3.82427734 15.68233398 -3.82427734 15.68233398 -4.41015625 16.69726562 C-6.75019396 20.58298042 -8.69930654 23.13472379 -13 25 C-16.60292108 24.84668421 -18.77704113 24.12333895 -21.9375 22.375 C-25.96519171 20.56664862 -27.75929216 20.77810113 -32 22 C-35.13803359 23.82191753 -38.05360309 25.88771545 -41 28 C-41.66 28.33 -42.32 28.66 -43 29 C-43.29606025 25.22523177 -43.40414491 22.73800375 -41.5625 19.375 C-37.04484237 15.18790269 -32.60921993 12 -26.3125 12 C-23 13 -23 13 -20 14.625 C-15.97579028 16.46942945 -14.18102001 16.49322143 -10 15 C-7.58093486 12.23452935 -5.82081764 9.17987172 -4 6 C-3.21896714 4.80547916 -2.42899284 3.6166895 -1.625 2.4375 C-1.08875 1.633125 -0.5525 0.82875 0 0 Z " fill="#00345C" transform="translate(459,138)"/>
<path d="M0 0 C3.78707753 3.51715623 6.03189708 7.28248975 8.53515625 11.7578125 C9.9572567 14.25547276 9.9572567 14.25547276 13 16 C16.75275655 15.79151352 19.33509867 15.40542764 22.5625 13.4375 C25.83131093 11.50973971 27.23018466 11.35984268 31 12 C36.09508013 14.45996838 41.06365055 16.99873385 44 22 C44.37460816 24.73713695 44.13898721 27.22025584 44 30 C42.7315625 28.88625 42.7315625 28.88625 41.4375 27.75 C37.32387045 24.35262594 33.38528864 21.39754811 28 20.5 C25.10292711 20.98284548 23.95577817 21.53272086 21.5625 23.0625 C18.7051274 24.83255382 17.90940797 25.00153546 14.3125 25.0625 C7.77602106 22.96589355 4.71008722 15.64668582 1.41796875 9.9609375 C-0.36941881 6.22859652 -0.641512 4.03236117 0 0 Z " fill="#00345C" transform="translate(340,138)"/>
<path d="M0 0 C0.33 0 0.66 0 1 0 C1.55062262 6.60747148 0.98072375 11.56785955 -3 17 C-7.88895024 22.42683081 -12.56050969 26.44402386 -20 27 C-23.67430608 27.12670021 -27.32583681 27.12157158 -31 27 C-31 24.36 -31 21.72 -31 19 C-29.9378125 18.91363281 -28.875625 18.82726562 -27.78125 18.73828125 C-18.26235732 17.84152505 -11.57651187 16.70020138 -4.6875 9.625 C-2.68344391 6.50757942 -1.35241002 3.44864556 0 0 Z " fill="#DC9704" transform="translate(439,421)"/>
<path d="M0 0 C0.69311279 0.32145996 1.38622559 0.64291992 2.1003418 0.97412109 C5.3391539 2.11999029 7.96506423 2.31654211 11.39453125 2.4140625 C12.59658203 2.45273437 13.79863281 2.49140625 15.03710938 2.53125 C16.90592773 2.57765625 16.90592773 2.57765625 18.8125 2.625 C20.07771484 2.66367187 21.34292969 2.70234375 22.64648438 2.7421875 C25.76417851 2.83630657 28.88186914 2.92194361 32 3 C32 5.64 32 8.28 32 11 C27.58345745 11.08706286 23.16713543 11.14041378 18.75 11.1875 C17.49574219 11.21263672 16.24148438 11.23777344 14.94921875 11.26367188 C13.74394531 11.27333984 12.53867187 11.28300781 11.296875 11.29296875 C10.18666992 11.3086792 9.07646484 11.32438965 7.93261719 11.34057617 C4.67094286 10.96178532 3.32521016 10.27550258 1 8 C0.1960452 5.30469001 0.18580498 2.83352598 0 0 Z " fill="#DC9600" transform="translate(360,437)"/>
<path d="M0 0 C0.91458984 0.73089844 0.91458984 0.73089844 1.84765625 1.4765625 C6.37816861 3.66602944 10.47213314 3.43676683 15.4375 3.375 C16.8306543 3.39240234 16.8306543 3.39240234 18.25195312 3.41015625 C23.60252801 3.38730682 27.3456931 2.93710852 32 0 C31.96682761 1.43847561 31.89726123 2.8761407 31.8125 4.3125 C31.77769531 5.11300781 31.74289062 5.91351563 31.70703125 6.73828125 C31 9 31 9 29.109375 10.76953125 C24.550578 12.5735778 20.29487016 12.4348444 15.4375 12.375 C14.49197266 12.38660156 13.54644531 12.39820313 12.57226562 12.41015625 C11.66025391 12.40628906 10.74824219 12.40242187 9.80859375 12.3984375 C8.98157959 12.39505371 8.15456543 12.39166992 7.30249023 12.38818359 C4.47366915 11.91126434 3.08585743 10.94048925 1 9 C0.390625 6.73828125 0.390625 6.73828125 0.25 4.3125 C0.19328125 3.50425781 0.1365625 2.69601563 0.078125 1.86328125 C0.05234375 1.24839844 0.0265625 0.63351563 0 0 Z " fill="#00325A" transform="translate(384,172)"/>
<path d="M0 0 C0.70125 0.495 1.4025 0.99 2.125 1.5 C5.47730606 3.24902925 7.26724559 3.4665943 11 3 C13.81780534 1.61114752 13.81780534 1.61114752 16 0 C15.8111588 8.1888412 15.8111588 8.1888412 12.875 11.125 C9.0985372 12.27435824 6.78211282 12.12062602 3 11 C0.47509079 8.14929605 0.02771892 6.48970099 -0.1875 2.6875 C-0.125625 1.800625 -0.06375 0.91375 0 0 Z " fill="#DC9700" transform="translate(392,460)"/>
<path d="M0 0 C4.77609498 1.64178265 8.79382904 4.26546702 13 7 C12.67 9.31 12.34 11.62 12 14 C6.77757867 12.63222298 3.64711321 10.90762129 0 7 C-0.375 3.1875 -0.375 3.1875 0 0 Z " fill="#00365E" transform="translate(340,96)"/>
<path d="M0 0 C0.5 3.125 0.5 3.125 0 7 C-3.35641808 10.61214517 -7.14270703 13.05917298 -12 14 C-12.33 11.69 -12.66 9.38 -13 7 C-11.21190303 5.82786955 -9.41940875 4.66244474 -7.625 3.5 C-6.62726563 2.8503125 -5.62953125 2.200625 -4.6015625 1.53125 C-2 0 -2 0 0 0 Z " fill="#00355D" transform="translate(460,96)"/>
<path d="M0 0 C0.33 0 0.66 0 1 0 C1 2.97 1 5.94 1 9 C0.01 9 -0.98 9 -2 9 C-2.33 8.34 -2.66 7.68 -3 7 C-2.06421005 4.64018187 -1.06652192 2.30368736 0 0 Z " fill="#E1A21A" transform="translate(439,421)"/>
</svg>
