<?xml version="1.0" encoding="UTF-8"?>
<svg version="1.1" xmlns="http://www.w3.org/2000/svg" width="512" height="512">
<path d="M0 0 C70.95 0 141.9 0 215 0 C215 43.89 215 87.78 215 133 C168.8 133.33 122.6 133.66 75 134 C79.29 137.63 83.58 141.26 88 145 C90.78510206 147.59548857 93.51252633 150.17549815 96.1875 152.875 C96.86184082 153.55498047 97.53618164 154.23496094 98.23095703 154.93554688 C132.18546847 189.71147285 147.88822202 237.47010988 147.47241211 285.33666992 C147.27510226 298.14611053 146.04018825 310.52707439 143 323 C142.68651611 324.28632324 142.68651611 324.28632324 142.36669922 325.59863281 C133.09460889 362.08969095 113.32575932 390.67424068 87 417 C104.16 417.33 121.32 417.66 139 418 C139 410.41 139 402.82 139 395 C142.63060036 396.45224014 145.00185868 397.51208634 148.08203125 399.65234375 C148.84032227 400.17546143 149.59861328 400.6985791 150.37988281 401.23754883 C151.18264648 401.79853271 151.98541016 402.3595166 152.8125 402.9375 C153.65780273 403.52233154 154.50310547 404.10716309 155.37402344 404.7097168 C157.10365662 405.90651766 158.8320156 407.10516216 160.55908203 408.30566406 C163.32586516 410.22619566 166.10315718 412.1309085 168.88232422 414.03344727 C174.25022995 417.70958558 179.59805044 421.4137553 184.93359375 425.13671875 C186.48385254 426.21796021 186.48385254 426.21796021 188.06542969 427.32104492 C190.11011315 428.74807025 192.15377302 430.1765636 194.19628906 431.60668945 C195.13569336 432.26241943 196.07509766 432.91814941 197.04296875 433.59375 C197.87852295 434.17833984 198.71407715 434.76292969 199.57495117 435.36523438 C202.02166829 437.06085943 202.02166829 437.06085943 204.80981445 438.58789062 C205.53257568 439.05388672 206.25533691 439.51988281 207 440 C207 440.66 207 441.32 207 442 C204.9375 443.55859375 204.9375 443.55859375 202 445.4375 C200.90171875 446.15164063 199.8034375 446.86578125 198.671875 447.6015625 C198.07568359 447.98860352 197.47949219 448.37564453 196.86523438 448.77441406 C193.62547015 450.90315966 190.43955731 453.10953643 187.25 455.3125 C185.88021444 456.25651928 184.5104227 457.20052959 183.140625 458.14453125 C182.45548828 458.61713379 181.77035156 459.08973633 181.06445312 459.57666016 C177.7120622 461.88797036 174.35590374 464.1937946 171 466.5 C166.88180019 469.33056312 162.76422189 472.1620193 158.6484375 474.99609375 C157.93300781 475.48851562 157.21757812 475.9809375 156.48046875 476.48828125 C155.12084887 477.4241235 153.76145738 478.36029769 152.40234375 479.296875 C151.17937048 480.13846368 149.9551485 480.97824159 148.72949219 481.81591797 C147.57522186 482.60617927 146.42481246 483.40210927 145.27832031 484.20361328 C141.22178039 487 141.22178039 487 139 487 C139 479.41 139 471.82 139 464 C-0.92 464 -140.84 464 -285 464 C-281.15822956 459.51793449 -277.49704378 455.40366484 -273.3125 451.3125 C-270.27641855 448.34360707 -267.43864923 445.48261947 -265 442 C-266.48187617 438.53578519 -268.43741639 436.35348024 -271.1328125 433.7421875 C-271.93847656 432.95199219 -272.74414062 432.16179687 -273.57421875 431.34765625 C-274.83685547 430.12369141 -274.83685547 430.12369141 -276.125 428.875 C-277.79877215 427.25202519 -279.46829059 425.62464799 -281.1328125 423.9921875 C-281.87418457 423.27401855 -282.61555664 422.55584961 -283.37939453 421.81591797 C-285 420 -285 420 -285 418 C-223.62 417.505 -223.62 417.505 -161 417 C-165.95 412.05 -170.9 407.1 -176 402 C-178.40477502 399.19165957 -180.65037486 396.52284824 -182.8125 393.5625 C-183.33690674 392.85770508 -183.86131348 392.15291016 -184.40161133 391.42675781 C-208.23630524 358.95157978 -221.21404907 321.63934698 -221.25 281.25 C-221.25067474 280.56603149 -221.25134949 279.88206299 -221.25204468 279.17736816 C-221.19116496 240.1301382 -208.85536095 200.25616061 -184.24658203 169.55664062 C-183.08962395 168.11191584 -181.96333541 166.64277547 -180.83984375 165.171875 C-166.52439289 146.86950419 -148.95225043 132.66859223 -129 121 C-128.39607422 120.64309082 -127.79214844 120.28618164 -127.16992188 119.91845703 C-99.66342047 103.84783643 -68.34532145 97.04009647 -36.75 96.6875 C-35.71633301 96.66961426 -34.68266602 96.65172852 -33.61767578 96.63330078 C-22.40265169 96.64529546 -12.42472447 98.44208303 -1 100 C-0.67 67 -0.34 34 0 0 Z " fill="#F4F4F4" transform="translate(297,25)"/>
<path d="M0 0 C70.95 0 141.9 0 215 0 C215 43.89 215 87.78 215 133 C168.8 133.33 122.6 133.66 75 134 C79.29 137.63 83.58 141.26 88 145 C90.97025903 147.80361083 93.88328311 150.59915553 96.75 153.5 C97.79414062 154.53253906 97.79414062 154.53253906 98.859375 155.5859375 C99.519375 156.24851563 100.179375 156.91109375 100.859375 157.59375 C101.44170898 158.17833984 102.02404297 158.76292969 102.62402344 159.36523438 C104 161 104 161 105 164 C94.16129087 164.31366039 83.7356937 163.36326269 73 162 C73.0309375 163.88525391 73.0309375 163.88525391 73.0625 165.80859375 C73.0625 171.26724458 72.55880986 176.63675832 72 182.0625 C71.90460938 183.02349609 71.80921875 183.98449219 71.7109375 184.97460938 C71.4778808 187.31682923 71.24083651 189.65856955 71 192 C68.56846928 189.58131187 66.14950853 187.15661545 63.78125 184.67578125 C46.5225332 166.7964599 25.39802945 154.91495825 1.75 147.6875 C0.95891846 147.44491455 0.16783691 147.2023291 -0.6472168 146.95239258 C-12.23468705 143.57326122 -23.39324579 142.67939372 -35.4375 142.75 C-36.75298828 142.74226562 -38.06847656 142.73453125 -39.42382812 142.7265625 C-69.86651283 142.78681522 -99.20378948 153.03006316 -123 172 C-123.81549316 172.64727051 -123.81549316 172.64727051 -124.64746094 173.30761719 C-134.11011783 180.89146435 -142.76113364 189.18788695 -149.55078125 199.3125 C-151.87238471 202.01582263 -154.47491923 201.94680126 -157.93261719 202.29711914 C-159.04282227 202.37567139 -160.15302734 202.45422363 -161.296875 202.53515625 C-162.50214844 202.62216797 -163.70742187 202.70917969 -164.94921875 202.79882812 C-166.20347656 202.88583984 -167.45773438 202.97285156 -168.75 203.0625 C-170.01972656 203.15337891 -171.28945312 203.24425781 -172.59765625 203.33789062 C-175.73156113 203.56174097 -178.86566148 203.78232 -182 204 C-182.45519514 199.82006472 -182.90043924 195.63922226 -183.33666992 191.45727539 C-183.48631098 190.03608978 -183.63862214 188.61518259 -183.79370117 187.19458008 C-184.01671168 185.1473293 -184.22995951 183.09925473 -184.44140625 181.05078125 C-184.57232666 179.82012939 -184.70324707 178.58947754 -184.83813477 177.3215332 C-185.14832541 170.95630889 -183.44645878 167.74606856 -179.3125 163.0625 C-178.82628174 162.50256348 -178.34006348 161.94262695 -177.83911133 161.36572266 C-163.47225522 145.05054978 -147.75546675 131.96868217 -129 121 C-128.39607422 120.64309082 -127.79214844 120.28618164 -127.16992188 119.91845703 C-99.66342047 103.84783643 -68.34532145 97.04009647 -36.75 96.6875 C-35.71633301 96.66961426 -34.68266602 96.65172852 -33.61767578 96.63330078 C-22.40265169 96.64529546 -12.42472447 98.44208303 -1 100 C-0.505 50.5 -0.505 50.5 0 0 Z " fill="#FE5A96" transform="translate(297,25)"/>
<path d="M0 0 C62.37 0 124.74 0 189 0 C189 37.95 189 75.9 189 115 C126.63 115 64.26 115 0 115 C0 77.05 0 39.1 0 0 Z " fill="#99D000" transform="translate(2,0)"/>
<path d="M0 0 C1.69518272 3.62746993 3.3857132 7.25706762 5.07202148 10.88867188 C5.64595122 12.12298509 6.2211336 13.35671667 6.79760742 14.58984375 C7.62750572 16.36563994 8.45248346 18.14373305 9.27734375 19.921875 C9.77484131 20.99018555 10.27233887 22.05849609 10.78491211 23.15917969 C13.27022284 28.96972332 13.27022284 28.96972332 12.44604492 32.11206055 C12.12740479 32.86269775 11.80876465 33.61333496 11.48046875 34.38671875 C11.12299561 35.23403564 10.76552246 36.08135254 10.3972168 36.9543457 C9.79840698 38.30725708 9.79840698 38.30725708 9.1875 39.6875 C8.77733643 40.62360107 8.36717285 41.55970215 7.94458008 42.52416992 C-2.80180422 66.49937977 -18.50057389 85.50057389 -37 104 C-19.84 104.33 -2.68 104.66 15 105 C15 97.41 15 89.82 15 82 C18.63060036 83.45224014 21.00185868 84.51208634 24.08203125 86.65234375 C24.84032227 87.17546143 25.59861328 87.6985791 26.37988281 88.23754883 C27.18264648 88.79853271 27.98541016 89.3595166 28.8125 89.9375 C29.65780273 90.52233154 30.50310547 91.10716309 31.37402344 91.7097168 C33.10365662 92.90651766 34.8320156 94.10516216 36.55908203 95.30566406 C39.32586516 97.22619566 42.10315718 99.1309085 44.88232422 101.03344727 C50.25022995 104.70958558 55.59805044 108.4137553 60.93359375 112.13671875 C62.48385254 113.21796021 62.48385254 113.21796021 64.06542969 114.32104492 C66.11011315 115.74807025 68.15377302 117.1765636 70.19628906 118.60668945 C71.13569336 119.26241943 72.07509766 119.91814941 73.04296875 120.59375 C73.87852295 121.17833984 74.71407715 121.76292969 75.57495117 122.36523438 C78.02166829 124.06085943 78.02166829 124.06085943 80.80981445 125.58789062 C81.53257568 126.05388672 82.25533691 126.51988281 83 127 C83 127.66 83 128.32 83 129 C80.9375 130.55859375 80.9375 130.55859375 78 132.4375 C76.35257812 133.50871094 76.35257812 133.50871094 74.671875 134.6015625 C74.07568359 134.98860352 73.47949219 135.37564453 72.86523438 135.77441406 C69.62547015 137.90315966 66.43955731 140.10953643 63.25 142.3125 C61.88021444 143.25651928 60.5104227 144.20052959 59.140625 145.14453125 C58.45548828 145.61713379 57.77035156 146.08973633 57.06445312 146.57666016 C53.7120622 148.88797036 50.35590374 151.1937946 47 153.5 C42.88180019 156.33056312 38.76422189 159.1620193 34.6484375 161.99609375 C33.93300781 162.48851562 33.21757812 162.9809375 32.48046875 163.48828125 C31.12084887 164.4241235 29.76145738 165.36029769 28.40234375 166.296875 C27.17937048 167.13846368 25.9551485 167.97824159 24.72949219 168.81591797 C23.57522186 169.60617927 22.42481246 170.40210927 21.27832031 171.20361328 C17.22178039 174 17.22178039 174 15 174 C15 166.41 15 158.82 15 151 C-64.53 151 -144.06 151 -226 151 C-219.25 143.125 -219.25 143.125 -216.1328125 140.03515625 C-215.47539062 139.38095703 -214.81796875 138.72675781 -214.140625 138.05273438 C-213.47546875 137.39595703 -212.8103125 136.73917969 -212.125 136.0625 C-211.43664062 135.37865234 -210.74828125 134.69480469 -210.0390625 133.99023438 C-208.36166489 132.32448536 -206.68196209 130.6611378 -205 129 C-206.48418176 125.53479223 -208.4473727 123.33166315 -211.1328125 120.70703125 C-211.93847656 119.91232422 -212.74414062 119.11761719 -213.57421875 118.29882812 C-214.41597656 117.47833984 -215.25773438 116.65785156 -216.125 115.8125 C-217.79639582 114.1753437 -219.46578661 112.536137 -221.1328125 110.89453125 C-222.24487061 109.80942261 -222.24487061 109.80942261 -223.37939453 108.70239258 C-225 107 -225 107 -225 106 C-224.05611923 105.99191315 -223.11223846 105.98382629 -222.13975525 105.97549438 C-213.18218391 105.89752706 -204.22475509 105.80966703 -195.26737118 105.71247292 C-190.66387293 105.66283007 -186.06039416 105.61650125 -181.45678711 105.578125 C-177.00219945 105.54086273 -172.54778879 105.4944007 -168.09335518 105.44193649 C-166.40601311 105.42360728 -164.71863343 105.40842301 -163.03123283 105.39665604 C-148.46693879 105.2915952 -134.55610467 104.28266904 -120.5625 99.875 C-119.58240967 99.57078125 -118.60231934 99.2665625 -117.5925293 98.953125 C-108.88965835 96.14974502 -100.95744405 92.46222374 -93 88 C-91.92492187 87.42378906 -90.84984375 86.84757812 -89.7421875 86.25390625 C-82.48573085 82.23594496 -76.24667109 77.43589372 -70 72 C-69.16726563 71.30132812 -68.33453125 70.60265625 -67.4765625 69.8828125 C-51.11255509 55.79014997 -36.36961585 35.41822613 -30.26147461 14.46679688 C-28.5320757 11.08498024 -26.65735373 10.43132725 -23.22265625 8.88671875 C-22.06958984 8.36142578 -20.91652344 7.83613281 -19.72851562 7.29492188 C-19.12692627 7.03122803 -18.52533691 6.76753418 -17.90551758 6.49584961 C-16.06472036 5.68847385 -14.23616128 4.85746631 -12.40820312 4.02148438 C-3.46102484 0 -3.46102484 0 0 0 Z " fill="#0DCCFE" transform="translate(421,338)"/>
<path d="M0 0 C70.95 0 141.9 0 215 0 C215 43.89 215 87.78 215 133 C201.47 133 187.94 133 174 133 C174 99.67 174 66.34 174 32 C159.48 32 144.96 32 130 32 C130 50.81 130 69.62 130 89 C115.81 89 101.62 89 87 89 C87 76.46 87 63.92 87 51 C72.81 51 58.62 51 44 51 C44 78.06 44 105.12 44 133 C29.48 133 14.96 133 0 133 C0 89.11 0 45.22 0 0 Z " fill="#F5F4F4" transform="translate(297,25)"/>
<path d="M0 0 C2.27355183 2.85797581 4.13066781 5.86489577 5.95532227 9.02490234 C10.69885795 17.21913797 16.00677108 24.67928064 22 32 C22.66773438 32.82242188 23.33546875 33.64484375 24.0234375 34.4921875 C29.0699151 40.44497128 34.82659678 45.25122829 41 50 C41.8765625 50.680625 42.753125 51.36125 43.65625 52.0625 C63.20823378 66.78399367 85.05489408 74.62827942 109 79 C109 79.33 109 79.66 109 80 C94.15 80.33 79.3 80.66 64 81 C70.6 87.6 77.2 94.2 84 101 C79.16504639 110.66990722 71.9663547 120.22330389 62 125 C49.77923071 128.85958607 35.6407289 127.39574874 23.01909733 127.02787876 C17.94416873 126.90156829 12.86892148 126.89100639 7.79266357 126.86737061 C-1.78891552 126.80557197 -11.36584909 126.64198229 -20.94539571 126.44038081 C-31.86397542 126.21566212 -42.78279492 126.10658112 -53.70311689 126.00647211 C-76.13797222 125.79825378 -98.56872421 125.44721653 -121 125 C-120.06147153 123.89364445 -119.121284 122.78869617 -118.18041992 121.68432617 C-117.65703537 121.06885422 -117.13365082 120.45338226 -116.59440613 119.81925964 C-114.28473634 117.18386521 -111.81866507 114.76273949 -109.3125 112.3125 C-106.27641855 109.34360707 -103.43864923 106.48261947 -101 103 C-102.48187617 99.53578519 -104.43741639 97.35348024 -107.1328125 94.7421875 C-108.34130859 93.55689453 -108.34130859 93.55689453 -109.57421875 92.34765625 C-110.83685547 91.12369141 -110.83685547 91.12369141 -112.125 89.875 C-113.79877215 88.25202519 -115.46829059 86.62464799 -117.1328125 84.9921875 C-117.87418457 84.27401855 -118.61555664 83.55584961 -119.37939453 82.81591797 C-121 81 -121 81 -121 79 C-59.62 78.505 -59.62 78.505 3 78 C-1.95 73.05 -6.9 68.1 -12 63 C-14.40463882 60.19181863 -16.64949752 57.52201482 -18.8125 54.5625 C-19.32965576 53.87148193 -19.84681152 53.18046387 -20.37963867 52.46850586 C-35 32.63252324 -35 32.63252324 -35 28 C-24.44 28.66 -13.88 29.32 -3 30 C-2.38528277 23.12025577 -2.38528277 23.12025577 -1.77368164 16.24023438 C-1.28425851 10.80999204 -0.71427748 5.40534309 0 0 Z " fill="#FE5996" transform="translate(133,364)"/>
<path d="M0 0 C14.52 0 29.04 0 44 0 C44 33.33 44 66.66 44 101 C1.1 101 -41.8 101 -86 101 C-86 73.94 -86 46.88 -86 19 C-71.81 19 -57.62 19 -43 19 C-43 31.54 -43 44.08 -43 57 C-28.81 57 -14.62 57 0 57 C0 38.19 0 19.38 0 0 Z " fill="#FBC928" transform="translate(427,57)"/>
<path d="M0 0 C2.33469664 2.33469664 2.32716674 3.0346601 2.6328125 6.21875 C2.71660156 7.06953125 2.80039063 7.9203125 2.88671875 8.796875 C2.96535156 9.68890625 3.04398438 10.5809375 3.125 11.5 C3.21136719 12.36109375 3.29773438 13.2221875 3.38671875 14.109375 C3.95046984 20.08692627 4.1015346 25.99817684 4 32 C4.825 31.86722656 5.65 31.73445313 6.5 31.59765625 C15.66664289 30.19606018 24.7448436 29.45674798 34 29 C32.69197526 32.64032283 30.96394929 35.84758552 28.97924805 39.16186523 C11.28519258 68.93334462 5.83381686 106.56421184 13.71484375 140.29296875 C15.80521246 148.30632641 18.28754673 156.57509345 22 164 C22.45965303 171.5817402 21.75137854 179.14833017 21 186.6875 C20.90460938 187.68716797 20.80921875 188.68683594 20.7109375 189.71679688 C20.47857196 192.14501674 20.24154365 194.57267899 20 197 C16.5579617 198.1473461 14.29889046 197.95757797 10.6875 197.6953125 C9.44742188 197.60636719 8.20734375 197.51742187 6.9296875 197.42578125 C5.63289063 197.32652344 4.33609375 197.22726562 3 197.125 C1.05480469 196.98771484 1.05480469 196.98771484 -0.9296875 196.84765625 C-10.59765103 196.13411632 -10.59765103 196.13411632 -14 195 C-15.0715332 193.42797852 -15.0715332 193.42797852 -16.05078125 191.37890625 C-16.41655273 190.61819824 -16.78232422 189.85749023 -17.15917969 189.07373047 C-17.73007324 187.83067139 -17.73007324 187.83067139 -18.3125 186.5625 C-18.90853027 185.27303467 -18.90853027 185.27303467 -19.51660156 183.95751953 C-30.19144528 160.37346198 -35.22699988 135.08965509 -35.25 109.25 C-35.25067474 108.56603149 -35.25134949 107.88206299 -35.25204468 107.17736816 C-35.19412255 70.02709198 -24.13024333 29.0272633 0 0 Z " fill="#0DCBFE" transform="translate(111,197)"/>
<path d="M0 0 C3.63060036 1.45224014 6.00185868 2.51208634 9.08203125 4.65234375 C9.84032227 5.17546143 10.59861328 5.6985791 11.37988281 6.23754883 C12.58402832 7.07902466 12.58402832 7.07902466 13.8125 7.9375 C15.0804541 8.81474731 15.0804541 8.81474731 16.37402344 9.7097168 C18.10365662 10.90651766 19.8320156 12.10516216 21.55908203 13.30566406 C24.32586516 15.22619566 27.10315718 17.1309085 29.88232422 19.03344727 C35.25022995 22.70958558 40.59805044 26.4137553 45.93359375 30.13671875 C47.48385254 31.21796021 47.48385254 31.21796021 49.06542969 32.32104492 C51.11011315 33.74807025 53.15377302 35.1765636 55.19628906 36.60668945 C56.13569336 37.26241943 57.07509766 37.91814941 58.04296875 38.59375 C58.87852295 39.17833984 59.71407715 39.76292969 60.57495117 40.36523438 C63.02166829 42.06085943 63.02166829 42.06085943 65.80981445 43.58789062 C66.53257568 44.05388672 67.25533691 44.51988281 68 45 C68 45.66 68 46.32 68 47 C65.9375 48.55859375 65.9375 48.55859375 63 50.4375 C61.90171875 51.15164063 60.8034375 51.86578125 59.671875 52.6015625 C59.07568359 52.98860352 58.47949219 53.37564453 57.86523438 53.77441406 C54.62547015 55.90315966 51.43955731 58.10953643 48.25 60.3125 C46.88021444 61.25651928 45.5104227 62.20052959 44.140625 63.14453125 C43.45548828 63.61713379 42.77035156 64.08973633 42.06445312 64.57666016 C38.7120622 66.88797036 35.35590374 69.1937946 32 71.5 C27.88180019 74.33056312 23.76422189 77.1620193 19.6484375 79.99609375 C18.93300781 80.48851562 18.21757812 80.9809375 17.48046875 81.48828125 C16.12084887 82.4241235 14.76145738 83.36029769 13.40234375 84.296875 C12.17937048 85.13846368 10.9551485 85.97824159 9.72949219 86.81591797 C8.57522186 87.60617927 7.42481246 88.40210927 6.27832031 89.20361328 C2.22178039 92 2.22178039 92 0 92 C0 84.41 0 76.82 0 69 C-54.78 69 -109.56 69 -166 69 C-166 68.67 -166 68.34 -166 68 C-165.37883301 67.94577881 -164.75766602 67.89155762 -164.11767578 67.83569336 C-128.34451016 64.5446667 -83.30851469 52.90687964 -58.07275391 24.85791016 C-53.13860171 21.874524 -48.13007831 22.51029932 -42.48046875 22.609375 C-41.26676102 22.61503479 -40.05305328 22.62069458 -38.80256653 22.62652588 C-34.93047456 22.64889558 -31.05931176 22.69909618 -27.1875 22.75 C-24.56056025 22.77006409 -21.93360598 22.78831501 -19.30664062 22.8046875 C-12.87073636 22.84876282 -6.43552566 22.91779726 0 23 C0 15.41 0 7.82 0 0 Z " fill="#FBC827" transform="translate(436,420)"/>
<path d="M0 0 C1.68802734 0.09087891 1.68802734 0.09087891 3.41015625 0.18359375 C4.51351318 0.24244751 4.51351318 0.24244751 5.63916016 0.30249023 C7.26811098 0.39324278 8.89671032 0.49051694 10.52490234 0.59399414 C14.44691238 0.83849799 18.32410475 1.02700438 22.25390625 0.9375 C31.55048077 0.9375 31.55048077 0.9375 35.35546875 3.7265625 C37.55678491 6.35408159 39.25510766 9.04849474 41 12 C41.800472 13.22367923 42.60679087 14.44354755 43.41796875 15.66015625 C70.49403426 56.83844655 81.21362413 107.2807089 71.22265625 155.828125 C69.5158407 163.32968471 67.42035354 170.69926145 65 178 C62 177 62 177 60.6496582 174.71508789 C60.20452881 173.72758545 59.75939941 172.74008301 59.30078125 171.72265625 C58.81416016 170.65208984 58.32753906 169.58152344 57.82617188 168.47851562 C57.32666016 167.35123047 56.82714844 166.22394531 56.3125 165.0625 C55.80138672 163.93908203 55.29027344 162.81566406 54.76367188 161.65820312 C51 153.30174608 51 153.30174608 51 151 C48.56203691 152.06144691 46.12465945 153.12421072 43.6875 154.1875 C42.96288574 154.50267578 42.23827148 154.81785156 41.49169922 155.14257812 C36.29162837 157.41178364 31.14766318 159.78058578 26.0390625 162.25 C25.36617188 162.4975 24.69328125 162.745 24 163 C23.34 162.67 22.68 162.34 22 162 C22.26554687 161.04480469 22.53109375 160.08960938 22.8046875 159.10546875 C33.41317078 120.48356745 29.54510191 83.19294874 10 48 C6.79969551 42.71328222 3.24946746 37.66997602 -0.734375 32.94140625 C-5.71251537 25.30518475 -0.96814641 8.76095256 0 0 Z " fill="#98D001" transform="translate(370,187)"/>
<path d="M0 0 C24.09 0 48.18 0 73 0 C73 24.09 73 48.18 73 73 C48.91 73 24.82 73 0 73 C0 48.91 0 24.82 0 0 Z " fill="#7575FF" transform="translate(165,247)"/>
<path d="M0 0 C0 0.33 0 0.66 0 1 C-0.98355469 1.13535156 -1.96710938 1.27070313 -2.98046875 1.41015625 C-39.02555139 6.81206795 -71.4394488 25.50852057 -93.828125 54.35546875 C-111.61648523 78.91462375 -121.46804515 107.12278149 -121.375 137.5 C-121.37412384 138.20242828 -121.37324768 138.90485657 -121.37234497 139.62857056 C-121.32379614 151.47431736 -120.30027814 162.58791124 -117 174 C-116.75862305 174.8559375 -116.51724609 175.711875 -116.26855469 176.59375 C-105.87123841 212.58546623 -82.74688499 241.77223437 -50 260 C-34.13011339 268.63530805 -17.01689883 274.26990044 1 276 C1 276.33 1 276.66 1 277 C-30.48506667 278.63606005 -61.34514283 267.41151651 -86 248 C-86.58523437 247.54109375 -87.17046875 247.0821875 -87.7734375 246.609375 C-112.09979437 227.27576386 -128.14313252 200.93724718 -136 171 C-136.32097656 169.78054688 -136.64195312 168.56109375 -136.97265625 167.3046875 C-144.79893369 131.26741001 -136.62550267 94.14403849 -117.5 63.125 C-113.98909515 57.81098338 -110.11303196 52.85875925 -106 48 C-105.30003906 47.1646875 -104.60007813 46.329375 -103.87890625 45.46875 C-98.4647174 39.21492759 -92.55522519 34.02841542 -86 29 C-85.14792969 28.33226562 -84.29585937 27.66453125 -83.41796875 26.9765625 C-58.97905914 8.43670004 -30.48595349 -0.39535098 0 0 Z " fill="#E4E4E4" transform="translate(260,167)"/>
<path d="M0 0 C14.52 0 29.04 0 44 0 C44 33.33 44 66.66 44 101 C29.48 101 14.96 101 0 101 C0 67.67 0 34.34 0 0 Z " fill="#99D002" transform="translate(427,57)"/>
<path d="M0 0 C2.42439039 3.16559989 4.3957211 6.33746793 6.25 9.875 C7.06210937 11.38707031 7.06210937 11.38707031 7.890625 12.9296875 C10.25471344 19.47255198 6.83769908 25.27536258 4.125 31.25 C3.72788818 32.125354 3.33077637 33.00070801 2.92163086 33.90258789 C-5.59704622 52.20776917 -17.14532488 68.35229634 -31 83 C-32.21042969 84.30710937 -32.21042969 84.30710937 -33.4453125 85.640625 C-65.65386635 119.2913529 -113.19226996 138.80327414 -159.39373779 140.15390015 C-170.08862525 140.38354769 -180.78767762 140.2911023 -191.48376465 140.20599365 C-195.84264632 140.17473351 -200.20158429 140.16148363 -204.56054688 140.14648438 C-213.04051353 140.11476757 -221.52021487 140.06389723 -230 140 C-228.5986183 138.32517797 -227.18918742 136.65652689 -225.74305725 135.02018738 C-223.99239142 133.05053819 -223.99239142 133.05053819 -222.56248474 131.0058136 C-219.95586307 127.74936901 -218.05828691 126.2132987 -213.9067688 125.3765564 C-210.00180544 125.12552611 -206.13170333 125.10864599 -202.22265625 125.16796875 C-200.76882085 125.16365134 -199.31499198 125.15596455 -197.8611908 125.14509583 C-194.0381042 125.12422482 -190.21630356 125.14314652 -186.39331055 125.17236328 C-180.30947939 125.21187282 -174.22553285 125.18850511 -168.14166069 125.16936684 C-166.04367706 125.16801453 -163.94630586 125.18220043 -161.84840393 125.19950867 C-121.17434941 125.28360346 -82.54995822 109.53834755 -52 83 C-51.27554688 82.39671875 -50.55109375 81.7934375 -49.8046875 81.171875 C-45.03656069 77.14706834 -40.96584905 72.80916178 -37 68 C-36.56139648 67.47905762 -36.12279297 66.95811523 -35.67089844 66.42138672 C-28.12999909 57.44544665 -21.6431498 48.27608879 -16 38 C-15.11248047 36.41058594 -15.11248047 36.41058594 -14.20703125 34.7890625 C-8.32969171 23.67994931 -4.25916429 11.79885934 0 0 Z " fill="#0EB9D6" transform="translate(425,349)"/>
<path d="M0 0 C2.27355183 2.85797581 4.13066781 5.86489577 5.95532227 9.02490234 C10.69885795 17.21913797 16.00677108 24.67928064 22 32 C23.00160156 33.23363281 23.00160156 33.23363281 24.0234375 34.4921875 C29.0699151 40.44497128 34.82659678 45.25122829 41 50 C41.8765625 50.680625 42.753125 51.36125 43.65625 52.0625 C63.20823378 66.78399367 85.05489408 74.62827942 109 79 C109 79.33 109 79.66 109 80 C95.70881797 80.16234284 82.41787263 80.28664758 69.12590027 80.3626852 C62.95353115 80.39918373 56.78184141 80.44867443 50.60986328 80.52807617 C44.65109603 80.60425338 38.69298133 80.64601571 32.73376465 80.6641407 C30.46274546 80.67705354 28.19176114 80.70227008 25.92102051 80.7401104 C22.73432862 80.79109214 19.55031673 80.79791674 16.36328125 80.79467773 C14.96173546 80.83242813 14.96173546 80.83242813 13.53187561 80.87094116 C7.21524684 80.80168537 4.1076164 79.17522482 -0.36904907 74.72532749 C-0.90726288 74.15596942 -1.44547668 73.58661135 -2 73 C-2.82886719 72.24976563 -3.65773437 71.49953125 -4.51171875 70.7265625 C-16.68118523 58.97221247 -26.76280269 44.74514101 -35 30 C-35 29.34 -35 28.68 -35 28 C-24.44 28.66 -13.88 29.32 -3 30 C-2.38528277 23.12025577 -2.38528277 23.12025577 -1.77368164 16.24023438 C-1.28425851 10.80999204 -0.71427748 5.40534309 0 0 Z " fill="#FBC927" transform="translate(133,364)"/>
<path d="M0 0 C13.53 0 27.06 0 41 0 C41 27.06 41 54.12 41 82 C27.47 82 13.94 82 0 82 C0 54.94 0 27.88 0 0 Z " fill="#7676FE" transform="translate(471,76)"/>
<path d="M0 0 C2.33932881 1.19493493 4.60904988 2.41258902 6.84375 3.79296875 C7.88982422 4.4271875 7.88982422 4.4271875 8.95703125 5.07421875 C9.47652344 5.47640625 9.99601563 5.87859375 10.53125 6.29296875 C10.53125 6.95296875 10.53125 7.61296875 10.53125 8.29296875 C8.46875 9.8515625 8.46875 9.8515625 5.53125 11.73046875 C4.43296875 12.44460938 3.3346875 13.15875 2.203125 13.89453125 C1.60693359 14.28157227 1.01074219 14.66861328 0.39648438 15.06738281 C-2.84327985 17.19612841 -6.02919269 19.40250518 -9.21875 21.60546875 C-10.58853556 22.54948803 -11.9583273 23.49349834 -13.328125 24.4375 C-14.01326172 24.91010254 -14.69839844 25.38270508 -15.40429688 25.86962891 C-18.7566878 28.18093911 -22.11284626 30.48676335 -25.46875 32.79296875 C-29.58694981 35.62353187 -33.70452811 38.45498805 -37.8203125 41.2890625 C-38.53574219 41.78148437 -39.25117188 42.27390625 -39.98828125 42.78125 C-41.34790113 43.71709225 -42.70729262 44.65326644 -44.06640625 45.58984375 C-45.28937952 46.43143243 -46.5136015 47.27121034 -47.73925781 48.10888672 C-48.89352814 48.89914802 -50.04393754 49.69507802 -51.19042969 50.49658203 C-55.24696961 53.29296875 -55.24696961 53.29296875 -57.46875 53.29296875 C-57.46875 45.70296875 -57.46875 38.11296875 -57.46875 30.29296875 C-112.24875 30.29296875 -167.02875 30.29296875 -223.46875 30.29296875 C-223.46875 29.96296875 -223.46875 29.63296875 -223.46875 29.29296875 C-222.84758301 29.23874756 -222.22641602 29.18452637 -221.58642578 29.12866211 C-203.86723795 27.49854863 -185.41241407 24.98302098 -168.98100281 17.75975037 C-163.80336874 15.82186401 -158.8496359 15.86449106 -153.37451172 15.88891602 C-152.29058136 15.88205276 -151.206651 15.87518951 -150.08987427 15.86811829 C-146.52592682 15.84989531 -142.96242129 15.85368041 -139.3984375 15.859375 C-136.91317604 15.85481215 -134.42791584 15.84950627 -131.94265747 15.8434906 C-126.74280661 15.83456916 -121.54310944 15.83697306 -116.34326172 15.84692383 C-109.68058416 15.85843192 -103.01863895 15.83816877 -96.3560009 15.80900669 C-91.22759639 15.79066437 -86.09931912 15.79093294 -80.97089005 15.79664421 C-78.514103 15.79679756 -76.05730741 15.79074209 -73.60055161 15.77835274 C-70.16809568 15.76347664 -66.73662431 15.77409492 -63.30419922 15.79125977 C-62.29105652 15.7815918 -61.27791382 15.77192383 -60.23406982 15.76196289 C-54.32463032 15.82384764 -50.9956976 16.40172809 -46.46875 20.29296875 C-44.82566113 22.20844134 -43.76214061 24.10415388 -42.46875 26.29296875 C-34.63447197 21.10388517 -26.83149277 15.87515271 -19.09375 10.54296875 C-18.42110107 10.08277344 -17.74845215 9.62257813 -17.05541992 9.1484375 C-14.21529119 7.20324974 -11.40346713 5.2446144 -8.63671875 3.1953125 C-7.85941406 2.62941406 -7.08210937 2.06351562 -6.28125 1.48046875 C-5.64832031 0.99964844 -5.01539063 0.51882813 -4.36328125 0.0234375 C-2.46875 -0.70703125 -2.46875 -0.70703125 0 0 Z " fill="#FBAA1A" transform="translate(493.46875,458.70703125)"/>
<path d="M0 0 C1 1 1 1 1.09765625 3.94140625 C1.08025391 5.73384766 1.08025391 5.73384766 1.0625 7.5625 C1.05347656 8.76003906 1.04445313 9.95757812 1.03515625 11.19140625 C1.01775391 12.58166016 1.01775391 12.58166016 1 14 C-3.92144914 14.19685797 -8.4108398 13.81925361 -13.2734375 13.015625 C-21.3546182 11.83503883 -29.34568153 11.60024758 -37.5 11.625 C-38.61384064 11.62681274 -38.61384064 11.62681274 -39.75018311 11.62866211 C-67.15310865 11.74904032 -92.986436 18.69917192 -117 32 C-118.20918503 32.64407544 -119.41881949 33.28730784 -120.62890625 33.9296875 C-133.053563 40.64658765 -143.7674893 49.30347796 -154 59 C-154.89460938 59.84175781 -155.78921875 60.68351562 -156.7109375 61.55078125 C-165.72731551 70.27671571 -173.22223333 79.88607355 -179.94140625 90.48828125 C-180.46541016 91.23658203 -180.46541016 91.23658203 -181 92 C-181.33 92 -181.66 92 -182 92 C-182.36374381 89.10508022 -182.71628667 86.20952377 -183.0625 83.3125 C-183.16626953 82.49587891 -183.27003906 81.67925781 -183.37695312 80.83789062 C-184.05821526 75.03541655 -184.50281273 71.12144632 -180.98828125 66.16015625 C-180.10823942 65.11745586 -179.21541502 64.08545757 -178.3125 63.0625 C-177.82628174 62.50256348 -177.34006348 61.94262695 -176.83911133 61.36572266 C-162.47225522 45.05054978 -146.75546675 31.96868217 -128 21 C-127.39607422 20.64309082 -126.79214844 20.28618164 -126.16992188 19.91845703 C-89.5620865 -1.46960047 -41.50769738 -9.47031824 0 0 Z " fill="#FE2688" transform="translate(296,125)"/>
<path d="M0 0 C14.52 0 29.04 0 44 0 C44 20.79 44 41.58 44 63 C29.48 63 14.96 63 0 63 C0 42.21 0 21.42 0 0 Z " fill="#0DCBFE" transform="translate(297,95)"/>
<path d="M0 0 C3.92336946 3.92336946 3.4502155 10.94693596 3.5546875 16.2890625 C3.1493436 25.49256858 -2.10576997 32.8161043 -6.64208984 40.55712891 C-23.25583394 70.44514103 -24.83123419 115.54538121 -16 148 C-15.78037598 148.84014648 -15.56075195 149.68029297 -15.33447266 150.54589844 C-11.07894385 166.598247 -4.6090864 181.2835252 3 196 C0.72923158 196.02699725 -1.54162821 196.04639453 -3.8125 196.0625 C-5.07707031 196.07410156 -6.34164062 196.08570313 -7.64453125 196.09765625 C-11 196 -11 196 -14 195 C-15.0715332 193.42797852 -15.0715332 193.42797852 -16.05078125 191.37890625 C-16.41655273 190.61819824 -16.78232422 189.85749023 -17.15917969 189.07373047 C-17.73007324 187.83067139 -17.73007324 187.83067139 -18.3125 186.5625 C-18.90853027 185.27303467 -18.90853027 185.27303467 -19.51660156 183.95751953 C-30.19144528 160.37346198 -35.22699988 135.08965509 -35.25 109.25 C-35.25067474 108.56603149 -35.25134949 107.88206299 -35.25204468 107.17736816 C-35.19412255 70.02709198 -24.13024333 29.0272633 0 0 Z " fill="#0DB9D7" transform="translate(111,197)"/>
<path d="M0 0 C3.13070406 1.4179422 5.50609017 3.16197287 8.125 5.375 C15.35304513 11.10964738 23.5596965 14.10010639 32.75799561 14.15821838 C34.52059471 14.17290161 34.52059471 14.17290161 36.31880188 14.18788147 C37.60417343 14.19363693 38.88954498 14.1993924 40.21386719 14.20532227 C41.58390089 14.21490461 42.95393166 14.2249149 44.32395935 14.23532104 C48.04052731 14.26233763 51.75710793 14.28336474 55.4737196 14.30332303 C59.35882557 14.32520262 63.24389268 14.35258166 67.12896729 14.37937927 C74.48470921 14.42927948 81.84047273 14.47422822 89.19625688 14.51740164 C97.57106478 14.56679685 105.94583368 14.62170651 114.32060385 14.67708123 C131.5470334 14.79086025 148.7734997 14.89751257 166 15 C166 19.29 166 23.58 166 28 C104.62 28 43.24 28 -20 28 C-11.95842451 15.36323851 -11.95842451 15.36323851 -7.75 10.0625 C-6.91131875 8.99099466 -6.0727736 7.91938277 -5.234375 6.84765625 C-4.12835937 5.43806641 -4.12835937 5.43806641 -3 4 C-1.99546355 2.67008109 -0.99327948 1.33834736 0 0 Z " fill="#6CA42D" transform="translate(25,87)"/>
<path d="M0 0 C1.79411237 0.00197579 3.58823039 0.00086371 5.38233948 -0.00309753 C10.24177251 -0.00510307 15.099992 0.03600312 19.9591434 0.08492017 C25.041308 0.12872849 30.12350152 0.13279516 35.20582581 0.14109802 C44.82483725 0.16284047 54.44329069 0.2202643 64.0620566 0.29054445 C75.01477317 0.36883119 85.96751663 0.40728533 96.92044342 0.4424125 C119.44670178 0.51554798 141.97246511 0.6386446 164.49829102 0.79467773 C161.83958827 6.73913046 157.91592321 11.19859768 152.49829102 14.79467773 C146.503501 16.21096751 140.69306444 16.0647419 134.56420898 15.92993164 C132.75980284 15.9271071 130.95538521 15.92870167 129.15098572 15.93435669 C124.27674661 15.93721428 119.40499172 15.87862084 114.53132772 15.80861712 C109.42922822 15.74590418 104.32706535 15.74021426 99.22463989 15.72836304 C89.57357528 15.69733969 79.92364977 15.61535875 70.27308571 15.51486814 C59.28168868 15.40291156 48.29023589 15.34806616 37.29841018 15.29791379 C14.69774007 15.1935196 -7.9019205 15.0177422 -30.50170898 14.79467773 C-29.09887075 13.11811496 -27.68690298 11.4484894 -26.23412418 9.81501102 C-24.4883289 7.85853551 -24.4883289 7.85853551 -23.15997219 5.79917812 C-17.50437459 -1.63602168 -8.44132248 -0.12984101 0 0 Z " fill="#FE2688" transform="translate(42.501708984375,474.205322265625)"/>
<path d="M0 0 C16.56183649 -0.56764359 16.56183649 -0.56764359 21.69140625 2.73046875 C23.8040119 5.36350753 25.37917351 8.03754979 27 11 C27.79040856 12.22679746 28.59188153 13.44651352 29.40234375 14.66015625 C56.11288632 55.0672462 66.64718882 104.29506106 57.78417969 152.09960938 C56.04599322 160.54568416 53.71233632 168.81852652 51 177 C48 176 48 176 46.92504883 174.23413086 C46.60560303 173.48526611 46.28615723 172.73640137 45.95703125 171.96484375 C45.60576172 171.15595703 45.25449219 170.34707031 44.89257812 169.51367188 C44.35793945 168.2384668 44.35793945 168.2384668 43.8125 166.9375 C43.44447266 166.08349609 43.07644531 165.22949219 42.69726562 164.34960938 C41.7884879 162.23699623 40.88993798 160.12060231 40 158 C40.66 158 41.32 158 42 158 C42.31813686 156.23017066 42.62911009 154.45905373 42.9375 152.6875 C43.11152344 151.70136719 43.28554688 150.71523438 43.46484375 149.69921875 C44.97685229 139.24759767 45.2162056 128.87416901 45.24023438 118.33154297 C45.2499286 115.76887394 45.28104041 113.20701288 45.3125 110.64453125 C45.37882638 100.3335789 44.46919673 91.05403124 42 81 C41.81179688 80.14083984 41.62359375 79.28167969 41.4296875 78.39648438 C35.27869276 50.35659819 21.34462672 24.7640672 1.65234375 3.9609375 C0 2 0 2 0 0 Z " fill="#6DA52C" transform="translate(384,188)"/>
<path d="M0 0 C5.61 0 11.22 0 17 0 C17.01417969 2.02640625 17.02835938 4.0528125 17.04296875 6.140625 C17.07779323 8.14651489 17.11280153 10.15240552 17.15258789 12.15820312 C17.17550211 13.5311335 17.19009991 14.90423301 17.19555664 16.27734375 C17.25034368 27.80790897 18.79831667 37.76192115 26.8125 46.5 C34.07066258 53.08712491 41.16753631 55.01838218 50.83203125 55.31640625 C52.77045898 55.37924805 52.77045898 55.37924805 54.74804688 55.44335938 C56.10286192 55.48316352 57.45767967 55.52287591 58.8125 55.5625 C60.18686105 55.60573723 61.56121024 55.64935312 62.93554688 55.69335938 C66.29024904 55.79929734 69.64511143 55.90013948 73 56 C73 61.61 73 67.22 73 73 C48.91 73 24.82 73 0 73 C0 48.91 0 24.82 0 0 Z " fill="#5B5BFE" transform="translate(165,247)"/>
<path d="M0 0 C14.19 0 28.38 0 43 0 C43 14.52 43 29.04 43 44 C28.81 44 14.62 44 0 44 C0 29.48 0 14.96 0 0 Z " fill="#FE5C95" transform="translate(384,114)"/>
<path d="M0 0 C3.96 0 7.92 0 12 0 C12.00364563 0.89678467 12.00729126 1.79356934 12.01104736 2.7175293 C12.04900087 11.19175581 12.10593699 19.66560034 12.18390274 28.13955688 C12.22331905 32.49555919 12.25553602 36.85136111 12.27099609 41.20751953 C12.28620147 45.41584393 12.32071502 49.62361724 12.36830902 53.83169556 C12.38308301 55.43270055 12.39103872 57.03378424 12.39188385 58.63485718 C12.15910358 71.56741937 12.15910358 71.56741937 18.44683838 82.50048828 C24.09188209 87.49621997 28.47668758 88.33551493 35.75 88.625 C36.54277344 88.66367188 37.33554687 88.70234375 38.15234375 88.7421875 C40.10119416 88.836108 42.05056451 88.91912822 44 89 C44 92.96 44 96.92 44 101 C29.48 101 14.96 101 0 101 C0 67.67 0 34.34 0 0 Z " fill="#71A630" transform="translate(427,57)"/>
<path d="M0 0 C4.29 0 8.58 0 13 0 C13.00410889 1.82466797 13.00821777 3.64933594 13.01245117 5.52929688 C13.03201242 11.62428864 13.07457845 17.71879795 13.13209057 23.81354523 C13.16607734 27.50126439 13.1914256 31.1885818 13.19555664 34.87646484 C13.0984224 59.70297083 13.0984224 59.70297083 21 83 C20.64284912 83.49290527 20.28569824 83.98581055 19.91772461 84.49365234 C18.25683266 86.78684455 16.59703738 89.08082734 14.9375 91.375 C14.34420898 92.19468262 13.75091797 93.01436523 13.13964844 93.85888672 C9.41705495 99.01081756 5.74657559 104.18944084 2.171875 109.4453125 C1.78515625 109.95835938 1.3984375 110.47140625 1 111 C0.67 111 0.34 111 0 111 C0 74.37 0 37.74 0 0 Z " fill="#6DA42D" transform="translate(2,0)"/>
<path d="M0 0 C3.63 0 7.26 0 11 0 C11.00410889 1.58868896 11.00821777 3.17737793 11.01245117 4.81420898 C11.03430133 10.73543279 11.08865375 16.65599769 11.15258789 22.5769043 C11.17571633 25.13445701 11.19015142 27.69210428 11.19555664 30.24975586 C11.20488324 33.936631 11.24595978 37.62202944 11.29296875 41.30859375 C11.2890361 42.44332626 11.28510345 43.57805878 11.28105164 44.74717712 C11.4290712 52.88878432 13.04042986 59.02554653 18.89982605 64.90696716 C25.64201205 70.7121098 34.58243037 69.98067148 43 70 C43 73.96 43 77.92 43 82 C28.81 82 14.62 82 0 82 C0 54.94 0 27.88 0 0 Z " fill="#FBAA1B" transform="translate(341,76)"/>
<path d="M0 0 C3.63 0 7.26 0 11 0 C11.01401855 2.39088867 11.01401855 2.39088867 11.02832031 4.83007812 C11.06830147 10.76427788 11.13408427 16.69796366 11.20751953 22.63183594 C11.23568181 25.19622171 11.25691981 27.76069353 11.27099609 30.32519531 C11.29249026 34.01932677 11.33917745 37.71242887 11.390625 41.40625 C11.39185364 42.5461438 11.39308228 43.6860376 11.39434814 44.86047363 C11.52598004 52.07347126 12.30117682 58.1225161 17.44683838 63.51672363 C22.71068924 68.12008502 26.87690656 69.31317724 33.75 69.625 C34.44738281 69.66367188 35.14476562 69.70234375 35.86328125 69.7421875 C37.57510818 69.83598624 39.28751682 69.91906174 41 70 C41 73.96 41 77.92 41 82 C27.47 82 13.94 82 0 82 C0 54.94 0 27.88 0 0 Z " fill="#5B5BFE" transform="translate(471,76)"/>
<path d="M0 0 C14.52 0 29.04 0 44 0 C44 0.33 44 0.66 44 1 C33.44 1 22.88 1 12 1 C12.07436333 5.55411287 12.15750822 10.10638984 12.26245117 14.65966797 C12.29550862 16.20546643 12.32359903 17.75138004 12.34643555 19.29736328 C12.14714487 32.47233621 12.14714487 32.47233621 17.68359375 44.0234375 C18.55177734 44.69246094 18.55177734 44.69246094 19.4375 45.375 C20.01371094 45.83648437 20.58992188 46.29796875 21.18359375 46.7734375 C26.05202744 50.06093896 29.96553933 50.39477271 35.75 50.625 C36.54277344 50.66367188 37.33554687 50.70234375 38.15234375 50.7421875 C40.10119416 50.836108 42.05056451 50.91912822 44 51 C44 54.96 44 58.92 44 63 C29.48 63 14.96 63 0 63 C0 42.21 0 21.42 0 0 Z " fill="#16B9D7" transform="translate(297,95)"/>
<path d="M0 0 C0 7.26 0 14.52 0 22 C-1.65 22.33 -3.3 22.66 -5 23 C-5.33 19.04 -5.66 15.08 -6 11 C-12.35836047 19.59880638 -18.6342131 28.24691966 -24.76269531 37.01147461 C-28.08201267 41.74672053 -31.50501356 46.39293756 -35 51 C-41.15921159 49.32494414 -46.46422557 46.14975882 -52 43.0625 C-61.52383962 36.88188015 -61.52383962 36.88188015 -72 34 C-73.45082367 35.76749408 -73.45082367 35.76749408 -74.71484375 38.14453125 C-75.23054932 39.04083252 -75.74625488 39.93713379 -76.27758789 40.8605957 C-76.82535889 41.83472412 -77.37312988 42.80885254 -77.9375 43.8125 C-79.09951372 45.82410155 -80.26362078 47.83449514 -81.4296875 49.84375 C-82.31672363 51.37902344 -82.31672363 51.37902344 -83.22167969 52.9453125 C-85.93665416 57.60892599 -88.72339119 62.22357855 -91.5625 66.8125 C-92.05032959 67.62372314 -92.53815918 68.43494629 -93.04077148 69.27075195 C-93.50298096 70.01284912 -93.96519043 70.75494629 -94.44140625 71.51953125 C-94.84045166 72.17026611 -95.23949707 72.82100098 -95.65063477 73.49145508 C-97.4421755 75.49433733 -98.31035462 75.81974362 -101 76 C-104.14453125 75.19555664 -104.14453125 75.19555664 -107.8125 73.91015625 C-108.46323486 73.68678085 -109.11396973 73.46340546 -109.78442383 73.23326111 C-111.85987795 72.5195982 -113.93011909 71.79215467 -116 71.0625 C-118.0703474 70.33797466 -120.14163267 69.61661993 -122.21557617 68.90245056 C-124.09805371 68.25349166 -125.97686446 67.59392522 -127.85546875 66.93383789 C-131.09237037 65.81021081 -131.09237037 65.81021081 -135 66 C-136.60442711 67.46342721 -136.60442711 67.46342721 -137.91796875 69.515625 C-138.44600098 70.26730957 -138.9740332 71.01899414 -139.51806641 71.79345703 C-140.06897949 72.60411621 -140.61989258 73.41477539 -141.1875 74.25 C-142.34446652 75.89884853 -143.50202112 77.54728458 -144.66015625 79.1953125 C-145.22621582 80.01032227 -145.79227539 80.82533203 -146.37548828 81.66503906 C-148.58858756 84.84599511 -150.83631811 87.99809263 -153.125 91.125 C-153.80820313 92.07632813 -154.49140625 93.02765625 -155.1953125 94.0078125 C-156.08863281 94.99394531 -156.08863281 94.99394531 -157 96 C-157.99 96 -158.98 96 -160 96 C-159.62069619 90.13885303 -157.14786227 86.98625522 -153.625 82.5625 C-152.53815882 81.15825104 -151.4522448 79.75328406 -150.3671875 78.34765625 C-149.8112793 77.63367676 -149.25537109 76.91969727 -148.68261719 76.18408203 C-145.97479689 72.66925899 -143.36265884 69.08580719 -140.75 65.5 C-139.82818321 64.23954076 -138.90631386 62.97911996 -137.984375 61.71875 C-137.32953125 60.8215625 -136.6746875 59.924375 -136 59 C-132.28821054 59.8381646 -128.74696435 61.0793437 -125.15234375 62.3203125 C-123.81200298 62.77779526 -122.47150331 63.23481267 -121.13085938 63.69140625 C-119.02700155 64.40919594 -116.92421783 65.12960588 -114.82397461 65.85791016 C-112.7903226 66.56198531 -110.75306343 67.25459063 -108.71484375 67.9453125 C-106.89134399 68.57203857 -106.89134399 68.57203857 -105.03100586 69.21142578 C-101.98513186 70.29776953 -101.98513186 70.29776953 -99 69 C-97.22691806 66.55418287 -97.22691806 66.55418287 -95.5234375 63.48828125 C-95.1966098 62.92750381 -94.8697821 62.36672638 -94.53305054 61.78895569 C-93.83446952 60.58868154 -93.13977451 59.3861388 -92.4486084 58.18157959 C-91.01874051 55.69227633 -89.56690084 53.21609607 -88.11547852 50.73931885 C-87.39959822 49.51762179 -86.6845871 48.29541498 -85.97045898 47.07269287 C-83.28369668 42.47274005 -80.57617414 37.89077539 -77.75 33.375 C-77.10546875 32.33085938 -76.4609375 31.28671875 -75.796875 30.2109375 C-74 28 -74 28 -72.19311523 27.21484375 C-69.18081663 26.91975049 -67.73534168 27.8713469 -65.11328125 29.3515625 C-64.17419922 29.87363281 -63.23511719 30.39570312 -62.26757812 30.93359375 C-61.29240234 31.49175781 -60.31722656 32.04992188 -59.3125 32.625 C-58.35666016 33.15996094 -57.40082031 33.69492187 -56.41601562 34.24609375 C-52.72789849 36.31264609 -49.04789618 38.39139226 -45.39208984 40.51464844 C-44.1983374 41.19962402 -44.1983374 41.19962402 -42.98046875 41.8984375 C-42.28203857 42.30497559 -41.5836084 42.71151367 -40.86401367 43.13037109 C-38.88970089 44.211394 -38.88970089 44.211394 -36 44 C-34.07235552 41.58279501 -32.342252 39.18665587 -30.625 36.625 C-29.55845186 35.07211918 -28.49070026 33.52006439 -27.421875 31.96875 C-26.86564453 31.15664063 -26.30941406 30.34453125 -25.73632812 29.5078125 C-22.84652374 25.33401179 -19.85962019 21.23126648 -16.875 17.125 C-15.78852794 15.62799199 -14.7025527 14.13062321 -13.6171875 12.6328125 C-13.15940918 12.00262207 -12.70163086 11.37243164 -12.22998047 10.72314453 C-11.12187193 9.17073682 -10.05799145 7.58698718 -9 6 C-15.435 6.495 -15.435 6.495 -22 7 C-22 5.68 -22 4.36 -22 3 C-19.2735685 2.2996047 -16.54476473 1.6144225 -13.8125 0.9375 C-12.65911133 0.63875977 -12.65911133 0.63875977 -11.48242188 0.33398438 C-10.73154297 0.15029297 -9.98066406 -0.03339844 -9.20703125 -0.22265625 C-8.5210083 -0.39547119 -7.83498535 -0.56828613 -7.12817383 -0.74633789 C-5 -1 -5 -1 0 0 Z " fill="#F8FBEF" transform="translate(162,19)"/>
<path d="M0 0 C1.45599609 0.84304687 1.45599609 0.84304687 2.94140625 1.703125 C4.99465972 2.88882844 7.04349132 4.02139847 9.17138672 5.06835938 C14.77285616 7.83905776 20.37822477 10.76172623 24 16 C26.07703743 23.7947836 25.05933835 32.09666482 24 40 C17.18844127 35.78394817 10.70117369 31.37235508 4.41015625 26.40625 C2.18234984 24.77449871 2.18234984 24.77449871 0.08374023 25.26220703 C-2.15494551 26.05486179 -3.80595359 27.03830792 -5.75 28.3984375 C-6.4409375 28.87796875 -7.131875 29.3575 -7.84375 29.8515625 C-8.91109375 30.60566406 -8.91109375 30.60566406 -10 31.375 C-10.7115625 31.87 -11.423125 32.365 -12.15625 32.875 C-14.94068516 34.8178708 -17.69685664 36.76366784 -20.375 38.8515625 C-22 40 -22 40 -24 40 C-26.53239197 20.84148077 -26.53239197 20.84148077 -22.55859375 14.81347656 C-18.91962562 11.18030296 -14.67201159 8.58702509 -10.16015625 6.16699219 C-6.66956398 4.28125179 -3.34694349 2.12731368 0 0 Z " fill="#7575FF" transform="translate(28,186)"/>
<path d="M0 0 C3.61530762 2.26435303 7.15461397 4.60118928 10.64453125 7.0546875 C11.35158203 7.54517578 12.05863281 8.03566406 12.78710938 8.54101562 C14.72606204 9.89008973 16.66080065 11.24298985 18.58203125 12.6171875 C19.31059326 13.05208496 20.03915527 13.48698242 20.78979492 13.93505859 C22.58203125 15.6171875 22.58203125 15.6171875 23.03613281 18.16088867 C23.01518555 19.15064697 22.99423828 20.14040527 22.97265625 21.16015625 C22.95976563 22.23330078 22.946875 23.30644531 22.93359375 24.41210938 C22.90007813 25.53166016 22.8665625 26.65121094 22.83203125 27.8046875 C22.81398437 28.93583984 22.7959375 30.06699219 22.77734375 31.23242188 C22.73015777 34.02819126 22.6643372 36.82226722 22.58203125 39.6171875 C14.57025828 34.67365798 7.03642264 29.3543369 -0.41796875 23.6171875 C-7.1655747 27.82260924 -13.77253436 32.18338207 -20.2644043 36.77124023 C-24.31528642 39.6171875 -24.31528642 39.6171875 -25.41796875 39.6171875 C-25.6811671 35.93106086 -25.83973178 32.24735752 -25.98046875 28.5546875 C-26.05587891 27.51634766 -26.13128906 26.47800781 -26.20898438 25.40820312 C-26.42613397 17.80796741 -26.42613397 17.80796741 -23.62939453 14.50463867 C-21.30718569 12.6963613 -18.92803327 11.15146475 -16.41796875 9.6171875 C-15.15040408 8.65274635 -13.89401182 7.67334194 -12.65234375 6.67578125 C-11.49211406 5.80045241 -10.33067828 4.92671965 -9.16796875 4.0546875 C-8.58273438 3.59255859 -7.9975 3.13042969 -7.39453125 2.65429688 C-3.14146765 -0.49735675 -3.14146765 -0.49735675 0 0 Z " fill="#FCC926" transform="translate(29.41796875,335.3828125)"/>
<path d="M0 0 C2.58759743 1.61271102 5.15020689 3.24597126 7.6875 4.9375 C10.96859538 7.08392415 10.96859538 7.08392415 14.625 8.625 C21.87711574 12.31467292 21.87711574 12.31467292 24 16 C25.62031008 23.85613338 24.79336592 32.07666862 24 40 C20.15380069 37.90116017 16.52756829 35.72382251 12.9921875 33.1328125 C12.31542969 32.64039063 11.63867188 32.14796875 10.94140625 31.640625 C9.54749734 30.61824947 8.16218633 29.58406103 6.78515625 28.5390625 C3.00056365 25.64281484 3.00056365 25.64281484 -1.5234375 25.3359375 C-4.93123555 27.62571979 -8.24121353 30.00267255 -11.5 32.5 C-19.30927835 38.48453608 -19.30927835 38.48453608 -24 40 C-26.85820499 20.93797132 -26.85820499 20.93797132 -22.33007812 14.69921875 C-18.10269122 10.7629742 -13.26215611 7.88540287 -8.18261719 5.17822266 C-5.31584525 3.63067888 -2.67848334 1.85066729 0 0 Z " fill="#7575FF" transform="translate(28,285)"/>
<path d="M0 0 C1.61474787 0.98184992 3.1890088 2.03168341 4.73046875 3.125 C5.61541016 3.74890625 6.50035156 4.3728125 7.41210938 5.015625 C8.78592773 5.99789062 8.78592773 5.99789062 10.1875 7 C11.11498047 7.65484375 12.04246094 8.3096875 12.99804688 8.984375 C19.80333647 13.80333647 19.80333647 13.80333647 21 15 C21.08713831 16.70772358 21.10700007 18.41898649 21.09765625 20.12890625 C21.09443359 21.16337891 21.09121094 22.19785156 21.08789062 23.26367188 C21.07532227 24.8965918 21.07532227 24.8965918 21.0625 26.5625 C21.05798828 27.65498047 21.05347656 28.74746094 21.04882812 29.87304688 C21.03699826 32.58208495 21.02051543 35.29101599 21 38 C17.77911298 36.80725825 15.10628034 35.54411437 12.37109375 33.46875 C11.72849609 32.98792969 11.08589844 32.50710938 10.42382812 32.01171875 C9.76833984 31.51285156 9.11285156 31.01398438 8.4375 30.5 C7.1258298 29.50759264 5.81208857 28.51791546 4.49609375 27.53125 C3.92044678 27.09361328 3.3447998 26.65597656 2.75170898 26.20507812 C0.90608506 24.93539176 -0.97668829 23.95606123 -3 23 C-3.98395752 23.6815918 -3.98395752 23.6815918 -4.98779297 24.37695312 C-7.94690119 26.42278225 -10.91086181 28.4614663 -13.875 30.5 C-15.42380859 31.57314453 -15.42380859 31.57314453 -17.00390625 32.66796875 C-17.99003906 33.34472656 -18.97617187 34.02148438 -19.9921875 34.71875 C-20.90339355 35.34716797 -21.81459961 35.97558594 -22.75341797 36.62304688 C-25 38 -25 38 -27 38 C-28.49379389 30.39813783 -29.63998232 22.43765406 -27 15 C-22.1584648 9.09227057 -8.19453308 -3.59066752 0 0 Z " fill="#FCC926" transform="translate(31,237)"/>
<path d="M0 0 C15.07417069 -0.72912187 15.07417069 -0.72912187 19.37109375 3.12890625 C21.08510618 6.01847637 22.52384418 8.98301142 24 12 C26.8052022 15.83268905 29.89269031 19.40966301 33 23 C34.2684375 24.47146484 34.2684375 24.47146484 35.5625 25.97265625 C44.01252583 35.57665037 53.51038094 43.68166112 64 51 C64 51.33 64 51.66 64 52 C60.33417393 52.20521049 56.6698406 52.32825201 53 52.4375 C51.97003906 52.49615234 50.94007813 52.55480469 49.87890625 52.61523438 C44.31018781 52.73937778 40.83584003 52.48697421 36.54296875 48.74609375 C35.34082448 47.5177485 34.15722368 46.2707542 33 45 C32.17113281 44.24976563 31.34226563 43.49953125 30.48828125 42.7265625 C18.31881477 30.97221247 8.23719731 16.74514101 0 2 C0 1.34 0 0.68 0 0 Z " fill="#FBAB1B" transform="translate(98,392)"/>
<path d="M0 0 C3.3 0 6.6 0 10 0 C10.14695312 1.59328125 10.14695312 1.59328125 10.296875 3.21875 C11.22664681 15.50578945 11.22664681 15.50578945 17.67578125 25.546875 C23.1326284 29.70669852 27.98794028 30.17262699 34.75 30.5625 C35.44738281 30.60568359 36.14476562 30.64886719 36.86328125 30.69335938 C38.57531922 30.79889596 40.28763561 30.8998991 42 31 C42 34.63 42 38.26 42 42 C28.14 42 14.28 42 0 42 C0 28.14 0 14.28 0 0 Z " fill="#FF2488" transform="translate(385,115)"/>
<path d="M0 0 C59.73 0 119.46 0 181 0 C181 1.32 181 2.64 181 4 C120.94 4 60.88 4 -1 4 C-0.67 2.68 -0.34 1.36 0 0 Z " fill="#A7A7F9" transform="translate(170,356)"/>
<path d="M0 0 C24.82255261 -2.18380228 24.82255261 -2.18380228 32.02612305 3.48168945 C34.23869526 5.58277154 36.29837109 7.76745732 38.29150391 10.07763672 C40.21911919 12.24654823 42.26291843 14.24391482 44.35546875 16.25390625 C47.2258104 19.02251585 50.0874972 21.7959525 52.89453125 24.62890625 C53.47050049 25.20713135 54.04646973 25.78535645 54.63989258 26.38110352 C56 28 56 28 57 31 C54.79173622 31.02722517 52.58337362 31.04649729 50.375 31.0625 C48.53035156 31.07990234 48.53035156 31.07990234 46.6484375 31.09765625 C40.18982495 30.92478118 40.18982495 30.92478118 37 30 C34.9375 27.703125 34.9375 27.703125 33 25 C23.45736646 16.39907372 12.94737593 8.42304298 1.765625 2.09375 C1.18296875 1.7328125 0.6003125 1.371875 0 1 C0 0.67 0 0.34 0 0 Z " fill="#FE2688" transform="translate(345,158)"/>
<path d="M0 0 C45.54 0 91.08 0 138 0 C138 1.32 138 2.64 138 4 C92.79 4 47.58 4 1 4 C0.67 2.68 0.34 1.36 0 0 Z " fill="#A9A9F9" transform="translate(191,395)"/>
<path d="M0 0 C30.03 0 60.06 0 91 0 C91 1.32 91 2.64 91 4 C61.3 4 31.6 4 1 4 C0.67 2.68 0.34 1.36 0 0 Z " fill="#A9A9F9" transform="translate(266,301)"/>
<path d="M0 0 C29.7 0 59.4 0 90 0 C90 1.32 90 2.64 90 4 C59.97 4 29.94 4 -1 4 C-0.67 2.68 -0.34 1.36 0 0 Z " fill="#A7A7F9" transform="translate(267,262)"/>
<path d="M0 0 C1.95318057 0.1028371 3.90967415 0.14638524 5.86552429 0.15821838 C7.70178879 0.17290161 7.70178879 0.17290161 9.57514954 0.18788147 C10.93380698 0.19378562 12.29246484 0.19959607 13.65112305 0.20532227 C15.0801217 0.21490123 16.50911751 0.22491132 17.93811035 0.23532104 C21.82002219 0.26237424 25.7019462 0.28338156 29.58390021 0.30332303 C33.6398438 0.32518002 37.69574988 0.35257011 41.75166321 0.37937927 C49.43326609 0.42931004 57.11488979 0.47424745 64.79653341 0.51740164 C73.54132227 0.56677072 82.2860735 0.62169007 91.03082597 0.67708123 C109.02051571 0.79090717 127.01024096 0.89774489 145 1 C145 1.33 145 1.66 145 2 C90.22 2 35.44 2 -21 2 C-21 1.67 -21 1.34 -21 1 C-18.06328811 0.6377756 -15.12596806 0.28491613 -12.1875 -0.0625 C-10.93743164 -0.2181543 -10.93743164 -0.2181543 -9.66210938 -0.37695312 C-8.45844727 -0.51713867 -8.45844727 -0.51713867 -7.23046875 -0.66015625 C-6.49207764 -0.74918213 -5.75368652 -0.83820801 -4.99291992 -0.92993164 C-3 -1 -3 -1 0 0 Z " fill="#FAB421" transform="translate(291,487)"/>
<path d="M0 0 C1.25159912 0.00523682 2.50319824 0.01047363 3.79272461 0.01586914 C4.78942421 0.01799156 4.78942421 0.01799156 5.80625916 0.02015686 C7.93590735 0.02577021 10.06545175 0.03832485 12.19506836 0.05102539 C13.63582205 0.05603868 15.07657739 0.06060188 16.51733398 0.06469727 C20.05577938 0.07574394 23.59416375 0.09301747 27.13256836 0.11352539 C27.69506836 2.05102539 27.69506836 2.05102539 28.13256836 4.11352539 C27.13256836 5.11352539 27.13256836 5.11352539 24.26513672 5.22705078 C23.0135376 5.22181396 21.76193848 5.21657715 20.47241211 5.21118164 C19.47571251 5.20905922 19.47571251 5.20905922 18.45887756 5.20689392 C16.32922937 5.20128057 14.19968496 5.18872593 12.07006836 5.17602539 C10.62931467 5.1710121 9.18855933 5.1664489 7.74780273 5.16235352 C4.20935734 5.15130684 0.67097297 5.13403331 -2.86743164 5.11352539 C-3.42993164 3.17602539 -3.42993164 3.17602539 -3.86743164 1.11352539 C-2.86743164 0.11352539 -2.86743164 0.11352539 0 0 Z " fill="#CDE883" transform="translate(25.867431640625,41.886474609375)"/>
<path d="M0 0 C1.32 0.33 2.64 0.66 4 1 C4.309375 2.134375 4.61875 3.26875 4.9375 4.4375 C5.62924531 7.78775099 5.62924531 7.78775099 7 9 C10.45812169 9.33338596 10.45812169 9.33338596 14 9 C16.12508244 5.81237635 16.5020163 3.73487777 17 0 C18.32 0.33 19.64 0.66 21 1 C20.66257669 8.89570552 20.66257669 8.89570552 18.5 12.5 C14.78634432 14.72819341 11.320328 15.46342619 7 15 C3.87059703 13.35089553 1.60192218 11.20384436 0 8 C-0.13415472 5.3276379 -0.04318541 2.67749512 0 0 Z " fill="#3D3D3D" transform="translate(250,209)"/>
<path d="M0 0 C3.4375 0.8125 3.4375 0.8125 5.4375 3.8125 C4.98466981 10.26533019 4.98466981 10.26533019 2.4375 12.8125 C-3.70481015 13.4825702 -3.70481015 13.4825702 -6.5625 11.25 C-7.99385511 7.76107191 -7.496466 5.41494028 -6.5625 1.8125 C-3.5625 -0.1875 -3.5625 -0.1875 0 0 Z " fill="#3E3E3E" transform="translate(240.5625,191.1875)"/>
<path d="M0 0 C3.0625 0.3125 3.0625 0.3125 4.9375 1.375 C6.70523274 4.4194286 6.43073916 6.8756012 6.0625 10.3125 C4.9375 12.25 4.9375 12.25 3.0625 13.3125 C0.0625 13.75 0.0625 13.75 -2.9375 13.3125 C-4.875 11.75 -4.875 11.75 -5.9375 9.3125 C-5.48600609 0.58361767 -5.48600609 0.58361767 0 0 Z " fill="#373737" transform="translate(280.9375,190.6875)"/>
<path d="M0 0 C0.83265381 0.00523682 1.66530762 0.01047363 2.52319336 0.01586914 C3.42231445 0.0190918 4.32143555 0.02231445 5.24780273 0.02563477 C6.66609375 0.03820312 6.66609375 0.03820312 8.11303711 0.05102539 C9.06243164 0.05553711 10.01182617 0.06004883 10.98999023 0.06469727 C13.34356776 0.07652429 15.69702188 0.09300514 18.05053711 0.11352539 C18.61303711 2.05102539 18.61303711 2.05102539 19.05053711 4.11352539 C18.05053711 5.11352539 18.05053711 5.11352539 16.10107422 5.22705078 C15.26842041 5.22181396 14.4357666 5.21657715 13.57788086 5.21118164 C12.67875977 5.20795898 11.77963867 5.20473633 10.85327148 5.20141602 C9.90774414 5.19303711 8.9622168 5.1846582 7.98803711 5.17602539 C7.03864258 5.17151367 6.08924805 5.16700195 5.11108398 5.16235352 C2.75750646 5.15052649 0.40405234 5.13404564 -1.94946289 5.11352539 C-2.51196289 3.17602539 -2.51196289 3.17602539 -2.94946289 1.11352539 C-1.94946289 0.11352539 -1.94946289 0.11352539 0 0 Z " fill="#CDE883" transform="translate(24.949462890625,19.886474609375)"/>
<path d="M0 0 C3.63 0.66 7.26 1.32 11 2 C11 2.33 11 2.66 11 3 C-15.4 3 -41.8 3 -69 3 C-69 2.67 -69 2.34 -69 2 C-46.23 2 -23.46 2 0 2 C0 1.34 0 0.68 0 0 Z " fill="#F8C333" transform="translate(231,441)"/>
<path d="M0 0 C1.91015625 0.1328125 1.91015625 0.1328125 3.91015625 1.1328125 C4.09765625 3.5078125 4.09765625 3.5078125 3.91015625 6.1328125 C0.91015625 8.1328125 0.91015625 8.1328125 -2.65234375 7.8828125 C-6.08984375 7.1328125 -6.08984375 7.1328125 -8.08984375 5.1328125 C-7.24327669 -0.45453008 -5.38577683 0.0195491 0 0 Z " fill="#FE669D" transform="translate(285.08984375,211.8671875)"/>
<path d="M0 0 C1.91015625 0.23046875 1.91015625 0.23046875 3.91015625 2.23046875 C3.91015625 3.55046875 3.91015625 4.87046875 3.91015625 6.23046875 C0.91015625 8.23046875 0.91015625 8.23046875 -2.65234375 7.98046875 C-6.08984375 7.23046875 -6.08984375 7.23046875 -8.08984375 5.23046875 C-7.24578654 -0.34030882 -5.3755226 0.10731533 0 0 Z " fill="#FE649C" transform="translate(239.08984375,211.76953125)"/>
</svg>
