<?xml version="1.0" encoding="UTF-8"?>
<!DOCTYPE svg PUBLIC "-//W3C//DTD SVG 1.1//EN" "http://www.w3.org/Graphics/SVG/1.1/DTD/svg11.dtd">
<svg xmlns="http://www.w3.org/2000/svg" version="1.1" width="512px" height="512px" style="shape-rendering:geometricPrecision; text-rendering:geometricPrecision; image-rendering:optimizeQuality; fill-rule:evenodd; clip-rule:evenodd" xmlns:xlink="http://www.w3.org/1999/xlink">
<g><path style="opacity:0.98" fill="#172081" d="M 82.5,14.5 C 145.225,14.011 207.892,14.511 270.5,16C 297.333,43.5 324.167,71 351,98.5C 351.5,136.499 351.667,174.499 351.5,212.5C 354.617,212.642 357.117,213.976 359,216.5C 360.043,219.757 360.543,223.09 360.5,226.5C 362.827,226.665 364.993,227.331 367,228.5C 371.64,222.72 377.14,221.554 383.5,225C 388.367,229.532 392.867,234.366 397,239.5C 397.667,242.167 397.667,244.833 397,247.5C 395.267,249.723 393.767,252.056 392.5,254.5C 393.046,256.135 393.38,257.801 393.5,259.5C 405.457,259.294 410.457,265.127 408.5,277C 410.458,288.872 405.458,294.705 393.5,294.5C 393.38,296.199 393.046,297.865 392.5,299.5C 393.767,301.944 395.267,304.277 397,306.5C 397.817,309.964 397.483,313.298 396,316.5C 391.093,322.078 385.593,326.911 379.5,331C 374.27,331.137 369.77,329.303 366,325.5C 364.559,326.26 363.059,326.926 361.5,327.5C 360.56,330.803 359.727,334.136 359,337.5C 357.117,340.024 354.617,341.358 351.5,341.5C 355.014,373.652 340.681,387.652 308.5,383.5C 308.666,390.841 308.5,398.174 308,405.5C 304.727,415.774 297.894,422.274 287.5,425C 203.833,425.667 120.167,425.667 36.5,425C 23.767,422.267 16.6004,414.433 15,401.5C 14.3333,294.833 14.3333,188.167 15,81.5C 17.6248,67.875 25.7915,60.0416 39.5,58C 45.4908,57.5005 51.4908,57.3338 57.5,57.5C 57.3338,51.1579 57.5005,44.8246 58,38.5C 60.8014,24.8638 68.9681,16.8638 82.5,14.5 Z"/></g>
<g><path style="opacity:0.983" fill="#162081" d="M 424.5,14.5 C 468.371,16.5381 492.704,39.3714 497.5,83C 495.393,115.249 479.393,137.249 449.5,149C 444.904,150.286 440.237,151.119 435.5,151.5C 435.334,156.179 435.501,160.845 436,165.5C 441,171.833 446,178.167 451,184.5C 452.439,186.275 453.439,188.275 454,190.5C 454.667,204.5 454.667,218.5 454,232.5C 452.906,236.592 450.239,238.926 446,239.5C 442.488,238.488 439.322,236.822 436.5,234.5C 435.669,242.145 435.169,249.812 435,257.5C 429.514,263.08 424.514,262.747 420,256.5C 419.667,249.167 419.333,241.833 419,234.5C 413.852,240.356 408.518,240.689 403,235.5C 402.667,234.167 402.333,232.833 402,231.5C 401.333,217.167 401.333,202.833 402,188.5C 407.911,181.011 413.577,173.345 419,165.5C 419.667,160.833 419.667,156.167 419,151.5C 374.786,140.072 355.786,111.738 362,66.5C 371.837,35.8212 392.67,18.4878 424.5,14.5 Z"/></g>
<g><path style="opacity:1" fill="#a4a8ce" d="M 81.5,31.5 C 139.998,30.501 198.664,30.1676 257.5,30.5C 257.5,49.1667 257.5,67.8333 257.5,86.5C 256.503,68.3409 256.17,50.0076 256.5,31.5C 198.167,31.5 139.833,31.5 81.5,31.5 Z"/></g>
<g><path style="opacity:1" fill="#fcfcfd" d="M 81.5,31.5 C 139.833,31.5 198.167,31.5 256.5,31.5C 256.17,50.0076 256.503,68.3409 257.5,86.5C 258.939,98.1072 265.272,105.607 276.5,109C 296.164,109.5 315.831,109.667 335.5,109.5C 335.5,144.167 335.5,178.833 335.5,213.5C 332.675,213.081 330.509,214.081 329,216.5C 327.378,219.987 326.545,223.654 326.5,227.5C 324.418,227.472 322.584,228.139 321,229.5C 318.436,227.273 315.603,225.439 312.5,224C 309.697,223.245 307.03,223.578 304.5,225C 299.3,229.865 294.467,235.032 290,240.5C 289.333,242.167 289.333,243.833 290,245.5C 291.715,248.435 293.548,251.268 295.5,254C 294.391,256.047 293.724,258.213 293.5,260.5C 287.93,259.416 283.43,261.083 280,265.5C 279.333,272.833 279.333,280.167 280,287.5C 282.995,292.546 287.495,294.879 293.5,294.5C 294.447,296.059 295.113,297.726 295.5,299.5C 293.682,302.462 291.849,305.462 290,308.5C 289.333,310.167 289.333,311.833 290,313.5C 294.833,319.667 300.333,325.167 306.5,330C 308.5,330.667 310.5,330.667 312.5,330C 315.318,328.662 317.985,327.162 320.5,325.5C 322.762,326.467 325.095,327.134 327.5,327.5C 326.628,332.447 327.961,336.613 331.5,340C 332.793,340.49 334.127,340.657 335.5,340.5C 335.666,347.175 335.5,353.842 335,360.5C 333.612,363.945 331.112,366.111 327.5,367C 245.5,367.667 163.5,367.667 81.5,367C 77.2297,365.73 74.7297,362.896 74,358.5C 73.3333,251.833 73.3333,145.167 74,38.5C 75.4098,34.9212 77.9098,32.5878 81.5,31.5 Z"/></g>
<g><path style="opacity:1" fill="#29a7f2" d="M 420.5,30.5 C 452.594,29.6168 472.761,44.6168 481,75.5C 482.737,103.747 470.57,123.247 444.5,134C 441.487,134.502 438.487,135.002 435.5,135.5C 435.5,130.833 435.5,126.167 435.5,121.5C 459.062,114.734 469.228,99.0678 466,74.5C 457.249,50.037 440.082,40.537 414.5,46C 389.189,58.9312 382.355,78.4312 394,104.5C 400.12,113.805 408.62,119.472 419.5,121.5C 419.5,125.833 419.5,130.167 419.5,134.5C 405.834,132.081 394.667,125.415 386,114.5C 368.423,84.3171 373.59,58.8171 401.5,38C 407.722,34.8766 414.056,32.3766 420.5,30.5 Z"/></g>
<g><path style="opacity:1" fill="#d3e4fc" d="M 272.5,41.5 C 290.327,58.4938 307.66,75.9938 324.5,94C 309.5,94.6667 294.5,94.6667 279.5,94C 277.376,92.8783 275.543,91.3783 274,89.5C 272.546,73.5707 272.046,57.5707 272.5,41.5 Z"/></g>
<g><path style="opacity:1" fill="#161f81" d="M 91.5,54.5 C 114.836,54.3334 138.169,54.5 161.5,55C 165.212,57.5575 166.378,61.0575 165,65.5C 163.786,67.0488 162.286,68.2155 160.5,69C 137.5,69.6667 114.5,69.6667 91.5,69C 86.2353,64.0757 86.2353,59.2423 91.5,54.5 Z"/></g>
<g><path style="opacity:1" fill="#151f81" d="M 182.5,54.5 C 201.17,54.3334 219.836,54.5001 238.5,55C 243.626,57.553 244.793,61.3864 242,66.5C 241.097,67.7014 239.931,68.5348 238.5,69C 219.833,69.6667 201.167,69.6667 182.5,69C 177.214,64.1687 177.214,59.3354 182.5,54.5 Z"/></g>
<g><path style="opacity:1" fill="#fbfbfd" d="M 420.5,81.5 C 419.833,89.5 419.167,97.5 418.5,105.5C 406.581,99.9459 401.747,90.6126 404,77.5C 408.944,63.6055 418.778,57.7722 433.5,60C 450.659,67.1645 455.493,79.3312 448,96.5C 446.167,99.6667 443.667,102.167 440.5,104C 438.975,105.009 437.308,105.509 435.5,105.5C 435.941,96.7244 435.441,88.0578 434,79.5C 428.496,73.8376 423.996,74.5042 420.5,81.5 Z"/></g>
<g><path style="opacity:1" fill="#d5e6fe" d="M 38.5,74.5 C 44.8333,74.5 51.1667,74.5 57.5,74.5C 57.1673,169.335 57.5006,264.001 58.5,358.5C 60.0285,371.863 67.3619,380.029 80.5,383C 151.166,383.5 221.833,383.667 292.5,383.5C 292.666,390.175 292.5,396.842 292,403.5C 290.749,406.381 288.583,408.214 285.5,409C 202.833,409.667 120.167,409.667 37.5,409C 35.3762,407.878 33.5429,406.378 32,404.5C 30.3398,296.889 30.0064,189.223 31,81.5C 32.083,77.5817 34.583,75.2483 38.5,74.5 Z"/></g>
<g><path style="opacity:1" fill="#abbae2" d="M 38.5,74.5 C 44.979,73.5093 51.6457,73.176 58.5,73.5C 58.5,168.5 58.5,263.5 58.5,358.5C 57.5006,264.001 57.1673,169.335 57.5,74.5C 51.1667,74.5 44.8333,74.5 38.5,74.5 Z"/></g>
<g><path style="opacity:1" fill="#696ead" d="M 420.5,81.5 C 420.831,89.8599 420.498,98.1932 419.5,106.5C 418.893,106.376 418.56,106.043 418.5,105.5C 419.167,97.5 419.833,89.5 420.5,81.5 Z"/></g>
<g><path style="opacity:1" fill="#172081" d="M 91.5,93.5 C 101.839,93.3335 112.172,93.5002 122.5,94C 126.212,96.513 127.378,100.013 126,104.5C 124.786,106.049 123.286,107.215 121.5,108C 111.5,108.667 101.5,108.667 91.5,108C 86.2353,103.076 86.2353,98.2423 91.5,93.5 Z"/></g>
<g><path style="opacity:1" fill="#151f81" d="M 145.5,93.5 C 176.835,93.3334 208.168,93.5 239.5,94C 244.986,99.0814 244.653,103.748 238.5,108C 207.5,108.667 176.5,108.667 145.5,108C 140.202,103.092 140.202,98.2584 145.5,93.5 Z"/></g>
<g><path style="opacity:1" fill="#151f81" d="M 91.5,133.5 C 134.835,133.333 178.168,133.5 221.5,134C 226.949,137.243 227.782,141.41 224,146.5C 222.933,147.191 221.766,147.691 220.5,148C 177.5,148.667 134.5,148.667 91.5,148C 86.2353,143.076 86.2353,138.242 91.5,133.5 Z"/></g>
<g><path style="opacity:1" fill="#172081" d="M 245.5,133.5 C 269.836,133.333 294.169,133.5 318.5,134C 323.986,139.081 323.653,143.748 317.5,148C 293.833,148.667 270.167,148.667 246.5,148C 240.205,143.663 239.872,138.829 245.5,133.5 Z"/></g>
<g><path style="opacity:1" fill="#182182" d="M 91.5,172.5 C 99.1739,172.334 106.841,172.5 114.5,173C 118.124,175.161 119.291,178.328 118,182.5C 117.167,184.667 115.667,186.167 113.5,187C 106.167,187.667 98.8333,187.667 91.5,187C 86.2353,182.076 86.2353,177.242 91.5,172.5 Z"/></g>
<g><path style="opacity:1" fill="#182182" d="M 137.5,172.5 C 147.506,172.334 157.506,172.5 167.5,173C 168.931,173.465 170.097,174.299 171,175.5C 172.724,180.731 171.224,184.565 166.5,187C 157.167,187.667 147.833,187.667 138.5,187C 133.311,184.087 132.144,179.92 135,174.5C 135.995,173.934 136.828,173.267 137.5,172.5 Z"/></g>
<g><path style="opacity:1" fill="#172081" d="M 194.5,172.5 C 235.835,172.333 277.168,172.5 318.5,173C 322.707,176.07 323.54,179.903 321,184.5C 319.829,185.893 318.329,186.727 316.5,187C 276.167,187.667 235.833,187.667 195.5,187C 189.292,182.58 188.958,177.747 194.5,172.5 Z"/></g>
<g><path style="opacity:1" fill="#f6bd12" d="M 426.5,181.5 C 428.017,181.511 429.184,182.177 430,183.5C 432.422,187.344 435.089,191.01 438,194.5C 438.667,201.833 438.667,209.167 438,216.5C 431.746,210.32 425.246,209.986 418.5,215.5C 417.336,208.524 417.169,201.524 418,194.5C 421.082,190.266 423.916,185.933 426.5,181.5 Z"/></g>
<g><path style="opacity:1" fill="#1a2283" d="M 90.5,211.5 C 107.17,211.333 123.837,211.5 140.5,212C 146.241,217.558 145.574,222.225 138.5,226C 123.167,226.667 107.833,226.667 92.5,226C 87.7762,223.565 86.2762,219.731 88,214.5C 89.045,213.627 89.8783,212.627 90.5,211.5 Z"/></g>
<g><path style="opacity:1" fill="#1b2283" d="M 166.5,211.5 C 186.503,211.333 206.503,211.5 226.5,212C 232.241,217.558 231.574,222.225 224.5,226C 205.5,226.667 186.5,226.667 167.5,226C 161.318,221.478 160.985,216.644 166.5,211.5 Z"/></g>
<g><path style="opacity:1" fill="#1b2283" d="M 245.5,211.5 C 258.837,211.333 272.171,211.5 285.5,212C 289.124,214.161 290.291,217.328 289,221.5C 288.167,223.667 286.667,225.167 284.5,226C 271.833,226.667 259.167,226.667 246.5,226C 240.413,221.445 240.08,216.612 245.5,211.5 Z"/></g>
<g><path style="opacity:1" fill="#ee857e" d="M 341.5,228.5 C 342.833,228.5 344.167,228.5 345.5,228.5C 345.293,233.201 346.96,237.035 350.5,240C 356.202,241.456 361.702,243.29 367,245.5C 370.775,244.617 374.275,243.451 377.5,242C 378.167,242.667 378.833,243.333 379.5,244C 377.299,246.739 375.632,249.739 374.5,253C 377.056,258.665 379.223,264.499 381,270.5C 383.924,274.036 387.757,275.703 392.5,275.5C 392.5,276.5 392.5,277.5 392.5,278.5C 386.636,277.988 382.469,280.321 380,285.5C 378.163,290.505 376.33,295.505 374.5,300.5C 375.819,304.12 377.319,307.454 379,310.5C 378.261,311.574 377.261,312.241 376,312.5C 373.503,310.086 370.503,308.753 367,308.5C 361.532,310.323 356.032,312.156 350.5,314C 346.507,316.819 344.84,320.653 345.5,325.5C 344.167,325.5 342.833,325.5 341.5,325.5C 342.119,320.58 340.453,316.747 336.5,314C 330.704,312.842 325.204,311.008 320,308.5C 316.794,309.267 313.794,310.601 311,312.5C 309.566,312.07 308.399,311.236 307.5,310C 309.964,307.072 311.63,303.739 312.5,300C 310.25,294.996 308.417,289.829 307,284.5C 304.182,280.675 300.348,278.842 295.5,279C 294.167,277.667 294.167,276.333 295.5,275C 299.273,274.988 302.606,273.821 305.5,271.5C 306.831,265.836 308.998,260.503 312,255.5C 312.1,251.176 310.6,247.343 307.5,244C 308.399,242.764 309.566,241.93 311,241.5C 313.794,243.399 316.794,244.733 320,245.5C 325.429,243.54 330.929,241.707 336.5,240C 340.453,237.253 342.119,233.42 341.5,228.5 Z"/></g>
<g><path style="opacity:1" fill="#232785" d="M 92.5,249.5 C 144.501,249.333 196.501,249.5 248.5,250C 253.224,252.435 254.724,256.269 253,261.5C 251.786,263.049 250.286,264.215 248.5,265C 196.5,265.667 144.5,265.667 92.5,265C 87.7762,262.565 86.2762,258.731 88,253.5C 89.3968,251.93 90.8968,250.596 92.5,249.5 Z"/></g>
<g><path style="opacity:1" fill="#1b2081" d="M 339.5,251.5 C 352.126,251.058 361.292,256.391 367,267.5C 371.168,287.495 363.168,299.162 343,302.5C 325.105,299.27 317.105,288.603 319,270.5C 322.849,260.813 329.683,254.479 339.5,251.5 Z"/></g>
<g><path style="opacity:1" fill="#f6f6fa" d="M 339.5,267.5 C 348.998,266.173 353.498,270.173 353,279.5C 350.575,285.795 346.075,287.962 339.5,286C 331.565,279.838 331.565,273.671 339.5,267.5 Z"/></g>
<g><path style="opacity:1" fill="#212685" d="M 92.5,288.5 C 114.503,288.333 136.503,288.5 158.5,289C 163.689,291.913 164.856,296.08 162,301.5C 161.097,302.701 159.931,303.535 158.5,304C 136.5,304.667 114.5,304.667 92.5,304C 87.9315,301.459 86.4315,297.625 88,292.5C 89.3968,290.93 90.8968,289.596 92.5,288.5 Z"/></g>
<g><path style="opacity:1" fill="#212685" d="M 180.5,288.5 C 208.502,288.333 236.502,288.5 264.5,289C 272.393,293.91 272.393,298.91 264.5,304C 236.5,304.667 208.5,304.667 180.5,304C 175.931,301.459 174.431,297.625 176,292.5C 177.397,290.93 178.897,289.596 180.5,288.5 Z"/></g>
<g><path style="opacity:1" fill="#192282" d="M 92.5,327.5 C 141.168,327.333 189.834,327.5 238.5,328C 243.535,331.013 244.702,335.18 242,340.5C 241.25,341.126 240.416,341.626 239.5,342C 189.833,342.667 140.167,342.667 90.5,342C 86.0019,336.32 86.6686,331.487 92.5,327.5 Z"/></g>
<g><path style="opacity:1" fill="#1b2383" d="M 264.5,327.5 C 271.175,327.334 277.842,327.5 284.5,328C 289.143,330.072 290.643,333.572 289,338.5C 288.5,340.333 287.333,341.5 285.5,342C 277.833,342.667 270.167,342.667 262.5,342C 258.002,336.32 258.669,331.487 264.5,327.5 Z"/></g>
<g><path style="opacity:0.978" fill="#171f80" d="M 416.5,358.5 C 423.175,358.334 429.842,358.5 436.5,359C 438.246,359.471 439.913,360.138 441.5,361C 443.765,364.83 444.932,368.997 445,373.5C 447.192,374.399 449.358,375.399 451.5,376.5C 454.304,374.862 456.971,373.029 459.5,371C 462.167,370.333 464.833,370.333 467.5,371C 473.302,375.8 478.802,380.967 484,386.5C 484.667,389.167 484.667,391.833 484,394.5C 481.971,397.029 480.138,399.696 478.5,402.5C 479.609,404.385 480.443,406.385 481,408.5C 485.243,409.293 489.41,410.46 493.5,412C 494.893,413.171 495.727,414.671 496,416.5C 496.905,424.911 496.572,433.245 495,441.5C 491.131,444.599 486.631,446.099 481.5,446C 480.833,447.333 480.167,448.667 479.5,450C 481.543,453.253 483.71,456.42 486,459.5C 486.667,462.167 486.667,464.833 486,467.5C 480.5,473 475,478.5 469.5,484C 466.833,484.667 464.167,484.667 461.5,484C 458.971,481.971 456.304,480.138 453.5,478.5C 450.988,479.38 448.821,480.713 447,482.5C 446.548,485.877 445.882,489.211 445,492.5C 443.681,494.487 441.848,495.654 439.5,496C 431.089,496.905 422.755,496.572 414.5,495C 411.703,490.996 410.203,486.496 410,481.5C 407.808,480.601 405.642,479.601 403.5,478.5C 400.696,480.138 398.029,481.971 395.5,484C 392.833,484.667 390.167,484.667 387.5,484C 382,478.5 376.5,473 371,467.5C 370.333,464.833 370.333,462.167 371,459.5C 372.833,457 374.667,454.5 376.5,452C 375.283,450.352 374.45,448.519 374,446.5C 369.71,445.883 365.543,444.717 361.5,443C 359.996,441.509 359.163,439.676 359,437.5C 358.104,429.754 358.437,422.087 360,414.5C 360.5,412.667 361.667,411.5 363.5,411C 366.789,410.118 370.123,409.452 373.5,409C 374.399,406.808 375.399,404.642 376.5,402.5C 374.862,399.696 373.029,397.029 371,394.5C 370.333,391.833 370.333,389.167 371,386.5C 376.167,381.333 381.333,376.167 386.5,371C 389.167,370.333 391.833,370.333 394.5,371C 397,372.833 399.5,374.667 402,376.5C 403.648,375.283 405.481,374.45 407.5,374C 408.117,369.71 409.283,365.543 411,361.5C 412.876,360.391 414.709,359.391 416.5,358.5 Z"/></g>
<g><path style="opacity:1" fill="#f9c010" d="M 423.5,374.5 C 425.5,374.5 427.5,374.5 429.5,374.5C 429.523,379.144 430.856,383.31 433.5,387C 439.322,388.245 444.655,390.578 449.5,394C 451.167,394.667 452.833,394.667 454.5,394C 457.199,391.49 460.199,389.824 463.5,389C 464.5,390 465.5,391 466.5,392C 463.871,394.79 461.871,397.957 460.5,401.5C 463.807,407.121 466.307,413.121 468,419.5C 471.021,423.753 475.187,425.419 480.5,424.5C 480.5,426.5 480.5,428.5 480.5,430.5C 474.184,429.573 469.684,431.906 467,437.5C 465.522,442.099 464.355,446.766 463.5,451.5C 464.439,455.859 465.939,459.859 468,463.5C 466.981,464.687 465.814,465.687 464.5,466.5C 461.571,463.876 458.238,462.209 454.5,461.5C 449.33,463.574 443.997,465.407 438.5,467C 436.919,467.707 435.419,468.54 434,469.5C 432.378,472.987 431.545,476.654 431.5,480.5C 429.5,480.5 427.5,480.5 425.5,480.5C 426.014,476.247 425.014,472.413 422.5,469C 416.132,467.102 410.132,464.435 404.5,461C 403.167,460.333 401.833,460.333 400.5,461C 397.801,463.51 394.801,465.176 391.5,466C 390.5,465 389.5,464 388.5,463C 391.356,460.152 393.356,456.819 394.5,453C 391.328,447.149 388.828,440.982 387,434.5C 383.31,431.856 379.144,430.523 374.5,430.5C 374.5,428.5 374.5,426.5 374.5,424.5C 379.144,424.477 383.31,423.144 387,420.5C 388.245,414.678 390.578,409.345 394,404.5C 394.667,402.833 394.667,401.167 394,399.5C 391.49,396.801 389.824,393.801 389,390.5C 389.725,389.941 390.558,389.608 391.5,389.5C 393.944,390.767 396.277,392.267 398.5,394C 402.631,394.262 406.298,392.928 409.5,390C 413.243,388.864 416.91,387.53 420.5,386C 422.32,382.409 423.32,378.576 423.5,374.5 Z"/></g>
<g><path style="opacity:1" fill="#192080" d="M 421.5,401.5 C 437.301,399.976 447.801,406.643 453,421.5C 454.959,435.751 449.459,445.918 436.5,452C 419.02,456.011 407.52,449.511 402,432.5C 400.407,417.01 406.907,406.676 421.5,401.5 Z"/></g>
<g><path style="opacity:1" fill="#f5f5f9" d="M 424.5,416.5 C 436.696,417.233 440.529,423.233 436,434.5C 428.069,440.679 421.735,439.345 417,430.5C 416.11,423.943 418.61,419.276 424.5,416.5 Z"/></g>
<g><path style="opacity:0.971" fill="#151f81" d="M 55.5,432.5 C 125.162,433.255 194.829,433.755 264.5,434C 280.92,441.808 297.253,449.808 313.5,458C 316.674,463.28 316.008,467.947 311.5,472C 295.469,480.016 279.469,488.016 263.5,496C 195.167,496.667 126.833,496.667 58.5,496C 38.975,494.143 28.6416,483.476 27.5,464C 28.9141,446.421 38.2474,435.921 55.5,432.5 Z"/></g>
<g><path style="opacity:1" fill="#33c89f" d="M 55.5,448.5 C 59.5,448.5 63.5,448.5 67.5,448.5C 67.5,459.167 67.5,469.833 67.5,480.5C 49.2311,482.075 41.7311,474.075 45,456.5C 47.8552,452.789 51.3552,450.123 55.5,448.5 Z"/></g>
<g><path style="opacity:1" fill="#fcfcfd" d="M 83.5,449.5 C 140.167,449.5 196.833,449.5 253.5,449.5C 253.802,452.059 253.468,454.393 252.5,456.5C 196.167,456.5 139.833,456.5 83.5,456.5C 83.5,454.167 83.5,451.833 83.5,449.5 Z"/></g>
<g><path style="opacity:1" fill="#33c59f" d="M 268.5,454.5 C 275.862,457.014 282.862,460.347 289.5,464.5C 282.833,468.167 276.167,471.833 269.5,475.5C 269.557,468.511 269.224,461.511 268.5,454.5 Z"/></g>
<g><path style="opacity:1" fill="#474e9b" d="M 83.5,449.5 C 83.5,451.833 83.5,454.167 83.5,456.5C 139.833,456.5 196.167,456.5 252.5,456.5C 196.002,457.499 139.336,457.832 82.5,457.5C 82.1936,454.615 82.5269,451.948 83.5,449.5 Z"/></g>
<g><path style="opacity:1" fill="#7479b3" d="M 252.5,472.5 C 196.167,472.5 139.833,472.5 83.5,472.5C 83.5,474.833 83.5,477.167 83.5,479.5C 83.5,479.833 83.5,480.167 83.5,480.5C 82.5233,477.713 82.19,474.713 82.5,471.5C 139.336,471.168 196.002,471.501 252.5,472.5 Z"/></g>
<g><path style="opacity:1" fill="#fefffe" d="M 252.5,472.5 C 252.5,474.833 252.5,477.167 252.5,479.5C 196.167,479.5 139.833,479.5 83.5,479.5C 83.5,477.167 83.5,474.833 83.5,472.5C 139.833,472.5 196.167,472.5 252.5,472.5 Z"/></g>
<g><path style="opacity:1" fill="#cccee3" d="M 252.5,472.5 C 253.473,474.948 253.806,477.615 253.5,480.5C 196.833,480.5 140.167,480.5 83.5,480.5C 83.5,480.167 83.5,479.833 83.5,479.5C 139.833,479.5 196.167,479.5 252.5,479.5C 252.5,477.167 252.5,474.833 252.5,472.5 Z"/></g>
</svg>
