<?xml version="1.0" encoding="UTF-8"?>
<svg version="1.1" xmlns="http://www.w3.org/2000/svg" width="512" height="512">
<path d="M0 0 C1.22847656 -0.01611328 2.45695313 -0.03222656 3.72265625 -0.04882812 C12.09794291 -0.05331649 18.81303892 0.61088827 25.98046875 5.1015625 C28.55124376 7.75194257 29.86993952 10.35011318 31.4375 13.6875 C36.17996483 22.79507225 41.81476291 26.44556245 51.4609375 29.62109375 C56.9324683 31.04112447 61.28000337 30.71882132 66.625 28.8125 C72.97073268 26.55623949 77.72469491 26.42749777 83.875 29.125 C95.04212947 35.21616153 105.99688607 46.12016352 110.125 58.3125 C110.76184483 62.91928663 110.45407471 66.96771134 108.625 71.25 C105.69496879 78.39195109 106.54308922 84.50020399 109.375 91.5625 C112.53244071 98.77393865 115.29423728 103.38423273 122.5625 106.8125 C128.92229547 110.06369589 132.61431025 112.33614876 135.21875 119.19140625 C136.72421387 124.7614032 136.45361109 130.52411938 136.4375 136.25 C136.45361328 137.39146484 136.46972656 138.53292969 136.48632812 139.70898438 C136.49113584 148.03113759 135.67717791 155.2864449 129.96875 161.84765625 C127.44554855 163.85231842 124.67478951 164.96749932 121.75 166.3125 C112.76483772 170.83564292 110.20241309 178.08026073 107.125 187.3125 C106.66740403 192.26685636 106.65824458 196.75498019 108.625 201.375 C110.87547762 206.77398236 111.23414794 211.54161786 109.03515625 217.03515625 C107.80560034 219.51208773 106.50592583 221.91738601 105.125 224.3125 C104.795 224.9725 104.465 225.6325 104.125 226.3125 C105.28189569 228.89832629 106.49534639 231.37240814 107.8125 233.875 C108.55749023 235.3234479 109.30099034 236.77266322 110.04296875 238.22265625 C110.40310059 238.92406738 110.76323242 239.62547852 111.13427734 240.34814453 C112.94626801 243.94086925 114.54046085 247.61524197 116.125 251.3125 C116.79982422 250.4771875 116.79982422 250.4771875 117.48828125 249.625 C122.70848057 243.4318978 128.42416682 238.83309885 135.125 234.3125 C133.6433074 230.49199217 131.92909242 226.90143084 130.02734375 223.27734375 C126.17746798 214.89428092 126.81889704 201.88032686 129.6875 193.25 C134.30728762 182.70202337 142.51452337 174.49478762 153.0625 169.875 C163.21248785 166.57732462 175.9324692 166.69745205 185.73828125 170.9921875 C196.2559474 176.8104709 203.70109157 185.06373247 207.40625 196.5625 C210.41645998 208.07982513 209.11469896 218.81013187 203.1484375 229.15625 C201.83914018 231.5169687 201.83914018 231.5169687 202.125 235.3125 C204.26166939 237.18406105 204.26166939 237.18406105 207.0625 238.875 C220.5353102 248.26618862 229.11810635 263.25329438 232.125 279.3125 C232.55188915 284.34130982 232.59014865 289.33037855 232.5625 294.375 C232.58248047 295.67244141 232.60246094 296.96988281 232.62304688 298.30664062 C232.61685414 310.52490206 229.95371222 318.26680676 221.49609375 327.11328125 C214.49291966 333.60881175 207.4273739 336.54534399 197.80957031 336.60302734 C197.10299286 336.60974457 196.39641541 336.61646179 195.66842651 336.62338257 C193.34658656 336.64228467 191.02503699 336.64628308 188.703125 336.6484375 C187.07655726 336.65487196 185.44999066 336.6616008 183.82342529 336.66860962 C180.41741252 336.68056374 177.01150101 336.68429248 173.60546875 336.68310547 C169.26359047 336.68290264 164.92236939 336.71017499 160.58064651 336.74464989 C157.22093792 336.76700697 153.86138513 336.77094029 150.5016098 336.76988602 C148.90218598 336.77222988 147.30275707 336.7809842 145.70340729 336.79655075 C136.84378935 336.87469459 129.13345188 336.6339927 121.125 332.3125 C121.10312622 333.92306274 121.10312622 333.92306274 121.08081055 335.56616211 C121.02241528 339.58650416 120.9451885 343.60631002 120.86254883 347.6262207 C120.82949201 349.35920446 120.80140147 351.0922909 120.77856445 352.82543945 C120.74466108 355.3306821 120.69233272 357.8349998 120.63671875 360.33984375 C120.62713387 361.48416115 120.62713387 361.48416115 120.61735535 362.65159607 C120.35941699 372.29570865 117.3485503 379.2295768 110.61328125 386.13671875 C102.22419557 393.47223009 92.2725405 393.01533595 81.67539215 392.53245544 C75.3203619 391.98437365 69.27035096 390.14941954 63.19045639 388.30112457 C60.72136047 387.55287301 58.2440091 386.84104183 55.76199341 386.13690186 C48.72340315 384.1336832 41.70301531 382.07028306 34.68896484 379.98291016 C30.35825586 378.6967266 26.01730976 377.45151314 21.66827774 376.22881317 C20.03657224 375.76119378 18.40914775 375.27830886 16.78695297 374.77869415 C5.48904788 371.30052972 -2.58325669 371.07328098 -13.87070084 374.67795563 C-16.98132736 375.662754 -20.13617033 376.48002378 -23.28662109 377.32714844 C-25.74111207 378.02344711 -28.19503775 378.7217411 -30.6484375 379.421875 C-33.37667445 380.18693086 -36.10637134 380.94673318 -38.8359375 381.70703125 C-43.04750846 382.88107102 -47.25681127 384.06174635 -51.45898438 385.26904297 C-91.52393528 396.75836837 -91.52393528 396.75836837 -105.8671875 389.63671875 C-113.31372594 384.72548036 -117.95663566 378.0225116 -119.875 369.3125 C-120.02610957 366.47861169 -120.13131534 363.66389452 -120.19140625 360.828125 C-120.2225779 359.60473419 -120.2225779 359.60473419 -120.25437927 358.35662842 C-120.31961297 355.75866895 -120.37863768 353.16061087 -120.4375 350.5625 C-120.48071014 348.798167 -120.52432522 347.03384387 -120.56835938 345.26953125 C-120.67526745 340.95062116 -120.77660827 336.63161216 -120.875 332.3125 C-121.40182373 332.59508667 -121.92864746 332.87767334 -122.47143555 333.16882324 C-130.72992173 337.06668818 -138.77392699 336.89644898 -147.6875 336.84375 C-149.30835197 336.84645084 -150.92920235 336.85033816 -152.55004883 336.85534668 C-155.93228721 336.86121399 -159.31410046 336.85276907 -162.69628906 336.83398438 C-167.00673778 336.81119607 -171.31618991 336.82433417 -175.62660217 336.84827423 C-178.96919101 336.86280775 -182.31154803 336.8580919 -185.65414429 336.84776306 C-187.24238201 336.84511657 -188.83064159 336.84829142 -190.41885376 336.85768127 C-203.64913105 336.91875761 -212.83982772 335.08719768 -222.67578125 325.68359375 C-231.3261679 316.35715557 -232.23789896 307.17976034 -232.25 294.8125 C-232.27449219 293.52601563 -232.29898438 292.23953125 -232.32421875 290.9140625 C-232.37846901 272.9391426 -226.19658118 257.41365398 -213.875 244.3125 C-209.75349336 240.65642353 -205.45716042 237.36727361 -200.875 234.3125 C-202.00512354 231.29883724 -203.24877853 228.67006816 -204.875 225.875 C-209.60454789 216.43368448 -209.78041978 205.30770012 -206.875 195.3125 C-203.00374888 184.75595579 -196.10395144 177.13340176 -186.46484375 171.50390625 C-176.46639504 166.90431823 -163.29295832 166.42104414 -152.8125 169.875 C-142.26452337 174.49478762 -134.05728762 182.70202337 -129.4375 193.25 C-126.03130301 203.73400892 -126.50569257 216.00727516 -130.70703125 226.1484375 C-131.875 228.3125 -131.875 228.3125 -133.57421875 230.4140625 C-134.00347656 231.04054688 -134.43273437 231.66703125 -134.875 232.3125 C-133.59789599 236.14381202 -132.06788632 236.77150142 -128.75 239 C-123.65200743 242.5825528 -119.69496394 246.41043024 -115.875 251.3125 C-115.45541016 250.25675781 -115.45541016 250.25675781 -115.02734375 249.1796875 C-114.62644531 248.19226563 -114.22554688 247.20484375 -113.8125 246.1875 C-113.37035156 245.09695313 -112.92820312 244.00640625 -112.47265625 242.8828125 C-111.33591068 240.34250577 -110.20065437 238.06443134 -108.80859375 235.6796875 C-104.87676808 229.58886399 -104.87676808 229.58886399 -104.5078125 222.75390625 C-105.81361842 220.72057989 -107.23699453 219.07958743 -108.875 217.3125 C-110.66856646 211.93180063 -110.62990531 206.60808214 -108.375 201.375 C-105.44496879 194.23304891 -106.29308922 188.12479601 -109.125 181.0625 C-112.28244071 173.85106135 -115.04423728 169.24076727 -122.3125 165.8125 C-128.67229547 162.56130411 -132.36431025 160.28885124 -134.96875 153.43359375 C-136.47421387 147.8635968 -136.20361109 142.10088062 -136.1875 136.375 C-136.20361328 135.23353516 -136.21972656 134.09207031 -136.23632812 132.91601562 C-136.24113584 124.59386241 -135.42717791 117.3385551 -129.71875 110.77734375 C-127.19554855 108.77268158 -124.42478951 107.65750068 -121.5 106.3125 C-113.36913176 102.21019119 -110.91167603 96.62287008 -107.875 88.3125 C-106.14648696 82.62281125 -106.04034437 76.81876329 -108.375 71.3125 C-110.54124924 66.04268213 -110.84125963 61.41577828 -109.13671875 55.94140625 C-104.01416754 44.2992444 -93.45621055 34.37386279 -82.375 28.4375 C-76.47534548 26.54118247 -72.0820772 26.75324534 -66.375 28.8125 C-57.9195231 31.80355305 -52.05078792 30.16269854 -43.9296875 26.77734375 C-35.76601769 22.86254045 -33.18340619 18.19133633 -29.40234375 10.09765625 C-26.64821924 5.07542921 -23.21906588 3.21357047 -18.01953125 1.21484375 C-12.16313084 -0.37538169 -6.01835081 -0.01568913 0 0 Z M-14.3125 18.875 C-16.04004819 21.56997517 -17.37653531 24.35077897 -18.765625 27.23046875 C-24.15239632 37.34014873 -33.91360431 41.90356237 -44.33203125 45.55078125 C-53.05623088 48.16402077 -61.40125873 48.30116626 -70 45.25 C-73.76993235 44.19540454 -75.14330979 43.90426083 -78.60546875 45.8359375 C-81.25253807 48.18265857 -83.55806429 50.64125625 -85.875 53.3125 C-86.96941406 54.40884766 -86.96941406 54.40884766 -88.0859375 55.52734375 C-90.75278318 58.21554596 -90.75278318 58.21554596 -92.875 61.3125 C-92.63389998 64.16788068 -91.80904899 66.49591846 -90.83984375 69.19140625 C-86.99027482 81.64406041 -90.89678911 93.94144779 -96.26171875 105.23046875 C-100.9437514 113.70943747 -107.04897981 119.061127 -116.08984375 122.48828125 C-118.06679956 123.17561021 -118.06679956 123.17561021 -118.875 125.3125 C-120.83758107 137.63778434 -120.83758107 137.63778434 -117.875 149.3125 C-115.0177295 151.15404838 -112.11090304 152.43463678 -108.98828125 153.7734375 C-100.27864678 158.07907863 -96.15849316 166.58139318 -92.875 175.3125 C-92.5553125 176.11429688 -92.235625 176.91609375 -91.90625 177.7421875 C-88.0766729 188.5571969 -89.21133577 199.62681266 -92.875 210.3125 C-89.14672619 207.20560516 -85.63823186 204.09653904 -82.3125 200.5625 C-73.03160595 191.19219464 -61.37568821 184.56971334 -49.875 178.3125 C-51.38265933 175.21820871 -53.04924972 172.24173431 -54.75 169.25 C-63.49157028 153.11007633 -66.21591301 135.66410107 -61.25 117.8125 C-55.21904812 99.93503549 -44.76364119 87.42758258 -28.015625 78.84765625 C-13.73859319 72.04437451 3.97583829 70.49578164 19.3125 74.875 C21.275704 75.62325969 23.21520781 76.43685379 25.125 77.3125 C26.20652344 77.79847656 27.28804687 78.28445312 28.40234375 78.78515625 C45.34341397 87.14696804 55.68374878 100.73208666 61.83984375 118.359375 C66.75459232 135.72242834 63.42995899 153.66485631 55 169.25 C54.50242187 170.12527344 54.00484375 171.00054687 53.4921875 171.90234375 C52.29628031 174.01055729 51.18633443 176.13423743 50.125 178.3125 C51.20136719 178.91835938 52.27773438 179.52421875 53.38671875 180.1484375 C68.14407813 188.56520821 80.40168352 198.01886001 92.125 210.3125 C92.455 209.6525 92.785 208.9925 93.125 208.3125 C92.650625 207.260625 92.17625 206.20875 91.6875 205.125 C87.04242719 193.25425838 90.5817402 180.50830762 95.41015625 169.33984375 C100.03201917 159.98024947 106.56355491 153.74678689 116.375 150.1015625 C118.32165597 149.44548089 118.32165597 149.44548089 119.125 147.3125 C120.08150356 139.90491131 120.54834215 132.66643444 119.125 125.3125 C116.98471622 122.5654691 114.59949673 121.52774979 111.4375 120.1875 C101.64986747 115.39355754 96.86004457 107.23017516 93.125 97.3125 C92.8053125 96.52230469 92.485625 95.73210937 92.15625 94.91796875 C88.52443179 84.7791429 88.87366414 74.10905655 93.125 64.3125 C92.53747488 59.1072336 88.56931767 55.93843894 85.125 52.3125 C84.45082031 51.51972656 83.77664063 50.72695312 83.08203125 49.91015625 C80.85257879 47.53451019 79.02212741 45.81521562 76.125 44.3125 C72.89767355 44.50470919 70.28786128 45.32076489 67.2265625 46.34765625 C55.74161113 49.92043079 44.21672567 45.83783066 33.75 40.9375 C24.44892359 36.00007795 19.4248069 29.42984969 15.0546875 19.94921875 C14.22153465 18.12875064 14.22153465 18.12875064 12.125 17.3125 C-1.52422298 15.25950424 -1.52422298 15.25950424 -14.3125 18.875 Z M-37.0546875 106.0078125 C-46.240799 117.63829702 -48.15479354 131.0108072 -46.875 145.3125 C-44.49996484 157.48455521 -37.43180434 167.56216477 -27.875 175.3125 C-15.16498248 183.05766693 -1.9753317 185.3883739 12.61328125 182.66015625 C25.63018725 178.7263831 36.24799835 169.67102701 42.8359375 157.88671875 C48.46301871 146.64960809 49.17539372 132.86586095 45.5625 120.8125 C40.18166194 107.11409888 30.05712023 97.40522151 16.89453125 91.2734375 C-2.80380666 84.01793954 -23.07069353 91.45766493 -37.0546875 106.0078125 Z M-184.875 191.3125 C-190.42384531 197.53429038 -191.84751508 203.66496919 -191.453125 211.90234375 C-190.38793403 218.18553102 -187.76124983 222.96436454 -182.80078125 227 C-176.01504393 231.41511929 -169.87808913 232.01506126 -161.875 231.3125 C-155.23217235 229.55673579 -150.69514532 224.85687307 -146.875 219.3125 C-143.93437743 213.31362996 -143.77616212 206.4296647 -145.4921875 200 C-148.40691354 193.39672685 -154.27690576 188.14396564 -160.875 185.3125 C-169.92187526 183.50312495 -177.78716314 185.14345681 -184.875 191.3125 Z M151.125 191.3125 C145.41641047 198.54714812 144.32668508 205.21865173 145.125 214.3125 C146.88076421 220.95532765 151.58062693 225.49235468 157.125 229.3125 C163.10286456 232.24282576 170.13857357 232.52149818 176.5078125 230.58984375 C182.42600068 227.81077059 187.29635942 223.41056538 190.38671875 217.5859375 C192.4027748 211.37776489 192.23139155 204.54091596 190.125 198.39453125 C186.66566514 191.89845073 181.85959574 188.14646808 175.125 185.3125 C166.52688814 182.69227248 157.79382207 185.61265207 151.125 191.3125 Z M-44.875 194.75 C-45.63176025 195.10908447 -46.38852051 195.46816895 -47.16821289 195.83813477 C-54.09923695 199.23866156 -59.95386353 203.33531282 -65.875 208.3125 C-66.72320312 208.99828125 -67.57140625 209.6840625 -68.4453125 210.390625 C-87.1726664 226.24136341 -99.96237158 249.94140611 -102.875 274.3125 C-103.27384307 281.37140096 -103.20572331 288.45187944 -103.2109375 295.51953125 C-103.21737369 297.57451976 -103.22410265 299.62950737 -103.23110962 301.68449402 C-103.24302975 305.97189461 -103.24679536 310.25921489 -103.24560547 314.54663086 C-103.24540136 320.03548623 -103.27282159 325.5238292 -103.30714989 331.01256275 C-103.32938634 335.24794379 -103.33344418 339.48320021 -103.33238602 343.71863365 C-103.33474232 345.74281282 -103.34356748 347.7669954 -103.35905075 349.79111671 C-103.37866594 352.61737909 -103.37289269 355.44251803 -103.36083984 358.26879883 C-103.37207886 359.09956436 -103.38331787 359.9303299 -103.39489746 360.78627014 C-103.3374451 366.09299256 -102.36924975 369.08470929 -98.875 373.3125 C-95.14470715 376.11021964 -91.096459 376.4536922 -86.54730225 375.92784119 C-75.69104006 373.81356332 -65.05681689 371.10783415 -54.390625 368.19140625 C-52.52364153 367.68582726 -50.6565113 367.18078994 -48.78924561 366.67625427 C-43.88601177 365.34981209 -38.98482426 364.01596053 -34.08404541 362.68048096 C-29.25649426 361.36637455 -24.42699278 360.05947984 -19.59765625 358.75195312 C-10.95766444 356.41183563 -2.32067459 354.06084052 6.31545258 351.70650673 C12.37021834 350.05761999 18.42845745 348.42215244 24.48931503 346.79580402 C28.56444584 345.70169435 32.63826986 344.60276747 36.71195221 343.50327873 C38.64582437 342.9826564 40.58029912 342.4642666 42.51540375 341.94824409 C45.19188989 341.23426378 47.86613821 340.51241083 50.54003906 339.78881836 C51.32457207 339.58172934 52.10910507 339.37464031 52.9174118 339.16127586 C60.03952017 337.2183106 66.14343588 334.93352797 70.125 328.3125 C71.90615794 324.15927865 72.25840134 321.0995679 71.5 316.625 C69.59114192 312.02638736 67.60339262 309.3332949 63.5 306.5 C52.99428607 302.8035451 41.87231878 307.09253084 31.56640625 309.80859375 C29.73667742 310.28133644 27.90666917 310.75299878 26.07640076 311.22364807 C21.25216996 312.46722941 16.43179408 313.725152 11.61212158 314.98626709 C6.83799033 316.2329792 2.06047699 317.46656824 -2.71679688 318.70117188 C-5.54106382 319.43209728 -8.36525694 320.16330737 -11.18944168 320.89455032 C-13.05869946 321.37843537 -14.92802056 321.86207589 -16.79740524 322.34547043 C-25.77435947 324.66751626 -34.74848166 326.99548505 -43.69603252 329.42877483 C-46.94175324 330.3099164 -50.19081513 331.17830944 -53.4403553 332.04524422 C-54.94233062 332.44991596 -56.44258511 332.861039 -57.94088554 333.27911186 C-59.99053046 333.85081543 -62.04497466 334.40037804 -64.10180664 334.94555664 C-65.82083946 335.4164547 -65.82083946 335.4164547 -67.57460022 335.89686584 C-71.57062355 336.40010299 -74.15854067 335.82569865 -77.875 334.3125 C-79.56844432 330.72239804 -80.08627519 328.47451354 -79.375 324.5625 C-77.39052912 321.58579368 -75.06793637 320.80597024 -71.875 319.3125 C-71.86041748 318.26795654 -71.84583496 317.22341309 -71.83081055 316.1472168 C-71.77284449 312.27235655 -71.69561226 308.39807849 -71.61254883 304.52368164 C-71.57929137 302.84669441 -71.55126192 301.16959503 -71.52856445 299.49243164 C-71.49503263 297.08170775 -71.44272022 294.67201238 -71.38671875 292.26171875 C-71.38032883 291.51162033 -71.3739389 290.76152191 -71.36735535 289.98869324 C-71.22061147 284.79554271 -71.22061147 284.79554271 -69.46411133 282.34057617 C-66.48905153 280.41586011 -63.27352913 280.78037122 -59.875 281.3125 C-57.20068511 283.12413267 -56.91579641 284.19011077 -55.875 287.3125 C-55.72429203 289.44911258 -55.6264034 291.58962124 -55.55859375 293.73046875 C-55.51669922 294.98408203 -55.47480469 296.23769531 -55.43164062 297.52929688 C-55.39232422 298.83962891 -55.35300781 300.14996094 -55.3125 301.5 C-55.26929008 302.83529978 -55.225675 304.17058652 -55.18164062 305.50585938 C-55.07543498 308.77463297 -54.97339003 312.04348333 -54.875 315.3125 C-46.49880349 313.233966 -38.12412067 311.14938032 -29.75 309.0625 C-28.49524872 308.75003326 -27.24049744 308.43756653 -25.94772339 308.1156311 C-12.35700404 304.72843166 1.22501248 301.31462991 14.76953125 297.74609375 C15.82315857 297.46877411 16.87678589 297.19145447 17.96234131 296.9057312 C22.91593222 295.59981629 27.86690948 294.28482461 32.81494141 292.95800781 C34.5940413 292.48619908 36.37317356 292.01451234 38.15234375 291.54296875 C38.93438675 291.33006699 39.71642975 291.11716522 40.52217102 290.89781189 C45.71843223 289.5279568 50.77177462 288.80253495 56.125 288.3125 C56.41375 287.343125 56.7025 286.37375 57 285.375 C58.125 282.3125 58.125 282.3125 60.125 281.3125 C67.24867491 280.86020318 67.24867491 280.86020318 70.0625 282.3125 C71.125 284.3125 71.125 284.3125 71.25 288 C71.50198365 291.00189223 71.90143356 292.07687396 74.0078125 294.296875 C75.60747853 295.61673146 77.21448337 296.92773578 78.828125 298.23046875 C84.29663754 303.18747076 86.87592227 309.61308318 87.36328125 316.8515625 C87.63671508 326.91318845 86.76411362 334.87749255 80.4375 343.125 C73.84187546 349.97243987 65.13037047 352.50620985 56.1875 354.9375 C54.13663617 355.51272649 52.08585404 356.08824436 50.03515625 356.6640625 C49.0517627 356.93637695 48.06836914 357.20869141 47.05517578 357.48925781 C42.72738274 358.70516501 38.42484645 360.00165106 34.125 361.3125 C36.81992585 363.10911724 38.41553459 363.8089076 41.45361328 364.62524414 C42.3252713 364.86211441 43.19692932 365.09898468 44.09500122 365.34303284 C45.5059053 365.71657143 45.5059053 365.71657143 46.9453125 366.09765625 C47.91854462 366.35880722 48.89177673 366.61995819 49.89450073 366.88902283 C51.95659165 367.44060724 54.01945108 367.98932535 56.08300781 368.53540039 C59.2192698 369.36685313 62.35188698 370.21109585 65.484375 371.05664062 C67.49197922 371.59192759 69.49978566 372.12645684 71.5078125 372.66015625 C72.43626984 372.91120621 73.36472717 373.16225616 74.32131958 373.4209137 C85.91352211 376.60264128 85.91352211 376.60264128 97.3984375 374.38671875 C100.36855552 372.53879464 101.62879315 370.42461026 103.125 367.3125 C103.97822586 362.58636799 104.25506835 358.02227247 104.27026367 353.22583008 C104.27362228 352.55467667 104.2769809 351.88352325 104.28044128 351.19203186 C104.28988018 348.98867903 104.29189195 346.78540301 104.29296875 344.58203125 C104.29619016 343.02569042 104.29955487 341.46934987 104.30305481 339.91300964 C104.30903138 336.64911196 104.31089662 333.38524066 104.31030273 330.12133789 C104.31022199 326.81366445 104.31708179 323.50613101 104.33081055 320.19848633 C104.47521917 284.88605407 104.33257047 250.60810389 80.125 222.3125 C79.30515625 221.31992187 78.4853125 220.32734375 77.640625 219.3046875 C68.55569103 208.62084611 57.64745921 200.68935201 45.0625 194.5625 C44.0094165 194.04091309 44.0094165 194.04091309 42.93505859 193.50878906 C38.56055018 191.50595144 35.7437735 190.91923361 31.125 192.3125 C28.41494616 193.44795322 25.82580727 194.74333642 23.19921875 196.05859375 C15.70425146 199.11562615 8.34435122 199.67319111 0.3125 199.625 C-1.1410791 199.61762817 -1.1410791 199.61762817 -2.62402344 199.61010742 C-13.10723445 199.43866947 -21.55603905 197.47771293 -30.71875 192.30078125 C-35.90969715 189.92159714 -40.15504717 192.508478 -44.875 194.75 Z M-193.65234375 250.12890625 C-204.63549908 257.57082604 -211.85743469 268.36399214 -214.875 281.3125 C-215.41360101 284.64443368 -215.70492202 287.94283004 -215.875 291.3125 C-215.91625 292.08851563 -215.9575 292.86453125 -216 293.6640625 C-216.2146896 301.47339656 -215.03976425 308.19633181 -209.875 314.3125 C-203.66770488 319.21997691 -198.05159837 320.42642371 -190.18017578 320.45776367 C-189.08528839 320.46414352 -187.990401 320.47052338 -186.86233521 320.47709656 C-185.69346771 320.47820938 -184.52460022 320.4793222 -183.3203125 320.48046875 C-182.10479706 320.48379715 -180.88928162 320.48712555 -179.63693237 320.49055481 C-177.06997047 320.4956093 -174.50300203 320.49796359 -171.93603516 320.49780273 C-168.02104813 320.49998825 -164.10634343 320.5181574 -160.19140625 320.53710938 C-157.69270929 320.54004383 -155.194011 320.54202828 -152.6953125 320.54296875 C-150.94808395 320.55374702 -150.94808395 320.55374702 -149.16555786 320.56474304 C-140.47840534 320.54047193 -132.79821339 320.15876909 -125.875 314.3125 C-122.43435061 309.96054348 -120.21892191 305.92989118 -119.875 300.3125 C-119.83632812 299.69246094 -119.79765625 299.07242188 -119.7578125 298.43359375 C-119.20912986 281.88166732 -123.91868723 268.05129879 -134.875 255.6875 C-139.8213943 250.9845524 -146.40217791 247.38588388 -152.875 245.3125 C-155.82302318 246.08475903 -155.82302318 246.08475903 -158.875 247.3125 C-161.85640817 247.61716165 -164.81791407 247.5923216 -167.8125 247.5625 C-168.58529297 247.57023438 -169.35808594 247.57796875 -170.15429688 247.5859375 C-174.00058938 247.57293228 -176.83534455 247.32538063 -180.54296875 246.12109375 C-185.97758471 244.80225963 -189.0370949 247.41062536 -193.65234375 250.12890625 Z M142.34765625 250.12890625 C131.36450092 257.57082604 124.14256531 268.36399214 121.125 281.3125 C120.58639899 284.64443368 120.29507798 287.94283004 120.125 291.3125 C120.08375 292.08851563 120.0425 292.86453125 120 293.6640625 C119.79152952 301.24717631 120.90664703 307.67496 125.640625 313.7734375 C130.42483036 318.73390305 136.19538055 320.12441759 142.91867065 320.44621277 C144.35474167 320.45193047 144.35474167 320.45193047 145.81982422 320.45776367 C146.91471161 320.46414352 148.009599 320.47052338 149.13766479 320.47709656 C150.30653229 320.47820938 151.47539978 320.4793222 152.6796875 320.48046875 C153.89520294 320.48379715 155.11071838 320.48712555 156.36306763 320.49055481 C158.93002953 320.4956093 161.49699797 320.49796359 164.06396484 320.49780273 C167.97895187 320.49998825 171.89365657 320.5181574 175.80859375 320.53710938 C178.30729071 320.54004383 180.805989 320.54202828 183.3046875 320.54296875 C185.05191605 320.55374702 185.05191605 320.55374702 186.83444214 320.56474304 C195.52159466 320.54047193 203.20178661 320.15876909 210.125 314.3125 C213.56564939 309.96054348 215.78107809 305.92989118 216.125 300.3125 C216.16367187 299.69246094 216.20234375 299.07242188 216.2421875 298.43359375 C216.79087014 281.88166732 212.08131277 268.05129879 201.125 255.6875 C196.1786057 250.9845524 189.59782209 247.38588388 183.125 245.3125 C180.17697682 246.08475903 180.17697682 246.08475903 177.125 247.3125 C174.14359183 247.61716165 171.18208593 247.5923216 168.1875 247.5625 C167.41470703 247.57023438 166.64191406 247.57796875 165.84570312 247.5859375 C161.99941062 247.57293228 159.16465545 247.32538063 155.45703125 246.12109375 C150.02241529 244.80225963 146.9629051 247.41062536 142.34765625 250.12890625 Z " fill="#000000" transform="translate(255.875,103.6875)"/>
<path d="M0 0 C7.35228262 5.74986205 10.93589386 13.3710094 12.765625 22.3671875 C13.80830511 32.28212748 10.37017935 40.92740217 4.765625 48.8671875 C-1.46022793 55.23453709 -8.67825033 58.85721593 -17.69360352 59.06005859 C-27.77111404 59.03353566 -35.82684852 57.50546694 -43.453125 50.3828125 C-49.78125865 43.34437814 -52.82139555 35.10286293 -52.984375 25.6796875 C-52.38852793 16.62281206 -49.40788819 9.0214352 -42.87109375 2.60546875 C-30.56567833 -7.53215328 -13.54296034 -9.01086731 0 0 Z M-33.359375 18.3046875 C-35.56345393 22.88238989 -35.7815389 26.68521161 -34.984375 31.6796875 C-32.65468569 36.51827298 -29.82296048 39.34999819 -24.984375 41.6796875 C-19.98989911 42.4768514 -16.18707739 42.25876643 -11.609375 40.0546875 C-8.02529787 36.81195105 -5.38902259 34.21492854 -4.6015625 29.28125 C-4.34553581 23.59745756 -5.04810568 20.03030095 -8.984375 15.6796875 C-13.33498845 11.74341818 -16.90214506 11.04084831 -22.5859375 11.296875 C-27.51961604 12.08433509 -30.11663855 14.72061037 -33.359375 18.3046875 Z " fill="#000000" transform="translate(275.984375,21.3203125)"/>
<path d="M0 0 C6.76382552 5.16456959 10.86657563 12.41665582 12.55078125 20.6875 C13.90384645 31.44298763 10.94093485 40.23894907 4.80078125 48.9375 C-1.44480557 55.32503198 -8.6680594 58.92852512 -17.70898438 59.13037109 C-24.90610597 59.11153942 -30.76398468 58.73329074 -36.94921875 54.75 C-37.655625 54.31429687 -38.36203125 53.87859375 -39.08984375 53.4296875 C-45.99568959 48.74905865 -49.74637899 42.74978649 -51.94921875 34.75 C-52.94357488 23.69645972 -52.27971173 14.10932461 -45.32421875 5 C-33.60391616 -7.61726452 -14.21052811 -9.11296392 0 0 Z M-30.53515625 15.21875 C-34.60043552 20.01248972 -35.30593771 23.09022682 -35.2265625 29.2109375 C-34.67551592 34.25573015 -31.94410631 36.84986364 -28.32421875 40.125 C-23.74651636 42.32907893 -19.94369464 42.5471639 -14.94921875 41.75 C-10.11063327 39.42031069 -7.27890806 36.58858548 -4.94921875 31.75 C-4.15205485 26.75552411 -4.37013982 22.95270239 -6.57421875 18.375 C-9.92856754 14.66756187 -13.0536016 12.36813603 -17.82421875 10.8125 C-22.68070269 10.71537032 -26.90936515 11.8608745 -30.53515625 15.21875 Z " fill="#000000" transform="translate(67.94921875,117.25)"/>
<path d="M0 0 C6.17298916 4.82759409 9.95858294 11.16740614 12.015625 18.6796875 C12.80439221 27.53038935 12.97566889 35.977756 8.015625 43.6796875 C7.57992187 44.38609375 7.14421875 45.0925 6.6953125 45.8203125 C2.01560787 52.72479474 -3.98494056 56.47960179 -11.984375 58.6796875 C-20.83507685 59.46845471 -29.2824435 59.63973139 -36.984375 54.6796875 C-37.69078125 54.24398437 -38.3971875 53.80828125 -39.125 53.359375 C-46.56815963 48.3145668 -50.59497184 41.46638753 -52.390625 32.6953125 C-53.85181104 23.33043833 -51.9960372 14.89963404 -46.81640625 6.97265625 C-35.43800269 -7.26854394 -15.15079875 -10.08064956 0 0 Z M-30.5703125 15.1484375 C-34.63559177 19.94217722 -35.34109396 23.01991432 -35.26171875 29.140625 C-34.71067217 34.18541765 -31.97926256 36.77955114 -28.359375 40.0546875 C-23.78167261 42.25876643 -19.97885089 42.4768514 -14.984375 41.6796875 C-10.14578952 39.34999819 -7.31406431 36.51827298 -4.984375 31.6796875 C-4.1872111 26.68521161 -4.40529607 22.88238989 -6.609375 18.3046875 C-9.96372379 14.59724937 -13.08875785 12.29782353 -17.859375 10.7421875 C-22.71585894 10.64505782 -26.9445214 11.790562 -30.5703125 15.1484375 Z " fill="#000000" transform="translate(483.984375,117.3203125)"/>
<path d="M0 0 C2.9375 2.0625 2.9375 2.0625 5 5 C5.5625 8.5625 5.5625 8.5625 5 12 C1.98018006 15.77882947 -1.79696132 17.60630866 -6.10546875 19.58203125 C-6.80881851 19.91278152 -7.51216827 20.2435318 -8.23683167 20.58430481 C-10.54978959 21.66901614 -12.86844431 22.74089507 -15.1875 23.8125 C-16.81504969 24.57217347 -18.44232466 25.33243579 -20.06933594 26.09326172 C-31.93506962 31.62970032 -43.8508083 37.05704383 -55.78344727 42.44750977 C-67.13540862 47.57957573 -78.4203493 52.84902098 -89.68652344 58.16650391 C-90.64765549 58.61949356 -90.64765549 58.61949356 -91.62820435 59.08163452 C-93.34987122 59.89339077 -95.07072042 60.70688062 -96.79150391 61.52050781 C-108.38681455 66.86730301 -108.38681455 66.86730301 -115 66 C-118.2883921 63.28707652 -118.90851499 61.65183071 -119.5 57.4375 C-118.90719671 53.36197739 -118.05469689 52.62024232 -115 50 C-112.7746582 48.68237305 -112.7746582 48.68237305 -110.30078125 47.51171875 C-109.3564624 47.06078857 -108.41214355 46.6098584 -107.43920898 46.14526367 C-105.89148804 45.42367065 -105.89148804 45.42367065 -104.3125 44.6875 C-103.2181665 44.16969971 -102.12383301 43.65189941 -100.99633789 43.1184082 C-90.62997092 38.23820604 -80.19200921 33.51321234 -69.75097656 28.79541016 C-60.50479547 24.61435266 -51.29927935 20.35401463 -42.11889648 16.03045654 C-38.1659495 14.1697838 -34.20950773 12.31655397 -30.25311279 10.46322632 C-27.49201748 9.16960152 -24.73222225 7.8734173 -21.97558594 6.5703125 C-19.46865959 5.38805356 -16.95489774 4.22224836 -14.4375 3.0625 C-13.76017822 2.73838135 -13.08285645 2.4142627 -12.38500977 2.08032227 C-8.11017171 0.13932368 -4.6758475 -0.46531492 0 0 Z " fill="#000000" transform="translate(209,63)"/>
<path d="M0 0 C2.74614681 0.99928041 5.23174847 2.03630792 7.84375 3.3046875 C8.59335495 3.6552269 9.3429599 4.0057663 10.11528015 4.3669281 C12.58280669 5.52408477 15.04113748 6.69956038 17.5 7.875 C19.23672378 8.6930579 20.97412213 9.50968506 22.7121582 10.32495117 C26.33107161 12.0238022 29.94698727 13.72881269 33.56103516 15.43798828 C41.26031277 19.07278069 48.99688555 22.62625252 56.73248291 26.18289185 C60.77291616 28.04198536 64.81020054 29.90788866 68.84765625 31.7734375 C74.04565936 34.17474857 79.24463516 36.57391564 84.44544983 38.96913147 C87.06614526 40.17674066 89.68576701 41.38666431 92.30508423 42.59725952 C94.06602653 43.41027242 95.8282795 44.22044461 97.59057617 45.03051758 C98.63576416 45.51415771 99.68095215 45.99779785 100.7578125 46.49609375 C101.6564502 46.91044678 102.55508789 47.3247998 103.48095703 47.75170898 C110.65283772 51.30567545 110.65283772 51.30567545 112 54 C112.49055907 58.33327174 112.47744439 60.32000344 109.9375 63.9375 C106.19110775 66.56794562 104.52900557 66.41240945 100 66 C97.11409412 65.07375073 94.44131372 63.80095943 91.71875 62.4765625 C90.92466232 62.10378174 90.13057465 61.73100098 89.31242371 61.34692383 C86.70233868 60.11844808 84.1014305 58.8716836 81.5 57.625 C79.66840556 56.7594625 77.83611873 55.89538879 76.00317383 55.03271484 C72.21139084 53.24704349 68.42245868 51.45551535 64.63525391 49.66015625 C56.82752245 45.96590923 48.98057194 42.35747064 41.13247681 38.75 C38.69870375 37.63015515 36.26643766 36.50710603 33.8347168 35.3828125 C27.07678876 32.25847747 20.31749068 29.13813673 13.53782654 26.06118774 C10.90381361 24.86486812 8.2727161 23.6622244 5.64199829 22.4586792 C3.87124624 21.65176992 2.09620968 20.85428352 0.32104492 20.05712891 C-0.72720459 19.57679199 -1.7754541 19.09645508 -2.85546875 18.6015625 C-3.75934326 18.19244629 -4.66321777 17.78333008 -5.59448242 17.36181641 C-8.25000731 15.85846537 -10.04540008 14.34084157 -12 12 C-12.72125695 7.59231863 -12.52001338 5.74062512 -9.9375 2.0625 C-6.20160721 -0.56057366 -4.51294519 -0.39769027 0 0 Z " fill="#000000" transform="translate(310,63)"/>
<path d="M0 0 C3.00871644 0.61162819 4.21137446 1.88408419 5.90234375 4.38671875 C7.66306144 9.36457195 6.08309322 13.64375594 4.734375 18.53515625 C4.38024788 19.86953232 4.38024788 19.86953232 4.01896667 21.23086548 C3.26104763 24.07730402 2.48823247 26.91944889 1.71484375 29.76171875 C1.21319932 31.63515095 0.71253848 33.50884682 0.21289062 35.3828125 C-0.75967608 39.02730492 -1.74406863 42.66830877 -2.73583984 46.30761719 C-3.60445157 49.51014692 -4.43360829 52.7171014 -5.21337891 55.94238281 C-5.38396317 56.63200104 -5.55454742 57.32161926 -5.7303009 58.03213501 C-6.17550288 59.84406565 -6.60655742 61.65945655 -7.03637695 63.47509766 C-8.210336 66.69585579 -9.45685192 68.23771243 -12.09765625 70.38671875 C-14.84242431 71.11579777 -17.32211525 70.94524651 -20.09765625 70.38671875 C-23.12228193 68.37030163 -23.92004481 67.1230228 -24.77030945 63.59817505 C-25.11706436 60.19631424 -24.76895773 57.91967252 -23.89770508 54.62841797 C-23.61022903 53.52061981 -23.32275299 52.41282166 -23.02656555 51.27145386 C-22.70584579 50.09003815 -22.38512604 48.90862244 -22.0546875 47.69140625 C-21.72981857 46.46640411 -21.40494965 45.24140198 -21.07023621 43.97927856 C-20.38084842 41.3936959 -19.68663544 38.8100159 -18.98413086 36.22802734 C-18.08665073 32.92620447 -17.21262524 29.61869619 -16.34526539 26.30885124 C-15.51148885 23.14118473 -14.65711063 19.97909698 -13.8046875 16.81640625 C-13.4940889 15.63094208 -13.1834903 14.44547791 -12.86347961 13.22409058 C-12.56024277 12.12259674 -12.25700592 11.02110291 -11.94458008 9.88623047 C-11.68397293 8.91837616 -11.42336578 7.95052185 -11.15486145 6.95333862 C-8.83935696 1.33189462 -5.77366158 -0.31179923 0 0 Z " fill="#000000" transform="translate(452.09765625,188.61328125)"/>
<path d="M0 0 C3.42308999 2.86037712 4.69639922 5.22664273 5.84692383 9.49951172 C6.15016068 10.60100555 6.45339752 11.70249939 6.76582336 12.83737183 C7.07642197 14.022836 7.38702057 15.20830017 7.70703125 16.4296875 C8.03668381 17.65277618 8.36633636 18.87586487 8.70597839 20.13601685 C9.39918568 22.72181016 10.08676766 25.30836145 10.76538086 27.89794922 C11.63323405 31.20689368 12.52401747 34.50913196 13.42210865 37.80998039 C14.27915809 40.97167486 15.11732304 44.13835096 15.95703125 47.3046875 C16.27775101 48.48610321 16.59847076 49.66751892 16.9289093 50.88473511 C17.36012337 52.54643234 17.36012337 52.54643234 17.80004883 54.24169922 C18.1849926 55.69586746 18.1849926 55.69586746 18.57771301 57.17941284 C19.21588844 61.44198655 18.81637379 64.75911185 16.4375 68.375 C13.45670783 70.36219478 11.50691168 70.47645451 8 70.53125 C5.11343245 69.76450549 3.94128081 68.23879476 2 66 C0.99421692 63.59196472 0.99421692 63.59196472 0.27661133 60.88354492 C-0.00014938 59.86536179 -0.2769101 58.84717865 -0.5620575 57.79814148 C-0.84450821 56.70330948 -1.12695892 55.60847748 -1.41796875 54.48046875 C-1.8720385 52.7825695 -1.8720385 52.7825695 -2.33528137 51.05036926 C-2.97264373 48.65725476 -3.60348651 46.26239571 -4.22827148 43.8659668 C-5.18207667 40.2082975 -6.15458622 36.55602629 -7.13085938 32.90429688 C-7.74849742 30.57581275 -8.36506915 28.24704547 -8.98046875 25.91796875 C-9.26899216 24.82920944 -9.55751556 23.74045013 -9.8547821 22.61869812 C-13.54973598 8.41360681 -13.54973598 8.41360681 -11.6875 3.625 C-8.91218731 -0.69215307 -4.85970216 -0.99944818 0 0 Z " fill="#000000" transform="translate(66,189)"/>
<path d="M0 0 C1.04269043 -0.00574036 1.04269043 -0.00574036 2.10644531 -0.01159668 C3.57228041 -0.0143118 5.03816428 -0.00697835 6.50390625 0.00976562 C8.74328975 0.03118581 10.97946587 0.00995557 13.21875 -0.015625 C14.64584039 -0.01298165 16.07292879 -0.0078565 17.5 0 C19.44132812 0.00676758 19.44132812 0.00676758 21.421875 0.01367188 C25.25919979 0.61043894 26.44070951 1.47408051 28.75 4.53125 C29.28125 6.53125 29.28125 6.53125 29.25 8.53125 C29.2603125 9.19125 29.270625 9.85125 29.28125 10.53125 C28.48927074 13.51281897 27.16446325 14.62735121 24.75 16.53125 C21.421875 17.04882812 21.421875 17.04882812 17.5 17.0625 C16.80487305 17.0663269 16.10974609 17.07015381 15.39355469 17.07409668 C13.92771959 17.0768118 12.46183572 17.06947835 10.99609375 17.05273438 C8.75671025 17.03131419 6.52053413 17.05254443 4.28125 17.078125 C2.85415961 17.07548165 1.42707121 17.0703565 0 17.0625 C-1.29421875 17.05798828 -2.5884375 17.05347656 -3.921875 17.04882812 C-7.75919979 16.45206106 -8.94070951 15.58841949 -11.25 12.53125 C-11.78125 10.53125 -11.78125 10.53125 -11.75 8.53125 C-11.76546875 7.54125 -11.76546875 7.54125 -11.78125 6.53125 C-10.16044839 0.42940865 -5.57509951 0.01943511 0 0 Z " fill="#000000" transform="translate(291.25,343.46875)"/>
</svg>
