<?xml version="1.0" encoding="UTF-8"?>
<svg version="1.1" xmlns="http://www.w3.org/2000/svg" width="512" height="512">
<path d="M0 0 C1.61146608 -0.00785502 1.61146608 -0.00785502 3.25548702 -0.01586872 C6.8496482 -0.0308517 10.44366681 -0.03157351 14.03785706 -0.03224182 C16.61701192 -0.03986429 19.19616451 -0.04829193 21.77531433 -0.0574646 C28.77727921 -0.0802662 35.77921369 -0.08822942 42.78121066 -0.09329104 C47.15549656 -0.09655255 51.5297737 -0.10307761 55.90405464 -0.11029243 C68.02296762 -0.12984907 80.14187249 -0.14625975 92.26080227 -0.14916897 C93.03552569 -0.14935654 93.8102491 -0.14954411 94.60844899 -0.14973736 C96.17887183 -0.1501036 97.74929467 -0.1504673 99.31971752 -0.15082847 C100.09923775 -0.15101128 100.87875797 -0.1511941 101.68190002 -0.15138245 C102.46237472 -0.151563 103.24284941 -0.15174354 104.04697485 -0.15192956 C116.69942717 -0.15547286 129.35170948 -0.18250906 142.00410282 -0.21988034 C155.00403483 -0.25797012 168.00388245 -0.27732648 181.0038715 -0.27762848 C188.29904712 -0.27821276 195.59401969 -0.28668645 202.88914299 -0.31562614 C209.74860941 -0.34271347 216.60766743 -0.34403929 223.4671669 -0.3279705 C225.98424849 -0.32615225 228.50135296 -0.33288042 231.01838493 -0.34878922 C234.45544319 -0.3691885 237.89108515 -0.35873224 241.328125 -0.34057617 C242.32336683 -0.35377614 243.31860866 -0.36697611 244.34400934 -0.38057607 C252.56288808 -0.28145603 257.63596972 2.50007159 263.33302307 8.30540466 C264.36830827 9.45454947 265.39526467 10.61123664 266.41505432 11.77415466 C273.30543198 19.40157483 280.53667002 26.64837605 287.85523987 33.86399841 C291.5603012 37.53374681 295.21967692 41.18527663 298.60646057 45.15306091 C303.48175368 50.83983138 308.90080562 56.01557276 314.22755432 61.27415466 C325.94797603 72.84458926 325.94797603 72.84458926 329.71974182 77.27415466 C332.64015129 80.69869296 335.77795374 83.87094678 338.98536682 87.02415466 C339.50081055 87.53172302 340.01625427 88.03929138 340.5473175 88.5622406 C342.68686696 90.66540064 344.82910905 92.76562013 346.98097229 94.85618591 C348.572763 96.40521497 350.15457618 97.96391164 351.73536682 99.52415466 C352.67009827 100.43681091 353.60482971 101.34946716 354.56788635 102.28977966 C361.60801507 110.18940638 362.96987002 115.68555356 362.93458557 126.30540466 C362.94970688 127.5370636 362.96482819 128.76872253 362.98040771 130.03770447 C363.02320376 133.95004196 363.03211568 137.86160664 363.04005432 141.77415466 C363.06045289 144.43568238 363.08857073 147.09705931 363.1162262 149.75852966 C363.17899918 156.2637454 363.21399722 162.76866012 363.22755432 169.27415466 C364.32301575 168.79188416 365.41847717 168.30961365 366.5471344 167.81272888 C374.77259759 164.37413061 382.71742226 164.96170789 391.24317932 166.99681091 C400.32428533 170.88361937 407.20488361 178.84733846 414.09205627 185.71311951 C415.90943617 187.51857338 417.74467669 189.30447644 419.58106995 191.09056091 C428.73688685 200.12067331 435.4179027 208.42471612 435.54005432 221.83665466 C435.52894139 232.86314729 432.46069334 239.50065547 424.99098206 247.65916443 C421.61272727 250.85595628 417.97781634 253.27087607 414.04830074 255.73952484 C392.91188808 269.04943245 368.62985681 287.6335099 362.29924774 312.99278259 C355.11185628 348.7597077 358.68385463 388.29364483 361.185094 424.44026613 C361.32456677 426.45792354 361.4558818 428.47596954 361.58543396 430.49428558 C361.74696457 432.9322003 361.92775286 435.36895929 362.13284302 437.8035965 C362.87555954 449.13507087 359.42050323 458.50422815 352.22755432 467.27415466 C344.867688 475.36561804 336.03258286 479.74434966 325.22755432 481.27415466 C323.25630338 481.36256437 321.28260801 481.40486504 319.30937862 481.40837574 C318.1419953 481.41283358 316.97461197 481.41729143 315.77185339 481.42188436 C314.49862126 481.4217 313.22538914 481.42151563 311.91357422 481.42132568 C310.53997652 481.42462761 309.16637978 481.42835387 307.79278427 481.43246716 C304.02331121 481.44245778 300.25385406 481.4461992 296.48436964 481.44885647 C292.41669694 481.45276823 288.34903675 481.46234589 284.28137207 481.47106934 C274.46096213 481.49080832 264.6405512 481.50089632 254.82012638 481.50979713 C250.19198403 481.5141839 245.56384282 481.51954967 240.93570137 481.524786 C225.5450524 481.54179508 210.15440414 481.5562887 194.76374722 481.56353474 C190.77210934 481.56544453 186.78047147 481.56736488 182.78883362 481.56932068 C181.79677133 481.56980442 180.80470904 481.57028816 179.78258426 481.57078656 C163.71592761 481.57908488 147.64934547 481.60441989 131.58272135 481.63690136 C115.07637599 481.66999898 98.57006847 481.68798591 82.06368977 481.69117898 C72.8004434 481.69334148 63.53730569 481.70205215 54.27409172 481.72764015 C46.38445257 481.74938403 38.4949485 481.75737943 30.60528278 481.74767337 C26.58337072 481.74313944 22.56173716 481.74496169 18.53986359 481.76443481 C14.85013809 481.78214467 11.16089264 481.78100627 7.47116149 481.76553752 C5.52057216 481.76206247 3.56997733 481.77812909 1.61945909 481.79514199 C-10.47609611 481.70760204 -21.27512531 478.9802319 -30.77244568 471.27415466 C-31.39764099 470.77270935 -32.0228363 470.27126404 -32.66697693 469.75462341 C-38.73599138 464.32027714 -43.22608505 456.29932694 -44.77244568 448.27415466 C-44.86715749 445.9614362 -44.90336325 443.64613562 -44.90666676 441.33148098 C-44.90901899 440.62948608 -44.91137122 439.92749119 -44.91379473 439.20422372 C-44.92047812 436.84018438 -44.9200267 434.47620009 -44.9196167 432.1121521 C-44.92291574 430.4047465 -44.92664139 428.69734167 -44.93075818 426.98993784 C-44.9407818 422.28855768 -44.94449556 417.58719029 -44.94714749 412.88580096 C-44.95104948 407.81880502 -44.96062791 402.7518192 -44.96936035 397.68482971 C-44.98912801 385.4431057 -44.99919148 373.20138086 -45.00808814 360.95964488 C-45.01247065 355.19557491 -45.01783757 349.43150585 -45.02307701 343.6674366 C-45.04008979 324.50753311 -45.05458404 305.34763019 -45.06182575 286.1877203 C-45.06373566 281.21498552 -45.06565599 276.24225075 -45.06761169 271.26951599 C-45.06809543 270.03355828 -45.06857917 268.79760057 -45.06907757 267.5241896 C-45.07737815 247.50178081 -45.10271533 227.47943176 -45.13519237 207.45704906 C-45.16826001 186.90307256 -45.18627426 166.34912641 -45.18946999 145.79512316 C-45.19163539 134.25378851 -45.2003884 122.71254096 -45.22593117 111.17123222 C-45.24763411 101.34217703 -45.25569056 91.5132301 -45.24596439 81.68415367 C-45.24141851 76.67014373 -45.24332279 71.65635718 -45.26272583 66.64237785 C-45.28034956 62.04846789 -45.27936611 57.45494443 -45.26382854 52.86103041 C-45.26145128 51.20281787 -45.26578217 49.54457862 -45.27765719 47.88640689 C-45.37151246 33.91050252 -42.99274833 22.14077104 -33.18260193 11.55931091 C-23.70081517 2.79144692 -12.53465238 -0.03034895 0 0 Z M-11.77244568 38.27415466 C-13.00483606 41.79104496 -12.9000225 45.23127112 -12.90387344 48.93127155 C-12.90592608 49.60238573 -12.90797871 50.27349992 -12.91009355 50.96495089 C-12.91576827 53.22390568 -12.91430572 55.48279958 -12.91288757 57.74176025 C-12.91547093 59.37364529 -12.91848401 61.00552968 -12.92189097 62.6374132 C-12.92996755 67.12988791 -12.93175091 71.62234665 -12.93248844 76.11482775 C-12.93433783 80.95679506 -12.94188454 85.79875405 -12.94862366 90.64071655 C-12.96221173 101.23151989 -12.96823231 111.82231944 -12.97263432 122.41313004 C-12.97539569 129.02381041 -12.97963283 135.63448931 -12.98413849 142.24516869 C-12.99633131 160.54209838 -13.0066309 178.83902691 -13.01001358 197.13596058 C-13.01023315 198.30723322 -13.01045271 199.47850585 -13.01067893 200.6852716 C-13.01089721 201.85937039 -13.01111549 203.03346918 -13.01134038 204.24314672 C-13.01178385 206.62237918 -13.01223041 209.00161165 -13.01268005 211.38084412 C-13.01290148 212.56102939 -13.01312291 213.74121466 -13.01335105 214.95716312 C-13.0173003 234.08664923 -13.03475815 253.21609729 -13.05803958 272.34556869 C-13.08173996 291.97743608 -13.09421482 311.60928436 -13.0953815 331.24116629 C-13.09629895 342.26703857 -13.10206894 353.29286124 -13.12020111 364.31871986 C-13.13558431 373.7061432 -13.14073306 383.0935016 -13.13246301 392.48093513 C-13.12855032 397.27163444 -13.1295163 402.06220291 -13.14352036 406.8528862 C-13.15622198 411.23805508 -13.15509476 415.6229943 -13.14292964 420.0081627 C-13.14096616 421.59496959 -13.14408105 423.18179254 -13.15277401 424.76857684 C-13.16384445 426.92583477 -13.15639424 429.08227897 -13.14438248 431.23951435 C-13.14497957 432.43764202 -13.14557665 433.6357697 -13.14619184 434.87020427 C-12.59008754 439.93500938 -11.46284904 443.886298 -7.44153064 447.18788487 C-4.44676264 448.40670183 -2.29566285 448.65110909 0.93291378 448.6544714 C2.65090188 448.66713131 2.65090188 448.66713131 4.40359682 448.68004698 C5.65727999 448.67403693 6.91096315 448.66802688 8.20263672 448.66183472 C9.55149007 448.66600796 10.90033992 448.67148543 12.24918324 448.67815453 C15.95468735 448.69262921 19.65996942 448.68835818 23.36548579 448.68098772 C27.36216303 448.67626333 31.35879173 448.68875941 35.35545349 448.69900513 C43.18478344 448.71621274 51.01403321 448.71702909 58.84337717 448.71179222 C65.20620161 448.70775298 71.56900233 448.70919115 77.93182564 448.71454048 C79.28952565 448.71566311 79.28952565 448.71566311 80.67465394 448.71680843 C82.51335088 448.71833988 84.35204783 448.71987823 86.19074477 448.72142339 C103.43875339 448.7351555 120.68671668 448.72970573 137.93472428 448.71823818 C153.71842245 448.70830474 169.50200341 448.72124712 185.28568351 448.74517237 C201.48800078 448.76954739 217.69026344 448.7791752 233.89259869 448.77251965 C242.99074497 448.76902391 252.08880108 448.77128285 261.18693352 448.78877068 C268.93188585 448.80347269 276.67668452 448.80415436 284.42163377 448.78669976 C288.37380313 448.77817087 292.32569778 448.77608601 296.27785301 448.79135132 C299.89572464 448.80515256 303.51308503 448.80049483 307.13092674 448.78111208 C309.05988165 448.77554931 310.98886229 448.78966167 312.91776842 448.80446619 C319.25831641 448.75025747 323.4819106 448.70263638 328.22755432 444.27415466 C329.36090598 442.00745134 329.35099244 440.79026591 329.34780884 438.27522278 C329.3491835 437.4394722 329.35055817 436.60372162 329.35197449 435.74264526 C329.34837921 434.8241127 329.34478394 433.90558014 329.34107971 432.95921326 C329.34129875 431.51036995 329.34129875 431.51036995 329.34152222 430.03225708 C329.3408237 426.82901286 329.3330341 423.62582627 329.32521057 420.42259216 C329.32334618 418.20584647 329.32192238 415.98910037 329.32092285 413.77235413 C329.31709936 407.92962004 329.3072705 402.08691069 329.29621887 396.2441864 C329.28600114 390.28542923 329.28142445 384.32666807 329.27638245 378.36790466 C329.2656481 366.66997711 329.24857367 354.97206794 329.22755432 343.27415466 C325.24806239 346.6205468 321.3869051 349.99074799 317.76783752 353.73143005 C316.56542168 354.96784996 316.56542168 354.96784996 315.3387146 356.22924805 C314.49378952 357.10129379 313.64886444 357.97333954 312.77833557 358.87181091 C310.94267746 360.74446821 309.1060587 362.61618423 307.26856995 364.48704529 C304.40003872 367.4093106 301.53688838 370.33628453 298.69264221 373.2822113 C296.82636254 375.21444268 294.95075326 377.13664862 293.06402588 379.04891968 C291.2989345 380.8381236 289.54702129 382.64046325 287.81112671 384.45800781 C281.85145076 390.44507275 276.19702179 393.5772486 268.22755432 396.27415466 C266.90246101 396.74831566 266.90246101 396.74831566 265.55059814 397.23205566 C262.95699106 398.14482153 260.35225984 399.01231628 257.73927307 399.86790466 C256.79300552 400.18191223 255.84673798 400.4959198 254.87179565 400.81944275 C251.88761877 401.80865058 248.90141436 402.79155996 245.91505432 403.77415466 C243.92858535 404.43128113 241.94225625 405.08883058 239.95606995 405.74681091 C236.1297451 407.01407951 232.30212656 408.27732512 228.47364807 409.53807068 C225.18465474 410.62288728 221.90054987 411.7201856 218.62208557 412.83641052 C217.93169693 413.0705365 217.24130829 413.30466248 216.52999878 413.54588318 C214.73175161 414.15718885 212.93502621 414.77296613 211.13844299 415.3891449 C204.47301306 417.41566368 199.4355883 416.51457827 193.20802307 413.48118591 C189.21958364 411.05036188 187.02383973 407.48085883 185.22755432 403.27415466 C183.8198116 393.58687267 186.79232339 384.89773201 189.89942932 375.87571716 C190.38441054 374.42794644 190.86804838 372.97972508 191.35041809 371.53108215 C192.35824712 368.51691233 193.37790893 365.50712148 194.40724182 362.50022888 C195.72142424 358.65999794 197.0115363 354.812216 198.29369736 350.96119118 C199.28851549 347.97837283 200.2927046 344.99877986 201.3000412 342.0201683 C201.77895848 340.60239973 202.25575687 339.18391345 202.73032379 337.76468277 C203.39588957 335.7810924 204.07319293 333.80190123 204.75392151 331.82347107 C205.1358667 330.70050629 205.51781189 329.5775415 205.91133118 328.42054749 C208.28923439 322.73623959 211.63360674 318.61142472 216.18830872 314.51701355 C216.67358559 314.07659517 217.15886247 313.63617678 217.65884471 313.18241239 C218.71503772 312.22455891 219.77374243 311.26946921 220.83467484 310.31686783 C223.7938235 307.65817686 226.73187389 304.97631887 229.67170715 302.29631042 C230.29863732 301.72553756 230.92556748 301.1547647 231.57149553 300.56669569 C240.39804635 292.51386765 249.05117895 284.27534463 257.71194839 276.04510117 C264.73628198 269.37990083 271.80908771 262.78830332 279.03224182 256.33860779 C287.39415128 248.85592887 295.58644394 241.22172629 303.55567932 233.32102966 C304.19909586 232.68331068 304.8425124 232.0455917 305.50542641 231.3885479 C323.0038407 213.86366951 333.07274868 198.67073647 333.22822571 173.37748718 C333.04797993 160.56196306 331.6162205 147.86206932 329.22755432 135.27415466 C328.16568405 135.26828842 327.10381378 135.26242218 326.00976562 135.25637817 C315.99010389 135.19910155 305.97065816 135.12631399 295.9512167 135.03843975 C290.80042531 134.99376121 285.64971256 134.95449943 280.49879456 134.92771912 C275.52548194 134.90166119 270.55247233 134.86124092 265.57934761 134.8109684 C263.68444152 134.79431656 261.78948303 134.78279182 259.89451408 134.77654076 C257.23494265 134.76688138 254.57614349 134.73880031 251.91676331 134.70652771 C251.13776672 134.7079628 250.35877014 134.70939789 249.5561676 134.71087646 C244.41050839 134.62288748 240.803192 133.67476083 236.22755432 131.27415466 C231.26030831 126.04547465 231.07024051 121.60170977 231.02223206 114.67185974 C231.01233246 113.79360031 231.00243286 112.91534088 230.99223328 112.01046753 C230.96062313 109.10490116 230.93586271 106.19931844 230.91114807 103.29368591 C230.89057813 101.28014702 230.86958165 99.26661245 230.84817505 97.25308228 C230.79295855 91.9512837 230.74354737 86.64944617 230.69532776 81.34757996 C230.64510969 75.93830394 230.58942521 70.52908454 230.53419495 65.11985779 C230.42661852 54.50467177 230.32517236 43.88943661 230.22755432 33.27415466 C200.12031747 33.16011761 170.01308802 33.07161974 139.90568291 33.01882802 C136.35208435 33.0125744 132.79848622 33.0061028 129.24488831 32.99949646 C128.18369208 32.99752913 128.18369208 32.99752913 127.10105755 32.99552206 C115.64245069 32.97375922 104.18396912 32.93433292 92.72543661 32.88839068 C80.96990128 32.84165036 69.21443161 32.81386443 57.45880717 32.80371219 C50.85495914 32.79718446 44.25139539 32.7818052 37.64763832 32.74550438 C31.43506434 32.71162977 25.2228924 32.70108464 19.01023483 32.70861626 C16.72731913 32.70723791 14.44439032 32.69725511 12.16155434 32.67812729 C9.04929312 32.65332348 5.93855848 32.659204 2.82626343 32.67288208 C1.91867289 32.65831787 1.01108235 32.64375367 0.07598907 32.62874812 C-5.56047572 32.69590674 -8.28221491 33.4504175 -11.77244568 38.27415466 Z M263.22755432 57.27415466 C263.22755432 72.12415466 263.22755432 86.97415466 263.22755432 102.27415466 C277.41755432 102.27415466 291.60755432 102.27415466 306.22755432 102.27415466 C293.29785926 87.18951042 279.31636667 73.25887827 265.22755432 59.27415466 C264.56755432 58.61415466 263.90755432 57.95415466 263.22755432 57.27415466 Z M375.41822815 200.74290466 C374.7636261 201.41321716 374.10902405 202.08352966 373.43458557 202.77415466 C372.72237854 203.49602966 372.01017151 204.21790466 371.27638245 204.96165466 C370.16940002 206.10634216 370.16940002 206.10634216 369.04005432 207.27415466 C368.29046448 208.03727966 367.54087463 208.80040466 366.76856995 209.58665466 C364.91468609 211.47596305 363.06814363 213.37190672 361.22755432 215.27415466 C365.90221769 220.89719223 370.90521099 226.0715702 376.10255432 231.21165466 C376.88630432 231.99089294 377.67005432 232.77013123 378.47755432 233.57298279 C380.39194013 235.47569551 382.30863466 237.37601637 384.22755432 239.27415466 C387.27088197 237.91573447 389.35064583 236.38952442 391.68067932 234.01634216 C392.29942932 233.39114685 392.91817932 232.76595154 393.55567932 232.12181091 C394.18989807 231.47083435 394.82411682 230.81985779 395.47755432 230.14915466 C396.12724182 229.49044373 396.77692932 228.83173279 397.44630432 228.15306091 C399.0446716 226.53118824 400.63817329 224.90482656 402.22755432 223.27415466 C399.75821221 217.44406553 394.699109 213.41782535 390.29005432 209.02415466 C389.37030823 208.08829529 388.45056213 207.15243591 387.50294495 206.18821716 C386.6192926 205.30392029 385.73564026 204.41962341 384.82521057 203.50852966 C384.01575989 202.69609802 383.2063092 201.88366638 382.37232971 201.0466156 C379.64411044 198.79199159 378.23756802 198.45425959 375.41822815 200.74290466 Z M333.3469696 242.88644409 C332.51166214 243.68858337 331.67635468 244.49072266 330.81573486 245.31716919 C329.89218704 246.2097493 328.96863922 247.10232941 328.0171051 248.0219574 C327.03980688 248.96354076 326.06244432 249.90505733 325.08502197 250.84651184 C316.07566516 259.53584595 307.13344933 268.29415863 298.20906258 277.07064724 C292.22117904 282.95692736 286.21483146 288.82124684 280.15431213 294.63279724 C274.85813881 299.71144402 269.60435865 304.83001896 264.3941859 309.99690586 C261.64455877 312.72114133 258.88053272 315.42427187 256.06480789 318.08027458 C238.97574551 334.23822798 230.23705992 350.13804663 225.22755432 373.27415466 C225.22755432 374.26415466 225.22755432 375.25415466 225.22755432 376.27415466 C227.83814349 375.56600474 230.44769242 374.85452819 233.05560493 374.13656425 C235.06174594 373.59112199 237.07193481 373.06017868 239.08720207 372.54948616 C258.54790238 367.47792547 270.46083159 357.26143609 283.95531201 343.16869998 C286.66145012 340.36069214 289.41479355 337.59965722 292.1628418 334.83276367 C297.3303209 329.61608253 302.45573537 324.36011892 307.56628984 319.08772379 C313.39872434 313.07476846 319.27814285 307.10864506 325.16140664 301.14548004 C337.23542967 288.90541822 349.25095063 276.60954161 361.22755432 264.27415466 C359.49430358 260.57056951 357.38516066 258.1874292 354.47364807 255.28977966 C354.0127327 254.82932251 353.55181732 254.36886536 353.07693481 253.89445496 C352.10680315 252.92733283 351.13425371 251.96263062 350.15943909 251.00022888 C348.66132627 249.5204723 347.17147002 248.03276864 345.68263245 246.54368591 C339.78793559 239.17598971 339.78793559 239.17598971 333.3469696 242.88644409 Z " fill="#000000" transform="translate(60.77244567871094,15.725845336914063)"/>
<path d="M0 0 C1.23336789 -0.00576172 1.23336789 -0.00576172 2.49165231 -0.01163983 C3.38959896 -0.01077335 4.2875456 -0.00990687 5.21270275 -0.00901413 C6.17081629 -0.01198525 7.12892984 -0.01495637 8.11607713 -0.01801753 C11.33491453 -0.02670717 14.55371476 -0.028213 17.77256298 -0.02970505 C20.07703767 -0.034333 22.38151159 -0.03935763 24.68598461 -0.04475021 C30.95254654 -0.05787763 37.21909775 -0.06431974 43.48567128 -0.06876087 C47.39944589 -0.07169079 51.31321757 -0.07579542 55.2269907 -0.08026505 C66.06589462 -0.09237338 76.9047953 -0.10275583 87.74370575 -0.10614014 C88.43719298 -0.1063597 89.1306802 -0.10657927 89.84518219 -0.10680549 C90.54031435 -0.10702377 91.23544652 -0.10724204 91.95164329 -0.10746694 C93.36021157 -0.1079104 94.76877985 -0.10835696 96.17734814 -0.10880661 C96.87604443 -0.10902804 97.57474072 -0.10924947 98.29460963 -0.10947761 C109.6157772 -0.11342557 120.93688041 -0.13088032 132.25802312 -0.15416613 C143.88488482 -0.1778875 155.51171104 -0.19008441 167.13859719 -0.19150805 C173.66523207 -0.19255699 180.19177614 -0.19848388 186.71838856 -0.21632767 C192.85709419 -0.2327844 198.99564051 -0.23497542 205.13436031 -0.22618866 C207.38739542 -0.22541703 209.64043902 -0.22977754 211.89345264 -0.23964691 C214.96946082 -0.25233123 218.04490176 -0.24650844 221.12090588 -0.23606491 C222.01216036 -0.24412132 222.90341484 -0.25217772 223.82167703 -0.26047826 C230.75015813 -0.20547363 235.60076062 0.87490861 240.66977978 5.94392776 C244.18484437 11.06587902 245.41163652 15.08616716 244.38852978 21.17830276 C243.11050887 25.87690906 240.73788265 28.50921869 236.82838821 31.27155685 C232.28685394 33.75481209 228.02519102 33.68921584 222.94454479 33.63936234 C221.47184457 33.64872228 221.47184457 33.64872228 219.96939284 33.65827131 C216.68820466 33.67419258 213.40776023 33.66160008 210.12656689 33.64900589 C207.77076313 33.65442733 205.41496276 33.66155011 203.05916882 33.67024612 C196.66673776 33.68847852 190.27456499 33.68141234 183.88212943 33.66872978 C177.87120583 33.65962955 171.86030588 33.66657577 165.84938294 33.67243856 C153.22004457 33.68383663 140.59082246 33.67074238 127.96150316 33.6492371 C117.12909643 33.63136264 106.29686115 33.63447451 95.46445751 33.65291214 C82.87795218 33.67432544 70.29154864 33.68274242 57.70502764 33.67046309 C51.04489309 33.66414174 44.3848541 33.66340193 37.72472477 33.67660904 C31.46443634 33.68815622 25.20447202 33.68016201 18.94421864 33.65703201 C16.64561915 33.65173917 14.34699242 33.65326847 12.04840374 33.66208267 C8.91291023 33.67299839 5.77845811 33.65932168 2.64303112 33.63936234 C1.73145542 33.64828522 0.81987971 33.65720811 -0.1193195 33.66640139 C-5.62248806 33.5983591 -8.78313701 32.80822555 -13.14272022 29.13142776 C-17.12998571 24.49757868 -18.3845193 20.14486568 -18.14272022 14.13142776 C-16.52284252 8.15812874 -13.28039036 4.42395616 -8.14272022 1.13142776 C-5.3737266 0.2885494 -2.88696507 0.00507874 0 0 Z " fill="#000000" transform="translate(106.14272022247314,211.86857223510742)"/>
<path d="M0 0 C1.1495668 -0.00708481 2.29913361 -0.01416962 3.48353577 -0.02146912 C4.74077957 -0.0189917 5.99802338 -0.01651428 7.29336548 -0.01396179 C8.6339598 -0.01831016 9.97455163 -0.02349373 11.31513977 -0.02944946 C14.9536475 -0.04283858 18.59205134 -0.04341815 22.2305789 -0.04088616 C25.269779 -0.03981621 28.30895811 -0.04470053 31.34815371 -0.04949158 C38.51984835 -0.06058685 45.69149062 -0.06102433 52.8631897 -0.05497742 C60.25680067 -0.04893913 67.65022127 -0.06124482 75.04379976 -0.08254749 C81.3955263 -0.10017408 87.74719231 -0.10616311 94.0989424 -0.10290974 C97.8907963 -0.10109814 101.68251445 -0.10372053 105.47434616 -0.11762428 C109.04160985 -0.13021502 112.60857733 -0.12824699 116.17583656 -0.11521339 C118.10457254 -0.11172631 120.03331762 -0.12301695 121.96202087 -0.13478088 C128.66195164 -0.09409949 133.81813261 0.03165385 139.00283813 4.76069641 C142.68767147 9.49305762 143.79014658 12.95823933 143.69424438 18.84663391 C143.11210454 23.02991793 141.37620719 26.32453091 138.35830688 29.26069641 C131.3268082 33.70453687 125.37533291 33.83259041 117.18447876 33.77827454 C115.87942886 33.78528381 114.57437897 33.79229309 113.2297821 33.79951477 C109.66976183 33.81765983 106.11020826 33.81071762 102.55018044 33.79799843 C98.81299264 33.78782467 95.07584304 33.79727619 91.33865356 33.80354309 C85.06437047 33.81080684 78.79027612 33.80126542 72.51602173 33.78218079 C65.27679362 33.76041433 58.03801623 33.76746662 50.79879904 33.78948641 C44.56752734 33.80767689 38.3363908 33.81018099 32.10510111 33.79973173 C28.3903506 33.79351675 24.6758115 33.79260575 20.96107483 33.80587769 C16.81782627 33.81964835 12.67534668 33.80052726 8.53213501 33.77827454 C7.31111588 33.78637146 6.09009674 33.79446838 4.83207703 33.80281067 C-2.12761474 33.73366842 -6.74132574 33.04592347 -12.64169312 29.26069641 C-16.72167416 24.76225578 -17.89366834 20.21739075 -17.64169312 14.26069641 C-16.76717819 9.87264365 -15.42112468 7.02014256 -12.20419312 3.88569641 C-7.88639462 1.14758029 -5.18820518 0.01066345 0 0 Z " fill="#000000" transform="translate(105.64169311523438,305.7393035888672)"/>
<path d="M0 0 C0.92804947 -0.0071553 1.85609894 -0.01431061 2.81227112 -0.02168274 C3.83358627 -0.02437164 4.85490143 -0.02706055 5.90716553 -0.02983093 C6.98046616 -0.03640213 8.05376678 -0.04297333 9.15959167 -0.04974365 C12.72356225 -0.06950915 16.28749063 -0.08114661 19.85150146 -0.09111023 C21.06679283 -0.09518576 22.2820842 -0.09926128 23.53420258 -0.10346031 C29.96662731 -0.12433507 36.39903063 -0.13863063 42.83148193 -0.147995 C49.48077132 -0.15906141 56.12971803 -0.19346037 62.77890396 -0.23316669 C67.8867048 -0.25929415 72.9944255 -0.26768342 78.10228729 -0.27127647 C80.55350757 -0.27615254 83.00472404 -0.28779534 85.45587921 -0.30631447 C88.88652646 -0.3306223 92.31630255 -0.32975567 95.74700928 -0.32279968 C96.76022751 -0.33560974 97.77344574 -0.3484198 98.81736755 -0.36161804 C104.59297755 -0.3189229 108.04389814 0.20997889 112.58587646 4.14717102 C116.56299763 8.76923075 117.84787431 13.14218032 117.58587646 19.14717102 C116.01768468 24.37447698 113.81737688 27.70292649 109.58587646 31.14717102 C104.21615443 33.52340443 99.13694023 33.43686141 93.37713623 33.42182922 C92.36337921 33.42694016 91.34962219 33.43205109 90.30514526 33.43731689 C86.96246394 33.45118832 83.61998935 33.45025802 80.27728271 33.44795227 C77.94850081 33.45184037 75.61971961 33.45617528 73.29093933 33.4609375 C68.41290995 33.46839432 63.53495295 33.46811217 58.65692139 33.46284485 C52.41144013 33.45704919 46.16625534 33.47398642 39.9208231 33.49718952 C35.11236341 33.5119333 30.30397503 33.5127977 25.49549675 33.50967979 C23.19304759 33.51019262 20.89059439 33.51542307 18.58816719 33.52549171 C15.36658675 33.53785177 12.1455827 33.53106674 8.92401123 33.51948547 C7.50315971 33.53095108 7.50315971 33.53095108 6.05360413 33.54264832 C-0.33979168 33.49194348 -5.13700316 32.60827537 -10.37506104 28.67451477 C-14.0059813 24.59223702 -15.41480861 21.12663197 -15.64849854 15.64326477 C-15.13136539 10.13579682 -12.78185897 6.41721106 -8.78912354 2.70967102 C-5.53432222 0.56835436 -3.85265282 0.02035347 0 0 Z " fill="#000000" transform="translate(103.41412353515625,399.8528289794922)"/>
</svg>
